<svg viewBox="0 0 330 200" xmlns="http://www.w3.org/2000/svg"><g><g><g><g><g><line x1="30.78125" y1="178" x2="25.78125" y2="178" style="visibility: inherit;" fill="rgb(0, 0, 0)" stroke="rgb(204, 204, 204)" stroke-width="1px"></line><line x1="30.78125" y1="161.8181818181818" x2="25.78125" y2="161.8181818181818" style="visibility: inherit;" fill="rgb(0, 0, 0)" stroke="rgb(204, 204, 204)" stroke-width="1px"></line><line x1="30.78125" y1="145.63636363636363" x2="25.78125" y2="145.63636363636363" style="visibility: inherit;" fill="rgb(0, 0, 0)" stroke="rgb(204, 204, 204)" stroke-width="1px"></line><line x1="30.78125" y1="129.45454545454547" x2="25.78125" y2="129.45454545454547" style="visibility: inherit;" fill="rgb(0, 0, 0)" stroke="rgb(204, 204, 204)" stroke-width="1px"></line><line x1="30.78125" y1="113.27272727272727" x2="25.78125" y2="113.27272727272727" style="visibility: inherit;" fill="rgb(0, 0, 0)" stroke="rgb(204, 204, 204)" stroke-width="1px"></line><line x1="30.78125" y1="97.09090909090908" x2="25.78125" y2="97.09090909090908" style="visibility: inherit;" fill="rgb(0, 0, 0)" stroke="rgb(204, 204, 204)" stroke-width="1px"></line><line x1="30.78125" y1="80.90909090909092" x2="25.78125" y2="80.90909090909092" style="visibility: inherit;" fill="rgb(0, 0, 0)" stroke="rgb(204, 204, 204)" stroke-width="1px"></line><line x1="30.78125" y1="64.72727272727273" x2="25.78125" y2="64.72727272727273" style="visibility: inherit;" fill="rgb(0, 0, 0)" stroke="rgb(204, 204, 204)" stroke-width="1px"></line><line x1="30.78125" y1="48.54545454545454" x2="25.78125" y2="48.54545454545454" style="visibility: inherit;" fill="rgb(0, 0, 0)" stroke="rgb(204, 204, 204)" stroke-width="1px"></line><line x1="30.78125" y1="32.36363636363635" x2="25.78125" y2="32.36363636363635" style="visibility: inherit;" fill="rgb(0, 0, 0)" stroke="rgb(204, 204, 204)" stroke-width="1px"></line><line x1="30.78125" y1="16.181818181818187" x2="25.78125" y2="16.181818181818187" style="visibility: inherit;" fill="rgb(0, 0, 0)" stroke="rgb(204, 204, 204)" stroke-width="1px"></line><line x1="30.78125" y1="0" x2="25.78125" y2="0" style="visibility: inherit;" fill="rgb(0, 0, 0)" stroke="rgb(204, 204, 204)" stroke-width="1px"></line></g><g transform="translate(20.78125, 0)"><text x="0" y="178" dx="0em" dy="0.3em" style="text-anchor: end; visibility: hidden; font-family: Roboto, sans-serif; font-size: 12px; font-weight: 200;" fill="rgb(50, 49, 63)" stroke="none" stroke-width="1px">-5</text><text x="0" y="161.8181818181818" dx="0em" dy="0.3em" style="text-anchor: end; visibility: inherit; font-family: Roboto, sans-serif; font-size: 12px; font-weight: 200;" fill="rgb(50, 49, 63)" stroke="none" stroke-width="1px">0</text><text x="0" y="145.63636363636363" dx="0em" dy="0.3em" style="text-anchor: end; visibility: hidden; font-family: Roboto, sans-serif; font-size: 12px; font-weight: 200;" fill="rgb(50, 49, 63)" stroke="none" stroke-width="1px">5</text><text x="0" y="129.45454545454547" dx="0em" dy="0.3em" style="text-anchor: end; visibility: inherit; font-family: Roboto, sans-serif; font-size: 12px; font-weight: 200;" fill="rgb(50, 49, 63)" stroke="none" stroke-width="1px">10</text><text x="0" y="113.27272727272727" dx="0em" dy="0.3em" style="text-anchor: end; visibility: hidden; font-family: Roboto, sans-serif; font-size: 12px; font-weight: 200;" fill="rgb(50, 49, 63)" stroke="none" stroke-width="1px">15</text><text x="0" y="97.09090909090908" dx="0em" dy="0.3em" style="text-anchor: end; visibility: inherit; font-family: Roboto, sans-serif; font-size: 12px; font-weight: 200;" fill="rgb(50, 49, 63)" stroke="none" stroke-width="1px">20</text><text x="0" y="80.90909090909092" dx="0em" dy="0.3em" style="text-anchor: end; visibility: hidden; font-family: Roboto, sans-serif; font-size: 12px; font-weight: 200;" fill="rgb(50, 49, 63)" stroke="none" stroke-width="1px">25</text><text x="0" y="64.72727272727273" dx="0em" dy="0.3em" style="text-anchor: end; visibility: inherit; font-family: Roboto, sans-serif; font-size: 12px; font-weight: 200;" fill="rgb(50, 49, 63)" stroke="none" stroke-width="1px">30</text><text x="0" y="48.54545454545454" dx="0em" dy="0.3em" style="text-anchor: end; visibility: hidden; font-family: Roboto, sans-serif; font-size: 12px; font-weight: 200;" fill="rgb(50, 49, 63)" stroke="none" stroke-width="1px">35</text><text x="0" y="32.36363636363635" dx="0em" dy="0.3em" style="text-anchor: end; visibility: inherit; font-family: Roboto, sans-serif; font-size: 12px; font-weight: 200;" fill="rgb(50, 49, 63)" stroke="none" stroke-width="1px">40</text><text x="0" y="16.181818181818187" dx="0em" dy="0.3em" style="text-anchor: end; visibility: hidden; font-family: Roboto, sans-serif; font-size: 12px; font-weight: 200;" fill="rgb(50, 49, 63)" stroke="none" stroke-width="1px">45</text><text x="0" y="0" dx="0em" dy="0.3em" style="text-anchor: end; visibility: hidden; font-family: Roboto, sans-serif; font-size: 12px; font-weight: 200;" fill="rgb(50, 49, 63)" stroke="none" stroke-width="1px">50</text></g><line x1="30.78125" y1="0" x2="30.78125" y2="178" fill="rgb(0, 0, 0)" stroke="rgb(204, 204, 204)" stroke-width="1px"></line></g></g><g transform="translate(30, 0)" clip-path="url(#clip_0)"><clipPath id="clip_0"><rect width="299" height="178"></rect></clipPath><g><g><g><line x1="0" y1="0" x2="0" y2="178" fill="rgb(0, 0, 0)" stroke="rgb(60, 60, 60)" stroke-width="1px" opacity="0.25"></line><line x1="29.921875" y1="0" x2="29.921875" y2="178" fill="rgb(0, 0, 0)" stroke="rgb(60, 60, 60)" stroke-width="1px" opacity="0.25"></line><line x1="59.84375" y1="0" x2="59.84375" y2="178" fill="rgb(0, 0, 0)" stroke="rgb(60, 60, 60)" stroke-width="1px" opacity="0.25"></line><line x1="89.765625" y1="0" x2="89.765625" y2="178" fill="rgb(0, 0, 0)" stroke="rgb(60, 60, 60)" stroke-width="1px" opacity="0.25"></line><line x1="119.6875" y1="0" x2="119.6875" y2="178" fill="rgb(0, 0, 0)" stroke="rgb(60, 60, 60)" stroke-width="1px" opacity="0.25"></line><line x1="149.609375" y1="0" x2="149.609375" y2="178" fill="rgb(0, 0, 0)" stroke="rgb(60, 60, 60)" stroke-width="1px" opacity="0.25"></line><line x1="179.53125" y1="0" x2="179.53125" y2="178" fill="rgb(0, 0, 0)" stroke="rgb(60, 60, 60)" stroke-width="1px" opacity="0.25"></line><line x1="209.453125" y1="0" x2="209.453125" y2="178" fill="rgb(0, 0, 0)" stroke="rgb(60, 60, 60)" stroke-width="1px" opacity="0.25"></line><line x1="239.375" y1="0" x2="239.375" y2="178" fill="rgb(0, 0, 0)" stroke="rgb(60, 60, 60)" stroke-width="1px" opacity="0.25"></line><line x1="269.296875" y1="0" x2="269.296875" y2="178" fill="rgb(0, 0, 0)" stroke="rgb(60, 60, 60)" stroke-width="1px" opacity="0.25"></line><line x1="299.21875" y1="0" x2="299.21875" y2="178" fill="rgb(0, 0, 0)" stroke="rgb(60, 60, 60)" stroke-width="1px" opacity="0.25"></line></g><g><line x1="0" y1="178" x2="299.21875" y2="178" fill="rgb(0, 0, 0)" stroke="rgb(60, 60, 60)" stroke-width="1px" opacity="0.25"></line><line x1="0" y1="161.8181818181818" x2="299.21875" y2="161.8181818181818" fill="rgb(0, 0, 0)" stroke="rgb(60, 60, 60)" stroke-width="1px" opacity="0.25"></line><line x1="0" y1="145.63636363636363" x2="299.21875" y2="145.63636363636363" fill="rgb(0, 0, 0)" stroke="rgb(60, 60, 60)" stroke-width="1px" opacity="0.25"></line><line x1="0" y1="129.45454545454547" x2="299.21875" y2="129.45454545454547" fill="rgb(0, 0, 0)" stroke="rgb(60, 60, 60)" stroke-width="1px" opacity="0.25"></line><line x1="0" y1="113.27272727272727" x2="299.21875" y2="113.27272727272727" fill="rgb(0, 0, 0)" stroke="rgb(60, 60, 60)" stroke-width="1px" opacity="0.25"></line><line x1="0" y1="97.09090909090908" x2="299.21875" y2="97.09090909090908" fill="rgb(0, 0, 0)" stroke="rgb(60, 60, 60)" stroke-width="1px" opacity="0.25"></line><line x1="0" y1="80.90909090909092" x2="299.21875" y2="80.90909090909092" fill="rgb(0, 0, 0)" stroke="rgb(60, 60, 60)" stroke-width="1px" opacity="0.25"></line><line x1="0" y1="64.72727272727273" x2="299.21875" y2="64.72727272727273" fill="rgb(0, 0, 0)" stroke="rgb(60, 60, 60)" stroke-width="1px" opacity="0.25"></line><line x1="0" y1="48.54545454545454" x2="299.21875" y2="48.54545454545454" fill="rgb(0, 0, 0)" stroke="rgb(60, 60, 60)" stroke-width="1px" opacity="0.25"></line><line x1="0" y1="32.36363636363635" x2="299.21875" y2="32.36363636363635" fill="rgb(0, 0, 0)" stroke="rgb(60, 60, 60)" stroke-width="1px" opacity="0.25"></line><line x1="0" y1="16.181818181818187" x2="299.21875" y2="16.181818181818187" fill="rgb(0, 0, 0)" stroke="rgb(60, 60, 60)" stroke-width="1px" opacity="0.25"></line><line x1="0" y1="0" x2="299.21875" y2="0" fill="rgb(0, 0, 0)" stroke="rgb(60, 60, 60)" stroke-width="1px" opacity="0.25"></line></g></g></g><g><g><line x1="0" y1="161.8181818181818" x2="299.21875" y2="161.8181818181818" fill="rgb(0, 0, 0)" stroke="rgb(153, 153, 153)" stroke-width="1.5px"></line></g></g><g><g><line x1="29.921875" y1="0" x2="29.921875" y2="178" fill="rgb(0, 0, 0)" stroke="rgb(153, 153, 153)" stroke-width="1.5px"></line></g></g><g><g><g><g><g><path stroke="rgb(255, 112, 67)" stroke-width="2px" d="M30.5203125,161.77857825160027L31.11875,161.7573794411834L31.717187499999998,161.7526856094032L32.315625,161.76103401901L32.9140625,161.77489957617277L33.5125,161.71912967029706L33.5125,161.6908240123209L34.1109375,161.67965550512176L34.1109375,161.67215880509232L34.709375,161.62459755723407L34.709375,161.59319344196098L35.3078125,161.65447606053925L35.3078125,161.6735305955955L35.90625,161.64740537934205L35.90625,161.61983835063322L36.504687499999996,161.64767376073073L36.504687499999996,161.65290854373328L37.103125,161.59792495592492L37.103125,161.5456909074471L37.7015625,161.53036968305025L37.7015625,161.3521116068403L38.300000000000004,161.07286468204813L39.496875,161.23833243317137L39.496875,160.88427019009941L40.095312500000006,161.14637250661082L40.095312500000006,160.85126570893044L40.69375,161.06968410411662L41.292187500000004,161.1440272991466L41.89062500000001,160.0096393859066L42.489062499999996,160.38913632455507L43.0875,160.66602703605713L43.0875,160.15400989891046L43.685937499999994,160.76631133280569L43.685937499999994,160.88702484094495L44.284375,161.26251287691693L44.284375,161.85336745837003L44.8828125,161.86336594395178L45.481249999999996,162.02367613510341L46.0796875,161.22403831463984L46.678125,161.76161528214945L46.678125,160.74481722405358L47.2765625,161.55924621729534L47.2765625,160.12257610853572L48.4734375,161.24087638985796L48.4734375,161.0984373074343L49.071875,161.3865925591674L49.071875,161.0073728859085L49.6703125,161.0367046985646L49.6703125,160.77161903863148L50.268750000000004,161.4533737547534L50.268750000000004,161.02049075928775L50.86718750000001,160.91806368667503L50.86718750000001,160.28155803324026L51.465624999999996,160.41653837336946L52.0640625,160.93117282039088L52.0640625,160.15364706565424L52.662499999999994,160.82760665229486L53.2609375,160.11549492073416L53.2609375,159.40161734088758L53.859375,158.6909758005952L53.859375,157.93396172706952L54.457812499999996,156.70087627607657L55.05625,157.20964042122733L55.6546875,158.9608141070774L55.6546875,158.7718963941004L56.253125,159.14774223067937L56.253125,158.1831753052822L56.8515625,158.95799350918998L56.8515625,157.54647764661007L57.45,155.8318551354403L58.0484375,153.63049549287416L58.0484375,151.45207124508752L58.646875,154.1245100734075L59.245312500000004,156.18143707476875L59.245312500000004,156.28709218371512L59.84375,155.48849250325L60.4421875,157.6454224373713L60.4421875,158.4980982028569L61.040625,157.76513379354031L61.040625,156.58177200974458L61.639062499999994,154.54492288602253L61.639062499999994,152.81644146632144L62.2375,153.55078312250748L62.8359375,148.41864762729978L63.434374999999996,150.4467397307766L64.0328125,153.00814010755334L64.63125,151.99099764402195L64.63125,150.25318553931623L65.2296875,147.59935723811833L65.2296875,147.05924263876943L65.828125,144.1305878223641L65.828125,142.8979651271121L66.4265625,147.17684805917187L66.4265625,149.13245683160795L67.025,144.27377936629875L67.62343750000001,145.29787313985426L67.62343750000001,142.75531126961036L68.221875,146.33561358893687L68.221875,146.98181504167886L68.8203125,139.1667965722818L69.41875,142.98991914098983L70.0171875,139.19562186423258L70.615625,144.3576011299309L71.2140625,147.65681079794814L71.2140625,148.6345227067407L71.8125,147.12387648664875L72.4109375,148.86538307638202L73.00937499999999,149.24922472026324L73.00937499999999,148.40398917092526L73.6078125,148.90846703465965L73.6078125,148.20301173935047L74.20625,141.00981951697676L74.8046875,144.6897781792468L74.8046875,146.7254650749675L75.403125,152.5853797436683L75.403125,155.67920110621353L76.0015625,147.89256248668178L76.60000000000001,138.89114171231267L76.60000000000001,133.16360842271786L77.1984375,139.83826492240513L77.796875,144.58153514196403L77.796875,146.7181553748679L78.3953125,137.54526796135985L78.99375,131.7733216793594L79.59218750000001,137.07824515355625L79.59218750000001,139.69974241906024L80.19062500000001,132.22679429010358L80.7890625,143.9394614225701L80.7890625,150.68570998661536L81.3875,142.67650981820768L81.9859375,128.64380888941537L81.9859375,120.28970227589885L82.58437500000001,128.21963974988324L83.18281250000001,136.0090097951426L83.18281250000001,138.99585147534106L83.78125000000001,117.20591082084027L84.37968749999999,112.48234090945198L84.37968749999999,105.36268135675073L84.97812499999999,109.93618655619355L84.97812499999999,111.1424836122939L85.5765625,103.44541512187742L85.5765625,97.17072533045068L86.175,120.7036496487598L86.175,130.81977554365042L86.7734375,116.76406780754678L87.37187499999999,95.57480942565022L87.37187499999999,77.81491034688516L88.56875,93.97990860770052L89.765625,79.56299721096262L89.765625,70.16343386901367L90.3640625,81.1106372811916L90.96249999999999,113.21994857660069L90.96249999999999,129.8260508442914L91.5609375,136.2999959282168L92.159375,121.30616255160336L92.159375,113.64964773737181L92.7578125,106.87018104299126L92.7578125,99.60955491485727L93.9546875,102.30575170335328L93.9546875,98.48609145835786L94.553125,83.749431197813L94.553125,72.10285651698327L95.75,88.57238384038793L95.75,94.2397398135101L96.3484375,115.61999822243445L96.3484375,118.85051050794577L96.946875,100.77706239718579L96.946875,83.14819539063747L97.54531250000001,71.70250987465236L98.14375,47.89025886557623L98.14375,28.705473678720736L98.7421875,53.049705216642955L99.340625,64.39282603193L99.340625,66.79289876635262L99.9390625,58.66774365434282L99.9390625,53.048863744097176L100.53750000000001,67.59603522089013L100.53750000000001,74.45858454473223L101.13593750000001,72.1147498923223L101.73437500000001,90.22247095701091L102.3328125,52.84885322406449L102.3328125,29.47548225581653L102.93124999999999,57.22006674162912L103.5296875,68.7110209243276L103.5296875,72.8416324187656L104.128125,78.32157152556688L104.128125,79.10593097464411L104.7265625,60.99579169469415L104.7265625,46.16870837086479L105.32499999999999,17.8385925207433L105.32499999999999,-2.8011070718934996L105.92343749999999,42.745115591958L105.92343749999999,71.74209548931897L106.521875,49.709175750622634L106.521875,34.58649976855539L107.71875,63.63627361268687L107.71875,81.80847043314834L108.3171875,66.27411096860702L108.3171875,56.15149083986449L108.91562499999999,55.895151040229074L109.5140625,65.51235693162145L110.1125,48.127038404356405L110.7109375,58.758475267622714L111.309375,46.85510014193017L111.9078125,80.69278886711832L111.9078125,100.27802528227384L112.50625,78.2693600579474L112.50625,64.63309186484655L113.1046875,26.886065668002377L113.703125,58.40877521512138L113.703125,76.1848069769954L114.3015625,6.102032312972806L114.3015625,-41.77756112979441L114.9,-13.651451117684896L114.9,0.0615701807740161L115.49843750000001,19.983610809636296L116.6953125,54.29184317701047L117.29375,45.78812736838667L117.8921875,29.312032304821045L118.49062500000001,41.34895122770796L118.49062500000001,65.29099782291736L119.08906250000001,53.284415255362646L119.08906250000001,40.21406279402016L119.6875,74.17940921738334L119.6875,86.90035235637993L120.2859375,110.3739666295595L120.2859375,112.9392243658305L120.884375,111.59167163232678L120.884375,101.82149026743762L121.48281250000001,92.0454461513184L122.08125,84.17236903689366L122.67968749999999,55.89293280796716L123.27812499999999,70.56679478554378L123.87656249999999,99.16093042024318L124.475,107.16221038504717L125.0734375,121.76754881514586L125.0734375,128.7056158202931L125.671875,92.55067922894787L125.671875,68.28904623143832L126.2703125,79.55966653058886L126.2703125,85.86441147952164L126.86874999999999,109.5465812083362L126.86874999999999,123.02729134862564L127.4671875,118.0253015891825L127.4671875,111.6647952668085L128.065625,87.64917939508155L128.065625,72.82876067770944L128.6640625,102.09856316932098L129.2625,97.47784997656593L129.2625,94.96709758692502L129.8609375,106.82839193061736L130.459375,123.85832477573548L131.0578125,136.58749347827865L131.65625,128.05956673238623L132.2546875,131.08810032441042L132.2546875,131.50676333740194L132.853125,129.89996811985063L132.853125,125.73867324917423L133.4515625,140.05932544275737L133.4515625,147.32646002284548L134.05,149.65931223751767L134.05,150.37515804341612L134.6484375,119.63548023531816L134.6484375,103.76815204388976L135.24687500000002,115.29321017386582L135.24687500000002,120.38769174041678L135.8453125,122.87368615575576L135.8453125,125.8354934317347L136.44375,124.5980820586857L137.0421875,117.38743638231725L137.0421875,113.2262103867412L137.640625,115.03266409825565L137.640625,116.03527661502585L138.23906250000002,128.4556208140972L138.23906250000002,137.12370074662593L138.8375,128.3857503773967L138.8375,124.33861148132085L139.4359375,135.17427334520232L139.4359375,141.6370974099978L140.034375,134.007276146194L140.034375,130.63971602951327L140.6328125,122.44982720959362L141.23125,118.38951346886697L141.23125,113.68895216645866L141.8296875,128.88605362853286L142.428125,135.66315089826674L142.428125,136.65002921083504L143.02656249999998,136.00328512682063L143.02656249999998,136.00007044132676L143.625,130.26148263899705L143.625,128.42938087201685L144.2234375,129.82137807931807L144.821875,127.23413766080107L145.4203125,127.69391815445293L145.4203125,125.02935038219591L146.01874999999998,119.8672319223218L146.01874999999998,117.81740369529649L146.6171875,121.28072292341014L147.215625,137.17338370521796L147.215625,145.34197012014783L147.8140625,141.12772818137492L147.8140625,137.09556479856218L149.0109375,129.1710460990414L149.609375,125.51317553318196L149.609375,122.13763676522167L150.2078125,126.28090575630986L150.80625,121.49091566836333L150.80625,105.58394065856415L151.4046875,109.08633668517756L152.003125,115.77679235645455L152.6015625,116.32017242647926L153.20000000000002,126.68684877282647L153.20000000000002,132.939200439122L154.396875,137.7922718725819L154.396875,136.9814916081017L154.9953125,118.08104473403714L155.59375,129.98942412602244L156.19218750000002,139.09572684111419L156.19218750000002,140.96111319540003L156.790625,148.20848271438138L156.790625,130.10421441223144L157.3890625,122.8262585057373L157.9875,106.92769751954678L158.5859375,81.33879779972523L159.18437500000002,59.51196032046014L159.7828125,54.23529875086984L160.38125000000002,44.973554405884116L160.9796875,70.57809798665902L161.578125,71.46058576509556L161.578125,68.73984805218588L162.17656250000002,98.7842972368513L162.17656250000002,114.40203980118395L162.775,43.83670106465923L163.37343750000002,33.16096733845818L163.37343750000002,23.472012587467674L163.971875,45.15791824583997L163.971875,56.29328826772772L164.5703125,45.10696422706063L164.5703125,29.949043925973594L165.16875000000002,47.87932317842684L165.16875000000002,48.42601431721235L165.7671875,37.21447855215269L165.7671875,18.025892886351965L166.36562500000002,18.908869527532044L166.36562500000002,5.5679810182770595L166.9640625,42.91408720049925L167.56250000000003,42.042636557693L167.56250000000003,37.86426934583739L168.16093750000002,31.937531278578422L168.16093750000002,26.00955428960798L168.75937499999998,30.881027207109952L168.75937499999998,34.107102763364L169.3578125,16.453187550241406L169.3578125,3.9680081666860434L169.95624999999998,5.979837215352543L169.95624999999998,5.083742727826571L170.55468749999997,67.45878573124496L170.55468749999997,106.02147216672992L171.153125,80.59458740160045L171.153125,62.53627803133668L171.75156249999998,94.33265241117596L171.75156249999998,111.83341643671803L172.35,101.67662196119628L172.94843749999998,110.99472955766592L173.546875,36.723042346637904L174.74374999999998,40.97627125315318L175.3421875,36.13331324461207L175.3421875,21.81698129948387L175.94062499999998,60.95206916188138L175.94062499999998,75.89024731766328L176.5390625,83.71706642593178L176.5390625,83.82052500071175L177.1375,101.35843538394978L177.7359375,87.3795913428965L177.7359375,70.6741375294595L178.93281249999998,100.25687759269346L178.93281249999998,115.8299984428231L179.53125,123.7741421986839L180.728125,121.25979546103386L181.3265625,123.97154910723111L181.3265625,124.64677379139832L181.92499999999998,117.33492257340077L181.92499999999998,116.39196181707848L182.5234375,85.6038473006519L182.5234375,62.90666379365463L183.121875,53.60706901039022L183.121875,45.448611412448614L183.7203125,68.87628412929624L184.31875,84.26069018860403L184.31875,99.39361595642414L184.9171875,118.20485504304838L184.9171875,129.20064873250516L185.515625,132.30616482987952L185.515625,132.80197307339822L186.1140625,135.02320696526584L186.7125,121.29032543537399L187.3109375,128.0967565460699L187.3109375,129.1378353662961L189.10625,117.76323336311039L189.7046875,117.47186643721106L190.303125,127.36028730395482L190.303125,133.47581244141054L190.9015625,126.20377298730725L190.9015625,123.10860820267378L191.5,128.40793175621008L191.5,130.67917270007726L192.09843750000002,133.3548751687857L192.09843750000002,132.6695975200392L192.696875,138.4652653701556L192.696875,143.08901811990944L193.2953125,134.8509024934833L193.2953125,125.87806754700438L193.89375,129.31931924912772L193.89375,131.5511205800164L194.4921875,132.16833811394557L194.4921875,132.38435666697353L195.09062500000002,129.86214938115447L195.6890625,131.60532579479707L195.6890625,133.70364488983103L196.2875,141.1000012649533L196.8859375,139.15687104261897L197.484375,148.08367360102417L198.08281250000002,150.78023667570682L198.08281250000002,152.911029218004L198.68125,154.69890016241638L199.27968750000002,146.64473751954677L199.27968750000002,144.96289198349652L199.878125,147.8831669583419L199.878125,148.78088769609L200.4765625,147.45227891392975L200.4765625,143.43921061562526L201.07500000000002,145.763569967897L201.07500000000002,146.07385240221367L201.6734375,149.57437358621456L201.6734375,154.38816431563586L202.27187500000002,152.37534489231567L202.8703125,148.86251946035833L202.8703125,145.77464345389166L203.46875000000003,150.30198288019633L203.46875000000003,150.81767679421333L204.06718750000002,149.45995426267413L204.06718750000002,145.77012207431702L204.665625,149.509621226546L204.665625,154.22679617065327L205.26406250000002,148.98931069300366L205.26406250000002,146.91549694103745L205.86249999999998,143.87607033425581L205.86249999999998,142.27471066535284L206.46093749999997,146.58419077354588L206.46093749999997,149.94414362838978L207.059375,142.34086937516508L207.65781249999998,147.64200152511236L207.65781249999998,147.39374203611678L208.25625,149.71850253756585L208.85468749999998,146.22403170941806L208.85468749999998,144.34397634043688L209.453125,144.7861715847353L210.0515625,151.15838928285027L210.0515625,156.23298116547986L210.64999999999998,158.15846218339658L210.64999999999998,158.9301881720763L211.2484375,145.34027418587183L211.2484375,137.38143922243842L211.84687499999998,135.20527735737107L212.4453125,135.25968901962506L213.04375,137.87414046588546L213.04375,139.97308588087185L213.64218749999998,140.84067688197214L214.240625,150.77264172766073L215.4375,149.71413601759787L216.0359375,143.60427628829308L216.0359375,139.2667369710405L216.634375,144.2723148544105L216.634375,145.54941496910936L217.2328125,149.02575550723355L217.2328125,150.69282046964554L217.83124999999998,143.45571744491764L218.4296875,147.03506748532772L219.028125,144.22579815388306L219.028125,141.86844023488132L219.6265625,136.2205834752017L220.225,127.26061751898112L220.225,120.61377657273455L220.82343749999998,124.0302291394415L221.421875,126.72168572085863L221.421875,128.17485013046883L222.0203125,125.70090428549011L222.0203125,124.94798775062645L222.61875,128.59431118564308L222.61875,129.79254173125L223.2171875,131.9961018764631L223.2171875,132.3645042766236L223.815625,124.32999867526037L223.815625,116.5337627549609L224.4140625,132.85355931507482L224.4140625,141.40555259371683L225.0125,145.58716057595L225.0125,148.02792313500981L225.6109375,145.85265985773486L225.6109375,145.50640782925828L226.8078125,150.87210111734368L226.8078125,153.8242180761901L227.40625,141.85490213366683L228.00468750000002,145.2123636379327L228.00468750000002,147.3527622268381L228.603125,141.010005974464L228.603125,136.9955535336308L229.2015625,141.1126182779599L229.2015625,144.12089961612344L229.8,140.35947827397982L229.8,137.12086693486907L230.3984375,138.58938140720383L230.3984375,138.77825353359788L230.99687500000002,145.77368320550252L231.5953125,120.551536722174L231.5953125,106.21934957347665L232.19375,117.09818980556504L232.19375,122.55341515675434L232.7921875,127.73929801761437L233.390625,135.9323732136448L233.390625,140.43316047270923L233.98906250000002,141.95130528020758L233.98906250000002,142.27647163081542L234.5875,134.12615599984048L234.5875,127.72800887145524L235.18593750000002,133.4029672103021L235.18593750000002,136.99144508364975L235.784375,137.87011671172215L235.784375,137.19338337875115L236.3828125,135.1034426776191L236.3828125,133.97534438742198L237.5796875,135.9299401377022L238.17812500000002,140.85983757061405L238.7765625,131.6012329367665L239.375,143.21416294654145L239.97343750000002,141.8599167520779L239.97343750000002,140.9501092364829L240.571875,142.2549553664969L240.571875,142.33904620407338L241.17031250000002,141.4766351476482L241.17031250000002,140.272001984807L241.76875,119.7349590588707L241.76875,109.05126091339416L242.36718750000003,107.33671746334188L242.36718750000003,104.03079357282049L242.96562500000002,119.70394214711027L242.96562500000002,128.84839590155852L244.1625,122.4352941022144L244.1625,118.7134312525884L244.76093749999998,118.53271999256422L245.35937499999997,134.61528955571364L245.35937499999997,143.54958828178192L245.9578125,130.9737968533465L246.55624999999998,142.3973382049339L246.55624999999998,148.4232897478283L247.1546875,131.04076978042636L247.1546875,119.8725598740708L247.75312499999998,131.09572535953438L248.3515625,142.68303630277063L248.95,127.05258506513184L248.95,118.16588001302264L249.54843749999998,116.3194701492598L250.146875,130.82439913195867L250.146875,139.19042594837464L250.74531249999998,139.1896706635738L251.34375,129.67671039042057L251.34375,123.34639496982582L251.9421875,130.10840011444165L251.9421875,134.6414595452608L252.540625,125.1317637664853L252.540625,119.98976547702098L253.1390625,131.1797358342861L253.1390625,137.43595871858923L253.73749999999998,134.20481418656456L253.73749999999998,131.586443449128L254.3359375,122.89366050307056L254.934375,131.55239302786106L254.934375,136.91349642601395L255.5328125,132.12659615494698L255.5328125,128.96673464276398L256.13125,127.63163072373546L256.13125,127.93910168364201L256.7296875,137.18310242864226L257.328125,127.87971924527129L257.9265625,118.39547015245395L258.525,130.75301836965954L258.525,137.67080874130033L259.1234375,118.15131952878232L259.1234375,107.63411411051337L259.721875,121.87041350692414L259.721875,129.74865736429743L260.3203125,121.7836875770923L260.91875,127.0817591493715L260.91875,130.7584554724221L261.5171875,130.3171882071038L261.5171875,129.3164632704981L262.115625,130.87690943424488L262.115625,130.43747937581236L262.7140625,134.0316612649583L263.3125,130.00123730407444L263.3125,128.37906265332978L263.9109375,120.77993961725532L264.509375,109.70756792962167L264.509375,102.93372937860042L265.1078125,119.97875263487288L265.1078125,129.9966932063454L265.70625,134.07878141563964L265.70625,136.07914172702493L266.3046875,116.09155269646L266.903125,127.52713050648129L266.903125,134.78077319635594L267.5015625,136.26063299629365L267.5015625,136.12701975138947L268.1,133.28560314999473L268.1,131.890469722472L268.6984375,130.72885082817865L268.6984375,130.2294867608898L269.296875,130.54298159899216L269.296875,131.5750696045924L269.8953125,134.27390555170695L270.49375000000003,128.10077499384377L271.0921875,131.57563710851107L271.0921875,132.75959443995572L271.690625,114.80376156343189L271.690625,105.36086428225302L272.2890625,98.51096625667425L272.2890625,94.89484746529718L272.8875,102.53381209634361L273.48593750000003,125.00486327501254L273.48593750000003,140.01333115220788L274.084375,147.51283840121354L274.084375,151.89789396632628L274.6828125,140.3962788269726L275.28125,119.87165390396056L275.8796875,128.50305381448882L275.8796875,134.01309127750721L276.47812500000003,134.3270292521444L277.0765625,127.40975137586051L277.0765625,122.52571144341405L278.2734375,127.10176123328031L278.2734375,129.3672291837049L278.871875,125.21717197733054L278.871875,123.50301356348461L279.47031250000003,125.37244694035904L279.47031250000003,126.65118191210695L280.06875,122.51744384963455L280.06875,119.39666412472212L280.6671875,129.03901758854735L280.6671875,134.95432112830153L281.265625,130.30015526575932L281.265625,126.21521894736397L281.8640625,132.83010807657044L282.4625,143.36617120247638L282.4625,150.36688938918826L283.06093749999997,147.0729379769966L283.659375,139.06424970802857L283.659375,134.29375175408296L284.2578125,131.13233156891818L284.85625,112.88060105649649L284.85625,100.19267409936312L285.4546875,115.45500040577376L285.4546875,124.23098666591633L286.05312499999997,120.78135969419644L286.6515625,122.1152357300699L287.25,126.38945099725714L287.8484375,133.4276623877386L287.8484375,137.85259096014227L288.446875,142.21031248984823L288.446875,144.61671523993613L289.64375,138.18340824441444L290.2421875,145.16357833079837L290.2421875,148.83242503234243L290.840625,136.1568557540468L290.840625,127.88137466625088L291.4390625,124.80291129766424L292.03749999999997,132.74694501107592L292.03749999999997,137.0771677571005L292.6359375,124.07236482995278L292.6359375,116.58769471584277L293.234375,110.5989806323288L293.234375,107.46179668794666L293.8328125,108.91395544030262L293.8328125,110.33790437546529L294.43125,112.24250178610127L295.0296875,118.47749589476977L295.0296875,122.22571956056571L295.628125,111.10536476412707L295.628125,103.83021026916518L296.2265625,122.64951349753649L296.2265625,133.16409174054513L296.825,132.42116992969198L296.825,133.19469397885567L297.4234375,132.2990650611859L297.4234375,131.74025425832465L298.021875,132.14643238454025L298.021875,132.25035576861475L298.6203125,139.9931906867326L298.6203125,143.97510647303034L299.21875,143.0855309622872L299.21875,142.06179960376173L299.8171875,140.86445199764188" style="fill: none;" fill="none"></path></g></g></g></g><g opacity="0.2"><g><g><g><path stroke="rgb(255, 112, 67)" stroke-width="2px" d="M30.5203125,161.77857825160027L31.11875,161.74466015493326L31.717187499999998,161.74817953089422L32.315625,161.77085174870763L32.9140625,161.79300244760447L33.5125,161.6419798133048L33.5125,161.6503464685245L34.1109375,161.66337171440776L34.1109375,161.66110262870788L34.709375,161.55397464714267L34.709375,161.54637210206553L35.3078125,161.74606649110265L35.3078125,161.70205018181693L35.90625,161.60826873698016L35.90625,161.5785202115774L36.504687499999996,161.68940724418923L36.504687499999996,161.66075850305234L37.103125,161.51546353453938L37.103125,161.4673477920619L37.7015625,161.5073892468756L37.7015625,161.08473426862196L38.300000000000004,160.65400348359887L39.496875,161.4865307929841L39.496875,160.35318101969634L40.095312500000006,161.5395241184668L40.095312500000006,160.40860677090558L40.69375,161.39731113802304L41.292187500000004,161.25554197755727L41.89062500000001,158.30805856097828L42.489062499999996,160.95838152278554L43.0875,161.08136301149023L43.0875,159.38598429506473L43.685937499999994,161.684763410552L43.685937499999994,161.0680950945074L44.284375,161.8257449147376L44.284375,162.73964931531387L44.8828125,161.87836367216977L45.481249999999996,162.2641414203427L46.0796875,160.02458158839832L46.678125,162.56798073161733L46.678125,159.2196201389486L47.2765625,162.78088970617816L47.2765625,157.96757094643334L48.4734375,162.918326811357L48.4734375,160.8847786838358L49.071875,161.81882543672214L49.071875,160.43854337605563L49.6703125,161.08070241754703L49.6703125,160.37399054874072L50.268750000000004,162.47600582892247L50.268750000000004,160.37116626609455L50.86718750000001,160.7644230777567L50.86718750000001,159.3267995530909L51.465624999999996,160.61900888356294L52.0640625,161.70312449092214L52.0640625,158.98735843355004L52.662499999999994,161.83854603225535L53.2609375,159.04732732339338L53.2609375,158.3308009711179L53.859375,157.6250134901567L53.859375,156.79844061678108L54.457812499999996,154.85124809958717L55.05625,157.97278663895347L55.6546875,161.58757463585246L55.6546875,158.4885198246349L56.253125,159.71151098554785L56.253125,156.73632491718638L56.8515625,160.12022081505168L56.8515625,155.4292038527402L57.45,153.25992136868564L58.0484375,150.32845602902498L58.0484375,148.18443487340753L58.646875,158.13316831588745L59.245312500000004,159.26682757681064L59.245312500000004,156.44557484713468L59.84375,154.29059298255225L60.4421875,160.88081733855333L60.4421875,159.77711185108532L61.040625,156.66568717956542L61.040625,154.80672933405097L61.639062499999994,151.48964920043946L61.639062499999994,150.2237193367698L62.2375,154.65229560678657L62.8359375,140.7204443844882L63.434374999999996,153.48887788599185L64.0328125,156.8502406727184L64.63125,150.4652839487249L64.63125,147.64646738225764L65.2296875,143.61861478632144L65.2296875,146.2490707397461L65.828125,139.73760559775613L65.828125,141.04903108423406L66.4265625,153.59517245726153L66.4265625,152.06586999026212L67.025,136.98576316833496L67.62343750000001,146.83401380018756L67.62343750000001,138.9414684642445L68.221875,151.70606706792657L68.221875,147.9511172207919L68.8203125,127.44426886818624L69.41875,148.72460299405185L70.0171875,133.50417594909666L70.615625,152.10057002847844L71.2140625,152.60562529997392L71.2140625,150.10109056992962L71.8125,144.8579071565108L72.4109375,151.47764296098188L73.00937499999999,149.82498718608508L73.00937499999999,147.13613584691828L73.6078125,149.6651838302612L73.6078125,147.14482879638672L74.20625,130.2200311834162L74.8046875,150.2097161726518L74.8046875,149.7789954185486L75.403125,161.37525174671956L75.403125,160.31993315003135L76.0015625,136.21260455738414L76.60000000000001,125.38901055075904L76.60000000000001,124.57230848832565L77.1984375,149.85024967193604L77.796875,151.69644047130237L77.796875,149.92308572422374L78.3953125,123.78593684109775L78.99375,123.11540225635875L79.59218750000001,145.0356303648515L79.59218750000001,143.63198831731623L80.19062500000001,121.0173720966686L80.7890625,161.50846212126993L80.7890625,160.8050828326832L81.3875,130.66270956559615L81.9859375,107.59475749622692L81.9859375,107.7585423556241L82.58437500000001,140.1145459608598L83.18281250000001,147.69306486303157L83.18281250000001,143.47611399563877L83.78125000000001,84.52099983908914L84.37968749999999,105.39698604236949L84.37968749999999,94.68319202769887L84.97812499999999,116.79644435535778L84.97812499999999,112.95192919644441L85.5765625,91.89981238625265L85.5765625,87.75869064331054L86.175,156.00303612622346L86.175,145.99396438598635L86.7734375,95.68050620339133L87.37187499999999,63.790921852805404L87.37187499999999,51.17506172873757L88.56875,118.22740599892356L89.765625,57.93763011585583L89.765625,56.064088856090194L90.3640625,97.53144239945846L90.96249999999999,161.38391551971435L90.96249999999999,154.73520424582742L91.5609375,146.0109135541049L92.159375,98.81541248668324L92.159375,102.16487551602451L92.7578125,96.70098100142047L92.7578125,88.71861572265625L93.9546875,106.3500468860973L93.9546875,92.7566010908647L94.553125,61.644440806995746L94.553125,54.63299449573863L95.75,113.27667482549494L95.75,102.74077377319335L96.3484375,147.690385835821L96.3484375,123.69627893621272L96.946875,73.6668902310458L96.946875,56.704894880814976L97.54531250000001,54.533981600674714L98.14375,12.171882351962006L98.14375,-0.07170410156248419L98.7421875,89.56605252352627L99.340625,81.40750725486062L99.340625,70.3930078679865L99.9390625,46.480010986328125L99.9390625,44.6205438787287L100.53750000000001,89.41679243607955L100.53750000000001,84.75240853049539L101.13593750000001,68.59899791370738L101.73437500000001,117.38405255404385L102.3328125,-3.2115733753551323L102.3328125,-5.584574196555399L102.93124999999999,98.83694347034802L103.5296875,85.94745219837536L103.5296875,79.03754966042258L104.128125,86.54148018576883L104.128125,80.28247014825995L104.7265625,33.830582774769184L104.7265625,23.928083385120743L105.32499999999999,-24.656581254438933L105.32499999999999,-33.760656460848715L105.92343749999999,111.06444958773525L105.92343749999999,115.23756533536043L106.521875,16.659796142578134L106.521875,11.902485795454549L107.71875,107.21093437888406L107.71875,109.06676566384057L108.3171875,42.9725717717951L108.3171875,40.9675606467507L108.91562499999999,55.510641340775926L109.5140625,79.93816576871004L110.1125,22.049060613458803L110.7109375,74.70563056252219L111.309375,29.000037453391332L111.9078125,131.44932195490057L111.9078125,129.6558799050071L112.50625,45.25636222145774L112.50625,44.17868957519531L113.1046875,-29.734473627263856L113.703125,105.6928395357999L113.703125,102.84885461980646L114.3015625,-99.02212968306107L114.3015625,-113.59695129394532L114.9,28.53771390047941L114.9,20.631102128462356L115.49843750000001,49.86667175292969L116.6953125,105.75419172807175L117.29375,33.032553655451L117.8921875,4.5978897094726525L118.49062500000001,59.404329612038346L118.49062500000001,101.20406771573154L119.08906250000001,35.274541404030536L119.08906250000001,20.60853410200639L119.6875,125.1274288524281L119.6875,105.98176706487483L120.2859375,145.58438803932884L120.2859375,116.78711097023702L120.884375,109.5703425320712L120.884375,87.16621822010387L121.48281250000001,77.38137997713957L122.08125,72.36275336525657L122.67968749999999,13.473778464577416L123.27812499999999,92.57758775190872L123.87656249999999,142.05213387229225L124.475,119.16413033225318L125.0734375,143.67555646029385L125.0734375,139.11271632801402L125.671875,38.318274341930035L125.671875,31.896596735174L126.2703125,96.46559697931464L126.2703125,95.3215289029208L126.86874999999999,145.06983580155804L126.86874999999999,143.24835655905983L127.4671875,110.52231695001775L127.4671875,102.12403578324752L128.065625,51.62575558749112L128.065625,50.59813260165128L128.6640625,146.00326690673828L129.2625,90.54678018743341L129.2625,91.2009690024636L129.8609375,124.6203334461559L130.459375,149.40322404341265L131.0578125,155.68124653209338L131.65625,115.26767661354758L132.2546875,135.63090071244673L132.2546875,132.13475785688922L132.853125,127.4897752935236L132.853125,119.4967309431596L133.4515625,161.5403037331321L133.4515625,158.22716189297762L134.05,153.15859055952592L134.05,151.44892675226384L134.6484375,73.52596352317117L134.6484375,79.96715975674717L135.24687500000002,132.58079736882988L135.24687500000002,128.02941409024325L135.8453125,126.6026777787642L135.8453125,130.27820434570313L136.44375,122.74196499911223L137.0421875,106.57146786776455L137.0421875,106.98437139337713L137.640625,117.74234466552734L137.640625,117.53919539018112L138.23906250000002,147.0861371127042L138.23906250000002,150.12582064541903L138.8375,115.27882482355291L138.8375,118.26790313720703L139.4359375,151.4277661410245L139.4359375,151.33133350719106L140.034375,122.56254425048829L140.034375,125.58837585449218L140.6328125,110.16499397971414L141.23125,112.29904285777698L141.23125,106.63811021284623L141.8296875,151.6817058216442L142.428125,145.82879680286754L142.428125,138.1303466796875L143.02656249999998,135.033169000799L143.02656249999998,135.99524841308593L143.625,121.65360093550248L143.625,125.68122822154652L144.2234375,131.90937389026988L144.821875,123.35327703302558L145.4203125,128.38358889493074L145.4203125,121.03249872381038L146.01874999999998,112.12405423251064L146.01874999999998,114.74266135475854L146.6171875,126.47570176558061L147.215625,161.0123748779297L147.215625,157.5948497425426L147.8140625,134.80636527321556L147.8140625,131.04731972434305L149.0109375,117.28426804976029L149.609375,120.02636968439275L149.609375,117.07432861328125L150.2078125,132.4958092429421L150.80625,114.30593053644354L150.80625,81.7234781438654L151.4046875,114.33993072509766L152.003125,125.81247586337004L152.6015625,117.13524253151633L153.20000000000002,142.2368632923473L153.20000000000002,142.31772793856535L154.396875,145.07187902277164L154.396875,135.7653212113814L154.9953125,89.73037442294033L155.59375,147.85199321400034L156.19218750000002,152.75518091375176L156.19218750000002,143.75919272682884L156.790625,159.07953699285332L156.790625,102.94781195900659L157.3890625,111.9093246459961L157.9875,83.07985604026102L158.5859375,42.95544821999289L159.18437500000002,26.77170410156251L159.7828125,46.32030639648437L160.38125000000002,31.080937888405536L160.9796875,108.98491335782138L161.578125,72.78431743275036L161.578125,64.65874148282138L162.17656250000002,143.85097101384943L162.17656250000002,137.82865364768287L162.775,-62.01130704012786L163.37343750000002,17.147366749156607L163.37343750000002,8.938580460981893L163.971875,77.68677673339843L163.971875,72.9963433005593L164.5703125,28.327478166060015L164.5703125,7.212163474343038L165.16875000000002,74.77474205710672L165.16875000000002,49.24605102539063L165.7671875,20.397174904563204L165.7671875,-10.75698561234908L166.36562500000002,20.233334489302205L166.36562500000002,-14.443351745605469L166.9640625,98.93324647383258L167.56250000000003,40.73546059348366L167.56250000000003,31.59671852805398L168.16093750000002,23.047424177689976L168.16093750000002,17.11758880615234L168.75937499999998,38.188236583362915L168.75937499999998,38.94621609774503L169.3578125,-10.027685269442463L169.3578125,-14.759760908647014L169.95624999999998,8.997580788352272L169.95624999999998,3.739600996537634L170.55468749999997,161.0213502363725L170.55468749999997,163.8655018199574L171.153125,42.454260253906256L171.153125,35.44881397594104L171.75156249999998,142.02721398093485L171.75156249999998,138.08456247503108L172.35,86.44143024791371L172.94843749999998,124.97189095237039L173.546875,-74.68448846990411L174.74374999999998,47.356114612926135L175.3421875,28.868876231800424L175.3421875,0.34248338179154003L175.94062499999998,119.65470095547764L175.94062499999998,98.2975145513361L176.5390625,95.4572950883345L176.5390625,83.97571286288174L177.1375,127.66530095880681L177.7359375,66.41132528131658L177.7359375,45.615956809303974L178.93281249999998,144.63098768754438L178.93281249999998,139.18967971801757L179.53125,135.69035783247514L180.728125,117.48827535455878L181.3265625,128.03917957652698L181.3265625,125.65961081764914L181.92499999999998,106.36714574640447L181.92499999999998,114.977520682595L182.5234375,39.421675526012066L182.5234375,28.860888533158732L183.121875,39.65767683549362L183.121875,33.210925015536226L183.7203125,104.01779320456765L184.31875,107.3372992775657L184.31875,122.0930046081543L184.9171875,146.42171367298474L184.9171875,145.69433926669035L185.515625,136.96443897594105L185.515625,133.54568543867632L186.1140625,138.3550578030673L186.7125,100.69100314053621L187.3109375,138.30640321211382L187.3109375,130.6994535966353L189.10625,100.70133035833184L189.7046875,117.03481604836203L190.303125,142.19291860407048L190.303125,142.6491001475941L190.9015625,115.29571380615235L190.9015625,118.46586102572356L191.5,136.35691708651456L191.5,134.08603411587802L192.09843750000002,137.36842887184838L192.09843750000002,131.6416810469194L192.696875,147.15876714533027L192.696875,150.02464724454012L193.2953125,122.4937290538441L193.2953125,112.41881512728604L193.89375,134.4811968023127L193.89375,134.89882257634943L194.4921875,133.0941644148393L194.4921875,132.70838449651544L195.09062500000002,126.07883845242586L195.6890625,134.220090415261L195.6890625,136.85112353238193L196.2875,152.1945358276367L196.8859375,136.24217570911753L197.484375,161.47387743863192L198.08281250000002,154.82508128773082L198.08281250000002,156.10721803144975L198.68125,157.38070657903498L199.27968750000002,134.56349355524236L199.27968750000002,142.44012367942116L199.878125,152.26357942060991L199.878125,150.12746880271217L200.4765625,145.45936574068938L200.4765625,137.4196081681685L201.07500000000002,149.2501089963046L201.07500000000002,146.53927605368875L201.6734375,154.8251553622159L201.6734375,161.60885040976785L202.27187500000002,149.35611575733532L202.8703125,143.5932813124223L202.8703125,141.14282944419168L203.46875000000003,157.09299201965334L203.46875000000003,151.59121766523882L204.06718750000002,147.4233704653653L204.06718750000002,140.23537379178134L204.665625,155.11886995488948L204.665625,161.3025585868142L205.26406250000002,141.1330824765292L205.26406250000002,143.80477631308815L205.86249999999998,139.31693042408335L205.86249999999998,139.8726711619984L206.46093749999997,153.0484109358354L206.46093749999997,154.98407291065564L207.059375,130.93595799532804L207.65781249999998,155.5936997500333L207.65781249999998,147.0213528026234L208.25625,153.2056432897394L208.85468749999998,140.98232546719638L208.85468749999998,141.52389328696512L209.453125,145.44946445118296L210.0515625,160.71671583002265L210.0515625,163.84486898942427L210.64999999999998,161.04668371027168L210.64999999999998,160.0877771550959L211.2484375,124.95540320656518L211.2484375,125.44318677728826L211.84687499999998,131.94103455977006L212.4453125,135.34130651300603L213.04375,141.7958176352761L213.04375,143.1215040033514L213.64218749999998,142.1420633836226L214.240625,165.67058899619363L215.4375,148.12637745250356L216.0359375,134.43948669433595L216.0359375,132.76042799516156L216.634375,151.78068167946554L216.634375,147.46506514115765L217.2328125,154.24026631441984L217.2328125,153.19341791326352L217.83124999999998,132.60006290782582L218.4296875,152.40409254594283L219.028125,140.0118941567161L219.028125,138.33240335637873L219.6265625,127.74879833568227L220.225,113.82066858465022L220.225,110.6435151533647L220.82343749999998,129.15490798950194L221.421875,130.7588705929843L221.421875,130.35459674488413L222.0203125,121.98998551802201L222.0203125,123.81861294833098L222.61875,134.06379633816806L222.61875,131.58988754966043L223.2171875,135.30144209428266L223.2171875,132.91710787686435L223.815625,112.27824027321554L223.815625,104.83940887451172L224.4140625,157.3332541552457L224.4140625,154.2335425116799L225.0125,151.85957254929974L225.0125,151.68906697359952L225.6109375,142.5897649418224L225.6109375,144.98702978654342L226.8078125,158.92064104947175L226.8078125,158.25239351445978L227.40625,123.90092821988193L228.00468750000002,150.2485558943315L228.00468750000002,150.56336011019621L228.603125,131.49587159590288L228.603125,130.97387487238106L229.2015625,147.28821539445357L229.2015625,148.63332162336872L229.8,134.71734626076437L229.8,132.26294992620294L230.3984375,140.79215311570601L230.3984375,139.0615617231889L230.99687500000002,156.26682771335948L231.5953125,82.71831699718129L231.5953125,84.72106885043057L232.19375,133.4164501536976L232.19375,130.73625318353828L232.7921875,135.51812230890445L233.390625,148.22198600769045L233.390625,147.18434136130594L233.98906250000002,144.2285224914551L233.98906250000002,142.7642211567272L234.5875,121.900682553378L234.5875,118.13078817887741L235.18593750000002,141.91540471857246L235.18593750000002,142.37416189367121L235.784375,139.18812415383078L235.784375,136.17828337929467L236.3828125,131.9685316259211L236.3828125,132.28319695212625L237.5796875,138.86183376312258L238.17812500000002,148.2546837199818L238.7765625,117.71332598599521L239.375,160.63355796120385L239.97343750000002,139.82854746038262L239.97343750000002,139.58539796309037L240.571875,144.21222456151787L240.571875,142.46518246043811L241.17031250000002,140.18301856301048L241.17031250000002,138.46505224054508L241.76875,88.92939466996627L241.76875,93.02571369517933L242.36718750000003,104.76490228826349L242.36718750000003,99.07190773703836L242.96562500000002,143.21366500854492L242.96562500000002,142.56507653323087L244.1625,112.81564140319824L244.1625,113.13063697814941L244.76093749999998,118.26165310252796L245.35937499999997,158.7391439004378L245.35937499999997,156.95103637088428L245.9578125,112.11010971069337L246.55624999999998,159.53265023231506L246.55624999999998,157.46221706216986L247.1546875,104.96698982932352L247.1546875,103.12024501453746L247.75312499999998,147.93047358772972L248.3515625,160.06400271762502L248.95,103.60690820867366L248.95,104.83582243485885L249.54843749999998,113.54985535361548L250.146875,152.58179260600696L250.146875,151.7394661729986L250.74531249999998,139.1885377363725L251.34375,115.4072699806907L251.34375,113.85092183893377L251.9421875,140.2514078313654L251.9421875,141.44104869148947L252.540625,110.86722009832208L252.540625,112.2767680428245L253.1390625,147.96469137018377L253.1390625,146.82029304504394L253.73749999999998,129.35809738852763L253.73749999999998,127.65888734297319L254.3359375,109.85448608398437L254.934375,144.54049181504683L254.934375,144.9551515232433L255.5328125,124.9462457483465L255.5328125,124.22694237448954L256.13125,125.62897484519266L256.13125,128.40030812350187L256.7296875,151.04910354614256L257.328125,113.92464447021484L257.9265625,104.16909651322798L258.525,149.28934069546787L258.525,148.04749429876156L259.1234375,88.87208571000534L259.1234375,91.8583059831099L259.721875,143.2248626015403L259.721875,141.56602315035732L260.3203125,109.83623289628463L260.91875,135.0288665077903L260.91875,136.27349995699797L261.5171875,129.6552873091264L261.5171875,127.81537586558949L262.115625,133.21757867986506L262.115625,129.77833428816362L262.7140625,139.4229340986772L263.3125,123.95560136274857L263.3125,125.94580067721282L263.9109375,109.38125506314366L264.509375,93.09901039817117L264.509375,92.77297155206854L265.1078125,145.54628751928155L265.1078125,145.02360406355425L265.70625,140.20191372958098L265.70625,139.0796821941029L266.3046875,86.11016915061258L266.903125,144.68049722151324L266.903125,145.6612372311679L267.5015625,138.4804226962003L267.5015625,135.9265998840332L268.1,129.0234782479026L268.1,129.79776958118785L268.6984375,128.98642248673872L268.6984375,129.48044065995649L269.296875,131.0132238561457L269.296875,133.12320161299272L269.8953125,138.32215947237881L270.49375000000003,118.84107915704901L271.0921875,136.78793028051203L271.0921875,134.5355304371227L271.690625,87.87001224864613L271.690625,91.19651836048473L272.2890625,88.23611921830611L272.2890625,89.47066927823154L272.8875,113.99225904291326L273.48593750000003,158.71144004301593L273.48593750000003,162.52603296800092L274.084375,158.762099274722L274.084375,158.47547731399536L274.6828125,123.14385611794211L275.28125,89.08471651944248L275.8796875,141.4501536802812L275.8796875,142.2781474720348L276.47812500000003,134.79793621410022L277.0765625,117.03383456143465L277.0765625,115.19965154474433L278.2734375,133.96583591807973L278.2734375,132.7654311093417L278.871875,118.992086167769L278.871875,120.93177594271575L279.47031250000003,128.17659700567074L279.47031250000003,128.5692843697288L280.06875,116.31683675592596L280.06875,114.71549453735352L280.6671875,143.5025477842851L280.6671875,143.8272764379328L281.265625,123.31890647194601L281.265625,120.08781446977093L281.8640625,142.75244177038022L282.4625,159.17026589133522L282.4625,160.86796666925605L283.06093749999997,142.13201085870918L283.659375,127.05121730457653L283.659375,127.13800482316451L284.2578125,126.390201291171L284.85625,85.50300528786399L284.85625,81.16078366366301L285.4546875,138.34848986538972L285.4546875,137.39496605613016L286.05312499999997,115.60691923661666L286.6515625,124.11604978388006L287.25,132.800773898038L287.8484375,143.9849794734608L287.8484375,144.4899838187478L288.446875,148.74689478440717L288.446875,148.22631936506792L289.64375,128.53344775113192L290.2421875,155.63383346037432L290.2421875,154.33569508465854L290.840625,117.14350183660333L290.840625,115.46815303455699L291.4390625,120.18521624478426L292.03749999999997,144.6629955811934L292.03749999999997,143.57250187613747L292.6359375,104.56516043923116L292.6359375,105.36068954467774L293.234375,101.61590950705789L293.234375,102.7560207713734L293.8328125,111.09219356883656L293.8328125,112.47382777820934L294.43125,115.09939790205522L295.0296875,127.82998705777256L295.0296875,127.84805505925958L295.628125,94.4248325694691L295.628125,92.9174785267223L296.2265625,150.87846834009343L296.2265625,148.93595910505815L296.825,131.3067872134122L296.825,134.3549800526012L297.4234375,130.9556216846813L297.4234375,130.90203805403277L298.021875,132.75569957386364L298.021875,132.40624084472657L298.6203125,151.60744306390936L298.6203125,149.94798015247693L299.21875,141.75116769617256L299.21875,140.52620256597348L299.8171875,139.06843058846215" style="fill: none;" fill="none"></path></g></g></g></g></g></g><g transform="translate(30, 178)" clip-path="url(#clip_1)"><clipPath id="clip_1"><rect width="299" height="22"></rect></clipPath><g><g><line x1="0" y1="0" x2="0" y2="5" style="visibility: inherit;" fill="rgb(0, 0, 0)" stroke="rgb(204, 204, 204)" stroke-width="1px"></line><line x1="29.921875" y1="0" x2="29.921875" y2="5" style="visibility: inherit;" fill="rgb(0, 0, 0)" stroke="rgb(204, 204, 204)" stroke-width="1px"></line><line x1="59.84375" y1="0" x2="59.84375" y2="5" style="visibility: inherit;" fill="rgb(0, 0, 0)" stroke="rgb(204, 204, 204)" stroke-width="1px"></line><line x1="89.765625" y1="0" x2="89.765625" y2="5" style="visibility: inherit;" fill="rgb(0, 0, 0)" stroke="rgb(204, 204, 204)" stroke-width="1px"></line><line x1="119.6875" y1="0" x2="119.6875" y2="5" style="visibility: inherit;" fill="rgb(0, 0, 0)" stroke="rgb(204, 204, 204)" stroke-width="1px"></line><line x1="149.609375" y1="0" x2="149.609375" y2="5" style="visibility: inherit;" fill="rgb(0, 0, 0)" stroke="rgb(204, 204, 204)" stroke-width="1px"></line><line x1="179.53125" y1="0" x2="179.53125" y2="5" style="visibility: inherit;" fill="rgb(0, 0, 0)" stroke="rgb(204, 204, 204)" stroke-width="1px"></line><line x1="209.453125" y1="0" x2="209.453125" y2="5" style="visibility: inherit;" fill="rgb(0, 0, 0)" stroke="rgb(204, 204, 204)" stroke-width="1px"></line><line x1="239.375" y1="0" x2="239.375" y2="5" style="visibility: inherit;" fill="rgb(0, 0, 0)" stroke="rgb(204, 204, 204)" stroke-width="1px"></line><line x1="269.296875" y1="0" x2="269.296875" y2="5" style="visibility: inherit;" fill="rgb(0, 0, 0)" stroke="rgb(204, 204, 204)" stroke-width="1px"></line><line x1="299.21875" y1="0" x2="299.21875" y2="5" style="visibility: inherit;" fill="rgb(0, 0, 0)" stroke="rgb(204, 204, 204)" stroke-width="1px"></line></g><g transform="translate(0, 8)"><text x="0" y="0" dx="0em" dy="0.95em" style="text-anchor: middle; visibility: hidden; font-family: Roboto, sans-serif; font-size: 12px; font-weight: 200;" fill="rgb(50, 49, 63)" stroke="none" stroke-width="1px">-1k</text><text x="29.921875" y="0" dx="0em" dy="0.95em" style="text-anchor: middle; visibility: inherit; font-family: Roboto, sans-serif; font-size: 12px; font-weight: 200;" fill="rgb(50, 49, 63)" stroke="none" stroke-width="1px">0</text><text x="59.84375" y="0" dx="0em" dy="0.95em" style="text-anchor: middle; visibility: inherit; font-family: Roboto, sans-serif; font-size: 12px; font-weight: 200;" fill="rgb(50, 49, 63)" stroke="none" stroke-width="1px">1k</text><text x="89.765625" y="0" dx="0em" dy="0.95em" style="text-anchor: middle; visibility: inherit; font-family: Roboto, sans-serif; font-size: 12px; font-weight: 200;" fill="rgb(50, 49, 63)" stroke="none" stroke-width="1px">2k</text><text x="119.6875" y="0" dx="0em" dy="0.95em" style="text-anchor: middle; visibility: inherit; font-family: Roboto, sans-serif; font-size: 12px; font-weight: 200;" fill="rgb(50, 49, 63)" stroke="none" stroke-width="1px">3k</text><text x="149.609375" y="0" dx="0em" dy="0.95em" style="text-anchor: middle; visibility: inherit; font-family: Roboto, sans-serif; font-size: 12px; font-weight: 200;" fill="rgb(50, 49, 63)" stroke="none" stroke-width="1px">4k</text><text x="179.53125" y="0" dx="0em" dy="0.95em" style="text-anchor: middle; visibility: inherit; font-family: Roboto, sans-serif; font-size: 12px; font-weight: 200;" fill="rgb(50, 49, 63)" stroke="none" stroke-width="1px">5k</text><text x="209.453125" y="0" dx="0em" dy="0.95em" style="text-anchor: middle; visibility: inherit; font-family: Roboto, sans-serif; font-size: 12px; font-weight: 200;" fill="rgb(50, 49, 63)" stroke="none" stroke-width="1px">6k</text><text x="239.375" y="0" dx="0em" dy="0.95em" style="text-anchor: middle; visibility: inherit; font-family: Roboto, sans-serif; font-size: 12px; font-weight: 200;" fill="rgb(50, 49, 63)" stroke="none" stroke-width="1px">7k</text><text x="269.296875" y="0" dx="0em" dy="0.95em" style="text-anchor: middle; visibility: inherit; font-family: Roboto, sans-serif; font-size: 12px; font-weight: 200;" fill="rgb(50, 49, 63)" stroke="none" stroke-width="1px">8k</text><text x="299.21875" y="0" dx="0em" dy="0.95em" style="text-anchor: middle; visibility: hidden; font-family: Roboto, sans-serif; font-size: 12px; font-weight: 200;" fill="rgb(50, 49, 63)" stroke="none" stroke-width="1px">9k</text></g><line x1="0" y1="0" x2="299.21875" y2="0" fill="rgb(0, 0, 0)" stroke="rgb(204, 204, 204)" stroke-width="1px"></line></g></g></g></g></svg>