<svg viewBox="0 0 330 200" xmlns="http://www.w3.org/2000/svg"><g><g><g><g><g><line x1="41.171875" y1="178" x2="36.171875" y2="178" style="visibility: inherit;" fill="rgb(0, 0, 0)" stroke="rgb(204, 204, 204)" stroke-width="1px"></line><line x1="41.171875" y1="163.16666666666666" x2="36.171875" y2="163.16666666666666" style="visibility: inherit;" fill="rgb(0, 0, 0)" stroke="rgb(204, 204, 204)" stroke-width="1px"></line><line x1="41.171875" y1="148.33333333333334" x2="36.171875" y2="148.33333333333334" style="visibility: inherit;" fill="rgb(0, 0, 0)" stroke="rgb(204, 204, 204)" stroke-width="1px"></line><line x1="41.171875" y1="133.5" x2="36.171875" y2="133.5" style="visibility: inherit;" fill="rgb(0, 0, 0)" stroke="rgb(204, 204, 204)" stroke-width="1px"></line><line x1="41.171875" y1="118.66666666666669" x2="36.171875" y2="118.66666666666669" style="visibility: inherit;" fill="rgb(0, 0, 0)" stroke="rgb(204, 204, 204)" stroke-width="1px"></line><line x1="41.171875" y1="103.83333333333331" x2="36.171875" y2="103.83333333333331" style="visibility: inherit;" fill="rgb(0, 0, 0)" stroke="rgb(204, 204, 204)" stroke-width="1px"></line><line x1="41.171875" y1="89" x2="36.171875" y2="89" style="visibility: inherit;" fill="rgb(0, 0, 0)" stroke="rgb(204, 204, 204)" stroke-width="1px"></line><line x1="41.171875" y1="74.16666666666666" x2="36.171875" y2="74.16666666666666" style="visibility: inherit;" fill="rgb(0, 0, 0)" stroke="rgb(204, 204, 204)" stroke-width="1px"></line><line x1="41.171875" y1="59.33333333333334" x2="36.171875" y2="59.33333333333334" style="visibility: inherit;" fill="rgb(0, 0, 0)" stroke="rgb(204, 204, 204)" stroke-width="1px"></line><line x1="41.171875" y1="44.5" x2="36.171875" y2="44.5" style="visibility: inherit;" fill="rgb(0, 0, 0)" stroke="rgb(204, 204, 204)" stroke-width="1px"></line><line x1="41.171875" y1="29.66666666666666" x2="36.171875" y2="29.66666666666666" style="visibility: inherit;" fill="rgb(0, 0, 0)" stroke="rgb(204, 204, 204)" stroke-width="1px"></line><line x1="41.171875" y1="14.83333333333334" x2="36.171875" y2="14.83333333333334" style="visibility: inherit;" fill="rgb(0, 0, 0)" stroke="rgb(204, 204, 204)" stroke-width="1px"></line><line x1="41.171875" y1="0" x2="36.171875" y2="0" style="visibility: inherit;" fill="rgb(0, 0, 0)" stroke="rgb(204, 204, 204)" stroke-width="1px"></line></g><g transform="translate(31.171875, 0)"><text x="0" y="178" dx="0em" dy="0.3em" style="text-anchor: end; visibility: hidden; font-family: Roboto, sans-serif; font-size: 12px; font-weight: 200;" fill="rgb(50, 49, 63)" stroke="none" stroke-width="1px">-50</text><text x="0" y="163.16666666666666" dx="0em" dy="0.3em" style="text-anchor: end; visibility: inherit; font-family: Roboto, sans-serif; font-size: 12px; font-weight: 200;" fill="rgb(50, 49, 63)" stroke="none" stroke-width="1px">-45</text><text x="0" y="148.33333333333334" dx="0em" dy="0.3em" style="text-anchor: end; visibility: hidden; font-family: Roboto, sans-serif; font-size: 12px; font-weight: 200;" fill="rgb(50, 49, 63)" stroke="none" stroke-width="1px">-40</text><text x="0" y="133.5" dx="0em" dy="0.3em" style="text-anchor: end; visibility: inherit; font-family: Roboto, sans-serif; font-size: 12px; font-weight: 200;" fill="rgb(50, 49, 63)" stroke="none" stroke-width="1px">-35</text><text x="0" y="118.66666666666669" dx="0em" dy="0.3em" style="text-anchor: end; visibility: hidden; font-family: Roboto, sans-serif; font-size: 12px; font-weight: 200;" fill="rgb(50, 49, 63)" stroke="none" stroke-width="1px">-30</text><text x="0" y="103.83333333333331" dx="0em" dy="0.3em" style="text-anchor: end; visibility: inherit; font-family: Roboto, sans-serif; font-size: 12px; font-weight: 200;" fill="rgb(50, 49, 63)" stroke="none" stroke-width="1px">-25</text><text x="0" y="89" dx="0em" dy="0.3em" style="text-anchor: end; visibility: hidden; font-family: Roboto, sans-serif; font-size: 12px; font-weight: 200;" fill="rgb(50, 49, 63)" stroke="none" stroke-width="1px">-20</text><text x="0" y="74.16666666666666" dx="0em" dy="0.3em" style="text-anchor: end; visibility: inherit; font-family: Roboto, sans-serif; font-size: 12px; font-weight: 200;" fill="rgb(50, 49, 63)" stroke="none" stroke-width="1px">-15</text><text x="0" y="59.33333333333334" dx="0em" dy="0.3em" style="text-anchor: end; visibility: hidden; font-family: Roboto, sans-serif; font-size: 12px; font-weight: 200;" fill="rgb(50, 49, 63)" stroke="none" stroke-width="1px">-10</text><text x="0" y="44.5" dx="0em" dy="0.3em" style="text-anchor: end; visibility: inherit; font-family: Roboto, sans-serif; font-size: 12px; font-weight: 200;" fill="rgb(50, 49, 63)" stroke="none" stroke-width="1px">-5</text><text x="0" y="29.66666666666666" dx="0em" dy="0.3em" style="text-anchor: end; visibility: hidden; font-family: Roboto, sans-serif; font-size: 12px; font-weight: 200;" fill="rgb(50, 49, 63)" stroke="none" stroke-width="1px">0</text><text x="0" y="14.83333333333334" dx="0em" dy="0.3em" style="text-anchor: end; visibility: inherit; font-family: Roboto, sans-serif; font-size: 12px; font-weight: 200;" fill="rgb(50, 49, 63)" stroke="none" stroke-width="1px">5</text><text x="0" y="0" dx="0em" dy="0.3em" style="text-anchor: end; visibility: hidden; font-family: Roboto, sans-serif; font-size: 12px; font-weight: 200;" fill="rgb(50, 49, 63)" stroke="none" stroke-width="1px">10</text></g><line x1="41.171875" y1="0" x2="41.171875" y2="178" fill="rgb(0, 0, 0)" stroke="rgb(204, 204, 204)" stroke-width="1px"></line></g></g><g transform="translate(41, 0)" clip-path="url(#clip_0)"><clipPath id="clip_0"><rect width="288" height="178"></rect></clipPath><g><g><g><line x1="0" y1="0" x2="0" y2="178" fill="rgb(0, 0, 0)" stroke="rgb(60, 60, 60)" stroke-width="1px" opacity="0.25"></line><line x1="36.103515625" y1="0" x2="36.103515625" y2="178" fill="rgb(0, 0, 0)" stroke="rgb(60, 60, 60)" stroke-width="1px" opacity="0.25"></line><line x1="72.20703125" y1="0" x2="72.20703125" y2="178" fill="rgb(0, 0, 0)" stroke="rgb(60, 60, 60)" stroke-width="1px" opacity="0.25"></line><line x1="108.310546875" y1="0" x2="108.310546875" y2="178" fill="rgb(0, 0, 0)" stroke="rgb(60, 60, 60)" stroke-width="1px" opacity="0.25"></line><line x1="144.4140625" y1="0" x2="144.4140625" y2="178" fill="rgb(0, 0, 0)" stroke="rgb(60, 60, 60)" stroke-width="1px" opacity="0.25"></line><line x1="180.517578125" y1="0" x2="180.517578125" y2="178" fill="rgb(0, 0, 0)" stroke="rgb(60, 60, 60)" stroke-width="1px" opacity="0.25"></line><line x1="216.62109375" y1="0" x2="216.62109375" y2="178" fill="rgb(0, 0, 0)" stroke="rgb(60, 60, 60)" stroke-width="1px" opacity="0.25"></line><line x1="252.724609375" y1="0" x2="252.724609375" y2="178" fill="rgb(0, 0, 0)" stroke="rgb(60, 60, 60)" stroke-width="1px" opacity="0.25"></line><line x1="288.828125" y1="0" x2="288.828125" y2="178" fill="rgb(0, 0, 0)" stroke="rgb(60, 60, 60)" stroke-width="1px" opacity="0.25"></line></g><g><line x1="0" y1="178" x2="288.828125" y2="178" fill="rgb(0, 0, 0)" stroke="rgb(60, 60, 60)" stroke-width="1px" opacity="0.25"></line><line x1="0" y1="163.16666666666666" x2="288.828125" y2="163.16666666666666" fill="rgb(0, 0, 0)" stroke="rgb(60, 60, 60)" stroke-width="1px" opacity="0.25"></line><line x1="0" y1="148.33333333333334" x2="288.828125" y2="148.33333333333334" fill="rgb(0, 0, 0)" stroke="rgb(60, 60, 60)" stroke-width="1px" opacity="0.25"></line><line x1="0" y1="133.5" x2="288.828125" y2="133.5" fill="rgb(0, 0, 0)" stroke="rgb(60, 60, 60)" stroke-width="1px" opacity="0.25"></line><line x1="0" y1="118.66666666666669" x2="288.828125" y2="118.66666666666669" fill="rgb(0, 0, 0)" stroke="rgb(60, 60, 60)" stroke-width="1px" opacity="0.25"></line><line x1="0" y1="103.83333333333331" x2="288.828125" y2="103.83333333333331" fill="rgb(0, 0, 0)" stroke="rgb(60, 60, 60)" stroke-width="1px" opacity="0.25"></line><line x1="0" y1="89" x2="288.828125" y2="89" fill="rgb(0, 0, 0)" stroke="rgb(60, 60, 60)" stroke-width="1px" opacity="0.25"></line><line x1="0" y1="74.16666666666666" x2="288.828125" y2="74.16666666666666" fill="rgb(0, 0, 0)" stroke="rgb(60, 60, 60)" stroke-width="1px" opacity="0.25"></line><line x1="0" y1="59.33333333333334" x2="288.828125" y2="59.33333333333334" fill="rgb(0, 0, 0)" stroke="rgb(60, 60, 60)" stroke-width="1px" opacity="0.25"></line><line x1="0" y1="44.5" x2="288.828125" y2="44.5" fill="rgb(0, 0, 0)" stroke="rgb(60, 60, 60)" stroke-width="1px" opacity="0.25"></line><line x1="0" y1="29.66666666666666" x2="288.828125" y2="29.66666666666666" fill="rgb(0, 0, 0)" stroke="rgb(60, 60, 60)" stroke-width="1px" opacity="0.25"></line><line x1="0" y1="14.83333333333334" x2="288.828125" y2="14.83333333333334" fill="rgb(0, 0, 0)" stroke="rgb(60, 60, 60)" stroke-width="1px" opacity="0.25"></line><line x1="0" y1="0" x2="288.828125" y2="0" fill="rgb(0, 0, 0)" stroke="rgb(60, 60, 60)" stroke-width="1px" opacity="0.25"></line></g></g></g><g><g><line x1="0" y1="29.66666666666666" x2="288.828125" y2="29.66666666666666" fill="rgb(0, 0, 0)" stroke="rgb(153, 153, 153)" stroke-width="1.5px"></line></g></g><g><g><line x1="36.103515625" y1="0" x2="36.103515625" y2="178" fill="rgb(0, 0, 0)" stroke="rgb(153, 153, 153)" stroke-width="1.5px"></line></g></g><g><g><g><g><g><path stroke="rgb(255, 112, 67)" stroke-width="2px" d="M36.46455078125,29.67189154832547L36.8255859375,29.6856922795865L37.18662109375,29.701733532716393L37.54765625,29.708896625798396L37.90869140625,29.72504779934645L38.269726562500004,29.748812775930947L38.269726562500004,29.759240157640008L38.63076171875,29.775735457994823L38.63076171875,29.781449398456004L38.991796875000006,29.791299989790836L38.991796875000006,29.797788659712346L39.35283203125,29.80477313594851L39.35283203125,29.81867654367595L39.7138671875,29.824937714263367L39.7138671875,29.83282171900409L40.074902343750004,29.848638385280033L40.074902343750004,29.85816493259714L40.4359375,29.868968581216492L40.4359375,29.870831646039967L40.79697265625,29.88403726938364L40.79697265625,29.888768366984756L41.158007812499996,29.89363438822782L41.880078125,29.89357649501912L41.880078125,29.90110988958018L42.241113281249994,30.100205335466644L42.241113281249994,30.078434216464835L42.6021484375,30.09631447088003L42.963183593749996,30.411258462305685L43.32421875,30.57424026249997L43.68525390625,31.21586785863133L44.0462890625,32.28194984758842L44.0462890625,32.673504974403905L44.40732421875,32.65884753909787L44.40732421875,32.519507275684404L44.768359375,34.50911320609634L44.768359375,35.15692741126106L45.12939453125,34.821275486758054L45.4904296875,34.459225300921155L45.85146484375,35.55960771247912L46.2125,37.287323200658825L46.2125,38.18992348184412L46.57353515625,37.33747403701982L46.57353515625,37.00212672113139L47.295605468750004,38.04704502496597L47.295605468750004,39.06293813441908L47.656640625,40.567357823473955L47.656640625,41.428687545424786L48.017675781250006,40.531078687945374L48.017675781250006,40.489879379056966L48.3787109375,40.769458035659895L48.3787109375,41.25845227958925L48.73974609375,41.73579089595317L48.73974609375,41.6069703369542L49.100781250000004,41.10704620694291L49.46181640625,39.86226966548983L49.46181640625,39.18754382711043L49.8228515625,39.11809729922642L50.183886718749996,39.30420250846249L50.183886718749996,39.849213151653466L50.544921875,38.46528170060301L50.544921875,37.19784128954716L50.90595703125,39.18024452541695L51.266992187499994,40.25577359208125L51.62802734375,39.11750610992504L51.62802734375,38.33795925652104L51.989062499999996,37.75739564185411L51.989062499999996,36.865074747910526L52.35009765625,37.65674536195025L52.35009765625,38.36856308758235L52.7111328125,38.73545498359188L53.07216796875,40.15833532358L53.07216796875,40.99104911056036L53.433203125,41.729215177497515L53.79423828125,43.38921045974966L53.79423828125,44.47519763459409L54.1552734375,43.83020074933556L54.51630859375,43.59373709541432L54.51630859375,43.6415262105974L54.87734375,42.91001171685729L54.87734375,42.6212832777747L55.23837890625,42.495760676605414L55.23837890625,42.43353458564057L55.5994140625,41.87729029051807L55.96044921875,42.159884376082886L56.321484375000004,42.30330719476187L56.68251953125,41.84401645059533L57.043554687500006,43.18058752335199L57.043554687500006,43.38480020433915L57.40458984375,43.42540734809788L57.40458984375,43.187932269983385L57.765625,42.00279082052684L57.765625,40.21863981163168L58.126660156250004,40.76888824031155L58.126660156250004,41.09723111465811L58.4876953125,43.472480921399026L58.84873046875,43.55108922905809L58.84873046875,44.49013112735999L59.209765624999996,42.7495708486572L59.209765624999996,42.281741995481745L59.57080078125,44.37893308333643L59.9318359375,44.80315679112327L60.292871093749994,44.2008083291804L60.65390625,43.11328205434213L61.014941406249996,42.923969013895984L61.014941406249996,42.968529700879074L61.3759765625,41.902775869157225L61.73701171875,40.53472004178342L62.098046875,39.942614537734855L62.098046875,39.704464822367264L62.45908203125,40.05174399377234L62.45908203125,41.20540264702634L62.8201171875,40.28480951780158L63.18115234375,40.69723481651591L63.18115234375,40.864152743318364L63.5421875,39.1374095149231L63.5421875,38.11435117566934L63.90322265625,37.470105020866896L64.2642578125,37.78329248626994L64.2642578125,38.24243144472419L64.62529296875,36.97664797313996L64.986328125,36.81070799673391L64.986328125,36.68393045968686L65.34736328125,37.569737510126096L65.70839843750001,39.27636097683981L66.06943359375,39.19349720248267L66.06943359375,39.24222467443557L66.43046875,39.7414438579552L66.79150390625,38.433454514388586L66.79150390625,37.79398563435337L67.1525390625,38.02103346664108L67.51357421875001,37.93842206286429L67.51357421875001,37.669735589148836L67.87460937499999,37.691976317478556L68.23564453125,36.86274210813441L68.23564453125,36.73129113953986L68.5966796875,38.66204428618162L68.95771484375,35.81148205724363L68.95771484375,34.02437317764961L69.31875,34.39866991438191L69.31875,34.90291856684917L69.67978515624999,36.606742560219544L69.67978515624999,37.57749171138911L70.0408203125,37.606893611835076L70.0408203125,38.43989277415672L70.40185546875,38.169207595188624L70.762890625,38.73912215614272L70.762890625,39.1261275727587L71.4849609375,38.69682823254886L72.20703125,40.54115602156057L72.20703125,41.941850417339L72.56806640625,42.97301456380875L72.9291015625,42.348704740101056L72.9291015625,42.1987948095961L73.29013671874999,40.34098739601156L73.651171875,32.7794764104107L73.651171875,23.71089974140837L74.01220703125,20.592073724443L74.01220703125,19.41467316812731L74.73427734375,18.878711146512366L74.73427734375,19.620686491170765L75.0953125,19.116198630237136L75.0953125,17.57743742968851L75.8173828125,18.49761920435953L75.8173828125,22.351412432573607L76.17841796875,24.422467965989735L76.17841796875,27.786402440335L76.53945312500001,30.93321915483414L76.53945312500001,32.886893369451805L76.90048828124999,33.403835183200634L77.2615234375,37.119176109920375L77.2615234375,39.33659520961272L77.62255859375,39.77321418931538L77.98359375000001,42.55819839324825L77.98359375000001,45.33594670267666L78.34462890625,46.25857736252802L78.34462890625,46.70406374921236L78.7056640625,46.884027884740654L78.7056640625,47.26243528426031L79.06669921875,45.826944984795695L79.427734375,46.236613361320124L79.78876953125,46.078443935879804L79.78876953125,45.38054711383704L80.14980468750001,44.39948691901838L80.51083984375,44.96811946616932L80.51083984375,46.01703862102648L80.871875,45.45685799927603L80.871875,45.573622818059285L81.23291015625,43.56278646981709L81.23291015625,43.952087959821974L81.5939453125,43.95386350383914L81.5939453125,45.571384404285105L81.95498046875,45.292692328006034L81.95498046875,44.40071056078475L82.31601562499999,45.5334063207543L82.31601562499999,46.119330870038425L83.0380859375,46.51601470803787L83.0380859375,45.620424019270565L83.39912109375,46.93690185724104L83.39912109375,47.1126643191481L83.76015625,47.31776118660196L84.12119140625,45.51884835472241L84.48222656249999,47.73279500907978L84.84326171875,47.0497435591995L85.204296875,49.80866926326629L85.56533203125001,52.257356556739055L85.56533203125001,53.001422728192196L85.92636718749999,53.60991528496627L85.92636718749999,54.628164340250585L86.28740234375,58.22089194368891L86.6484375,57.61974119292641L86.6484375,58.842825270972305L87.00947265625001,69.34906656659544L87.00947265625001,75.1604680771643L87.3705078125,72.45980520695531L87.3705078125,74.48374468118001L87.73154296875,74.06137510714959L88.45361328125,77.61863818990011L88.8146484375,82.70001650667282L89.17568359375001,98.07303801069314L89.53671875,96.26211252504382L89.53671875,93.0423126810419L89.89775390625,84.25928128283984L89.89775390625,83.1174311303403L90.2587890625,88.61194709678328L90.2587890625,98.09840233806672L90.61982421875,86.01123671025377L90.61982421875,84.38040761961743L90.980859375,97.8045911090426L90.980859375,101.41697099945063L91.34189453124999,102.70321935300696L91.7029296875,120.26313024054767L92.06396484375,107.42834257100503L92.425,107.9014433070887L92.78603515625,104.01752321590199L93.1470703125,94.42294587534197L93.50810546874999,90.32686012570973L93.50810546874999,88.6965490689968L93.869140625,108.86157069709469L93.869140625,117.44763496382973L94.23017578125,110.4959606881774L94.23017578125,105.8902386901281L94.59121093750001,96.89489292924613L94.59121093750001,93.52776710723843L94.95224609374999,91.25283793768291L94.95224609374999,90.59471357600493L95.31328125,99.20442102076571L95.31328125,102.87754625869967L95.67431640625,90.07983692880379L96.03535156250001,95.02454413014195L96.03535156250001,97.25664359234298L96.39638671875,94.95062789938366L96.757421875,95.49876953137823L97.11845703125,85.36466353360558L97.4794921875,96.4067659292047L97.84052734375,87.35737269839194L97.84052734375,82.29841505122512L98.20156250000001,80.65518759071229L98.20156250000001,80.3954950617516L98.56259765625,79.5345371544419L98.56259765625,78.10766888181716L98.9236328125,82.45690354975275L98.9236328125,85.56263537529436L99.28466796875,83.98342882547773L99.28466796875,83.63149482580421L99.645703125,79.13694234632887L99.645703125,76.44033987170522L100.00673828125,84.5343300114834L100.00673828125,88.12791708851438L100.36777343749999,86.75213080730786L100.72880859375,85.80382955046545L100.72880859375,85.00022609535088L101.08984375,86.83282089890974L101.08984375,87.6554206887599L101.45087890625,80.01968082664708L101.45087890625,75.30708607879261L101.8119140625,77.67452533908872L101.8119140625,79.2289497208686L102.17294921875,71.84575059525716L102.17294921875,67.44141644703873L102.53398437499999,70.96516725103575L102.53398437499999,72.74629582333874L102.89501953125,67.77175558746839L103.2560546875,71.57153184776101L103.2560546875,73.91719652870056L103.61708984375001,75.83649879490586L103.97812499999999,75.1250794883286L103.97812499999999,74.36614828402092L104.33916015625,74.42573274787838L104.33916015625,75.15621649910949L104.7001953125,82.68524794552691L104.7001953125,85.64960757875821L105.06123046875001,80.25344599714505L105.422265625,88.5295525429485L105.78330078125,89.80600196746019L105.78330078125,90.44255074000576L106.1443359375,87.04961893480748L106.1443359375,83.11765303406156L106.50537109375,84.2277592042667L106.86640625,75.06566446421041L106.86640625,69.67031209507084L107.22744140625001,65.78106866064766L107.22744140625001,62.413436512448975L107.94951171875,64.76171706137971L108.310546875,66.35591080119957L108.310546875,66.63244220215529L108.67158203125,68.47268010655114L109.0326171875,76.34961814490399L109.0326171875,84.53628700022364L109.39365234374999,75.76910582847077L109.7546875,78.51648168047275L110.11572265625,76.30962345449133L110.4767578125,75.6461380075296L110.4767578125,72.76011246150019L111.198828125,74.49364763640533L111.198828125,76.87039385324617L111.55986328124999,77.36991504323026L111.9208984375,81.71981175278549L112.28193359375,78.24172752103165L112.28193359375,76.45580560645037L112.64296875000001,75.44900569765113L112.64296875000001,75.57953970500834L113.00400390624999,69.46085350236699L113.3650390625,76.49117564512133L113.72607421875,80.52163002899991L114.08710937500001,76.79031061576826L114.44814453125,82.95039036421193L114.8091796875,75.31341710020033L115.17021484375,66.62024778005835L115.53125,65.0817175182344L115.53125,63.59657432909655L115.89228515625,60.403626054977465L115.89228515625,57.33274373677676L116.25332031250001,57.62188867370668L116.61435546875,59.63600951139361L116.61435546875,60.143173801725474L116.975390625,55.698560429310035L116.975390625,52.64123704951717L117.33642578125,53.995431392918306L117.33642578125,53.865061697282556L117.6974609375,49.90163925861408L117.6974609375,46.261602944384556L118.05849609375,44.97202220415107L118.05849609375,44.89254283858357L118.41953124999999,44.73443927736889L118.41953124999999,44.95796496692387L118.78056640625,42.66966408465159L119.1416015625,42.839578767461695L119.1416015625,43.38505863895601L119.50263671875,42.14787476390949L119.50263671875,41.24788558044246L119.863671875,42.98733388478483L119.863671875,43.057562538156475L120.22470703125,42.78782932688965L120.22470703125,42.60043236531917L120.58574218749999,43.027147694337984L120.58574218749999,43.29369768057781L120.94677734375,43.41555014622918L120.94677734375,43.36783976180977L121.3078125,43.85258253191089L121.3078125,44.69580893381939L121.66884765625001,44.37149027107858L121.66884765625001,44.946637397917335L122.02988281249999,43.6204016371045L122.39091796875,44.38173862477978L122.751953125,49.27873016624156L123.4740234375,57.311639573743946L123.83505859375,59.44109169000647L123.83505859375,64.40101867926674L124.19609375,69.98796950427229L124.19609375,75.14350494373362L124.55712890625,72.01370916741205L124.55712890625,70.98650308833784L124.9181640625,76.11229730995258L125.27919921875001,80.2666942327326L125.27919921875001,85.24211406364674L126.00126953125,86.15480055285275L126.00126953125,86.6870757357644L126.3623046875,87.21106235124869L127.084375,95.35819716416718L127.44541015624999,105.96779539404068L127.44541015624999,111.49690010121117L127.8064453125,124.15406433644286L127.8064453125,132.15362685463265L128.16748046875,132.2850244709339L128.16748046875,133.94886319330251L128.528515625,132.9999790793116L128.528515625,131.8951448165648L128.88955078125,129.93521031319736L129.2505859375,126.05150536882662L129.2505859375,122.62171992254922L129.61162109375,126.62474648193123L129.61162109375,129.13257946671408L129.97265625,134.068913524755L129.97265625,138.20958552126578L130.33369140624998,142.57164028981023L130.6947265625,145.81565029123644L131.05576171875,138.15805238584213L131.05576171875,136.44114582359512L132.1388671875,131.4593974500083L132.49990234375,131.50231607213715L132.8609375,134.8468173471397L132.8609375,135.6687391102695L133.22197265625,125.76750218910279L133.22197265625,118.09149135455868L133.5830078125,143.01917012198L133.5830078125,161.822706958035L133.94404296875,163.5190906868653L133.94404296875,168.13874831674156L134.305078125,165.10557982093684L134.305078125,162.63548910756862L134.66611328125,162.21593193296565L134.66611328125,164.8736549239395L135.02714843750002,165.5877089354021L135.02714843750002,162.7964461111599L135.38818359375,180.09333524685545L136.83232421875,181.64462865193028L137.193359375,169.2775820922812L137.55439453125,165.61316429646573L137.55439453125,161.22261791788594L137.9154296875,144.53686644571854L138.27646484375,164.17452287239533L138.27646484375,174.2484994290036L138.6375,175.43431684083316L138.6375,179.2425417544836L138.99853515625,190.43188786690055L139.35957031249998,169.59632947713902L139.35957031249998,159.0964397049195L139.72060546875,157.84871617890872L139.72060546875,155.41252784373847L140.081640625,165.02227668549114L140.44267578125002,174.844264957421L140.44267578125002,176.0203963564513L140.8037109375,156.44071325739293L140.8037109375,144.44019170769096L141.16474609375,146.63057203551952L141.16474609375,150.20674323555323L141.52578125,153.69203157772517L141.52578125,154.55615456471776L141.88681640625,168.26958181760673L141.88681640625,173.44881055296636L142.2478515625,185.9881622676522L142.2478515625,193.44168978002494L142.60888671875,172.74534071127667L142.60888671875,162.19093255583502L142.969921875,167.18088135153488L143.33095703125,162.9201066714352L143.33095703125,161.3993949354783L143.6919921875,156.26948111818803L144.05302734375002,151.59838900864068L144.05302734375002,150.2191054266688L144.4140625,159.94850661130727L144.77509765624998,154.73031643016327L144.77509765624998,153.75535996307843L145.1361328125,136.63299164821655L145.1361328125,128.39083830863206L145.49716796875,137.1880515691636L145.49716796875,141.775743183116L145.858203125,143.43529159264955L146.21923828125,145.52343081496474L146.58027343749998,141.8969000315407L146.58027343749998,139.12748073751166L146.94130859375002,139.50675241955778L147.30234375,130.19119210725225L148.0244140625,122.71777859341222L148.38544921875,132.1571392222908L148.38544921875,137.45817004867396L148.746484375,133.28606256183784L148.746484375,131.62949494880516L149.10751953125,131.38131777820237L149.10751953125,132.03517148560633L149.4685546875,128.78542008598455L149.82958984375,126.76259991129122L150.190625,123.95601295987694L150.190625,122.10440265711108L150.55166015625,130.72714151288645L150.91269531249998,132.85156338063226L150.91269531249998,136.34234855084028L151.27373046875002,125.62971566940392L151.634765625,127.3809846140447L151.634765625,128.93161048278228L151.99580078125,129.73758119852354L151.99580078125,130.36694386071568L152.3568359375,125.7624844316638L152.3568359375,123.27041706585864L152.71787109375,127.65444445338235L152.71787109375,130.2175839693927L153.07890625000002,138.0542429577261L153.07890625000002,143.80519149607122L153.43994140625,124.09559157712678L153.43994140625,112.9157208062614L153.80097656249998,108.82860362633497L153.80097656249998,106.18813494903502L154.16201171875,103.2613098736365L154.16201171875,101.1761115619993L154.88408203125,95.94610979812082L154.88408203125,92.9948110103015L155.2451171875,102.98202866550707L155.60615234374998,96.51201212626552L155.60615234374998,92.49436647070559L155.96718750000002,93.96007836325832L155.96718750000002,94.77330595451912L156.32822265625,94.25945834993315L156.32822265625,93.24076539285377L156.6892578125,91.80250346585548L156.6892578125,90.48725820337397L157.05029296875,94.04701460016567L157.05029296875,96.35351876783051L157.411328125,104.08485710522143L157.77236328125,112.86155940473444L157.77236328125,120.12643220452685L158.1333984375,119.53213704284957L158.1333984375,119.66774703894217L158.49443359375,120.66925456186625L158.85546875,110.15683588938214L158.85546875,103.57133437766412L159.21650390625,106.39487826331721L159.21650390625,108.01840502602418L159.5775390625,105.79421486009693L159.5775390625,103.92347720910828L159.93857421874998,105.79950187315376L159.93857421874998,106.75196303592026L160.29960937500002,104.85348240732688L160.29960937500002,103.8954740472607L160.66064453125,108.49294299769237L160.66064453125,110.8223269253244L161.38271484375,117.52700689331314L161.74375,111.51236782210441L162.10478515625002,102.53873691640716L162.4658203125,88.42602578530166L162.82685546874998,92.32392759479752L162.82685546874998,94.71165290290715L163.187890625,86.95188337891064L163.187890625,82.06752595223246L163.54892578125,79.69639700800533L163.54892578125,78.72006296167983L163.9099609375,87.81848314037053L163.9099609375,92.85045674620147L164.27099609375,98.4466768136307L164.27099609375,102.07152700289197L164.63203124999998,95.31136140742368L164.63203124999998,91.2527881681033L165.3541015625,87.7759044936761L165.3541015625,85.57391150622355L165.71513671875,93.6475758669503L166.076171875,90.92377549555268L166.076171875,88.92132141915775L166.43720703125,92.73025681532116L166.7982421875,88.58938465966796L166.7982421875,85.884556851709L167.15927734375,86.19324825083659L167.15927734375,86.4172552808649L167.5203125,80.7504875984506L167.88134765625,79.50832661668754L168.2423828125,75.65156656988637L168.2423828125,73.58663476360744L168.60341796875,71.9596258929545L168.96445312499998,68.02793277250774L168.96445312499998,65.53432911642619L169.32548828125002,69.99878086015521L169.6865234375,76.14285590826434L169.6865234375,80.19207434919849L170.04755859375,82.02368872166105L170.04755859375,83.10604408423359L170.40859375,82.4675583861684L170.40859375,82.36153722896667L170.76962890625,81.41471922255253L170.76962890625,80.83398740206181L171.13066406250002,76.87547087141286L171.13066406250002,74.4076141421104L171.49169921875,80.05947774633395L171.85273437499998,77.06945710729337L171.85273437499998,75.20526275009378L172.21376953125,78.61721180858493L172.21376953125,80.76302870461711L172.5748046875,78.38177441169441L172.5748046875,77.09227219706545L172.93583984375,74.83516171148878L173.296875,74.9341800270764L173.65791015624998,77.46845423410063L174.01894531250002,77.56248512285785L174.01894531250002,77.76334622711641L174.37998046875,81.9743736522041L174.37998046875,84.55930853783939L174.741015625,75.76347059786231L174.741015625,70.92834796337233L175.10205078125,80.3524330995159L175.4630859375,78.59660026600025L175.4630859375,77.42366163156466L175.82412109375,75.28681683672689L175.82412109375,73.95021212657227L176.18515625,77.16713970677019L176.18515625,78.83076658671672L176.54619140625,71.30313491439169L176.9072265625,67.62044088770159L176.9072265625,65.35722520309214L177.26826171875,65.38086837584291L177.629296875,72.68311982107866L177.629296875,76.92827816299224L177.99033203124998,77.4795795839526L177.99033203124998,77.27615356295293L178.35136718750002,72.78621815909337L178.35136718750002,69.90322335761424L178.71240234375,72.83248648445786L179.0734375,66.78135000428148L179.0734375,63.09909571067844L179.43447265625,66.05095479680907L179.43447265625,68.10565001126417L179.7955078125,66.66469746881498L179.7955078125,65.60184531641269L180.15654296875002,61.66365851024149L180.15654296875002,59.39141544814521L180.517578125,58.508783595059L180.517578125,57.677223383760676L180.87861328124998,63.67091710927657L181.2396484375,63.285961151694686L181.60068359375,59.80855495487181L181.60068359375,57.769869835105695L181.96171875,68.37970281537005L181.96171875,74.66268115577478L182.32275390625,74.6563531748695L182.32275390625,74.81560399883446L182.68378906249998,69.08984523824923L183.04482421875002,64.99641205119335L183.04482421875002,62.44485870786852L183.405859375,56.279687562316745L183.405859375,52.66074216131174L183.76689453125,51.324757127943464L184.1279296875,58.962981044242476L184.48896484375,59.124705677225L184.48896484375,59.03869242488971L184.85,57.837068833229715L185.21103515625,56.839542732229496L185.21103515625,56.29252025858004L185.93310546875,56.10269818013177L185.93310546875,56.07805707437951L186.294140625,57.55975828637576L186.294140625,58.567794694522384L186.65517578125,59.7518591566996L186.65517578125,60.456749140666886L187.01621093749998,65.1204511059008L187.01621093749998,67.93151813821088L187.37724609375002,64.3609247633383L187.37724609375002,62.037158266816455L187.73828125,61.5095560583158L187.73828125,61.117442873677625L188.09931640625,59.43961654716393L188.4603515625,54.56640042909183L188.4603515625,51.79904055703598L188.82138671875,54.52061324820272L189.18242187500002,54.351770630908106L189.18242187500002,54.211322044987746L189.54345703125,51.8696276106393L189.90449218749998,58.81222681510183L189.90449218749998,63.086993630971904L190.26552734375,54.77715603525226L190.26552734375,49.89388789503643L190.6265625,50.897143690797904L190.98759765625,52.35413915535602L191.3486328125,50.74722060970939L191.70966796874998,55.370178157960225L191.70966796874998,58.27292727085442L192.07070312500002,57.48130455485478L192.07070312500002,56.9806912768175L192.7927734375,53.56693370987712L193.15380859375,51.61917072524471L193.15380859375,50.47419418726271L193.51484375,53.4064841077759L193.51484375,55.37043429808026L193.87587890625,58.59694787539764L194.2369140625,51.67306848771009L194.2369140625,47.51400330309054L194.59794921875,48.33997858351854L194.59794921875,48.89680478087895L194.958984375,53.36543017891148L194.958984375,56.094070907436425L195.32001953125,60.03440330902892L195.32001953125,62.40040666945868L195.6810546875,59.045014598497325L196.04208984374998,52.88645558349007L196.04208984374998,49.32320434247481L196.40312500000002,49.7878278636636L196.40312500000002,50.239840489051836L196.76416015625,48.32611623928274L196.76416015625,47.26012355521515L197.1251953125,47.46396724404014L197.1251953125,47.49836463622917L197.48623046875,45.60094664708379L197.48623046875,44.377853099995455L197.847265625,44.35573091059544L197.847265625,44.316513522960435L198.20830078125002,43.74479697257143L198.20830078125002,43.274205943603484L198.5693359375,44.39049041389971L198.5693359375,44.91148413888345L198.93037109374998,46.82398379845458L199.29140625,50.074902364033676L199.65244140625,45.203146616072395L199.65244140625,42.25798525141732L200.0134765625,47.088675529919385L200.0134765625,50.018915182250154L200.37451171875,47.36950823181711L200.37451171875,45.781265663984485L200.73554687499998,43.21290938529355L200.73554687499998,41.67564180656066L201.09658203125002,41.564360914014514L201.09658203125002,41.468637433876246L201.4576171875,46.42829214050151L201.81865234375,44.69756229627397L201.81865234375,43.58026855096182L202.1796875,47.19977521164196L202.54072265625,49.21771657504425L202.54072265625,50.437203355060745L202.9017578125,47.90203233764173L202.9017578125,46.29831440253419L203.26279296875,47.25021591864047L203.26279296875,47.87453284352234L203.623828125,45.82463598622408L203.98486328125,43.68716907088076L204.3458984375,43.53863111883869L204.3458984375,43.5128424438862L204.70693359375,47.32952681897253L204.70693359375,49.430439378330114L205.06796874999998,45.27034186771057L205.06796874999998,42.7555085658066L205.42900390625002,43.14133684470449L205.7900390625,44.94095418990171L206.512109375,41.0814777851533L206.512109375,38.802674965884144L206.87314453125,37.1736622696077L206.87314453125,36.17750121702484L207.23417968750002,39.73983782738287L207.59521484375,43.45263526326321L207.59521484375,45.54635629426976L207.95624999999998,41.65994749250933L208.31728515625,41.457757032213166L208.31728515625,41.41597789384776L208.6783203125,40.75647255415431L209.03935546875,37.75451311966605L209.03935546875,35.932867103621334L209.400390625,35.551483571015766L209.400390625,35.316210154384144L209.76142578124998,36.98806694091745L209.76142578124998,37.97104422415129L210.12246093750002,41.26938343146344L210.12246093750002,43.098017705871065L210.48349609375,42.7435291560849L210.48349609375,42.37767149323385L210.84453125,39.60011222351091L210.84453125,37.97376606934366L211.20556640625,38.57285236481685L211.5666015625,37.88253872373021L211.92763671875,37.19848152624557L212.288671875,38.83946918702318L212.288671875,39.65592409644243L212.64970703125,38.40612041398116L212.64970703125,37.741263470515975L213.0107421875,39.0164312784664L213.0107421875,39.79822840361548L213.37177734375,38.24406160475068L213.37177734375,37.36933051880948L213.7328125,36.66884001813382L213.7328125,36.32453384511899L214.09384765624998,37.35063797382452L214.09384765624998,38.06500308204455L214.45488281250002,37.35747739129521L214.81591796875,35.53088197501455L214.81591796875,34.428177285543796L215.176953125,35.877429404468366L215.176953125,36.75438591238521L215.53798828125,35.736611281216106L215.8990234375,33.957896901595575L216.26005859375002,37.12570577706574L216.26005859375002,39.0680889160177L216.62109375,37.85482972646201L216.98212890624998,36.81505303810704L217.3431640625,37.80741908965906L217.3431640625,38.379529512038225L217.70419921875,36.03607640829309L217.70419921875,34.67191405713532L218.065234375,35.06289790085936L218.42626953125,35.46474373904059L218.42626953125,35.82042106489653L218.78730468749998,35.72186185340275L219.14833984375002,35.86049075973146L219.14833984375002,35.8889555314309L219.509375,35.85488948618134L219.87041015625,36.73418214039858L219.87041015625,37.302321023842836L220.2314453125,35.86129405524401L220.59248046875,36.44962240711493L220.953515625,33.8841913470962L221.31455078125,33.26379186844858L221.31455078125,32.87316873949388L221.6755859375,34.22314987867048L221.6755859375,35.03244738035781L222.03662109375,34.36510433506996L222.39765625,33.541868313265034L222.75869140625,33.1727037621213L222.75869140625,32.91845339651941L223.11972656249998,32.65561900684856L223.11972656249998,32.51201283782497L223.48076171875002,31.303227596678976L223.48076171875002,30.566593497513935L223.841796875,30.371619896602148L223.841796875,30.296653571433716L224.20283203125,31.878557411058882L224.5638671875,32.614982073639325L224.5638671875,33.009582159400665L224.92490234375,34.518640731263574L224.92490234375,35.355049925538935L225.64697265625,34.27585140714628L225.64697265625,33.63689242591212L226.00800781249998,32.25416294210999L226.00800781249998,31.415292843027018L226.36904296875,31.830927867795896L226.730078125,32.677081574066L226.730078125,33.00872500721426L227.09111328125,31.62797622030264L227.09111328125,30.806680895707718L227.4521484375,30.179832575016253L228.17421875000002,31.37508249598326L228.53525390625,31.10210059474458L228.53525390625,30.928841124319334L228.8962890625,30.102209370738255L228.8962890625,29.640772274974573L229.25732421875,29.403186484482045L229.25732421875,29.27136311112215L229.618359375,29.74814120756608L229.618359375,29.987013510229314L229.97939453125,30.86506687841542L229.97939453125,31.432698501994576L230.3404296875,31.489186753740135L230.3404296875,31.393913298791777L230.70146484375,30.326819631623902L230.70146484375,29.746601505578173L231.0625,29.556529030104848L231.0625,29.427320462604587L231.42353515625,29.914163171931232L231.42353515625,30.199898706883676L231.7845703125,29.822709861801357L231.7845703125,29.57349781497694L232.14560546874998,29.37883147003876L232.14560546874998,29.308887134607406L232.50664062500002,29.051303475667492L232.86767578125,30.068307099483086L233.2287109375,29.581826671207946L233.2287109375,29.254378623313706L233.58974609375,29.697762168177167L233.58974609375,29.96661565824044L233.95078125,29.01157532606735L234.31181640625002,28.725787568137346L234.6728515625,28.71313232623257L234.6728515625,28.77192000851662L235.03388671874998,28.722556053234925L235.03388671874998,28.640421336074954L235.394921875,28.588785734482766L235.75595703125,28.518840483849136L235.75595703125,28.512925269618567L236.1169921875,29.004467424997664L236.1169921875,29.270388403484603L236.83906249999998,28.761529429127386L236.83906249999998,28.488021139722836L237.5611328125,28.235986833029063L237.5611328125,28.10010154500787L237.92216796875,28.10584304007998L238.283203125,28.300860804357782L238.64423828125,28.68625696701128L239.0052734375,28.334182265216036L239.0052734375,28.108440379389467L239.36630859375,28.31016911591392L239.36630859375,28.409449620596362L239.72734375,28.30594781848897L239.72734375,28.22634622859821L240.08837890625,27.74537037734905L240.08837890625,27.517888324209373L240.4494140625,27.71535718247196L240.4494140625,27.837078182329126L240.81044921875,27.713912471391385L241.17148437499998,27.33204061841427L241.17148437499998,27.137619898252424L241.53251953125002,27.539625436583787L241.8935546875,27.35435776542801L241.8935546875,27.277742885537034L242.25458984375,27.078692745558666L242.25458984375,26.95294675075544L242.615625,26.849425727785846L242.615625,26.84205843448313L242.97666015625,27.40206033571365L242.97666015625,27.74593615363323L243.33769531250002,27.831955655993706L243.33769531250002,27.83233962332111L243.69873046875,27.3256763411059L244.05976562499998,27.646136813511085L244.05976562499998,27.85767940112927L244.42080078125,27.211737991744158L244.42080078125,26.818345631782538L244.7818359375,27.11377089358825L244.7818359375,27.249912261590122L245.14287109375,26.576626580332572L245.14287109375,26.10234673105173L245.50390625,26.633433205778356L245.50390625,26.941388040519712L245.86494140624998,26.67527995451508L245.86494140624998,26.503566952213934L246.22597656250002,26.56668038904586L246.58701171875,26.34815762523762L246.58701171875,26.174977787041374L246.948046875,26.25219488603099L246.948046875,26.27136153019799L247.30908203125,26.217352022552486L247.6701171875,26.211027043952928L248.3921875,26.620552418566405L248.75322265625,26.7685220006724L248.75322265625,26.86194878599763L249.1142578125,25.961853834281673L249.47529296875,26.522400571678265L249.47529296875,26.879001276755837L249.836328125,27.02958516502253L249.836328125,27.12576973174335L250.19736328124998,26.812781880702516L250.55839843750002,26.738062894188914L250.55839843750002,26.671585883206255L250.91943359375,26.70288029919435L250.91943359375,26.68421564664663L251.28046875,26.340304476616097L251.28046875,26.15911305820781L251.64150390625,25.968042323246646L251.64150390625,25.822755885077544L252.0025390625,25.372222978246015L252.0025390625,25.101665861430842L252.36357421875002,25.986221942319307L252.36357421875002,26.52673193753592L252.724609375,26.180249021098014L252.724609375,25.953882394022735L253.08564453124998,26.517700321150016L253.08564453124998,26.801206642789964L253.4466796875,26.344432786943504L253.4466796875,26.020602675184783L253.80771484375,25.70568956131052L254.16875,26.559423841601497L254.16875,27.114780093967447L254.52978515625,27.334603671474966L254.89082031249998,26.098654374426832L254.89082031249998,25.342521739570028L255.25185546875002,25.558015933375188L255.25185546875002,25.675585134073497L255.612890625,26.1579953364001L255.612890625,26.470396304814L255.97392578125,26.816575363092422L256.3349609375,26.084774955200825L256.69599609375,26.85395571634432L257.41806640625,26.190945092709416L257.41806640625,25.741731823208852L257.7791015625,25.33809435966984L257.7791015625,25.18537678124534L258.14013671875,25.15855351250584L258.14013671875,25.16039109365868L258.501171875,25.579162960867468L258.86220703125,26.010859759819738L258.86220703125,26.246902904613147L259.2232421875,26.048806278926154L259.2232421875,25.956089009258363L259.58427734375,26.244102053689875L259.58427734375,26.442610215851435L259.9453125,25.95564258875971L259.9453125,25.58407894600944L260.30634765625,25.529816426214655L260.66738281249997,26.0469978571199L260.66738281249997,26.342687215820703L261.02841796875003,26.339484525372047L261.389453125,26.32954330641992L261.389453125,26.271346109304634L261.75048828125,26.564619831955707L261.75048828125,26.776127659111975L262.1115234375,26.12836890071418L262.1115234375,25.817937858004104L262.47255859374997,26.249482325970344L262.47255859374997,26.54320646063043L262.83359375000003,26.249780490809023L262.83359375000003,26.051258529114705L263.19462890625,26.526878731780048L263.19462890625,26.826504038174622L263.5556640625,26.659957167943126L263.5556640625,26.61121342188507L263.91669921875,26.451163915036457L264.277734375,26.472204510711638L264.277734375,26.466001873220804L264.63876953125,26.6828558458919L264.63876953125,26.773374163351548L264.9998046875,26.697937835400552L264.9998046875,26.610815402554636L265.36083984375,26.974445465815354L265.36083984375,27.20204449868936L265.721875,26.1129228248799" style="fill: none;" fill="none"></path></g></g></g></g><g opacity="0.2"><g><g><g><path stroke="rgb(255, 112, 67)" stroke-width="2px" d="M36.46455078125,29.67189154832547L36.8255859375,29.69397271834313L37.18662109375,29.717133135721085L37.54765625,29.71732042326281L37.90869140625,29.74613477153083L38.269726562500004,29.78168829393884L38.269726562500004,29.774151480322086L38.63076171875,29.799785764267053L38.63076171875,29.78987635076047L38.991796875000006,29.805926969895754L38.991796875000006,29.80746281283597L39.35283203125,29.81521184109151L39.35283203125,29.83948625822861L39.7138671875,29.834317203859488L39.7138671875,29.844638458763566L40.074902343750004,29.87235222955544L40.074902343750004,29.872450722257305L40.4359375,29.885171311100315L40.4359375,29.873625959455964L40.79697265625,29.903844497352836L40.79697265625,29.89586475392182L41.158007812499996,29.900933259973932L41.880078125,29.89348965634903L41.880078125,29.912409892181564L42.241113281249994,30.398847089211152L42.241113281249994,30.045777630805972L42.6021484375,30.123134806752205L42.963183593749996,30.88367396593094L43.32421875,30.818712812662127L43.68525390625,32.17830889821053L44.0462890625,33.88107247749965L44.0462890625,33.260837586720776L44.40732421875,32.636861387888594L44.40732421875,32.3104968905449L44.768359375,37.493522016207386L44.768359375,36.12864870230357L45.12939453125,34.31779760519664L45.4904296875,33.91615002552668L45.85146484375,37.210181323687245L46.2125,39.878896427154544L46.2125,39.54382390181224L46.57353515625,36.05879987080892L46.57353515625,36.49910574754079L47.295605468750004,39.61442248026529L47.295605468750004,40.58677779833476L47.656640625,42.823987356821696L47.656640625,42.72068212827046L48.017675781250006,39.18466540177664L48.017675781250006,40.4280804157257L48.3787109375,41.18882602055867L48.3787109375,41.99194364547729L48.73974609375,42.45179882049561L48.73974609375,41.413739498456316L49.100781250000004,40.35716001192728L49.46181640625,37.99510485331218L49.46181640625,38.175455069541925L49.8228515625,39.01392750740051L50.183886718749996,39.58336032231649L50.183886718749996,40.666729116439825L50.544921875,36.38938452402751L50.544921875,35.296680672963454L50.90595703125,42.153849379221604L51.266992187499994,41.86906719207764L51.62802734375,37.41010488669078L51.62802734375,37.16863897641499L51.989062499999996,36.88655021985371L51.989062499999996,35.52659340699515L52.35009765625,38.84425128300985L52.35009765625,39.436289676030476L52.7111328125,39.2857928276062L53.07216796875,42.292655833562215L53.07216796875,42.24011979103088L53.433203125,42.83646427790324L53.79423828125,45.87920338312785L53.79423828125,46.10417839686077L54.1552734375,42.86270542144776L54.51630859375,43.23904161453247L54.51630859375,43.713209883371995L54.87734375,41.81273997624715L54.87734375,42.18819061915079L55.23837890625,42.30747677485149L55.23837890625,42.34019544919331L55.5994140625,41.04292384783426L55.96044921875,42.58377550443013L56.321484375000004,42.51844142278035L56.68251953125,41.155080334345506L57.043554687500006,45.185444132486985L57.043554687500006,43.6911192258199L57.40458984375,43.486318063735965L57.40458984375,42.83171965281169L57.765625,40.22507864634196L57.765625,37.542413298288984L58.126660156250004,41.5942608833313L58.126660156250004,41.589745426177984L58.4876953125,47.03535563151042L58.84873046875,43.66900169054667L58.84873046875,45.89869397481282L59.209765624999996,40.13873043060303L59.209765624999996,41.57999871571858L59.57080078125,47.52471971511841L59.9318359375,45.43949235280355L60.292871093749994,43.29728563626608L60.65390625,41.48199264208475L61.014941406249996,42.63999945322673L61.014941406249996,43.035370731353765L61.3759765625,40.30414512157441L61.73701171875,38.48263630072277L62.098046875,39.054456281661984L62.098046875,39.34724024931589L62.45908203125,40.572662750879914L62.45908203125,42.93589062690735L62.8201171875,38.903919823964436L63.18115234375,41.3158727645874L63.18115234375,41.11452963352204L63.5421875,36.54729467233022L63.5421875,36.57976366678874L63.90322265625,36.50373578866323L64.2642578125,38.25307368437449L64.2642578125,38.931139882405596L64.62529296875,35.0779727657636L64.986328125,36.561798032124834L64.986328125,36.49376415411631L65.34736328125,38.898448085784906L65.70839843750001,41.836296176910395L66.06943359375,39.06920154094696L66.06943359375,39.3153158823649L66.43046875,40.49027263323466L66.79150390625,36.4714704990387L66.79150390625,36.83478231430054L67.1525390625,38.36160521507263L67.51357421875001,37.81450495719909L67.51357421875001,37.26670587857564L67.87460937499999,37.72533740997315L68.23564453125,35.618890794118236L68.23564453125,36.53411468664806L68.5966796875,41.558174006144206L68.95771484375,31.53563871383668L68.95771484375,31.343709858258556L69.31875,34.96011501948039L69.31875,35.65929154555002L69.67978515624999,39.16247855027516L69.67978515624999,39.03361543814342L70.0408203125,37.650996462504075L70.0408203125,39.689391517639166L70.40185546875,37.76317982673645L70.762890625,39.59399399757385L70.762890625,39.70663569768269L71.4849609375,38.05287922223409L72.20703125,43.307647705078125L72.20703125,44.042892011006664L72.56806640625,44.519760783513384L72.9291015625,41.412240004539484L72.9291015625,41.973929913838695L73.29013671874999,37.55427627563476L73.651171875,21.437209932009388L73.651171875,10.10803473790487L74.01220703125,15.913834698994958L74.01220703125,17.64857233365377L74.73427734375,18.074768114089963L74.73427734375,20.733649508158372L75.0953125,18.359466838836667L75.0953125,15.269295628865558L75.8173828125,19.877891866366078L75.8173828125,28.132102274894724L76.17841796875,27.529051266113914L76.17841796875,32.83230415185292L76.53945312500001,35.65344422658284L76.53945312500001,35.81740469137828L76.90048828124999,34.17924790382385L77.2615234375,42.6921875L77.2615234375,42.662723859151214L77.62255859375,40.428142658869426L77.98359375000001,46.73567469914755L77.98359375000001,49.502569166819264L78.34462890625,47.6425233523051L78.34462890625,47.372293329238886L78.7056640625,47.15397408803303L78.7056640625,47.830046383539845L79.06669921875,43.67370953559876L79.427734375,46.851115926106765L79.78876953125,45.841189797719316L79.78876953125,44.3337018807729L80.14980468750001,42.927896626790364L80.51083984375,45.82106828689575L80.51083984375,47.59041735331218L80.871875,44.616587066650396L80.871875,45.74877004623413L81.23291015625,40.54653194745381L81.23291015625,44.536040194829305L81.5939453125,43.95652681986491L81.5939453125,47.99766575495402L81.95498046875,44.874654213587434L81.95498046875,43.06273790995281L82.31601562499999,47.23244996070862L82.31601562499999,46.99821769396464L83.0380859375,47.11104046503703L83.0380859375,44.27703798611959L83.39912109375,48.91161861419678L83.39912109375,47.376308012008664L83.76015625,47.62540648778279L84.12119140625,42.82047910690308L84.48222656249999,51.053714990615845L84.84326171875,46.02516638437907L85.204296875,53.94705781936645L85.56533203125001,55.93038749694824L85.56533203125001,54.1175219853719L85.92636718749999,54.52265412012736L85.92636718749999,56.15553792317709L86.28740234375,63.60998334884644L86.6484375,56.718015066782634L86.6484375,60.677451388041185L87.00947265625001,85.1084285100301L87.00947265625001,83.87757034301758L87.3705078125,68.40881090164184L87.3705078125,77.51965389251708L87.73154296875,73.42782074610392L88.45361328125,82.95453281402588L88.8146484375,90.32208398183188L89.17568359375001,121.13257026672363L89.53671875,93.54572429656983L89.53671875,88.21261291503906L89.89775390625,71.0847341855367L89.89775390625,81.404655901591L90.2587890625,96.85372104644776L90.2587890625,112.32808519999186L90.61982421875,67.88048826853434L90.61982421875,81.93416398366293L90.980859375,117.94086634318033L90.980859375,106.83554083506266L91.34189453124999,104.63259188334149L91.7029296875,146.6029965718587L92.06396484375,88.17616106669108L92.425,108.6110944112142L92.78603515625,98.19164307912189L93.1470703125,80.03107986450195L93.50810546874999,84.18273150126139L93.50810546874999,86.2510824839274L93.869140625,139.10910313924154L93.869140625,130.3267313639323L94.23017578125,100.06844927469889L94.23017578125,98.9816556930542L94.59121093750001,83.40187428792318L94.59121093750001,88.47707837422689L94.95224609374999,87.8404441833496L94.95224609374999,89.60752703348795L95.31328125,112.1189821879069L95.31328125,108.38723411560059L95.67431640625,70.88327293395996L96.03535156250001,102.44160493214923L96.03535156250001,100.60479278564453L96.39638671875,91.49160435994467L96.757421875,96.32098197937012L97.11845703125,70.16350453694662L97.4794921875,112.96991952260333L97.84052734375,73.78328285217285L97.84052734375,74.70997858047485L98.20156250000001,78.19034639994302L98.20156250000001,80.00595626831054L98.56259765625,78.24310029347738L98.56259765625,75.96736647288004L98.9236328125,88.98075555165609L98.9236328125,90.22123311360677L99.28466796875,81.61461900075277L99.28466796875,83.10359382629395L99.645703125,72.39511362711588L99.645703125,72.39543615976969L100.00673828125,96.6753152211507L100.00673828125,93.51829770406088L100.36777343749999,84.68845138549804L100.72880859375,84.38137766520184L100.72880859375,83.79482091267904L101.08984375,89.58171310424805L101.08984375,88.88932037353516L101.45087890625,68.56607103347778L101.45087890625,68.23819395701092L101.8119140625,81.22568422953287L101.8119140625,81.56058629353842L102.17294921875,60.77095190684L102.17294921875,60.834915224711104L102.53398437499999,76.25079345703125L102.53398437499999,75.41798868179322L102.89501953125,60.30994523366292L103.2560546875,77.27119623819986L103.2560546875,77.43569355010986L103.61708984375001,78.71545219421387L103.97812499999999,74.05795052846271L103.97812499999999,73.22775147755941L104.33916015625,74.51510944366456L104.33916015625,76.25194212595623L104.7001953125,93.97879511515299L104.7001953125,90.09614702860513L105.06123046875001,72.15920362472534L105.422265625,100.94371236165365L105.78330078125,91.72067610422772L105.78330078125,91.39737389882406L106.1443359375,81.9602212270101L106.1443359375,77.21970418294269L106.50537109375,85.89291845957437L106.86640625,61.32252235412598L106.86640625,61.57728354136148L107.22744140625001,59.94720350901286L107.22744140625001,57.361988290150954L107.94951171875,68.28413788477579L108.310546875,68.74720141092938L108.310546875,67.04723930358887L108.67158203125,71.23303696314495L109.0326171875,88.16502520243328L109.0326171875,96.81629028320313L109.39365234374999,62.61833407084148L109.7546875,82.63754545847574L110.11572265625,72.9993361155192L110.4767578125,74.650909837087L110.4767578125,68.43107414245605L111.198828125,77.09395039876303L111.198828125,80.43551317850748L111.55986328124999,78.11919682820638L111.9208984375,88.24465681711833L112.28193359375,73.02460117340088L112.28193359375,73.77692273457843L112.64296875000001,73.93880583445231L112.64296875000001,75.7753407160441L113.00400390624999,60.28282419840494L113.3650390625,87.03665885925292L113.72607421875,86.56731160481772L114.08710937500001,71.19333149592082L114.44814453125,92.19050998687744L114.8091796875,63.85795720418295L115.17021484375,53.58049379984538L115.53125,62.773922125498444L115.53125,61.36885954538982L115.89228515625,55.61420364379883L115.89228515625,52.7264202594757L116.25332031250001,58.055606079101565L116.61435546875,62.657190767924L116.61435546875,60.90392023722331L116.975390625,49.03164037068686L116.975390625,48.05525197982789L117.33642578125,56.02672290802002L117.33642578125,53.66950715382894L117.6974609375,43.95650560061137L117.6974609375,40.80154847304026L118.05849609375,43.037651093800854L118.05849609375,44.77332379023235L118.41953124999999,44.497283935546875L118.41953124999999,45.293253501256316L118.78056640625,39.23721276124318L119.1416015625,43.09445079167685L119.1416015625,44.203278446197515L119.50263671875,40.292098951339725L119.50263671875,39.897901805241894L119.863671875,45.596506341298415L119.863671875,43.16290551821391L120.22470703125,42.38322950998943L120.22470703125,42.31933692296345L120.58574218749999,43.667220687866205L120.58574218749999,43.69352265993755L120.94677734375,43.598328844706224L120.94677734375,43.296274185180664L121.3078125,44.57969668706257L121.3078125,45.96064853668213L121.66884765625001,43.885012276967366L121.66884765625001,45.809358088175465L122.02988281249999,41.631047995885204L122.39091796875,45.523744106292725L122.751953125,56.624217478434254L123.4740234375,69.36100368499756L123.83505859375,62.63526986440022L123.83505859375,71.84090916315714L124.19609375,78.3683957417806L124.19609375,82.87680810292562L124.55712890625,67.31901550292969L124.55712890625,69.44569396972656L124.9181640625,83.80098864237469L125.27919921875001,86.49828961690265L125.27919921875001,92.7052438100179L126.00126953125,87.52383028666178L126.00126953125,87.48548851013183L126.3623046875,87.99704227447509L127.084375,107.57889938354492L127.44541015624999,121.88219273885092L127.44541015624999,119.79055716196696L127.8064453125,143.13981068929036L127.8064453125,144.15297063191733L128.16748046875,132.48212089538575L128.16748046875,136.4446212768555L128.528515625,131.5766529083252L128.528515625,130.23789342244464L128.88955078125,126.99530855814618L129.2505859375,120.2259479522705L129.2505859375,117.47704175313315L129.61162109375,132.62928632100423L129.61162109375,132.89432894388835L129.97265625,141.47341461181642L129.97265625,144.42059351603191L130.33369140624998,149.11472244262697L130.6947265625,150.68166529337566L131.05576171875,126.67165552775064L131.05576171875,133.86578598022462L132.1388671875,123.98677488962808L132.49990234375,131.5666940053304L132.8609375,139.86356925964355L132.8609375,136.9016217549642L133.22197265625,110.9156468073527L133.22197265625,106.57747510274253L133.5830078125,180.410688273112L133.5830078125,190.02801221211755L133.94404296875,166.06366628011068L133.94404296875,175.068234761556L134.305078125,160.55582707722982L134.305078125,158.93035303751628L134.66611328125,161.5865961710612L134.66611328125,168.8602394104004L135.02714843750002,166.65878995259604L135.02714843750002,158.60955187479655L135.38818359375,206.03866895039874L136.11025390625,203.71542663574218L136.4712890625,169.50082321166994L136.83232421875,172.34757563273112L137.193359375,150.7270122528076L137.55439453125,160.1165376027425L137.55439453125,154.63679835001628L137.9154296875,119.50823923746744L138.27646484375,193.63100751241046L138.27646484375,189.359464263916L138.6375,177.21304295857746L138.6375,184.9548791249593L138.99853515625,198.4315156300863L139.35957031249998,138.34299189249674L139.35957031249998,143.34660504659016L139.72060546875,155.97713088989258L139.72060546875,151.75824534098308L140.081640625,179.43689994812013L140.44267578125002,189.57724736531574L140.44267578125002,177.78459345499675L140.8037109375,127.07118860880536L140.8037109375,126.43940938313803L141.16474609375,149.91614252726237L141.16474609375,155.57100003560384L141.52578125,158.9199640909831L141.52578125,155.85233904520672L141.88681640625,188.83972269694007L142.2478515625,204.621981048584L142.60888671875,141.7008171081543L142.60888671875,146.35932032267252L142.969921875,174.66580454508463L143.33095703125,156.5289446512858L143.33095703125,159.118327331543L143.6919921875,148.5746103922526L144.05302734375002,144.59175084431965L144.05302734375002,148.15018005371095L144.4140625,174.54260838826497L144.77509765624998,146.90303115844725L144.77509765624998,152.29292526245118L145.1361328125,110.94943917592367L145.1361328125,116.02760829925538L145.49716796875,150.38387145996094L145.49716796875,148.6572806040446L145.858203125,145.92461420694988L146.21923828125,148.6556396484375L146.58027343749998,136.45710385640461L146.58027343749998,134.9733517964681L146.94130859375002,140.07565994262697L147.30234375,116.21785163879395L148.0244140625,111.50765832265216L148.38544921875,146.31618016560873L148.38544921875,145.4097162882487L148.746484375,127.02790133158368L148.746484375,129.14464352925617L149.10751953125,131.00905202229816L149.10751953125,133.01595204671224L149.4685546875,123.91079298655194L149.82958984375,123.7283696492513L150.190625,119.74613253275555L150.190625,119.32698720296224L150.55166015625,143.66124979654947L150.91269531249998,136.03819618225097L150.91269531249998,141.57852630615233L151.27373046875002,109.56076634724936L151.634765625,130.00788803100588L151.634765625,131.25754928588867L151.99580078125,130.94653727213543L151.99580078125,131.3109878540039L152.3568359375,118.85579528808594L152.3568359375,119.53231601715088L152.71787109375,134.23048553466796L152.71787109375,134.06229324340822L153.07890625000002,149.80923144022623L153.07890625000002,152.43161430358887L153.43994140625,94.53119169871012L153.43994140625,96.14591464996337L153.80097656249998,102.69792785644532L153.80097656249998,102.22743193308514L154.16201171875,98.87107226053872L154.16201171875,98.04831409454346L154.88408203125,88.10110715230304L154.88408203125,88.5678628285726L155.2451171875,117.96285514831543L155.60615234374998,86.80698731740314L155.60615234374998,86.46789798736572L155.96718750000002,96.1586462020874L155.96718750000002,95.9931473414103L156.32822265625,93.4886869430542L156.32822265625,91.71272595723468L156.6892578125,89.64511057535806L156.6892578125,88.5143903096517L157.05029296875,99.38664919535319L157.05029296875,99.81327501932782L157.411328125,115.68186461130777L157.77236328125,126.0266128540039L157.77236328125,131.0237414042155L158.1333984375,118.64069430033368L158.1333984375,119.87116203308105L158.49443359375,122.17151584625245L158.85546875,94.38820788065591L158.85546875,93.69308211008708L159.21650390625,110.63019409179688L159.21650390625,110.45369517008463L159.5775390625,102.45792961120605L159.5775390625,101.11737073262533L159.93857421874998,108.61353886922201L159.93857421874998,108.18065478006999L160.29960937500002,102.00576146443683L160.29960937500002,102.45846150716146L160.66064453125,115.38914642333984L160.66064453125,114.31640281677247L161.38271484375,127.58402684529624L161.74375,102.49040921529132L162.10478515625002,89.07829055786132L162.4658203125,67.2569590886434L162.82685546874998,98.17078030904135L162.82685546874998,98.2932408650716L163.187890625,75.31222909291586L163.187890625,74.74098981221518L163.54892578125,76.13970359166464L163.54892578125,77.25556189219157L163.9099609375,101.46611340840656L163.9099609375,100.39841715494794L164.27099609375,106.8410069147746L164.27099609375,107.50880228678385L164.63203124999998,85.17111301422119L164.63203124999998,85.16492830912271L165.3541015625,82.56057898203531L165.3541015625,82.27092202504477L165.71513671875,105.75807240804038L166.076171875,86.83807493845622L166.076171875,85.91764030456542L166.43720703125,98.44365990956625L166.7982421875,82.37807642618814L166.7982421875,81.8273151397705L167.15927734375,86.65628534952799L167.15927734375,86.7532658259074L167.5203125,72.25033607482911L167.88134765625,77.64508514404297L168.2423828125,69.86642649968464L168.2423828125,70.48923705418905L168.60341796875,69.5191125869751L168.96445312499998,62.13039309183757L168.96445312499998,61.79392363230388L169.32548828125002,76.6954584757487L169.6865234375,85.35896848042806L169.6865234375,86.26590201059979L170.04755859375,84.77111028035482L170.04755859375,84.72957712809244L170.40859375,81.50982983907065L170.40859375,82.20250549316407L170.76962890625,79.9944922129313L170.76962890625,79.96288967132568L171.13066406250002,70.93769607543945L171.13066406250002,70.70582904815674L171.49169921875,88.53727315266927L171.85273437499998,72.5844261487325L171.85273437499998,72.40897121429444L172.21376953125,83.73513539632162L172.21376953125,83.98175404866537L172.5748046875,74.8098929723104L172.5748046875,75.15801887512207L172.93583984375,71.44949598312378L173.296875,75.08270750045776L173.65791015624998,81.26986554463703L174.01894531250002,77.70353145599366L174.01894531250002,78.06463788350423L174.37998046875,88.29091478983561L174.37998046875,88.4367108662923L174.741015625,62.56971368789672L174.741015625,63.67566401163737L175.10205078125,94.48856080373129L175.4630859375,75.96285101572674L175.4630859375,75.66425367991131L175.82412109375,72.08154964447021L175.82412109375,71.94530506134033L176.18515625,81.99253107706706L176.18515625,81.32620690663656L176.54619140625,60.011687405904134L176.9072265625,62.096399847666426L176.9072265625,61.962401676177976L177.26826171875,65.41633313496908L177.629296875,83.63649698893231L177.629296875,83.29601567586263L177.99033203124998,78.30653171539306L177.99033203124998,76.97101453145343L178.35136718750002,66.05131505330404L178.35136718750002,65.5787311553955L178.71240234375,77.2263811747233L179.0734375,57.70464528401693L179.0734375,57.575714270273835L179.43447265625,70.47874342600504L179.43447265625,71.18769283294678L179.7955078125,64.5032686551412L179.7955078125,64.00756708780924L180.15654296875002,55.7563783009847L180.15654296875002,55.983050855000805L180.517578125,57.18483581542969L180.517578125,56.429883066813154L180.87861328124998,72.66145769755045L181.2396484375,62.70852721532186L181.60068359375,54.59244565963745L181.60068359375,54.71184215545654L181.96171875,84.2944522857666L181.96171875,84.08714866638184L182.32275390625,74.64686120351156L182.32275390625,75.05448023478189L182.68378906249998,60.50120709737141L183.04482421875002,58.85626227060954L183.04482421875002,58.61752869288127L183.405859375,47.031930843989045L183.405859375,47.23232405980428L183.76689453125,49.32077957789104L184.1279296875,70.420316918691L184.48896484375,59.367292626698806L184.48896484375,58.909672546386716L184.85,56.03463344573974L185.21103515625,55.343253580729176L185.21103515625,55.47198654810588L185.93310546875,55.8179650624593L185.93310546875,56.04109541575113L186.294140625,59.78231010437011L186.294140625,60.079849306742354L186.65517578125,61.52795584996542L186.65517578125,61.514084116617845L187.01621093749998,72.11600405375162L187.01621093749998,72.14811868667603L187.37724609375002,59.005034701029466L187.37724609375002,58.551508522033686L187.73828125,60.71815274556477L187.73828125,60.52927309672038L188.09931640625,56.922877057393386L188.4603515625,47.256576251983645L188.4603515625,47.64800074895222L188.82138671875,58.602972284952806L189.18242187500002,54.09850670496623L189.18242187500002,54.00064916610718L189.54345703125,48.357085959116624L189.90449218749998,69.22612562179566L189.90449218749998,69.49914385477702L190.26552734375,42.312399641672776L190.26552734375,42.56898568471272L190.6265625,52.40202738444011L190.98759765625,54.53963235219319L191.3486328125,48.33684279123943L191.70966796874998,62.304614480336504L191.70966796874998,62.62705094019572L192.07070312500002,56.2938704808553L192.07070312500002,56.22977135976155L192.7927734375,48.446297359466556L193.15380859375,48.69752624829609L193.15380859375,48.75672938028972L193.51484375,57.80491898854573L193.51484375,58.31635958353679L193.87587890625,63.436718241373704L194.2369140625,41.2872494061788L194.2369140625,41.275405526161194L194.59794921875,49.578941504160554L194.59794921875,49.73204407691955L194.958984375,60.068368275960296L194.958984375,60.1870320002238L195.32001953125,65.94490191141766L195.32001953125,65.94941171010336L195.6810546875,54.01192649205527L196.04208984374998,43.6486170609792L196.04208984374998,43.978327480951954L196.40312500000002,50.48476314544678L196.40312500000002,50.917859427134196L196.76416015625,45.455529864629106L196.76416015625,45.66113452911377L197.1251953125,47.76973277727763L197.1251953125,47.54996072451274L197.48623046875,42.75481966336567L197.48623046875,42.543212779362996L197.847265625,44.322547626495364L197.847265625,44.257687441507976L198.20830078125002,42.88722214698791L198.20830078125002,42.56831940015158L198.5693359375,46.06491711934407L198.5693359375,45.69297472635904L198.93037109374998,49.69273328781128L199.29140625,54.95128021240234L199.65244140625,37.89551299413045L199.65244140625,37.84024320443471L200.0134765625,54.33471094767253L200.0134765625,54.414274660746266L200.37451171875,43.39539780616761L200.37451171875,43.398901812235515L200.73554687499998,39.36037496725717L200.73554687499998,39.36974043846131L201.09658203125002,41.39743957519531L201.09658203125002,41.325052213668826L201.4576171875,53.867774200439456L201.81865234375,42.10146752993265L201.81865234375,41.904327932993574L202.1796875,52.62903520266216L202.54072265625,52.24462862014771L202.54072265625,52.266433525085446L202.9017578125,44.09927581151326L202.9017578125,43.892737499872844L203.26279296875,48.67806819279988L203.26279296875,48.81100823084514L203.623828125,42.749790700276684L203.98486328125,40.4809686978658L204.3458984375,43.315824190775544L204.3458984375,43.47415943145752L204.70693359375,53.05455338160197L204.70693359375,52.581808217366536L205.06796874999998,39.03019560178121L205.06796874999998,38.98325861295064L205.42900390625002,43.72007926305136L205.7900390625,47.640380207697554L206.512109375,35.29226317803066L206.512109375,35.38447073698043L206.87314453125,34.73014322519302L206.87314453125,34.683259638150524L207.23417968750002,45.083342742919925L207.59521484375,49.021831417083746L207.59521484375,48.68693784077961L207.95624999999998,35.83033428986867L208.31728515625,41.154471341768904L208.31728515625,41.35330918629963L208.6783203125,39.767214544614156L209.03935546875,33.25157396793365L209.03935546875,33.20039807955424L209.400390625,34.97940827210744L209.400390625,34.96330002943674L209.76142578124998,39.495852120717366L209.76142578124998,39.445510149002075L210.12246093750002,46.21689224243164L210.12246093750002,45.840969117482494L210.48349609375,42.21179633140564L210.48349609375,41.82888499895731L210.84453125,35.433773318926484L210.84453125,35.5342468380928L211.20556640625,39.47148180802663L211.5666015625,36.84706826210022L211.92763671875,36.17239573001862L212.288671875,41.30095067818959L212.288671875,40.880606460571286L212.64970703125,36.53141489028931L212.64970703125,36.74397805531819L213.0107421875,40.92918299039204L213.0107421875,40.970924091339114L213.37177734375,35.91281140645345L213.37177734375,36.057233889897674L213.7328125,35.61810426712036L213.7328125,35.80807458559672L214.09384765624998,38.88979416688283L214.09384765624998,39.1365507443746L214.45488281250002,36.29618885517121L214.81591796875,32.790988850593564L214.81591796875,32.77412025133768L215.176953125,38.05130758285523L215.176953125,38.06982067426045L215.53798828125,34.20994933446249L215.8990234375,31.289825332164767L216.26005859375002,41.87741909027099L216.26005859375002,41.98166362444559L216.62109375,36.03494094212849L216.98212890624998,35.25538800557454L217.3431640625,39.2959681669871L217.3431640625,39.23769514560699L217.70419921875,32.520896752675384L217.70419921875,32.625670530398686L218.065234375,35.64937366644542L218.42626953125,36.06751249631245L218.42626953125,36.353937053680426L218.78730468749998,35.57402303616207L219.14833984375002,36.06843411922455L219.14833984375002,35.93165268898011L219.509375,35.803790418306995L219.87041015625,38.05312112172444L219.87041015625,38.1545293490092L220.2314453125,33.699753602345794L220.59248046875,37.332114934921265L220.953515625,30.036044757068154L221.31455078125,32.333192650477095L221.31455078125,32.28723404606183L221.6755859375,36.24812158743541L221.6755859375,36.2463936328888L222.03662109375,33.364089767138154L222.39765625,32.30701428055764L222.75869140625,32.618956935405734L222.75869140625,32.53707784811656L223.11972656249998,32.2613674223423L223.11972656249998,32.29660358428956L223.48076171875002,29.49004973496L223.48076171875002,29.461642348766336L223.841796875,30.079159495234492L223.841796875,30.18420408368111L224.20283203125,34.251413170496626L224.5638671875,33.71961906750996L224.5638671875,33.60148228804271L224.92490234375,36.78222858905792L224.92490234375,36.60966371695201L225.64697265625,32.65705362955728L225.64697265625,32.67845395406086L226.00800781249998,30.180068716406822L226.00800781249998,30.15698769440254L226.36904296875,32.45438040494919L226.730078125,33.946312133471174L226.730078125,33.50619015693664L227.09111328125,29.556853039935234L227.09111328125,29.574737908815347L227.4521484375,29.23956009397904L228.17421875000002,33.16795737743378L228.53525390625,30.692627742886543L228.53525390625,30.66895191868147L228.8962890625,28.862261740366627L228.8962890625,28.94861663132906L229.25732421875,29.046807798743245L229.25732421875,29.073628051082302L229.618359375,30.463308352231977L229.618359375,30.34532196422418L229.97939453125,32.182146930694586L229.97939453125,32.28414593736331L230.3404296875,31.57391913135846L230.3404296875,31.251003116369247L230.70146484375,28.726179130872094L230.70146484375,28.87627431650956L231.0625,29.27142031689484L231.0625,29.233507611354195L231.42353515625,30.644427235921224L231.42353515625,30.62850200931232L231.7845703125,29.25692659417789L231.7845703125,29.199679744740333L232.14560546874998,29.08683195263147L232.14560546874998,29.203970631460358L232.50664062500002,28.66492798725765L232.86767578125,31.59381253520647L233.2287109375,28.85210602879525L233.2287109375,28.76320655147234L233.58974609375,30.362837485472358L233.58974609375,30.36989589333534L233.95078125,27.57901482780775L234.31181640625002,28.29710593124231L234.6728515625,28.694149463375403L234.6728515625,28.860101531942686L235.03388671874998,28.64851012031237L235.03388671874998,28.51721926033497L235.394921875,28.511332332094504L235.75595703125,28.413922607898712L235.75595703125,28.504052448272702L236.1169921875,29.741780658066276L236.1169921875,29.669269871215025L236.83906249999998,27.99824096759161L236.83906249999998,28.077758705615988L237.5611328125,27.857935372988383L237.5611328125,27.896273612976074L237.92216796875,28.11445528268814L238.283203125,28.59338745077451L238.64423828125,29.26435121099154L239.0052734375,27.806070212523142L239.0052734375,27.769827550649634L239.36630859375,28.612762220700585L239.36630859375,28.55837037762006L239.72734375,28.150695115327835L239.72734375,28.10694384376209L240.08837890625,27.023906600475314L240.08837890625,27.17666524449985L240.4494140625,28.0115604698658L240.4494140625,28.019659682114913L240.81044921875,27.529163904984795L241.17148437499998,26.759232838948574L241.17148437499998,26.845988818009697L241.53251953125002,28.142633744080864L241.8935546875,27.076456258694325L241.8935546875,27.162820565700528L242.25458984375,26.780117535591135L242.25458984375,26.764327758550653L242.615625,26.6941441933314L242.615625,26.831007494529082L242.97666015625,28.24206318755945L242.97666015625,28.261749880512546L243.33769531250002,27.960984909534464L243.33769531250002,27.83291557431221L243.69873046875,26.565681417783107L244.05976562499998,28.12682752211888L244.05976562499998,28.174993282556525L244.42080078125,26.242825877666476L244.42080078125,26.2282570918401L244.7818359375,27.556908786296844L244.7818359375,27.454124313592914L245.14287109375,25.566698058446242L245.14287109375,25.390926957130432L245.50390625,27.430062917868305L245.50390625,27.40332029263178L245.86494140624998,26.276117825508127L245.86494140624998,26.245997448762264L246.22597656250002,26.66135054429372L246.58701171875,26.020373479525254L246.58701171875,25.915208029747006L246.948046875,26.36802053451538L246.948046875,26.300111496448526L247.30908203125,26.13633776108424L247.6701171875,26.20153957605362L248.3921875,27.23484048048656L248.75322265625,26.99047637383143L248.75322265625,27.002088963985443L249.1142578125,24.611711406707773L249.47529296875,27.363220677773164L249.47529296875,27.4139023343722L249.836328125,27.255460997422542L249.836328125,27.270046581824626L250.19736328124998,26.343300104141235L250.55839843750002,26.625984414418532L250.55839843750002,26.571870366732274L250.91943359375,26.749821923176444L250.91943359375,26.65621866782507L251.28046875,25.824437721570327L251.28046875,25.887325930595395L251.64150390625,25.681436220804844L251.64150390625,25.6048262278239L252.0025390625,24.696423617998768L252.0025390625,24.695830186208095L252.36357421875002,27.31305606365204L252.36357421875002,27.337496930360803L252.724609375,25.660524646441136L252.724609375,25.614332453409837L253.08564453124998,27.363427211840953L253.08564453124998,27.226466125249853L253.4466796875,25.659272003173825L253.4466796875,25.534857507546743L253.80771484375,25.233319890499118L254.16875,27.84002526203792L254.16875,27.94781447251638L254.52978515625,27.664339037736248L254.89082031249998,24.24473042885463L254.89082031249998,24.20832278728486L255.25185546875002,25.881257224082944L255.25185546875002,25.85193893512089L255.612890625,26.881610639890038L255.612890625,26.938997757434848L255.97392578125,27.335843950510025L256.3349609375,24.987074343363453L256.69599609375,28.00772685805956L257.41806640625,25.19642915725709L257.41806640625,25.06791191895803L257.7791015625,24.732638164361312L257.7791015625,24.956300413608542L258.14013671875,25.118318609396614L258.14013671875,25.163147465387986L258.501171875,26.207320761680606L258.86220703125,26.65840495824814L258.86220703125,26.600967621803274L259.2232421875,25.751661340395604L259.2232421875,25.81701310475668L259.58427734375,26.676121620337177L259.58427734375,26.740372459093724L259.9453125,25.225191148122143L259.9453125,25.026733481884012L260.30634765625,25.448422646522513L260.66738281249997,26.822770003477732L260.66738281249997,26.786221253871915L261.02841796875003,26.334680489699043L261.389453125,26.314631477991746L261.389453125,26.18405031363169L261.75048828125,27.004530415932344L261.75048828125,27.093389399846398L262.1115234375,25.15673076311747L262.1115234375,25.352291293938958L262.47255859374997,26.89679902791977L262.47255859374997,26.983792662620544L262.83359375000003,25.809641536076864L262.83359375000003,25.753475586573277L263.19462890625,27.240309035778036L263.19462890625,27.275941997766495L263.5556640625,26.41013686259587L263.5556640625,26.538097802797953L263.91669921875,26.211089654763533L264.277734375,26.503765404224396L264.277734375,26.45669791698455L264.63876953125,27.00813680489858L264.63876953125,26.90915163954099L264.9998046875,26.58478334347408L264.9998046875,26.48013175328573L265.36083984375,27.51989056070645L265.36083984375,27.543443048000345L265.721875,24.479240314165757" style="fill: none;" fill="none"></path></g></g></g></g></g></g><g transform="translate(41, 178)" clip-path="url(#clip_1)"><clipPath id="clip_1"><rect width="288" height="22"></rect></clipPath><g><g><line x1="0" y1="0" x2="0" y2="5" style="visibility: inherit;" fill="rgb(0, 0, 0)" stroke="rgb(204, 204, 204)" stroke-width="1px"></line><line x1="36.103515625" y1="0" x2="36.103515625" y2="5" style="visibility: inherit;" fill="rgb(0, 0, 0)" stroke="rgb(204, 204, 204)" stroke-width="1px"></line><line x1="72.20703125" y1="0" x2="72.20703125" y2="5" style="visibility: inherit;" fill="rgb(0, 0, 0)" stroke="rgb(204, 204, 204)" stroke-width="1px"></line><line x1="108.310546875" y1="0" x2="108.310546875" y2="5" style="visibility: inherit;" fill="rgb(0, 0, 0)" stroke="rgb(204, 204, 204)" stroke-width="1px"></line><line x1="144.4140625" y1="0" x2="144.4140625" y2="5" style="visibility: inherit;" fill="rgb(0, 0, 0)" stroke="rgb(204, 204, 204)" stroke-width="1px"></line><line x1="180.517578125" y1="0" x2="180.517578125" y2="5" style="visibility: inherit;" fill="rgb(0, 0, 0)" stroke="rgb(204, 204, 204)" stroke-width="1px"></line><line x1="216.62109375" y1="0" x2="216.62109375" y2="5" style="visibility: inherit;" fill="rgb(0, 0, 0)" stroke="rgb(204, 204, 204)" stroke-width="1px"></line><line x1="252.724609375" y1="0" x2="252.724609375" y2="5" style="visibility: inherit;" fill="rgb(0, 0, 0)" stroke="rgb(204, 204, 204)" stroke-width="1px"></line><line x1="288.828125" y1="0" x2="288.828125" y2="5" style="visibility: inherit;" fill="rgb(0, 0, 0)" stroke="rgb(204, 204, 204)" stroke-width="1px"></line></g><g transform="translate(0, 8)"><text x="0" y="0" dx="0em" dy="0.95em" style="text-anchor: middle; visibility: hidden; font-family: Roboto, sans-serif; font-size: 12px; font-weight: 200;" fill="rgb(50, 49, 63)" stroke="none" stroke-width="1px">-2k</text><text x="36.103515625" y="0" dx="0em" dy="0.95em" style="text-anchor: middle; visibility: inherit; font-family: Roboto, sans-serif; font-size: 12px; font-weight: 200;" fill="rgb(50, 49, 63)" stroke="none" stroke-width="1px">0</text><text x="72.20703125" y="0" dx="0em" dy="0.95em" style="text-anchor: middle; visibility: inherit; font-family: Roboto, sans-serif; font-size: 12px; font-weight: 200;" fill="rgb(50, 49, 63)" stroke="none" stroke-width="1px">2k</text><text x="108.310546875" y="0" dx="0em" dy="0.95em" style="text-anchor: middle; visibility: inherit; font-family: Roboto, sans-serif; font-size: 12px; font-weight: 200;" fill="rgb(50, 49, 63)" stroke="none" stroke-width="1px">4k</text><text x="144.4140625" y="0" dx="0em" dy="0.95em" style="text-anchor: middle; visibility: inherit; font-family: Roboto, sans-serif; font-size: 12px; font-weight: 200;" fill="rgb(50, 49, 63)" stroke="none" stroke-width="1px">6k</text><text x="180.517578125" y="0" dx="0em" dy="0.95em" style="text-anchor: middle; visibility: inherit; font-family: Roboto, sans-serif; font-size: 12px; font-weight: 200;" fill="rgb(50, 49, 63)" stroke="none" stroke-width="1px">8k</text><text x="216.62109375" y="0" dx="0em" dy="0.95em" style="text-anchor: middle; visibility: inherit; font-family: Roboto, sans-serif; font-size: 12px; font-weight: 200;" fill="rgb(50, 49, 63)" stroke="none" stroke-width="1px">10k</text><text x="252.724609375" y="0" dx="0em" dy="0.95em" style="text-anchor: middle; visibility: inherit; font-family: Roboto, sans-serif; font-size: 12px; font-weight: 200;" fill="rgb(50, 49, 63)" stroke="none" stroke-width="1px">12k</text><text x="288.828125" y="0" dx="0em" dy="0.95em" style="text-anchor: middle; visibility: hidden; font-family: Roboto, sans-serif; font-size: 12px; font-weight: 200;" fill="rgb(50, 49, 63)" stroke="none" stroke-width="1px">14k</text></g><line x1="0" y1="0" x2="288.828125" y2="0" fill="rgb(0, 0, 0)" stroke="rgb(204, 204, 204)" stroke-width="1px"></line></g></g></g></g></svg>