<svg viewBox="0 0 330 200" xmlns="http://www.w3.org/2000/svg"><g><g><g><g><g><line x1="30" y1="178" x2="25" y2="178" style="visibility: inherit;" fill="rgb(0, 0, 0)" stroke="rgb(204, 204, 204)" stroke-width="1px"></line><line x1="30" y1="161.8181818181818" x2="25" y2="161.8181818181818" style="visibility: inherit;" fill="rgb(0, 0, 0)" stroke="rgb(204, 204, 204)" stroke-width="1px"></line><line x1="30" y1="145.63636363636363" x2="25" y2="145.63636363636363" style="visibility: inherit;" fill="rgb(0, 0, 0)" stroke="rgb(204, 204, 204)" stroke-width="1px"></line><line x1="30" y1="129.45454545454547" x2="25" y2="129.45454545454547" style="visibility: inherit;" fill="rgb(0, 0, 0)" stroke="rgb(204, 204, 204)" stroke-width="1px"></line><line x1="30" y1="113.27272727272727" x2="25" y2="113.27272727272727" style="visibility: inherit;" fill="rgb(0, 0, 0)" stroke="rgb(204, 204, 204)" stroke-width="1px"></line><line x1="30" y1="97.09090909090908" x2="25" y2="97.09090909090908" style="visibility: inherit;" fill="rgb(0, 0, 0)" stroke="rgb(204, 204, 204)" stroke-width="1px"></line><line x1="30" y1="80.90909090909092" x2="25" y2="80.90909090909092" style="visibility: inherit;" fill="rgb(0, 0, 0)" stroke="rgb(204, 204, 204)" stroke-width="1px"></line><line x1="30" y1="64.72727272727273" x2="25" y2="64.72727272727273" style="visibility: inherit;" fill="rgb(0, 0, 0)" stroke="rgb(204, 204, 204)" stroke-width="1px"></line><line x1="30" y1="48.54545454545454" x2="25" y2="48.54545454545454" style="visibility: inherit;" fill="rgb(0, 0, 0)" stroke="rgb(204, 204, 204)" stroke-width="1px"></line><line x1="30" y1="32.36363636363635" x2="25" y2="32.36363636363635" style="visibility: inherit;" fill="rgb(0, 0, 0)" stroke="rgb(204, 204, 204)" stroke-width="1px"></line><line x1="30" y1="16.181818181818187" x2="25" y2="16.181818181818187" style="visibility: inherit;" fill="rgb(0, 0, 0)" stroke="rgb(204, 204, 204)" stroke-width="1px"></line><line x1="30" y1="0" x2="25" y2="0" style="visibility: inherit;" fill="rgb(0, 0, 0)" stroke="rgb(204, 204, 204)" stroke-width="1px"></line></g><g transform="translate(20, 0)"><text x="0" y="178" dx="0em" dy="0.3em" style="text-anchor: end; visibility: hidden; font-family: Roboto, sans-serif; font-size: 12px; font-weight: 200;" fill="rgb(50, 49, 63)" stroke="none" stroke-width="1px">-5</text><text x="0" y="161.8181818181818" dx="0em" dy="0.3em" style="text-anchor: end; visibility: inherit; font-family: Roboto, sans-serif; font-size: 12px; font-weight: 200;" fill="rgb(50, 49, 63)" stroke="none" stroke-width="1px">0</text><text x="0" y="145.63636363636363" dx="0em" dy="0.3em" style="text-anchor: end; visibility: hidden; font-family: Roboto, sans-serif; font-size: 12px; font-weight: 200;" fill="rgb(50, 49, 63)" stroke="none" stroke-width="1px">5</text><text x="0" y="129.45454545454547" dx="0em" dy="0.3em" style="text-anchor: end; visibility: inherit; font-family: Roboto, sans-serif; font-size: 12px; font-weight: 200;" fill="rgb(50, 49, 63)" stroke="none" stroke-width="1px">10</text><text x="0" y="113.27272727272727" dx="0em" dy="0.3em" style="text-anchor: end; visibility: hidden; font-family: Roboto, sans-serif; font-size: 12px; font-weight: 200;" fill="rgb(50, 49, 63)" stroke="none" stroke-width="1px">15</text><text x="0" y="97.09090909090908" dx="0em" dy="0.3em" style="text-anchor: end; visibility: inherit; font-family: Roboto, sans-serif; font-size: 12px; font-weight: 200;" fill="rgb(50, 49, 63)" stroke="none" stroke-width="1px">20</text><text x="0" y="80.90909090909092" dx="0em" dy="0.3em" style="text-anchor: end; visibility: hidden; font-family: Roboto, sans-serif; font-size: 12px; font-weight: 200;" fill="rgb(50, 49, 63)" stroke="none" stroke-width="1px">25</text><text x="0" y="64.72727272727273" dx="0em" dy="0.3em" style="text-anchor: end; visibility: inherit; font-family: Roboto, sans-serif; font-size: 12px; font-weight: 200;" fill="rgb(50, 49, 63)" stroke="none" stroke-width="1px">30</text><text x="0" y="48.54545454545454" dx="0em" dy="0.3em" style="text-anchor: end; visibility: hidden; font-family: Roboto, sans-serif; font-size: 12px; font-weight: 200;" fill="rgb(50, 49, 63)" stroke="none" stroke-width="1px">35</text><text x="0" y="32.36363636363635" dx="0em" dy="0.3em" style="text-anchor: end; visibility: inherit; font-family: Roboto, sans-serif; font-size: 12px; font-weight: 200;" fill="rgb(50, 49, 63)" stroke="none" stroke-width="1px">40</text><text x="0" y="16.181818181818187" dx="0em" dy="0.3em" style="text-anchor: end; visibility: hidden; font-family: Roboto, sans-serif; font-size: 12px; font-weight: 200;" fill="rgb(50, 49, 63)" stroke="none" stroke-width="1px">45</text><text x="0" y="0" dx="0em" dy="0.3em" style="text-anchor: end; visibility: hidden; font-family: Roboto, sans-serif; font-size: 12px; font-weight: 200;" fill="rgb(50, 49, 63)" stroke="none" stroke-width="1px">50</text></g><line x1="30" y1="0" x2="30" y2="178" fill="rgb(0, 0, 0)" stroke="rgb(204, 204, 204)" stroke-width="1px"></line></g></g><g transform="translate(30, 0)" clip-path="url(#clip_0)"><clipPath id="clip_0"><rect width="300" height="178"></rect></clipPath><g><g><g><line x1="0" y1="0" x2="0" y2="178" fill="rgb(0, 0, 0)" stroke="rgb(60, 60, 60)" stroke-width="1px" opacity="0.25"></line><line x1="25" y1="0" x2="25" y2="178" fill="rgb(0, 0, 0)" stroke="rgb(60, 60, 60)" stroke-width="1px" opacity="0.25"></line><line x1="50" y1="0" x2="50" y2="178" fill="rgb(0, 0, 0)" stroke="rgb(60, 60, 60)" stroke-width="1px" opacity="0.25"></line><line x1="75" y1="0" x2="75" y2="178" fill="rgb(0, 0, 0)" stroke="rgb(60, 60, 60)" stroke-width="1px" opacity="0.25"></line><line x1="100" y1="0" x2="100" y2="178" fill="rgb(0, 0, 0)" stroke="rgb(60, 60, 60)" stroke-width="1px" opacity="0.25"></line><line x1="125" y1="0" x2="125" y2="178" fill="rgb(0, 0, 0)" stroke="rgb(60, 60, 60)" stroke-width="1px" opacity="0.25"></line><line x1="150" y1="0" x2="150" y2="178" fill="rgb(0, 0, 0)" stroke="rgb(60, 60, 60)" stroke-width="1px" opacity="0.25"></line><line x1="175" y1="0" x2="175" y2="178" fill="rgb(0, 0, 0)" stroke="rgb(60, 60, 60)" stroke-width="1px" opacity="0.25"></line><line x1="200" y1="0" x2="200" y2="178" fill="rgb(0, 0, 0)" stroke="rgb(60, 60, 60)" stroke-width="1px" opacity="0.25"></line><line x1="225" y1="0" x2="225" y2="178" fill="rgb(0, 0, 0)" stroke="rgb(60, 60, 60)" stroke-width="1px" opacity="0.25"></line><line x1="250" y1="0" x2="250" y2="178" fill="rgb(0, 0, 0)" stroke="rgb(60, 60, 60)" stroke-width="1px" opacity="0.25"></line><line x1="275" y1="0" x2="275" y2="178" fill="rgb(0, 0, 0)" stroke="rgb(60, 60, 60)" stroke-width="1px" opacity="0.25"></line><line x1="300" y1="0" x2="300" y2="178" fill="rgb(0, 0, 0)" stroke="rgb(60, 60, 60)" stroke-width="1px" opacity="0.25"></line></g><g><line x1="0" y1="178" x2="300" y2="178" fill="rgb(0, 0, 0)" stroke="rgb(60, 60, 60)" stroke-width="1px" opacity="0.25"></line><line x1="0" y1="161.8181818181818" x2="300" y2="161.8181818181818" fill="rgb(0, 0, 0)" stroke="rgb(60, 60, 60)" stroke-width="1px" opacity="0.25"></line><line x1="0" y1="145.63636363636363" x2="300" y2="145.63636363636363" fill="rgb(0, 0, 0)" stroke="rgb(60, 60, 60)" stroke-width="1px" opacity="0.25"></line><line x1="0" y1="129.45454545454547" x2="300" y2="129.45454545454547" fill="rgb(0, 0, 0)" stroke="rgb(60, 60, 60)" stroke-width="1px" opacity="0.25"></line><line x1="0" y1="113.27272727272727" x2="300" y2="113.27272727272727" fill="rgb(0, 0, 0)" stroke="rgb(60, 60, 60)" stroke-width="1px" opacity="0.25"></line><line x1="0" y1="97.09090909090908" x2="300" y2="97.09090909090908" fill="rgb(0, 0, 0)" stroke="rgb(60, 60, 60)" stroke-width="1px" opacity="0.25"></line><line x1="0" y1="80.90909090909092" x2="300" y2="80.90909090909092" fill="rgb(0, 0, 0)" stroke="rgb(60, 60, 60)" stroke-width="1px" opacity="0.25"></line><line x1="0" y1="64.72727272727273" x2="300" y2="64.72727272727273" fill="rgb(0, 0, 0)" stroke="rgb(60, 60, 60)" stroke-width="1px" opacity="0.25"></line><line x1="0" y1="48.54545454545454" x2="300" y2="48.54545454545454" fill="rgb(0, 0, 0)" stroke="rgb(60, 60, 60)" stroke-width="1px" opacity="0.25"></line><line x1="0" y1="32.36363636363635" x2="300" y2="32.36363636363635" fill="rgb(0, 0, 0)" stroke="rgb(60, 60, 60)" stroke-width="1px" opacity="0.25"></line><line x1="0" y1="16.181818181818187" x2="300" y2="16.181818181818187" fill="rgb(0, 0, 0)" stroke="rgb(60, 60, 60)" stroke-width="1px" opacity="0.25"></line><line x1="0" y1="0" x2="300" y2="0" fill="rgb(0, 0, 0)" stroke="rgb(60, 60, 60)" stroke-width="1px" opacity="0.25"></line></g></g></g><g><g><line x1="0" y1="161.8181818181818" x2="300" y2="161.8181818181818" fill="rgb(0, 0, 0)" stroke="rgb(153, 153, 153)" stroke-width="1.5px"></line></g></g><g><g><line x1="25" y1="0" x2="25" y2="178" fill="rgb(0, 0, 0)" stroke="rgb(153, 153, 153)" stroke-width="1.5px"></line></g></g><g><g><g><g><g><path stroke="rgb(255, 112, 67)" stroke-width="2px" d="M30.25,161.78931882588023L30.6875,161.80724566057987L31.125,161.81280926578276L31.5625,161.81526247340832L32,161.81651515197788L32.4375,161.8171923059371L32.875,161.81754572738754L33.3125,161.81772533674805L33.75,161.81780122905835L34.1875,161.81781526619247L34.625,161.81774459795577L35.0625,161.8176932608079L35.5,161.81752492835784L35.9375,161.81737230660758L36.375,161.8171715868536L36.8125,161.8170575777148L37.25,161.81683474001653L37.68749999999999,161.8162776716008L38.125,161.81632572047158L38.5625,161.81525489585565L39,161.81499153465958L39.4375,161.8147244420884L39.875,161.8150162589927L40.3125,161.81486659200175L40.75,161.81369801666108L41.1875,161.81292305351252L41.62500000000001,161.81201698470338L42.0625,161.8117308542789L42.5,161.81020404478204L42.9375,161.80941897962265L43.375,161.8068109279305L43.81249999999999,161.80263693531631L44.25,161.79457641137878L44.6875,161.77816562346865L45.125,161.7748171617272L45.5625,161.76133443876205L46,161.74580145498712L46.4375,161.73826427499L46.875,161.72181343098518L47.3125,161.68302602511358L47.75,161.64988413545748L48.1875,161.6376275451698L48.625,161.58197379559783L49.0625,161.51978810870415L49.5,161.4980276798537L49.93750000000001,161.46780076399872L50.375,161.34811401243724L50.8125,161.39863690920038L51.25,161.24223362936598L51.6875,161.15076640458156L52.12499999999999,161.15020463885165L52.5625,158.88380614401106L53,158.56569535813128L53.4375,158.8679338603106L53.875,159.30656326574524L54.3125,158.75021591424206L54.75,159.05554407435764L55.1875,158.8363444475581L55.625,156.5447455563909L56.06250000000001,155.92535831530756L56.5,156.819445493654L56.9375,157.3660251716696L57.375,158.19821196458096L57.8125,157.57199781064276L58.24999999999999,155.36798803186684L58.6875,155.08671201550905L59.125,154.66925274183717L59.5625,154.1768600945874L60,153.96756541629944L60.4375,153.64946161514166L60.875,153.93706186579686L61.3125,153.30590521099202L61.75,153.31839178368307L62.18750000000001,151.281577631134L62.625,153.49491931261153L63.0625,152.73928837747835L63.5,153.73386291226805L63.9375,152.22674318182015L64.375,151.6111257229626L64.8125,151.18610092649774L65.25,150.9958151114795L65.6875,148.6337061495182L66.125,149.2028271026859L66.5625,148.37446417126841L67,144.54166123674764L67.4375,136.7902967575848L67.875,132.7383159607121L68.3125,134.57726599077827L68.75,140.0460552925982L69.1875,142.4078521669252L69.625,144.3221713221278L70.0625,143.45941770444276L70.5,145.7734121097595L70.9375,147.14446606412898L71.375,146.99917516487787L71.8125,146.80486978398528L72.25,144.12184947576006L72.6875,141.7488429326928L73.125,144.71233433794043L73.5625,146.76529768153844L74,133.21266988921872L74.4375,135.26571947753203L74.875,133.08526301309058L75.3125,133.83255115724177L75.75,139.1404294023418L76.1875,139.52970565332356L76.625,138.17693173771946L77.0625,139.76802578207813L77.50000000000001,138.02201598915545L77.9375,137.48142835875205L78.375,139.9547746372106L78.8125,138.00287568542473L79.25,139.8528845590376L79.6875,137.1073234284046L80.125,136.06126909865765L80.5625,136.15977818421456L81,133.98999904609337L81.4375,134.41054235479115L81.87499999999999,133.6934864180682L82.3125,132.2755325607353L82.75,131.1006880778119L83.1875,132.97745250289276L83.625,129.0194360347612L84.0625,130.53262427011543L84.5,136.67415699143493L84.9375,135.43102026796998L85.375,135.30573180078554L85.81250000000001,136.3604125204682L86.25,136.3311123402173L86.6875,136.2718795318159L87.125,22.901675193343806L87.5625,67.19598690256079L88,93.69055248533085L88.4375,67.89308765020066L88.875,96.50551573848021L89.3125,108.85786501004927L89.75000000000001,117.09074703226356L90.18749999999999,122.6662970574707L90.625,131.3776148711124L91.0625,131.1560864397573L91.5,133.21207535351166L91.9375,133.3625910872402L92.375,125.1613569899906L92.8125,125.64766628639047L93.25,126.28951923871993L93.6875,126.26579787746047L94.12499999999999,128.79044334550596L94.5625,132.21140725236526L95,137.4627045795242L95.4375,140.52846028183873L95.875,140.66047583424216L96.3125,141.13495526012227L96.75,141.18432864701796L97.1875,142.4352724187572L97.625,140.91322175092586L98.06250000000001,140.1772380127137L98.5,141.92517720260338L98.9375,145.79485636872556L99.375,144.94401354851914L99.8125,145.5399065879738L100.25,142.7677404782193L100.6875,141.5033559887582L101.125,142.89517796786652L101.5625,133.72510144291806L102.00000000000001,131.3904755718943L102.43749999999999,132.4661063825098L102.875,130.7842917092555L103.3125,123.45149991624491L103.75,122.95877491368071L104.1875,103.50757806965728L104.625,16.94459256267505L105.0625,2.148711048524789L105.5,-95.35523060188656L108.5625,-4.548628553137272L109,30.7774754504596L109.4375,60.840433967452604L109.875,75.58914144514665L110.31250000000001,76.51228738506562L110.75,79.68529071606243L111.1875,96.56097208422288L111.625,96.00156235986434L112.0625,106.3532103928806L112.5,112.21481949633738L112.9375,105.00539210840257L113.375,113.18068281642205L113.8125,114.67968402068597L114.25,121.97174860876721L114.68749999999999,127.46438491965488L115.125,132.80163605932577L115.5625,138.38177956622621L116,138.82467979750828L116.4375,141.0530876164977L116.875,143.1078202406861L117.3125,142.9485693749692L117.75,143.10934311729108L118.1875,147.36938879814784L118.62500000000001,146.9176004433618L119.0625,146.71183643484034L119.5,146.5044886753684L119.9375,148.58309779894884L120.375,148.87154684243305L120.8125,148.61252992042344L121.25,149.3413401055189L121.6875,150.67294599363137L122.125,149.45830082288558L122.56250000000001,149.0736199507404L122.99999999999999,149.77155824738293L123.4375,150.44777481437436L123.875,149.17429605456255L124.3125,150.21347559444075L124.75,150.6551363217135L125.1875,149.21091494094404L125.625,150.269654523482L126.0625,149.11098214640677L126.5,148.72490512674455L126.93749999999999,149.85215318332988L127.375,149.75463290856084L127.8125,150.09593160407314L128.25,152.1001868553716L128.6875,150.2968001791853L129.125,149.74379456562997L129.5625,150.1025141647486L130,150.7677712607455L130.4375,151.73322279631435L130.875,151.92690515841826L131.3125,152.18929995470893L131.75,145.4627964756219L132.1875,146.10257094900504L132.625,146.65055814862666L133.0625,147.48837736687042L133.5,145.9107036509572L133.9375,145.32860020931767L134.375,146.02114207305598L134.8125,141.7259929054103L135.25,145.3386355887995L135.6875,146.93262202849496L136.125,143.43168545658784L136.5625,146.77561236481742L137,147.3055615523022L137.4375,147.4013156342733L137.875,144.72990232473344L138.3125,148.5874772294126L138.75,150.46607037057328L139.1875,152.02933237876042L139.625,152.96176671352222L140.0625,149.42407001291002L140.5,150.49276260114647L140.9375,151.49109741955795L141.375,152.09108905684286L141.8125,151.43473395542918L142.25,152.5591438247956L142.6875,153.33264307269275L143.125,154.21715838008416L143.5625,153.51425531843913L144,152.1757043820813L144.4375,152.3246414486069L144.875,153.21218095681064L145.3125,152.52622567863406L145.75,153.36127084849235L146.1875,153.38211781693454L146.625,154.28546921255509L147.0625,154.22280354665926L147.5,153.67218000424955L147.9375,154.4661252345083L148.375,154.94189931381734L148.8125,155.35361847428783L149.25,155.57387729115447L149.6875,155.02745134694945L150.125,155.37473332280422L150.5625,154.57987394795612L151,155.43026445319637L151.4375,155.75366932463336L151.875,155.4700589798952L152.3125,155.71545233192072L152.75,156.27983247869787L153.1875,154.86263261446592L153.625,153.7502325380399L154.0625,153.0913215518545L154.5,152.44394115429606L154.9375,153.72532449572537L155.375,154.696006700831L155.8125,152.28197655828492L156.25,152.04219727779986L156.6875,151.41904556866191L157.12500000000003,149.8320274416277L157.56250000000003,151.31593286026805L157.99999999999997,151.3181400106832L158.4375,153.60868487331723L158.875,154.17748957444755L159.3125,154.8725561482607L159.75,155.33638153732846L160.1875,155.89686259577022L160.625,155.18072409502093L161.0625,151.5123887652623L161.5,150.7418788379926L161.9375,150.84248433834577L162.375,146.97319157513104L162.8125,147.08224483593668L163.25,144.29837271111012L163.6875,144.83270673074767L164.125,142.95885546017934L164.5625,138.74101580462766L165,144.02742915093955L165.43750000000003,149.0274937842871L165.87499999999997,152.09167381525276L166.31249999999997,154.12061097687084L166.75,153.99556999202292L167.1875,153.8085176190208L167.625,154.6568726979883L168.0625,155.25853764834787L168.5,153.2562424870245L168.9375,154.43042872564922L169.375,154.5595741590512L169.8125,155.07235766154622L170.25,156.01793145684925L170.6875,156.6666264940575L171.125,157.51397568801332L171.5625,155.4376308934321L172,155.58138265274184L172.4375,155.7107714476826L172.875,154.4065089397488L173.3125,153.03275062377583L173.75000000000003,154.4465146879113L174.18749999999997,155.6190803270845L174.625,154.75845208099966L175.0625,154.41896130000805L175.5,154.22265298350715L175.9375,154.9402783388575L176.375,154.75437898950946L176.8125,154.73450254282565L177.25,154.94881836224326L177.6875,155.4750611405676L178.125,155.33057940825634L178.5625,153.56737273317736L179,149.42524025700513L179.4375,80.33638133682025L179.875,97.11487180690838L180.3125,118.08895191632055L180.75,110.09795680431114L181.1875,123.9577329962164L181.625,-441.6533493713043L187.75,-45.21214653602615L188.1875,28.69909529454865L188.625,78.22477684489213L189.0625,107.95398739488806L189.5,111.46236261293603L189.93750000000003,118.68203340693952L190.37500000000003,127.47234272066629L190.81249999999997,137.1981181325385L191.25,143.62900180686907L191.6875,139.26020549696324L192.125,146.22124214507124L192.5625,125.73855616683679L193,76.6151006967285L193.4375,101.58089059187631L193.875,105.98658919243937L194.3125,68.61006530967524L194.75,13.97195249368868L195.1875,53.26229335290265L195.625,47.65749275534956L196.0625,64.98432966532798L196.5,78.76197896929624L196.9375,90.62174404439733L197.375,96.28296538859686L197.8125,91.92447244826819L198.25000000000003,114.38860596263545L198.68749999999997,122.91029930867147L199.12499999999997,131.4628732899814L199.5625,137.23078849369764L200,141.73684341593184L200.4375,144.99699303741863L200.875,146.10513427820626L201.3125,148.73272343149782L201.75,150.48816094072353L202.1875,151.08415948932202L202.625,147.76014714123613L203.0625,149.43439558218822L203.5,148.64253992610625L203.9375,146.3853240516554L204.375,146.71065631592532L204.8125,147.92011870965462L205.25,148.27920769207918L205.6875,147.48915241592888L206.125,146.3415611919335L206.56250000000003,148.23532479818456L206.99999999999997,149.15032957379043L207.4375,148.8602271659939L207.875,148.98843375651106L208.3125,150.1802231560451L208.75,148.79159098729937L209.1875,145.15936096999857L209.625,144.5407513725931L210.0625,143.05055903472638L210.5,141.55366497877483L210.9375,137.9687154889517L211.375,139.18889474719515L211.8125,140.65765330311777L212.25,140.5352022502034L212.6875,141.2038098100386L213.125,143.75035538564586L213.5625,143.20256504080245L214,144.30869323951387L214.4375,146.3343520985767L214.87500000000003,145.08365934791334L215.31249999999997,143.360500645813L215.75,144.1014510749656L216.1875,143.8513668607997L216.625,144.47150208724952L217.0625,143.80517622682592L217.5,144.24511314770555L217.9375,145.88232366060709L218.375,145.01413970057013L218.8125,143.19734373910984L219.25,142.24760768167613L219.6875,139.00855494048204L220.125,138.81710709093164L220.5625,136.13138584491318L221,137.57685030577605L221.4375,140.81706807475646L221.875,143.02422735608434L222.3125,140.6140898582529L222.75000000000003,142.58613496741978L223.18750000000003,145.14515979015533L223.62499999999997,146.01917286578134L224.0625,145.07497873528243L224.5,143.83101405363618L224.9375,141.93923629667256L225.375,141.60061665426863L225.8125,143.47883604730418L226.25,140.3352927533159L226.6875,138.4111653314995L227.125,139.92403824641835L227.5625,142.18695963830288L228,139.83784684371727L228.4375,139.9203090500558L228.875,143.46795331472143L229.3125,139.45832001240353L229.75,136.40313025484537L230.1875,139.892782354068L230.625,143.44608418100657L231.06250000000003,144.28528649909356L231.49999999999997,144.98204167817596L231.93749999999997,144.3062813090629L232.375,145.7094215425622L232.8125,133.40456606973564L233.25,110.19328965182898L233.6875,120.27084094253114L234.125,118.06898273990167L234.5625,116.4474451637386L235,109.81660233550348L235.4375,108.11981794094164L235.875,119.97557984731756L236.3125,120.13181135110628L236.75,126.19842536990114L237.1875,129.61540735872603L237.625,131.6459273070813L238.0625,133.25075993926922L238.5,138.6045943760371L238.9375,140.48552715701655L239.37500000000003,141.75057091623586L239.81249999999997,143.84010270238488L240.25,144.81057205428115L240.6875,144.75918595190686L241.125,146.96472719309236L241.5625,147.69964188281654L242,147.61278529892377L242.4375,147.90016891134334L242.875,147.2303937884342L243.3125,147.02275571830643L243.75,148.01559296525787L244.1875,147.170108613128L244.625,144.23438415702364L245.0625,144.11519439802277L245.5,145.17147692379234L245.9375,146.5343998677653L246.375,147.73870547033624L246.8125,148.68260919570383L247.25,150.29618255025366L247.68750000000003,132.75000006859324L248.12499999999997,137.30433352337806L248.5625,140.27318490711767L249,142.2565357472935L249.4375,141.44710182390878L249.875,142.3335564906299L250.3125,141.73008718861175L250.75,142.37438341363094L251.1875,135.99051555732274L251.625,142.14481351599542L252.0625,139.0949311144135L252.5,138.39869314907244L252.9375,142.13270550514395L253.375,142.9859163328715L253.8125,146.49947923753365L254.25,140.3834022114877L254.6875,141.13891449999943L255.125,144.2150709942002L255.56250000000003,146.2744561998693L256,148.12177374197745L256.4375,148.43158421894137L256.875,148.55848993094534L257.3125,146.0967353256992L257.75,148.8646758694918L258.1875,148.92920788209105L258.625,148.34456807531288L259.0625,149.67877317023874L259.5,149.66125033014396L259.9375,150.7612875411983L260.375,151.44681093525253L260.8125,151.51654159488731L261.25,152.02262454189332L261.6875,150.75100260655023L262.125,152.97430465702539L262.5625,152.3782115978152L263,152.12437917787193L263.4375,152.654933514802L263.875,152.69948373364815L264.3125,152.12948833173053L264.75,151.8389173018504L265.1875,151.5911295233166L265.625,152.71658645672122L266.0625,152.87277347728758L266.5,151.86876231482714L266.9375,150.88119730741434L267.375,151.64836739068528L267.8125,151.73524267728672L268.25,152.60950111465615L268.6875,150.0000477382739L269.125,151.3575962532715L269.5625,151.37237370252998L270,151.98777378442304L270.4375,152.06000477816116L270.875,152.08243770285083L271.3125,152.23898251084847L271.75,153.8396930648587L272.1875,154.40575393747588L272.625,153.2708986376764L273.0625,153.2419100627328L273.5,153.3025192024235L273.9375,152.95875449062027L274.375,153.3732478732884L274.8125,152.80908538030073" style="fill: none;" fill="none"></path></g></g></g></g><g opacity="0.2"><g><g><g><path stroke="rgb(255, 112, 67)" stroke-width="2px" d="M30.25,161.78931882588023L30.6875,161.81800176139964L31.125,161.8181503267775L31.5625,161.81814744557602L32,161.81815064911828L32.4375,161.81812905363813L32.875,161.8180511257164L33.3125,161.81798720891993L33.75,161.81791315547466L34.1875,161.81783610970066L34.625,161.81763923655646L35.0625,161.81761653446065L35.5,161.81727297931738L35.9375,161.8171436729841L36.375,161.81687074316116L36.8125,161.8168866444146L37.25,161.81650057776662L37.68749999999999,161.81544221041682L38.125,161.81639778645794L38.5625,161.81364875680939L39,161.81459650730883L39.4375,161.81432381202043L39.875,161.81545397858773L40.3125,161.81464209328828L40.75,161.81194516195578L41.1875,161.8117606120946L41.62500000000001,161.81065788380803L42.0625,161.81130165908147L42.5,161.80791383194313L42.9375,161.80824138231745L43.375,161.80289885125717L43.81249999999999,161.7963759472255L44.25,161.78248562643472L44.6875,161.75354944277893L45.125,161.769794469259L45.5625,161.74111035466194L46,161.72250197956507L46.4375,161.72695850506423L46.875,161.69713716506956L47.3125,161.62484491643582L47.75,161.60017130103978L48.1875,161.61924265975304L48.625,161.4984931712801L49.0625,161.42650957839055L49.5,161.46538703658365L49.93750000000001,161.42246039022098L50.375,161.1685838851062L50.8125,161.47442125434227L51.25,161.0076287096197L51.6875,161.01356556740674L52.12499999999999,161.14936199025675L52.5625,155.4842084017667L53,158.08852917931296L53.4375,159.32129161357878L53.875,159.9645073738965L54.3125,157.91569488698786L54.75,159.5135363145308L55.1875,158.50754500735889L55.625,153.10734721964056L56.06250000000001,154.99627745368264L56.5,158.1605762611736L56.9375,158.18589468869297L57.375,159.446492153948L57.8125,156.6326765797355L58.24999999999999,152.06197336370295L58.6875,154.66479799097235L59.125,154.04306383132936L59.5625,153.4382711237127L60,153.65362339886752L60.4375,153.17230591340498L60.875,154.36846224177967L61.3125,152.35917022878473L61.75,153.3371216427196L62.18750000000001,148.22635640231047L62.625,156.81493183482777L63.0625,151.60584197477863L63.5,155.22572471445258L63.9375,149.96606358614835L64.375,150.68769953467628L64.8125,150.5485637318004L65.25,150.71038638895206L65.6875,145.09054270657626L66.125,150.05650853243742L66.5625,147.13191977414218L67,138.7924568349665L67.4375,125.16325003884054L67.875,126.66034476540304L68.3125,137.33569103587757L68.75,148.24923924532803L69.1875,145.95054747841576L69.625,147.19365005493162L70.0625,142.16528727791527L70.5,149.2444037177346L70.9375,149.20104699568316L71.375,146.7812388160012L71.8125,146.5134117126465L72.25,140.0973190134222L72.6875,138.18933311809192L73.125,149.15757144581187L73.5625,149.8447426969355L74,112.88372820073907L74.4375,138.34529386000202L74.875,129.81457831642845L75.3125,134.95348337346857L75.75,147.10224676999178L76.1875,140.11362002979627L76.625,136.1477708643133L77.0625,142.15466684861616L77.50000000000001,135.4030012997714L77.9375,136.67054691314698L78.375,143.66479405489835L78.8125,135.07502725774592L79.25,142.6278978694569L79.6875,132.98898173245516L80.125,134.49218760403718L80.5625,136.30754181254994L81,130.73533033891158L81.4375,135.0413573178378L81.87499999999999,132.61790251298385L82.3125,130.14860177473588L82.75,129.33842135342684L83.1875,135.79259914051403L83.625,123.08241133256392L84.0625,132.80240662314677L84.5,145.8864560734142L84.9375,133.56631518277254L85.375,135.11779910000888L85.81250000000001,137.94243359999223L86.25,136.28716206984086L86.6875,136.18303031921388L87.125,-147.15363131436433L87.5625,133.6374544663863L88,133.43240085948597L88.4375,29.196890397505324L88.875,139.42415787089953L89.3125,127.38638891740277L89.75000000000001,129.44007006558505L90.18749999999999,131.02962209528144L90.625,144.44459159157492L91.0625,130.82379379272462L91.5,136.29605872414328L91.9375,133.58836468783292L92.375,112.85950584411621L92.8125,126.37713023099033L93.25,127.25229866721415L93.6875,126.23021583557129L94.12499999999999,132.57741154757414L94.5625,137.34285311265424L95,145.33965057026256L95.4375,145.1270938353105L95.875,140.85849916284732L96.3125,141.84667439894244L96.75,141.2583887273615L97.1875,144.31168807636607L97.625,138.6301457491788L98.06250000000001,139.07326240539552L98.5,144.54708598743787L98.9375,151.59937511790883L99.375,143.66774931820956L99.8125,146.43374614715574L100.25,138.60949131358754L100.6875,139.60677925456653L101.125,144.98291093652898L101.5625,119.96998665549539L102.00000000000001,127.88853676535868L102.43749999999999,134.07955259843305L102.875,128.26156969937412L103.3125,112.45231222672896L103.75,122.21968740983444L104.1875,74.33078280362217L104.625,-112.8998856977983L107.25,-154.3561404141513L107.6875,61.02754232233221L108.125,-37.67556707208807L108.5625,51.955399391867886L109,83.76663145585493L109.4375,105.93487174294211L109.875,97.71220266168767L110.31250000000001,77.89700629494406L110.75,84.44479571255769L111.1875,121.87449413646351L111.625,95.16244777332653L112.0625,121.880682442405L112.5,121.00723315152256L112.9375,94.19125102650035L113.375,125.44361887845125L113.8125,116.92818582708186L114.25,132.9098454908891L114.68749999999999,135.7033393859863L115.125,140.8075127688321L115.5625,146.75199482657692L116,139.48903014443138L116.4375,144.3956993449818L116.875,146.18991917696866L117.3125,142.70969307639382L117.75,143.3505037307739L118.1875,153.75945731943304L118.62500000000001,146.23991791118274L119.0625,146.4031904220581L119.5,146.19346703616057L119.9375,151.7010114843195L120.375,149.30422040765936L120.8125,148.224004537409L121.25,150.43455538316206L121.6875,152.6703548258001L122.125,147.6363330667669L122.56250000000001,148.49659864252266L122.99999999999999,150.81846569234673L123.4375,151.46209966486148L123.875,147.26407791484485L124.3125,151.77224490425803L124.75,151.3176274126226L125.1875,147.04458286978982L125.625,151.85776389728892L126.0625,147.37297358079388L126.5,148.1457895972512L126.93749999999999,151.54302526820788L127.375,149.60835249640724L127.8125,150.60787964734163L128.25,155.10656973231923L128.6875,147.5917201649059L129.125,148.91428614529696L129.5625,150.64059356342662L130,151.76565690474078L130.4375,153.18140009966763L130.875,152.21742870157416L131.3125,152.58289214914495L131.75,135.37304125699129L132.1875,147.06223265907983L132.625,147.47253894805908L133.0625,148.74510619423606L133.5,143.54419307708739L133.9375,144.45544504685836L134.375,147.05995486866345L134.8125,135.28326915394177L135.25,150.7575996138833L135.6875,149.32360168803822L136.125,138.18028059872714L136.5625,151.79150272716174L137,148.10048533352938L137.4375,147.5449467572299L137.875,140.7227823604237L138.3125,154.37383958643133L138.75,153.28396008231422L139.1875,154.37422539104114L139.625,154.36041821566496L140.0625,144.11752496199176L140.5,152.09580148350108L140.9375,152.9885996471752L141.375,152.9910765127702L141.8125,150.45020130330866L142.25,154.2457586288452L142.6875,154.49289194453846L143.125,155.54393134117126L143.5625,152.45990072597158L144,150.1678779775446L144.4375,152.54804704839532L144.875,154.5434902191162L145.3125,151.49729276136918L145.75,154.61383860327982L146.1875,153.41338826959785L146.625,155.6404963059859L147.0625,154.12880504781552L147.5,152.846244690635L147.9375,155.65704307989643L148.375,155.65556043278087L148.8125,155.97119721499357L149.25,155.9042655164545L149.6875,154.20781243064187L150.125,155.89565628658642L150.5625,153.38758488568394L151,156.7058502110568L151.4375,156.23877663178877L151.875,155.04464346278797L152.3125,156.08354235995898L152.75,157.12640269886364L153.1875,152.73683281811802L153.625,152.08163242340086L154.0625,152.10295507257635L154.5,151.47287055795843L154.9375,155.64739950786938L155.375,156.15203000848945L155.8125,148.66093134446578L156.25,151.68252835707233L156.6875,150.48431800495496L157.12500000000003,147.45150025107642L157.56250000000003,153.54179098822854L157.99999999999997,151.32145073630593L158.4375,157.04450216726823L158.875,155.03069662614303L159.3125,155.9151560089805L159.75,156.03211962093008L160.1875,156.73758418343283L160.625,154.10651634389703L161.0625,146.00988577062432L161.5,149.58611394708808L161.9375,150.9933925888755L162.375,141.16925243030894L162.8125,147.2458247271451L163.25,140.1225645238703L163.6875,145.63420776020396L164.125,140.14807855432682L164.5625,132.41425632130017L165,151.95704917040737L165.43750000000003,156.5275907343084L165.87499999999997,156.68794386170129L166.31249999999997,157.16401671929793L166.75,153.8080085147511L167.1875,153.5279390595176L167.625,155.92940531643953L168.0625,156.1610350738872L168.5,150.2527997450395L168.9375,156.19170808358626L169.375,154.75329230915418L169.8125,155.84153291528875L170.25,157.43629214980385L170.6875,157.6396690498699L171.125,158.78499947894704L171.5625,152.3231137015603L172,155.79701029170644L172.4375,155.9048546400937L172.875,152.45011517784812L173.3125,150.97211314981635L173.75000000000003,156.5671607841145L174.18749999999997,157.3779287858443L174.625,153.46750971187245L175.0625,153.90972512852062L175.5,153.92819050875576L175.9375,156.01671637188304L176.375,154.4755299654874L176.8125,154.70468787279995L177.25,155.2702920913696L177.6875,156.26442530805414L178.125,155.1138568097895L178.5625,150.92256272055886L179,143.21204154274682L179.4375,-23.296907043457022L179.875,122.28260751204057L180.3125,149.5500720804388L180.75,98.11146413629704L181.1875,144.74739728407428L181.625,-1290.0699729225853L182.06250000000003,107.80250556252219L182.49999999999997,103.16256623701615L182.9375,-86.82546941583807L186.875,-154.29372031471945L187.3125,24.014898681640634L187.75,143.12944849187676L188.1875,139.56595804041083L188.625,152.51329917040738L189.0625,152.54780321988193L189.5,116.724925440008L189.93750000000003,129.51153959794476L190.37500000000003,140.65780669125644L190.81249999999997,151.7867812503468L191.25,153.2753273183649L191.6875,132.70701103210448L192.125,156.66279711723328L192.5625,95.0145271994851L193,2.9299174915660577L193.4375,139.02957543459806L193.875,112.59513709328391L194.3125,12.545279485529122L194.75,-67.98521673029119L195.1875,112.19780464172364L195.625,39.25029185901988L196.0625,90.97458503029563L196.5,99.42845292524858L196.9375,108.41139165704901L197.375,104.77479740489613L197.8125,85.38673303777522L198.25000000000003,148.08480623418635L198.68749999999997,135.6928393277255L199.12499999999997,144.29173426194623L199.5625,145.88266129927203L200,148.49592579928313L200.4375,149.88721746964887L200.875,147.76734613938766L201.3125,152.67410716143522L201.75,153.1213172045621L202.1875,151.9781573122198L202.625,142.77412861910733L203.0625,151.9457682436163L203.5,147.4547564419833L203.9375,142.99950023997914L204.375,147.1986547123302L204.8125,149.73431230024858L205.25,148.81784116571598L205.6875,146.30406950170342L206.125,144.62017435594038L206.56250000000003,151.07597020756114L206.99999999999997,150.52283673719927L207.4375,148.4250735542991L207.875,149.1807436422868L208.3125,151.96790725534612L208.75,146.70864273418078L209.1875,139.7110159440474L209.625,143.6128369764848L210.0625,140.81527052792634L210.5,139.30832389484752L210.9375,132.591291254217L211.375,141.01916363456033L211.8125,142.86079113700174L212.25,140.35152567083188L212.6875,142.20672114979138L213.125,147.57017374905672L213.5625,142.38087952353737L214,145.967885537581L214.4375,149.37284038717095L214.87500000000003,143.20762022191826L215.31249999999997,140.77576259266246L215.75,145.21287671869453L216.1875,143.4762405395508L216.625,145.40170492692425L217.0625,142.8056874361905L217.5,144.905018529025L217.9375,148.3381394299594L218.375,143.7118637605147L218.8125,140.47214979691938L219.25,140.82300359552556L219.6875,134.14997582869097L220.125,138.52993531660601L220.5625,132.10280397588556L221,139.74504699707032L221.4375,145.6773947282271L221.875,146.33496627807617L222.3125,136.9988836115057L222.75000000000003,145.5442026311701L223.18750000000003,148.9836970242587L223.62499999999997,147.3301924792203L224.0625,143.65868753953413L224.5,141.96506703116677L224.9375,139.10156966122713L225.375,141.09268719066273L225.8125,146.29616513685747L226.25,135.61997781233356L226.6875,135.52497419877486L227.125,142.19334761879662L227.5625,145.5813417261297L228,136.3141776518388L228.4375,140.04400235956365L228.875,148.78941971171986L229.3125,133.44387005892668L229.75,131.82034561850807L230.1875,145.12726050290195L230.625,148.77603692141446L231.06250000000003,145.54408997622403L231.49999999999997,146.02717444679953L231.93749999999997,143.29264075539328L232.375,147.81413189281116L232.8125,114.94728286049582L233.25,75.37637502496892L233.6875,135.38716787858442L234.125,114.76619543595746L234.5625,114.01513879949395L235,99.87033809315074L235.4375,105.57464134909888L235.875,137.75922270688145L236.3125,120.36615860678931L236.75,135.29834639809349L237.1875,134.74088034196333L237.625,134.69170722961425L238.0625,135.65800888755103L238.5,146.63534603118896L238.9375,143.30692632848564L239.37500000000003,143.6481365550648L239.81249999999997,146.97440038160846L240.25,146.2662760821256L240.6875,144.6821067983454L241.125,150.27303905487062L241.5625,148.80201391740277L242,147.48250042308462L242.4375,148.33124432997272L242.875,146.2257311040705L243.3125,146.7112986131148L243.75,149.50484883568504L244.1875,145.9018820849332L244.625,139.8307974728671L245.0625,143.93640975952147L245.5,146.75590071244673L245.9375,148.5787842837247L246.375,149.54516387419267L246.8125,150.09846478375522L247.25,152.71654258207843L247.68750000000003,106.43072634610262L248.12499999999997,144.1358337055553L248.5625,144.72646198272705L249,145.23156200755727L249.4375,140.23295093883166L249.875,143.66323849071156L250.3125,140.8248832355846L250.75,143.34082775115965L251.1875,126.41471377286045L251.625,151.37626045400447L252.0625,134.52010751204057L252.5,137.3543362010609L252.9375,147.73372403925117L253.375,144.26573257446287L253.8125,151.7698235945268L254.25,131.20928667241876L254.6875,142.272182932767L255.125,148.82930573550138L255.56250000000003,149.3635340083729L256,150.89275005513971L256.4375,148.8962999343872L256.875,148.7488484989513L257.3125,142.40410341783002L257.75,153.01658668518067L258.1875,149.02600590098987L258.625,147.4676083651456L259.0625,151.68008081262764L259.5,149.63496607000178L259.9375,152.41134335777977L260.375,152.4750960263339L260.8125,151.6211375843395L261.25,152.78174896240236L261.6875,148.8435697035356L262.125,156.30925773273816L262.5625,151.4840720089999L263,151.74363054795697L263.4375,153.4507650201971L263.875,152.76630906191738L264.3125,151.27449522885408L264.75,151.40306075703015L265.1875,151.2194478555159L265.625,154.40477185682818L266.0625,153.10705400813708L266.5,150.36274557113646L266.9375,149.39984979629517L267.375,152.7991225155917L267.8125,151.86555560718884L268.25,153.92088877071035L268.6875,146.0858676737005L269.125,153.39391902576793L269.5625,151.39453987641767L270,152.91087390726264L270.4375,152.1683512687683L270.875,152.11608708988535L271.3125,152.47379972284492L271.75,156.24075889587402L272.1875,155.2548452464017L272.625,151.56861568797717L273.0625,153.19842720031738L273.5,153.39343291195956L273.9375,152.44310742291538L274.375,153.99498794729058L274.8125,151.9628416408192" style="fill: none;" fill="none"></path></g></g></g></g></g><g><g opacity="0.4214"><span fill="rgb(0, 0, 0)" stroke="none" stroke-width="1px">Alt + Scroll to Zoom</span></g></g></g><g transform="translate(30, 178)" clip-path="url(#clip_1)"><clipPath id="clip_1"><rect width="300" height="22"></rect></clipPath><g><g><line x1="0" y1="0" x2="0" y2="5" style="visibility: inherit;" fill="rgb(0, 0, 0)" stroke="rgb(204, 204, 204)" stroke-width="1px"></line><line x1="25" y1="0" x2="25" y2="5" style="visibility: inherit;" fill="rgb(0, 0, 0)" stroke="rgb(204, 204, 204)" stroke-width="1px"></line><line x1="50" y1="0" x2="50" y2="5" style="visibility: inherit;" fill="rgb(0, 0, 0)" stroke="rgb(204, 204, 204)" stroke-width="1px"></line><line x1="75" y1="0" x2="75" y2="5" style="visibility: inherit;" fill="rgb(0, 0, 0)" stroke="rgb(204, 204, 204)" stroke-width="1px"></line><line x1="100" y1="0" x2="100" y2="5" style="visibility: inherit;" fill="rgb(0, 0, 0)" stroke="rgb(204, 204, 204)" stroke-width="1px"></line><line x1="125" y1="0" x2="125" y2="5" style="visibility: inherit;" fill="rgb(0, 0, 0)" stroke="rgb(204, 204, 204)" stroke-width="1px"></line><line x1="150" y1="0" x2="150" y2="5" style="visibility: inherit;" fill="rgb(0, 0, 0)" stroke="rgb(204, 204, 204)" stroke-width="1px"></line><line x1="175" y1="0" x2="175" y2="5" style="visibility: inherit;" fill="rgb(0, 0, 0)" stroke="rgb(204, 204, 204)" stroke-width="1px"></line><line x1="200" y1="0" x2="200" y2="5" style="visibility: inherit;" fill="rgb(0, 0, 0)" stroke="rgb(204, 204, 204)" stroke-width="1px"></line><line x1="225" y1="0" x2="225" y2="5" style="visibility: inherit;" fill="rgb(0, 0, 0)" stroke="rgb(204, 204, 204)" stroke-width="1px"></line><line x1="250" y1="0" x2="250" y2="5" style="visibility: inherit;" fill="rgb(0, 0, 0)" stroke="rgb(204, 204, 204)" stroke-width="1px"></line><line x1="275" y1="0" x2="275" y2="5" style="visibility: inherit;" fill="rgb(0, 0, 0)" stroke="rgb(204, 204, 204)" stroke-width="1px"></line><line x1="300" y1="0" x2="300" y2="5" style="visibility: inherit;" fill="rgb(0, 0, 0)" stroke="rgb(204, 204, 204)" stroke-width="1px"></line></g><g transform="translate(0, 8)"><text x="0" y="0" dx="0em" dy="0.95em" style="text-anchor: middle; visibility: hidden; font-family: Roboto, sans-serif; font-size: 12px; font-weight: 200;" fill="rgb(50, 49, 63)" stroke="none" stroke-width="1px">-2k</text><text x="25" y="0" dx="0em" dy="0.95em" style="text-anchor: middle; visibility: inherit; font-family: Roboto, sans-serif; font-size: 12px; font-weight: 200;" fill="rgb(50, 49, 63)" stroke="none" stroke-width="1px">0</text><text x="50" y="0" dx="0em" dy="0.95em" style="text-anchor: middle; visibility: inherit; font-family: Roboto, sans-serif; font-size: 12px; font-weight: 200;" fill="rgb(50, 49, 63)" stroke="none" stroke-width="1px">2k</text><text x="75" y="0" dx="0em" dy="0.95em" style="text-anchor: middle; visibility: inherit; font-family: Roboto, sans-serif; font-size: 12px; font-weight: 200;" fill="rgb(50, 49, 63)" stroke="none" stroke-width="1px">4k</text><text x="100" y="0" dx="0em" dy="0.95em" style="text-anchor: middle; visibility: inherit; font-family: Roboto, sans-serif; font-size: 12px; font-weight: 200;" fill="rgb(50, 49, 63)" stroke="none" stroke-width="1px">6k</text><text x="125" y="0" dx="0em" dy="0.95em" style="text-anchor: middle; visibility: inherit; font-family: Roboto, sans-serif; font-size: 12px; font-weight: 200;" fill="rgb(50, 49, 63)" stroke="none" stroke-width="1px">8k</text><text x="150" y="0" dx="0em" dy="0.95em" style="text-anchor: middle; visibility: inherit; font-family: Roboto, sans-serif; font-size: 12px; font-weight: 200;" fill="rgb(50, 49, 63)" stroke="none" stroke-width="1px">10k</text><text x="175" y="0" dx="0em" dy="0.95em" style="text-anchor: middle; visibility: inherit; font-family: Roboto, sans-serif; font-size: 12px; font-weight: 200;" fill="rgb(50, 49, 63)" stroke="none" stroke-width="1px">12k</text><text x="200" y="0" dx="0em" dy="0.95em" style="text-anchor: middle; visibility: inherit; font-family: Roboto, sans-serif; font-size: 12px; font-weight: 200;" fill="rgb(50, 49, 63)" stroke="none" stroke-width="1px">14k</text><text x="225" y="0" dx="0em" dy="0.95em" style="text-anchor: middle; visibility: inherit; font-family: Roboto, sans-serif; font-size: 12px; font-weight: 200;" fill="rgb(50, 49, 63)" stroke="none" stroke-width="1px">16k</text><text x="250" y="0" dx="0em" dy="0.95em" style="text-anchor: middle; visibility: inherit; font-family: Roboto, sans-serif; font-size: 12px; font-weight: 200;" fill="rgb(50, 49, 63)" stroke="none" stroke-width="1px">18k</text><text x="275" y="0" dx="0em" dy="0.95em" style="text-anchor: middle; visibility: inherit; font-family: Roboto, sans-serif; font-size: 12px; font-weight: 200;" fill="rgb(50, 49, 63)" stroke="none" stroke-width="1px">20k</text><text x="300" y="0" dx="0em" dy="0.95em" style="text-anchor: middle; visibility: hidden; font-family: Roboto, sans-serif; font-size: 12px; font-weight: 200;" fill="rgb(50, 49, 63)" stroke="none" stroke-width="1px">22k</text></g><line x1="0" y1="0" x2="300" y2="0" fill="rgb(0, 0, 0)" stroke="rgb(204, 204, 204)" stroke-width="1px"></line></g></g></g></g></svg>