<svg viewBox="0 0 330 200" xmlns="http://www.w3.org/2000/svg"><g><g><g><g><g><line x1="30" y1="178" x2="25" y2="178" style="visibility: inherit;" fill="rgb(0, 0, 0)" stroke="rgb(204, 204, 204)" stroke-width="1px"></line><line x1="30" y1="158.2222222222222" x2="25" y2="158.2222222222222" style="visibility: inherit;" fill="rgb(0, 0, 0)" stroke="rgb(204, 204, 204)" stroke-width="1px"></line><line x1="30" y1="138.44444444444446" x2="25" y2="138.44444444444446" style="visibility: inherit;" fill="rgb(0, 0, 0)" stroke="rgb(204, 204, 204)" stroke-width="1px"></line><line x1="30" y1="118.66666666666669" x2="25" y2="118.66666666666669" style="visibility: inherit;" fill="rgb(0, 0, 0)" stroke="rgb(204, 204, 204)" stroke-width="1px"></line><line x1="30" y1="98.8888888888889" x2="25" y2="98.8888888888889" style="visibility: inherit;" fill="rgb(0, 0, 0)" stroke="rgb(204, 204, 204)" stroke-width="1px"></line><line x1="30" y1="79.1111111111111" x2="25" y2="79.1111111111111" style="visibility: inherit;" fill="rgb(0, 0, 0)" stroke="rgb(204, 204, 204)" stroke-width="1px"></line><line x1="30" y1="59.33333333333334" x2="25" y2="59.33333333333334" style="visibility: inherit;" fill="rgb(0, 0, 0)" stroke="rgb(204, 204, 204)" stroke-width="1px"></line><line x1="30" y1="39.55555555555555" x2="25" y2="39.55555555555555" style="visibility: inherit;" fill="rgb(0, 0, 0)" stroke="rgb(204, 204, 204)" stroke-width="1px"></line><line x1="30" y1="19.777777777777786" x2="25" y2="19.777777777777786" style="visibility: inherit;" fill="rgb(0, 0, 0)" stroke="rgb(204, 204, 204)" stroke-width="1px"></line><line x1="30" y1="0" x2="25" y2="0" style="visibility: inherit;" fill="rgb(0, 0, 0)" stroke="rgb(204, 204, 204)" stroke-width="1px"></line></g><g transform="translate(20, 0)"><text x="0" y="178" dx="0em" dy="0.3em" style="text-anchor: end; visibility: hidden; font-family: Roboto, sans-serif; font-size: 12px; font-weight: 200;" fill="rgb(50, 49, 63)" stroke="none" stroke-width="1px">-4</text><text x="0" y="158.2222222222222" dx="0em" dy="0.3em" style="text-anchor: end; visibility: inherit; font-family: Roboto, sans-serif; font-size: 12px; font-weight: 200;" fill="rgb(50, 49, 63)" stroke="none" stroke-width="1px">-2</text><text x="0" y="138.44444444444446" dx="0em" dy="0.3em" style="text-anchor: end; visibility: hidden; font-family: Roboto, sans-serif; font-size: 12px; font-weight: 200;" fill="rgb(50, 49, 63)" stroke="none" stroke-width="1px">0</text><text x="0" y="118.66666666666669" dx="0em" dy="0.3em" style="text-anchor: end; visibility: inherit; font-family: Roboto, sans-serif; font-size: 12px; font-weight: 200;" fill="rgb(50, 49, 63)" stroke="none" stroke-width="1px">2</text><text x="0" y="98.8888888888889" dx="0em" dy="0.3em" style="text-anchor: end; visibility: hidden; font-family: Roboto, sans-serif; font-size: 12px; font-weight: 200;" fill="rgb(50, 49, 63)" stroke="none" stroke-width="1px">4</text><text x="0" y="79.1111111111111" dx="0em" dy="0.3em" style="text-anchor: end; visibility: inherit; font-family: Roboto, sans-serif; font-size: 12px; font-weight: 200;" fill="rgb(50, 49, 63)" stroke="none" stroke-width="1px">6</text><text x="0" y="59.33333333333334" dx="0em" dy="0.3em" style="text-anchor: end; visibility: hidden; font-family: Roboto, sans-serif; font-size: 12px; font-weight: 200;" fill="rgb(50, 49, 63)" stroke="none" stroke-width="1px">8</text><text x="0" y="39.55555555555555" dx="0em" dy="0.3em" style="text-anchor: end; visibility: inherit; font-family: Roboto, sans-serif; font-size: 12px; font-weight: 200;" fill="rgb(50, 49, 63)" stroke="none" stroke-width="1px">10</text><text x="0" y="19.777777777777786" dx="0em" dy="0.3em" style="text-anchor: end; visibility: hidden; font-family: Roboto, sans-serif; font-size: 12px; font-weight: 200;" fill="rgb(50, 49, 63)" stroke="none" stroke-width="1px">12</text><text x="0" y="0" dx="0em" dy="0.3em" style="text-anchor: end; visibility: hidden; font-family: Roboto, sans-serif; font-size: 12px; font-weight: 200;" fill="rgb(50, 49, 63)" stroke="none" stroke-width="1px">14</text></g><line x1="30" y1="0" x2="30" y2="178" fill="rgb(0, 0, 0)" stroke="rgb(204, 204, 204)" stroke-width="1px"></line></g></g><g transform="translate(30, 0)" clip-path="url(#clip_0)"><clipPath id="clip_0"><rect width="300" height="178"></rect></clipPath><g><g><g><line x1="0" y1="0" x2="0" y2="178" fill="rgb(0, 0, 0)" stroke="rgb(60, 60, 60)" stroke-width="1px" opacity="0.25"></line><line x1="23.076923076923077" y1="0" x2="23.076923076923077" y2="178" fill="rgb(0, 0, 0)" stroke="rgb(60, 60, 60)" stroke-width="1px" opacity="0.25"></line><line x1="46.15384615384615" y1="0" x2="46.15384615384615" y2="178" fill="rgb(0, 0, 0)" stroke="rgb(60, 60, 60)" stroke-width="1px" opacity="0.25"></line><line x1="69.23076923076924" y1="0" x2="69.23076923076924" y2="178" fill="rgb(0, 0, 0)" stroke="rgb(60, 60, 60)" stroke-width="1px" opacity="0.25"></line><line x1="92.3076923076923" y1="0" x2="92.3076923076923" y2="178" fill="rgb(0, 0, 0)" stroke="rgb(60, 60, 60)" stroke-width="1px" opacity="0.25"></line><line x1="115.38461538461539" y1="0" x2="115.38461538461539" y2="178" fill="rgb(0, 0, 0)" stroke="rgb(60, 60, 60)" stroke-width="1px" opacity="0.25"></line><line x1="138.46153846153848" y1="0" x2="138.46153846153848" y2="178" fill="rgb(0, 0, 0)" stroke="rgb(60, 60, 60)" stroke-width="1px" opacity="0.25"></line><line x1="161.53846153846152" y1="0" x2="161.53846153846152" y2="178" fill="rgb(0, 0, 0)" stroke="rgb(60, 60, 60)" stroke-width="1px" opacity="0.25"></line><line x1="184.6153846153846" y1="0" x2="184.6153846153846" y2="178" fill="rgb(0, 0, 0)" stroke="rgb(60, 60, 60)" stroke-width="1px" opacity="0.25"></line><line x1="207.69230769230768" y1="0" x2="207.69230769230768" y2="178" fill="rgb(0, 0, 0)" stroke="rgb(60, 60, 60)" stroke-width="1px" opacity="0.25"></line><line x1="230.76923076923077" y1="0" x2="230.76923076923077" y2="178" fill="rgb(0, 0, 0)" stroke="rgb(60, 60, 60)" stroke-width="1px" opacity="0.25"></line><line x1="253.84615384615384" y1="0" x2="253.84615384615384" y2="178" fill="rgb(0, 0, 0)" stroke="rgb(60, 60, 60)" stroke-width="1px" opacity="0.25"></line><line x1="276.92307692307696" y1="0" x2="276.92307692307696" y2="178" fill="rgb(0, 0, 0)" stroke="rgb(60, 60, 60)" stroke-width="1px" opacity="0.25"></line><line x1="300" y1="0" x2="300" y2="178" fill="rgb(0, 0, 0)" stroke="rgb(60, 60, 60)" stroke-width="1px" opacity="0.25"></line></g><g><line x1="0" y1="178" x2="300" y2="178" fill="rgb(0, 0, 0)" stroke="rgb(60, 60, 60)" stroke-width="1px" opacity="0.25"></line><line x1="0" y1="158.2222222222222" x2="300" y2="158.2222222222222" fill="rgb(0, 0, 0)" stroke="rgb(60, 60, 60)" stroke-width="1px" opacity="0.25"></line><line x1="0" y1="138.44444444444446" x2="300" y2="138.44444444444446" fill="rgb(0, 0, 0)" stroke="rgb(60, 60, 60)" stroke-width="1px" opacity="0.25"></line><line x1="0" y1="118.66666666666669" x2="300" y2="118.66666666666669" fill="rgb(0, 0, 0)" stroke="rgb(60, 60, 60)" stroke-width="1px" opacity="0.25"></line><line x1="0" y1="98.8888888888889" x2="300" y2="98.8888888888889" fill="rgb(0, 0, 0)" stroke="rgb(60, 60, 60)" stroke-width="1px" opacity="0.25"></line><line x1="0" y1="79.1111111111111" x2="300" y2="79.1111111111111" fill="rgb(0, 0, 0)" stroke="rgb(60, 60, 60)" stroke-width="1px" opacity="0.25"></line><line x1="0" y1="59.33333333333334" x2="300" y2="59.33333333333334" fill="rgb(0, 0, 0)" stroke="rgb(60, 60, 60)" stroke-width="1px" opacity="0.25"></line><line x1="0" y1="39.55555555555555" x2="300" y2="39.55555555555555" fill="rgb(0, 0, 0)" stroke="rgb(60, 60, 60)" stroke-width="1px" opacity="0.25"></line><line x1="0" y1="19.777777777777786" x2="300" y2="19.777777777777786" fill="rgb(0, 0, 0)" stroke="rgb(60, 60, 60)" stroke-width="1px" opacity="0.25"></line><line x1="0" y1="0" x2="300" y2="0" fill="rgb(0, 0, 0)" stroke="rgb(60, 60, 60)" stroke-width="1px" opacity="0.25"></line></g></g></g><g><g><line x1="0" y1="138.44444444444446" x2="300" y2="138.44444444444446" fill="rgb(0, 0, 0)" stroke="rgb(153, 153, 153)" stroke-width="1.5px"></line></g></g><g><g><line x1="23.076923076923077" y1="0" x2="23.076923076923077" y2="178" fill="rgb(0, 0, 0)" stroke="rgb(153, 153, 153)" stroke-width="1.5px"></line></g></g><g><g><g><g><g><path stroke="rgb(255, 112, 67)" stroke-width="2px" d="M24,138.4870432287248L24,138.51331299730938L24.923076923076923,138.53568830356096L24.923076923076923,138.55744949280125L25.846153846153847,138.5828303474111L25.846153846153847,138.60917277494724L26.769230769230766,138.65028701927443L26.769230769230766,138.68394238043473L27.692307692307693,138.73271567030258L27.692307692307693,138.799376597795L28.615384615384617,138.8812258767283L28.615384615384617,138.92528793331186L29.53846153846154,139.00789503349583L29.53846153846154,139.03682974352236L30.46153846153846,139.12170294593813L30.46153846153846,139.13294086594954L31.384615384615383,139.07413733463451L31.384615384615383,139.06111762760176L32.30769230769231,138.98571094149057L32.30769230769231,138.95370571668167L33.23076923076923,138.98990953491852L33.23076923076923,139.01513931894476L34.15384615384615,138.97983032293087L34.15384615384615,138.99003940339603L35.07692307692307,138.93346030414568L35.07692307692307,138.8750552847455L36,138.72133671187626L36,138.69364698392755L36.92307692307693,138.7170984979376L36.92307692307693,138.7184987259897L37.84615384615385,138.76848012581792L37.84615384615385,138.8276411640892L38.76923076923077,138.83842398350103L38.76923076923077,138.98737429119868L39.69230769230769,139.43072683701757L39.69230769230769,139.84808268302586L40.61538461538461,140.6167482843452L40.61538461538461,141.21392604197993L41.53846153846154,140.86934757246854L41.53846153846154,140.6961635151035L42.46153846153846,141.53246005169564L42.46153846153846,142.00586877430288L43.38461538461539,141.97819810408433L43.38461538461539,141.86809447583485L44.307692307692314,142.2650202609795L44.307692307692314,142.22327409107743L45.230769230769226,142.04460476985457L45.230769230769226,141.88963309682254L46.15384615384615,142.20568704195688L46.15384615384615,142.44064915729476L47.07692307692307,141.30394629668388L47.07692307692307,140.2302778706127L48,139.94496662621026L48,140.03019039222866L48.92307692307692,140.43796896504284L48.92307692307692,140.69852272808714L49.84615384615385,142.3057753200412L49.84615384615385,143.65912412534652L50.769230769230774,143.39914178873065L50.769230769230774,143.05009938228437L51.69230769230769,139.50364936758058L51.69230769230769,141.5541658403614L52.61538461538461,143.83420021281808L52.61538461538461,145.15687340532114L53.53846153846153,144.30280794190654L53.53846153846153,143.10276629751627L54.46153846153846,142.6272278997841L54.46153846153846,143.0537799316107L55.38461538461539,145.20433350309483L55.38461538461539,149.18779255757252L56.30769230769231,148.09132961186148L56.30769230769231,147.74104001374468L57.23076923076923,150.87231822296172L57.23076923076923,152.340088012058L58.15384615384615,149.59667561452562L58.15384615384615,148.79665419658608L59.07692307692308,145.04750376860648L59.07692307692308,145.3664114112875L60,146.19858146188648L60,146.45610330124822L60.92307692307692,149.04015680590018L60.92307692307692,150.40478416545437L61.84615384615385,147.2615338606101L61.84615384615385,145.84645188107856L62.76923076923077,147.28528100006642L62.76923076923077,148.13364106004488L63.69230769230769,149.19122761240632L63.69230769230769,150.15407393227633L64.61538461538461,149.9204154681203L64.61538461538461,149.47696754958451L65.53846153846153,152.27528389999335L65.53846153846153,154.35064842328867L66.46153846153847,152.05401535181798L66.46153846153847,150.20720624005622L67.38461538461539,148.50117659017934L67.38461538461539,147.70090393954482L68.3076923076923,149.29497637391466L68.3076923076923,150.2938432523697L69.23076923076924,149.26447037896716L69.23076923076924,148.51668162370444L70.15384615384615,149.40553360317978L70.15384615384615,150.0596884397755L71.07692307692308,149.42057715239002L71.07692307692308,148.91220772361547L72,149.39482683927622L72,150.8182387477274L72.92307692307692,153.3735220984289L72.92307692307692,152.11799132162346L73.84615384615385,152.33705929518152L73.84615384615385,153.37186123026984L74.76923076923077,151.9217121242432L74.76923076923077,151.25668364068224L75.6923076923077,150.78162711971547L75.6923076923077,150.56289111443488L76.61538461538461,150.36510593216497L76.61538461538461,150.36116213976536L77.53846153846153,150.27158426073706L77.53846153846153,150.27518846024915L78.46153846153847,151.9130022452067L78.46153846153847,153.28172626582858L79.38461538461539,155.86863928529468L79.38461538461539,156.69453833992986L80.3076923076923,155.69493851824691L80.3076923076923,154.75762651223397L81.23076923076923,152.29888405053225L81.23076923076923,150.80250514006326L82.15384615384616,153.3135301272746L82.15384615384616,153.72947360148748L83.07692307692308,153.4654186948382L83.07692307692308,155.88749501081435L84.00000000000001,151.9592172203787L84.00000000000001,149.94386850386823L84.92307692307692,146.57623350309643L84.92307692307692,146.35862748436517L85.84615384615384,144.1171056903147L85.84615384615384,144.86867596500906L86.76923076923077,144.35487981646864L86.76923076923077,144.20423595381212L87.6923076923077,143.436598729062L87.6923076923077,142.69712431819647L88.61538461538463,140.519119407947L88.61538461538463,139.0358842039066L89.53846153846153,139.39706905428315L89.53846153846153,139.55708807222953L90.46153846153845,140.8330435246999L90.46153846153845,141.52473218054885L91.38461538461539,140.4033083536902L91.38461538461539,139.68635823837988L92.3076923076923,142.1164572547599L92.3076923076923,144.09680595660555L93.23076923076923,144.17296667627434L93.23076923076923,144.4576892757333L94.15384615384615,146.80051996929942L94.15384615384615,147.84757716365093L95.07692307692308,149.64871467892786L95.07692307692308,150.14984467539531L96,150.12278753003815L96,150.11104323687292L96.92307692307693,146.3645978099765L96.92307692307693,144.15417658315732L97.84615384615384,144.92341484443327L97.84615384615384,145.65513076805L98.76923076923076,143.7838774308935L98.76923076923076,142.46781602480925L99.6923076923077,140.8499480981365L99.6923076923077,140.11727004159567L100.61538461538461,138.21801252112238L100.61538461538461,137.80044888689056L101.53846153846155,133.91333464059923L101.53846153846155,130.93702968323447L102.46153846153845,129.99331345245437L102.46153846153845,129.1668738939807L103.38461538461539,106.06691127198276L103.38461538461539,109.52334596752858L104.3076923076923,106.69436999583087L104.3076923076923,110.13518327594768L105.23076923076923,107.04801748798207L105.23076923076923,112.44705934753236L106.15384615384616,112.75062438042424L106.15384615384616,115.13914515556439L107.07692307692307,117.11698462289829L107.07692307692307,118.93449851638763L108,119.53048271795129L108,119.49463149821767L108.92307692307692,122.10165344095502L108.92307692307692,122.7794351191961L109.84615384615385,125.49318774345707L109.84615384615385,126.65233066229602L110.76923076923077,122.85415567751542L110.76923076923077,120.68516641998445L111.69230769230768,123.69039295467896L111.69230769230768,125.46046409155159L112.61538461538461,127.19489021983878L112.61538461538461,128.25822031960502L113.53846153846153,130.1227586641514L113.53846153846153,131.48894909336457L114.46153846153847,133.62443542998935L114.46153846153847,134.91016759653698L115.38461538461539,134.8204241988515L115.38461538461539,135.18353401672243L116.3076923076923,136.05976709356744L116.3076923076923,136.47150980080337L117.23076923076923,134.0569616210504L117.23076923076923,132.73018117791014L118.15384615384616,135.37839647724255L118.15384615384616,136.73427544987612L119.07692307692308,134.29185815030186L119.07692307692308,132.89040503923405L120,133.0594536425132L120,133.1275299102275L120.92307692307692,134.75811955261148L120.92307692307692,135.85972083366661L121.84615384615384,135.79414314350205L121.84615384615384,135.76203312005364L122.76923076923077,135.0241309919171L122.76923076923077,134.63178249507422L123.6923076923077,136.56862410093908L123.6923076923077,137.8562268029783L124.61538461538463,136.99804540806483L124.61538461538463,136.47323554953022L125.53846153846153,136.03182358728563L125.53846153846153,135.81293931714723L126.46153846153845,135.80481375323947L126.46153846153845,135.71868918578159L127.38461538461539,135.351341858283L127.38461538461539,135.05331413964285L128.30769230769232,134.6080243542318L128.30769230769232,134.24238666289858L129.23076923076923,134.20316894951418L129.23076923076923,134.18345153922942L130.15384615384616,133.4747921237389L130.15384615384616,133.11282466306525L131.07692307692307,131.4016939177037L131.07692307692307,129.83803255270115L132,127.44366304489755L132,125.84281044782205L132.92307692307693,123.90387062114412L132.92307692307693,122.68782544860404L133.84615384615384,124.17543304136228L133.84615384615384,124.9640265554438L134.76923076923077,128.0352878719717L134.76923076923077,130.09719239706033L135.69230769230768,129.92187267098697L135.69230769230768,129.95940719312088L136.6153846153846,129.15825825558167L136.6153846153846,128.72500901396708L137.53846153846155,128.7226612069744L137.53846153846155,128.9048938452326L138.46153846153848,129.01168758930172L138.46153846153848,129.0093539379389L139.3846153846154,127.81961071227099L139.3846153846154,127.04356407165989L140.3076923076923,127.17388212373797L140.3076923076923,127.25085732752648L141.23076923076923,126.36559738101636L141.23076923076923,125.80228434167879L142.15384615384616,124.83389230003834L142.15384615384616,124.11456742742189L143.0769230769231,125.7363290188887L143.0769230769231,126.83967266204363L144,127.50078716774891L144,127.82731067743632L144.92307692307693,127.44665333990294L144.92307692307693,127.16254377913232L145.84615384615384,128.08484177918288L145.84615384615384,128.70550706795817L146.76923076923077,127.6684090728943L146.76923076923077,126.99828152602555L147.6923076923077,126.78376905302919L147.6923076923077,126.76586190967194L148.6153846153846,127.73694757420213L148.6153846153846,128.3083650285572L149.53846153846155,125.4988327405925L149.53846153846155,123.85151031440284L150.46153846153845,124.26329618124966L150.46153846153845,124.51331387682706L151.3846153846154,125.34388253987865L151.3846153846154,125.53967207611225L152.3076923076923,126.88024927077399L152.3076923076923,127.7354715771671L153.23076923076923,127.28057412680495L153.23076923076923,127.03895291711791L154.15384615384616,126.41622398246206L154.15384615384616,126.02071381511945L155.07692307692307,125.10423080664471L155.07692307692307,124.72952574416954L156,121.41807558359346L156,119.13483758767102L156.92307692307693,121.78003778192526L156.92307692307693,123.23598801771676L157.84615384615387,121.19661204094282L157.84615384615387,119.70611709003404L158.76923076923077,121.54774107853756L158.76923076923077,122.69561702998591L159.69230769230768,121.4699283433815L159.69230769230768,120.58184024450343L160.6153846153846,121.91983568589849L160.6153846153846,122.81237671857983L161.53846153846152,121.5723685097517L161.53846153846152,120.32298509443066L162.46153846153845,118.03845232425687L162.46153846153845,116.64593813107213L163.3846153846154,116.88924381439699L163.3846153846154,117.31915403984873L164.30769230769232,115.7253506172008L164.30769230769232,115.37550822824079L165.23076923076923,116.86449262259309L165.23076923076923,117.65789294959515L166.15384615384616,121.13752932978515L166.15384615384616,123.25331208487061L167.0769230769231,123.61552567509635L167.0769230769231,123.7473119451274L168.00000000000003,122.21508082802444L168.00000000000003,120.92308396862491L168.9230769230769,121.84922721180578L168.9230769230769,122.29324612865138L169.84615384615384,123.54272663371007L169.84615384615384,124.42356029748L170.76923076923077,120.56982630384742L170.76923076923077,118.50875491104856L171.69230769230768,118.57021830070086L171.69230769230768,118.74243650588235L172.6153846153846,119.78456897720731L172.6153846153846,120.17746509755013L173.53846153846155,121.12250158707249L173.53846153846155,121.56915985854434L174.46153846153848,121.63949841777993L174.46153846153848,121.4887742139794L175.3846153846154,122.9786766068212L175.3846153846154,123.83313419861693L176.30769230769232,120.49027698701481L176.30769230769232,118.68282310511849L177.23076923076925,116.27957888385696L177.23076923076925,114.82258837187912L178.15384615384613,116.07873733234514L178.15384615384613,116.9346620152586L179.07692307692307,117.50643302594119L179.07692307692307,117.5773139094978L180,118.03381828772376L180,118.03988442339246L180.9230769230769,114.28490491288218L180.9230769230769,113.20439884940508L181.84615384615384,116.75347386791806L181.84615384615384,118.63066439294185L182.76923076923077,116.46221899997546L182.76923076923077,114.97068114287465L183.6923076923077,112.43800928649723L183.6923076923077,111.6456296007612L184.6153846153846,107.02404829692182L184.6153846153846,104.12943303020931L185.53846153846155,87.51459846423019L185.53846153846155,78.29034828989606L186.46153846153845,91.94224440696512L186.46153846153845,98.02175324809822L187.38461538461536,90.69844337494537L187.38461538461536,91.30850253484135L188.3076923076923,90.86802532529393L188.3076923076923,92.90299695617624L189.23076923076923,98.28197471365664L189.23076923076923,100.65266465649869L190.15384615384616,102.95811927288956L190.15384615384616,104.61043897452069L191.07692307692307,108.99357852448293L191.07692307692307,112.30084872906964L192,111.85813377035329L192,109.84064322285786L192.92307692307693,109.19710094276827L192.92307692307693,108.71216458406306L193.84615384615387,109.94879380659017L193.84615384615387,110.2976530751664L194.76923076923077,107.11534633669393L194.76923076923077,104.37670349140845L195.69230769230768,107.22617791463198L195.69230769230768,108.58031087009336L196.6153846153846,103.48948019610116L196.6153846153846,100.79195565170474L197.53846153846152,107.39397402053265L197.53846153846152,110.22808619539387L198.46153846153845,105.60342786961398L198.46153846153845,108.02036932857992L199.3846153846154,105.76914192422858L199.3846153846154,103.27493480222866L200.30769230769232,90.04710195223294L200.30769230769232,89.0876549481274L201.23076923076923,88.73924400799997L201.23076923076923,93.23959480228805L202.15384615384616,95.98890568847462L202.15384615384616,96.30755273654398L203.0769230769231,94.44143908380735L203.0769230769231,93.63132679358681L204.00000000000003,93.80049676567981L204.00000000000003,93.75109307622648L204.9230769230769,89.88625468538974L204.9230769230769,87.10557165380384L205.84615384615384,88.36235570624443L205.84615384615384,88.77410393650977L206.76923076923077,89.38107291013719L206.76923076923077,88.78298283706539L207.69230769230768,84.1015423945678L207.69230769230768,80.87796526557098L208.6153846153846,80.87076109293632L208.6153846153846,80.47660412178557L209.53846153846155,79.94568100775288L209.53846153846155,80.45100568191543L210.46153846153845,74.48891315069929L210.46153846153845,73.29072261576135L211.3846153846154,70.03038678600954L211.3846153846154,67.88968906555647L212.30769230769232,68.26921450812729L212.30769230769232,66.3312908712175L213.23076923076925,63.492653247570466L213.23076923076925,61.670831469145035L214.15384615384613,55.44550450689392L214.15384615384613,51.21451339749573L215.07692307692307,54.63045434332735L215.07692307692307,56.602367759805L216,53.64104288217423L216,52.597992767607494L216.9230769230769,50.39292965646838L216.9230769230769,49.44048369516684L217.84615384615384,45.96893829856169L217.84615384615384,44.236775695472744L218.76923076923077,46.8435645509235L218.76923076923077,48.7413931454304L219.6923076923077,50.08316138774653L219.6923076923077,51.82154507008822L220.6153846153846,50.20256805360893L220.6153846153846,49.369810527871195L221.53846153846155,47.538714811324496L221.53846153846155,46.5627744546251L222.46153846153848,48.48202146395343L222.46153846153848,49.6834019076418L223.38461538461536,47.27780610498006L223.38461538461536,44.995727920258005L224.3076923076923,42.4399569361419L224.3076923076923,41.68794758426543L225.23076923076923,40.56489325216517L225.23076923076923,39.01211956200331L226.15384615384616,39.97323539754814L226.15384615384616,41.01984063394175L227.07692307692307,39.14903579583813L227.07692307692307,38.33324938209815L228,38.49304519675022L228,38.41553214870333L228.92307692307693,35.64180891324544L228.92307692307693,36.278172099249346L229.84615384615387,35.76317947923546L229.84615384615387,35.25705421260639L230.76923076923077,31.25750189266258L230.76923076923077,27.36935963576031L231.6923076923077,32.26010421190324L231.6923076923077,34.20246314834418L232.6153846153846,30.873553847258474L232.6153846153846,31.04730947645949L233.53846153846152,32.8897535684983L233.53846153846152,31.85468962821377L234.46153846153845,28.08662282844195L234.46153846153845,26.098543521283908L235.3846153846154,28.456618246016873L235.3846153846154,30.49170657722168L236.30769230769232,27.01143685086046L236.30769230769232,25.28013947800217L237.23076923076923,27.498424051045554L237.23076923076923,31.853445867734006L238.15384615384616,29.06152087452223L238.15384615384616,23.613178961819997L239.0769230769231,10.548623234703754L239.0769230769231,4.166692463296747L240,22.8325946880475L240,31.1447105366512L240.9230769230769,23.66216599958945L240.9230769230769,18.353670398500398L241.84615384615384,25.235994124476214L241.84615384615384,30.20227949199259L242.76923076923077,30.646710170238947L242.76923076923077,31.140073195852676L243.69230769230768,27.75447318963346L243.69230769230768,25.545833395659415L244.6153846153846,28.305286037965324L244.6153846153846,28.588779227759655L245.53846153846155,35.49985664628849L245.53846153846155,39.05518568746656L246.46153846153845,39.09408994166832L246.46153846153845,40.53187587051856L247.3846153846154,40.136651216416496L247.3846153846154,39.729381392149165L248.30769230769232,33.323234965253704L248.30769230769232,28.85082345595887L249.23076923076925,30.365861437399104L249.23076923076925,31.889227827066186L250.15384615384613,31.716418242260218L250.15384615384613,30.66009174600175L251.07692307692307,30.8728440982331L251.07692307692307,32.84565012349064L252,36.506452421506474L252,37.704991363250016L252.9230769230769,31.00974539947943L252.9230769230769,26.356876529780973L253.84615384615384,34.22576477115365L253.84615384615384,38.25405991995673L254.76923076923077,35.19506629594106L254.76923076923077,28.094088778622577L255.6923076923077,32.24321868363676L255.6923076923077,34.38318062695725L256.61538461538464,37.49847933971602L256.61538461538464,38.95751774570243L257.53846153846155,37.16525623424058L257.53846153846155,37.6848402758498L258.46153846153845,41.17700786763119L258.46153846153845,42.678863428939174L259.38461538461536,49.83671792918968L259.38461538461536,54.458375001729024L260.3076923076923,45.118651659159156L260.3076923076923,39.611192673962286L261.2307692307692,30.680178518738273L261.2307692307692,28.939118904591464L262.15384615384613,37.707314675681296L262.15384615384613,42.645876783178416L263.0769230769231,46.90815671565901L263.0769230769231,49.981742902957684L264,43.516450018304575L264,39.949723552039075L264.9230769230769,44.33911416221573L264.9230769230769,46.27851113716776L265.84615384615387,47.05299387068228L265.84615384615387,48.65015412914494L266.7692307692308,46.027496601429014L266.7692307692308,45.377424355849826L267.6923076923077,38.55691357245357L267.6923076923077,35.15202038163132L268.6153846153846,41.286230319120946L268.6153846153846,43.83186006681165L269.53846153846155,47.76620291685021L269.53846153846155,50.37884809118813L270.46153846153845,50.75121217163455L270.46153846153845,51.09172694863774L271.38461538461536,45.45915672039793L271.38461538461536,42.16074191974419L272.3076923076923,43.12970185215032L272.3076923076923,45.577508263728895L273.2307692307692,36.91612424297312L273.2307692307692,31.331579402147796L274.15384615384613,39.95630509029042L274.15384615384613,45.53993083724172L275.0769230769231,48.521453348265176L275.0769230769231,51.255364896667984L276,49.12454309571563L276,49.76984601191614L276.92307692307696,53.55813648220392L276.92307692307696,54.721455087428915L277.8461538461538,53.72342998130391L277.8461538461538,54.13592265519129L278.7692307692308,47.93045275625499L278.7692307692308,45.23744196557481L279.6923076923077,46.89906519901177L279.6923076923077,47.85801800904193L280.6153846153846,46.57842707061614L280.6153846153846,47.369565245055234L281.53846153846155,44.7880909316333L281.53846153846155,45.09675300156623" style="fill: none;" fill="none"></path></g></g></g></g><g opacity="0.2"><g><g><g><path stroke="rgb(255, 112, 67)" stroke-width="2px" d="M24,138.4870432287248L24,138.52907485846015L24.923076923076923,138.55716859756242L24.923076923076923,138.58304065134791L25.846153846153847,138.61596759118967L25.846153846153847,138.64561383550367L26.769230769230766,138.70908104649018L26.769230769230766,138.7330122200979L27.692307692307693,138.8046467991339L27.692307692307693,138.89836030619014L28.615384615384617,139.00325742819243L28.615384615384617,138.99114123442106L29.53846153846154,139.13153595725694L29.53846153846154,139.08017512245308L30.46153846153846,139.24891298429836L30.46153846153846,139.14978982011476L31.384615384615383,138.98595692134566L31.384615384615383,139.04159137275485L32.30769230769231,138.8726123997735L32.30769230769231,138.90570080487262L33.23076923076923,139.0442132767704L33.23076923076923,139.0529831647873L34.15384615384615,138.92686752602458L34.15384615384615,139.00535290315747L35.07692307692307,138.8485920574102L35.07692307692307,138.78744800471597L36,138.4907592458961L36,138.6521124345147L36.92307692307693,138.75227574735052L36.92307692307693,138.72059906729393L37.84615384615385,138.8434522089859L37.84615384615385,138.916382709725L38.76923076923077,138.85459821133148L38.76923076923077,139.21079974207612L39.69230769230769,140.09575563669205L39.69230769230769,140.47411644127635L40.61538461538461,141.76974667443167L40.61538461538461,142.10969267288843L41.53846153846154,140.35247987012067L41.53846153846154,140.43638742963472L42.46153846153846,142.7869048549069L42.46153846153846,142.7159818576442L43.38461538461539,141.9366920987765L43.38461538461539,141.7029390335083L44.307692307692314,142.86040893859334L44.307692307692314,142.1606548362308L45.230769230769226,141.77660078803697L45.230769230769226,141.65717558728326L46.15384615384615,142.6797679596477L46.15384615384615,142.79309233029684L47.07692307692307,139.59889200578132L47.07692307692307,138.6197752315137L48,139.51699975960784L48,140.15802604125608L48.92307692307692,141.04963682426344L48.92307692307692,141.08935337265333L49.84615384615385,144.71665420797137L49.84615384615385,145.68914733330408L50.769230769230774,143.00916828380693L50.769230769230774,142.526535772615L51.69230769230769,134.18397434552512L51.69230769230769,144.62994054953256L52.61538461538461,147.25425177150302L52.61538461538461,147.1408831940757L53.53846153846153,143.02170974678464L53.53846153846153,141.3027038309309L54.46153846153846,141.9139203031858L54.46153846153846,143.69360797935062L55.38461538461539,148.43016386032104L55.38461538461539,155.16298113928903L56.30769230769231,146.44663519329495L56.30769230769231,147.21560561656952L57.23076923076923,155.56923553678723L57.23076923076923,154.54174269570242L58.15384615384615,145.48155701822705L58.15384615384615,147.59662206967673L59.07692307692308,139.42377812663713L59.07692307692308,145.844772875309L60,147.446836537785L60,146.84238606029086L60.92307692307692,152.91623706287808L60.92307692307692,152.45172520478567L61.84615384615385,142.54665840334363L61.84615384615385,143.7238289117813L62.76923076923077,149.4435246785482L62.76923076923077,149.40618115001254L63.69230769230769,150.7776074409485L63.69230769230769,151.5983434120814L64.61538461538461,149.5699277718862L64.61538461538461,148.8117956717809L65.53846153846153,156.4727584256066L65.53846153846153,157.4636952082316L66.46153846153847,148.60906574461194L66.46153846153847,147.43699257241357L67.38461538461539,145.94213211536407L67.38461538461539,146.50049496359296L68.3076923076923,151.68608502546945L68.3076923076923,151.79214357005227L69.23076923076924,147.72041106886334L69.23076923076924,147.3949984908104L70.15384615384615,150.7388115723928L70.15384615384615,151.0409206946691L71.07692307692308,148.46191022131177L71.07692307692308,148.14965358045367L72,150.11875551276736L72,152.95335661040414L72.92307692307692,157.2064471244812L72.92307692307692,150.2346951564153L73.84615384615385,152.6656612555186L73.84615384615385,154.92406413290234L74.76923076923077,149.74648846520316L74.76923076923077,150.25914091534085L75.6923076923077,150.0690423382653L75.6923076923077,150.23478710651398L76.61538461538461,150.06842815876007L76.61538461538461,150.35524645116595L77.53846153846153,150.1372174421946L77.53846153846153,150.28059475951724L78.46153846153847,154.36972292264304L78.46153846153847,155.33481229676138L79.38461538461539,159.7490088144938L79.38461538461539,157.93338692188263L80.3076923076923,154.19553878572253L80.3076923076923,153.3516585032145L81.23076923076923,148.61077035797965L81.23076923076923,148.55793677435983L82.15384615384616,157.08006760809155L82.15384615384616,154.35338881280688L83.07692307692308,153.0693363348643L83.07692307692308,159.52060948477853L84.00000000000001,146.0668005347252L84.00000000000001,146.92084542910257L84.92307692307692,141.5247810019387L84.92307692307692,146.0322184562683L85.84615384615384,140.75482299923897L85.84615384615384,145.9960313770506L86.76923076923077,143.58418559365802L86.76923076923077,143.97827015982736L87.6923076923077,142.28514289193683L87.6923076923077,141.58791270189815L88.61538461538463,137.25211204257278L88.61538461538463,136.81103139784602L89.53846153846153,139.93884632984796L89.53846153846153,139.79711659914918L90.46153846153845,142.74697670340538L90.46153846153845,142.56226516432233L91.38461538461539,138.72117261340222L91.38461538461539,138.61093306541443L92.3076923076923,145.76160577932993L92.3076923076923,147.067329009374L93.23076923076923,144.28720775577756L93.23076923076923,144.88477317492166L94.15384615384615,150.31476600964865L94.15384615384615,149.41816295517813L95.07692307692308,152.35042095184326L95.07692307692308,150.90153967009653L96,150.08220181200238L96,150.09342679712506L96.92307692307693,140.74492966963183L96.92307692307693,140.83854474292863L97.84615384615384,146.0772722363472L97.84615384615384,146.752704653475L98.76923076923076,140.97699742515883L98.76923076923076,140.49372391568292L99.6923076923077,138.42314620812735L99.6923076923077,139.01825295678444L100.61538461538461,135.36912624041238L100.61538461538461,137.17410343554286L101.53846153846155,128.08266327116223L101.53846153846155,126.47257224718732L102.46153846153845,128.57773910628427L102.46153846153845,127.92721455627019L103.38461538461539,71.41696733898586L103.38461538461539,114.7079980108473L104.3076923076923,102.4509060382843L104.3076923076923,115.29640319612291L105.23076923076923,102.41726880603368L105.23076923076923,120.54562213685777L106.15384615384616,113.2059719297621L106.15384615384616,118.72192631827461L107.07692307692307,120.08374382389916L107.07692307692307,121.66076935662163L108,120.42445902029675L108,119.44085466861725L108.92307692307692,126.01218635506099L108.92307692307692,123.7961076365577L109.84615384615385,129.56381667984854L109.84615384615385,128.39104504055447L110.76923076923077,117.1568932003445L110.76923076923077,117.431682533688L111.69230769230768,128.19823275672067L111.69230769230768,128.11557079686057L112.61538461538461,129.7965294122696L112.61538461538461,129.85321546925437L113.53846153846153,132.91956618097095L113.53846153846153,133.53823473718433L114.46153846153847,136.82766493492656L114.46153846153847,136.83876584635843L115.38461538461539,134.68580910232333L115.38461538461539,135.7281987435288L116.3076923076923,137.37411670883498L116.3076923076923,137.08912386165727L117.23076923076923,130.43513935142093L117.23076923076923,130.74001051319968L118.15384615384616,139.3507194262412L118.15384615384616,138.7680939088265L119.07692307692308,130.62823220094043L119.07692307692308,130.78822537263233L120,133.31302654743195L120,133.22964431179892L120.92307692307692,137.20400401618747L120.92307692307692,137.51212275524935L121.84615384615384,135.6957766082552L121.84615384615384,135.71386808488103L122.76923076923077,133.9172777997123L122.76923076923077,134.0432597498099L123.6923076923077,139.4738865097364L123.6923076923077,139.78763085603714L124.61538461538463,135.7107733156946L124.61538461538463,135.6860207617283L125.53846153846153,135.3697056439188L125.53846153846153,135.48461291193962L126.46153846153845,135.79262540737787L126.46153846153845,135.58950233459473L127.38461538461539,134.8003208670351L127.38461538461539,134.60627256168257L128.30769230769232,133.94008967611524L128.30769230769232,133.6939301258988L129.23076923076923,134.14434237943757L129.23076923076923,134.15387542380225L130.15384615384616,132.4118030005031L130.15384615384616,132.56987347205478L131.07692307692307,128.83499779966144L131.07692307692307,127.49254050519731L132,123.8521087831921L132,123.44153155220879L132.92307692307693,120.99546088112724L132.92307692307693,120.86375768979389L133.84615384615384,126.40684443049962L133.84615384615384,126.14691682656604L134.76923076923077,132.6421798467636L134.76923076923077,133.1900491846932L135.69230769230768,129.65889308187695L135.69230769230768,130.01570897632175L136.6153846153846,127.95653484927284L136.6153846153846,128.07513515154523L137.53846153846155,128.7191394964854L137.53846153846155,129.17824280261993L138.46153846153848,129.17187820540536L138.46153846153848,129.0058534608947L139.3846153846154,126.0349958737691L139.3846153846154,125.87949411074322L140.3076923076923,127.36935920185512L140.3076923076923,127.36632013320923L141.23076923076923,125.03770746125114L141.23076923076923,124.95731478267247L142.15384615384616,123.38130423757765L142.15384615384616,123.0355801184972L143.0769230769231,128.16897140608896L143.0769230769231,128.49468812677594L144,128.49245892630685L144,128.31709594196744L144.92307692307693,126.8756673336029L144.92307692307693,126.73637943797642L145.84615384615384,129.46828877925873L145.84615384615384,129.6365050011211L146.76923076923077,126.11276208029854L146.76923076923077,125.9930902057224L147.6923076923077,126.46200034353468L147.6923076923077,126.73900119463605L148.6153846153846,129.19357607099744L148.6153846153846,129.1654912100898L149.53846153846155,121.28453430864546L149.53846153846155,121.38052667511833L150.46153846153845,124.88097498151991L150.46153846153845,124.88834042019313L151.3846153846154,126.58973553445604L151.3846153846154,125.83335638046265L152.3076923076923,128.8911150627666L152.3076923076923,129.01830503675671L153.23076923076923,126.59822795126173L153.23076923076923,126.6765211025874L154.15384615384616,125.48213058047826L154.15384615384616,125.42744856410557L155.07692307692307,123.72950629393262L155.07692307692307,124.16746815045673L156,116.45090034272935L156,115.70998059378731L156.92307692307693,125.74783807330662L156.92307692307693,125.419913371404L157.84615384615387,118.13754807578194L157.84615384615387,117.47037466367084L158.76923076923077,124.31017706129286L158.76923076923077,124.41743095715839L159.69230769230768,119.63139531347487L159.69230769230768,119.24970809618634L160.6153846153846,123.9268288479911L160.6153846153846,124.15118826760185L161.53846153846152,119.71235619650948L161.53846153846152,118.44890997144911L162.46153846153845,114.61165316899616L162.46153846153845,114.55716684129503L163.3846153846154,117.25420233938429L163.3846153846154,117.96401937802631L164.30769230769232,113.3346454832289L164.30769230769232,114.85074464480084L165.23076923076923,119.09796921412152L165.23076923076923,118.84799344009822L166.15384615384616,126.35698390007019L166.15384615384616,126.42698621749878L167.0769230769231,124.158846060435L167.0769230769231,123.94499135017395L168.00000000000003,119.91673415237004L168.00000000000003,118.98508867952559L168.9230769230769,123.23844207657707L168.9230769230769,122.95927450391981L169.84615384615384,125.41694739129808L169.84615384615384,125.7448107931349L170.76923076923077,114.78922531339857L170.76923076923077,115.41714782185024L171.69230769230768,118.6624133851793L171.69230769230768,119.0007638136546L172.6153846153846,121.34776768419478L172.6153846153846,120.76680927806431L173.53846153846155,122.54005632135603L173.53846153846155,122.23914726575214L174.46153846153848,121.74500625663335L174.46153846153848,121.26268790827858L175.3846153846154,125.21353019608391L175.3846153846154,125.1148205863105L176.30769230769232,115.47599116961163L176.30769230769232,115.97164228227403L177.23076923076925,112.67471255196465L177.23076923076925,112.63710260391235L178.15384615384613,117.96296077304417L178.15384615384613,118.21854903962877L179.07692307692307,118.36408954196507L179.07692307692307,117.68363523483276L180,118.7185748550627L180,118.04898362689549L180.9230769230769,108.65243564711677L180.9230769230769,111.58363975418938L181.84615384615384,122.07708639568752L181.84615384615384,121.44645018047756L182.76923076923077,113.20955091052586L182.76923076923077,112.73337435722351L183.6923076923077,108.63900150193108L183.6923076923077,110.45706007215712L184.6153846153846,100.0916763411628L184.6153846153846,99.78751013014052L185.53846153846155,62.5923466152615L185.53846153846155,64.45397302839491L186.46153846153845,112.42008858256871L186.46153846153845,107.14101650979784L187.38461538461536,79.71347856521606L187.38461538461536,92.22359127468532L188.3076923076923,90.20730951097276L188.3076923076923,95.95545440249974L189.23076923076923,106.35044134987724L189.23076923076923,104.2086995707618L190.15384615384616,106.41630119747585L190.15384615384616,107.08891852696735L191.07692307692307,115.56828784942627L191.07692307692307,117.2617540359497L192,111.19406133227879L192,106.81440740161473L192.92307692307693,108.23178752263385L192.92307692307693,107.98476004600525L193.84615384615387,111.80373764038086L193.84615384615387,110.82094197803075L194.76923076923077,102.34188622898525L194.76923076923077,100.26873922348022L195.69230769230768,111.5003895494673L195.69230769230768,110.61151030328539L196.6153846153846,95.85323418511284L196.6153846153846,96.74566883511012L197.53846153846152,117.29700157377455L197.53846153846152,114.47925445768568L198.46153846153845,98.66644038094414L198.46153846153845,111.64578151702881L199.3846153846154,102.39230081770155L199.3846153846154,99.53362411922878L200.30769230769232,70.2053526772393L200.30769230769232,87.64848444196913L201.23076923076923,88.21662759780884L201.23076923076923,99.99012099372017L202.15384615384616,100.11287201775444L202.15384615384616,96.785523308648L203.0769230769231,91.64226860470241L203.0769230769231,92.41615835825604L204.00000000000003,94.05425172381932L204.00000000000003,93.67698754204643L204.9230769230769,84.08899709913466L204.9230769230769,82.93454710642496L205.84615384615384,90.24753178490532L205.84615384615384,89.39172628190782L206.76923076923077,90.29152637057835L206.76923076923077,87.88584772745767L207.69230769230768,77.0793817308214L207.69230769230768,76.04259957207573L208.6153846153846,80.85995483398438L208.6153846153846,79.88536866505942L209.53846153846155,79.14929633670384L209.53846153846155,81.20899269315932L210.46153846153845,65.54577435387505L210.46153846153845,71.49343681335449L211.3846153846154,65.13988304138184L211.3846153846154,64.67864248487685L212.30769230769232,68.8385026719835L212.30769230769232,63.424405415852874L213.23076923076925,59.23469681209988L213.23076923076925,58.93809880150688L214.15384615384613,46.10751406351724L214.15384615384613,44.86802673339844L215.07692307692307,59.7543657620748L215.07692307692307,59.560237884521484L216,49.199055565728074L216,51.03341759575737L216.9230769230769,47.08533498975965L216.9230769230769,48.01181475321451L217.84615384615384,40.76162020365396L217.84615384615384,41.63853179083931L218.76923076923077,50.753747834099656L218.76923076923077,51.588136037190765L219.6923076923077,52.0958137512207L219.6923076923077,54.42912059360081L220.6153846153846,47.77410252888998L220.6153846153846,48.1206742392646L221.53846153846155,44.79207123650444L221.53846153846155,45.09886391957602L222.46153846153848,51.360891977945954L222.46153846153848,51.48547257317436L223.38461538461536,43.66941240098742L223.38461538461536,41.57261064317492L224.3076923076923,38.60630045996773L224.3076923076923,40.55993355645073L225.23076923076923,38.88031175401476L225.23076923076923,36.68295902676052L226.15384615384616,41.41490915086535L226.15384615384616,42.58974848853218L227.07692307692307,36.34282853868273L227.07692307692307,37.10956976148817L228,38.732738918728295L228,38.29926257663303L228.92307692307693,31.481224060058594L228.92307692307693,37.23271687825522L229.84615384615387,34.99069054921469L229.84615384615387,34.49786631266275L230.76923076923077,25.25817341274685L230.76923076923077,21.537146250406895L231.6923076923077,39.59622107611763L231.6923076923077,37.11600155300564L232.6153846153846,25.880189895629883L232.6153846153846,31.307942920260963L233.53846153846152,35.65341970655653L233.53846153846152,30.302093717787L234.46153846153845,22.43452262878418L234.46153846153845,23.116424560546875L235.3846153846154,31.99373033311632L235.3846153846154,33.544339074028855L236.30769230769232,21.791032261318627L236.30769230769232,22.683193418714733L237.23076923076923,30.82585091061062L237.23076923076923,38.38597859276665L238.15384615384616,24.87363338470459L238.15384615384616,15.440666092766648L239.0769230769231,-9.048210355970612L239.0769230769231,-5.406203693813744L240,50.83144802517361L240,43.612884309556755L240.9230769230769,12.43834919399685L240.9230769230769,10.390926996866856L241.84615384615384,35.55947971343994L241.84615384615384,37.651707543267136L242.76923076923077,31.31335618760851L242.76923076923077,31.88011773427328L243.69230769230768,22.67607318030464L243.69230769230768,22.232873704698353L244.6153846153846,32.44446500142416L244.6153846153846,29.014019012451172L245.53846153846155,45.866472774081764L245.53846153846155,44.388179249233666L246.46153846153845,39.152446322970924L246.46153846153845,42.688554763793945L247.3846153846154,39.543814235263405L247.3846153846154,39.11847665574816L248.30769230769232,23.714015324910488L248.30769230769232,22.1422061920166L249.23076923076925,32.638418409559456L249.23076923076925,34.17427741156685L250.15384615384613,31.45720386505127L250.15384615384613,29.075602001614037L251.07692307692307,31.191972626580124L251.07692307692307,35.80485916137695L252,41.99765586853027L252,39.50279977586535L252.9230769230769,20.96687645382351L252.9230769230769,19.377573225233288L253.84615384615384,46.02909713321262L253.84615384615384,44.296502643161354L254.76923076923077,30.606575859917527L254.76923076923077,17.442622502644863L255.6923076923077,38.46691354115805L255.6923076923077,37.59312354193794L256.61538461538464,42.17142740885416L256.61538461538464,41.14607535468208L257.53846153846155,34.476863967047805L257.53846153846155,38.464216338263626L258.46153846153845,46.41525925530327L258.46153846153845,44.931646770901146L259.38461538461536,60.57349967956543L259.38461538461536,61.39086061053806L260.3076923076923,31.109066645304356L260.3076923076923,31.350004196166992L261.2307692307692,17.283657285902233L261.2307692307692,26.327529483371315L262.15384615384613,50.85960833231607L262.15384615384613,50.053719944424095L263.0769230769231,53.30157661437988L263.0769230769231,54.592122183905715L264,33.81851069132486L264,34.59963385264078L264.9230769230769,50.923200077480736L264.9230769230769,49.18760659959582L265.84615384615387,48.214717970954055L265.84615384615387,51.04589451683891L266.7692307692308,42.093510309855134L266.7692307692308,44.402315987481L267.6923076923077,28.326147397359218L267.6923076923077,30.04468059539795L268.6153846153846,50.487545225355355L268.6153846153846,47.6503046883477L269.53846153846155,53.66771719190809L269.53846153846155,54.297815852695045L270.46153846153845,51.30975829230415L270.46153846153845,51.60249911414253L271.38461538461536,37.0103013780382L271.38461538461536,37.21311971876356L272.3076923076923,44.583141750759545L272.3076923076923,49.249217881096726L273.2307692307692,23.924048211839466L273.2307692307692,22.954762140909825L274.15384615384613,52.89339362250435L274.15384615384613,53.915369457668724L275.0769230769231,52.99373711480034L275.0769230769231,55.356232219272194L276,45.92831039428711L276,50.73780038621691L276.92307692307696,59.24057218763563L276.92307692307696,56.46643299526638L277.8461538461538,52.22639232211643L277.8461538461538,54.754661666022415L278.7692307692308,38.62224790785047L278.7692307692308,41.19792577955457L279.6923076923077,49.39150004916721L279.6923076923077,49.29644722408718L280.6153846153846,44.659040662977425L280.6153846153846,48.55627250671387L281.53846153846155,40.915879461500374L281.53846153846155,45.55974610646567" style="fill: none;" fill="none"></path></g></g></g></g></g></g><g transform="translate(30, 178)" clip-path="url(#clip_1)"><clipPath id="clip_1"><rect width="300" height="22"></rect></clipPath><g><g><line x1="0" y1="0" x2="0" y2="5" style="visibility: inherit;" fill="rgb(0, 0, 0)" stroke="rgb(204, 204, 204)" stroke-width="1px"></line><line x1="23.076923076923077" y1="0" x2="23.076923076923077" y2="5" style="visibility: inherit;" fill="rgb(0, 0, 0)" stroke="rgb(204, 204, 204)" stroke-width="1px"></line><line x1="46.15384615384615" y1="0" x2="46.15384615384615" y2="5" style="visibility: inherit;" fill="rgb(0, 0, 0)" stroke="rgb(204, 204, 204)" stroke-width="1px"></line><line x1="69.23076923076924" y1="0" x2="69.23076923076924" y2="5" style="visibility: inherit;" fill="rgb(0, 0, 0)" stroke="rgb(204, 204, 204)" stroke-width="1px"></line><line x1="92.3076923076923" y1="0" x2="92.3076923076923" y2="5" style="visibility: inherit;" fill="rgb(0, 0, 0)" stroke="rgb(204, 204, 204)" stroke-width="1px"></line><line x1="115.38461538461539" y1="0" x2="115.38461538461539" y2="5" style="visibility: inherit;" fill="rgb(0, 0, 0)" stroke="rgb(204, 204, 204)" stroke-width="1px"></line><line x1="138.46153846153848" y1="0" x2="138.46153846153848" y2="5" style="visibility: inherit;" fill="rgb(0, 0, 0)" stroke="rgb(204, 204, 204)" stroke-width="1px"></line><line x1="161.53846153846152" y1="0" x2="161.53846153846152" y2="5" style="visibility: inherit;" fill="rgb(0, 0, 0)" stroke="rgb(204, 204, 204)" stroke-width="1px"></line><line x1="184.6153846153846" y1="0" x2="184.6153846153846" y2="5" style="visibility: inherit;" fill="rgb(0, 0, 0)" stroke="rgb(204, 204, 204)" stroke-width="1px"></line><line x1="207.69230769230768" y1="0" x2="207.69230769230768" y2="5" style="visibility: inherit;" fill="rgb(0, 0, 0)" stroke="rgb(204, 204, 204)" stroke-width="1px"></line><line x1="230.76923076923077" y1="0" x2="230.76923076923077" y2="5" style="visibility: inherit;" fill="rgb(0, 0, 0)" stroke="rgb(204, 204, 204)" stroke-width="1px"></line><line x1="253.84615384615384" y1="0" x2="253.84615384615384" y2="5" style="visibility: inherit;" fill="rgb(0, 0, 0)" stroke="rgb(204, 204, 204)" stroke-width="1px"></line><line x1="276.92307692307696" y1="0" x2="276.92307692307696" y2="5" style="visibility: inherit;" fill="rgb(0, 0, 0)" stroke="rgb(204, 204, 204)" stroke-width="1px"></line><line x1="300" y1="0" x2="300" y2="5" style="visibility: inherit;" fill="rgb(0, 0, 0)" stroke="rgb(204, 204, 204)" stroke-width="1px"></line></g><g transform="translate(0, 8)"><text x="0" y="0" dx="0em" dy="0.95em" style="text-anchor: middle; visibility: hidden; font-family: Roboto, sans-serif; font-size: 12px; font-weight: 200;" fill="rgb(50, 49, 63)" stroke="none" stroke-width="1px">-500</text><text x="23.076923076923077" y="0" dx="0em" dy="0.95em" style="text-anchor: middle; visibility: inherit; font-family: Roboto, sans-serif; font-size: 12px; font-weight: 200;" fill="rgb(50, 49, 63)" stroke="none" stroke-width="1px">0</text><text x="46.15384615384615" y="0" dx="0em" dy="0.95em" style="text-anchor: middle; visibility: hidden; font-family: Roboto, sans-serif; font-size: 12px; font-weight: 200;" fill="rgb(50, 49, 63)" stroke="none" stroke-width="1px">500</text><text x="69.23076923076924" y="0" dx="0em" dy="0.95em" style="text-anchor: middle; visibility: inherit; font-family: Roboto, sans-serif; font-size: 12px; font-weight: 200;" fill="rgb(50, 49, 63)" stroke="none" stroke-width="1px">1k</text><text x="92.3076923076923" y="0" dx="0em" dy="0.95em" style="text-anchor: middle; visibility: hidden; font-family: Roboto, sans-serif; font-size: 12px; font-weight: 200;" fill="rgb(50, 49, 63)" stroke="none" stroke-width="1px">1.5k</text><text x="115.38461538461539" y="0" dx="0em" dy="0.95em" style="text-anchor: middle; visibility: inherit; font-family: Roboto, sans-serif; font-size: 12px; font-weight: 200;" fill="rgb(50, 49, 63)" stroke="none" stroke-width="1px">2k</text><text x="138.46153846153848" y="0" dx="0em" dy="0.95em" style="text-anchor: middle; visibility: hidden; font-family: Roboto, sans-serif; font-size: 12px; font-weight: 200;" fill="rgb(50, 49, 63)" stroke="none" stroke-width="1px">2.5k</text><text x="161.53846153846152" y="0" dx="0em" dy="0.95em" style="text-anchor: middle; visibility: inherit; font-family: Roboto, sans-serif; font-size: 12px; font-weight: 200;" fill="rgb(50, 49, 63)" stroke="none" stroke-width="1px">3k</text><text x="184.6153846153846" y="0" dx="0em" dy="0.95em" style="text-anchor: middle; visibility: hidden; font-family: Roboto, sans-serif; font-size: 12px; font-weight: 200;" fill="rgb(50, 49, 63)" stroke="none" stroke-width="1px">3.5k</text><text x="207.69230769230768" y="0" dx="0em" dy="0.95em" style="text-anchor: middle; visibility: inherit; font-family: Roboto, sans-serif; font-size: 12px; font-weight: 200;" fill="rgb(50, 49, 63)" stroke="none" stroke-width="1px">4k</text><text x="230.76923076923077" y="0" dx="0em" dy="0.95em" style="text-anchor: middle; visibility: hidden; font-family: Roboto, sans-serif; font-size: 12px; font-weight: 200;" fill="rgb(50, 49, 63)" stroke="none" stroke-width="1px">4.5k</text><text x="253.84615384615384" y="0" dx="0em" dy="0.95em" style="text-anchor: middle; visibility: inherit; font-family: Roboto, sans-serif; font-size: 12px; font-weight: 200;" fill="rgb(50, 49, 63)" stroke="none" stroke-width="1px">5k</text><text x="276.92307692307696" y="0" dx="0em" dy="0.95em" style="text-anchor: middle; visibility: hidden; font-family: Roboto, sans-serif; font-size: 12px; font-weight: 200;" fill="rgb(50, 49, 63)" stroke="none" stroke-width="1px">5.5k</text><text x="300" y="0" dx="0em" dy="0.95em" style="text-anchor: middle; visibility: hidden; font-family: Roboto, sans-serif; font-size: 12px; font-weight: 200;" fill="rgb(50, 49, 63)" stroke="none" stroke-width="1px">6k</text></g><line x1="0" y1="0" x2="300" y2="0" fill="rgb(0, 0, 0)" stroke="rgb(204, 204, 204)" stroke-width="1px"></line></g></g></g></g></svg>