<svg viewBox="0 0 330 200" xmlns="http://www.w3.org/2000/svg"><g><g><g><g><g><line x1="30" y1="178" x2="25" y2="178" style="visibility: inherit;" fill="rgb(0, 0, 0)" stroke="rgb(204, 204, 204)" stroke-width="1px"></line><line x1="30" y1="163.16666666666666" x2="25" y2="163.16666666666666" style="visibility: inherit;" fill="rgb(0, 0, 0)" stroke="rgb(204, 204, 204)" stroke-width="1px"></line><line x1="30" y1="148.33333333333334" x2="25" y2="148.33333333333334" style="visibility: inherit;" fill="rgb(0, 0, 0)" stroke="rgb(204, 204, 204)" stroke-width="1px"></line><line x1="30" y1="133.5" x2="25" y2="133.5" style="visibility: inherit;" fill="rgb(0, 0, 0)" stroke="rgb(204, 204, 204)" stroke-width="1px"></line><line x1="30" y1="118.66666666666669" x2="25" y2="118.66666666666669" style="visibility: inherit;" fill="rgb(0, 0, 0)" stroke="rgb(204, 204, 204)" stroke-width="1px"></line><line x1="30" y1="103.83333333333331" x2="25" y2="103.83333333333331" style="visibility: inherit;" fill="rgb(0, 0, 0)" stroke="rgb(204, 204, 204)" stroke-width="1px"></line><line x1="30" y1="89" x2="25" y2="89" style="visibility: inherit;" fill="rgb(0, 0, 0)" stroke="rgb(204, 204, 204)" stroke-width="1px"></line><line x1="30" y1="74.16666666666666" x2="25" y2="74.16666666666666" style="visibility: inherit;" fill="rgb(0, 0, 0)" stroke="rgb(204, 204, 204)" stroke-width="1px"></line><line x1="30" y1="59.33333333333334" x2="25" y2="59.33333333333334" style="visibility: inherit;" fill="rgb(0, 0, 0)" stroke="rgb(204, 204, 204)" stroke-width="1px"></line><line x1="30" y1="44.5" x2="25" y2="44.5" style="visibility: inherit;" fill="rgb(0, 0, 0)" stroke="rgb(204, 204, 204)" stroke-width="1px"></line><line x1="30" y1="29.66666666666666" x2="25" y2="29.66666666666666" style="visibility: inherit;" fill="rgb(0, 0, 0)" stroke="rgb(204, 204, 204)" stroke-width="1px"></line><line x1="30" y1="14.83333333333334" x2="25" y2="14.83333333333334" style="visibility: inherit;" fill="rgb(0, 0, 0)" stroke="rgb(204, 204, 204)" stroke-width="1px"></line><line x1="30" y1="0" x2="25" y2="0" style="visibility: inherit;" fill="rgb(0, 0, 0)" stroke="rgb(204, 204, 204)" stroke-width="1px"></line></g><g transform="translate(20, 0)"><text x="0" y="178" dx="0em" dy="0.3em" style="text-anchor: end; visibility: hidden; font-family: Roboto, sans-serif; font-size: 12px; font-weight: 200;" fill="rgb(50, 49, 63)" stroke="none" stroke-width="1px">-4</text><text x="0" y="163.16666666666666" dx="0em" dy="0.3em" style="text-anchor: end; visibility: inherit; font-family: Roboto, sans-serif; font-size: 12px; font-weight: 200;" fill="rgb(50, 49, 63)" stroke="none" stroke-width="1px">-2</text><text x="0" y="148.33333333333334" dx="0em" dy="0.3em" style="text-anchor: end; visibility: hidden; font-family: Roboto, sans-serif; font-size: 12px; font-weight: 200;" fill="rgb(50, 49, 63)" stroke="none" stroke-width="1px">0</text><text x="0" y="133.5" dx="0em" dy="0.3em" style="text-anchor: end; visibility: inherit; font-family: Roboto, sans-serif; font-size: 12px; font-weight: 200;" fill="rgb(50, 49, 63)" stroke="none" stroke-width="1px">2</text><text x="0" y="118.66666666666669" dx="0em" dy="0.3em" style="text-anchor: end; visibility: hidden; font-family: Roboto, sans-serif; font-size: 12px; font-weight: 200;" fill="rgb(50, 49, 63)" stroke="none" stroke-width="1px">4</text><text x="0" y="103.83333333333331" dx="0em" dy="0.3em" style="text-anchor: end; visibility: inherit; font-family: Roboto, sans-serif; font-size: 12px; font-weight: 200;" fill="rgb(50, 49, 63)" stroke="none" stroke-width="1px">6</text><text x="0" y="89" dx="0em" dy="0.3em" style="text-anchor: end; visibility: hidden; font-family: Roboto, sans-serif; font-size: 12px; font-weight: 200;" fill="rgb(50, 49, 63)" stroke="none" stroke-width="1px">8</text><text x="0" y="74.16666666666666" dx="0em" dy="0.3em" style="text-anchor: end; visibility: inherit; font-family: Roboto, sans-serif; font-size: 12px; font-weight: 200;" fill="rgb(50, 49, 63)" stroke="none" stroke-width="1px">10</text><text x="0" y="59.33333333333334" dx="0em" dy="0.3em" style="text-anchor: end; visibility: hidden; font-family: Roboto, sans-serif; font-size: 12px; font-weight: 200;" fill="rgb(50, 49, 63)" stroke="none" stroke-width="1px">12</text><text x="0" y="44.5" dx="0em" dy="0.3em" style="text-anchor: end; visibility: inherit; font-family: Roboto, sans-serif; font-size: 12px; font-weight: 200;" fill="rgb(50, 49, 63)" stroke="none" stroke-width="1px">14</text><text x="0" y="29.66666666666666" dx="0em" dy="0.3em" style="text-anchor: end; visibility: hidden; font-family: Roboto, sans-serif; font-size: 12px; font-weight: 200;" fill="rgb(50, 49, 63)" stroke="none" stroke-width="1px">16</text><text x="0" y="14.83333333333334" dx="0em" dy="0.3em" style="text-anchor: end; visibility: inherit; font-family: Roboto, sans-serif; font-size: 12px; font-weight: 200;" fill="rgb(50, 49, 63)" stroke="none" stroke-width="1px">18</text><text x="0" y="0" dx="0em" dy="0.3em" style="text-anchor: end; visibility: hidden; font-family: Roboto, sans-serif; font-size: 12px; font-weight: 200;" fill="rgb(50, 49, 63)" stroke="none" stroke-width="1px">20</text></g><line x1="30" y1="0" x2="30" y2="178" fill="rgb(0, 0, 0)" stroke="rgb(204, 204, 204)" stroke-width="1px"></line></g></g><g transform="translate(30, 0)" clip-path="url(#clip_0)"><clipPath id="clip_0"><rect width="300" height="178"></rect></clipPath><g><g><g><line x1="0" y1="0" x2="0" y2="178" fill="rgb(0, 0, 0)" stroke="rgb(60, 60, 60)" stroke-width="1px" opacity="0.25"></line><line x1="25" y1="0" x2="25" y2="178" fill="rgb(0, 0, 0)" stroke="rgb(60, 60, 60)" stroke-width="1px" opacity="0.25"></line><line x1="50" y1="0" x2="50" y2="178" fill="rgb(0, 0, 0)" stroke="rgb(60, 60, 60)" stroke-width="1px" opacity="0.25"></line><line x1="75" y1="0" x2="75" y2="178" fill="rgb(0, 0, 0)" stroke="rgb(60, 60, 60)" stroke-width="1px" opacity="0.25"></line><line x1="100" y1="0" x2="100" y2="178" fill="rgb(0, 0, 0)" stroke="rgb(60, 60, 60)" stroke-width="1px" opacity="0.25"></line><line x1="125" y1="0" x2="125" y2="178" fill="rgb(0, 0, 0)" stroke="rgb(60, 60, 60)" stroke-width="1px" opacity="0.25"></line><line x1="150" y1="0" x2="150" y2="178" fill="rgb(0, 0, 0)" stroke="rgb(60, 60, 60)" stroke-width="1px" opacity="0.25"></line><line x1="175" y1="0" x2="175" y2="178" fill="rgb(0, 0, 0)" stroke="rgb(60, 60, 60)" stroke-width="1px" opacity="0.25"></line><line x1="200" y1="0" x2="200" y2="178" fill="rgb(0, 0, 0)" stroke="rgb(60, 60, 60)" stroke-width="1px" opacity="0.25"></line><line x1="225" y1="0" x2="225" y2="178" fill="rgb(0, 0, 0)" stroke="rgb(60, 60, 60)" stroke-width="1px" opacity="0.25"></line><line x1="250" y1="0" x2="250" y2="178" fill="rgb(0, 0, 0)" stroke="rgb(60, 60, 60)" stroke-width="1px" opacity="0.25"></line><line x1="275" y1="0" x2="275" y2="178" fill="rgb(0, 0, 0)" stroke="rgb(60, 60, 60)" stroke-width="1px" opacity="0.25"></line><line x1="300" y1="0" x2="300" y2="178" fill="rgb(0, 0, 0)" stroke="rgb(60, 60, 60)" stroke-width="1px" opacity="0.25"></line></g><g><line x1="0" y1="178" x2="300" y2="178" fill="rgb(0, 0, 0)" stroke="rgb(60, 60, 60)" stroke-width="1px" opacity="0.25"></line><line x1="0" y1="163.16666666666666" x2="300" y2="163.16666666666666" fill="rgb(0, 0, 0)" stroke="rgb(60, 60, 60)" stroke-width="1px" opacity="0.25"></line><line x1="0" y1="148.33333333333334" x2="300" y2="148.33333333333334" fill="rgb(0, 0, 0)" stroke="rgb(60, 60, 60)" stroke-width="1px" opacity="0.25"></line><line x1="0" y1="133.5" x2="300" y2="133.5" fill="rgb(0, 0, 0)" stroke="rgb(60, 60, 60)" stroke-width="1px" opacity="0.25"></line><line x1="0" y1="118.66666666666669" x2="300" y2="118.66666666666669" fill="rgb(0, 0, 0)" stroke="rgb(60, 60, 60)" stroke-width="1px" opacity="0.25"></line><line x1="0" y1="103.83333333333331" x2="300" y2="103.83333333333331" fill="rgb(0, 0, 0)" stroke="rgb(60, 60, 60)" stroke-width="1px" opacity="0.25"></line><line x1="0" y1="89" x2="300" y2="89" fill="rgb(0, 0, 0)" stroke="rgb(60, 60, 60)" stroke-width="1px" opacity="0.25"></line><line x1="0" y1="74.16666666666666" x2="300" y2="74.16666666666666" fill="rgb(0, 0, 0)" stroke="rgb(60, 60, 60)" stroke-width="1px" opacity="0.25"></line><line x1="0" y1="59.33333333333334" x2="300" y2="59.33333333333334" fill="rgb(0, 0, 0)" stroke="rgb(60, 60, 60)" stroke-width="1px" opacity="0.25"></line><line x1="0" y1="44.5" x2="300" y2="44.5" fill="rgb(0, 0, 0)" stroke="rgb(60, 60, 60)" stroke-width="1px" opacity="0.25"></line><line x1="0" y1="29.66666666666666" x2="300" y2="29.66666666666666" fill="rgb(0, 0, 0)" stroke="rgb(60, 60, 60)" stroke-width="1px" opacity="0.25"></line><line x1="0" y1="14.83333333333334" x2="300" y2="14.83333333333334" fill="rgb(0, 0, 0)" stroke="rgb(60, 60, 60)" stroke-width="1px" opacity="0.25"></line><line x1="0" y1="0" x2="300" y2="0" fill="rgb(0, 0, 0)" stroke="rgb(60, 60, 60)" stroke-width="1px" opacity="0.25"></line></g></g></g><g><g><line x1="0" y1="148.33333333333334" x2="300" y2="148.33333333333334" fill="rgb(0, 0, 0)" stroke="rgb(153, 153, 153)" stroke-width="1.5px"></line></g></g><g><g><line x1="25" y1="0" x2="25" y2="178" fill="rgb(0, 0, 0)" stroke="rgb(153, 153, 153)" stroke-width="1.5px"></line></g></g><g><g><g><g><g><path stroke="rgb(255, 112, 67)" stroke-width="2px" d="M30.25,148.12115067538494L30.6875,148.26761225263908L31.125,148.2994596623124L31.5625,148.3057801204127L32,148.29807512516695L32.4375,148.30260877962252L32.875,148.31384570925124L33.3125,148.29317821845237L33.75,148.32778448708945L34.1875,148.3851838480076L34.625,148.4268639826908L35.0625,148.4698894587961L35.5,148.4799705398514L35.9375,148.52689925419273L36.375,148.55672865387024L36.8125,148.5926207305183L37.25,148.6505811186167L37.68749999999999,148.59081841648697L38.125,148.56305730669504L38.5625,148.57030289807943L39,148.64508959276793L39.4375,148.62376107675163L39.875,148.6225553219056L40.3125,148.50999134601483L40.75,148.39575681708303L41.1875,148.32906284166864L41.62500000000001,148.1780243965876L42.0625,147.9971354863086L42.5,147.81353584708285L42.9375,147.61695141637438L43.375,147.24858411906035L43.81249999999999,146.91967575072934L44.25,146.7663903624315L44.6875,146.70005464555496L45.125,146.5915201188444L45.5625,147.10391867242683L46,147.2022225058148L46.4375,147.82385960714296L46.875,148.1787111968035L47.3125,148.5475982078517L47.75,148.50877920477086L48.1875,148.96167720591063L48.625,148.66862944533432L49.0625,149.23390873741963L49.5,149.29136830899833L49.93750000000001,149.5127881070139L50.375,148.9483501773834L50.8125,148.56006338255781L51.25,147.62525150908073L51.6875,147.84556556576246L52.12499999999999,147.6642399321016L52.5625,145.54711558758694L53,144.90052718325032L53.4375,143.62334330322355L53.875,142.4388071464015L54.3125,141.03208049733465L54.75,139.6847368991314L55.1875,139.84136718407902L55.625,138.06244138019647L56.06250000000001,140.31393523496817L56.5,142.6111717074063L56.9375,142.1763251929847L57.375,143.15479621943047L57.8125,145.74763960683075L58.24999999999999,149.34915837075548L58.6875,149.3667135805462L59.125,145.6487679463967L59.5625,145.54340463970172L60,144.75237545427123L60.4375,145.547736898401L60.875,145.32429772635618L61.3125,146.86347830630532L61.75,146.99597932152267L62.18750000000001,150.18502480538078L62.625,149.66140248080922L63.0625,147.94506430447598L63.5,147.3317284166048L63.9375,146.87152878518285L64.375,146.89409320846426L64.8125,146.37807210263745L65.25,147.15212288042096L65.6875,148.36800247852122L66.125,148.22730730888216L66.5625,147.96584808354754L67,147.51166912282613L67.4375,146.4346467894223L67.875,145.03811333429255L68.3125,146.730401367057L68.75,145.62346485263623L69.1875,147.71901442909152L69.625,145.92401458603487L70.0625,147.4960268226207L70.5,147.84382007151302L70.9375,147.77979548402303L71.375,142.01436516221963L71.8125,142.89902926828427L72.25,144.73996103016117L72.6875,146.19561697293864L73.125,146.63402916937795L73.5625,144.66231969763675L74,142.52312845649226L74.4375,139.02730671561898L74.875,136.4498971064715L75.3125,137.58168469427994L75.75,137.50699100827558L76.1875,137.67708410383494L76.625,137.08604558047392L77.0625,133.0746621751988L77.50000000000001,129.76212861125893L77.9375,134.9368085462961L78.375,135.42956671312135L78.8125,138.29639092402468L79.25,141.7686076659966L79.6875,139.1522753337428L80.125,141.4135378936572L80.5625,139.86556245920914L81,144.2133946162732L81.4375,142.56939424329627L81.87499999999999,141.05024646473106L82.3125,141.01555114638117L82.75,138.54159055343055L83.1875,144.23216209127975L83.625,143.14822679150782L84.0625,144.18160144421668L84.5,138.67477056940322L84.9375,133.93512093361176L85.375,135.63691575528753L85.81250000000001,137.27479532481178L86.25,142.11992095631925L86.6875,136.5920137567673L87.125,135.29852172553663L87.5625,135.55266087544038L88,134.65563230489934L88.4375,135.06587123538202L88.875,134.3190900385289L89.3125,126.68700891533943L89.75000000000001,129.14392749746315L90.18749999999999,127.81535546946328L90.625,123.22087476035635L91.0625,127.62946320005665L91.5,126.0246979103192L91.9375,122.40742328797008L92.375,118.88488846044277L92.8125,120.4555526794227L93.25,123.07755768823021L93.6875,125.64125069296792L94.12499999999999,116.27686054100455L94.5625,119.76677705401097L95,112.12850147219848L95.4375,118.58285675286659L95.875,129.22644672695444L96.3125,132.0988638474761L96.75,128.77689160948307L97.1875,132.159328532489L97.625,130.974472343289L98.06250000000001,130.3961471355139L98.5,131.20503336009457L98.9375,135.8006250410303L99.375,126.49716852996892L99.8125,125.63215519722786L100.25,127.39232843957238L100.6875,120.99246129498022L101.125,126.71456191403746L101.5625,122.06017028568039L102.00000000000001,118.94864387876501L102.43749999999999,121.38239612321082L102.875,124.53636475090202L103.3125,122.09519577632754L103.75,118.49512168930218L104.1875,120.95755157371113L104.625,111.0264000346248L105.0625,112.80633692641963L105.5,106.09311815520074L105.9375,93.95842766217356L106.37499999999999,86.29471335084419L106.8125,79.29702854914177L107.25,75.08985923585915L107.6875,79.0206752550063L108.125,67.54329205740238L108.5625,66.35864531907684L109,74.65389412987182L109.4375,78.36386920421093L109.875,80.00771958872936L110.31250000000001,86.04480913030264L110.75,86.32895456997845L111.1875,95.09801667878008L111.625,95.81601000993832L112.0625,99.45713336370022L112.5,103.92377824247855L112.9375,100.66051112807381L113.375,103.43503005025735L113.8125,105.03192466925356L114.25,106.33368320324485L114.68749999999999,106.69931626553415L115.125,107.27002894223776L115.5625,105.28205061360825L116,108.86868969840584L116.4375,105.58592295791372L116.875,115.02238265760144L117.3125,107.31066974056203L117.75,112.15962872536443L118.1875,116.86292366364479L118.62500000000001,114.3657656600806L119.0625,112.72002816741065L119.5,116.82494198805729L119.9375,114.5236005993285L120.375,115.94161106417167L120.8125,110.11984624029948L121.25,114.06906282243186L121.6875,118.74536894562077L122.125,117.67644902151166L122.56250000000001,117.4789798026165L122.99999999999999,111.48738235025886L123.4375,116.63630887939105L123.875,116.6254731480692L124.3125,119.50257772988564L124.75,117.84161952408046L125.1875,118.47289236747359L125.625,116.97739901759108L126.0625,116.08474578033614L126.5,112.39945979259846L126.93749999999999,118.17389115100568L127.375,113.13605731570003L127.8125,109.70925896471704L128.25,112.93869654996772L128.6875,105.10072821376868L129.125,106.41379232008147L129.5625,114.39617430447869L130,117.02687546777327L130.4375,117.4002010017689L130.875,120.27124656776921L131.3125,118.88579718395276L131.75,107.3910845128151L132.1875,107.13177239144557L132.625,107.81125045167236L133.0625,102.1741462887138L133.5,101.28477120841403L133.9375,99.54575534132037L134.375,104.26001344204099L134.8125,95.08929120349971L135.25,103.22237989215905L135.6875,107.83941284562461L136.125,92.4878044431129L136.5625,99.13309777804528L137,100.2334565780261L137.4375,101.86164044906889L137.875,103.78040129087482L138.3125,110.33164236232906L138.75,110.87368919026018L139.1875,111.50271899841923L139.625,111.44336684153097L140.0625,108.51256098512182L140.5,109.45015480218355L140.9375,104.05305173852855L141.375,109.1432082823444L141.8125,100.58135092486114L142.25,97.01572028137748L142.6875,104.27541449469828L143.125,107.14024602653089L143.5625,109.66293309896095L144,117.1138926512136L144.4375,112.4853249807835L144.875,113.57571869808518L145.3125,106.36615615120378L145.75,106.13106632052373L146.1875,115.04137147954211L146.625,112.81529065861966L147.0625,118.80011912720201L147.5,106.80310782911457L147.9375,105.45915871335313L148.375,112.90110989495068L148.8125,112.63503425171344L149.25,115.85701005965691L149.6875,110.42067169334621L150.125,104.69804920665104L150.5625,113.53467034048845L151,113.75984607585474L151.4375,118.06273968884271L151.875,117.09479605278725L152.3125,104.37055096897298L152.75,100.95153682553457L153.1875,96.073859571161L153.625,101.97207623247829L154.0625,103.73001628036019L154.5,103.33348521936763L154.9375,96.80183130114573L155.375,106.33547506496885L155.8125,99.82737755238361L156.25,89.89666269298006L156.6875,96.90319627568489L157.12500000000003,102.70728155401567L157.56250000000003,104.46297776953709L157.99999999999997,98.06724356963039L158.4375,96.49999440125902L158.875,100.1234112207827L159.3125,97.8250085130177L159.75,84.49883115380061L160.1875,94.44657396528554L160.625,99.29400136820534L161.0625,101.26707209002213L161.5,105.53528155993163L161.9375,106.51219137973035L162.375,98.60637078563241L162.8125,98.34624358343999L163.25,86.08558749553316L163.6875,86.67715383805881L164.125,87.22561889432698L164.5625,84.00881354138949L165,96.71790890768588L165.43750000000003,99.21275008246555L165.87499999999997,106.73773067310601L166.31249999999997,111.83615018396667L166.75,102.09060390076495L167.1875,90.33134595124793L167.625,82.54889877380256L168.0625,89.1311829710483L168.5,103.27328275588033L168.9375,98.20701064435765L169.375,99.78905967335777L169.8125,99.96107027209328L170.25,108.53115347192602L170.6875,103.41857190429715L171.125,108.48440528412392L171.5625,102.26420359909372L172,107.57467031339709L172.4375,105.05421883181673L172.875,89.88444700826768L173.3125,88.5865811764572L173.75000000000003,93.97146776473762L174.18749999999997,93.54318612708396L174.625,99.37628437217325L175.0625,95.3226209549283L175.5,96.29568729806986L175.9375,92.08894252385127L176.375,86.95733232262985L176.8125,88.94531599857363L177.25,100.37644696341724L177.6875,98.23074803415997L178.125,91.41716169713378L178.5625,102.4724803014503L179,103.84788913988508L179.4375,94.96597667215329L179.875,98.42676916725276L180.3125,102.40014549299183L180.75,97.0791519415623L181.1875,100.46135849548854L181.625,88.10934890186871L182.06250000000003,94.9729065073098L182.49999999999997,91.82798765336864L182.9375,92.34880625944568L183.375,83.59595841412485L183.8125,57.988758418429335L184.25,33.83116843708462L184.6875,10.149775408157357L185.125,13.094810491272984L185.5625,22.156037651778778L186,30.613532735873164L186.4375,39.92964257039762L186.875,52.960326353141475L187.3125,66.01842670406627L187.75,75.7627170052075L188.1875,75.3762061893509L188.625,85.45278989670074L189.0625,89.57467016019858L189.5,77.7751342481679L189.93750000000003,86.07117098329304L190.37500000000003,85.43688469980857L190.81249999999997,83.28100549690745L191.25,89.36849346665238L191.6875,100.24039590502396L192.125,82.49994054721563L192.5625,85.50010003618462L193,84.27835051599382L193.4375,94.21691042810622L193.875,89.64883747873668L194.3125,84.33685392843465L194.75,91.06147702558901L195.1875,91.12704097444256L195.625,88.39840269415244L196.0625,86.23071575360696L196.5,85.74295943695624L196.9375,82.45310023060432L197.375,79.29222210227047L197.8125,69.93198971735595L198.25000000000003,83.046400845769L198.68749999999997,86.3280432904102L199.12499999999997,73.9105106602711L199.5625,78.60814104938125L200,74.42674500026475L200.4375,79.0170236643841L200.875,75.53645925223967L201.3125,78.9819463203359L201.75,84.95675561289043L202.1875,90.55501167055003L202.625,86.00370767956593L203.0625,85.60068022755158L203.5,80.224276881699L203.9375,70.5022650845553L204.375,75.21448946124546L204.8125,62.15758883233606L205.25,65.39063872064594L205.6875,61.54956312079496L206.125,65.55988644221983L206.56250000000003,66.69339204625028L206.99999999999997,66.38601925052645L207.4375,57.25087589866385L207.875,54.764420701144935L208.3125,61.53816546186534L208.75,68.0184704771721L209.1875,68.81642003324133L209.625,64.4456114180873L210.0625,54.543971662202885L210.5,46.81052673130001L210.9375,47.008421287549126L211.375,45.389091793067806L211.8125,33.94144394201093L212.25,37.14274340988431L212.6875,37.14523749821125L213.125,33.29586664799496L213.5625,46.19967371601052L214,47.72385092404397L214.4375,41.530642913740344L214.87500000000003,48.1578734916219L215.31249999999997,55.59251163413737L215.75,48.34850529438622L216.1875,52.76134427948615L216.625,52.58432932236089L217.0625,50.424512502779315L217.5,51.026243279713256L217.9375,49.70490898510091L218.375,39.66945424370133L218.8125,44.03012557839649L219.25,49.00006330022394L219.6875,48.74183460082121L220.125,42.040089964899465L220.5625,41.01352121831957L221,46.69011848609833L221.4375,39.24803620243781L221.875,40.33468003470527L222.3125,44.99301701028444L222.75000000000003,40.72647229774373L223.18750000000003,36.18634209599246L223.62499999999997,39.17957399030215L224.0625,39.333720066585265L224.5,45.26760792241782L224.9375,35.24306330386573L225.375,39.44548067234222L225.8125,44.27276513248045L226.25,43.263655805206454L226.6875,37.12347045557667L227.125,32.760626055898086L227.5625,43.55338580097866L228,38.11382532926068L228.4375,39.02118034846583L228.875,35.59368860535026L229.3125,30.32907159216521L229.75,29.356105179115048L230.1875,31.795457846238563L230.625,27.916378279317037L231.06250000000003,34.38905858583564L231.49999999999997,34.852598410371826L231.93749999999997,36.597634765420686L232.375,34.05194271380565L232.8125,35.03032893801647L233.25,22.330871313005204L233.6875,32.37001514187825L234.125,32.9758072838269L234.5625,17.471403114701232L235,23.337592978897646L235.4375,21.97975591398654L235.875,23.358603912059728L236.3125,21.14760418581819L236.75,29.576892843929052L237.1875,32.00191773837037L237.625,36.847367639533054L238.0625,32.85811140250646L238.5,34.62713862723995L238.9375,34.09239744305743L239.37500000000003,28.875634363254715L239.81249999999997,26.213367691215367L240.25,29.980713123426742L240.6875,26.483734270540428L241.125,30.447802818183625L241.5625,33.81828082980586L242,36.96413559942566L242.4375,37.183880205327995L242.875,22.328457853421426L243.3125,17.28920073184859L243.75,12.503209210674903L244.1875,24.29620646868602L244.625,36.77715132694119L245.0625,28.770805363221996L245.5,27.36875534317734L245.9375,29.8588604306887L246.375,22.603933837555495L246.8125,23.970177825218045L247.25,25.500163755372522L247.68750000000003,24.541303850147326L248.12499999999997,33.08677848394704L248.5625,44.56683050920164L249,35.90540121791517L249.4375,22.839957802282303L249.875,28.586641364566397L250.3125,18.360135555230723L250.75,17.940563170093203L251.1875,19.555095526364187L251.625,28.361117942802164L252.0625,28.7269769968621L252.5,37.45596762867961L252.9375,44.147723986936754L253.375,31.346858879466744L253.8125,34.626129536155794L254.25,39.61847388843135L254.6875,40.81937671561701L255.125,34.00078270153003L255.56250000000003,27.71275453557051L256,32.37515110645381L256.4375,28.33444411083272L256.875,28.88942096148459L257.3125,39.085860205776676L257.75,38.00483169938355L258.1875,40.44522864889241L258.625,45.82460016769847L259.0625,42.68620087362933L259.5,35.89072303170528L259.9375,47.03034020380912L260.375,49.374000777304616L260.8125,43.46149550447887L261.25,40.10456387144344L261.6875,37.90888690913925L262.125,28.60714810668553L262.5625,28.71125211067473L263,44.28047905215109L263.4375,47.85191452810258L263.875,38.51667894706582L264.3125,35.98491393994561L264.75,35.683715602584336L265.1875,30.722788235045073L265.625,27.483701551256527L266.0625,34.23193305589631L266.5,38.16186023865867L266.9375,39.80603763926861L267.375,35.570706463667776L267.8125,41.79339331993244L268.25,49.08167176212142L268.6875,41.673273559999075L269.125,52.50883305664358L269.5625,51.03786603169936L270,49.92955822680772L270.4375,47.19467214108136L270.875,42.45375749683755L271.3125,42.533753744064036L271.75,50.9633849330534L272.1875,35.75621349818245L272.625,43.47920859181923L273.0625,46.537334610963114L273.5,51.60250489509758L273.9375,54.93760716476036L274.375,47.78549453948731L274.8125,50.15570039750017" style="fill: none;" fill="none"></path></g></g></g></g><g opacity="0.2"><g><g><g><path stroke="rgb(255, 112, 67)" stroke-width="2px" d="M30.25,148.12115067538494L30.6875,148.35548919899156L31.125,148.33003317559874L31.5625,148.31321297913868L32,148.2880154833741L32.4375,148.30888045585016L32.875,148.32991469841122L33.3125,148.2630448184597L33.75,148.37882201140746L34.1875,148.47041520942003L34.625,148.4890061489617L35.0625,148.5341935302131L35.5,148.49505924495557L35.9375,148.59720038746795L36.375,148.60143769004694L36.8125,148.64643353161713L37.25,148.7374971738706L37.68749999999999,148.5011895370359L38.125,148.52141987113282L38.5625,148.58117062288025L39,148.7572655333206L39.4375,148.59176900455108L39.875,148.62074671344212L40.3125,148.34114671560624L40.75,148.22440583561547L41.1875,148.22902216296643L41.62500000000001,147.95146711543202L42.0625,147.7258023985972L42.5,147.53813655736545L42.9375,147.32207487896085L43.375,146.69603329524398L43.81249999999999,146.4263132636746L44.25,146.53646229828396L44.6875,146.6005510749916L45.125,146.42871833344302L45.5625,147.87251648958772L46,147.34967825437585L46.4375,148.75631525336453L46.875,148.71098857931793L47.3125,149.10092872319123L47.75,148.4505507002274L48.1875,149.64102420707545L48.625,148.22905780468136L49.0625,150.08182767530283L49.5,149.3775576663514L49.93750000000001,149.84491780400276L50.375,148.1016932829904L50.8125,147.9776331903413L51.25,146.22303369889656L51.6875,148.1760366507806L52.12499999999999,147.39225148161253L52.5625,142.37142907083035L53,143.93064457674822L53.4375,141.70756748318672L53.875,140.66200291117033L54.3125,138.92199052373567L54.75,137.66372150182724L55.1875,140.0763126115004L55.625,135.394052674373L56.06250000000001,143.69117601712546L56.5,146.0570264160633L56.9375,141.5240554213524L57.375,144.622502759099L57.8125,149.63690468793115L58.24999999999999,154.75143651664257L58.6875,149.3930463952323L59.125,140.0718494951725L59.5625,145.38535967965922L60,143.56583167612553L60.4375,146.7407790645957L60.875,144.9891389682889L61.3125,149.17224917622903L61.75,147.19473084434867L62.18750000000001,154.96859303116798L62.625,148.8759689939519L63.0625,145.37055703997612L63.5,146.411724584798L63.9375,146.1812293380499L64.375,146.9279398433864L64.8125,145.60404044389725L65.25,148.31319904709622L65.6875,150.19182187567154L66.125,148.0162645544236L66.5625,147.57365924554566L67,146.830400681744L67.4375,144.8191132893165L67.875,142.94331315159798L68.3125,149.26883341620365L68.75,143.9630600810051L69.1875,150.86233879377446L69.625,143.2315148214499L70.0625,149.85404517749944L70.5,148.3655099448515L70.9375,147.68375860278806L71.375,133.3662196795146L71.8125,144.2260254273812L72.25,147.5013586729765L72.6875,148.37910088710487L73.125,147.29164746403694L73.5625,141.7047554900249L74,139.31434159477553L74.4375,133.78357410430908L74.875,132.58378269275028L75.3125,139.27936607599258L75.75,137.39495047926903L76.1875,137.93222374717394L76.625,136.19948779543242L77.0625,127.05758706728619L77.50000000000001,124.79332826534909L77.9375,142.6988284488519L78.375,136.1687039633592L78.8125,142.59662724037966L79.25,146.9769327789545L79.6875,135.2277768353621L80.125,144.80543173352876L80.5625,137.54359930753708L81,150.73514285186926L81.4375,140.1033936838309L81.87499999999999,138.77152479688326L82.3125,140.9635081688563L82.75,134.83064966400465L83.1875,152.7680193980535L83.625,141.52232384184995L84.0625,145.7316634232799L84.5,130.41452425718307L84.9375,126.8256464799245L85.375,138.18960798780122L85.81250000000001,139.73161467909813L86.25,149.38760940358043L86.6875,128.30015295743942L87.125,133.3582836786906L87.5625,135.93386960029602L88,133.3100894490878L88.4375,135.68122963110605L88.875,133.19891824324924L89.3125,115.23888723055524L89.75000000000001,132.82930537064868L90.18749999999999,125.82249742746353L90.625,116.32915369669598L91.0625,134.24234585960707L91.5,123.61754997571308L91.9375,116.98151135444641L92.375,113.6010862191518L92.8125,122.81154900789261L93.25,127.01056520144147L93.6875,129.4867902000745L94.12499999999999,102.23027531305951L94.5625,125.00165182352066L95,100.67108809947968L95.4375,128.26438967386883L95.875,145.19183168808618L96.3125,136.40748952825865L96.75,123.79393325249356L97.1875,137.2329839169979L97.625,129.19718805948895L98.06250000000001,129.5286593238513L98.5,132.41836269696552L98.9375,142.69401256243387L99.375,112.54198376337689L99.8125,124.3346351981163L100.25,130.03258830308914L100.6875,111.39266057809192L101.125,135.29771284262338L101.5625,115.07858284314472L102.00000000000001,114.28135426839191L102.43749999999999,125.03302448987961L102.875,129.26731769243878L103.3125,118.43344231446582L103.75,113.09501055876416L104.1875,124.65119640032452L104.625,96.12967272599536L105.0625,115.47624226411182L105.5,96.02328999837238L105.9375,75.75639192263284L106.37499999999999,74.7991418838501L106.8125,68.80050134658813L107.25,68.77910526593527L107.6875,84.91689928372702L108.125,50.32721726099649L108.5625,64.58167521158853L109,87.09676734606424L109.4375,83.9288318157196L109.875,82.47349516550699L110.31250000000001,95.10044344266254L110.75,86.75517272949219L111.1875,108.25160984198254L111.625,96.89300000667572L112.0625,104.91881839434308L112.5,110.62374556064606L112.9375,95.76561045646667L113.375,107.59680843353271L113.8125,107.4272665977478L114.25,108.28632100423175L114.68749999999999,107.24776585896808L115.125,108.12609795729321L115.5625,102.30008312066394L116,114.24864832560223L116.4375,100.6617728471756L116.875,129.177072207133L117.3125,95.74310036500293L117.75,119.43306720256805L118.1875,123.91786607106525L118.62500000000001,110.62002865473431L119.0625,110.25142192840576L119.5,122.98231271902722L119.9375,111.07158851623535L120.375,118.06862676143646L120.8125,101.38719900449115L121.25,119.99288769563037L121.6875,125.75982813040417L122.125,116.07306913534802L122.56250000000001,117.18277597427368L122.99999999999999,102.49998617172241L123.4375,124.35969867308933L123.875,116.60921955108643L124.3125,123.81823460261029L124.75,115.35018221537274L125.1875,119.41980163256329L125.625,114.73415899276733L126.0625,114.74576592445374L126.5,106.87153081099194L126.93749999999999,126.83553818861645L127.375,105.57930656274158L127.8125,104.56906143824261L128.25,117.78285292784375L128.6875,93.3437757094701L129.125,108.38338847955066L129.5625,126.36974728107452L130,120.97292721271515L130.4375,117.96018930276233L130.875,124.57781491676968L131.3125,116.80762310822803L131.75,90.14901550610858L132.1875,106.7428042093913L132.625,108.83046754201251L133.0625,93.71849004427594L133.5,99.95070858796436L133.9375,96.93723154067993L134.375,111.33140059312183L134.8125,81.33320784568787L135.25,115.42201292514801L135.6875,114.76496227582294L136.125,69.4603918393453L136.5625,109.10103778044385L137,101.88399477799732L137.4375,104.30391625563306L137.875,106.6585425535838L138.3125,120.15850396951038L138.75,111.68675943215686L139.1875,112.44626371065777L139.625,111.35433860619861L140.0625,104.11635220050812L140.5,110.85654552777606L140.9375,95.95739714304608L141.375,116.77844309806824L141.8125,87.73856488863626L142.25,91.66727431615192L142.6875,115.16495581467944L143.125,111.43749332427979L143.5625,113.44696370760602L144,128.29033197959262L144.4375,105.54247347513837L144.875,115.21130927403766L145.3125,95.55181233088177L145.75,105.7784315745036L146.1875,128.40682921806973L146.625,109.4761694272359L147.0625,127.77736183007556L147.5,88.80759088198343L147.9375,103.443235039711L148.375,124.06403666734695L148.8125,112.2359207868576L149.25,120.68997377157211L149.6875,102.26616414388019L150.125,96.11411547660828L150.5625,126.7896020412445L151,114.09760967890423L151.4375,124.5170801083247L151.875,115.64288059870404L152.3125,85.28418334325156L152.75,95.82301561037701L153.1875,88.75734368960062L153.625,110.81940122445423L154.0625,106.36692635218304L154.5,102.73868862787884L154.9375,87.00435042381287L155.375,120.63594071070355L155.8125,90.06523128350574L156.25,75.00059040387472L156.6875,107.41299664974213L157.12500000000003,111.41340947151184L157.56250000000003,107.09652209281921L157.99999999999997,88.4736422697703L158.4375,94.14912064870197L158.875,105.55853645006817L159.3125,94.37740445137024L159.75,64.50956511497498L160.1875,109.36818818251294L160.625,106.56514247258502L161.0625,104.22667817274731L161.5,111.93759576479596L161.9375,107.9775561094284L162.375,86.74763989448547L162.8125,97.95605278015137L163.25,67.69460336367288L163.6875,87.56450335184732L164.125,88.04831647872925L164.5625,79.18360551198325L165,115.78155195713043L165.43750000000003,102.95501184463501L165.87499999999997,118.02520155906677L166.31249999999997,119.4837794502576L166.75,87.47228447596231L167.1875,72.69245902697244L167.625,70.87522800763449L168.0625,99.00460926691693L168.5,124.48643243312836L168.9375,90.60760247707367L169.375,102.16213321685791L169.8125,100.21908617019653L170.25,121.38627827167511L170.6875,95.74969955285388L171.125,116.08315535386402L171.5625,92.93390107154846L172,115.54037038485211L172.4375,101.27354160944623L172.875,67.12978927294412L173.3125,86.63978242874146L173.75000000000003,102.04879764715832L174.18749999999997,92.90076367060345L174.625,108.12593173980713L175.0625,89.24212582906085L175.5,97.75528681278229L175.9375,85.7788253625234L176.375,79.25991702079773L176.8125,91.92729151248932L177.25,117.52314341068268L177.6875,95.01219964027405L178.125,81.19678219159445L178.5625,119.05545820792514L179,105.91100239753723L179.4375,81.64310797055563L179.875,103.61795790990192L180.3125,108.36020998160046L180.75,89.09766161441803L181.1875,105.53466832637787L181.625,69.581334511439L182.06250000000003,105.26824291547138L182.49999999999997,87.11060937245688L182.9375,93.13003416856128L183.375,70.46668664614359L183.8125,19.577958424886074L184.25,-2.4052165349324413L184.6875,-25.372314135233573L185.125,17.512363115946446L185.5625,35.747878392537444L186,43.29977536201477L186.4375,53.903807322184235L186.875,72.5063520272573L187.3125,85.60557723045349L187.75,90.37915245691937L188.1875,74.79643996556601L188.625,100.56766545772552L189.0625,95.75749055544537L189.5,60.07583038012186L189.93750000000003,98.51522608598071L190.37500000000003,84.48545527458191L190.81249999999997,80.04718669255575L191.25,98.49972542126972L191.6875,116.54824956258136L192.125,55.88925751050314L192.5625,90.00033926963806L193,82.44572623570761L193.4375,109.12475029627484L193.875,82.7967280546824L194.3125,76.36887860298157L194.75,101.14841167132062L195.1875,91.2253868977229L195.625,84.30544527371725L196.0625,82.9791853427887L196.5,85.0113249619802L196.9375,77.51831142107645L197.375,74.55090490976968L197.8125,55.89164113998413L198.25000000000003,102.71801753838855L198.68749999999997,91.25050695737201L199.12499999999997,55.28421171506247L199.5625,85.65458663304648L200,68.15465092658997L200.4375,85.90244166056314L200.875,70.31561263402304L201.3125,84.15017692248026L201.75,93.91896955172223L202.1875,98.95239575703937L202.625,79.17675169308981L203.0625,84.99613904953003L203.5,72.15967186292013L203.9375,55.91924738883972L204.375,82.28282602628073L204.8125,42.572237888971955L205.25,70.24021355311075L205.6875,55.787949721018464L206.125,71.57537142435709L206.56250000000003,68.39365045229593L206.99999999999997,65.9249600569407L207.4375,43.548160870869964L207.875,51.034737904866546L208.3125,71.69878260294595L208.75,77.73892800013223L209.1875,70.01334436734518L209.625,57.88939849535623L210.0625,39.69151202837625L210.5,35.21035933494568L210.9375,47.30526312192282L211.375,42.960097551345825L211.8125,16.769972165425624L212.25,41.944692611694336L212.6875,37.14897863070169L213.125,27.521810372670497L213.5625,65.55538431803384L214,50.01011673609415L214.4375,32.24083089828491L214.87500000000003,58.098719358444214L215.31249999999997,66.74446884791055L215.75,37.48249578475952L216.1875,59.38060275713602L216.625,52.318806886672974L217.0625,47.18478727340698L217.5,51.928839445114136L217.9375,47.72290754318237L218.375,24.616272131601963L218.8125,50.57113258043924L219.25,56.45496988296509L219.6875,48.35449155171713L220.125,31.987473011016846L220.5625,39.47366809844971L221,55.20501438776651L221.4375,28.08491277694702L221.875,41.96464578310648L222.3125,51.98052247365317L222.75000000000003,34.32665522893271L223.18750000000003,29.37614679336548L223.62499999999997,43.669421831766755L224.0625,39.56493918100992L224.5,54.168439706166595L224.9375,20.206246376037598L225.375,45.749106725056976L225.8125,51.513691822687775L226.25,41.74999181429544L226.6875,27.913192431131993L227.125,26.216359456380214L227.5625,59.742525418599456L228,29.95448462168375L228.4375,40.38221287727356L228.875,30.45245099067688L229.3125,22.432146072387695L229.75,27.896655559539795L230.1875,35.45448684692383L230.625,22.097758928934727L231.06250000000003,44.098079045613616L231.49999999999997,35.547908147176116L231.93749999999997,39.21518929799399L232.375,30.233404636383057L232.8125,36.49790827433267L233.25,3.2816848754882812L233.6875,47.428730885187775L234.125,33.88449549674988L234.5625,-5.785203138987237L235,32.13687777519226L235.4375,19.943000316619873L235.875,25.42687590916952L236.3125,17.831104596455898L236.75,42.22082583109537L237.1875,35.63945508003235L237.625,44.11554249127707L238.0625,26.874227046966553L238.5,37.28067946434021L238.9375,33.29028566678366L239.37500000000003,21.050489743550624L239.81249999999997,22.219967683156337L240.25,35.631731271743774L240.6875,21.238265991210938L241.125,36.39390563964844L241.5625,38.87399784723917L242,41.68291775385538L242.4375,37.51349711418152L242.875,0.04532432556152344L243.3125,9.730315049489345L243.75,5.324221928914395L244.1875,41.98570235570273L244.625,55.49856861432394L245.0625,16.761286417643223L245.5,25.26568031311035L245.9375,33.59401806195578L246.375,11.721543947855626L246.8125,26.019543806711827L247.25,27.795142650604248L247.68750000000003,23.10301399230957L248.12499999999997,45.904990434646606L248.5625,61.78690854708353L249,22.91325728098551L249.4375,3.241792678833008L249.875,37.206666707992554L250.3125,3.0203768412272067L250.75,17.311204592386876L251.1875,21.976894060770665L251.625,41.570151567459106L252.0625,29.27576557795206L252.5,50.54945357640585L252.9375,54.18535852432251L253.375,12.145561218261719L253.8125,39.54503552118936L254.25,47.106990416844695L254.6875,42.62073095639548L255.125,23.77289168039957L255.56250000000003,18.28071228663126L256,39.36874596277872L256.4375,22.273383617401123L256.875,29.721886237462368L257.3125,54.38051907221475L257.75,36.383288939793914L258.1875,44.10582407315573L258.625,53.89365744590759L259.0625,37.978601932525635L259.5,25.69750626881918L259.9375,63.739765961964935L260.375,52.88949163754782L260.8125,34.592737595240266L261.25,35.06916642189026L261.6875,34.61537146568298L262.125,14.65453990300497L262.5625,28.867408116658535L263,67.63431946436563L263.4375,53.209067742029816L263.875,24.513825575510655L264.3125,32.18726642926535L264.75,35.23191809654236L265.1875,23.28139718373617L265.625,22.62507152557373L266.0625,44.35428031285605L266.5,44.056751012802124L266.9375,42.2723037401835L267.375,29.217709700266514L267.8125,51.12742360432944L268.25,60.014089425404876L268.6875,30.560676256815587L269.125,68.76217230161032L269.5625,48.83141549428305L270,48.267096519470215L270.4375,43.09234301249185L270.875,35.3423855304718L271.3125,42.65374811490378L271.75,63.607831716537476L272.1875,12.945456345876064L272.625,55.06370123227438L273.0625,51.124523639678955L273.5,59.200260321299226L273.9375,59.94026056925455L274.375,37.05732560157776L274.8125,53.71100918451944" style="fill: none;" fill="none"></path></g></g></g></g></g></g><g transform="translate(30, 178)" clip-path="url(#clip_1)"><clipPath id="clip_1"><rect width="300" height="22"></rect></clipPath><g><g><line x1="0" y1="0" x2="0" y2="5" style="visibility: inherit;" fill="rgb(0, 0, 0)" stroke="rgb(204, 204, 204)" stroke-width="1px"></line><line x1="25" y1="0" x2="25" y2="5" style="visibility: inherit;" fill="rgb(0, 0, 0)" stroke="rgb(204, 204, 204)" stroke-width="1px"></line><line x1="50" y1="0" x2="50" y2="5" style="visibility: inherit;" fill="rgb(0, 0, 0)" stroke="rgb(204, 204, 204)" stroke-width="1px"></line><line x1="75" y1="0" x2="75" y2="5" style="visibility: inherit;" fill="rgb(0, 0, 0)" stroke="rgb(204, 204, 204)" stroke-width="1px"></line><line x1="100" y1="0" x2="100" y2="5" style="visibility: inherit;" fill="rgb(0, 0, 0)" stroke="rgb(204, 204, 204)" stroke-width="1px"></line><line x1="125" y1="0" x2="125" y2="5" style="visibility: inherit;" fill="rgb(0, 0, 0)" stroke="rgb(204, 204, 204)" stroke-width="1px"></line><line x1="150" y1="0" x2="150" y2="5" style="visibility: inherit;" fill="rgb(0, 0, 0)" stroke="rgb(204, 204, 204)" stroke-width="1px"></line><line x1="175" y1="0" x2="175" y2="5" style="visibility: inherit;" fill="rgb(0, 0, 0)" stroke="rgb(204, 204, 204)" stroke-width="1px"></line><line x1="200" y1="0" x2="200" y2="5" style="visibility: inherit;" fill="rgb(0, 0, 0)" stroke="rgb(204, 204, 204)" stroke-width="1px"></line><line x1="225" y1="0" x2="225" y2="5" style="visibility: inherit;" fill="rgb(0, 0, 0)" stroke="rgb(204, 204, 204)" stroke-width="1px"></line><line x1="250" y1="0" x2="250" y2="5" style="visibility: inherit;" fill="rgb(0, 0, 0)" stroke="rgb(204, 204, 204)" stroke-width="1px"></line><line x1="275" y1="0" x2="275" y2="5" style="visibility: inherit;" fill="rgb(0, 0, 0)" stroke="rgb(204, 204, 204)" stroke-width="1px"></line><line x1="300" y1="0" x2="300" y2="5" style="visibility: inherit;" fill="rgb(0, 0, 0)" stroke="rgb(204, 204, 204)" stroke-width="1px"></line></g><g transform="translate(0, 8)"><text x="0" y="0" dx="0em" dy="0.95em" style="text-anchor: middle; visibility: hidden; font-family: Roboto, sans-serif; font-size: 12px; font-weight: 200;" fill="rgb(50, 49, 63)" stroke="none" stroke-width="1px">-2k</text><text x="25" y="0" dx="0em" dy="0.95em" style="text-anchor: middle; visibility: inherit; font-family: Roboto, sans-serif; font-size: 12px; font-weight: 200;" fill="rgb(50, 49, 63)" stroke="none" stroke-width="1px">0</text><text x="50" y="0" dx="0em" dy="0.95em" style="text-anchor: middle; visibility: inherit; font-family: Roboto, sans-serif; font-size: 12px; font-weight: 200;" fill="rgb(50, 49, 63)" stroke="none" stroke-width="1px">2k</text><text x="75" y="0" dx="0em" dy="0.95em" style="text-anchor: middle; visibility: inherit; font-family: Roboto, sans-serif; font-size: 12px; font-weight: 200;" fill="rgb(50, 49, 63)" stroke="none" stroke-width="1px">4k</text><text x="100" y="0" dx="0em" dy="0.95em" style="text-anchor: middle; visibility: inherit; font-family: Roboto, sans-serif; font-size: 12px; font-weight: 200;" fill="rgb(50, 49, 63)" stroke="none" stroke-width="1px">6k</text><text x="125" y="0" dx="0em" dy="0.95em" style="text-anchor: middle; visibility: inherit; font-family: Roboto, sans-serif; font-size: 12px; font-weight: 200;" fill="rgb(50, 49, 63)" stroke="none" stroke-width="1px">8k</text><text x="150" y="0" dx="0em" dy="0.95em" style="text-anchor: middle; visibility: inherit; font-family: Roboto, sans-serif; font-size: 12px; font-weight: 200;" fill="rgb(50, 49, 63)" stroke="none" stroke-width="1px">10k</text><text x="175" y="0" dx="0em" dy="0.95em" style="text-anchor: middle; visibility: inherit; font-family: Roboto, sans-serif; font-size: 12px; font-weight: 200;" fill="rgb(50, 49, 63)" stroke="none" stroke-width="1px">12k</text><text x="200" y="0" dx="0em" dy="0.95em" style="text-anchor: middle; visibility: inherit; font-family: Roboto, sans-serif; font-size: 12px; font-weight: 200;" fill="rgb(50, 49, 63)" stroke="none" stroke-width="1px">14k</text><text x="225" y="0" dx="0em" dy="0.95em" style="text-anchor: middle; visibility: inherit; font-family: Roboto, sans-serif; font-size: 12px; font-weight: 200;" fill="rgb(50, 49, 63)" stroke="none" stroke-width="1px">16k</text><text x="250" y="0" dx="0em" dy="0.95em" style="text-anchor: middle; visibility: inherit; font-family: Roboto, sans-serif; font-size: 12px; font-weight: 200;" fill="rgb(50, 49, 63)" stroke="none" stroke-width="1px">18k</text><text x="275" y="0" dx="0em" dy="0.95em" style="text-anchor: middle; visibility: inherit; font-family: Roboto, sans-serif; font-size: 12px; font-weight: 200;" fill="rgb(50, 49, 63)" stroke="none" stroke-width="1px">20k</text><text x="300" y="0" dx="0em" dy="0.95em" style="text-anchor: middle; visibility: hidden; font-family: Roboto, sans-serif; font-size: 12px; font-weight: 200;" fill="rgb(50, 49, 63)" stroke="none" stroke-width="1px">22k</text></g><line x1="0" y1="0" x2="300" y2="0" fill="rgb(0, 0, 0)" stroke="rgb(204, 204, 204)" stroke-width="1px"></line></g></g></g></g></svg>