<svg viewBox="0 0 330 200" xmlns="http://www.w3.org/2000/svg"><g><g><g><g><g><line x1="51.5625" y1="178" x2="46.5625" y2="178" style="visibility: inherit;" fill="rgb(0, 0, 0)" stroke="rgb(204, 204, 204)" stroke-width="1px"></line><line x1="51.5625" y1="163.16666666666666" x2="46.5625" y2="163.16666666666666" style="visibility: inherit;" fill="rgb(0, 0, 0)" stroke="rgb(204, 204, 204)" stroke-width="1px"></line><line x1="51.5625" y1="148.33333333333334" x2="46.5625" y2="148.33333333333334" style="visibility: inherit;" fill="rgb(0, 0, 0)" stroke="rgb(204, 204, 204)" stroke-width="1px"></line><line x1="51.5625" y1="133.5" x2="46.5625" y2="133.5" style="visibility: inherit;" fill="rgb(0, 0, 0)" stroke="rgb(204, 204, 204)" stroke-width="1px"></line><line x1="51.5625" y1="118.66666666666669" x2="46.5625" y2="118.66666666666669" style="visibility: inherit;" fill="rgb(0, 0, 0)" stroke="rgb(204, 204, 204)" stroke-width="1px"></line><line x1="51.5625" y1="103.83333333333331" x2="46.5625" y2="103.83333333333331" style="visibility: inherit;" fill="rgb(0, 0, 0)" stroke="rgb(204, 204, 204)" stroke-width="1px"></line><line x1="51.5625" y1="89" x2="46.5625" y2="89" style="visibility: inherit;" fill="rgb(0, 0, 0)" stroke="rgb(204, 204, 204)" stroke-width="1px"></line><line x1="51.5625" y1="74.16666666666666" x2="46.5625" y2="74.16666666666666" style="visibility: inherit;" fill="rgb(0, 0, 0)" stroke="rgb(204, 204, 204)" stroke-width="1px"></line><line x1="51.5625" y1="59.33333333333334" x2="46.5625" y2="59.33333333333334" style="visibility: inherit;" fill="rgb(0, 0, 0)" stroke="rgb(204, 204, 204)" stroke-width="1px"></line><line x1="51.5625" y1="44.5" x2="46.5625" y2="44.5" style="visibility: inherit;" fill="rgb(0, 0, 0)" stroke="rgb(204, 204, 204)" stroke-width="1px"></line><line x1="51.5625" y1="29.66666666666666" x2="46.5625" y2="29.66666666666666" style="visibility: inherit;" fill="rgb(0, 0, 0)" stroke="rgb(204, 204, 204)" stroke-width="1px"></line><line x1="51.5625" y1="14.83333333333334" x2="46.5625" y2="14.83333333333334" style="visibility: inherit;" fill="rgb(0, 0, 0)" stroke="rgb(204, 204, 204)" stroke-width="1px"></line><line x1="51.5625" y1="0" x2="46.5625" y2="0" style="visibility: inherit;" fill="rgb(0, 0, 0)" stroke="rgb(204, 204, 204)" stroke-width="1px"></line></g><g transform="translate(41.5625, 0)"><text x="0" y="178" dx="0em" dy="0.3em" style="text-anchor: end; visibility: hidden; font-family: Roboto, sans-serif; font-size: 12px; font-weight: 200;" fill="rgb(50, 49, 63)" stroke="none" stroke-width="1px">-500</text><text x="0" y="163.16666666666666" dx="0em" dy="0.3em" style="text-anchor: end; visibility: inherit; font-family: Roboto, sans-serif; font-size: 12px; font-weight: 200;" fill="rgb(50, 49, 63)" stroke="none" stroke-width="1px">-450</text><text x="0" y="148.33333333333334" dx="0em" dy="0.3em" style="text-anchor: end; visibility: hidden; font-family: Roboto, sans-serif; font-size: 12px; font-weight: 200;" fill="rgb(50, 49, 63)" stroke="none" stroke-width="1px">-400</text><text x="0" y="133.5" dx="0em" dy="0.3em" style="text-anchor: end; visibility: inherit; font-family: Roboto, sans-serif; font-size: 12px; font-weight: 200;" fill="rgb(50, 49, 63)" stroke="none" stroke-width="1px">-350</text><text x="0" y="118.66666666666669" dx="0em" dy="0.3em" style="text-anchor: end; visibility: hidden; font-family: Roboto, sans-serif; font-size: 12px; font-weight: 200;" fill="rgb(50, 49, 63)" stroke="none" stroke-width="1px">-300</text><text x="0" y="103.83333333333331" dx="0em" dy="0.3em" style="text-anchor: end; visibility: inherit; font-family: Roboto, sans-serif; font-size: 12px; font-weight: 200;" fill="rgb(50, 49, 63)" stroke="none" stroke-width="1px">-250</text><text x="0" y="89" dx="0em" dy="0.3em" style="text-anchor: end; visibility: hidden; font-family: Roboto, sans-serif; font-size: 12px; font-weight: 200;" fill="rgb(50, 49, 63)" stroke="none" stroke-width="1px">-200</text><text x="0" y="74.16666666666666" dx="0em" dy="0.3em" style="text-anchor: end; visibility: inherit; font-family: Roboto, sans-serif; font-size: 12px; font-weight: 200;" fill="rgb(50, 49, 63)" stroke="none" stroke-width="1px">-150</text><text x="0" y="59.33333333333334" dx="0em" dy="0.3em" style="text-anchor: end; visibility: hidden; font-family: Roboto, sans-serif; font-size: 12px; font-weight: 200;" fill="rgb(50, 49, 63)" stroke="none" stroke-width="1px">-100</text><text x="0" y="44.5" dx="0em" dy="0.3em" style="text-anchor: end; visibility: inherit; font-family: Roboto, sans-serif; font-size: 12px; font-weight: 200;" fill="rgb(50, 49, 63)" stroke="none" stroke-width="1px">-50</text><text x="0" y="29.66666666666666" dx="0em" dy="0.3em" style="text-anchor: end; visibility: hidden; font-family: Roboto, sans-serif; font-size: 12px; font-weight: 200;" fill="rgb(50, 49, 63)" stroke="none" stroke-width="1px">0</text><text x="0" y="14.83333333333334" dx="0em" dy="0.3em" style="text-anchor: end; visibility: inherit; font-family: Roboto, sans-serif; font-size: 12px; font-weight: 200;" fill="rgb(50, 49, 63)" stroke="none" stroke-width="1px">50</text><text x="0" y="0" dx="0em" dy="0.3em" style="text-anchor: end; visibility: hidden; font-family: Roboto, sans-serif; font-size: 12px; font-weight: 200;" fill="rgb(50, 49, 63)" stroke="none" stroke-width="1px">100</text></g><line x1="51.5625" y1="0" x2="51.5625" y2="178" fill="rgb(0, 0, 0)" stroke="rgb(204, 204, 204)" stroke-width="1px"></line></g></g><g transform="translate(51, 0)" clip-path="url(#clip_0)"><clipPath id="clip_0"><rect width="278" height="178"></rect></clipPath><g><g><g><line x1="0" y1="0" x2="0" y2="178" fill="rgb(0, 0, 0)" stroke="rgb(60, 60, 60)" stroke-width="1px" opacity="0.25"></line><line x1="23.203125" y1="0" x2="23.203125" y2="178" fill="rgb(0, 0, 0)" stroke="rgb(60, 60, 60)" stroke-width="1px" opacity="0.25"></line><line x1="46.40625" y1="0" x2="46.40625" y2="178" fill="rgb(0, 0, 0)" stroke="rgb(60, 60, 60)" stroke-width="1px" opacity="0.25"></line><line x1="69.609375" y1="0" x2="69.609375" y2="178" fill="rgb(0, 0, 0)" stroke="rgb(60, 60, 60)" stroke-width="1px" opacity="0.25"></line><line x1="92.8125" y1="0" x2="92.8125" y2="178" fill="rgb(0, 0, 0)" stroke="rgb(60, 60, 60)" stroke-width="1px" opacity="0.25"></line><line x1="116.015625" y1="0" x2="116.015625" y2="178" fill="rgb(0, 0, 0)" stroke="rgb(60, 60, 60)" stroke-width="1px" opacity="0.25"></line><line x1="139.21875" y1="0" x2="139.21875" y2="178" fill="rgb(0, 0, 0)" stroke="rgb(60, 60, 60)" stroke-width="1px" opacity="0.25"></line><line x1="162.421875" y1="0" x2="162.421875" y2="178" fill="rgb(0, 0, 0)" stroke="rgb(60, 60, 60)" stroke-width="1px" opacity="0.25"></line><line x1="185.625" y1="0" x2="185.625" y2="178" fill="rgb(0, 0, 0)" stroke="rgb(60, 60, 60)" stroke-width="1px" opacity="0.25"></line><line x1="208.828125" y1="0" x2="208.828125" y2="178" fill="rgb(0, 0, 0)" stroke="rgb(60, 60, 60)" stroke-width="1px" opacity="0.25"></line><line x1="232.03125" y1="0" x2="232.03125" y2="178" fill="rgb(0, 0, 0)" stroke="rgb(60, 60, 60)" stroke-width="1px" opacity="0.25"></line><line x1="255.234375" y1="0" x2="255.234375" y2="178" fill="rgb(0, 0, 0)" stroke="rgb(60, 60, 60)" stroke-width="1px" opacity="0.25"></line><line x1="278.4375" y1="0" x2="278.4375" y2="178" fill="rgb(0, 0, 0)" stroke="rgb(60, 60, 60)" stroke-width="1px" opacity="0.25"></line></g><g><line x1="0" y1="178" x2="278.4375" y2="178" fill="rgb(0, 0, 0)" stroke="rgb(60, 60, 60)" stroke-width="1px" opacity="0.25"></line><line x1="0" y1="163.16666666666666" x2="278.4375" y2="163.16666666666666" fill="rgb(0, 0, 0)" stroke="rgb(60, 60, 60)" stroke-width="1px" opacity="0.25"></line><line x1="0" y1="148.33333333333334" x2="278.4375" y2="148.33333333333334" fill="rgb(0, 0, 0)" stroke="rgb(60, 60, 60)" stroke-width="1px" opacity="0.25"></line><line x1="0" y1="133.5" x2="278.4375" y2="133.5" fill="rgb(0, 0, 0)" stroke="rgb(60, 60, 60)" stroke-width="1px" opacity="0.25"></line><line x1="0" y1="118.66666666666669" x2="278.4375" y2="118.66666666666669" fill="rgb(0, 0, 0)" stroke="rgb(60, 60, 60)" stroke-width="1px" opacity="0.25"></line><line x1="0" y1="103.83333333333331" x2="278.4375" y2="103.83333333333331" fill="rgb(0, 0, 0)" stroke="rgb(60, 60, 60)" stroke-width="1px" opacity="0.25"></line><line x1="0" y1="89" x2="278.4375" y2="89" fill="rgb(0, 0, 0)" stroke="rgb(60, 60, 60)" stroke-width="1px" opacity="0.25"></line><line x1="0" y1="74.16666666666666" x2="278.4375" y2="74.16666666666666" fill="rgb(0, 0, 0)" stroke="rgb(60, 60, 60)" stroke-width="1px" opacity="0.25"></line><line x1="0" y1="59.33333333333334" x2="278.4375" y2="59.33333333333334" fill="rgb(0, 0, 0)" stroke="rgb(60, 60, 60)" stroke-width="1px" opacity="0.25"></line><line x1="0" y1="44.5" x2="278.4375" y2="44.5" fill="rgb(0, 0, 0)" stroke="rgb(60, 60, 60)" stroke-width="1px" opacity="0.25"></line><line x1="0" y1="29.66666666666666" x2="278.4375" y2="29.66666666666666" fill="rgb(0, 0, 0)" stroke="rgb(60, 60, 60)" stroke-width="1px" opacity="0.25"></line><line x1="0" y1="14.83333333333334" x2="278.4375" y2="14.83333333333334" fill="rgb(0, 0, 0)" stroke="rgb(60, 60, 60)" stroke-width="1px" opacity="0.25"></line><line x1="0" y1="0" x2="278.4375" y2="0" fill="rgb(0, 0, 0)" stroke="rgb(60, 60, 60)" stroke-width="1px" opacity="0.25"></line></g></g></g><g><g><line x1="0" y1="29.66666666666666" x2="278.4375" y2="29.66666666666666" fill="rgb(0, 0, 0)" stroke="rgb(153, 153, 153)" stroke-width="1.5px"></line></g></g><g><g><line x1="23.203125" y1="0" x2="23.203125" y2="178" fill="rgb(0, 0, 0)" stroke="rgb(153, 153, 153)" stroke-width="1.5px"></line></g></g><g><g><g><g><g><path stroke="rgb(255, 112, 67)" stroke-width="2px" d="M23.6671875,26.85270676294963L24.13125,53.06401568333307L24.5953125,114.00851470441235L25.059375,168.91204844594L25.523437499999996,246.2042185395651L30.1640625,194.12844803881498L30.628125,161.36792111962416L31.092187499999998,130.35516737209835L23.6671875,88.82796906629217L24.13125,80.63896665938415L24.5953125,107.43208607564719L25.059375,144.4173211266849L25.523437499999996,209.96930203183183L30.628125,215.27595308711895L31.092187499999998,177.14245194459738L31.55625,141.91823173066274L32.0203125,107.36719158119345L32.484375,86.67266783781604L32.9484375,72.39804879014746L33.4125,63.91045255636697L33.8765625,56.128369942606945L34.340625,50.74340570961755L34.8046875,45.122003455210525L35.268750000000004,41.296156051513826L35.7328125,37.79594616198933L36.196875,34.52845229083745L36.660937499999996,32.41184516854465L37.125,31.762494040469146L37.589062500000004,32.605632194462366L38.053124999999994,34.211636849454585L38.5171875,37.03186253673818L38.98125,40.903687203865076L39.4453125,42.573896241594746L39.909375000000004,45.1834546984933L40.373437499999994,47.477404677415436L40.8375,48.532648932345104L41.3015625,49.36899513129867L41.765625,50.51562099642268L42.229687500000004,53.469588265578615L42.693749999999994,54.780986398474894L43.1578125,58.47038920236636L43.621875,63.671855693457715L44.0859375,65.5575473353455L44.550000000000004,66.1330418696318L45.014062499999994,65.53246914440275L45.478125,66.62702707990337L45.9421875,61.29816599566336L46.40625,55.55373587059138L46.8703125,55.42152202976042L47.334375,53.6399990129409L47.7984375,47.84818319479253L48.2625,49.82680626900768L48.7265625,48.99588582947914L49.190625,47.44848227283397L49.6546875,47.73101196094973L50.11875,47.80740497726972L50.5828125,49.124271131706884L51.04687499999999,48.37333070982653L51.5109375,49.38650836445387L51.975,47.17310572261111L52.4390625,46.13918539910215L52.903125,46.30384554427085L53.36718750000001,45.35266271901857L53.83125,45.42211040301758L54.2953125,45.77493316787664L54.759375,44.72500674012214L55.2234375,44.15872177173442L55.6875,44.182175069469686L56.1515625,44.7932624594878L56.615625,43.717090756128876L57.0796875,44.16445202956438L57.54375,43.757162657557956L58.0078125,43.451133465913365L58.471875,41.42915791107063L58.9359375,40.22399311649508L59.400000000000006,39.0164334446651L59.864062499999996,38.93354772447323L60.328125,38.639231745951015L60.7921875,38.664145622582815L61.25625,37.118830805658256L61.720312500000006,35.669795511745775L62.184374999999996,35.923689138203876L62.6484375,35.973462646232065L63.1125,35.33956507426063L63.5765625,35.12937404923576L64.040625,34.84127187903487L64.5046875,34.39701157102442L64.96875,32.97322517146344L65.4328125,33.591363134799444L65.896875,33.67434998410029L66.3609375,33.99579233553261L66.825,34.113099549370496L67.2890625,34.11224954209178L67.753125,33.26854457109044L68.2171875,34.26741433268112L68.68125,34.77565930568371L69.1453125,35.511135777095106L69.609375,36.242731151417395L70.0734375,36.13269954798747L70.53750000000001,37.12145357838151L71.0015625,37.31854807832367L71.465625,37.207166734567444L71.92968750000001,37.27752136438954L72.39375,35.79053768410208L72.8578125,35.126037309252744L73.32187499999999,35.36611470275136L73.7859375,35.01310165246137L74.25,34.04511465740089L74.7140625,34.34060373198123L75.17812500000001,33.637485450095724L75.6421875,32.64575196201808L76.10624999999999,33.89520521570369L76.5703125,35.287633820747075L77.034375,34.780490756417166L77.4984375,35.21511138398539L77.9625,34.58937209263895L78.4265625,33.93009695324573L78.890625,34.75912328374349L79.3546875,33.46327252180556L79.81875000000001,33.888310408937016L80.2828125,33.623377684164296L80.74687499999999,34.00007281156871L81.2109375,33.86382834092275L81.675,33.76057133342127L82.1390625,34.11376746741115L82.603125,33.463858205361234L83.0671875,34.8735663168528L83.53125,34.64445277076353L83.99531250000001,35.813445595868764L84.45937500000001,35.132223475278415L84.92343749999999,33.898866100649656L85.38749999999999,32.68299158180193L85.8515625,33.8340956438647L86.315625,35.08724665481246L86.7796875,35.509495761543896L87.24375,36.25973518428229L87.7078125,35.00449026014619L88.171875,33.878069248912006L88.63593750000001,34.24152945624825L89.10000000000001,34.82654815165424L89.56406249999999,34.119202755738634L90.02812499999999,34.35883344136635L90.4921875,34.08402648490444L90.95625,34.26265180962349L91.4203125,33.57972543941178L91.884375,33.15353256106121L92.3484375,33.18543617685483L92.8125,33.155445306220734L93.27656250000001,32.571427591752446L93.740625,32.584180583066605L94.20468749999999,32.2831538595598L94.66875,32.710745629181936L95.1328125,31.87596949925651L95.596875,31.631044714156562L96.0609375,32.57433401487496L96.525,32.39062559609944L96.9890625,33.03533846826554L97.453125,32.57886801448187L97.91718750000001,31.45942645561726L98.38125,31.670368887973034L98.84531249999999,31.890210847452593L99.309375,31.839103865700157L99.7734375,32.182479210899594L100.2375,32.211286757751104L100.70156250000001,31.873451517083517L101.165625,32.436379970664746L101.6296875,31.964336201799895L102.09374999999999,31.391208877197684L102.5578125,31.750821354964447L103.021875,31.984549949514317L103.48593749999999,31.188851001310823L103.95,31.54023359349278L104.4140625,31.22678903610055L104.878125,30.042451413654568L105.34218750000001,29.115311789939756L105.80625,28.808360186197326L106.2703125,29.201074265466918L106.73437500000001,29.600980777001443L107.1984375,29.674055352999424L107.6625,30.20768913666029L108.12656249999999,30.60725878254345L108.590625,30.49795601504506L109.0546875,30.361170320058644L109.51875,29.783843619075295L109.98281250000001,29.01669342488858L110.446875,29.0504777550547L110.91093749999999,29.37756426659318L111.375,29.32092545640723L111.8390625,30.282701787465346L112.303125,29.82215188792161L112.7671875,30.951612744793156L113.23125,30.31329902231586L113.6953125,29.869902459819464L114.159375,29.98641591964523L114.62343750000001,29.61993590032078L115.0875,29.19717892357716L115.55156249999999,28.336172296061186L116.015625,27.999031259767666L116.4796875,28.135162497213944L116.94375,28.968621342093634L117.4078125,28.323020317819246L117.871875,28.087394737561468L118.3359375,28.386840101814222L118.80000000000001,28.412706775627107L119.26406250000001,27.977935716606126L119.72812499999999,27.80387504945016L120.19218749999999,28.660791932800326L120.65625,28.744791204487615L121.1203125,28.198209957652498L121.584375,28.2761290582656L122.0484375,27.338332787233934L122.5125,27.319270684964465L122.9765625,27.848382675477087L123.44062500000001,27.798109766063018L123.90468750000001,28.268080120057018L124.36874999999999,27.984482679349274L124.83281249999999,27.750355521509306L125.296875,28.84950714155193L125.7609375,28.459658919279704L126.225,28.502449844263957L126.6890625,28.31207018604852L127.153125,28.460233739004387L127.6171875,28.917317080171422L128.08125,29.603503686073328L128.5453125,28.52302384377495L129.009375,27.733149648672182L129.47343750000002,27.155029882688815L129.9375,26.35153258822331L130.4015625,27.843778539629614L130.865625,27.826455841937754L131.3296875,27.844633014567144L131.79375,27.516963720381728L132.2578125,27.476102750814256L132.721875,27.950588773240412L133.1859375,27.430752558479575L133.65,26.92167428289047L134.11406250000002,28.013001858795832L134.578125,28.94222315907785L135.04218749999998,28.624224952143287L135.50625,28.131139710793008L135.9703125,28.387089907039677L136.434375,27.677749061411287L136.8984375,27.098404328560253L137.3625,26.766915747007967L137.8265625,27.437069349098948L138.290625,27.388689036573226L138.75468750000002,27.358507370435337L139.21875,27.231463306436826L139.6828125,27.372181441122244L140.146875,27.077193452279122L140.6109375,27.335634340461315L141.07500000000002,27.007232836891937L141.5390625,27.14787807798966L142.003125,26.849819582084326L142.46718750000002,27.230260633019306L142.93125,27.603269374323506L143.39531250000002,27.809652989518227L143.85937500000003,29.31289698017333L144.32343749999998,29.16181146430588L144.7875,29.225590204045865L145.25156249999998,28.901979346858887L145.715625,29.24664392963296L146.1796875,29.23817567564197L146.64374999999998,29.556402926626678L147.1078125,29.511000193228064L147.571875,29.8943645056107L148.0359375,29.953732777596624L148.5,29.171119958178856L148.9640625,29.249722766965625L149.428125,28.25309924194613L149.8921875,27.870320950603894L150.35625000000002,28.486520283772386L150.8203125,28.70437718726427L151.284375,28.51068552472529L151.74843750000002,29.277440701673456L152.21249999999998,29.551026356667286L152.6765625,28.86017795351148L153.140625,28.34236968104244L153.60468749999998,28.76021353290995L154.06875,29.363773672381168L154.5328125,29.45047304451412L154.996875,29.384636541247062L155.4609375,29.133805953844192L155.925,28.649469301015426L156.3890625,29.11843093099809L156.853125,28.771975903010066L157.3171875,28.75193155958L157.78125,28.539708963595285L158.2453125,28.613613289572264L158.709375,28.432406565255405L159.1734375,27.830010429326585L159.63750000000002,28.238238558990098L160.1015625,28.61163183241427L160.565625,28.643218545770686L161.02968750000002,29.139841893825544L161.49374999999998,29.255979440399194L161.9578125,29.471774126800796L162.421875,28.8647918587404L162.88593749999998,28.401822968332603L163.35,28.199663828378107L163.8140625,29.00935150776219L164.278125,29.784947524988112L164.7421875,29.951884287113042L165.20625,29.788302506038004L165.6703125,30.0697547961643L166.134375,29.13344686929609L166.59843750000002,29.34440792446617L167.0625,29.080302808077843L167.5265625,28.604344789857688L167.99062500000002,28.51500965317588L168.4546875,28.265928998870653L168.91875000000002,28.63328837097664L169.38281249999997,29.307379839704318L169.84687499999998,29.47062435944034L170.3109375,29.656724106545152L170.77499999999998,29.51409739276264L171.2390625,29.82905494749842L171.703125,29.707923122010413L172.16718749999998,29.715211552795836L172.63125,29.045821720292416L173.0953125,29.195650170125703L173.559375,29.412850111054286L174.0234375,29.027563486890134L174.4875,28.6716959748245L174.9515625,28.881209140712638L175.415625,28.96776214191989L175.87968750000002,29.019761943278766L176.34375,29.078836114560403L176.8078125,29.63382767448119L177.27187500000002,29.768965024685613L177.7359375,29.80070113412683L178.20000000000002,29.189237472010515L178.66406250000003,29.415295440232477L179.12812499999998,29.243850785817152L179.5921875,29.545576706206074L180.05624999999998,29.859550457482694L180.5203125,29.3436158799838L180.984375,29.581399151069576L181.44843749999998,30.20221110509791L181.9125,30.22997450006181L182.3765625,30.599177957686845L182.840625,30.23412980374479L183.3046875,30.664123250822914L183.76875,30.262185575284978L184.2328125,30.250843562037804L184.696875,30.713061392476778L185.16093750000002,30.732285758914923L185.625,30.653402876056653L186.0890625,30.502257127919247L186.55312500000002,30.270346344644885L187.01718749999998,30.24093097929263L187.48125,29.82554280935191L187.9453125,29.901019953678826L188.40937499999998,29.76955458664344L188.8734375,29.750410381993337L189.3375,29.917612347944985L189.8015625,30.464018368926297L190.265625,31.228888351881498L190.7296875,31.683125809489077L191.19375,31.459394419307547L191.6578125,31.099450968652L192.121875,31.194785607029395L192.5859375,30.705060794931295L193.05,30.87542402731279L193.5140625,30.607249527058393L193.978125,30.508875632970366L194.44218750000002,30.182434317850383L194.90625,30.16847280250985L195.3703125,29.77359744604626L195.83437500000002,29.642691587147297L196.29843749999998,29.6575824621293L196.7625,29.9808353942418L197.2265625,29.691668249872347L197.69062499999998,29.692413734440233L198.1546875,29.206132760114002L198.61875,29.19983109382781L199.0828125,28.994704473264964L199.546875,29.554852703401206L200.0109375,29.17576817480055L200.475,28.66899659709528L200.9390625,28.35158668341077L201.40312500000002,28.39664072502753L201.8671875,28.45289268455367L202.33125,28.402415419666738L202.79531250000002,27.7560392379654L203.259375,27.37351415506359L203.72343750000002,28.417433732855454L204.18749999999997,29.005178144042567L204.65156249999998,29.4046743208954L205.115625,29.485512081928395L205.57968749999998,29.259881371903823L206.04375,28.930666309663707L206.5078125,29.427041676800886L206.97187499999998,28.996924376782633L207.4359375,29.177247551936023L207.9,29.5692386888612L208.3640625,29.210921682783876L208.828125,29.36430263992284L209.2921875,28.713505583740076L209.75625,28.913650333962924L210.2203125,28.967428261646884L210.68437500000002,29.066418904429238L211.1484375,28.855149404028385L211.6125,28.835923881740968L212.07656250000002,28.88311282424823L212.540625,28.499354680073445L213.00468750000002,29.4297276917848L213.46875000000003,29.568252424304866L213.93281249999998,29.60338770630768L214.396875,29.738690953350932L214.86093749999998,29.904296580531323L215.325,30.190036200589816L215.7890625,30.688140676601847L216.25312499999998,29.949901962151603L216.7171875,29.628666586003995L217.18125,29.748248179309932L217.6453125,29.426461598447982L218.109375,28.676683237933336L218.5734375,28.525230675766803L219.0375,28.614991768815077L219.5015625,28.92098815700489L219.96562500000002,29.423042142198945L220.4296875,29.802968709671386L220.89375,29.92014114837084L221.35781250000002,29.41117589461941L221.82187499999998,28.65197830352072L222.2859375,28.338454070684605L222.75,27.86080513640085L223.21406249999998,27.115699846926343L223.678125,27.008498949954728L224.1421875,27.81223945773631L224.60625,28.13051594160194L225.0703125,28.520684534443582L225.534375,28.846064468224746L225.9984375,29.58616987053547L226.4625,29.883678942267064L226.9265625,30.136713986085233L227.390625,30.31763272012455L227.8546875,29.799392193109874L228.31875,29.9113777312941L228.7828125,29.79382369398912L229.24687500000002,29.40554142339928L229.7109375,30.123250298960418L230.175,30.412690010664917L230.63906250000002,30.368776959139925L231.10312499999998,30.527539954717255L231.5671875,30.33537668196478L232.03125,30.255673223941248L232.49531249999998,30.47570204119405L232.959375,30.2807046762736L233.4234375,30.301500963506964L233.8875,29.82560279043786L234.3515625,29.83413415832682L234.815625,29.96847311927894L235.2796875,29.653843524817738L235.74375,29.359179670074038L236.20781250000002,29.602455128386694L236.671875,30.07240306780044L237.1359375,30.053270736884905L237.60000000000002,29.78958678115517L238.0640625,29.55825663536256L238.52812500000002,29.53266629280327L238.99218749999997,29.123740300864064L239.45624999999998,29.630798895992886L239.9203125,30.01130881013754L240.38437499999998,29.80678049935271L240.8484375,29.704126193324935L241.3125,29.912624041915066L241.77656249999998,30.18346340283562L242.240625,30.04562334607924L242.7046875,29.924609222914103L243.16875,29.79233481272378L243.6328125,29.787468679414122L244.096875,29.21773581453119L244.5609375,28.728429979014134L245.025,28.38158224697575L245.48906250000002,28.179114477529104L245.953125,28.100330066140877L246.4171875,28.304541524563064L246.88125000000002,29.339716472812785L247.3453125,29.659854566050555L247.80937500000002,30.337227918183586L248.27343750000003,30.35994875105764L248.73749999999998,30.102365319306923L249.2015625,29.977464557195884L249.66562499999998,30.2400303074351L250.1296875,29.84463157379414L250.59375,29.158102592729247" style="fill: none;" fill="none"></path></g></g></g></g><g opacity="0.2"><g><g><g><path stroke="rgb(255, 112, 67)" stroke-width="2px" d="M23.6671875,26.85270676294963L24.13125,68.79080103556315L24.5953125,172.51523376464846L25.059375,233.47860412597657L29.700000000000003,186.19197631835937L30.1640625,135.26280731201172L30.628125,112.25023600260415L31.092187499999998,83.8491603088379L23.6671875,26.54771535873414L24.13125,68.35671056111654L24.5953125,147.6193162027995L25.059375,199.89314534505206L30.1640625,232.2335420735677L30.628125,155.61713012695313L31.092187499999998,119.94220296223959L31.55625,89.08190292358398L32.0203125,55.540632247924805L32.484375,55.630882542928056L32.9484375,50.9861203511556L33.4125,51.179058252970385L33.8765625,44.45524604797363L34.340625,42.665959370930985L34.8046875,36.689900080362946L35.268750000000004,35.55738494873047L35.7328125,32.54563132921854L36.196875,29.627211484958732L36.660937499999996,29.236934485435484L37.125,30.78846734841664L37.589062500000004,33.87033942540486L38.053124999999994,36.620643831888835L38.5171875,41.2622010676066L38.98125,46.71142420450847L39.4453125,45.07920979817708L39.909375000000004,49.09779238382974L40.373437499999994,50.918329645792646L40.8375,50.11551531473795L41.3015625,50.623514429728196L41.765625,52.23555979410808L42.229687500000004,57.90053916931153L42.693749999999994,56.74808359781901L43.1578125,64.00449340820313L43.621875,71.4740554300944L44.0859375,68.3860847981771L44.550000000000004,66.99628367106119L45.014062499999994,64.63161005655924L45.478125,68.26886398315429L45.9421875,53.30487436930338L46.40625,46.937090682983396L46.8703125,55.223201268513996L47.334375,50.967714487711596L47.7984375,39.16045946756998L48.2625,52.7947408803304L48.7265625,47.74950517018636L49.190625,45.12737693786622L49.6546875,48.15480649312337L50.11875,47.921994501749666L50.5828125,51.09957036336262L51.04687499999999,47.24692007700603L51.5109375,50.906274846394865L51.975,43.853001759847L52.4390625,44.58830491383871L52.903125,46.55083576202392L53.36718750000001,43.925888481140134L53.83125,45.52628192901611L54.2953125,46.30416731516521L54.759375,43.150117098490405L55.2234375,43.309294319152826L55.6875,44.2173550160726L56.1515625,45.70989354451498L56.615625,42.1028332010905L57.0796875,44.83549393971762L57.54375,43.14622859954834L58.0078125,42.992089678446455L58.471875,38.396194578806565L58.9359375,38.41624592463176L59.400000000000006,37.205093936920164L59.864062499999996,38.809219144185384L60.328125,38.19775777816773L60.7921875,38.701516437530515L61.25625,34.800858580271395L61.720312500000006,33.49624257087707L62.184374999999996,36.30452957789104L62.6484375,36.04812290827432L63.1125,34.38871871630351L63.5765625,34.81408751169841L64.040625,34.40911862373352L64.5046875,33.730621109008794L64.96875,30.837545572121932L65.4328125,34.51857007980347L65.896875,33.79883025805156L66.3609375,34.47795586268108L66.825,34.289060370127366L67.2890625,34.11097453117371L67.753125,32.00298711458843L68.2171875,35.765718975067145L68.68125,35.538026765187574L69.1453125,36.61435048421223L69.609375,37.34012421290079L70.0734375,35.9676521428426L70.53750000000001,38.60458462397258L71.0015625,37.614189828236896L71.465625,37.040094718933105L71.92968750000001,37.38305330912272L72.39375,33.56006216367086L72.8578125,34.129286746978764L73.32187499999999,35.726230792999274L73.7859375,34.48358207702637L74.25,32.59313416481018L74.7140625,34.783837343851715L75.17812500000001,32.58280802726746L75.6421875,31.158151729901626L76.10624999999999,35.769385096232085L76.5703125,37.37627672831216L77.034375,34.01977615992227L77.4984375,35.86704232533773L77.9625,33.65076315561931L78.4265625,32.94118424415588L78.890625,36.00266277949016L79.3546875,31.519496378898623L79.81875000000001,34.5258672396342L80.2828125,33.2259785970052L80.74687499999999,34.56511550267538L81.2109375,33.65946163495383L81.675,33.60568582216899L82.1390625,34.64356166839599L82.603125,32.48899431228638L83.0671875,36.98812848409016L83.53125,34.300782451629644L83.99531250000001,37.566934833526616L84.45937500000001,34.110390294392914L84.92343749999999,32.04883003870646L85.38749999999999,30.85917980353037L85.8515625,35.560751736958814L86.315625,36.96697317123413L86.7796875,36.142869421641024L87.24375,37.38509431838989L87.7078125,33.121622873942066L88.171875,32.18843773206074L88.63593750000001,34.78671976725261L89.10000000000001,35.70407619476319L89.56406249999999,33.05818466186524L90.02812499999999,34.71827946980795L90.4921875,33.671816050211596L90.95625,34.53058979670207L91.4203125,32.555335884094234L91.884375,32.514243243535354L92.3484375,33.23329160054526L92.8125,33.11045900026958L93.27656250000001,31.69540102005004L93.740625,32.603310070037836L94.20468749999999,31.831613774299626L94.66875,33.35213328361512L95.1328125,30.623805304368343L95.596875,31.263657536506656L96.0609375,33.98926796595256L96.525,32.115062967936204L96.9890625,34.002407776514694L97.453125,31.89416233380636L97.91718750000001,29.78026411732038L98.38125,31.986782536506652L98.84531249999999,32.21997378667195L99.309375,31.762443393071486L99.7734375,32.69754222869874L100.2375,32.25449807802837L100.70156250000001,31.36669865608215L101.165625,33.28077265103658L101.6296875,31.256270548502602L102.09374999999999,30.53151789029439L102.5578125,32.29024007161458L103.021875,32.335142841339106L103.48593749999999,29.995302579005564L103.95,32.06730748176575L104.4140625,30.756622200012202L104.878125,28.26594497998556L105.34218750000001,27.72460235436757L105.80625,28.3479327805837L106.2703125,29.79014538437129L106.73437500000001,30.200840544303254L107.1984375,29.783667216996356L107.6625,31.008139812151587L108.12656249999999,31.2066132513682L108.590625,30.334001863797507L109.0546875,30.155991777578997L109.51875,28.917853567600247L109.98281250000001,27.865968133608494L110.446875,29.101154250303896L110.91093749999999,29.868194033900895L111.375,29.23596724112829L111.8390625,31.72536628405253L112.303125,29.131327038606013L112.7671875,32.64580403010049L113.23125,29.35582843859991L113.6953125,29.204807616074884L114.159375,30.1611861093839L114.62343750000001,29.070215871334067L115.0875,28.563043458461763L115.55156249999999,27.044662354787185L116.015625,27.493319705327345L116.4796875,28.339359353383383L116.94375,30.218809609413142L117.4078125,27.354618781407677L117.871875,27.73395636717479L118.3359375,28.836008148193358L118.80000000000001,28.451506786346446L119.26406250000001,27.325779128074643L119.72812499999999,27.542784048716236L120.19218749999999,29.946167257825525L120.65625,28.870790112018582L121.1203125,27.378338087399808L121.584375,28.39300770918529L122.0484375,25.93163838068644L122.5125,27.290677531560256L122.9765625,28.642050661245978L123.44062500000001,27.722700401941943L123.90468750000001,28.973035651048033L124.36874999999999,27.559086518287657L124.83281249999999,27.399164784749356L125.296875,30.49823457161586L125.7609375,27.874886585871387L126.225,28.56663623174031L126.6890625,28.026500698725375L127.153125,28.68247906843822L127.6171875,29.602942091921964L128.08125,30.632783594926206L128.5453125,26.902304080327347L129.009375,26.548338356018064L129.47343750000002,26.28785023371379L129.9375,25.14628664652506L130.4015625,30.082147466739027L130.865625,27.80047179539998L131.3296875,27.87189877351126L131.79375,27.025459779103592L132.2578125,27.414811296463014L132.721875,28.662317806879674L133.1859375,26.650998236338303L133.65,26.158056869506837L134.11406250000002,29.649993222653862L134.578125,30.336055109500894L135.04218749999998,28.147227641741427L135.50625,27.391511848767603L135.9703125,28.771015201409664L136.434375,26.61373779296875L136.8984375,26.229387229283656L137.3625,26.269682874679557L137.8265625,28.442299752235414L138.290625,27.31611856778462L138.75468750000002,27.31323487122854L139.21875,27.040897210439052L139.6828125,27.58325864315033L140.146875,26.634711469014487L140.6109375,27.723295672734572L141.07500000000002,26.514630581537876L141.5390625,27.358845939636222L142.003125,26.402731838226316L142.46718750000002,27.80092220942179L142.93125,28.162782486279806L143.39531250000002,28.11922841231028L143.85937500000003,31.56776296615601L144.32343749999998,28.935183190504706L144.7875,29.321258313655843L145.25156249999998,28.416563061078385L145.715625,29.763640803794065L146.1796875,29.225473294655476L146.64374999999998,30.03374380310377L147.1078125,29.442896093130116L147.571875,30.469410974184676L148.0359375,30.042785185575482L148.5,27.99720072905223L148.9640625,29.367626980145765L149.428125,26.758163954416904L149.8921875,27.296153513590504L150.35625000000002,29.410819283525147L150.8203125,29.031162542502077L151.284375,28.22014803091685L151.74843750000002,30.427573467095694L152.21249999999998,29.961404839158067L152.6765625,27.82390534877777L153.140625,27.565657272338868L153.60468749999998,29.38697931071122L154.06875,30.269113881587984L154.5328125,29.580522102713587L154.996875,29.285881786346437L155.4609375,28.757560072739913L155.925,27.922964321772263L156.3890625,29.821873375972114L156.853125,28.25229336102803L157.3171875,28.721865044434857L157.78125,28.221375069618215L158.2453125,28.724469778537753L158.709375,28.160596478780118L159.1734375,26.92641622543334L159.63750000000002,28.850580753485367L160.1015625,29.171721742550538L160.565625,28.690598615805303L161.02968750000002,29.884776915907864L161.49374999999998,29.430185760259633L161.9578125,29.79546615640323L162.421875,27.95431845664979L162.88593749999998,27.707369632720937L163.35,27.89642511844634L163.8140625,30.223883026838312L164.278125,30.948341550827024L164.7421875,30.202289430300404L165.20625,29.54292983442545L165.6703125,30.491933231353755L166.134375,27.72898497899373L166.59843750000002,29.66084950722134L167.0625,28.684145133495335L167.5265625,27.890407762527456L167.99062500000002,28.381006948153175L168.4546875,27.89230801741282L168.91875000000002,29.184327429135646L169.38281249999997,30.318517042795825L169.84687499999998,29.71549113904437L170.3109375,29.93587372720242L170.77499999999998,29.300157322088886L171.2390625,30.301491279602047L171.703125,29.52622538377842L172.16718749999998,29.72614419897398L172.63125,28.041736971537265L173.0953125,29.42039284487566L173.559375,29.7386500224471L174.0234375,28.449633550643924L174.4875,28.137894706726073L174.9515625,29.195478889544813L175.415625,29.097591643730798L175.87968750000002,29.097761645317078L176.34375,29.16744737148285L176.8078125,30.466315014362337L177.27187500000002,29.971671049992242L177.7359375,29.848305298288658L178.20000000000002,28.272041978836057L178.66406250000003,29.754382392565407L179.12812499999998,28.986683804194136L179.5921875,29.99816558678945L180.05624999999998,30.33051108439764L180.5203125,28.569714013735453L180.984375,29.93807405769824L181.44843749999998,31.13342903614044L181.9125,30.271619592507687L182.3765625,31.15298314412434L182.840625,29.686557572831713L183.3046875,31.309113421440134L183.76875,29.659279061978065L184.2328125,30.23383054216702L184.696875,31.40638813813528L185.16093750000002,30.761122308572137L185.625,30.53507855176926L186.0890625,30.27553850571315L186.55312500000002,29.922480169733372L187.01718749999998,30.196807931264242L187.48125,29.202460554440812L187.9453125,30.014235670169196L188.40937499999998,29.572356536090364L188.8734375,29.721694075018164L189.3375,30.168415296872464L189.8015625,31.283627400398263L190.265625,32.37619332631429L190.7296875,32.36448199590047L191.19375,31.123797334035242L191.6578125,30.559535792668665L192.121875,31.33778756459554L192.5859375,29.97047357678413L193.05,31.130968875885L193.5140625,30.204987776676806L193.978125,30.361314791838332L194.44218750000002,29.692772345170383L194.90625,30.14753052949905L195.3703125,29.181284411350894L195.83437500000002,29.44633279879887L196.29843749999998,29.679918774602307L196.7625,30.465714792410527L197.2265625,29.257917533318196L197.69062499999998,29.693531961292024L198.1546875,28.476711298624668L198.61875,29.190378594398496L199.0828125,28.68701454242071L199.546875,30.395075048605595L200.0109375,28.607141381899513L200.475,27.90883923053741L200.9390625,27.875471812884005L201.40312500000002,28.4642217874527L201.8671875,28.53727062384288L202.33125,28.32669952233632L202.79531250000002,26.786474965413415L203.259375,26.799726530710863L203.72343750000002,29.98331309954326L204.18749999999997,29.88679476082325L204.65156249999998,30.003918586174656L205.115625,29.606768723477924L205.57968749999998,28.921435306866965L206.04375,28.436843716303503L206.5078125,30.171604727506633L206.97187499999998,28.351748426755275L207.4359375,29.447732314666105L207.9,30.15722539424897L208.3640625,28.673446173667912L208.828125,29.594374075631297L209.2921875,27.737309999465932L209.75625,29.213867459297177L210.2203125,29.048095153172802L210.68437500000002,29.214904868602762L211.1484375,28.538245153427127L211.6125,28.807085598309836L212.07656250000002,28.953896238009143L212.540625,27.92371746381124L213.00468750000002,30.82528720935185L213.46875000000003,29.776039523084954L213.93281249999998,29.656090629311894L214.396875,29.941645823915803L214.86093749999998,30.1527050213019L215.325,30.618645630677545L215.7890625,31.435297390619912L216.25312499999998,28.842543890476218L216.7171875,29.14681352178255L217.18125,29.927620569268857L217.6453125,28.943781727155052L218.109375,27.552015697161355L218.5734375,28.298051832516983L219.0375,28.749633408387506L219.5015625,29.379982739289595L219.96562500000002,30.176123119990027L220.4296875,30.37285856088003L220.89375,30.095899806420014L221.35781250000002,28.647728013992307L221.82187499999998,27.513181916872657L222.2859375,27.868167721430456L222.75,27.144331734975175L223.21406249999998,25.998041912714648L223.678125,26.84769760449728L224.1421875,29.01785021940868L224.60625,28.60793066740035L225.0703125,29.105937423706052L225.534375,29.334134368896486L225.9984375,30.696327974001566L226.4625,30.329942549864445L226.9265625,30.516266551812485L227.390625,30.589010821183514L227.8546875,29.02203140258788L228.31875,30.079356038570413L228.7828125,29.61749263803164L229.24687500000002,28.82311801751454L229.7109375,31.199813612302147L230.175,30.846849578221647L230.63906250000002,30.302907381852474L231.10312499999998,30.765684448083245L231.5671875,30.04713177283605L232.03125,30.136118036905916L232.49531249999998,30.80574526707331L232.959375,29.988208628892888L233.4234375,30.33269539435704L233.8875,29.111755530834202L234.3515625,29.846931210160246L234.815625,30.169981560707082L235.2796875,29.181899133125945L235.74375,28.91718388795853L236.20781250000002,29.967368315855655L236.671875,30.77732497692108L237.1359375,30.02457224051158L237.60000000000002,29.394060847560556L238.0640625,29.211261416673665L238.52812500000002,29.494280778964363L238.99218749999997,28.510351312955216L239.45624999999998,30.391386788686113L239.9203125,30.582073681354533L240.38437499999998,29.49998803317547L240.8484375,29.55014473428329L241.3125,30.225370814800254L241.77656249999998,30.58972244421641L242.240625,29.838863260944688L242.7046875,29.743088038166356L243.16875,29.593923197438325L243.6328125,29.780169479449594L244.096875,28.363136517206833L244.5609375,27.994471225738522L245.025,27.86131064891815L245.48906250000002,27.875412823359177L245.953125,27.98215344905853L246.4171875,28.610858712196347L246.88125000000002,30.89247889518738L247.3453125,30.14006170590718L247.80937500000002,31.35328794638315L248.27343750000003,30.394030000368748L248.73749999999998,29.715990171680847L249.2015625,29.790113414029285L249.66562499999998,30.633878932793927L250.1296875,29.251533473332724L250.59375,28.12830912113189" style="fill: none;" fill="none"></path></g></g></g></g></g></g><g transform="translate(51, 178)" clip-path="url(#clip_1)"><clipPath id="clip_1"><rect width="278" height="22"></rect></clipPath><g><g><line x1="0" y1="0" x2="0" y2="5" style="visibility: inherit;" fill="rgb(0, 0, 0)" stroke="rgb(204, 204, 204)" stroke-width="1px"></line><line x1="23.203125" y1="0" x2="23.203125" y2="5" style="visibility: inherit;" fill="rgb(0, 0, 0)" stroke="rgb(204, 204, 204)" stroke-width="1px"></line><line x1="46.40625" y1="0" x2="46.40625" y2="5" style="visibility: inherit;" fill="rgb(0, 0, 0)" stroke="rgb(204, 204, 204)" stroke-width="1px"></line><line x1="69.609375" y1="0" x2="69.609375" y2="5" style="visibility: inherit;" fill="rgb(0, 0, 0)" stroke="rgb(204, 204, 204)" stroke-width="1px"></line><line x1="92.8125" y1="0" x2="92.8125" y2="5" style="visibility: inherit;" fill="rgb(0, 0, 0)" stroke="rgb(204, 204, 204)" stroke-width="1px"></line><line x1="116.015625" y1="0" x2="116.015625" y2="5" style="visibility: inherit;" fill="rgb(0, 0, 0)" stroke="rgb(204, 204, 204)" stroke-width="1px"></line><line x1="139.21875" y1="0" x2="139.21875" y2="5" style="visibility: inherit;" fill="rgb(0, 0, 0)" stroke="rgb(204, 204, 204)" stroke-width="1px"></line><line x1="162.421875" y1="0" x2="162.421875" y2="5" style="visibility: inherit;" fill="rgb(0, 0, 0)" stroke="rgb(204, 204, 204)" stroke-width="1px"></line><line x1="185.625" y1="0" x2="185.625" y2="5" style="visibility: inherit;" fill="rgb(0, 0, 0)" stroke="rgb(204, 204, 204)" stroke-width="1px"></line><line x1="208.828125" y1="0" x2="208.828125" y2="5" style="visibility: inherit;" fill="rgb(0, 0, 0)" stroke="rgb(204, 204, 204)" stroke-width="1px"></line><line x1="232.03125" y1="0" x2="232.03125" y2="5" style="visibility: inherit;" fill="rgb(0, 0, 0)" stroke="rgb(204, 204, 204)" stroke-width="1px"></line><line x1="255.234375" y1="0" x2="255.234375" y2="5" style="visibility: inherit;" fill="rgb(0, 0, 0)" stroke="rgb(204, 204, 204)" stroke-width="1px"></line><line x1="278.4375" y1="0" x2="278.4375" y2="5" style="visibility: inherit;" fill="rgb(0, 0, 0)" stroke="rgb(204, 204, 204)" stroke-width="1px"></line></g><g transform="translate(0, 8)"><text x="0" y="0" dx="0em" dy="0.95em" style="text-anchor: middle; visibility: hidden; font-family: Roboto, sans-serif; font-size: 12px; font-weight: 200;" fill="rgb(50, 49, 63)" stroke="none" stroke-width="1px">-1k</text><text x="23.203125" y="0" dx="0em" dy="0.95em" style="text-anchor: middle; visibility: inherit; font-family: Roboto, sans-serif; font-size: 12px; font-weight: 200;" fill="rgb(50, 49, 63)" stroke="none" stroke-width="1px">0</text><text x="46.40625" y="0" dx="0em" dy="0.95em" style="text-anchor: middle; visibility: inherit; font-family: Roboto, sans-serif; font-size: 12px; font-weight: 200;" fill="rgb(50, 49, 63)" stroke="none" stroke-width="1px">1k</text><text x="69.609375" y="0" dx="0em" dy="0.95em" style="text-anchor: middle; visibility: inherit; font-family: Roboto, sans-serif; font-size: 12px; font-weight: 200;" fill="rgb(50, 49, 63)" stroke="none" stroke-width="1px">2k</text><text x="92.8125" y="0" dx="0em" dy="0.95em" style="text-anchor: middle; visibility: inherit; font-family: Roboto, sans-serif; font-size: 12px; font-weight: 200;" fill="rgb(50, 49, 63)" stroke="none" stroke-width="1px">3k</text><text x="116.015625" y="0" dx="0em" dy="0.95em" style="text-anchor: middle; visibility: inherit; font-family: Roboto, sans-serif; font-size: 12px; font-weight: 200;" fill="rgb(50, 49, 63)" stroke="none" stroke-width="1px">4k</text><text x="139.21875" y="0" dx="0em" dy="0.95em" style="text-anchor: middle; visibility: inherit; font-family: Roboto, sans-serif; font-size: 12px; font-weight: 200;" fill="rgb(50, 49, 63)" stroke="none" stroke-width="1px">5k</text><text x="162.421875" y="0" dx="0em" dy="0.95em" style="text-anchor: middle; visibility: inherit; font-family: Roboto, sans-serif; font-size: 12px; font-weight: 200;" fill="rgb(50, 49, 63)" stroke="none" stroke-width="1px">6k</text><text x="185.625" y="0" dx="0em" dy="0.95em" style="text-anchor: middle; visibility: inherit; font-family: Roboto, sans-serif; font-size: 12px; font-weight: 200;" fill="rgb(50, 49, 63)" stroke="none" stroke-width="1px">7k</text><text x="208.828125" y="0" dx="0em" dy="0.95em" style="text-anchor: middle; visibility: inherit; font-family: Roboto, sans-serif; font-size: 12px; font-weight: 200;" fill="rgb(50, 49, 63)" stroke="none" stroke-width="1px">8k</text><text x="232.03125" y="0" dx="0em" dy="0.95em" style="text-anchor: middle; visibility: inherit; font-family: Roboto, sans-serif; font-size: 12px; font-weight: 200;" fill="rgb(50, 49, 63)" stroke="none" stroke-width="1px">9k</text><text x="255.234375" y="0" dx="0em" dy="0.95em" style="text-anchor: middle; visibility: inherit; font-family: Roboto, sans-serif; font-size: 12px; font-weight: 200;" fill="rgb(50, 49, 63)" stroke="none" stroke-width="1px">10k</text><text x="278.4375" y="0" dx="0em" dy="0.95em" style="text-anchor: middle; visibility: hidden; font-family: Roboto, sans-serif; font-size: 12px; font-weight: 200;" fill="rgb(50, 49, 63)" stroke="none" stroke-width="1px">11k</text></g><line x1="0" y1="0" x2="278.4375" y2="0" fill="rgb(0, 0, 0)" stroke="rgb(204, 204, 204)" stroke-width="1px"></line></g></g></g></g></svg>