<svg viewBox="0 0 330 200" xmlns="http://www.w3.org/2000/svg"><g><g><g><g><g><line x1="30.78125" y1="178" x2="25.78125" y2="178" style="visibility: inherit;" fill="rgb(0, 0, 0)" stroke="rgb(204, 204, 204)" stroke-width="1px"></line><line x1="30.78125" y1="164.30769230769232" x2="25.78125" y2="164.30769230769232" style="visibility: inherit;" fill="rgb(0, 0, 0)" stroke="rgb(204, 204, 204)" stroke-width="1px"></line><line x1="30.78125" y1="150.6153846153846" x2="25.78125" y2="150.6153846153846" style="visibility: inherit;" fill="rgb(0, 0, 0)" stroke="rgb(204, 204, 204)" stroke-width="1px"></line><line x1="30.78125" y1="136.9230769230769" x2="25.78125" y2="136.9230769230769" style="visibility: inherit;" fill="rgb(0, 0, 0)" stroke="rgb(204, 204, 204)" stroke-width="1px"></line><line x1="30.78125" y1="123.23076923076923" x2="25.78125" y2="123.23076923076923" style="visibility: inherit;" fill="rgb(0, 0, 0)" stroke="rgb(204, 204, 204)" stroke-width="1px"></line><line x1="30.78125" y1="109.53846153846155" x2="25.78125" y2="109.53846153846155" style="visibility: inherit;" fill="rgb(0, 0, 0)" stroke="rgb(204, 204, 204)" stroke-width="1px"></line><line x1="30.78125" y1="95.84615384615384" x2="25.78125" y2="95.84615384615384" style="visibility: inherit;" fill="rgb(0, 0, 0)" stroke="rgb(204, 204, 204)" stroke-width="1px"></line><line x1="30.78125" y1="82.15384615384616" x2="25.78125" y2="82.15384615384616" style="visibility: inherit;" fill="rgb(0, 0, 0)" stroke="rgb(204, 204, 204)" stroke-width="1px"></line><line x1="30.78125" y1="68.46153846153845" x2="25.78125" y2="68.46153846153845" style="visibility: inherit;" fill="rgb(0, 0, 0)" stroke="rgb(204, 204, 204)" stroke-width="1px"></line><line x1="30.78125" y1="54.769230769230774" x2="25.78125" y2="54.769230769230774" style="visibility: inherit;" fill="rgb(0, 0, 0)" stroke="rgb(204, 204, 204)" stroke-width="1px"></line><line x1="30.78125" y1="41.076923076923066" x2="25.78125" y2="41.076923076923066" style="visibility: inherit;" fill="rgb(0, 0, 0)" stroke="rgb(204, 204, 204)" stroke-width="1px"></line><line x1="30.78125" y1="27.384615384615387" x2="25.78125" y2="27.384615384615387" style="visibility: inherit;" fill="rgb(0, 0, 0)" stroke="rgb(204, 204, 204)" stroke-width="1px"></line><line x1="30.78125" y1="13.692307692307683" x2="25.78125" y2="13.692307692307683" style="visibility: inherit;" fill="rgb(0, 0, 0)" stroke="rgb(204, 204, 204)" stroke-width="1px"></line><line x1="30.78125" y1="0" x2="25.78125" y2="0" style="visibility: inherit;" fill="rgb(0, 0, 0)" stroke="rgb(204, 204, 204)" stroke-width="1px"></line></g><g transform="translate(20.78125, 0)"><text x="0" y="178" dx="0em" dy="0.3em" style="text-anchor: end; visibility: hidden; font-family: Roboto, sans-serif; font-size: 12px; font-weight: 200;" fill="rgb(50, 49, 63)" stroke="none" stroke-width="1px">-4</text><text x="0" y="164.30769230769232" dx="0em" dy="0.3em" style="text-anchor: end; visibility: inherit; font-family: Roboto, sans-serif; font-size: 12px; font-weight: 200;" fill="rgb(50, 49, 63)" stroke="none" stroke-width="1px">-3</text><text x="0" y="150.6153846153846" dx="0em" dy="0.3em" style="text-anchor: end; visibility: hidden; font-family: Roboto, sans-serif; font-size: 12px; font-weight: 200;" fill="rgb(50, 49, 63)" stroke="none" stroke-width="1px">-2</text><text x="0" y="136.9230769230769" dx="0em" dy="0.3em" style="text-anchor: end; visibility: inherit; font-family: Roboto, sans-serif; font-size: 12px; font-weight: 200;" fill="rgb(50, 49, 63)" stroke="none" stroke-width="1px">-1</text><text x="0" y="123.23076923076923" dx="0em" dy="0.3em" style="text-anchor: end; visibility: hidden; font-family: Roboto, sans-serif; font-size: 12px; font-weight: 200;" fill="rgb(50, 49, 63)" stroke="none" stroke-width="1px">0</text><text x="0" y="109.53846153846155" dx="0em" dy="0.3em" style="text-anchor: end; visibility: inherit; font-family: Roboto, sans-serif; font-size: 12px; font-weight: 200;" fill="rgb(50, 49, 63)" stroke="none" stroke-width="1px">1</text><text x="0" y="95.84615384615384" dx="0em" dy="0.3em" style="text-anchor: end; visibility: hidden; font-family: Roboto, sans-serif; font-size: 12px; font-weight: 200;" fill="rgb(50, 49, 63)" stroke="none" stroke-width="1px">2</text><text x="0" y="82.15384615384616" dx="0em" dy="0.3em" style="text-anchor: end; visibility: inherit; font-family: Roboto, sans-serif; font-size: 12px; font-weight: 200;" fill="rgb(50, 49, 63)" stroke="none" stroke-width="1px">3</text><text x="0" y="68.46153846153845" dx="0em" dy="0.3em" style="text-anchor: end; visibility: hidden; font-family: Roboto, sans-serif; font-size: 12px; font-weight: 200;" fill="rgb(50, 49, 63)" stroke="none" stroke-width="1px">4</text><text x="0" y="54.769230769230774" dx="0em" dy="0.3em" style="text-anchor: end; visibility: inherit; font-family: Roboto, sans-serif; font-size: 12px; font-weight: 200;" fill="rgb(50, 49, 63)" stroke="none" stroke-width="1px">5</text><text x="0" y="41.076923076923066" dx="0em" dy="0.3em" style="text-anchor: end; visibility: hidden; font-family: Roboto, sans-serif; font-size: 12px; font-weight: 200;" fill="rgb(50, 49, 63)" stroke="none" stroke-width="1px">6</text><text x="0" y="27.384615384615387" dx="0em" dy="0.3em" style="text-anchor: end; visibility: inherit; font-family: Roboto, sans-serif; font-size: 12px; font-weight: 200;" fill="rgb(50, 49, 63)" stroke="none" stroke-width="1px">7</text><text x="0" y="13.692307692307683" dx="0em" dy="0.3em" style="text-anchor: end; visibility: hidden; font-family: Roboto, sans-serif; font-size: 12px; font-weight: 200;" fill="rgb(50, 49, 63)" stroke="none" stroke-width="1px">8</text><text x="0" y="0" dx="0em" dy="0.3em" style="text-anchor: end; visibility: hidden; font-family: Roboto, sans-serif; font-size: 12px; font-weight: 200;" fill="rgb(50, 49, 63)" stroke="none" stroke-width="1px">9</text></g><line x1="30.78125" y1="0" x2="30.78125" y2="178" fill="rgb(0, 0, 0)" stroke="rgb(204, 204, 204)" stroke-width="1px"></line></g></g><g transform="translate(30, 0)" clip-path="url(#clip_0)"><clipPath id="clip_0"><rect width="299" height="178"></rect></clipPath><g><g><g><line x1="0" y1="0" x2="0" y2="178" fill="rgb(0, 0, 0)" stroke="rgb(60, 60, 60)" stroke-width="1px" opacity="0.25"></line><line x1="24.934895833333332" y1="0" x2="24.934895833333332" y2="178" fill="rgb(0, 0, 0)" stroke="rgb(60, 60, 60)" stroke-width="1px" opacity="0.25"></line><line x1="49.869791666666664" y1="0" x2="49.869791666666664" y2="178" fill="rgb(0, 0, 0)" stroke="rgb(60, 60, 60)" stroke-width="1px" opacity="0.25"></line><line x1="74.8046875" y1="0" x2="74.8046875" y2="178" fill="rgb(0, 0, 0)" stroke="rgb(60, 60, 60)" stroke-width="1px" opacity="0.25"></line><line x1="99.73958333333333" y1="0" x2="99.73958333333333" y2="178" fill="rgb(0, 0, 0)" stroke="rgb(60, 60, 60)" stroke-width="1px" opacity="0.25"></line><line x1="124.67447916666667" y1="0" x2="124.67447916666667" y2="178" fill="rgb(0, 0, 0)" stroke="rgb(60, 60, 60)" stroke-width="1px" opacity="0.25"></line><line x1="149.609375" y1="0" x2="149.609375" y2="178" fill="rgb(0, 0, 0)" stroke="rgb(60, 60, 60)" stroke-width="1px" opacity="0.25"></line><line x1="174.54427083333334" y1="0" x2="174.54427083333334" y2="178" fill="rgb(0, 0, 0)" stroke="rgb(60, 60, 60)" stroke-width="1px" opacity="0.25"></line><line x1="199.47916666666666" y1="0" x2="199.47916666666666" y2="178" fill="rgb(0, 0, 0)" stroke="rgb(60, 60, 60)" stroke-width="1px" opacity="0.25"></line><line x1="224.4140625" y1="0" x2="224.4140625" y2="178" fill="rgb(0, 0, 0)" stroke="rgb(60, 60, 60)" stroke-width="1px" opacity="0.25"></line><line x1="249.34895833333334" y1="0" x2="249.34895833333334" y2="178" fill="rgb(0, 0, 0)" stroke="rgb(60, 60, 60)" stroke-width="1px" opacity="0.25"></line><line x1="274.28385416666663" y1="0" x2="274.28385416666663" y2="178" fill="rgb(0, 0, 0)" stroke="rgb(60, 60, 60)" stroke-width="1px" opacity="0.25"></line><line x1="299.21875" y1="0" x2="299.21875" y2="178" fill="rgb(0, 0, 0)" stroke="rgb(60, 60, 60)" stroke-width="1px" opacity="0.25"></line></g><g><line x1="0" y1="178" x2="299.21875" y2="178" fill="rgb(0, 0, 0)" stroke="rgb(60, 60, 60)" stroke-width="1px" opacity="0.25"></line><line x1="0" y1="164.30769230769232" x2="299.21875" y2="164.30769230769232" fill="rgb(0, 0, 0)" stroke="rgb(60, 60, 60)" stroke-width="1px" opacity="0.25"></line><line x1="0" y1="150.6153846153846" x2="299.21875" y2="150.6153846153846" fill="rgb(0, 0, 0)" stroke="rgb(60, 60, 60)" stroke-width="1px" opacity="0.25"></line><line x1="0" y1="136.9230769230769" x2="299.21875" y2="136.9230769230769" fill="rgb(0, 0, 0)" stroke="rgb(60, 60, 60)" stroke-width="1px" opacity="0.25"></line><line x1="0" y1="123.23076923076923" x2="299.21875" y2="123.23076923076923" fill="rgb(0, 0, 0)" stroke="rgb(60, 60, 60)" stroke-width="1px" opacity="0.25"></line><line x1="0" y1="109.53846153846155" x2="299.21875" y2="109.53846153846155" fill="rgb(0, 0, 0)" stroke="rgb(60, 60, 60)" stroke-width="1px" opacity="0.25"></line><line x1="0" y1="95.84615384615384" x2="299.21875" y2="95.84615384615384" fill="rgb(0, 0, 0)" stroke="rgb(60, 60, 60)" stroke-width="1px" opacity="0.25"></line><line x1="0" y1="82.15384615384616" x2="299.21875" y2="82.15384615384616" fill="rgb(0, 0, 0)" stroke="rgb(60, 60, 60)" stroke-width="1px" opacity="0.25"></line><line x1="0" y1="68.46153846153845" x2="299.21875" y2="68.46153846153845" fill="rgb(0, 0, 0)" stroke="rgb(60, 60, 60)" stroke-width="1px" opacity="0.25"></line><line x1="0" y1="54.769230769230774" x2="299.21875" y2="54.769230769230774" fill="rgb(0, 0, 0)" stroke="rgb(60, 60, 60)" stroke-width="1px" opacity="0.25"></line><line x1="0" y1="41.076923076923066" x2="299.21875" y2="41.076923076923066" fill="rgb(0, 0, 0)" stroke="rgb(60, 60, 60)" stroke-width="1px" opacity="0.25"></line><line x1="0" y1="27.384615384615387" x2="299.21875" y2="27.384615384615387" fill="rgb(0, 0, 0)" stroke="rgb(60, 60, 60)" stroke-width="1px" opacity="0.25"></line><line x1="0" y1="13.692307692307683" x2="299.21875" y2="13.692307692307683" fill="rgb(0, 0, 0)" stroke="rgb(60, 60, 60)" stroke-width="1px" opacity="0.25"></line><line x1="0" y1="0" x2="299.21875" y2="0" fill="rgb(0, 0, 0)" stroke="rgb(60, 60, 60)" stroke-width="1px" opacity="0.25"></line></g></g></g><g><g><line x1="0" y1="123.23076923076923" x2="299.21875" y2="123.23076923076923" fill="rgb(0, 0, 0)" stroke="rgb(153, 153, 153)" stroke-width="1.5px"></line></g></g><g><g><line x1="24.934895833333332" y1="0" x2="24.934895833333332" y2="178" fill="rgb(0, 0, 0)" stroke="rgb(153, 153, 153)" stroke-width="1.5px"></line></g></g><g><g><g><g><g><path stroke="rgb(255, 112, 67)" stroke-width="2px" d="M29.946809895833333,122.85616236094097L30.02161458333333,123.1355914055334L30.096419270833334,123.20853602073157L30.171223958333332,123.22619169646015L30.246028645833334,123.22620380524529L30.320833333333333,123.21852486914344L30.39563802083333,123.22281112195004L30.470442708333334,123.22182618482213L30.545247395833332,123.23978364974303L30.620052083333334,123.27072853715329L30.694856770833333,123.2699938242163L30.76966145833333,123.26366946872125L30.844466145833334,123.22283669288693L30.919270833333332,123.19989284725554L30.994075520833334,123.21871553405599L31.068880208333333,123.22061003428867L31.143684895833335,123.23302317888488L31.218489583333334,123.13214898166704L31.293294270833332,123.05248168072882L31.368098958333334,122.91347245739092L31.442903645833333,122.78899602300619L31.517708333333335,122.59530534302773L31.592513020833334,122.56121868390449L31.667317708333332,122.4832649207398L31.742122395833334,122.64891073820498L31.816927083333333,122.70552308327929L31.891731770833335,122.96009657782903L31.966536458333334,123.14553176681524L32.041341145833336,123.50798057268881L32.116145833333334,123.76818031724663L32.19095052083333,123.98267699461131L32.26575520833333,124.37698598999107L32.34055989583334,124.67113422637418L32.415364583333336,124.44737167254104L30.171223958333332,123.81648731040545L30.420572916666668,123.61646809724041L30.669921874999996,123.48780253013749L30.919270833333332,123.40105223600568L31.168619791666668,123.35663416617774L31.41796875,123.33349870176048L31.667317708333332,123.3318395372018L32.166015625,123.34948499203671L32.415364583333336,123.36199875382056L32.664713541666664,123.35916565465058L32.9140625,123.34717661991255L33.163411458333336,123.36583481969122L33.412760416666664,123.43604881323192L33.662109375,123.50374063578563L33.91145833333333,123.56597401704099L34.160807291666664,123.68513312068183L34.41015625,123.78874922791209L34.659505208333336,123.86555458673541L34.908854166666664,123.90505016234899L35.158203125,123.95466511205348L35.407552083333336,123.96050982237855L35.65690104166667,123.9784699798974L35.90625,124.035403786153L36.155598958333336,124.09265526967118L36.40494791666667,124.16763450131018L36.654296875,124.3393559907618L36.903645833333336,124.47371527649648L37.152994791666664,124.21719834793986L37.40234375,122.68424549591629L37.65169270833333,121.93388414272763L37.90104166666667,121.71488619151404L38.150390625,121.84314563088004L38.39973958333333,122.90223791313217L38.64908854166667,124.52479316613152L38.8984375,126.49797547215404L39.14778645833333,129.67122790657757L39.397135416666664,132.7054170309409L39.646484375,135.601543608105L39.895833333333336,137.90223033503136L40.145182291666664,140.03698683453555L40.39453125,141.31605048213945L40.643880208333336,142.46912020263719L40.893229166666664,143.70096135122475L41.142578125,144.77593026151L41.391927083333336,145.86739800006913L41.641276041666664,146.9610634259077L41.89062500000001,147.48362121101525L42.139973958333336,148.06887201461058L42.389322916666664,148.70039869634334L42.63867187499999,149.39647529709538L42.888020833333336,150.38512549420807L43.137369791666664,150.69563989871645L43.38671875,151.3546926174901L43.636067708333336,152.39101099567435L43.885416666666664,152.17126601419022L44.134765625,152.36237736997936L44.384114583333336,152.3273354942767L44.633463541666664,152.50011201398735L44.8828125,151.97035121553822L45.132161458333336,152.1342658094433L45.38151041666667,151.65465824876506L45.630859375,151.29193686245296L45.88020833333333,150.48240960211908L46.12955729166667,150.31417179998417L46.37890625,148.82146676671348L46.62825520833333,150.11291743232374L46.87760416666667,149.55207434245088L47.126953125,149.80541346363188L47.37630208333333,149.1924432592188L47.62565104166667,149.10368583292103L47.875,148.91384140985488L48.12434895833333,148.662027889208L48.373697916666664,147.9836870293575L48.623046875,147.06941112091837L48.872395833333336,146.79409210624104L49.121744791666664,147.20767183379184L49.37109375,147.82685692612304L49.620442708333336,147.5670227167935L49.869791666666664,147.50671851934422L50.119140625,145.82895317440702L50.368489583333336,147.60544521256188L50.617838541666664,146.4759187690894L50.86718750000001,147.31267521886753L51.116536458333336,146.21897332091214L51.365885416666664,148.56574468743253L51.61523437499999,151.39496864543918L51.864583333333336,152.4185064029993L52.113932291666664,152.81701401976403L52.36328125,153.77750400277262L52.612630208333336,153.8900299872067L52.861979166666664,153.89613379362171L53.111328125,154.84501915216367L53.360677083333336,152.839393297305L53.610026041666664,156.48930242947037L53.859375,156.10202919280843L54.108723958333336,154.84762194930227L54.35807291666667,153.9078564319809L54.607421875,151.56659409706134L54.85677083333333,153.3381905028253L55.10611979166667,153.04503434024124L55.35546875,152.0768411373103L55.60481770833333,151.24067783536847L55.85416666666667,151.01976215764668L56.103515625,151.8296074624347L56.35286458333333,150.6839884392176L56.60221354166667,148.304482102086L56.8515625,151.21471191351083L57.10091145833333,152.2759823963083L57.35026041666667,151.58724516605176L57.599609375,149.03447202245678L57.84895833333333,150.37669095085388L58.098307291666664,149.59255005071816L58.34765625,152.15787734570566L58.597005208333336,152.87663422262304L58.846354166666664,150.8881772137895L59.095703125,150.76524611392293L59.345052083333336,147.8063727988751L59.594401041666664,144.63831624829479L59.84375,144.79252915509306L60.093098958333336,143.05424599283518L60.342447916666664,139.72192756654508L60.59179687500001,138.6153480292201L60.841145833333336,140.56845311133182L61.090494791666664,140.05814579885993L61.33984374999999,136.93223306990737L61.589192708333336,138.722613447878L61.838541666666664,140.35129032325983L62.087890625,136.27750026597386L62.337239583333336,139.41357684703033L62.586588541666664,137.2208414515292L62.8359375,135.75860324697155L63.085286458333336,137.36419112386793L63.334635416666664,136.84234953372862L63.583984375,132.36254846492156L63.833333333333336,133.91621469199825L64.08268229166667,131.58392481969972L64.33203125,129.22309199139397L64.58138020833333,131.37062316910306L64.83072916666667,131.29195664253893L65.080078125,125.66020926927227L65.32942708333333,124.43704775742893L65.57877604166667,125.24341861699116L65.828125,130.26264895467722L66.07747395833333,128.5629777381484L66.32682291666667,127.60674699409941L66.576171875,128.28266131485142L66.82552083333333,127.51542062156946L67.07486979166666,126.0409544595004L67.32421875,132.58369243577337L67.57356770833333,129.12591550701296L67.82291666666666,131.88788561334735L68.072265625,130.7259827687359L68.32161458333333,131.22164614311643L68.57096354166666,129.98068076787234L68.8203125,129.2128917599788L69.06966145833333,122.50897564762333L69.31901041666667,125.00151202199804L69.568359375,121.91799923939583L69.81770833333333,123.11595670769763L70.06705729166667,124.58275982282345L70.31640625,115.60941198928684L70.56575520833333,116.08360778782273L70.81510416666667,116.35730148893849L71.064453125,114.1314405679929L71.31380208333334,113.10912476797728L71.56315104166667,110.87628153134207L71.8125,108.72128812404534L72.06184895833334,107.10325163654034L72.31119791666667,105.98197544293683L72.560546875,105.73248747899076L72.80989583333334,101.22928680772105L73.05924479166667,104.11515910227881L73.30859375,100.5671369811192L73.55794270833333,102.40024496749655L73.80729166666667,101.66315832746167L74.056640625,101.50315049022794L74.30598958333333,98.43097768356924L74.55533854166667,101.4185968159239L74.8046875,97.27642513303486L75.05403645833334,97.84206687709498L75.30338541666666,95.93932635367398L75.552734375,98.23444831928211L75.80208333333334,95.97825187320333L76.05143229166666,96.28065691744943L76.30078125,94.25239608774902L76.55013020833334,97.57045828341252L76.79947916666666,94.6733778694522L77.048828125,93.8491114255569L77.29817708333334,93.0586742052581L77.54752604166666,89.5833173484018L77.796875,87.04128078027568L78.04622395833333,92.35827830949746L78.29557291666666,85.83952183987142L78.544921875,87.43180193765838L78.79427083333333,85.3021242698479L79.04361979166667,85.3753338311536L79.29296875,87.28705530674411L79.54231770833333,83.23564921023524L79.79166666666667,86.60721630895458L80.041015625,82.22076155569745L80.29036458333333,81.82833477155324L80.53971354166667,81.07695442339431L80.7890625,80.74389372454628L81.03841145833333,75.73633072395741L81.28776041666667,80.34209844564248L81.537109375,76.80406103236538L81.78645833333333,71.6324392603635L82.03580729166667,61.084879780771125L82.28515625,57.94219367891563L82.53450520833333,63.853596078189625L82.78385416666667,65.41264396212748L83.03320312500001,71.44513195704005L83.28255208333333,77.46050829949634L83.53190104166667,74.20353230807164L83.78125000000001,67.12651878716794L84.03059895833333,64.44245775644102L84.27994791666667,68.5676937512955L84.52929687499999,65.6425601324724L84.77864583333333,64.24690147114136L85.02799479166667,65.57409995626504L85.27734374999999,64.45037563021562L85.52669270833333,67.71615031310344L85.77604166666667,68.54663984148756L86.025390625,65.03592710228962L86.27473958333333,65.07853061369687L86.52408854166667,72.4773315188294L86.7734375,74.27464393634554L87.02278645833333,79.41717264568183L87.27213541666667,80.26761954000357L87.521484375,71.56919258769655L87.77083333333333,70.20669200290715L88.26953125,68.29390471050519L88.51888020833333,70.63700585883485L88.76822916666667,74.20361595391361L89.017578125,74.99521009441003L89.26692708333333,68.783922333032L89.51627604166667,75.37354856090504L89.765625,69.46300650635034L90.01497395833334,69.8892232587625L90.26432291666667,63.491133389743304L90.513671875,70.26657186252969L90.76302083333334,74.2811633687479L91.01236979166666,73.15178598640706L91.26171875,81.95659085137042L91.51106770833334,78.28006377783696L91.76041666666666,78.92038198735835L92.009765625,81.32328651205611L92.25911458333334,77.5247563234324L92.50846354166666,79.32009398500557L92.7578125,84.64721534356963L93.00716145833334,83.17739519805698L93.25651041666666,80.06694480515574L93.505859375,82.15139402131929L93.75520833333334,78.22629456673633L94.00455729166666,81.39480637789205L94.25390625,85.71549467244776L94.50325520833334,73.11058685778994L94.75260416666666,79.88756409094538L95.001953125,78.03706779134983L95.25130208333334,69.01104565340066L95.50065104166666,75.00218880103697L95.75,65.70214324137189L95.99934895833334,67.23725415020174L96.24869791666666,67.82644112373168L96.498046875,74.14312635249453L96.74739583333333,71.57211845793415L96.99674479166666,71.07294472447504L97.24609375,67.91926154223273L97.49544270833333,64.8412649014608L97.74479166666667,79.38706564869884L97.994140625,76.80493924414344L98.24348958333333,78.72909850988843L98.49283854166667,80.00186431246665L98.7421875,77.97144822427386L98.99153645833333,81.30053291959662L99.24088541666667,75.23004224720381L99.490234375,69.70167090191116L99.73958333333333,76.34576355036299L99.98893229166667,72.68753320345999L100.23828125,80.95131173996117L100.48763020833333,69.99470387536005L100.73697916666667,77.22085632649308L100.986328125,74.23056068556775L101.23567708333333,72.5830573104824L101.48502604166667,76.25480217850698L101.73437500000001,79.61884260201198L101.98372395833333,75.50313322374852L102.23307291666667,82.00463344142308L102.48242187500001,79.81317640603099L102.73177083333333,82.55407718162658L102.98111979166667,87.10024022846589L103.23046874999999,79.4362963517167L103.47981770833333,84.51757893853717L103.72916666666667,91.0717933327479L103.97851562499999,87.56303335133332L104.22786458333333,81.59721688662162L104.47721354166667,81.26819934067564L104.7265625,73.07377839135512L104.97591145833333,74.90745874213073L105.22526041666667,77.57569797019298L105.474609375,77.83935714012924L105.72395833333333,77.60773210305666L105.97330729166667,81.60942606720697L106.22265625,79.09170717629736L106.47200520833333,82.46311029022854L106.72135416666667,81.17763679345616L106.970703125,78.40891058195655L107.22005208333333,83.7057331682798L107.46940104166667,79.41589781898828L107.71875,83.785145295749L107.96809895833333,80.70088743109741L108.21744791666667,87.15756470341414L108.466796875,82.75719562077799L108.71614583333334,76.51064255134676L108.96549479166667,78.83638056876721L109.21484375,78.72563244833947L109.46419270833334,84.98155222725282L109.71354166666666,81.27611209020628L109.962890625,80.86470848865372L110.21223958333334,82.5840214679387L110.46158854166666,82.94786872710958L110.7109375,90.21382112558084L110.96028645833334,88.76479492660675L111.20963541666666,86.4220670200275L111.458984375,84.85038602617853L111.70833333333334,85.63360744965863L111.95768229166666,76.9956947772715L112.20703125,69.99875453397485L112.45638020833334,72.15045527435407L112.70572916666666,74.26166319921468L112.955078125,77.10397433178842L113.20442708333334,73.37517416393933L113.45377604166666,80.34491119885L113.703125,77.60799708153017L113.95247395833334,79.83677583493072L114.20182291666666,75.32829804431687L114.451171875,65.25139328229737L114.70052083333334,67.54021238961957L114.94986979166666,70.54468206434473L115.19921875,69.2281427393956L115.44856770833333,74.91162056619312L115.69791666666666,74.18178258200197L115.947265625,69.74853200553757L116.19661458333333,59.24358205286618L116.44596354166667,61.50009333525411L116.6953125,61.17006103655288L116.94466145833333,56.62933926123273L117.19401041666667,54.207102317256464L117.443359375,58.562583692365244L117.69270833333333,63.15390260482811L117.94205729166667,63.658148582644095L118.19140625,70.25665370529748L118.44075520833333,76.2739303546576L118.69010416666667,77.29155819272339L118.939453125,78.91438469543797L119.18880208333333,79.34980232546495L119.43815104166667,74.95858466230308L119.6875,77.25628456649055L120.18619791666667,65.5269215213791L120.43554687500001,67.17260092495935L120.68489583333333,72.053881312328L120.93424479166667,69.77182765942017L121.18359375000001,76.65459472116855L121.43294270833333,74.69397009716644L121.68229166666667,76.56999082060081L121.93164062499999,71.77233415887378L122.18098958333333,70.11774505404009L122.43033854166667,65.57687907400307L122.67968749999999,66.94476609632305L122.92903645833333,67.37494652255869L123.17838541666667,69.87304536480099L123.427734375,60.236343357984396L123.67708333333333,62.293325526086846L123.92643229166667,58.890824569802504L124.17578125,59.15797094638684L124.42513020833333,60.99426640994822L124.67447916666667,67.43340806092539L124.923828125,62.29524695095389L125.17317708333333,59.09861769759682L125.42252604166667,58.8772428642293L125.92122395833333,63.791873795883205L126.17057291666667,63.496947984523615L126.419921875,66.72193896165956L126.66927083333333,58.07873216596433L126.91861979166667,52.9965408578531L127.16796875,52.89950195071884L127.41731770833334,48.43169312318072L127.66666666666667,53.28021532036651L127.916015625,55.32223550841957L128.16536458333334,62.724098108711054L128.41471354166666,55.797622798613794L128.6640625,55.98529922519818L128.91341145833334,55.813632373723195L129.412109375,61.32102509742819L129.66145833333334,64.13415209388548L129.91080729166666,62.00428631084037L130.16015625,58.25519216074364L130.40950520833334,57.14447703186348L130.65885416666666,52.31404170664815L130.908203125,54.55999352773551L131.15755208333334,55.71292465151586L131.40690104166666,51.345791295801725L131.65625,44.56939467940224L131.90559895833334,54.595088008273294L132.15494791666666,53.01701849616365L132.404296875,55.923825664207754L132.65364583333334,54.05006771626426L132.90299479166666,50.05669042763828L133.15234375,47.76215345899434L133.40169270833334,52.85895936219611L133.65104166666666,46.23423656632046L133.900390625,46.94663022597204L134.14973958333331,48.69666184201352L134.39908854166666,55.20058524232123L134.6484375,54.67725850576308L134.89778645833331,62.58421631714192L135.14713541666666,65.53107060871966L135.396484375,53.65082089189008L135.64583333333331,54.57811343169355L135.89518229166666,62.346359574542554L136.14453125,60.852912831705304L136.39388020833331,58.68973281700884L136.64322916666666,56.74364386125398L136.892578125,56.52753494134863L137.14192708333331,55.527569413811946L137.39127604166666,53.807602638840805L137.640625,52.5217932927114L137.88997395833331,51.97834741187798L138.13932291666666,52.33988032729129L138.388671875,56.88368662040009L138.63802083333334,56.014940477301266L138.88736979166666,56.04498336221461L139.13671875,53.53028682542485L139.38606770833334,55.104053196423045L139.63541666666666,55.38039359599197L139.884765625,52.034995067554235L140.13411458333334,55.58352063296795L140.38346354166666,51.60437154796548L140.6328125,51.303132989016305L140.88216145833334,47.713655840162694L141.13151041666666,46.73883554112248L141.380859375,49.110311617313585L141.63020833333334,47.81411118819916L141.87955729166666,46.956543859009486L142.12890625,50.35932837862874L142.37825520833334,51.10025493099521L142.62760416666669,51.6300770050402L142.876953125,51.92785831451188L143.12630208333334,54.35410177436104L143.37565104166669,52.30014152914113L143.625,54.87139166257369L143.87434895833334,55.33237766816094L144.12369791666669,45.02439819607386L144.373046875,55.95018586600387L144.62239583333334,56.73219991376736L144.87174479166669,53.148590983088L145.12109375,55.903389924982754L145.37044270833334,51.80068061190636L145.61979166666669,52.935278444423716L145.869140625,54.268576851998276L146.11848958333334,52.24297136754663L146.36783854166669,55.16340642845691L146.86653645833334,59.70170975180259L147.11588541666666,54.42623188581526L147.365234375,50.32683836878446L147.61458333333334,38.65507944409406L147.86393229166666,46.461454314358704L148.11328125,41.96962219892924L148.36263020833334,39.726311523844096L148.61197916666666,43.401260148042944L148.861328125,43.22942221243602L149.11067708333334,49.56571130616505L149.36002604166666,47.738153907252986L149.609375,54.77035118083392L149.85872395833334,51.089102915719394L150.10807291666669,49.01502374471785L150.35742187499997,46.01599077059685L150.60677083333331,55.78626516771327L150.85611979166666,58.19142949904668L151.10546875,58.602146776013065L151.35481770833334,54.26254148709783L151.60416666666669,59.42232732615292L151.85351562499997,57.832695148696565L152.10286458333331,62.41705483335856L152.35221354166666,65.21298582911577L152.6015625,63.90650757013886L152.85091145833334,59.5957299627564L153.349609375,53.67027478607858L153.59895833333331,54.56372460745882L153.84830729166666,50.20945777402494L154.09765625,54.936847707299194L154.34700520833334,53.979636923564485L154.59635416666669,50.90832532594794L154.845703125,49.928912578616014L155.09505208333331,50.86426673310148L155.34440104166666,52.681478834932996L155.59375,55.11670719560374L155.84309895833334,57.71163136715753L156.09244791666666,49.226240500310674L156.341796875,48.23825856715419L156.59114583333331,54.39133518508294L156.84049479166666,48.00891680553593L157.08984375,51.98515818644281L157.33919270833334,48.49561424240392L157.58854166666666,45.08545060955744L157.837890625,46.68354311541518L158.08723958333334,49.947026316214234L158.33658854166666,50.31442697371671L158.5859375,50.12272809186034L158.83528645833334,48.59106438760569L159.08463541666666,50.297680448687956L159.333984375,52.88982474095819L159.58333333333334,51.710144099241745L159.83268229166666,52.51243098774329L160.08203125,53.14893479832506L160.33138020833334,52.670147598684025L160.58072916666666,51.75211109526811L160.830078125,51.175857428175746L161.07942708333334,47.56471151594992L161.32877604166669,45.828501903231675L161.578125,48.43890347489049L161.82747395833334,48.086093408927674L162.07682291666666,43.677259911933746L162.326171875,46.29876135440559L162.57552083333334,47.549236641697966L162.82486979166669,49.05730640809569L163.07421875,55.02269344099249L163.32356770833331,53.237123813712834L163.57291666666666,54.00491807297078L163.822265625,50.62034727181733L164.07161458333334,52.12721345130967L164.32096354166669,48.37043858902122L164.5703125,50.31796607300596L164.81966145833331,52.82014855789425L165.06901041666666,47.89814581761666L165.318359375,46.69293013066915L165.56770833333334,51.4345981346008L165.81705729166669,53.66263445003069L166.06640625000003,50.19862950635967L166.31575520833331,50.65531752949003L166.56510416666666,45.8597594792043L166.814453125,49.10965190404715L167.06380208333334,47.47127708790982L167.31315104166669,48.606095620750324L167.56250000000003,48.52815750625806L167.81184895833331,47.074287827212984L168.06119791666666,48.544119803730894L168.310546875,40.40876335327968L168.55989583333334,43.571320610563056L168.80924479166669,44.76367845008747L169.05859374999997,41.18721772538225L169.30794270833331,43.731504066625845L169.55729166666666,43.4836996917502L169.806640625,45.59444840696909L170.05598958333334,44.635837569290366L170.30533854166669,50.88525309323814L170.55468749999997,43.67678106384741L170.80403645833331,40.598455001411295L171.05338541666666,35.53436981363786L171.302734375,35.40964474467498L171.55208333333334,43.1797361852778L171.80143229166669,43.90514290088272L172.05078125,46.391780791282706L172.30013020833331,50.970925954158524L172.54947916666666,50.54498423765623L172.798828125,49.847486793626636L173.04817708333334,51.78627111247782L173.29752604166669,49.47823635546559L173.546875,50.2432327479154L173.79622395833331,49.49085800249022L174.04557291666666,52.254684138840155L174.294921875,50.295166299484976L174.54427083333334,50.645442458054504L174.79361979166666,45.7348264160887L175.04296875,40.50888739980533L175.29231770833331,41.9632770457839L175.54166666666666,36.7540966983331L175.791015625,49.134221770690075L176.04036458333334,50.996631554376165L176.28971354166666,47.636689570818675L176.5390625,46.76887533823189L176.78841145833334,49.32871576220897L177.03776041666666,50.469907949944805L177.287109375,51.88713278759197L177.53645833333334,45.094073190621586L177.78580729166666,42.16742519536002L178.03515625,36.08486846959545L178.28450520833334,36.500269619495775L178.53385416666666,36.41392748825022L178.783203125,40.449323900176665L179.03255208333334,39.86141304691191L179.28190104166666,41.66256832469161L179.53125,45.173765718044L179.78059895833334,43.46580558044706L180.02994791666669,44.1122030630932L180.279296875,40.57845189203635L180.52864583333334,41.39344420909315L180.77799479166666,40.9458152190688L181.02734375,43.4598432456803L181.27669270833334,42.89579319669454L181.52604166666669,43.15171380605946L181.775390625,50.46431064283226L182.02473958333331,32.22320496292292L182.27408854166666,33.472085708044084L182.5234375,34.68363609302995L182.77278645833334,40.789105189330954L183.02213541666669,37.53531217952594L183.271484375,40.12484196375898L183.52083333333331,41.87359154323622L183.77018229166666,47.955619928148394L184.01953125,49.920127468833144L184.26888020833334,42.757377590026955L184.51822916666669,40.18637684440267L184.76757812500003,41.19292563150637L185.01692708333331,41.658398295069695L185.26627604166666,41.12759477725965L185.515625,39.832483790841216L185.76497395833334,43.12964184709898L186.01432291666669,41.70524068757695L186.26367187500003,45.6081498939727L186.51302083333331,46.710461190233524L186.76236979166666,47.93607379572064L187.01171875,41.73559993069637L187.26106770833334,40.14066216225647L187.51041666666669,27.218599873037473L187.75976562499997,31.26848805703876L188.00911458333331,30.908769448837884L188.25846354166666,36.11094887821199L188.5078125,38.72765093445234L188.75716145833334,37.54447859167729L189.00651041666669,44.692405585745554L189.25585937499997,47.32345362882863L189.50520833333331,45.52508722128943L189.75455729166666,45.6623784940849L190.00390625,41.665898242080814L190.25325520833334,35.10097438648571L190.50260416666669,36.89540231283718L190.751953125,41.543420052863446L191.00130208333331,38.206063751641814L191.25065104166666,38.34646029359703L191.5,35.30890596835698L191.74934895833334,36.5020536863233L191.99869791666669,40.442268612222186L192.248046875,40.12410371987049L192.49739583333331,44.90295766837062L192.74674479166666,50.783686093003304L192.99609375,45.2008734001398L193.24544270833334,47.246861971790246L193.49479166666666,45.46399539094111L193.744140625,49.013656011889616L193.99348958333331,52.1379863927783L194.24283854166666,56.07943132212655L194.4921875,47.459614347944644L194.74153645833334,43.004480514613014L194.99088541666666,42.0615071552503L195.240234375,42.4108253207005L195.48958333333334,44.543718914438045L195.73893229166666,41.51203442459996L195.98828125,37.980095897726834L196.23763020833334,36.46368232736055L196.48697916666666,41.87375837830299L196.736328125,38.71744725955391L196.98567708333334,33.90938610851178L197.23502604166666,31.199615441493034L197.484375,38.919391316428275L197.73372395833334,40.5739513850812L197.98307291666666,37.975974482829066L198.232421875,46.339770938476725L198.48177083333334,46.55022298976872L198.73111979166669,46.473982887958655L198.98046875,38.30397033908905L199.22981770833334,42.86151126111757L199.47916666666666,39.022015956781345L199.728515625,37.793300522320386L199.97786458333334,32.645858994281646L200.22721354166669,33.974156238713306L200.4765625,34.22646964490504L200.72591145833331,33.08563256983627L200.97526041666666,34.50684547489455L201.224609375,32.202803802881064L201.47395833333334,31.00615238506584L201.72330729166669,37.08235497826195L201.97265625,37.96409704786087L202.22200520833331,40.52661534846751L202.47135416666666,41.86177430387281L202.720703125,41.054437200778835L202.97005208333334,30.628385047142473L203.21940104166669,30.375890815272793L203.46875000000003,34.2009555143665L203.71809895833331,42.72173899207277L203.96744791666666,43.898822332950274L204.216796875,38.11080814562914L204.46614583333334,35.97054525114703L204.71549479166669,36.58521428964177L204.96484375000003,26.42879586880084L205.21419270833331,24.866917730771956L205.46354166666666,30.448212343832385L205.712890625,27.457271598804322L205.96223958333334,27.377873126331124L206.21158854166669,20.709471760695767L206.46093749999997,27.151918138016764L206.71028645833331,33.84386104915435L206.95963541666666,35.53222922245383L207.208984375,35.31882166902671L207.45833333333334,36.189434862377915L207.70768229166669,24.68704636148101L207.95703124999997,28.541805659014127L208.20638020833331,23.324873968528617L208.45572916666666,33.95135420007749L208.705078125,30.999284598810014L208.95442708333334,32.85367549091911L209.20377604166669,38.86650293249093L209.453125,37.01619997726801L209.70247395833331,38.00028670952411L209.95182291666666,35.8006380350012L210.201171875,36.63798900456629L210.45052083333334,35.16438173704341L210.69986979166669,33.97336216013658L210.94921875,34.48785053864504L211.19856770833331,33.367178084887L211.44791666666666,34.24813888218218L211.697265625,30.901246563609206L211.94661458333334,33.704569730768064L212.19596354166666,31.90241443179768L212.4453125,31.559373686779185L212.69466145833331,33.18605964508845L212.94401041666666,41.16762409882067L213.193359375,44.62630230353066L213.44270833333334,48.559480124324686L213.69205729166666,47.38150132697048L213.94140625,42.876021081216486L214.19075520833334,44.783662364212155L214.44010416666666,47.259523514108366L214.689453125,35.47250027296886L214.93880208333334,38.43688617710575L215.18815104166666,39.59402732910375L215.68684895833334,39.276497051899966L215.93619791666666,40.64660601593942L216.185546875,41.53959201579487L216.43489583333334,34.190974958340725L216.68424479166666,36.826495046744206L216.93359375,38.64029699377293L217.18294270833334,40.50998207035295L217.43229166666669,36.73804563986988L217.681640625,36.102378329497355L217.93098958333334,36.04925089484011L218.18033854166666,40.66399138444762L218.4296875,41.48584576779297L218.67903645833334,33.80453412364902L218.92838541666669,38.95024713012016L219.177734375,43.55237184750194L219.42708333333331,38.8156034122215L219.67643229166666,35.00984873227879L219.92578125,34.433708816346694L220.17513020833334,40.64270843471489L220.42447916666669,46.04076515998757L220.673828125,48.26333667120662L220.92317708333331,50.14806307309282L221.17252604166666,39.239136241213345L221.421875,36.33044941839651L221.67122395833334,40.033239538404565L221.92057291666669,36.987440888429234L222.16992187500003,36.50987184765152L222.41927083333331,41.09062499880276L222.66861979166666,36.90318584076865L222.91796875,38.2768281914729L223.16731770833334,40.63691409933199L223.41666666666669,41.11825556690837L223.91536458333331,40.2446031427198L224.16471354166666,39.770337653735844L224.4140625,37.17912144952252L224.66341145833334,35.71986139252188L224.91276041666669,33.76973624304956L225.16210937499997,39.108095889177854L225.41145833333331,38.734451755355416L225.66080729166666,35.62492732809682L225.91015625,38.95987543137581L226.15950520833334,38.406006993115966L226.40885416666669,34.25457285901185L226.65820312499997,35.18409674157711L226.90755208333331,39.55489395685847L227.15690104166666,39.293394982889126L227.40625,43.561716733573626L227.65559895833334,47.72634997352197L227.90494791666669,38.59275863124546L228.154296875,44.4528205945845L228.40364583333331,36.9292336024313L228.65299479166666,43.24556861440537L228.90234375,38.31300546002505L229.15169270833334,33.17252526674709L229.40104166666669,32.77194126290656L229.650390625,35.13057465459453L229.89973958333331,38.430834000097825L230.14908854166666,38.78765795057703L230.3984375,35.07202230166195L230.64778645833334,36.11935330057161L230.89713541666666,35.57943416380525L231.146484375,35.11454244103216L231.39583333333331,38.68887237741416L231.64518229166666,36.623505146888704L231.89453125,39.58419795085107L232.14388020833334,42.588277377641404L232.39322916666666,38.78413599516022L232.642578125,35.434394531619475L232.89192708333334,38.71239808207453L233.14127604166666,35.173082054153824L233.390625,33.69130630247614L233.63997395833334,34.302555681369235L233.88932291666666,35.00618609530743L234.138671875,38.17550684198013L234.38802083333334,29.98447016541572L234.63736979166666,35.940065644171284L234.88671875,37.23633456073466L235.13606770833334,41.70715747519157L235.38541666666666,36.75511788458535L235.88411458333334,33.532261205041316L236.13346354166669,30.903443625349766L236.3828125,23.864774246405023L236.63216145833334,22.136841924927598L236.88151041666666,25.411599807337883L237.38020833333334,29.315170897022917L237.62955729166669,27.152942641363143L237.87890625,31.82708492779792L238.12825520833331,26.656821160019724L238.37760416666666,30.386852517976987L238.626953125,33.040340399664636L238.87630208333334,32.07686458032799L239.12565104166669,37.886254938757936L239.375,37.35720899564094L239.62434895833331,37.496772332011226L239.87369791666666,33.72290488386344L240.123046875,32.61236859466227L240.37239583333334,37.53357639971729L240.62174479166669,43.01351026196831L240.87109375000003,37.213443182750005L241.12044270833331,32.65821487064385L241.36979166666666,34.656261067490334L241.619140625,28.537102311927864L241.86848958333334,30.609198044402078L242.11783854166669,33.513046844125455L242.36718750000003,32.730951803609436L242.61653645833331,31.07768132456912L242.86588541666666,28.6361371573091L243.115234375,36.14586325540748L243.36458333333334,33.885870062713394L243.61393229166669,32.877044639415885L243.86328124999997,36.08988832962308L244.11263020833331,40.932407013229835L244.36197916666666,39.85874538474265L244.611328125,35.68016507400403L244.86067708333334,35.08123236631121L245.11002604166669,36.144991274316475L245.35937499999997,31.929780467808776L245.60872395833331,35.753575748571386L245.85807291666666,36.07721235306411L246.107421875,36.72283817867478L246.35677083333334,34.687536413862404L246.60611979166669,33.80676963696678L246.85546875,35.37071078190775L247.10481770833331,34.8813317918798L247.35416666666666,35.015476714428885L247.603515625,35.23174338621066L247.85286458333334,38.21243872370544L248.10221354166669,33.82656501973634L248.3515625,35.06585572232858L248.60091145833331,32.39806886036154L248.85026041666666,36.86976994264422L249.099609375,37.13415870090992L249.34895833333334,31.566803156994272L249.84765625,32.51167357956504L250.09700520833331,40.890963492456194L250.34635416666666,38.773679182603765L250.595703125,36.551403742284585L250.84505208333334,37.07111262524419L251.09440104166666,36.662097060760985L251.34375,39.86885787400167L251.59309895833334,36.29436723341542L251.84244791666666,35.449615247134965L252.091796875,30.546286194695867L252.34114583333334,33.37839368853475L252.59049479166666,31.806803616356653L252.83984375,36.92878754607226L253.08919270833334,29.420446731369324L253.33854166666666,26.605905088569944L253.587890625,34.97753506927402L253.83723958333334,36.785922809001704L254.08658854166666,37.062471859557796L254.3359375,32.78032081621168L254.58528645833334,35.17239983671656L254.83463541666669,31.35377313050801L255.083984375,35.97105851613156L255.33333333333334,31.403576829321L255.58268229166666,31.131609111461678L255.83203125,32.96863758484387L256.0813802083333,35.75019470863994L256.3307291666667,37.72089941326239L256.580078125,34.081383325184746L256.8294270833333,29.16826132938631L257.07877604166663,31.675598362807936L257.328125,29.944877931540706L257.5774739583333,31.346560589068257L257.8268229166667,38.12780945900362L258.076171875,38.52798880533192L258.3255208333333,42.02171180713432L258.82421875,41.79685699338515L259.0735677083333,35.75885484591466L259.3229166666667,33.60844776707405L259.572265625,35.318851460772144L259.8216145833333,41.61635321960294L260.0709635416667,35.65969318317026L260.3203125,39.335356332781906L260.5696614583333,30.268102168715874L260.8190104166667,38.76147109525933L261.068359375,40.247406655709554L261.3177083333333,42.78726393736728L261.5670572916667,40.52068576438852L261.81640625,33.44354854359404L262.0657552083333,35.835220658937004L262.3151041666667,32.05781680134928L262.564453125,38.981604254816105L262.8138020833333,32.272825473797496L263.0631510416667,34.16942487154L263.3125,33.82051681092918L263.5618489583333,38.551607031982684L263.8111979166667,40.36102943290654L264.060546875,33.46900874133387L264.3098958333333,33.94632405630497L264.5592447916667,30.440387359808366L264.80859375,31.790460601685428L265.0579427083333,34.38622290712566L265.3072916666667,33.032868792774885L265.556640625,36.96435320432891L265.8059895833333,36.34837240655919L266.0553385416667,35.27500984248569L266.3046875,35.97140667406487L266.55403645833337,36.00987324732127L266.8033854166667,33.935098958487046L267.052734375,34.87809220379003L267.3020833333333,34.0740253744356L267.5514322916667,35.739660585989505L267.80078125,42.274127743148306L268.05013020833337,43.378353663570394L268.29947916666663,44.72919479185468L268.548828125,49.41937816567772L268.7981770833333,51.19343920925863L269.0475260416667,49.87002165543799L269.296875,46.35214499352572L269.54622395833337,42.519295718274L270.044921875,46.4370154755858L270.2942708333333,43.0632098217566L270.5436197916667,40.259523007030076L270.79296875,37.807356266141475L271.04231770833337,33.27896114878872L271.29166666666663,36.489867938944585L271.541015625,35.21967727652216L271.7903645833333,37.1752204084595L272.0397135416667,36.87644980042989L272.2890625,33.55879846443012L272.53841145833337,37.65231478305073L272.78776041666663,41.37629913054444L273.037109375,29.343116983960677L273.2864583333333,31.270155410009064L273.5358072916667,29.965080858216226L273.78515625,35.788667039334385L274.03450520833337,43.04720050882264L274.28385416666663,36.88212546581604" style="fill: none;" fill="none"></path></g></g></g></g><g opacity="0.2"><g><g><g><path stroke="rgb(255, 112, 67)" stroke-width="2px" d="M29.946809895833333,122.85616236094097L30.02161458333333,123.30324883228883L30.096419270833334,123.2785628513218L30.171223958333332,123.24695477111695L30.246028645833334,123.22621961447518L30.320833333333333,123.20790213609757L30.39563802083333,123.22894053204351L30.470442708333334,123.22039013703426L30.545247395833332,123.2662674224434L30.620052083333334,123.31667808851657L30.694856770833333,123.26889841860304L30.76966145833333,123.25421735234201L30.844466145833334,123.16172085523317L30.919270833333332,123.1655220281906L30.994075520833334,123.24692743889486L31.068880208333333,123.22345044848939L31.143684895833335,123.2516376429524L31.218489583333334,122.980863297788L31.293294270833332,122.93299286583294L31.368098958333334,122.70497132837772L31.442903645833333,122.60228819801256L31.517708333333335,122.30477569653436L31.592513020833334,122.51008936820122L31.667317708333332,122.36633519942944L31.742122395833334,122.89737828706319L31.816927083333333,122.79044135946492L31.891731770833335,123.34195616826989L31.966536458333334,123.42368426560782L32.041341145833336,124.05165344763259L32.116145833333334,124.1584797902749L32.19095052083333,124.30442193952891L32.26575520833333,124.96844940460645L32.34055989583334,125.11235654583345L32.415364583333336,124.11172785781898L30.171223958333332,122.87016079431544L30.420572916666668,123.31643928265055L30.669921874999996,123.29480418147375L30.919270833333332,123.27092679561332L31.168619791666668,123.29000706168321L31.41796875,123.2987955052119L31.667317708333332,123.3293507903671L32.166015625,123.3759531742678L32.415364583333336,123.38076939648732L32.664713541666664,123.35491600589683L32.9140625,123.32919306780855L33.163411458333336,123.39382211935634L33.412760416666664,123.54136980353638L33.662109375,123.60527836961242L33.91145833333333,123.65932408892192L34.160807291666664,123.86387177614066L34.41015625,123.94417338875624L34.659505208333336,123.98076262496986L34.908854166666664,123.96429352576916L35.158203125,124.02908753661009L35.407552083333336,123.96927688786616L35.65690104166667,124.00541021617559L35.90625,124.12080449553636L36.155598958333336,124.17853249494846L36.40494791666667,124.28010334876868L36.654296875,124.59693822493921L36.903645833333336,124.67525420509853L37.152994791666664,123.83242295510493L37.40234375,120.384816217881L37.65169270833333,120.80834211294467L37.90104166666667,121.38638926469363L38.150390625,122.03553478992902L38.39973958333333,124.49087633651038L38.64908854166667,126.95862604563052L38.8984375,129.45774893118784L39.14778645833333,134.43110655821286L39.397135416666664,137.25670071748587L39.646484375,139.94573347385113L39.895833333333336,141.3532604254209L40.145182291666664,143.23912158379187L40.39453125,143.2346459535452L40.643880208333336,144.19872478338388L40.893229166666664,145.54872307410608L41.142578125,146.38838362693787L41.391927083333336,147.5045996079078L41.641276041666664,148.6015615646656L41.89062500000001,148.26745788867657L42.139973958333336,148.94674822000357L42.389322916666664,149.6476887189425L42.63867187499999,150.4405901982234L42.888020833333336,151.86810078987708L43.137369791666664,151.16141150547907L43.38671875,152.34327169565054L43.636067708333336,153.94548856295071L43.885416666666664,151.84164854196402L44.134765625,152.64904440366305L44.384114583333336,152.27477268072275L44.633463541666664,152.75927679355328L44.8828125,151.1757100178645L45.132161458333336,152.38013770030096L45.38151041666667,150.9352469077477L45.630859375,150.7478547829848L45.88020833333333,149.26811871161829L46.12955729166667,150.0618150967818L46.37890625,146.58240921680743L46.62825520833333,152.0500934307392L46.87760416666667,148.7108097076416L47.126953125,150.18542214540335L47.37630208333333,148.27298795259915L47.62565104166667,148.9705496934744L47.875,148.62907477525565L48.12434895833333,148.28430760823764L48.373697916666664,146.9661757395818L48.623046875,145.6979972582597L48.872395833333336,146.38111358422498L49.121744791666664,147.82804142511807L49.37109375,148.7556345646198L49.620442708333336,147.17727140279916L49.869791666666664,147.41626222317035L50.119140625,143.31230515700122L50.368489583333336,150.2701832697942L50.617838541666664,144.78162910388068L50.86718750000001,148.56780989353473L51.116536458333336,144.57842047397907L51.365885416666664,152.08590173721313L51.61523437499999,155.6388045824491L51.864583333333336,153.9538130393395L52.113932291666664,153.41477544491107L52.36328125,155.21823897728552L52.612630208333336,154.0588189638578L52.861979166666664,153.90528950324426L53.111328125,156.26834718997662L53.360677083333336,149.830954515017L53.610026041666664,161.9641661277184L53.859375,155.5211193378155L54.108723958333336,152.96601108404306L54.35807291666667,152.4982081559988L54.607421875,148.05470059468195L54.85677083333333,155.9955851114713L55.10611979166667,152.6053000963651L55.35546875,150.6245513329139L55.60481770833333,149.9864328824557L55.85416666666667,150.68838864106397L56.103515625,153.0443754196167L56.35286458333333,148.96555990439197L56.60221354166667,144.7352225963886L56.8515625,155.5800566306481L57.10091145833333,153.86788812050452L57.35026041666667,150.554139320667L57.599609375,145.20531230706433L57.84895833333333,152.39001934344952L58.098307291666664,148.4163387005146L58.34765625,156.0058682881869L58.597005208333336,153.95476953799908L58.846354166666664,147.90549170053922L59.095703125,150.58084946412305L59.345052083333336,143.36806282630334L59.594401041666664,139.88623142242432L59.84375,145.02384851529047L60.093098958333336,140.44682124944833L60.342447916666664,134.72344992710993L60.59179687500001,136.95547872323255L60.841145833333336,143.49811073449942L61.090494791666664,139.29268483015207L61.33984374999999,132.24336397647858L61.589192708333336,141.4081840148339L61.838541666666664,142.79430563633258L62.087890625,130.16681518004492L62.337239583333336,144.11769171861502L62.586588541666664,133.93173835827753L62.8359375,133.56524594013507L63.085286458333336,139.77257293921252L63.334635416666664,136.05958714851965L63.583984375,125.64284686171092L63.833333333333336,136.2467140326133L64.08268229166667,128.0854900112519L64.33203125,125.68184274893542L64.58138020833333,134.5919199356666L64.83072916666667,131.1739568526928L65.080078125,117.21258820937231L65.32942708333333,122.60230548966388L65.57877604166667,126.4529749063345L65.828125,137.7914944612063L66.07747395833333,126.01347091335515L66.32682291666667,126.17240087802594L66.576171875,129.29653279597943L66.82552083333333,126.36455958164655L67.07486979166666,123.82925521639677L67.32421875,142.39779940018286L67.57356770833333,123.93925011387239L67.82291666666666,136.03084077284888L68.072265625,128.98312850181873L68.32161458333333,131.96514120468726L68.57096354166666,128.11923270500623L68.8203125,128.06120824813843L69.06966145833333,112.45310147909018L69.31901041666667,128.74031658356006L69.568359375,117.29273006549249L69.81770833333333,124.91289291015039L70.06705729166667,126.78296449551215L70.31640625,102.149390238982L70.56575520833333,116.7949014856265L70.81510416666667,116.76784204061215L71.064453125,110.7926491865745L71.31380208333334,111.57565106795386L71.56315104166667,107.52701667638925L71.8125,105.48879801310025L72.06184895833334,104.67619690528284L72.31119791666667,104.30006115253155L72.560546875,105.35825553307166L72.80989583333334,94.47448580081647L73.05924479166667,108.44396754411551L73.30859375,95.24510379937979L73.55794270833333,105.14990694706256L73.80729166666667,100.55752836740933L74.056640625,101.26313873437735L74.30598958333333,93.82271847358118L74.55533854166667,105.90002551445593L74.8046875,91.06316760870126L75.05403645833334,98.69052949318518L75.30338541666666,93.08521556854248L75.552734375,101.67713126769434L75.80208333333334,92.59395720408514L76.05143229166666,96.73426448381863L76.30078125,91.21000484319833L76.55013020833334,102.54755157690784L76.79947916666666,90.32775724851169L77.048828125,92.61271175971399L77.29817708333334,91.87301837480985L77.54752604166666,84.3702820631174L77.796875,83.22822592808649L78.04622395833333,100.33377460333017L78.29557291666666,76.06138713543231L78.544921875,89.82022208433887L78.79427083333333,82.10760776813214L79.04361979166667,85.48514817311212L79.29296875,90.15463752012988L79.54231770833333,77.15854006547195L79.79166666666667,91.6645669570336L80.041015625,75.64107942581177L80.29036458333333,81.23969459533691L80.53971354166667,79.94988390115591L80.7890625,80.24430267627423L81.03841145833333,68.2249862230741L81.28776041666667,87.25075002817007L81.537109375,71.49700491244977L81.78645833333333,63.875006602360656L82.03580729166667,45.2635405613826L82.28515625,53.228164526132446L82.53450520833333,72.72069967710055L82.78385416666667,67.7512157880343L83.03320312500001,80.4938639494089L83.28255208333333,86.48357281318079L83.53190104166667,69.3180683209346L83.78125000000001,56.51099850581243L84.03059895833333,60.41636621035062L84.27994791666667,74.75554774357721L84.52929687499999,61.254859704237724L84.77864583333333,62.153413479144746L85.02799479166667,67.56489768395056L85.27734374999999,62.76478914114145L85.52669270833333,72.61481233743521L85.77604166666667,69.79237413406372L86.025390625,59.76985799349271L86.27473958333333,65.14243588080774L86.52408854166667,83.57553287652823L86.7734375,76.97061256261972L87.02278645833333,87.13096570968628L87.27213541666667,81.54328988148615L87.521484375,58.52155215923602L87.77083333333333,68.16294112572302L88.26953125,65.42472377190222L88.51888020833333,74.15165758132935L88.76822916666667,79.5535310965318L89.017578125,76.18260130515466L89.26692708333333,59.46699069096491L89.51627604166667,85.25798790271466L89.765625,60.59719342451828L90.01497395833334,70.52854838738074L90.26432291666667,53.89399858621451L90.513671875,80.42972957170926L90.76302083333334,80.30305062807523L91.01236979166666,71.45771991289578L91.26171875,95.16379814881543L91.51106770833334,72.7652731675368L91.76041666666666,79.88085930164044L92.009765625,84.92764329910278L92.25911458333334,71.82696104049683L92.50846354166666,82.01310047736536L92.7578125,92.63789738141574L93.00716145833334,80.97266497978796L93.25651041666666,75.4012692158039L93.505859375,85.27806784556464L93.75520833333334,72.33864538486188L94.00455729166666,86.14757409462561L94.25390625,92.19652711428128L94.50325520833334,54.20322513580322L94.75260416666666,90.05302994067853L95.001953125,75.26132334195651L95.25130208333334,55.47201244647687L95.50065104166666,83.98890352249146L95.75,51.75207490187424L95.99934895833334,69.5399205134465L96.24869791666666,68.71022158402664L96.498046875,83.6181541956388L96.74739583333333,67.71560661609357L96.99674479166666,70.32418412428635L97.24609375,63.18873676886926L97.49544270833333,60.22426994030292L97.74479166666667,101.20576676955591L97.994140625,72.93174963731033L98.24348958333333,81.61533740850595L98.49283854166667,81.91101301633395L98.7421875,74.92582409198468L98.99153645833333,86.29415996258075L99.24088541666667,66.1243062386146L99.490234375,61.40911388397217L99.73958333333333,86.31190252304077L99.98893229166667,67.20018768310547L100.23828125,93.34697954471295L100.48763020833333,53.559792078458344L100.73697916666667,88.0600850031926L100.986328125,69.74511722417978L101.23567708333333,70.11180224785437L101.48502604166667,81.76241948054388L101.73437500000001,84.66490323726947L101.98372395833333,69.3295691563533L102.23307291666667,91.75688376793494L102.48242187500001,76.52599085294284L102.73177083333333,86.66542834501999L102.98111979166667,93.91948479872485L103.23046874999999,67.94038053659293L103.47981770833333,92.13950281876782L103.72916666666667,100.90311492406406L103.97851562499999,82.29989337921143L104.22786458333333,72.64849218955408L104.47721354166667,80.77467302175668L104.7265625,60.78214696737436L104.97591145833333,77.65797926829413L105.22526041666667,81.57805681228638L105.474609375,78.23484589503363L105.72395833333333,77.26029454744778L105.97330729166667,87.61196701343243L106.22265625,75.31512883993295L106.47200520833333,87.5202149611253L106.72135416666667,79.24942654829758L106.970703125,74.25582126470712L107.22005208333333,91.65096704776471L107.46940104166667,72.981144795051L107.71875,90.33901651089008L107.96809895833333,76.07450063412006L108.21744791666667,96.84258061188916L108.466796875,76.15664199682382L108.71614583333334,67.14081294719989L108.96549479166667,82.32498759489792L109.21484375,78.55951026769785L109.46419270833334,94.36543189562283L109.71354166666666,75.7179518846365L109.962890625,80.24760308632483L110.21223958333334,85.16299093686618L110.46158854166666,83.49363961586585L110.7109375,101.11274972328772L110.96028645833334,86.59125562814566L111.20963541666666,82.9079751601586L111.458984375,82.49286453540509L111.70833333333334,86.80843958487878L111.95768229166666,64.03882576869086L112.20703125,59.503344169029816L112.45638020833334,75.37800638492291L112.70572916666666,77.42847508650559L112.955078125,81.36744103064905L113.20442708333334,67.78197391216571L113.45377604166666,90.799516751216L113.703125,73.50262590555045L113.95247395833334,83.17994396503155L114.20182291666666,68.56558135839609L114.451171875,50.136036139268136L114.70052083333334,70.97344105060284L114.94986979166666,75.05138657643244L115.19921875,67.2533337519719L115.44856770833333,83.43683730638944L115.69791666666666,73.08702560571524L115.947265625,63.09865614084097L116.19661458333333,43.4861571238591L116.44596354166667,64.884860258836L116.6953125,60.67501258850098L116.94466145833333,49.81825659825251L117.19401041666667,50.57374690129206L117.443359375,65.09580575502835L117.69270833333333,70.04088097352249L117.94205729166667,64.41451754936804L118.19140625,80.15441138927753L118.44075520833333,85.29984532869778L118.69010416666667,78.81799994982205L118.939453125,81.34862444950983L119.18880208333333,80.00292877050546L119.43815104166667,68.37175816756027L119.6875,80.70283442277176L120.18619791666667,47.93287695371188L120.43554687500001,69.64112003032977L120.68489583333333,79.37580189338098L120.93424479166667,66.34874718005841L121.18359375000001,86.97874531379114L121.43294270833333,71.75303316116333L121.68229166666667,79.38402190575232L121.93164062499999,64.57584916628323L122.18098958333333,67.63586139678955L122.43033854166667,58.76558010394757L122.67968749999999,68.99659662980301L122.92903645833333,68.02021716191217L123.17838541666667,73.62019362816443L123.427734375,45.78129034775955L123.67708333333333,65.37879877824051L123.92643229166667,53.78707313537598L124.17578125,59.558690511263336L124.42513020833333,63.748709605290344L124.67447916666667,77.09212053739108L124.923828125,54.58800528599665L125.17317708333333,54.30367381756122L125.42252604166667,58.54518061417801L125.92122395833333,71.16382019336407L126.17057291666667,63.05455926748422L126.419921875,71.55942542736346L126.66927083333333,45.11392197242151L126.91861979166667,45.37325389568622L127.16796875,52.75394359001746L127.41731770833334,41.729979881873504L127.66666666666667,60.5529986161452L127.916015625,58.385265790499176L128.16536458333334,73.82689200914822L128.41471354166666,45.407909833467926L128.6640625,56.26681386507474L128.91341145833334,55.55613209651067L129.412109375,69.58211418298575L129.66145833333334,68.35384258857141L129.91080729166666,58.809487636272735L130.16015625,52.63155093559851L130.40950520833334,55.47840433854324L130.65885416666666,45.068388718825126L130.908203125,57.92892125936655L131.15755208333334,57.44232133718637L131.40690104166666,44.7950912622305L131.65625,34.40479975480301L131.90559895833334,69.63362800157986L132.15494791666666,50.649914227999176L132.404296875,60.28403641627386L132.65364583333334,51.23943079434909L132.90299479166666,44.06662449469934L133.15234375,44.32034800602839L133.40169270833334,60.50416821699875L133.65104166666666,36.29715237250696L133.900390625,48.0152207154494L134.14973958333331,51.321709266075715L134.39908854166666,64.95647034278284L134.6484375,53.89226840092585L134.89778645833331,74.4446530342102L135.14713541666666,69.95135204608624L135.396484375,35.83044631664569L135.64583333333331,55.96905224139874L135.89518229166666,73.99872878881601L136.14453125,58.61274271744949L136.39388020833331,55.44496279496414L136.64322916666666,53.8245104276217L136.892578125,56.20337156149057L137.14192708333331,54.02762112250696L137.39127604166666,51.227652476384094L137.640625,50.593079273517304L137.88997395833331,51.16317859062781L138.13932291666666,52.882179700411285L138.388671875,63.69939606006329L138.63802083333334,54.71182126265305L138.88736979166666,56.090047689584594L139.13671875,49.7582420202402L139.38606770833334,57.46470275292029L139.63541666666666,55.79490419534537L139.884765625,47.016897274897644L140.13411458333334,60.9063089810885L140.38346354166666,45.63564792046179L140.6328125,50.8512751505925L140.88216145833334,42.329440116882324L141.13151041666666,45.276605092562164L141.380859375,52.66752573160025L141.63020833333334,45.869810544527496L141.87955729166666,45.670192865224976L142.12890625,55.463505158057586L142.37825520833334,52.21164475954495L142.62760416666669,52.424810116107636L142.876953125,52.37453027871939L143.12630208333334,57.9934669641348L143.37565104166669,49.21920116131122L143.625,58.728266862722535L143.87434895833334,56.02385667654184L144.12369791666669,29.562428987943207L144.373046875,72.3388673708989L144.62239583333334,57.9052209854126L144.87174479166669,47.773177587069L145.12109375,60.03558833782489L145.37044270833334,45.64661664229172L145.61979166666669,54.63717519319974L145.869140625,56.26852446336014L146.11848958333334,49.20456314086914L146.36783854166669,59.544059019822335L146.86653645833334,66.5091647368211L147.11588541666666,46.51301508683426L147.365234375,44.17774809323825L147.61458333333334,21.147441057058476L147.86393229166666,58.171016619755676L148.11328125,35.231874025785004L148.36263020833334,36.36134551121638L148.61197916666666,48.91368308434119L148.861328125,42.971665309025695L149.11067708333334,59.070144946758575L149.36002604166666,44.996817808884835L149.609375,65.31864709120529L149.85872395833334,45.56723051804764L150.10807291666669,45.903904988215515L150.35742187499997,41.517441309415375L150.60677083333331,70.44167676338782L150.85611979166666,61.799175996046806L151.10546875,59.218222691462586L151.35481770833334,47.75313355372503L151.60416666666669,67.16200608473557L151.85351562499997,55.448246882512024L152.10286458333331,69.29359436035156L152.35221354166666,69.40688232275156L152.6015625,61.94679018167349L152.85091145833334,53.129563551682686L153.349609375,44.78209202106183L153.59895833333331,55.903899339529175L153.84830729166666,43.678057523874145L154.09765625,62.0279326072106L154.34700520833334,52.54382074796237L154.59635416666669,46.301357929523164L154.845703125,48.45979345761813L155.09505208333331,52.26729796482966L155.34440104166666,55.4072969876803L155.59375,58.76954973660983L155.84309895833334,61.60401762448825L156.09244791666666,36.498154200040375L156.341796875,46.756285667419434L156.59114583333331,63.62095011197604L156.84049479166666,38.43528923621545L157.08984375,57.9495202578031L157.33919270833334,43.26129832634558L157.58854166666666,39.97020516028772L157.837890625,49.080681874201844L158.08723958333334,54.84225111741287L158.33658854166666,50.865527959970336L158.5859375,49.835179769075836L158.83528645833334,46.2935688312237L159.08463541666666,52.85760454031137L159.333984375,56.778041179363555L159.58333333333334,49.940623136667114L159.83268229166666,53.715861320495605L160.08203125,54.10369051419772L160.33138020833334,51.951966799222504L160.58072916666666,50.375056340144226L160.830078125,50.31147692753718L161.07942708333334,42.147992647611176L161.32877604166669,43.22418748415433L161.578125,52.35450583237869L161.82747395833334,47.55687830998347L162.07682291666666,37.06400966644287L162.326171875,50.23101351811335L162.57552083333334,49.424949572636535L162.82486979166669,51.319411057692314L163.07421875,63.970773990337676L163.32356770833331,50.558769372793336L163.57291666666666,55.15660946185773L163.822265625,45.54349107008713L164.07161458333334,54.38751272054819L164.32096354166669,42.73527629558856L164.5703125,53.23925729898306L164.81966145833331,56.573422285226684L165.06901041666666,40.515141707200264L165.318359375,44.885106600247894L165.56770833333334,58.54710014049823L165.81705729166669,57.00468892317551L166.06640625000003,45.00262209085318L166.31575520833331,51.340349564185516L166.56510416666666,38.66642240377573L166.814453125,53.9844905413114L167.06380208333334,45.0137148637038L167.31315104166669,50.30832342001108L167.56250000000003,48.4112503345196L167.81184895833331,44.893483308645386L168.06119791666666,50.74886776850774L168.310546875,28.20572867760291L168.55989583333334,48.31515649648813L168.80924479166669,46.552215209374054L169.05859374999997,35.82252663832443L169.30794270833331,47.54793357849121L169.55729166666666,43.1119931294368L169.806640625,48.76057147979736L170.05598958333334,43.19792131277231L170.30533854166669,60.25937637915979L170.55468749999997,32.8640730197613L170.80403645833331,35.98096590775711L171.05338541666666,27.938242031977722L171.302734375,35.22255714123065L171.55208333333334,54.83487334618201L171.80143229166669,44.99325297429011L172.05078125,50.12173762688269L172.30013020833331,57.83964369847224L172.54947916666666,49.90607166290283L172.798828125,48.801240627582246L173.04817708333334,54.69444759075458L173.29752604166669,46.016184219947235L173.546875,51.39072733659012L173.79622395833331,48.36229588435247L174.04557291666666,56.40042334336502L174.294921875,47.35588954045222L174.54427083333334,51.17085669590876L174.79361979166666,38.368902353140015L175.04296875,32.6699788753803L175.29231770833331,44.14486151475174L175.54166666666666,28.94032617715689L175.791015625,67.70440937922552L176.04036458333334,53.79024622990534L176.28971354166666,42.59677659548245L176.5390625,45.467153989351715L176.78841145833334,53.16847639817459L177.03776041666666,52.181696231548614L177.287109375,54.01297004406268L177.53645833333334,34.904483795166016L177.78580729166666,37.777453202467704L178.03515625,26.961033380948578L178.28450520833334,37.12337134434626L178.53385416666666,36.284414291381836L178.783203125,46.502418518066406L179.03255208333334,38.97954676701472L179.28190104166666,44.364301241361176L179.53125,50.4405618080726L179.78059895833334,40.903865374051605L180.02994791666669,45.08179928706243L180.279296875,35.2778251354511L180.52864583333334,42.61593268467829L180.77799479166666,40.27437173403226L181.02734375,47.23088528559759L181.27669270833334,42.04971812321589L181.52604166666669,43.535594720106864L181.775390625,61.433205897991485L182.02473958333331,4.861546443058897L182.27408854166666,35.34540682572586L182.5234375,36.50096167050876L182.77278645833334,49.9473088337825L183.02213541666669,32.65462266481839L183.271484375,44.00913664010855L183.52083333333331,44.49671591245212L183.77018229166666,57.07866250551663L184.01953125,52.86688877986028L184.26888020833334,32.01325277181772L184.51822916666669,36.32987572596624L184.76757812500003,42.70274881216196L185.01692708333331,42.35660729041467L185.26627604166666,40.33138950054462L185.515625,37.88981731121356L185.76497395833334,48.07537893148569L186.01432291666669,39.568638948293824L186.26367187500003,51.46251370356634L186.51302083333331,48.363928134624786L186.76236979166666,49.774492703951324L187.01171875,32.43488913315994L187.26106770833334,37.74825550959661L187.51041666666669,7.835506439208984L187.75976562499997,37.34332033304068L188.00911458333331,30.369191536536587L188.25846354166666,43.91421802227313L188.5078125,42.65270401881292L188.75716145833334,35.76972007751465L189.00651041666669,55.41429607684796L189.25585937499997,51.27002569345328L189.50520833333331,42.82753760998065L189.75455729166666,45.86831540327805L190.00390625,35.67117786407471L190.25325520833334,25.25358860309308L190.50260416666669,39.58704420236441L190.751953125,48.51544666290283L191.00130208333331,33.20002929980939L191.25065104166666,38.557055106529816L191.5,30.752574480496918L191.74934895833334,38.2917752632728L191.99869791666669,46.352591001070465L192.248046875,39.64685638134296L192.49739583333331,52.07123859112079L192.74674479166666,59.6047787299523L192.99609375,36.82665436084454L193.24544270833334,50.3158448292659L193.49479166666666,42.78969551966741L193.744140625,54.33814694331243L193.99348958333331,56.82448196411133L194.24283854166666,61.99159871614896L194.4921875,34.529888886671806L194.74153645833334,36.32177976461557L194.99088541666666,40.64704711620624L195.240234375,42.934802568875824L195.48958333333334,47.74305930504431L195.73893229166666,36.964507689842804L195.98828125,32.682188107417176L196.23763020833334,34.18906197181116L196.48697916666666,49.98887245471661L196.736328125,33.9829805814303L196.98567708333334,26.697294381948613L197.23502604166666,27.13495944096491L197.484375,50.499055128831124L197.73372395833334,43.05579148806058L197.98307291666666,34.07900912945087L198.232421875,58.88546562194824L198.48177083333334,46.865901066706726L198.73111979166669,46.35962273524358L198.98046875,26.048951515784633L199.22981770833334,49.69782264416034L199.47916666666666,33.26277300027701L199.728515625,35.95022737062894L199.97786458333334,24.924696702223567L200.22721354166669,35.96660210536077L200.4765625,34.60493975419266L200.72591145833331,31.374376957233128L200.97526041666666,36.638664832481965L201.224609375,28.74674129486084L201.47395833333334,29.211175258343044L201.72330729166669,46.19665886805608L201.97265625,39.286710152259246L202.22200520833331,44.37039279937744L202.47135416666666,43.86451273698074L202.720703125,39.84343154613788L202.97005208333334,14.989306816687956L203.21940104166669,29.99714946746826L203.46875000000003,39.93855256300705L203.71809895833331,55.502914208632255L203.96744791666666,45.66444734426645L204.216796875,29.428786864647495L204.46614583333334,32.76015090942383L204.71549479166669,37.50721784738394L204.96484375000003,11.194168237539433L205.21419270833331,22.52410052372858L205.46354166666666,38.820154263423035L205.712890625,22.970860481262207L205.96223958333334,27.25877541762131L206.21158854166669,10.706869712242709L206.46093749999997,36.81558770399826L206.71028645833331,43.88177541586069L206.95963541666666,38.064781482403106L207.208984375,34.99871033888596L207.45833333333334,37.495354652404785L207.70768229166669,7.433463610135591L207.95703124999997,34.32394460531381L208.20638020833331,15.499476432800293L208.45572916666666,49.89107454740085L208.705078125,26.57118019690881L208.95442708333334,35.63526182908279L209.20377604166669,47.88574409484863L209.453125,34.240745544433594L209.70247395833331,39.47641680790827L209.95182291666666,32.50116502321683L210.201171875,37.89401545891394L210.45052083333334,32.953970835759094L210.69986979166669,32.186832794776336L210.94921875,35.259583106407746L211.19856770833331,31.686169404249934L211.44791666666666,35.569580078125L211.697265625,25.880908085749695L211.94661458333334,37.90955448150635L212.19596354166666,29.1991814833421L212.4453125,31.04481256925143L212.69466145833331,35.6260885825524L212.94401041666666,53.139970779418945L213.193359375,49.8143196105957L213.44270833333334,54.459246855515694L213.69205729166666,45.61453313093918L213.94140625,36.11780071258545L214.19075520833334,47.64512428870569L214.44010416666666,50.97331523895264L214.689453125,17.791965411259582L214.93880208333334,42.883465033311104L215.18815104166666,41.32973905710074L215.68684895833334,38.80020163609431L215.93619791666666,42.701769461998566L216.185546875,42.879071015578056L216.43489583333334,23.168049372159516L216.68424479166666,40.77977517934946L216.93359375,41.36099991431604L217.18294270833334,43.31450968522293L217.43229166666669,31.080140994145324L217.681640625,35.148877363938546L217.93098958333334,35.96955974285419L218.18033854166666,47.58610211885892L218.4296875,42.718627342811004L218.67903645833334,22.28256665743314L218.92838541666669,46.668816639826844L219.177734375,50.455558923574586L219.42708333333331,31.710450759300816L219.67643229166666,29.30121671236478L219.92578125,33.56949894244855L220.17513020833334,49.95620786226712L220.42447916666669,54.13785024789664L220.673828125,51.597193938035225L220.92317708333331,52.97515267592209L221.17252604166666,22.87574599339411L221.421875,31.967419184171234L221.67122395833334,45.587424718416656L221.92057291666669,32.41874291346624L222.16992187500003,35.79351828648493L222.41927083333331,47.9617547255296L222.66861979166666,30.622027103717503L222.91796875,40.3372917175293L223.16731770833334,44.177042961120605L223.41666666666669,41.84026776827298L223.91536458333331,38.93412450643686L224.16471354166666,39.05893942025992L224.4140625,33.29229714320257L224.66341145833334,33.53097130702093L224.91276041666669,30.84454851884109L225.16210937499997,47.11563535837027L225.41145833333331,38.173985554621765L225.66080729166666,30.96064068720892L225.91015625,43.96229758629431L226.15950520833334,37.57520433572623L226.40885416666669,28.027421657855687L226.65820312499997,36.57838256542499L226.90755208333331,46.11108977978046L227.15690104166666,38.90114652193509L227.40625,49.96419935960037L227.65559895833334,53.97329983344446L227.90494791666669,24.89237161783072L228.154296875,53.24291353959305L228.40364583333331,25.643853114201477L228.65299479166666,52.720071132366485L228.90234375,30.91416072845459L229.15169270833334,25.461804976830113L229.40104166666669,32.17106525714581L229.650390625,38.668524742126465L229.89973958333331,43.38122301835281L230.14908854166666,39.32289387629583L230.3984375,29.498568828289333L230.64778645833334,37.690349798936104L230.89713541666666,34.76955545865573L231.146484375,34.41720485687256L231.39583333333331,44.05036728198712L231.64518229166666,33.52545430110052L231.89453125,44.02523715679462L232.14388020833334,47.094396517826965L232.39322916666666,33.077923921438355L232.642578125,30.40978233630841L232.89192708333334,43.62940340775711L233.14127604166666,29.864108012272766L233.390625,31.468642674959625L233.63997395833334,35.219429749708915L233.88932291666666,36.06163171621469L234.138671875,42.92948796198919L234.38802083333334,17.69791515056903L234.63736979166666,44.87345886230469L234.88671875,39.18073793557974L235.13606770833334,48.413391846876884L235.38541666666666,29.327058498676L235.88411458333334,28.69797618572528L236.13346354166669,26.960217255812434L236.3828125,13.30677017798791L236.63216145833334,19.54494344271146L236.88151041666666,30.323736630953277L237.38020833333334,35.170527531550476L237.62955729166669,23.909600257873535L237.87890625,38.83829835745004L238.12825520833331,18.90142550835242L238.37760416666666,35.98189955491287L238.626953125,37.02057222219614L238.87630208333334,30.63165085132306L239.12565104166669,46.60034047640286L239.375,36.563640080965484L239.62434895833331,37.70611733656662L239.87369791666666,28.062103711641754L240.123046875,30.946564160860504L240.37239583333334,44.915388107299805L240.62174479166669,51.233411055344796L240.87109375000003,28.51334256392258L241.12044270833331,25.825372402484593L241.36979166666666,37.6533303627601L241.619140625,19.358364178584168L241.86848958333334,33.71734164311335L242.11783854166669,37.86882004371057L242.36718750000003,31.557809242835415L242.61653645833331,28.59777560600867L242.86588541666666,24.97382090641901L243.115234375,47.41045240255502L243.36458333333334,30.495880273672245L243.61393229166669,31.36380650446966L243.86328124999997,40.9091538649339L244.11263020833331,48.19618503863995L244.36197916666666,38.2482529420119L244.611328125,29.41229460789606L244.86067708333334,34.182833304772004L245.11002604166669,37.74062963632437L245.35937499999997,25.606964258047245L245.60872395833331,41.4892686697153L245.85807291666666,36.56266725980319L246.107421875,37.69127691709079L246.35677083333334,31.634583766643825L246.60611979166669,32.48561947162335L246.85546875,37.716622499319215L247.10481770833331,34.14726330683782L247.35416666666666,35.21669409825251L247.603515625,35.55614339388333L247.85286458333334,42.6834817299476L248.10221354166669,27.24775446378268L248.3515625,36.92479177621695L248.60091145833331,28.39638856741098L248.85026041666666,43.57732156606821L249.099609375,37.53074183830847L249.34895833333334,23.21576984112079L249.84765625,33.92897921342117L250.09700520833331,53.45989836179294L250.34635416666666,35.597752717825074L250.595703125,33.21799058180588L250.84505208333334,37.85067594968356L251.09440104166666,36.0485737140362L251.34375,44.67899909386267L251.59309895833334,30.932631272536067L251.84244791666666,34.182487267714286L252.091796875,23.191292616037227L252.34114583333334,37.62655492929312L252.59049479166666,29.449418508089508L252.83984375,44.61176344064566L253.08919270833334,18.157935509314907L253.33854166666666,22.384092624370876L253.587890625,47.53498004033015L253.83723958333334,39.49850441859319L254.08658854166666,37.47729543539194L254.3359375,26.357094251192535L254.58528645833334,38.76051836747391L254.83463541666669,25.62583307119516L255.083984375,42.896986594566926L255.33333333333334,24.552354299105133L255.58268229166666,30.723657534672668L255.83203125,35.724180294917176L256.0813802083333,39.92253039433405L256.3307291666667,40.676956470196075L256.580078125,28.622109193068294L256.8294270833333,21.79857833568866L257.07877604166663,35.4366039129404L257.328125,27.3487972846398L257.5774739583333,33.44908457535965L257.8268229166667,48.29968276390662L258.076171875,39.1282578248244L258.3255208333333,47.26229630983792L258.82421875,41.459574772761414L259.0735677083333,26.70185162470892L259.3229166666667,30.382837148813106L259.572265625,37.884457001319305L259.8216145833333,51.06260585784912L260.0709635416667,26.724703128521266L260.3203125,44.84885105719934L260.5696614583333,16.667220922616817L260.8190104166667,51.501524485074555L261.068359375,42.476309996384835L261.3177083333333,46.59704985985388L261.5670572916667,37.12081850492038L261.81640625,22.827842712402344L262.0657552083333,39.422728831951446L262.3151041666667,26.391711014967708L262.564453125,49.36728543501633L262.8138020833333,22.209657302269566L263.0631510416667,37.01432396815374L263.3125,33.29715472001297L263.5618489583333,45.64824236356296L263.8111979166667,43.07516303429236L264.060546875,23.130977703974793L264.3098958333333,34.66229702876165L264.5592447916667,25.181482315063477L264.80859375,33.81557046450101L265.0579427083333,38.27986636528601L265.3072916666667,31.002837621248688L265.556640625,42.86157982165997L265.8059895833333,35.4244012099046L266.0553385416667,33.66496599637546L266.3046875,37.01600192143366L266.55403645833337,36.0675731072059L266.8033854166667,30.822937525235687L267.052734375,36.29258207174448L267.3020833333333,32.86792513040396L267.5514322916667,38.23811340332031L267.80078125,52.075828478886535L268.05013020833337,45.034692544203544L268.29947916666663,46.7554564842811L268.548828125,56.45465322641226L268.7981770833333,53.854530774630035L269.0475260416667,47.88489532470703L269.296875,41.075330000657296L269.54622395833337,36.77002180539645L270.044921875,52.3135951115535L270.2942708333333,38.00250134101282L270.5436197916667,36.05399278494028L270.79296875,34.129106154808625L271.04231770833337,26.486368472759548L271.29166666666663,41.306228124178375L271.541015625,33.31439128288855L271.7903645833333,40.10853510636551L272.0397135416667,36.42829388838547L272.2890625,28.582321460430446L272.53841145833337,43.79258926098163L272.78776041666663,46.962275651785035L273.037109375,11.293343764085026L273.2864583333333,34.160713049081664L273.5358072916667,28.007469030526973L273.78515625,44.52404631101169L274.03450520833337,53.93500071305496L274.28385416666663,27.634512901306152" style="fill: none;" fill="none"></path></g></g></g></g></g></g><g transform="translate(30, 178)" clip-path="url(#clip_1)"><clipPath id="clip_1"><rect width="299" height="22"></rect></clipPath><g><g><line x1="0" y1="0" x2="0" y2="5" style="visibility: inherit;" fill="rgb(0, 0, 0)" stroke="rgb(204, 204, 204)" stroke-width="1px"></line><line x1="24.934895833333332" y1="0" x2="24.934895833333332" y2="5" style="visibility: inherit;" fill="rgb(0, 0, 0)" stroke="rgb(204, 204, 204)" stroke-width="1px"></line><line x1="49.869791666666664" y1="0" x2="49.869791666666664" y2="5" style="visibility: inherit;" fill="rgb(0, 0, 0)" stroke="rgb(204, 204, 204)" stroke-width="1px"></line><line x1="74.8046875" y1="0" x2="74.8046875" y2="5" style="visibility: inherit;" fill="rgb(0, 0, 0)" stroke="rgb(204, 204, 204)" stroke-width="1px"></line><line x1="99.73958333333333" y1="0" x2="99.73958333333333" y2="5" style="visibility: inherit;" fill="rgb(0, 0, 0)" stroke="rgb(204, 204, 204)" stroke-width="1px"></line><line x1="124.67447916666667" y1="0" x2="124.67447916666667" y2="5" style="visibility: inherit;" fill="rgb(0, 0, 0)" stroke="rgb(204, 204, 204)" stroke-width="1px"></line><line x1="149.609375" y1="0" x2="149.609375" y2="5" style="visibility: inherit;" fill="rgb(0, 0, 0)" stroke="rgb(204, 204, 204)" stroke-width="1px"></line><line x1="174.54427083333334" y1="0" x2="174.54427083333334" y2="5" style="visibility: inherit;" fill="rgb(0, 0, 0)" stroke="rgb(204, 204, 204)" stroke-width="1px"></line><line x1="199.47916666666666" y1="0" x2="199.47916666666666" y2="5" style="visibility: inherit;" fill="rgb(0, 0, 0)" stroke="rgb(204, 204, 204)" stroke-width="1px"></line><line x1="224.4140625" y1="0" x2="224.4140625" y2="5" style="visibility: inherit;" fill="rgb(0, 0, 0)" stroke="rgb(204, 204, 204)" stroke-width="1px"></line><line x1="249.34895833333334" y1="0" x2="249.34895833333334" y2="5" style="visibility: inherit;" fill="rgb(0, 0, 0)" stroke="rgb(204, 204, 204)" stroke-width="1px"></line><line x1="274.28385416666663" y1="0" x2="274.28385416666663" y2="5" style="visibility: inherit;" fill="rgb(0, 0, 0)" stroke="rgb(204, 204, 204)" stroke-width="1px"></line><line x1="299.21875" y1="0" x2="299.21875" y2="5" style="visibility: inherit;" fill="rgb(0, 0, 0)" stroke="rgb(204, 204, 204)" stroke-width="1px"></line></g><g transform="translate(0, 8)"><text x="0" y="0" dx="0em" dy="0.95em" style="text-anchor: middle; visibility: hidden; font-family: Roboto, sans-serif; font-size: 12px; font-weight: 200;" fill="rgb(50, 49, 63)" stroke="none" stroke-width="1px">-2k</text><text x="24.934895833333332" y="0" dx="0em" dy="0.95em" style="text-anchor: middle; visibility: inherit; font-family: Roboto, sans-serif; font-size: 12px; font-weight: 200;" fill="rgb(50, 49, 63)" stroke="none" stroke-width="1px">0</text><text x="49.869791666666664" y="0" dx="0em" dy="0.95em" style="text-anchor: middle; visibility: hidden; font-family: Roboto, sans-serif; font-size: 12px; font-weight: 200;" fill="rgb(50, 49, 63)" stroke="none" stroke-width="1px">2k</text><text x="74.8046875" y="0" dx="0em" dy="0.95em" style="text-anchor: middle; visibility: inherit; font-family: Roboto, sans-serif; font-size: 12px; font-weight: 200;" fill="rgb(50, 49, 63)" stroke="none" stroke-width="1px">4k</text><text x="99.73958333333333" y="0" dx="0em" dy="0.95em" style="text-anchor: middle; visibility: hidden; font-family: Roboto, sans-serif; font-size: 12px; font-weight: 200;" fill="rgb(50, 49, 63)" stroke="none" stroke-width="1px">6k</text><text x="124.67447916666667" y="0" dx="0em" dy="0.95em" style="text-anchor: middle; visibility: inherit; font-family: Roboto, sans-serif; font-size: 12px; font-weight: 200;" fill="rgb(50, 49, 63)" stroke="none" stroke-width="1px">8k</text><text x="149.609375" y="0" dx="0em" dy="0.95em" style="text-anchor: middle; visibility: hidden; font-family: Roboto, sans-serif; font-size: 12px; font-weight: 200;" fill="rgb(50, 49, 63)" stroke="none" stroke-width="1px">10k</text><text x="174.54427083333334" y="0" dx="0em" dy="0.95em" style="text-anchor: middle; visibility: inherit; font-family: Roboto, sans-serif; font-size: 12px; font-weight: 200;" fill="rgb(50, 49, 63)" stroke="none" stroke-width="1px">12k</text><text x="199.47916666666666" y="0" dx="0em" dy="0.95em" style="text-anchor: middle; visibility: hidden; font-family: Roboto, sans-serif; font-size: 12px; font-weight: 200;" fill="rgb(50, 49, 63)" stroke="none" stroke-width="1px">14k</text><text x="224.4140625" y="0" dx="0em" dy="0.95em" style="text-anchor: middle; visibility: inherit; font-family: Roboto, sans-serif; font-size: 12px; font-weight: 200;" fill="rgb(50, 49, 63)" stroke="none" stroke-width="1px">16k</text><text x="249.34895833333334" y="0" dx="0em" dy="0.95em" style="text-anchor: middle; visibility: hidden; font-family: Roboto, sans-serif; font-size: 12px; font-weight: 200;" fill="rgb(50, 49, 63)" stroke="none" stroke-width="1px">18k</text><text x="274.28385416666663" y="0" dx="0em" dy="0.95em" style="text-anchor: middle; visibility: inherit; font-family: Roboto, sans-serif; font-size: 12px; font-weight: 200;" fill="rgb(50, 49, 63)" stroke="none" stroke-width="1px">20k</text><text x="299.21875" y="0" dx="0em" dy="0.95em" style="text-anchor: middle; visibility: hidden; font-family: Roboto, sans-serif; font-size: 12px; font-weight: 200;" fill="rgb(50, 49, 63)" stroke="none" stroke-width="1px">22k</text></g><line x1="0" y1="0" x2="299.21875" y2="0" fill="rgb(0, 0, 0)" stroke="rgb(204, 204, 204)" stroke-width="1px"></line></g></g></g></g></svg>