<svg viewBox="0 0 330 200" xmlns="http://www.w3.org/2000/svg"><g><g><g><g><g><line x1="41.171875" y1="178" x2="36.171875" y2="178" style="visibility: inherit;" fill="rgb(0, 0, 0)" stroke="rgb(204, 204, 204)" stroke-width="1px"></line><line x1="41.171875" y1="155.75" x2="36.171875" y2="155.75" style="visibility: inherit;" fill="rgb(0, 0, 0)" stroke="rgb(204, 204, 204)" stroke-width="1px"></line><line x1="41.171875" y1="133.5" x2="36.171875" y2="133.5" style="visibility: inherit;" fill="rgb(0, 0, 0)" stroke="rgb(204, 204, 204)" stroke-width="1px"></line><line x1="41.171875" y1="111.25" x2="36.171875" y2="111.25" style="visibility: inherit;" fill="rgb(0, 0, 0)" stroke="rgb(204, 204, 204)" stroke-width="1px"></line><line x1="41.171875" y1="89" x2="36.171875" y2="89" style="visibility: inherit;" fill="rgb(0, 0, 0)" stroke="rgb(204, 204, 204)" stroke-width="1px"></line><line x1="41.171875" y1="66.75" x2="36.171875" y2="66.75" style="visibility: inherit;" fill="rgb(0, 0, 0)" stroke="rgb(204, 204, 204)" stroke-width="1px"></line><line x1="41.171875" y1="44.5" x2="36.171875" y2="44.5" style="visibility: inherit;" fill="rgb(0, 0, 0)" stroke="rgb(204, 204, 204)" stroke-width="1px"></line><line x1="41.171875" y1="22.25" x2="36.171875" y2="22.25" style="visibility: inherit;" fill="rgb(0, 0, 0)" stroke="rgb(204, 204, 204)" stroke-width="1px"></line><line x1="41.171875" y1="0" x2="36.171875" y2="0" style="visibility: inherit;" fill="rgb(0, 0, 0)" stroke="rgb(204, 204, 204)" stroke-width="1px"></line></g><g transform="translate(31.171875, 0)"><text x="0" y="178" dx="0em" dy="0.3em" style="text-anchor: end; visibility: hidden; font-family: Roboto, sans-serif; font-size: 12px; font-weight: 200;" fill="rgb(50, 49, 63)" stroke="none" stroke-width="1px">-20</text><text x="0" y="155.75" dx="0em" dy="0.3em" style="text-anchor: end; visibility: inherit; font-family: Roboto, sans-serif; font-size: 12px; font-weight: 200;" fill="rgb(50, 49, 63)" stroke="none" stroke-width="1px">-10</text><text x="0" y="133.5" dx="0em" dy="0.3em" style="text-anchor: end; visibility: hidden; font-family: Roboto, sans-serif; font-size: 12px; font-weight: 200;" fill="rgb(50, 49, 63)" stroke="none" stroke-width="1px">0</text><text x="0" y="111.25" dx="0em" dy="0.3em" style="text-anchor: end; visibility: inherit; font-family: Roboto, sans-serif; font-size: 12px; font-weight: 200;" fill="rgb(50, 49, 63)" stroke="none" stroke-width="1px">10</text><text x="0" y="89" dx="0em" dy="0.3em" style="text-anchor: end; visibility: hidden; font-family: Roboto, sans-serif; font-size: 12px; font-weight: 200;" fill="rgb(50, 49, 63)" stroke="none" stroke-width="1px">20</text><text x="0" y="66.75" dx="0em" dy="0.3em" style="text-anchor: end; visibility: inherit; font-family: Roboto, sans-serif; font-size: 12px; font-weight: 200;" fill="rgb(50, 49, 63)" stroke="none" stroke-width="1px">30</text><text x="0" y="44.5" dx="0em" dy="0.3em" style="text-anchor: end; visibility: hidden; font-family: Roboto, sans-serif; font-size: 12px; font-weight: 200;" fill="rgb(50, 49, 63)" stroke="none" stroke-width="1px">40</text><text x="0" y="22.25" dx="0em" dy="0.3em" style="text-anchor: end; visibility: inherit; font-family: Roboto, sans-serif; font-size: 12px; font-weight: 200;" fill="rgb(50, 49, 63)" stroke="none" stroke-width="1px">50</text><text x="0" y="0" dx="0em" dy="0.3em" style="text-anchor: end; visibility: hidden; font-family: Roboto, sans-serif; font-size: 12px; font-weight: 200;" fill="rgb(50, 49, 63)" stroke="none" stroke-width="1px">60</text></g><line x1="41.171875" y1="0" x2="41.171875" y2="178" fill="rgb(0, 0, 0)" stroke="rgb(204, 204, 204)" stroke-width="1px"></line></g></g><g transform="translate(41, 0)" clip-path="url(#clip_0)"><clipPath id="clip_0"><rect width="288" height="178"></rect></clipPath><g><g><g><line x1="0" y1="0" x2="0" y2="178" fill="rgb(0, 0, 0)" stroke="rgb(60, 60, 60)" stroke-width="1px" opacity="0.25"></line><line x1="24.069010416666664" y1="0" x2="24.069010416666664" y2="178" fill="rgb(0, 0, 0)" stroke="rgb(60, 60, 60)" stroke-width="1px" opacity="0.25"></line><line x1="48.13802083333333" y1="0" x2="48.13802083333333" y2="178" fill="rgb(0, 0, 0)" stroke="rgb(60, 60, 60)" stroke-width="1px" opacity="0.25"></line><line x1="72.20703125" y1="0" x2="72.20703125" y2="178" fill="rgb(0, 0, 0)" stroke="rgb(60, 60, 60)" stroke-width="1px" opacity="0.25"></line><line x1="96.27604166666666" y1="0" x2="96.27604166666666" y2="178" fill="rgb(0, 0, 0)" stroke="rgb(60, 60, 60)" stroke-width="1px" opacity="0.25"></line><line x1="120.34505208333334" y1="0" x2="120.34505208333334" y2="178" fill="rgb(0, 0, 0)" stroke="rgb(60, 60, 60)" stroke-width="1px" opacity="0.25"></line><line x1="144.4140625" y1="0" x2="144.4140625" y2="178" fill="rgb(0, 0, 0)" stroke="rgb(60, 60, 60)" stroke-width="1px" opacity="0.25"></line><line x1="168.48307291666669" y1="0" x2="168.48307291666669" y2="178" fill="rgb(0, 0, 0)" stroke="rgb(60, 60, 60)" stroke-width="1px" opacity="0.25"></line><line x1="192.55208333333331" y1="0" x2="192.55208333333331" y2="178" fill="rgb(0, 0, 0)" stroke="rgb(60, 60, 60)" stroke-width="1px" opacity="0.25"></line><line x1="216.62109375" y1="0" x2="216.62109375" y2="178" fill="rgb(0, 0, 0)" stroke="rgb(60, 60, 60)" stroke-width="1px" opacity="0.25"></line><line x1="240.69010416666669" y1="0" x2="240.69010416666669" y2="178" fill="rgb(0, 0, 0)" stroke="rgb(60, 60, 60)" stroke-width="1px" opacity="0.25"></line><line x1="264.7591145833333" y1="0" x2="264.7591145833333" y2="178" fill="rgb(0, 0, 0)" stroke="rgb(60, 60, 60)" stroke-width="1px" opacity="0.25"></line><line x1="288.828125" y1="0" x2="288.828125" y2="178" fill="rgb(0, 0, 0)" stroke="rgb(60, 60, 60)" stroke-width="1px" opacity="0.25"></line></g><g><line x1="0" y1="178" x2="288.828125" y2="178" fill="rgb(0, 0, 0)" stroke="rgb(60, 60, 60)" stroke-width="1px" opacity="0.25"></line><line x1="0" y1="155.75" x2="288.828125" y2="155.75" fill="rgb(0, 0, 0)" stroke="rgb(60, 60, 60)" stroke-width="1px" opacity="0.25"></line><line x1="0" y1="133.5" x2="288.828125" y2="133.5" fill="rgb(0, 0, 0)" stroke="rgb(60, 60, 60)" stroke-width="1px" opacity="0.25"></line><line x1="0" y1="111.25" x2="288.828125" y2="111.25" fill="rgb(0, 0, 0)" stroke="rgb(60, 60, 60)" stroke-width="1px" opacity="0.25"></line><line x1="0" y1="89" x2="288.828125" y2="89" fill="rgb(0, 0, 0)" stroke="rgb(60, 60, 60)" stroke-width="1px" opacity="0.25"></line><line x1="0" y1="66.75" x2="288.828125" y2="66.75" fill="rgb(0, 0, 0)" stroke="rgb(60, 60, 60)" stroke-width="1px" opacity="0.25"></line><line x1="0" y1="44.5" x2="288.828125" y2="44.5" fill="rgb(0, 0, 0)" stroke="rgb(60, 60, 60)" stroke-width="1px" opacity="0.25"></line><line x1="0" y1="22.25" x2="288.828125" y2="22.25" fill="rgb(0, 0, 0)" stroke="rgb(60, 60, 60)" stroke-width="1px" opacity="0.25"></line><line x1="0" y1="0" x2="288.828125" y2="0" fill="rgb(0, 0, 0)" stroke="rgb(60, 60, 60)" stroke-width="1px" opacity="0.25"></line></g></g></g><g><g><line x1="0" y1="133.5" x2="288.828125" y2="133.5" fill="rgb(0, 0, 0)" stroke="rgb(153, 153, 153)" stroke-width="1.5px"></line></g></g><g><g><line x1="24.069010416666664" y1="0" x2="24.069010416666664" y2="178" fill="rgb(0, 0, 0)" stroke="rgb(153, 153, 153)" stroke-width="1.5px"></line></g></g><g><g><g><g><g><path stroke="rgb(255, 112, 67)" stroke-width="2px" d="M25.031770833333333,-53.190585064887976L25.513151041666667,80.84601456389137L25.994531249999998,140.43502001516958L26.475911458333332,236.28013926703926L32.25247395833333,209.5201109494402L24.550390625000002,120.74888829418765L25.031770833333333,66.95345960853113L25.513151041666667,98.24552548426384L25.994531249999998,121.84449462396142L26.475911458333332,159.78173228172227L26.957291666666666,175.0564180506693L27.438671875,166.19024213435617L27.92005208333333,142.39169598118093L28.401432291666666,142.96846974826892L28.8828125,109.7169124174479L29.364192708333334,123.12347450812912L29.845572916666665,145.35539399424331L30.326953125,169.42014383913212L30.808333333333334,174.1558895363245L31.289713541666668,199.4441409742691L31.77109375,178.52839626069738L32.25247395833333,166.72692962925288L32.73385416666667,149.23108580339255L33.215234375,120.6514326165436L33.696614583333336,105.24034683646022L34.17799479166666,93.20124335075172L34.659375,80.438248995627L35.14075520833334,65.66974133167494L35.622135416666666,52.94068256497971L36.103515625,38.77363823853008L36.584895833333334,14.961846128991686L37.06627604166666,3.786946161176836L37.54765625,-7.7408823075439495L39.47317708333333,-13.944078002903005L39.95455729166667,4.067723425454591L40.4359375,30.294944472575256L40.917317708333336,35.721160943204495L41.39869791666667,48.23126424248872L41.880078125,57.20616878567598L42.36145833333333,62.79627453267008L42.84283854166667,64.56309707510196L43.32421875,76.82299441068287L43.805598958333334,94.6212593482096L44.28697916666666,107.48669072426418L44.768359375,130.85306721471105L45.24973958333334,152.78533037628208L45.731119791666664,168.82424792364552L46.2125,178.1728566498478L46.69388020833333,174.40749147480247L47.17526041666667,175.57693537560414L47.656640625,147.72685772232595L48.13802083333333,118.61276290686354L48.61940104166667,122.26672337216988L49.100781250000004,105.2291901741198L49.58216145833333,73.5163331123454L50.063541666666666,85.67463388992921L50.544921875,86.10958586069093L51.026302083333334,74.20328428466406L51.50768229166667,71.91217686962656L51.989062499999996,75.42442364115462L52.47044270833334,80.87090813290443L52.951822916666664,80.85895917875388L53.433203125,85.6105537108351L53.91458333333333,71.41065363000448L54.39596354166667,70.74388971752296L54.87734375,74.51461994425279L55.358723958333336,67.88498389587296L55.84010416666666,78.2685560266107L56.321484375000004,82.47797111749229L56.80286458333333,81.00673271703468L57.284244791666666,74.41095180444566L57.765625,77.18255500753311L58.247005208333334,80.78858604407066L58.72838541666667,77.21965696320386L59.209765624999996,87.35798254195124L59.69114583333333,90.40972179522079L60.17252604166667,87.42515591114737L60.65390625,71.80921883660542L61.13528645833333,65.464714117515L61.61666666666667,55.35326519231075L62.098046875,54.561196709990945L62.579427083333336,52.446780167413024L63.06080729166666,47.24539113664166L63.5421875,43.417613672158346L64.02356770833333,35.30412849839997L64.50494791666667,35.035655199625914L64.986328125,37.87891535946062L65.46770833333333,32.348067103554776L65.94908854166667,22.950676581102606L66.43046875,24.933091342948664L66.91184895833334,23.35269088059829L67.39322916666667,14.103614421547448L67.87460937499999,21.179695699132104L68.35598958333333,22.42442935795579L68.83736979166667,25.289772666043042L69.31875,25.897816312638504L69.80013020833333,30.680042936997175L70.28151041666668,28.452334272024945L70.762890625,33.69490329453819L71.24427083333333,35.231903066810816L71.72565104166667,36.67472155962995L72.20703125,39.40159582182533L72.68841145833333,40.49813682964307L73.16979166666667,46.89464389282978L73.651171875,49.65255602716515L74.13255208333332,48.77648124050563L74.61393229166667,50.312651821085595L75.0953125,43.63008666760253L75.57669270833333,40.862848295727545L76.05807291666666,44.51124337074709L76.53945312500001,43.18907790873974L77.02083333333333,40.730586675968944L77.50221354166666,41.07348288784454L77.98359375000001,38.83845645481366L78.46497395833333,33.843583592736856L78.94635416666667,40.50663507995851L79.427734375,46.548572684632816L79.90911458333333,42.65435834008876L80.39049479166667,44.36883986519827L80.871875,46.75674249486359L81.35325520833334,47.07016675088544L81.83463541666667,50.0219425035342L82.31601562499999,41.347893209029685L82.79739583333334,47.34378349469271L83.27877604166666,53.60163150123456L83.76015625,54.751023380110865L84.24153645833334,50.569335799306764L84.72291666666666,52.75705394082673L85.204296875,52.9394896658266L85.68567708333335,49.37464552831677L86.16705729166667,54.923337102604066L86.6484375,56.98252879659662L87.12981770833333,59.50615096020896L87.61119791666667,57.08666169123769L88.092578125,56.017451116305104L88.57395833333332,47.39567586234898L89.05533854166667,52.479692313979214L89.53671875,61.66200133199105L90.01809895833333,68.14141558190947L90.49947916666667,71.33019868004779L90.980859375,66.09583088557994L91.46223958333333,57.015985279089676L91.94361979166668,60.159767253879565L92.425,61.25286243896714L92.90638020833333,57.96082650268693L93.38776041666667,60.127981783417574L93.869140625,60.539298568646736L94.35052083333333,63.05942949442902L94.83190104166665,60.877648510866386L95.31328125,59.86198278327765L95.79466145833334,56.393939090132605L96.27604166666666,53.40879581949703L96.757421875,50.78020798791404L97.23880208333334,49.501160338097556L97.72018229166666,49.94062856827602L98.20156250000001,49.83450714584844L98.68294270833333,47.945323237399194L99.16432291666666,46.706100268733465L99.645703125,49.090107915146326L100.12708333333333,51.1034682067294L100.60846354166667,54.010236708644555L101.08984375,52.38633035679075L101.57122395833333,49.96774303829319L102.05260416666667,51.32398616263656L102.53398437499999,53.44048216694228L103.01536458333334,47.50991975518247L103.49674479166667,48.16734211952793L103.97812499999999,50.13626415080612L104.45950520833334,48.11712584583036L104.94088541666667,50.217554140615874L105.422265625,47.43722727807071L105.90364583333333,45.964954469869774L106.38502604166668,50.80927163974657L106.86640625,50.92670819411405L107.34778645833333,45.263941710291675L107.82916666666667,45.70928555077219L108.310546875,39.03849533406439L108.79192708333333,33.66131234173501L109.27330729166667,28.821884336498524L109.7546875,26.397415994660353L110.23606770833332,28.02430702630062L110.71744791666667,33.77566659798251L111.198828125,33.53783934324996L111.68020833333333,38.83432008391627L112.16158854166666,43.33604889849431L112.64296875000001,43.15795261943106L113.12434895833333,40.60696277191499L113.60572916666666,38.193912732423904L114.08710937500001,36.614961302174066L114.56848958333333,33.46689582579906L115.04986979166667,39.07392930456146L115.53125,40.74750112216557L116.01263020833333,42.42007446480326L116.49401041666667,40.151232720568956L116.975390625,42.002183151933664L117.45677083333334,36.296412811692406L117.93815104166667,34.41819436670296L118.41953124999999,36.01063456130595L118.90091145833334,36.292911918119025L119.38229166666666,28.605281033012503L119.863671875,22.863668459590247L120.34505208333334,26.030657664499252L120.82643229166666,26.6848464343319L121.3078125,31.313028260074237L121.78919270833335,30.45180636644492L122.27057291666667,29.457358233929448L122.751953125,26.348838997364506L123.23333333333333,28.485417251873297L123.71471354166667,26.664505012684042L124.19609375,26.697297863872645L124.67747395833332,30.895139658875344L125.15885416666667,31.334575174109396L125.640234375,29.372652529392408L126.12161458333333,26.77376481933224L126.60299479166667,22.566143733518253L127.084375,24.058195837889294L127.56575520833333,25.039909987779946L128.04713541666666,25.087996895988283L128.528515625,27.821047687458705L129.00989583333333,29.59009492869836L129.49127604166665,27.011691349003673L129.97265625,32.20704155043005L130.45403645833332,30.13168983504315L130.93541666666667,32.68287147548879L131.41679687500002,29.654815658730772L131.89817708333334,30.961038694860047L132.37955729166666,31.998520838070817L132.8609375,35.030050651341035L133.34231770833333,29.853340525692314L133.82369791666667,28.46678355888464L134.305078125,24.456561681961656L134.78645833333334,20.738107693991427L135.26783854166666,26.832224395752768L135.74921874999998,28.556805302429687L136.23059895833333,32.570421300964654L136.71197916666665,30.972069903991887L137.193359375,28.498615477551358L137.67473958333335,30.78161557559334L138.15611979166667,28.05068115260696L138.6375,25.276778396764385L139.11888020833334,28.143198919772495L139.60026041666666,32.96793728857004L140.081640625,35.101396146945724L140.56302083333335,37.62817560168061L141.04440104166667,38.98267478544684L141.52578125,32.700467336172906L142.00716145833331,31.729962408539677L142.48854166666666,26.80791469335379L142.969921875,32.06736218881502L143.45130208333333,28.758664879512143L143.93268229166668,33.21750632364235L144.4140625,31.699071871272814L144.89544270833335,31.01719271840581L145.37682291666667,27.433590205323256L145.858203125,27.924893045313112L146.33958333333334,29.622668027810416L146.82096354166666,28.578081445653524L147.30234375,23.323892400717305L147.78372395833335,24.494888457092976L148.26510416666665,31.0399681999882L148.746484375,33.6676745769143L149.22786458333334,42.41604622106315L149.70924479166666,45.21894421518185L150.190625,44.793607740046596L150.67200520833333,45.58858236100794L151.15338541666665,48.19793236033035L151.634765625,46.14317103729196L152.11614583333332,51.46579382720917L152.59752604166667,53.20764123620586L153.07890625000002,54.22422081960438L153.5602864583333,51.487097837526775L154.04166666666666,49.91494264721821L154.523046875,45.65640768122644L155.00442708333333,39.179293026399435L155.48580729166667,38.0867579447459L155.96718750000002,37.57779233856385L156.44856770833331,34.62234209777943L156.92994791666666,37.95686881304997L157.411328125,44.68218574858438L157.89270833333333,46.98500210009057L158.37408854166668,44.79857427336002L158.85546875,45.34768006358877L159.33684895833332,44.022815839972104L159.81822916666667,45.39325592549207L160.29960937500002,44.119488902280104L160.78098958333334,44.915750310057035L161.26236979166666,46.99576110674955L161.74375,45.59167323967227L162.22513020833333,49.2051449350143L162.70651041666667,48.13704394648222L163.187890625,48.211075282989434L163.66927083333334,50.15039379650266L164.15065104166666,50.970674357735575L164.63203124999998,52.656257649614474L165.11341145833333,49.133966419907836L165.59479166666668,48.83234587062147L166.076171875,48.47158704965558L166.55755208333332,49.49135867815762L167.03893229166667,53.55245375669926L167.5203125,53.57048256896096L168.00169270833334,54.122414587152946L168.48307291666669,53.417884100802524L168.96445312499998,48.486736472444385L169.44583333333333,52.82151274680892L169.92721354166667,55.86995537757754L170.40859375,57.27235099601674L170.88997395833334,59.53399130897477L171.3713541666667,58.015179293136335L171.85273437499998,56.88292326496872L172.33411458333333,52.47281067590018L172.81549479166668,51.86549239766657L173.296875,47.5557190454725L173.77825520833335,46.40011420468828L174.25963541666667,47.55892052781787L174.741015625,46.869710837198525L175.22239583333334,49.861287867065215L175.70377604166666,47.8170192641234L176.18515625,50.013127093447196L176.66653645833335,51.66951558407125L177.14791666666665,54.928828224038945L177.629296875,58.15468859702103L178.11067708333334,55.937627458749716L178.59205729166666,56.794827604400226L179.0734375,57.49741509443946L179.55481770833333,57.902080457725695L180.03619791666665,57.15377417642985L180.517578125,55.72466459893651L180.99895833333335,51.917824462792105L181.48033854166667,51.868325064027786L181.96171875,53.821956799891275L182.44309895833334,55.6704053345124L182.92447916666666,55.42881294863225L183.405859375,57.888261165480614L183.88723958333335,57.22264938727667L184.36861979166665,54.969001352641875L184.85,53.39696748486394L185.33138020833334,56.46656603474162L185.81276041666666,56.934913223139894L186.294140625,59.12714140007047L186.77552083333333,60.91278014414993L187.25690104166665,59.237728244265824L187.73828125,57.191806143642026L188.21966145833332,60.15638632900748L188.70104166666667,61.200058756633L189.18242187500002,65.34396629951202L189.6638020833333,64.22205315006853L190.14518229166666,64.98799164040734L190.6265625,64.42301787700563L191.10794270833333,66.40120326618143L191.58932291666667,69.4469109245526L192.07070312500002,68.16434665849133L192.55208333333331,68.5181282206197L193.03346354166666,69.0227034094226L193.51484375,68.07119542135547L193.99622395833333,63.24076653107255L194.47760416666668,62.88091587414891L194.958984375,61.55653883570761L195.44036458333332,60.68986560794312L195.92174479166667,61.980855361775156L196.40312500000002,61.36976745137905L196.88450520833334,66.70271994119486L197.36588541666666,71.33657176879406L197.847265625,72.38990383855916L198.32864583333333,73.27609106488477L198.81002604166667,72.00294122569234L199.29140625,73.84790931625648L199.77278645833334,71.11464664032151L200.25416666666666,71.76743786746317L200.73554687499998,71.57829410322937L201.21692708333333,71.5616847711112L201.69830729166668,70.26794244988596L202.1796875,67.5430039915075L202.66106770833332,64.80225129321992L203.14244791666667,63.37526476976741L203.623828125,64.2901896273939L204.10520833333334,63.67771633838703L204.58658854166669,67.89679099306517L205.06796874999998,63.99690920582445L205.54934895833333,60.186251602596236L206.03072916666667,60.52732347132336L206.512109375,58.45706230331403L206.99348958333334,61.04719785409536L207.4748697916667,57.14286556456903L207.95624999999998,56.88201755651486L208.43763020833333,57.10948557358175L208.91901041666668,55.53020470321888L209.400390625,56.25349452603288L209.88177083333335,54.69897312705773L210.36315104166667,51.37239237538014L210.84453125,48.85341139263531L211.32591145833334,56.14096313730848L211.80729166666666,60.82209512481672L212.288671875,61.965959215698135L212.77005208333335,61.314843397460876L213.25143229166665,58.8424429113403L213.7328125,54.46917115299315L214.21419270833334,55.47114395766503L214.69557291666666,58.74643059533266L215.176953125,57.734427571066774L215.65833333333333,57.30983355985199L216.13971354166665,57.91328561869928L216.62109375,56.99221331457893L217.10247395833335,56.960107079628706L217.58385416666667,55.48230314700819L218.065234375,58.08899233132015L218.54661458333334,58.764788259204686L219.02799479166666,58.17750012227087L219.509375,58.32515810101144L219.99075520833335,60.11362898688859L220.47213541666665,58.48480115617124L220.953515625,66.19388259342198L221.43489583333334,67.25882049614718L221.91627604166666,68.20278709062654L222.39765625,67.35975706654023L222.87903645833333,67.303965468867L223.36041666666665,69.09666530350648L223.841796875,69.2597350791681L224.32317708333332,67.68983188841273L224.80455729166667,68.59395314916091L225.28593750000002,68.40259451904366L225.7673177083333,67.0753094961552L226.24869791666666,62.568573759216555L226.730078125,60.64152366531995L227.21145833333333,60.26984580167L227.69283854166667,63.59503608589091L228.17421875000002,65.04164104011488L228.65559895833331,67.11375421253939L229.13697916666666,68.5792793677336L229.618359375,63.666637940769554L230.09973958333333,59.47706810686894L230.58111979166668,55.595828495346964L231.0625,52.3695612298986L231.54388020833332,43.94080434963349L232.02526041666667,47.28307120993878L232.50664062500002,53.36306442853895L232.98802083333334,57.905825355274L233.46940104166666,62.76888713516148L233.95078125,66.58480958746284L234.43216145833333,69.75239709738739L234.91354166666667,70.17108181311994L235.394921875,71.62698435779994L235.87630208333334,71.95575295446267L236.35768229166666,70.1361240634796L236.83906249999998,71.35575492438537L237.32044270833333,68.47517790351428L237.80182291666668,67.09764706345867L238.283203125,70.71098405869287L238.76458333333332,75.86794898242643L239.24596354166667,76.01233934718901L239.72734375,77.229518419257L240.20872395833334,75.72713260993433L240.69010416666669,73.74084047523183L241.17148437499998,76.54876717118646L241.65286458333333,74.81990887754098L242.13424479166667,74.97090435286127L242.615625,73.81154161608077L243.09700520833334,71.21529676148805L243.5783854166667,71.54785092371414L244.05976562499998,69.81084474383418L244.54114583333333,70.45471273695603L245.02252604166668,70.58243364116655L245.50390625,73.2938286424941L245.98528645833335,74.52912288434901L246.46666666666667,72.49101518110989L246.948046875,72.52825168679095L247.42942708333334,71.3557951397296L247.91080729166666,68.51256149927356L248.3921875,71.56455681991325L248.87356770833335,71.80737914962617L249.35494791666665,72.00016231491L249.836328125,73.61070316287177L250.31770833333334,75.88788695128142L250.79908854166666,78.85628311986552L251.28046875,76.82978210183875L251.76184895833333,76.97130939324437L252.24322916666665,75.48383664226377L252.724609375,76.04325749835874L253.20598958333335,71.47338016963903L253.68736979166667,69.07201769910397L254.16875,68.40790637828198L254.65013020833334,64.42970907507711L255.13151041666666,64.4806656397484L255.612890625,65.15531352264298L256.0942708333333,69.26728578509459L256.5756510416667,71.93862212718467L257.05703125,75.08215902460182L257.53841145833337,76.63360770113805L258.01979166666666,78.64303628663743L258.501171875,77.73874932325198L258.9825520833333,75.8898112547178L259.46393229166665,72.13737819265L259.9453125,70.88559473556683" style="fill: none;" fill="none"></path></g></g></g></g><g opacity="0.2"><g><g><g><path stroke="rgb(255, 112, 67)" stroke-width="2px" d="M28.401432291666666,242.30732440948486L28.8828125,140.83271304368972L29.364192708333334,171.91864256858824L29.845572916666665,183.97996759414673L25.031770833333333,-13.731488227844238L25.513151041666667,145.18076407909393L25.994531249999998,157.24165410995485L26.475911458333332,216.68634042739868L26.957291666666666,197.96814513206482L27.438671875,152.89108328819273L27.92005208333333,106.69404590129852L28.401432291666666,143.83362793922424L28.8828125,59.83966150283814L29.364192708333334,143.23329706192018L29.845572916666665,178.70325274467467L31.289713541666668,237.3765130996704L31.77109375,147.15478168725966L32.25247395833333,149.02473052740098L32.73385416666667,122.98732081651687L33.215234375,77.78195357322693L33.696614583333336,82.1237184047699L34.17799479166666,75.14258823394775L34.659375,61.293757534027094L35.14075520833334,43.51697988510132L35.622135416666666,33.84709444046021L36.103515625,17.523071765899658L36.584895833333334,-20.755842018127456L39.47317708333333,-3.5034175872802655L39.95455729166667,31.085425567626956L40.4359375,69.63577604293823L40.917317708333336,43.86048564910888L41.39869791666667,66.99641919136047L41.880078125,70.66852560043336L42.36145833333333,71.18143315315247L42.84283854166667,67.21333088874817L43.32421875,95.21284041404724L43.805598958333334,121.31865675449372L44.28697916666666,126.78483778834342L44.768359375,165.90263195037844L45.24973958333334,185.68372511863708L46.2125,192.195769739151L46.69388020833333,168.7594437122345L47.17526041666667,177.33110122680662L47.656640625,105.95174124240876L48.13802083333333,74.94162068367004L48.61940104166667,127.74766407012939L49.100781250000004,79.67289037704468L49.58216145833333,25.947047519683835L50.063541666666666,103.91208505630493L50.544921875,86.7620138168335L51.026302083333334,56.343831920623785L51.50768229166667,68.47551574707032L51.989062499999996,80.69279379844666L52.47044270833334,89.04063487052917L52.951822916666664,80.84103574752808L53.433203125,92.73794550895691L53.91458333333333,50.11080350875855L54.39596354166667,69.74374384880066L54.87734375,80.17071528434754L55.358723958333336,57.94052982330322L55.84010416666666,93.84391422271729L56.321484375000004,88.7920937538147L56.80286458333333,78.79987511634826L57.284244791666666,64.51728043556213L57.765625,81.33995981216431L58.247005208333334,86.19763259887695L58.72838541666667,71.86626334190369L59.209765624999996,102.56547091007232L59.69114583333333,94.98733067512512L60.17252604166667,82.94830708503723L60.65390625,48.38531322479248L61.13528645833333,55.947957038879395L61.61666666666667,40.1860918045044L62.098046875,53.373093986511236L62.579427083333336,49.27515535354614L63.06080729166666,39.44330759048462L63.5421875,37.67594747543335L64.02356770833333,23.133900737762442L64.50494791666667,34.63294525146485L64.986328125,42.14380559921264L65.46770833333333,24.051794719696048L65.94908854166667,8.854590797424324L66.43046875,27.906713485717773L66.91184895833334,20.982090187072757L67.39322916666667,0.22999973297119536L67.87460937499999,31.793817615509024L68.35598958333333,24.29152984619141L68.83736979166667,29.587787628173828L69.31875,26.80988178253173L69.80013020833333,37.85338287353515L70.28151041666668,25.11077127456664L70.762890625,41.558756828308105L71.24427083333333,37.53740272521972L71.72565104166667,38.83894929885864L72.20703125,43.4919072151184L72.68841145833333,42.14294834136963L73.16979166666667,56.48940448760986L73.651171875,53.78942422866821L74.13255208333332,47.46236906051635L74.61393229166667,52.61690769195556L75.0953125,33.606238937377924L75.57669270833333,36.711990737915045L76.05807291666666,49.983835983276364L76.53945312500001,41.205829715728754L77.02083333333333,37.04284982681274L77.50221354166666,41.58782720565796L77.98359375000001,35.48591680526734L78.46497395833333,26.35127429962158L78.94635416666667,50.50121231079102L79.427734375,55.611479091644284L79.90911458333333,36.81303682327271L80.39049479166667,46.940562152862555L80.871875,50.33859643936157L81.35325520833334,47.54030313491822L81.83463541666667,54.44960613250733L82.31601562499999,28.33681926727294L82.79739583333334,56.33761892318725L83.27877604166666,62.988403511047366L83.76015625,56.475111198425296L84.24153645833334,44.296804428100586L84.72291666666666,56.03863115310669L85.204296875,53.21314325332642L85.68567708333335,44.027379322052L86.16705729166667,63.24637446403503L86.6484375,60.07131633758544L87.12981770833333,63.291584205627444L87.61119791666667,53.45742778778076L88.092578125,54.41363525390625L88.57395833333332,34.46301298141479L89.05533854166667,60.10571699142456L89.53671875,75.43546485900879L90.01809895833333,77.86053695678712L90.49947916666667,76.11337332725525L90.980859375,58.24427919387817L91.46223958333333,43.39621686935425L91.94361979166668,64.87544021606445L92.425,62.89250521659851L92.90638020833333,53.0227725982666L93.38776041666667,63.378714704513555L93.869140625,61.156273746490484L94.35052083333333,66.83962588310241L94.83190104166665,57.60497703552247L95.31328125,58.33848419189454L95.79466145833334,51.19187355041504L96.27604166666666,48.931080913543695L96.757421875,46.837326240539554L97.23880208333334,47.582588863372806L97.72018229166666,50.5998309135437L98.20156250000001,49.675325012207026L98.68294270833333,45.11154737472535L99.16432291666666,44.84726581573486L99.645703125,52.66611938476562L100.12708333333333,54.12350864410401L100.60846354166667,58.370389461517334L101.08984375,49.950470829010015L101.57122395833333,46.33986206054688L102.05260416666667,53.358350849151606L102.53398437499999,56.615226173400885L103.01536458333334,38.614076137542725L103.49674479166667,49.15347566604615L103.97812499999999,53.089647197723394L104.45950520833334,45.088418388366705L104.94088541666667,53.368196582794184L105.422265625,43.26673698425293L105.90364583333333,43.75654525756836L106.38502604166668,58.07574739456177L106.86640625,51.102863025665286L107.34778645833333,36.76979198455811L107.82916666666667,46.377301311492914L108.310546875,29.032310009002686L108.79192708333333,25.59553785324097L109.27330729166667,21.56274232864379L109.7546875,22.760713481903085L110.23606770833332,30.464643573760977L110.71744791666667,42.40270595550537L111.198828125,33.18109846115112L111.68020833333333,46.77904119491578L112.16158854166666,50.08864212036133L112.64296875000001,42.890808200836176L113.12434895833333,36.78047800064087L113.60572916666666,34.57433767318726L114.08710937500001,34.246534156799314L114.56848958333333,28.74479761123658L115.04986979166667,47.48447952270507L115.53125,43.25785884857177L116.01263020833333,44.92893447875977L116.49401041666667,36.74797010421753L116.975390625,44.77860879898071L117.45677083333334,27.737757301330557L117.93815104166667,31.60086669921876L118.41953124999999,38.39929485321045L118.90091145833334,36.71632795333862L119.38229166666666,17.07383470535278L119.863671875,14.251249599456782L120.34505208333334,30.781141471862796L120.82643229166666,27.66612958908081L121.3078125,38.255300998687744L121.78919270833335,29.159973526000986L122.27057291666667,27.965686035156253L122.751953125,21.686060142517093L123.23333333333333,31.690284633636484L123.71471354166667,23.93313665390015L124.19609375,26.746487140655518L124.67747395833332,37.1919023513794L125.15885416666667,31.993728446960446L125.640234375,26.429768562316895L126.12161458333333,22.87543325424194L126.60299479166667,16.254712104797363L127.084375,26.296273994445798L127.56575520833333,26.512481212615967L128.04713541666666,25.160127258300772L128.528515625,31.920623874664297L129.00989583333333,32.243665790557856L129.49127604166665,23.14408597946166L129.97265625,40.000066852569574L130.45403645833332,27.018662261962888L130.93541666666667,36.50964393615723L131.41679687500002,25.11273193359375L131.89817708333334,32.92037324905395L132.37955729166666,33.55474405288696L132.8609375,39.57734537124634L133.34231770833333,22.088275337219248L133.82369791666667,26.386948108673096L134.305078125,18.44122886657715L134.78645833333334,15.160426712036125L135.26783854166666,35.97339944839477L135.74921874999998,31.143676662445078L136.23059895833333,38.59084529876709L136.71197916666665,28.574542808532712L137.193359375,24.788433837890622L137.67473958333335,34.20611572265625L138.15611979166667,23.954279518127432L138.6375,21.115924263000498L139.11888020833334,32.44282970428466L139.60026041666666,40.20504484176635L140.081640625,38.30158443450928L140.56302083333335,41.418344783782956L141.04440104166667,41.014423561096194L141.52578125,23.27715616226196L142.00716145833331,30.27420501708984L142.48854166666666,19.42484312057495L142.969921875,39.956533432006836L143.45130208333333,23.79561891555787L143.93268229166668,39.90576848983764L144.4140625,29.421420192718497L144.89544270833335,29.994373989105227L145.37682291666667,22.058186435699472L145.858203125,28.661847305297854L146.33958333333334,32.1693305015564L146.82096354166666,27.011201572418216L147.30234375,15.442608833312988L147.78372395833335,26.251382541656497L148.26510416666665,40.857587814331055L148.746484375,37.609234142303464L149.22786458333334,55.53860368728638L149.70924479166666,49.42329120635986L150.190625,44.155603027343744L150.67200520833333,46.78104429244995L151.15338541666665,52.11195735931396L151.634765625,43.06102905273437L152.11614583333332,59.44972801208496L152.59752604166667,55.82041234970093L153.07890625000002,55.74909019470215L153.5602864583333,47.381413364410406L154.04166666666666,47.556709861755365L154.523046875,39.26860523223877L155.00442708333333,29.463621044158945L155.48580729166667,36.44795532226563L155.96718750000002,36.81434392929077L156.44856770833331,30.189166736602786L156.92994791666666,42.95865888595581L157.411328125,54.770161151885986L157.89270833333333,50.43922662734985L158.37408854166668,41.51893253326416L158.85546875,46.17133874893189L159.33684895833332,42.035519504547125L159.81822916666667,47.44891605377197L160.29960937500002,42.208838367462164L160.78098958333334,46.110142421722415L161.26236979166666,50.11577730178833L161.74375,43.48554143905639L162.22513020833333,54.62535247802734L162.70651041666667,46.53489246368409L163.187890625,48.32212228775025L163.66927083333334,53.059371566772455L164.15065104166666,52.201095199584955L164.63203124999998,55.18463258743286L165.11341145833333,43.850529575347906L165.59479166666668,48.37991504669189L166.076171875,47.930448818206784L166.55755208333332,51.021016120910645L167.03893229166667,59.64409637451172L167.5203125,53.59752578735352L168.00169270833334,54.95031261444092L168.48307291666669,52.36108837127685L168.96445312499998,41.09001502990722L169.44583333333333,59.32367715835571L169.92721354166667,60.44261932373047L170.40859375,59.375944423675534L170.88997395833334,62.92645177841186L171.3713541666667,55.73696126937867L171.85273437499998,55.18453922271729L172.33411458333333,45.85764179229736L172.81549479166668,50.95451498031616L173.296875,41.091059017181394L173.77825520833335,44.66670694351197L174.25963541666667,49.29713001251221L174.741015625,45.83589630126953L175.22239583333334,54.34865341186523L175.70377604166666,44.75061635971069L176.18515625,53.307288837432864L176.66653645833335,54.15409832000732L177.14791666666665,59.81779718399048L177.629296875,62.993479156494146L178.11067708333334,52.61203575134277L178.59205729166666,58.08062782287598L179.0734375,58.551296329498285L179.55481770833333,58.50907850265503L180.03619791666665,56.03131475448609L180.517578125,53.58100023269654L180.99895833333335,46.207564258575445L181.48033854166667,51.79407596588135L181.96171875,56.752404403686526L182.44309895833334,58.443078136444086L182.92447916666666,55.06642436981201L183.405859375,61.57743349075318L183.88723958333335,56.2242317199707L184.36861979166665,51.5885293006897L184.85,51.038916683197016L185.33138020833334,61.070963859558105L185.81276041666666,57.637434005737305L186.294140625,62.41548366546631L186.77552083333333,63.591238260269165L187.25690104166665,56.725150394439694L187.73828125,54.12292299270629L188.21966145833332,64.60325660705567L188.70104166666667,62.76556739807128L189.18242187500002,71.55982761383056L189.6638020833333,62.53918342590332L190.14518229166666,66.13689937591553L190.6265625,63.575557231903076L191.10794270833333,69.36848134994507L191.58932291666667,74.01547241210938L192.07070312500002,66.24050025939941L192.55208333333331,69.04880056381225L193.03346354166666,69.77956619262696L193.51484375,66.64393343925477L193.99622395833333,55.99512319564819L194.47760416666668,62.34113988876342L194.958984375,59.56997327804565L195.44036458333332,59.38985576629639L195.92174479166667,63.917339992523196L196.40312500000002,60.453135585784906L196.88450520833334,74.70214867591858L197.36588541666666,78.28734951019287L197.847265625,73.96990194320679L198.32864583333333,74.60537190437317L198.81002604166667,70.09321646690368L199.29140625,76.61536145210266L199.77278645833334,67.01475262641907L200.25416666666666,72.74662470817566L200.73554687499998,71.29457845687867L201.21692708333333,71.53677077293396L201.69830729166668,68.32732896804809L202.1796875,63.455596303939814L202.66106770833332,60.69112224578858L203.14244791666667,61.23478498458863L203.623828125,65.66257691383362L204.10520833333334,62.759006404876715L204.58658854166669,74.2254029750824L205.06796874999998,58.147086524963385L205.54934895833333,54.4702651977539L206.03072916666667,61.03893127441407L206.512109375,55.351670551300046L206.99348958333334,64.93240118026733L207.4748697916667,51.286367130279544L207.95624999999998,56.490745544433594L208.43763020833333,57.45068759918213L208.91901041666668,53.161283397674566L209.400390625,57.3384292602539L209.88177083333335,52.36719102859497L210.36315104166667,46.382521247863764L210.84453125,45.07493991851807L211.32591145833334,67.07229075431823L211.80729166666666,67.8437931060791L212.288671875,63.68175535202026L212.77005208333335,60.338169670104975L213.25143229166665,55.13384218215943L213.7328125,47.90926351547242L214.21419270833334,56.974103164672854L214.69557291666666,63.65936055183411L215.176953125,56.21642303466797L215.65833333333333,56.67294254302979L216.13971354166665,58.81846370697022L216.62109375,55.61060485839843L217.10247395833335,56.91194772720337L217.58385416666667,53.2655972480774L218.065234375,61.99902610778808L218.54661458333334,59.7784821510315L219.02799479166666,57.29656791687012L219.509375,58.54664506912232L219.99075520833335,62.79633531570434L220.47213541666665,56.04155941009522L220.953515625,77.75750474929809L221.43489583333334,68.85622735023499L221.91627604166666,69.61873698234558L222.39765625,66.09521203041076L222.87903645833333,67.22027807235717L223.36041666666665,71.7857150554657L223.841796875,69.50433974266052L224.32317708333332,65.33497710227967L224.80455729166667,69.9501350402832L225.28593750000002,68.11555657386779L225.7673177083333,65.08438196182252L226.24869791666666,55.8084701538086L226.730078125,57.75094852447509L227.21145833333333,59.71232900619506L227.69283854166667,68.5828215122223L228.17421875000002,67.21154847145081L228.65559895833331,70.22192397117615L229.13697916666666,70.7775671005249L229.618359375,56.29767580032349L230.09973958333333,53.19271335601806L230.58111979166668,49.77396907806397L231.0625,47.53016033172608L231.54388020833332,31.29766902923583L232.02526041666667,52.296471500396734L232.50664062500002,62.4830542564392L232.98802083333334,64.71996674537658L233.46940104166666,70.06347980499268L233.95078125,72.30869326591491L234.43216145833333,74.50377836227418L234.91354166666667,70.79910888671876L235.394921875,73.81083817481995L235.87630208333334,72.44890584945679L236.35768229166666,67.40668072700501L236.83906249999998,73.18520121574402L237.32044270833333,64.15431237220764L237.80182291666668,65.03135080337525L238.283203125,76.13098955154419L238.76458333333332,83.60339636802674L239.24596354166667,76.22892489433289L239.72734375,79.05528702735901L240.20872395833334,73.47355389595032L240.69010416666669,70.7614022731781L241.17148437499998,80.76065721511841L241.65286458333333,72.22662143707275L242.13424479166667,75.19739756584167L242.615625,72.07249751091004L243.09700520833334,67.320929479599L243.5783854166667,72.04668216705322L244.05976562499998,67.20533547401428L244.54114583333333,71.4205147266388L245.02252604166668,70.7740149974823L245.50390625,77.36092114448547L245.98528645833335,76.38206424713135L246.46666666666667,69.43385362625122L246.948046875,72.5841064453125L247.42942708333334,69.59711031913757L247.91080729166666,64.24771103858947L248.3921875,76.1425498008728L248.87356770833335,72.17161264419556L249.35494791666665,72.2893370628357L249.836328125,76.02651443481446L250.31770833333334,79.30366263389587L250.79908854166666,83.3088773727417L251.28046875,73.79003057479858L251.76184895833333,77.18360033035279L252.24322916666665,73.25262751579285L252.724609375,76.88238878250122L253.20598958333335,64.61856417655945L253.68736979166667,65.4699739933014L254.16875,67.41173939704895L254.65013020833334,58.46241312026977L255.13151041666666,64.55710048675537L255.612890625,66.16728534698487L256.0942708333333,75.43524417877197L256.5756510416667,75.94562664031983L257.05703125,79.79746437072754L257.53841145833337,78.96078071594238L258.01979166666666,81.65717916488647L258.501171875,76.38231887817383L258.9825520833333,73.1164041519165L259.46393229166665,66.50872859954833L259.9453125,69.00791954994202" style="fill: none;" fill="none"></path></g></g></g></g></g></g><g transform="translate(41, 178)" clip-path="url(#clip_1)"><clipPath id="clip_1"><rect width="288" height="22"></rect></clipPath><g><g><line x1="0" y1="0" x2="0" y2="5" style="visibility: inherit;" fill="rgb(0, 0, 0)" stroke="rgb(204, 204, 204)" stroke-width="1px"></line><line x1="24.069010416666664" y1="0" x2="24.069010416666664" y2="5" style="visibility: inherit;" fill="rgb(0, 0, 0)" stroke="rgb(204, 204, 204)" stroke-width="1px"></line><line x1="48.13802083333333" y1="0" x2="48.13802083333333" y2="5" style="visibility: inherit;" fill="rgb(0, 0, 0)" stroke="rgb(204, 204, 204)" stroke-width="1px"></line><line x1="72.20703125" y1="0" x2="72.20703125" y2="5" style="visibility: inherit;" fill="rgb(0, 0, 0)" stroke="rgb(204, 204, 204)" stroke-width="1px"></line><line x1="96.27604166666666" y1="0" x2="96.27604166666666" y2="5" style="visibility: inherit;" fill="rgb(0, 0, 0)" stroke="rgb(204, 204, 204)" stroke-width="1px"></line><line x1="120.34505208333334" y1="0" x2="120.34505208333334" y2="5" style="visibility: inherit;" fill="rgb(0, 0, 0)" stroke="rgb(204, 204, 204)" stroke-width="1px"></line><line x1="144.4140625" y1="0" x2="144.4140625" y2="5" style="visibility: inherit;" fill="rgb(0, 0, 0)" stroke="rgb(204, 204, 204)" stroke-width="1px"></line><line x1="168.48307291666669" y1="0" x2="168.48307291666669" y2="5" style="visibility: inherit;" fill="rgb(0, 0, 0)" stroke="rgb(204, 204, 204)" stroke-width="1px"></line><line x1="192.55208333333331" y1="0" x2="192.55208333333331" y2="5" style="visibility: inherit;" fill="rgb(0, 0, 0)" stroke="rgb(204, 204, 204)" stroke-width="1px"></line><line x1="216.62109375" y1="0" x2="216.62109375" y2="5" style="visibility: inherit;" fill="rgb(0, 0, 0)" stroke="rgb(204, 204, 204)" stroke-width="1px"></line><line x1="240.69010416666669" y1="0" x2="240.69010416666669" y2="5" style="visibility: inherit;" fill="rgb(0, 0, 0)" stroke="rgb(204, 204, 204)" stroke-width="1px"></line><line x1="264.7591145833333" y1="0" x2="264.7591145833333" y2="5" style="visibility: inherit;" fill="rgb(0, 0, 0)" stroke="rgb(204, 204, 204)" stroke-width="1px"></line><line x1="288.828125" y1="0" x2="288.828125" y2="5" style="visibility: inherit;" fill="rgb(0, 0, 0)" stroke="rgb(204, 204, 204)" stroke-width="1px"></line></g><g transform="translate(0, 8)"><text x="0" y="0" dx="0em" dy="0.95em" style="text-anchor: middle; visibility: hidden; font-family: Roboto, sans-serif; font-size: 12px; font-weight: 200;" fill="rgb(50, 49, 63)" stroke="none" stroke-width="1px">-1k</text><text x="24.069010416666664" y="0" dx="0em" dy="0.95em" style="text-anchor: middle; visibility: inherit; font-family: Roboto, sans-serif; font-size: 12px; font-weight: 200;" fill="rgb(50, 49, 63)" stroke="none" stroke-width="1px">0</text><text x="48.13802083333333" y="0" dx="0em" dy="0.95em" style="text-anchor: middle; visibility: inherit; font-family: Roboto, sans-serif; font-size: 12px; font-weight: 200;" fill="rgb(50, 49, 63)" stroke="none" stroke-width="1px">1k</text><text x="72.20703125" y="0" dx="0em" dy="0.95em" style="text-anchor: middle; visibility: inherit; font-family: Roboto, sans-serif; font-size: 12px; font-weight: 200;" fill="rgb(50, 49, 63)" stroke="none" stroke-width="1px">2k</text><text x="96.27604166666666" y="0" dx="0em" dy="0.95em" style="text-anchor: middle; visibility: inherit; font-family: Roboto, sans-serif; font-size: 12px; font-weight: 200;" fill="rgb(50, 49, 63)" stroke="none" stroke-width="1px">3k</text><text x="120.34505208333334" y="0" dx="0em" dy="0.95em" style="text-anchor: middle; visibility: inherit; font-family: Roboto, sans-serif; font-size: 12px; font-weight: 200;" fill="rgb(50, 49, 63)" stroke="none" stroke-width="1px">4k</text><text x="144.4140625" y="0" dx="0em" dy="0.95em" style="text-anchor: middle; visibility: inherit; font-family: Roboto, sans-serif; font-size: 12px; font-weight: 200;" fill="rgb(50, 49, 63)" stroke="none" stroke-width="1px">5k</text><text x="168.48307291666669" y="0" dx="0em" dy="0.95em" style="text-anchor: middle; visibility: inherit; font-family: Roboto, sans-serif; font-size: 12px; font-weight: 200;" fill="rgb(50, 49, 63)" stroke="none" stroke-width="1px">6k</text><text x="192.55208333333331" y="0" dx="0em" dy="0.95em" style="text-anchor: middle; visibility: inherit; font-family: Roboto, sans-serif; font-size: 12px; font-weight: 200;" fill="rgb(50, 49, 63)" stroke="none" stroke-width="1px">7k</text><text x="216.62109375" y="0" dx="0em" dy="0.95em" style="text-anchor: middle; visibility: inherit; font-family: Roboto, sans-serif; font-size: 12px; font-weight: 200;" fill="rgb(50, 49, 63)" stroke="none" stroke-width="1px">8k</text><text x="240.69010416666669" y="0" dx="0em" dy="0.95em" style="text-anchor: middle; visibility: inherit; font-family: Roboto, sans-serif; font-size: 12px; font-weight: 200;" fill="rgb(50, 49, 63)" stroke="none" stroke-width="1px">9k</text><text x="264.7591145833333" y="0" dx="0em" dy="0.95em" style="text-anchor: middle; visibility: inherit; font-family: Roboto, sans-serif; font-size: 12px; font-weight: 200;" fill="rgb(50, 49, 63)" stroke="none" stroke-width="1px">10k</text><text x="288.828125" y="0" dx="0em" dy="0.95em" style="text-anchor: middle; visibility: hidden; font-family: Roboto, sans-serif; font-size: 12px; font-weight: 200;" fill="rgb(50, 49, 63)" stroke="none" stroke-width="1px">11k</text></g><line x1="0" y1="0" x2="288.828125" y2="0" fill="rgb(0, 0, 0)" stroke="rgb(204, 204, 204)" stroke-width="1px"></line></g></g></g></g></svg>