<svg viewBox="0 0 330 200" xmlns="http://www.w3.org/2000/svg"><g><g><g><g><g><line x1="30.78125" y1="178" x2="25.78125" y2="178" style="visibility: inherit;" fill="rgb(0, 0, 0)" stroke="rgb(204, 204, 204)" stroke-width="1px"></line><line x1="30.78125" y1="158.2222222222222" x2="25.78125" y2="158.2222222222222" style="visibility: inherit;" fill="rgb(0, 0, 0)" stroke="rgb(204, 204, 204)" stroke-width="1px"></line><line x1="30.78125" y1="138.44444444444446" x2="25.78125" y2="138.44444444444446" style="visibility: inherit;" fill="rgb(0, 0, 0)" stroke="rgb(204, 204, 204)" stroke-width="1px"></line><line x1="30.78125" y1="118.66666666666669" x2="25.78125" y2="118.66666666666669" style="visibility: inherit;" fill="rgb(0, 0, 0)" stroke="rgb(204, 204, 204)" stroke-width="1px"></line><line x1="30.78125" y1="98.8888888888889" x2="25.78125" y2="98.8888888888889" style="visibility: inherit;" fill="rgb(0, 0, 0)" stroke="rgb(204, 204, 204)" stroke-width="1px"></line><line x1="30.78125" y1="79.1111111111111" x2="25.78125" y2="79.1111111111111" style="visibility: inherit;" fill="rgb(0, 0, 0)" stroke="rgb(204, 204, 204)" stroke-width="1px"></line><line x1="30.78125" y1="59.33333333333334" x2="25.78125" y2="59.33333333333334" style="visibility: inherit;" fill="rgb(0, 0, 0)" stroke="rgb(204, 204, 204)" stroke-width="1px"></line><line x1="30.78125" y1="39.55555555555555" x2="25.78125" y2="39.55555555555555" style="visibility: inherit;" fill="rgb(0, 0, 0)" stroke="rgb(204, 204, 204)" stroke-width="1px"></line><line x1="30.78125" y1="19.777777777777786" x2="25.78125" y2="19.777777777777786" style="visibility: inherit;" fill="rgb(0, 0, 0)" stroke="rgb(204, 204, 204)" stroke-width="1px"></line><line x1="30.78125" y1="0" x2="25.78125" y2="0" style="visibility: inherit;" fill="rgb(0, 0, 0)" stroke="rgb(204, 204, 204)" stroke-width="1px"></line></g><g transform="translate(20.78125, 0)"><text x="0" y="178" dx="0em" dy="0.3em" style="text-anchor: end; visibility: hidden; font-family: Roboto, sans-serif; font-size: 12px; font-weight: 200;" fill="rgb(50, 49, 63)" stroke="none" stroke-width="1px">-1</text><text x="0" y="158.2222222222222" dx="0em" dy="0.3em" style="text-anchor: end; visibility: inherit; font-family: Roboto, sans-serif; font-size: 12px; font-weight: 200;" fill="rgb(50, 49, 63)" stroke="none" stroke-width="1px">0</text><text x="0" y="138.44444444444446" dx="0em" dy="0.3em" style="text-anchor: end; visibility: hidden; font-family: Roboto, sans-serif; font-size: 12px; font-weight: 200;" fill="rgb(50, 49, 63)" stroke="none" stroke-width="1px">1</text><text x="0" y="118.66666666666669" dx="0em" dy="0.3em" style="text-anchor: end; visibility: inherit; font-family: Roboto, sans-serif; font-size: 12px; font-weight: 200;" fill="rgb(50, 49, 63)" stroke="none" stroke-width="1px">2</text><text x="0" y="98.8888888888889" dx="0em" dy="0.3em" style="text-anchor: end; visibility: hidden; font-family: Roboto, sans-serif; font-size: 12px; font-weight: 200;" fill="rgb(50, 49, 63)" stroke="none" stroke-width="1px">3</text><text x="0" y="79.1111111111111" dx="0em" dy="0.3em" style="text-anchor: end; visibility: inherit; font-family: Roboto, sans-serif; font-size: 12px; font-weight: 200;" fill="rgb(50, 49, 63)" stroke="none" stroke-width="1px">4</text><text x="0" y="59.33333333333334" dx="0em" dy="0.3em" style="text-anchor: end; visibility: hidden; font-family: Roboto, sans-serif; font-size: 12px; font-weight: 200;" fill="rgb(50, 49, 63)" stroke="none" stroke-width="1px">5</text><text x="0" y="39.55555555555555" dx="0em" dy="0.3em" style="text-anchor: end; visibility: inherit; font-family: Roboto, sans-serif; font-size: 12px; font-weight: 200;" fill="rgb(50, 49, 63)" stroke="none" stroke-width="1px">6</text><text x="0" y="19.777777777777786" dx="0em" dy="0.3em" style="text-anchor: end; visibility: hidden; font-family: Roboto, sans-serif; font-size: 12px; font-weight: 200;" fill="rgb(50, 49, 63)" stroke="none" stroke-width="1px">7</text><text x="0" y="0" dx="0em" dy="0.3em" style="text-anchor: end; visibility: hidden; font-family: Roboto, sans-serif; font-size: 12px; font-weight: 200;" fill="rgb(50, 49, 63)" stroke="none" stroke-width="1px">8</text></g><line x1="30.78125" y1="0" x2="30.78125" y2="178" fill="rgb(0, 0, 0)" stroke="rgb(204, 204, 204)" stroke-width="1px"></line></g></g><g transform="translate(30, 0)" clip-path="url(#clip_0)"><clipPath id="clip_0"><rect width="299" height="178"></rect></clipPath><g><g><g><line x1="0" y1="0" x2="0" y2="178" fill="rgb(0, 0, 0)" stroke="rgb(60, 60, 60)" stroke-width="1px" opacity="0.25"></line><line x1="24.934895833333332" y1="0" x2="24.934895833333332" y2="178" fill="rgb(0, 0, 0)" stroke="rgb(60, 60, 60)" stroke-width="1px" opacity="0.25"></line><line x1="49.869791666666664" y1="0" x2="49.869791666666664" y2="178" fill="rgb(0, 0, 0)" stroke="rgb(60, 60, 60)" stroke-width="1px" opacity="0.25"></line><line x1="74.8046875" y1="0" x2="74.8046875" y2="178" fill="rgb(0, 0, 0)" stroke="rgb(60, 60, 60)" stroke-width="1px" opacity="0.25"></line><line x1="99.73958333333333" y1="0" x2="99.73958333333333" y2="178" fill="rgb(0, 0, 0)" stroke="rgb(60, 60, 60)" stroke-width="1px" opacity="0.25"></line><line x1="124.67447916666667" y1="0" x2="124.67447916666667" y2="178" fill="rgb(0, 0, 0)" stroke="rgb(60, 60, 60)" stroke-width="1px" opacity="0.25"></line><line x1="149.609375" y1="0" x2="149.609375" y2="178" fill="rgb(0, 0, 0)" stroke="rgb(60, 60, 60)" stroke-width="1px" opacity="0.25"></line><line x1="174.54427083333334" y1="0" x2="174.54427083333334" y2="178" fill="rgb(0, 0, 0)" stroke="rgb(60, 60, 60)" stroke-width="1px" opacity="0.25"></line><line x1="199.47916666666666" y1="0" x2="199.47916666666666" y2="178" fill="rgb(0, 0, 0)" stroke="rgb(60, 60, 60)" stroke-width="1px" opacity="0.25"></line><line x1="224.4140625" y1="0" x2="224.4140625" y2="178" fill="rgb(0, 0, 0)" stroke="rgb(60, 60, 60)" stroke-width="1px" opacity="0.25"></line><line x1="249.34895833333334" y1="0" x2="249.34895833333334" y2="178" fill="rgb(0, 0, 0)" stroke="rgb(60, 60, 60)" stroke-width="1px" opacity="0.25"></line><line x1="274.28385416666663" y1="0" x2="274.28385416666663" y2="178" fill="rgb(0, 0, 0)" stroke="rgb(60, 60, 60)" stroke-width="1px" opacity="0.25"></line><line x1="299.21875" y1="0" x2="299.21875" y2="178" fill="rgb(0, 0, 0)" stroke="rgb(60, 60, 60)" stroke-width="1px" opacity="0.25"></line></g><g><line x1="0" y1="178" x2="299.21875" y2="178" fill="rgb(0, 0, 0)" stroke="rgb(60, 60, 60)" stroke-width="1px" opacity="0.25"></line><line x1="0" y1="158.2222222222222" x2="299.21875" y2="158.2222222222222" fill="rgb(0, 0, 0)" stroke="rgb(60, 60, 60)" stroke-width="1px" opacity="0.25"></line><line x1="0" y1="138.44444444444446" x2="299.21875" y2="138.44444444444446" fill="rgb(0, 0, 0)" stroke="rgb(60, 60, 60)" stroke-width="1px" opacity="0.25"></line><line x1="0" y1="118.66666666666669" x2="299.21875" y2="118.66666666666669" fill="rgb(0, 0, 0)" stroke="rgb(60, 60, 60)" stroke-width="1px" opacity="0.25"></line><line x1="0" y1="98.8888888888889" x2="299.21875" y2="98.8888888888889" fill="rgb(0, 0, 0)" stroke="rgb(60, 60, 60)" stroke-width="1px" opacity="0.25"></line><line x1="0" y1="79.1111111111111" x2="299.21875" y2="79.1111111111111" fill="rgb(0, 0, 0)" stroke="rgb(60, 60, 60)" stroke-width="1px" opacity="0.25"></line><line x1="0" y1="59.33333333333334" x2="299.21875" y2="59.33333333333334" fill="rgb(0, 0, 0)" stroke="rgb(60, 60, 60)" stroke-width="1px" opacity="0.25"></line><line x1="0" y1="39.55555555555555" x2="299.21875" y2="39.55555555555555" fill="rgb(0, 0, 0)" stroke="rgb(60, 60, 60)" stroke-width="1px" opacity="0.25"></line><line x1="0" y1="19.777777777777786" x2="299.21875" y2="19.777777777777786" fill="rgb(0, 0, 0)" stroke="rgb(60, 60, 60)" stroke-width="1px" opacity="0.25"></line><line x1="0" y1="0" x2="299.21875" y2="0" fill="rgb(0, 0, 0)" stroke="rgb(60, 60, 60)" stroke-width="1px" opacity="0.25"></line></g></g></g><g><g><line x1="0" y1="158.2222222222222" x2="299.21875" y2="158.2222222222222" fill="rgb(0, 0, 0)" stroke="rgb(153, 153, 153)" stroke-width="1.5px"></line></g></g><g><g><line x1="24.934895833333332" y1="0" x2="24.934895833333332" y2="178" fill="rgb(0, 0, 0)" stroke="rgb(153, 153, 153)" stroke-width="1.5px"></line></g></g><g><g><g><g><g><path stroke="rgb(255, 112, 67)" stroke-width="2px" d="M25.433593750000004,158.21924470719793L25.433593750000004,158.17473786954645L25.932291666666668,158.18861271460048L25.932291666666668,158.11107099877498L26.430989583333332,158.13363476050688L26.430989583333332,157.9935204512847L26.9296875,158.01122487369744L26.9296875,157.8908480725885L27.428385416666664,157.94504423658444L27.428385416666664,157.8698891347487L27.927083333333336,157.8851823481557L27.927083333333336,157.76496221439209L28.42578125,157.83781841660317L28.42578125,157.71521887967722L28.924479166666664,157.6774641455375L28.924479166666664,157.45782747463386L29.423177083333332,157.51707320883918L29.423177083333332,157.2412513334755L29.921875,157.34716090413818L29.921875,156.813256037134L30.420572916666668,157.01060334945964L30.420572916666668,156.2207068631233L30.919270833333332,156.83489647361765L30.919270833333332,156.23134591675148L31.41796875,156.92831477518595L31.41796875,156.32544461498665L31.916666666666668,157.0253813443898L31.916666666666668,156.69261666966295L32.415364583333336,156.66782062364953L32.415364583333336,156.21897162476483L32.9140625,156.56716693312094L32.9140625,156.33312618249414L33.412760416666664,156.6251100120788L33.412760416666664,156.23180677532557L25.433593750000004,157.0280117804738L25.433593750000004,157.47588427913715L25.932291666666668,157.77227034222915L25.932291666666668,157.85813890865973L26.430989583333332,158.00357825967083L26.430989583333332,157.97337648365283L26.9296875,158.06538555436788L27.428385416666664,158.10612070546017L27.428385416666664,157.984085390181L27.927083333333336,158.06200497094375L27.927083333333336,157.9171162190831L28.42578125,158.01075360473942L28.42578125,157.87343198436153L28.924479166666664,157.89635992242208L28.924479166666664,157.74469916505066L29.423177083333332,157.80685177418442L29.423177083333332,157.61918340044173L29.921875,157.87125381236726L29.921875,157.7794681497076L30.420572916666668,157.85315958853525L30.420572916666668,157.46259346456216L30.919270833333332,157.80026336293795L30.919270833333332,157.42349477015088L31.41796875,157.85374230460621L31.41796875,157.27391060779266L31.916666666666668,157.78615015268855L31.916666666666668,157.17467299943814L32.415364583333336,157.73380772246975L32.415364583333336,153.68426373784175L32.9140625,155.87659793771633L32.9140625,152.03850166207943L33.412760416666664,154.57243938035108L33.412760416666664,150.1798928320918L33.91145833333333,153.5785115141976L33.91145833333333,149.6564412237126L34.41015625,152.30291469817865L34.41015625,152.6365185680188L34.908854166666664,154.67206396390847L34.908854166666664,154.0193164690128L35.407552083333336,155.2603183928074L35.407552083333336,154.690510304017L35.90625,155.69688800879243L35.90625,155.02821930856925L36.40494791666667,155.77686544822507L36.40494791666667,155.24301114950026L36.903645833333336,155.60639016923707L36.903645833333336,154.08697997323446L37.40234375,155.1342905091749L37.40234375,154.5530492342019L37.90104166666667,155.3009814486804L37.90104166666667,154.9767505433369L38.39973958333333,153.03229682283848L38.39973958333333,151.00091313106168L38.8984375,152.68740566375595L38.8984375,153.26235207466596L39.397135416666664,154.61632696120927L39.397135416666664,154.13778431810331L39.895833333333336,154.45257091547154L39.895833333333336,153.29097177467474L40.39453125,153.51762934057948L40.39453125,151.95593907022564L40.893229166666664,151.52443330702303L40.893229166666664,149.27428986956946L41.391927083333336,147.78871557247138L41.391927083333336,146.6951552802877L41.89062500000001,149.92793865979385L41.89062500000001,148.94109592161314L42.389322916666664,152.43440897739308L42.389322916666664,149.93728578043473L42.888020833333336,150.9245003617952L42.888020833333336,148.728652674717L43.38671875,150.14028476270443L43.38671875,147.6610493576074L43.885416666666664,146.57773772372073L43.885416666666664,141.7949611368705L44.384114583333336,145.0610658553333L44.384114583333336,144.20796149335848L44.8828125,145.47417895811327L44.8828125,138.16854331185934L45.38151041666667,143.758237729877L45.38151041666667,140.14657576704607L45.88020833333333,136.59585974906634L45.88020833333333,128.2347877135891L46.37890625,135.03433857096013L46.37890625,133.64569203561874L46.87760416666667,134.14112928480375L46.87760416666667,128.27229629273825L47.37630208333333,138.64438244292506L47.37630208333333,142.90565550413683L47.875,144.53732943851588L47.875,139.96478670628173L48.373697916666664,140.90773149604382L48.373697916666664,136.39271173376045L48.872395833333336,143.20018072756383L48.872395833333336,141.45671562783605L49.37109375,130.47261709100283L49.37109375,121.90984438468118L49.869791666666664,132.59603002831798L49.869791666666664,135.05874142944094L50.368489583333336,143.69344206657243L50.368489583333336,141.74574599534677L50.86718750000001,137.5660422436619L50.86718750000001,126.58409984197894L51.365885416666664,133.38296118946877L51.365885416666664,126.69641905105648L51.864583333333336,130.39175198190003L51.864583333333336,128.02549866796423L52.36328125,130.18427476594712L52.36328125,125.97270654293483L52.861979166666664,126.79843218847994L52.861979166666664,124.17204761341146L53.360677083333336,124.70567850438383L53.360677083333336,115.86789221598612L53.859375,117.1703685464496L53.859375,107.42251557163605L54.35807291666667,118.11225126218125L54.35807291666667,112.86595913455348L54.85677083333333,120.23238434405403L54.85677083333333,118.83372587502103L55.35546875,122.34662987315713L55.35546875,112.89111452481251L55.85416666666667,117.24838883521154L55.85416666666667,116.03377118480071L56.35286458333333,124.65070582823407L56.35286458333333,116.1325685266442L56.8515625,131.92576080000455L56.8515625,131.3831794850856L57.35026041666667,122.87150579913106L57.35026041666667,106.643328597819L57.84895833333333,113.2892043654175L57.84895833333333,108.16258134693877L58.34765625,118.40107707464614L58.34765625,107.94639988909512L58.846354166666664,113.29556264184129L58.846354166666664,103.80887642126606L59.345052083333336,112.39477415852544L59.345052083333336,100.94919361787052L59.84375,110.1220458342321L59.84375,106.14505786858125L60.342447916666664,106.25991531773349L60.342447916666664,92.72564354014095L60.841145833333336,112.11615531858159L60.841145833333336,109.54362374077053L61.33984374999999,114.12802245469113L61.33984374999999,103.37131761727133L61.838541666666664,112.09167709413938L61.838541666666664,101.70543386285436L62.337239583333336,123.61358680109473L62.337239583333336,122.3534714831396L62.8359375,122.21649146133898L62.8359375,108.94047998354709L63.334635416666664,114.70815411587084L63.334635416666664,109.27121719944194L63.833333333333336,97.68810490174388L63.833333333333336,74.19282730329677L64.33203125,105.95470984457454L64.33203125,112.03445016881273L64.83072916666667,124.43521145705647L64.83072916666667,117.89343019691997L65.32942708333333,109.50382483754626L65.32942708333333,92.77339606999466L65.828125,92.87124426210721L65.828125,83.19146447142178L66.32682291666667,109.99263341350154L66.32682291666667,114.10999979449984L66.82552083333333,85.02838361320437L66.82552083333333,57.37118750977374L67.32421875,95.25837087598823L67.32421875,109.36017296029888L67.82291666666666,114.5542209941969L67.82291666666666,108.90540810683987L68.32161458333333,116.44058522538118L68.32161458333333,102.35237690647574L68.8203125,117.04860175156671L68.8203125,117.24146974387214L69.31901041666667,119.54308486959803L69.31901041666667,104.14925322058015L69.81770833333333,105.74877824392578L69.81770833333333,94.50684908102616L70.31640625,79.65107799346974L70.31640625,58.20668984451665L70.81510416666667,73.1301230172243L70.81510416666667,70.69017559832557L71.31380208333334,102.08941124738323L71.31380208333334,105.72828549659889L71.8125,102.47286073277378L71.8125,79.59880632240898L72.31119791666667,98.20543449899483L72.31119791666667,99.97151057986973L72.80989583333334,120.12470974499452L72.80989583333334,114.96405250613573L73.30859375,117.16893123326177L73.30859375,105.10052902210903L73.80729166666667,98.67879042385842L73.80729166666667,74.95394838931124L74.30598958333333,99.86372513091409L74.30598958333333,103.42955743911703L74.8046875,72.63875202125016L74.8046875,41.52121507993761L75.30338541666666,71.55619241584857L75.30338541666666,80.59299968090697L75.80208333333334,63.12473600815627L75.80208333333334,36.47451421909731L76.30078125,51.69673745873162L76.30078125,41.35539887307967L76.79947916666666,77.31984839282433L76.79947916666666,77.97006641823583L77.29817708333334,84.21759393148078L77.29817708333334,66.393149861357L77.796875,47.70957215083656L77.796875,19.78061533707853L78.29557291666666,66.80548344098612L78.29557291666666,77.35140254390754L78.79427083333333,80.10911732556598L78.79427083333333,65.94021875247662L79.29296875,77.27378904770994L79.29296875,58.67288150493347L79.79166666666667,59.10033543304364L79.79166666666667,40.77806307114616L80.29036458333333,40.178308764521994L80.29036458333333,15.907314933327992L80.7890625,71.8168634621894L80.7890625,88.34420508038575L81.28776041666667,81.32680638699013L81.28776041666667,59.76156408562561L81.78645833333333,83.91834590088574L81.78645833333333,83.20526819710017L82.28515625,84.4783173293251L82.28515625,62.262857096813796L82.78385416666667,86.53704723495935L82.78385416666667,75.75037495759344L83.28255208333333,71.97770584173L83.78125000000001,80.61704158314265L83.78125000000001,68.45203219238506L84.27994791666667,70.12960448626167L84.27994791666667,53.60726767968561L84.77864583333333,70.43789979068627L84.77864583333333,68.01506726359904L85.27734374999999,73.55922481996498L85.27734374999999,52.572502487397294L85.77604166666667,64.5064235886908L85.77604166666667,59.15064010122609L86.27473958333333,83.35595288931842L86.27473958333333,83.77555244732939L86.7734375,87.50578158572078L86.7734375,80.38798238255768L87.27213541666667,89.00772023516475L87.27213541666667,80.56953938461555L87.77083333333333,89.58199738192222L87.77083333333333,82.70016325086286L88.26953125,88.17445933628704L88.26953125,69.76270672631105L88.76822916666667,79.84403936900468L88.76822916666667,65.879870742917L89.26692708333333,62.19612469760839L89.26692708333333,43.02592939959259L89.765625,73.90678144126244L89.765625,82.09624250045218L90.26432291666667,50.04172618773062L90.26432291666667,4.44781148981938L90.76302083333334,-17.056633116823445L90.76302083333334,-50.30626668785665L91.26171875,19.82651704662913L91.26171875,54.130571012380955L91.76041666666666,81.93517060823899L91.76041666666666,79.76869674903084L92.25911458333334,47.53573544782888L92.25911458333334,8.57200067285855L92.7578125,36.239814647964266L92.7578125,35.196506985054064L93.25651041666666,52.74692742508193L93.25651041666666,57.578619949244036L93.75520833333334,50.340883059634315L93.75520833333334,28.68408449954469L94.25390625,59.951412304374976L94.25390625,60.6082529476749L94.75260416666666,75.81450159194208L94.75260416666666,67.74816568532205L95.25130208333334,78.64374397499532L95.25130208333334,71.41267367517187L95.75,72.70749245142743L95.75,61.789172391429375L96.24869791666666,83.11910443193472L96.24869791666666,84.0476205681303L96.74739583333333,80.40792592771086L96.74739583333333,64.75840102544433L97.24609375,69.23104523698427L97.24609375,53.0283153796987L97.74479166666667,73.19381689166472L97.74479166666667,74.28955605839295L98.24348958333333,38.75290572704964L98.24348958333333,17.549041698084164L98.7421875,65.20670336798514L98.7421875,89.38090075707514L99.24088541666667,71.9608174131345L99.24088541666667,43.57921113235607L99.73958333333333,61.06340285603582L99.73958333333333,56.7725255172646L100.23828125,90.70389855921776L100.23828125,97.27960299729281L100.73697916666667,93.86380820374406L100.73697916666667,74.8477255265623L101.23567708333333,80.42480323212932L101.23567708333333,69.11132208074353L101.73437500000001,76.86667965523866L101.73437500000001,61.447815749414886L102.23307291666667,75.23021780386988L102.23307291666667,63.618387886165785L102.73177083333333,68.57973575158339L102.73177083333333,53.17970519335452L103.23046874999999,66.2433008390284L103.23046874999999,57.17961358718439L103.72916666666667,59.15362034720267L103.72916666666667,43.89338960537562L104.22786458333333,69.44610664089737L104.22786458333333,66.40735578243068L104.7265625,87.17499776240004L104.7265625,80.4244478914488L105.22526041666667,89.90549637582659L105.22526041666667,83.80610584110737L105.72395833333333,110.95395976041192L105.72395833333333,113.71498208285033L106.22265625,109.53944497463831L106.22265625,88.5358960988916L106.72135416666667,102.11836619420299L106.72135416666667,93.52714450968041L107.22005208333333,84.22372867154719L107.22005208333333,61.34525637983532L107.71875,69.34714885184054L107.71875,61.62207800061171L108.21744791666667,91.83926805204548L108.21744791666667,96.25382911040886L108.71614583333334,89.17046733556226L108.71614583333334,66.97825297959801L109.21484375,28.196575929875777L109.21484375,0.5575351643165116L109.71354166666666,24.182566659638624L109.71354166666666,19.290975305299234L110.21223958333334,48.22680175541123L110.21223958333334,51.23983272323644L110.7109375,64.30259801261074L110.7109375,56.84659808199409L111.20963541666666,38.201973334873514L111.20963541666666,13.15856947523509L111.70833333333334,46.57348575472791L111.70833333333334,44.358517578257235L112.20703125,20.004745336315224L112.20703125,-12.995772301655961L112.70572916666666,22.459581389988948L112.70572916666666,27.618726484953633L113.20442708333334,27.226843368796082L113.20442708333334,11.954339596038945L113.703125,61.70238754694017L113.703125,72.79732599384198L114.20182291666666,91.54176988253293L114.20182291666666,93.65427373677073L114.70052083333334,85.30465581514186L114.70052083333334,65.51176497040836L115.19921875,68.05242149716473L115.69791666666666,88.56530674707408L115.69791666666666,90.74774954829189L116.19661458333333,97.45442384549126L116.19661458333333,87.20545502411876L116.6953125,76.56409544624752L116.6953125,61.079860211677556L117.19401041666667,85.08239766302405L117.19401041666667,82.07655177055747L117.69270833333333,87.13936268346215L117.69270833333333,83.71003375285888L118.19140625,106.9505939539977L118.19140625,106.28369206660571L118.69010416666667,118.92785693689335L118.69010416666667,117.89748577366757L119.18880208333333,108.11850202667344L119.18880208333333,89.8801322998528L119.6875,77.83899806073849L119.6875,60.45754168244463L120.18619791666667,27.049283835828547L120.18619791666667,-8.425429325510255L120.68489583333333,50.395255539756185L121.18359375000001,72.84960924290752L121.18359375000001,62.6195607982266L121.68229166666667,73.55934716873496L121.68229166666667,55.383800685748895L122.18098958333333,89.61794895219197L122.18098958333333,99.54788551104501L122.67968749999999,110.70662707511049L122.67968749999999,102.4022976172044L123.17838541666667,87.85206866601222L123.17838541666667,67.59994075235527L123.67708333333333,59.00094057310369L123.67708333333333,39.377791830366675L124.17578125,70.55579488649582L124.67447916666667,79.63209232394665L124.67447916666667,70.90632541864642L125.17317708333333,100.8292138622905L125.17317708333333,100.28113332073124L125.671875,71.28526396494578L125.671875,38.71144929625805L126.17057291666667,61.89354022866087L126.17057291666667,57.59753156551411L126.66927083333333,29.42603984384949L126.66927083333333,-2.1299323782769344L127.16796875,34.21319051776313L127.16796875,44.120529099137144L127.66666666666667,59.70026143090426L127.66666666666667,58.46685316116842L128.16536458333334,72.44670811862488L128.16536458333334,69.05296347150318L128.6640625,91.22921659845909L128.6640625,83.59352306040738L129.16276041666666,84.54189533631902L129.16276041666666,66.87924741093856L129.66145833333334,55.38508955204544L129.66145833333334,37.873501986978134L130.16015625,59.305453002218336L130.16015625,60.560604149624744L130.65885416666666,58.23752927851183L130.65885416666666,47.8085412877424L131.15755208333334,67.03844269036328L131.15755208333334,65.66023521904923L131.65625,64.6692642156038L131.65625,53.67923538720461L132.15494791666666,58.536873880706004L132.15494791666666,53.619353162787746L132.65364583333334,58.0023166078913L132.65364583333334,44.603425148111526L133.15234375,74.85432476380385L133.15234375,81.17049922890811L133.65104166666666,87.15733784114397L133.65104166666666,77.20762084263941L134.14973958333331,90.23989059199586L134.14973958333331,89.56735998725047L134.6484375,94.74272477429201L134.6484375,82.9310800143148L135.14713541666666,91.82006914862387L135.14713541666666,84.60702727306919L135.64583333333331,58.30921707591833L135.64583333333331,31.071915251925777L136.14453125,52.67586490619428L136.14453125,51.504719891795986L136.64322916666666,67.19811425658365L136.64322916666666,56.337092549582785L137.14192708333331,64.15060533409809L137.14192708333331,47.64463587332398L137.640625,29.866206318509374L137.640625,11.962888955629278L138.13932291666666,53.13957584672554L138.13932291666666,61.4716878009905L138.63802083333334,80.91989162668669L138.63802083333334,74.95420904420862L139.13671875,84.71322038383447L139.13671875,80.19463598430187L139.63541666666666,99.65121499783483L139.63541666666666,99.41333362313122L140.13411458333334,109.51321958678835L140.13411458333334,110.03143848882839L140.6328125,106.2940361533963L140.6328125,96.30306839088355L141.13151041666666,89.68022430225068L141.13151041666666,71.02898287677412L141.63020833333334,73.17097592296389L142.12890625,79.51508888104206L142.12890625,65.54542218611492L142.62760416666669,53.185478010901264L142.62760416666669,29.831558531665543L143.12630208333334,50.1606448196897L143.12630208333334,53.525445560162346L143.625,69.76965133454439L143.625,62.55774548381855L144.12369791666669,68.18216027721606L144.12369791666669,52.50623122661881L144.62239583333334,78.21053544566772L144.62239583333334,75.03709795671813L145.12109375,75.05958524769082L145.12109375,63.13814720235256L145.61979166666669,87.73727742731431L145.61979166666669,97.25881206134872L146.11848958333334,69.65201795648154L146.11848958333334,42.00459158748755L146.6171875,60.16970823008041L146.6171875,66.5121538242923L147.11588541666666,87.2896647692458L147.11588541666666,93.75591153414133L147.61458333333334,108.67908995323694L147.61458333333334,106.10541683883127L148.11328125,98.1868756466812L148.61197916666666,104.20456925685771L148.61197916666666,95.54458150128531L149.11067708333334,106.99971999045219L149.11067708333334,103.3694857172463L149.609375,95.48175894625082L149.609375,82.86269212210435L150.10807291666669,99.17505155934117L150.10807291666669,102.51668042765657L150.60677083333331,107.33055502139156L150.60677083333331,102.70024375230979L151.10546875,108.67955414255341L151.10546875,103.19079800592456L151.60416666666669,114.48338477169101L151.60416666666669,109.77046799341282L152.10286458333331,106.4666691602038L152.10286458333331,95.58626658536923L152.6015625,95.8456191151416L152.6015625,80.53496186045595L153.10026041666669,86.329958418323L153.10026041666669,78.61005797742608L153.59895833333331,89.90486692112633L153.59895833333331,87.99486715296742L154.09765625,106.87611747602524L154.09765625,113.41286328592506L154.59635416666669,98.62373433406317L154.59635416666669,81.96881529560122L155.09505208333331,81.37666277609526L155.09505208333331,68.77315224058121L155.59375,94.92789280919244L155.59375,102.29146151050733L156.09244791666666,99.37465188155124L156.09244791666666,84.26840591910546L156.59114583333331,103.73438420053823L156.59114583333331,104.38412018842733L157.08984375,107.9935242269073L157.08984375,102.21955006521746L157.58854166666666,92.41243644477011L157.58854166666666,78.37751913818367L158.08723958333334,79.19630314957688L158.08723958333334,69.1996113846463L158.5859375,72.66464025913251L158.5859375,68.63556813680275L159.08463541666666,72.50449753559185L159.08463541666666,61.76773025115925L159.58333333333334,72.6100514502561L159.58333333333334,70.9174977907944L160.08203125,57.61673453466544L160.08203125,38.210842129355036L160.58072916666666,58.801337049463626L160.58072916666666,59.452723387515086L161.07942708333334,64.47824757315847L161.07942708333334,62.401073265846044L161.578125,79.26411710573429L161.578125,77.7360248814283L162.07682291666666,83.80449499986122L162.07682291666666,81.9595418298999L162.57552083333334,59.773438907483126L162.57552083333334,39.316328384569616L163.07421875,62.25434952860554L163.07421875,68.6807345052357L163.57291666666666,91.0770702858644L163.57291666666666,86.57280460794034L164.07161458333334,87.66959687219287L164.07161458333334,81.67891808967855L164.5703125,101.77949671850575L164.5703125,102.98687284002949L165.06901041666666,50.678055863441536L165.06901041666666,11.34780938544231L165.56770833333334,5.998385524792951L165.56770833333334,0.6729849010303051L166.06640625000003,41.73470202595888L166.06640625000003,55.53036110374534L166.56510416666666,66.73203375005647L166.56510416666666,60.00115097004527L167.06380208333334,71.31581503016764L167.06380208333334,65.26441687793672L167.56250000000003,86.23048589895849L167.56250000000003,89.16515421366437L168.06119791666666,83.82523473333102L168.06119791666666,71.55261167028017L168.55989583333334,96.443335883648L168.55989583333334,99.70942077474312L169.05859374999997,114.48243112890498L169.05859374999997,112.55059882253883L169.55729166666666,101.45029235830197L169.55729166666666,86.64632495280941L170.05598958333334,82.85141992590928L170.05598958333334,74.50407285703483L170.55468749999997,89.9500121626055L170.55468749999997,93.53614984601842L171.05338541666666,99.767083999747L171.05338541666666,96.77241697411442L171.55208333333334,91.85700891978631L171.55208333333334,80.61943877743602L172.05078125,81.29623226924888L172.05078125,76.57813024086246L172.54947916666666,80.56827069127719L172.54947916666666,75.41326317736669L173.04817708333334,71.80084152085415L173.04817708333334,66.29984945427411L173.546875,76.94422322203005L173.546875,76.76402606646457L174.04557291666666,90.30810766665283L174.04557291666666,85.02533510475243L174.54427083333334,90.17475253498553L174.54427083333334,84.66204782022635L175.04296875,84.4403004813475L175.04296875,81.92280023306306L175.54166666666666,94.21987961205329L175.54166666666666,94.87177098741292L176.04036458333334,110.54330712725813L176.04036458333334,117.30344245667646L176.5390625,110.34421965050598L176.5390625,96.89941814284265L177.03776041666666,71.13585331219214L177.03776041666666,44.46319368388917L177.53645833333334,59.917065833780505L177.53645833333334,61.35358278572295L178.03515625,63.283834275654705L178.03515625,53.775513433977345L178.53385416666666,66.57704285330769L178.53385416666666,65.77071365245499L179.03255208333334,84.37510589278727L179.03255208333334,87.17034072852991L179.53125,77.47226796454306L179.53125,63.661234898802334L180.02994791666669,83.12654304974146L180.02994791666669,89.52388604763865L180.52864583333334,97.79294365946019L180.52864583333334,96.2808215596491L181.02734375,83.6363888674572L181.02734375,68.44322099713719L181.52604166666669,74.70685982826956L181.52604166666669,67.35615278423657L182.02473958333331,43.479136320132326L182.02473958333331,22.20868523581854L182.5234375,18.314429153983003L182.5234375,1.969641056978534L183.02213541666669,36.451398027334925L183.02213541666669,50.01026244107544L183.52083333333331,68.10922210765742L183.52083333333331,69.58517238575601L184.01953125,79.60994672623308L184.01953125,75.83369133116358L184.51822916666669,68.93845904613465L184.51822916666669,58.681834074327945L185.01692708333331,80.56399116199721L185.01692708333331,88.61511629126706L185.515625,97.77564701220733L185.515625,95.0793399115616L186.01432291666669,86.07257775268239L186.01432291666669,73.60348605726263L186.51302083333331,88.19443626173795L186.51302083333331,89.710258914839L187.01171875,91.72588673063758L187.01171875,86.44331673347806L187.51041666666669,70.65534669563155L187.51041666666669,53.3581035624907L188.00911458333331,68.14843299931081L188.00911458333331,64.9941997226822L188.5078125,69.7381633153937L188.5078125,65.394126745611L189.00651041666669,75.17712145599698L189.00651041666669,71.68179413078676L189.50520833333331,48.22531598381601L189.50520833333331,28.621227628755317L190.00390625,42.69640151798127L190.00390625,41.109529406000895L190.50260416666669,65.49184626417211L190.50260416666669,75.06389984732975L191.00130208333331,85.23041648547849L191.00130208333331,80.4758238540285L191.5,67.91483162320813L191.5,53.83071401536097L191.99869791666669,55.472746638044164L191.99869791666669,43.60828037316668L192.49739583333331,80.2834785549479L192.49739583333331,95.58045393306504L192.99609375,105.4862105837838L192.99609375,107.63769531728417L193.49479166666666,112.17877883138546L193.49479166666666,107.44688610884917L193.99348958333331,103.25305485849934L193.99348958333331,97.46874397670443L194.4921875,94.36983012032304L194.4921875,83.8665633028389L194.99088541666666,102.64796769904275L194.99088541666666,100.04984519123012L195.48958333333334,113.62284011254758L195.48958333333334,105.41610069770978L195.98828125,118.0021445176961L195.98828125,110.76757156847356L196.48697916666666,102.04635904894003L196.48697916666666,83.1288615041253L196.98567708333334,82.11583443058527L196.98567708333334,74.30154284381665L197.484375,80.58624928586627L197.484375,80.9336248004016L197.98307291666666,102.61907702732212L197.98307291666666,108.0390538417188L198.48177083333334,101.18298727397115L198.48177083333334,86.16261329062509L198.98046875,99.27095428325704L198.98046875,102.64897607761075L199.47916666666666,120.56238446167909L199.47916666666666,118.8694995653538L199.97786458333334,116.43149204590038L199.97786458333334,102.19210532495912L200.4765625,103.46370779455093L200.4765625,94.32751969948313L200.97526041666666,101.88558135568704L200.97526041666666,90.97666839179493L201.47395833333334,89.57486578540926L201.47395833333334,78.92912162307393L201.97265625,97.47927560056011L201.97265625,97.89389392190698L202.47135416666666,97.35389716365715L202.47135416666666,90.38083752423461L202.97005208333334,91.72488134958307L202.97005208333334,83.5711128663498L203.46875000000003,99.08888597729006L203.46875000000003,102.14956111840394L203.96744791666666,112.81531174725154L203.96744791666666,114.91714182808181L204.46614583333334,107.75994522427693L204.46614583333334,100.45985303951407L204.96484375000003,78.57605623119271L204.96484375000003,58.629542794637395L205.46354166666666,86.82692695334968L205.46354166666666,95.38789415232257L205.96223958333334,87.33694982452346L205.96223958333334,73.63352878312823L206.46093749999997,84.52578729178178L206.46093749999997,80.13644083345665L206.95963541666666,87.62005044622065L206.95963541666666,80.81932691893682L207.45833333333334,72.35054746565245L207.45833333333334,58.36402873573914L207.95703124999997,82.9106902648369L207.95703124999997,90.23085621280296L208.45572916666666,111.9878535731272L208.45572916666666,115.28656336051044L208.95442708333334,114.81412045123601L208.95442708333334,111.81257017960934L209.453125,119.70759496463477L209.453125,112.53680893868754L209.95182291666666,127.54250543502631L209.95182291666666,127.28474075177576L210.45052083333334,135.02382580122247L210.94921875,103.72391771550183L210.94921875,82.97349073719766L211.44791666666666,82.17672788042894L211.44791666666666,78.33943033380751L211.94661458333334,88.45290104645557L211.94661458333334,86.48064993810826L212.4453125,88.07216840779091L212.4453125,74.58691346125981L212.94401041666666,81.70415969378062L212.94401041666666,81.1666848031526L213.44270833333334,101.48244101147257L213.44270833333334,109.38544048273805L213.94140625,111.21638485103061L213.94140625,109.95551948466758L214.44010416666666,84.08485182819746L214.44010416666666,58.919056848871605L214.93880208333334,60.074622043350764L214.93880208333334,55.16625552411973L215.4375,81.12346593891573L215.4375,91.24295396486585L215.93619791666666,101.22678491401473L215.93619791666666,100.9223287346298L216.43489583333334,106.71931989312843L216.43489583333334,104.83734252842667L216.93359375,100.07690996668843L216.93359375,92.11260271117355L217.43229166666669,93.66815226899743L217.43229166666669,85.59997663937968L217.93098958333334,101.03799782487198L217.93098958333334,104.86805825540226L218.4296875,116.01427521041977L218.4296875,113.7279332131727L218.92838541666669,101.6045397232324L219.42708333333331,93.49027777375875L219.42708333333331,82.2456687648819L219.92578125,84.12668202742955L219.92578125,75.11543296828881L220.42447916666669,93.4000480118693L220.42447916666669,95.88793663640624L220.92317708333331,104.62757679100716L220.92317708333331,100.13278541464472L221.421875,84.76228419773432L221.421875,72.38993341028284L221.92057291666669,68.02625253511555L221.92057291666669,55.986212582335064L222.41927083333331,85.20749105470092L222.41927083333331,100.43260584480922L222.91796875,107.1557076320822L222.91796875,104.8565551699001L223.41666666666669,93.71826486022726L223.41666666666669,78.60774631373292L223.91536458333331,88.24042799979438L223.91536458333331,83.98031789606806L224.4140625,91.70940132334097L224.4140625,85.74944124125665L224.91276041666669,84.60790959830354L224.91276041666669,80.49568130077084L225.41145833333331,72.97961431974201L225.41145833333331,61.2889864127545L225.91015625,69.07229465594804L225.91015625,68.43567814108943L226.40885416666669,83.57351553909973L226.40885416666669,86.185930019125L226.90755208333331,97.43451318539127L226.90755208333331,101.67371963168017L227.40625,107.90761119812298L227.40625,104.72755725927229L227.90494791666669,95.92601185224034L227.90494791666669,86.47338313436126L228.40364583333331,77.47808615842163L228.40364583333331,67.25394463294633L228.90234375,88.05135975267157L228.90234375,96.14581579226322L229.40104166666669,106.58768930191637L229.40104166666669,106.44874838153093L229.89973958333331,101.74738015362695L229.89973958333331,96.40703409159295L230.3984375,110.38908453729219L230.3984375,114.47030933401201L230.89713541666666,103.95087477717858L231.39583333333331,86.89191675609122L231.39583333333331,70.82184324518305L231.89453125,79.72209766752135L231.89453125,75.29173091598318L232.39322916666666,89.13076941167758L232.89192708333334,98.24612036808269L232.89192708333334,93.42170318178032L233.390625,88.30841675990504L233.390625,78.31625919629676L233.88932291666666,89.11721474714139L233.88932291666666,88.61732136215338L234.38802083333334,110.35042365064233L234.38802083333334,116.43793806303214L234.88671875,117.54668919763171L234.88671875,112.1328019809L235.38541666666666,112.04354307784935L235.38541666666666,103.31898780637894L235.88411458333334,95.2327321342397L235.88411458333334,84.55365112984121L236.3828125,86.0062780327767L236.3828125,73.26725156257238L236.88151041666666,98.04804619706152L236.88151041666666,98.21487444573529L237.38020833333334,109.8567147052321L237.38020833333334,108.22033712442914L237.87890625,122.63545887641496L237.87890625,119.2339051781439L238.37760416666666,113.10390586035177L238.37760416666666,101.62901321344278L238.87630208333334,76.49380129286601L238.87630208333334,56.69840484154261L239.375,71.82654880922922L239.375,74.26723152993587L239.87369791666666,84.79539721501284L239.87369791666666,85.37798291552843L240.37239583333334,108.71072461802365L240.37239583333334,117.83893640265691L240.87109375000003,118.59524537380037L240.87109375000003,108.06867816401817L241.36979166666666,91.02332508112305L241.36979166666666,77.48057563033888L241.86848958333334,88.00166282544181L241.86848958333334,88.60682445460345L242.36718750000003,94.56008945256079L242.36718750000003,92.00128363844188L242.86588541666666,97.53784168659836L242.86588541666666,92.43144562780375L243.36458333333334,98.38776743839557L243.36458333333334,93.23059781384028L243.86328124999997,80.36838518773452L243.86328124999997,65.15725471493563L244.36197916666666,62.89890740795446L244.36197916666666,55.29638870712889L244.86067708333334,76.25061114192735L245.35937499999997,70.55181122623986L245.35937499999997,63.63289731822275L245.85807291666666,67.312702164873L245.85807291666666,66.35832027014234L246.35677083333334,54.33305076939877L246.35677083333334,36.96196577658067L246.85546875,49.93881738675191L246.85546875,54.92166314153738L247.35416666666666,65.19545559264542L247.35416666666666,65.69054631497852L247.85286458333334,88.71607133875789L247.85286458333334,97.47472506508201L248.3515625,79.72527765413437L248.3515625,63.638617791482375L248.85026041666666,86.98794516058345L248.85026041666666,97.42739085699732L249.34895833333334,94.78221974843774L249.34895833333334,90.36357839549007L249.84765625,100.92018497572991L249.84765625,97.35536526128973L250.34635416666666,88.2472331168704L250.34635416666666,73.51540975028988L250.84505208333334,93.80238749073112L250.84505208333334,97.35898946482307L251.34375,95.97354411868605L251.34375,87.4749627630546L251.84244791666666,84.43392876443406L251.84244791666666,74.11466023717607L252.34114583333334,82.90651199059258L252.34114583333334,80.7244285447923L252.83984375,96.9639029061248L252.83984375,100.23240876197185L253.33854166666666,92.57547914186735L253.33854166666666,84.57780968665847L253.83723958333334,70.91298906516893L254.3359375,72.22661449419576L254.3359375,66.95621944080729L254.83463541666669,89.48383371399406L254.83463541666669,94.22189806520876L255.33333333333334,82.90953484878237L255.33333333333334,71.47235037839918L255.83203125,99.92531362216246L255.83203125,109.8591190492876L256.3307291666667,113.06839492878589L256.3307291666667,108.64857562558615L256.8294270833333,101.62587052556599L256.8294270833333,90.99147487067816L257.328125,101.45028996696256L257.328125,102.2041349795604L257.8268229166667,91.00092858396835L257.8268229166667,77.09465212617039L258.3255208333333,103.05672633577947L258.3255208333333,113.37313838757811L258.82421875,109.74569426352426L258.82421875,103.93835321888113L259.3229166666667,97.42995976237658L259.3229166666667,86.84204898771567L259.8216145833333,97.9895074781261L259.8216145833333,95.39991394512083L260.3203125,89.01312294965987L260.3203125,74.08019114752214L260.8190104166667,75.26709433328867L260.8190104166667,71.23976413103334L261.3177083333333,92.1645269852423L261.3177083333333,99.07349491751121L261.81640625,93.1837078556242L261.81640625,86.47570500919157L262.3151041666667,89.7738959228598L262.3151041666667,88.15319704824306L262.8138020833333,100.5162307463239L262.8138020833333,102.56843263029623L263.3125,103.8134529107651L263.3125,100.66328981998606L263.8111979166667,109.38866487565795L263.8111979166667,113.44879688342971L264.3098958333333,98.2272884009183L264.3098958333333,85.73443051193227L264.80859375,98.29780238742738L265.3072916666667,100.92447555917896L265.3072916666667,98.35482391498194L265.8059895833333,91.60703902180683L265.8059895833333,85.2318042507577L266.3046875,88.59131024888669L266.3046875,81.18823799259374L266.8033854166667,82.36896870328466L266.8033854166667,79.23208984013486L267.3020833333333,86.52539031935056L267.3020833333333,85.54508402817174L267.80078125,91.94259916534325L267.80078125,91.35178617445145L268.29947916666663,103.97685265161438L268.29947916666663,102.91249986526739L268.7981770833333,104.17017272070802L268.7981770833333,100.88544537928489L269.296875,87.96950109055379L269.296875,76.92497864912394" style="fill: none;" fill="none"></path></g></g></g></g><g opacity="0.2"><g><g><g><path stroke="rgb(255, 112, 67)" stroke-width="2px" d="M25.433593750000004,158.21924470719793L25.433593750000004,158.14803376695556L25.932291666666668,158.2019325658524L25.932291666666668,158.01988194096418L26.430989583333332,158.16309400782404L26.430989583333332,157.79969192047915L26.9296875,158.03654248101842L26.9296875,157.71533754095435L27.428385416666664,158.02497305141557L27.428385416666664,157.75829256739883L27.927083333333336,157.9079834599462L27.927083333333336,157.58528624640573L28.42578125,157.94686483177873L28.42578125,157.53155975954402L28.924479166666664,157.62087642360063L28.924479166666664,157.12852737307549L29.423177083333332,157.60591673933797L29.423177083333332,156.82758855157428L29.921875,157.50600912587512L29.921875,156.01244753764738L30.420572916666668,157.30661349495253L30.420572916666668,155.0358881254991L30.919270833333332,157.75616876325674L30.919270833333332,155.326027231084L31.41796875,157.97376310908132L31.41796875,155.4211419456535L31.916666666666668,158.0752846475484L31.916666666666668,156.19347016844483L32.415364583333336,156.63062657747003L32.415364583333336,155.5456983745098L32.9140625,157.0894597801897L32.9140625,155.98206510312028L33.412760416666664,157.06308572159875L33.412760416666664,155.64185194836725L25.433593750000004,158.22231925397784L25.433593750000004,158.1476930155833L25.932291666666668,158.21684943228158L25.932291666666668,157.98694175750845L26.430989583333332,158.22173728537746L26.430989583333332,157.9280738197267L26.9296875,158.203399160256L27.428385416666664,158.16722343204958L27.428385416666664,157.80103241735034L27.927083333333336,158.1788843420541L27.927083333333336,157.69978309132986L28.42578125,158.15120968320923L28.42578125,157.6674495538076L28.924479166666664,157.9307518295116L28.924479166666664,157.51720802899865L29.423177083333332,157.90008068788381L29.423177083333332,157.33768083982997L29.921875,158.2493594302537L29.921875,157.64178965571853L30.420572916666668,157.9636967467765L30.420572916666668,156.87674427860313L30.919270833333332,158.3067682105013L30.919270833333332,156.85834188097053L31.41796875,158.49911360628903L31.41796875,156.40416306257248L31.916666666666668,158.55450947003234L31.916666666666668,156.2574572695626L32.415364583333336,158.57250980701713L32.415364583333336,147.60994776089987L32.9140625,159.16509923752812L32.9140625,146.28135724862418L33.412760416666664,158.37334595775852L33.412760416666664,143.59107300970288L33.91145833333333,158.6764395373563L33.91145833333333,143.77333578798505L34.41015625,156.27262490987778L34.41015625,153.13692437277902L34.908854166666664,157.72538205774296L34.908854166666664,153.0401952266693L35.407552083333336,157.12182127849925L35.407552083333336,153.83579817083148L35.90625,157.2064545659555L35.90625,154.02521625823445L36.40494791666667,156.8998346577088L36.40494791666667,154.44222970141303L36.903645833333336,156.15145869884225L36.903645833333336,151.80786467923056L37.40234375,156.70525631308556L37.40234375,153.68118732174239L37.90104166666667,156.42287977039814L37.90104166666667,154.4904041853216L38.39973958333333,150.11561624209085L38.39973958333333,147.9538375933965L38.8984375,155.21714446279736L38.8984375,154.12477169103093L39.397135416666664,156.6472892910242L39.397135416666664,153.41997035344443L39.895833333333336,154.92475081152386L39.895833333333336,151.54857306347955L40.39453125,153.85761568943659L40.39453125,149.6134036646949L40.893229166666664,150.87717466221918L40.893229166666664,145.89907471338907L41.391927083333336,145.56035412682425L41.391927083333336,145.0548148420122L41.89062500000001,154.77711372905307L41.89062500000001,147.46083181434207L42.389322916666664,157.67437856106292L42.389322916666664,146.19160098499722L42.888020833333336,152.40532223383585L42.888020833333336,145.43488114409976L43.38671875,152.25773289468555L43.38671875,143.94219624996185L43.885416666666664,144.95277027289072L43.885416666666664,134.62079625659518L44.384114583333336,149.96022293302747L44.384114583333336,142.9283049503962L44.8828125,147.37350515524545L44.8828125,127.21008984247845L45.38151041666667,152.1427793569035L45.38151041666667,134.72908282279968L45.88020833333333,131.26978572209674L45.88020833333333,115.69317966037327L46.37890625,145.2336648570167L46.37890625,131.5627222326067L46.87760416666667,134.8842851585812L46.87760416666667,119.46904680464003L47.37630208333333,154.20251166820526L47.37630208333333,149.29756509595447L47.875,146.9848403400845L47.875,133.10597260793048L48.373697916666664,142.32214868068695L48.373697916666664,129.62018209033542L48.872395833333336,153.41138421826892L48.872395833333336,138.84151797824435L49.37109375,113.99646928575304L49.37109375,109.06568532519871L49.869791666666664,148.62530849377313L49.869791666666664,138.7528085311254L50.368489583333336,156.64549302226968L50.368489583333336,138.82420188850827L50.86718750000001,131.29648661613464L50.86718750000001,110.11118623945448L51.365885416666664,143.58125321070352L51.365885416666664,116.66660584343803L51.864583333333336,135.93475137816537L51.864583333333336,124.47611869706047L52.36328125,133.42243891292148L52.36328125,119.6553542084164L52.861979166666664,128.0370206567976L52.861979166666664,120.23247075080872L53.360677083333336,125.50612484084236L53.360677083333336,102.61121278338963L53.859375,119.12408304214478L53.859375,92.80073610941571L54.35807291666667,134.14685479799905L54.35807291666667,104.99652094311183L54.85677083333333,131.28202215830487L54.85677083333333,116.73573817147148L55.35546875,127.61598587036133L55.35546875,98.70784150229561L55.85416666666667,123.78430030081007L55.85416666666667,114.21184470918443L56.35286458333333,137.57610779338412L56.35286458333333,103.35536257425946L56.8515625,155.61554921004506L56.8515625,130.56930751270718L57.35026041666667,110.10399527019923L57.35026041666667,82.30106279585097L57.84895833333333,123.25801801681519L57.84895833333333,100.47264681922066L58.34765625,133.75882066620719L58.34765625,92.26438411076862L58.846354166666664,121.31930677096051L58.846354166666664,89.57884709040326L59.345052083333336,125.27362076441449L59.345052083333336,83.78082280688817L59.84375,123.88132415877449L59.84375,100.17957592010498L60.342447916666664,106.43220149146187L60.342447916666664,72.42423587375218L60.841145833333336,141.2019229862425L60.841145833333336,105.68482637405396L61.33984374999999,121.00462052557204L61.33984374999999,87.23626036114162L61.838541666666664,125.17221630944145L61.838541666666664,86.12606901592677L62.337239583333336,156.47581620845529L62.337239583333336,120.46329850620693L62.8359375,122.01102142863805L62.8359375,89.02646276685927L63.334635416666664,123.3596653143565L63.334635416666664,101.11581182479858L63.833333333333336,80.3134364551968L63.833333333333336,38.94991090562609L64.33203125,153.59753365649115L64.33203125,121.15406065517003L64.83072916666667,143.0363533894221L64.83072916666667,108.08075830671523L65.32942708333333,96.91941679848564L65.32942708333333,67.67775291866725L65.828125,93.01801655027602L65.828125,68.6717947853936L66.32682291666667,150.19438682662118L66.32682291666667,120.28604936599731L66.82552083333333,41.405959341261116L66.82552083333333,15.88539335462782L67.32421875,152.08914592530994L67.32421875,130.51287608676486L67.82291666666666,122.34529304504395L67.82291666666666,100.4321887758043L68.32161458333333,127.74335090319317L68.32161458333333,81.22006442811754L68.8203125,139.0929390192032L68.8203125,117.53077173233032L69.31901041666667,122.99550755818683L69.31901041666667,81.05850574705336L69.81770833333333,108.14806577894423L69.81770833333333,77.64395533667671L70.31640625,57.36742136213514L70.31640625,26.04010762108696L70.81510416666667,95.51527277628583L70.81510416666667,67.03025446997749L71.31380208333334,149.18826472096973L71.31380208333334,111.18659687042236L71.8125,97.58972358703613L71.8125,45.2877247068617L72.31119791666667,126.11537676387364L72.31119791666667,102.62062470118207L72.80989583333334,150.3545084926817L72.80989583333334,107.22306664784747L73.30859375,120.47624932395088L73.30859375,86.9979257053799L73.80729166666667,89.04618252648247L73.80729166666667,39.3666853374905L74.30598958333333,137.22839024331836L74.30598958333333,108.77830590142143L74.8046875,26.452543894449864L74.8046875,-5.15509033203125L75.30338541666666,116.60865841971504L75.30338541666666,94.14821057849461L75.80208333333334,36.92234049903023L75.80208333333334,-3.50081846449112L76.30078125,74.53007231818306L76.30078125,25.843390994601783L76.79947916666666,131.26652267244128L76.79947916666666,78.94539345635307L77.29817708333334,93.58888520134819L77.29817708333334,39.65648375617134L77.796875,19.684205585055885L77.796875,-22.1128198835585L78.29557291666666,137.34278559684753L78.29557291666666,93.17028119828966L78.79427083333333,84.24568949805366L78.79427083333333,44.68687089284262L79.29296875,94.27414449055988L79.29296875,30.771520190768776L79.79166666666667,59.74151632520887L79.79166666666667,13.294654528299962L80.29036458333333,39.278677304585784L80.29036458333333,-20.499175813462983L80.7890625,155.68118625548152L80.7890625,113.13521750768024L81.28776041666667,70.80070834689671L81.28776041666667,27.413700633578834L81.78645833333333,120.1535186237759L81.78645833333333,82.13565164142186L82.28515625,86.38789102766249L82.28515625,28.939666748046875L82.78385416666667,122.94833244217766L82.78385416666667,59.57036654154459L83.28255208333333,66.31870216793483L83.78125000000001,93.57604519526166L83.78125000000001,50.20451810624865L84.27994791666667,72.64596292707655L84.27994791666667,28.82376246982151L84.77864583333333,95.68384795718724L84.77864583333333,64.38081847296822L85.27734374999999,81.8754611545139L85.27734374999999,21.09241898854574L85.77604166666667,82.4073052406311L85.77604166666667,51.11696487002903L86.27473958333333,119.66392207145691L86.27473958333333,84.40495178434584L86.7734375,93.10112529330785L86.7734375,69.71128357781303L87.27213541666667,101.9373270140754L87.27213541666667,67.91226810879176L87.77083333333333,103.10068437788222L87.77083333333333,72.37741205427382L88.26953125,96.3859034644233L88.26953125,42.14507781134712L88.76822916666667,94.96603833304512L88.76822916666667,44.93361780378553L89.26692708333333,56.67050562964546L89.26692708333333,14.270636452568894L89.765625,120.22805950376723L89.765625,94.3804340892368L90.26432291666667,1.9599517186482813L90.26432291666667,-63.94306055704754L90.76302083333334,-100.18071704440648L91.26171875,125.0256926483578L91.26171875,105.58665196100873L91.76041666666666,123.64207000202602L91.76041666666666,76.51898596021864L92.25911458333334,-0.8137065039740756L92.25911458333334,-49.8736014895969L92.7578125,77.74153561062282L92.7578125,33.631545490688744L93.25651041666666,79.07255808512369L93.25651041666666,64.8261587354872L93.75520833333334,39.48427772521973L93.75520833333334,-3.801113340589753L94.25390625,106.85240401162041L94.25390625,61.59351391262478L94.75260416666666,98.62387455834282L94.75260416666666,55.648661825391976L95.25130208333334,94.98711140950519L95.25130208333334,60.566068225436744L95.75,74.6497206158108L95.75,45.41169230143228L96.24869791666666,115.11400249269273L96.24869791666666,85.44039477242363L96.74739583333333,74.9483839670817L96.74739583333333,41.28411367204455L97.24609375,75.94001155429417L97.24609375,28.72422059377035L97.74479166666667,103.44206915961372L97.74479166666667,75.93316480848524L98.24348958333333,-14.552069769965286L98.24348958333333,-14.256754345364037L98.7421875,136.69319587283664L98.7421875,125.6421968407101L99.24088541666667,45.83069239722359L99.24088541666667,1.006801711188431L99.73958333333333,87.28969044155544L99.73958333333333,50.336209509107796L100.23828125,141.60095812214743L100.23828125,107.14315965440538L100.73697916666667,88.74011601342094L100.73697916666667,46.323601510789665L101.23567708333333,88.79041979047987L101.23567708333333,52.14110035366482L101.73437500000001,88.49971601698134L101.73437500000001,38.319519890679246L102.23307291666667,95.90382088555229L102.23307291666667,46.20064300960964L102.73177083333333,76.02175754970973L102.73177083333333,30.079659356011277L103.23046874999999,85.8386943075392L103.23046874999999,43.58408270941841L103.72916666666667,62.114630487230095L103.72916666666667,21.003043492635097L104.22786458333333,107.77518219417995L104.22786458333333,61.84922949473062L104.7265625,118.32646073235405L104.7265625,70.29862308502197L105.22526041666667,104.12706910239326L105.22526041666667,74.65702003902858L105.72395833333333,151.67574063936868L105.72395833333333,117.856515566508L106.22265625,103.2761393123203L106.22265625,57.03057278527153L106.72135416666667,122.49207133717006L106.72135416666667,80.64031198289659L107.22005208333333,70.26860491434732L107.22005208333333,27.02754794226753L107.71875,81.34998755984837L107.71875,50.03447172376844L108.21744791666667,137.16505312919617L108.21744791666667,102.87567069795396L108.71614583333334,78.54542467329237L108.71614583333334,33.68993144565159L109.21484375,-29.975939644707566L109.21484375,-40.90102598402237L109.71354166666666,59.6201139026218L109.71354166666666,11.95358827379015L110.21223958333334,91.6305414305793L110.21223958333334,55.759379174974235L110.7109375,83.89674594667223L110.7109375,45.66259818606907L111.20963541666666,10.235036214192714L111.20963541666666,-24.406536314222564L111.70833333333334,96.69586017396715L111.70833333333334,41.036065313551155L112.20703125,-16.52591302659775L112.20703125,-62.49654875861275L112.70572916666666,75.64261192745631L112.70572916666666,35.357444127400726L113.20442708333334,26.639018694559727L113.20442708333334,-10.95441606309677L113.703125,136.32445947329202L113.703125,89.43973366419476L114.20182291666666,119.65843571556938L114.20182291666666,96.82302951812744L114.70052083333334,72.78022893269858L114.70052083333334,35.822428703308105L115.19921875,71.86340628729927L115.69791666666666,119.33463462193805L115.69791666666666,94.02141375011867L116.19661458333333,107.51443529129028L116.19661458333333,71.83200179206001L116.6953125,60.60205607944065L116.6953125,37.8535073598226L117.19401041666667,121.08620384004381L117.19401041666667,77.56778293185765L117.69270833333333,94.73357905281914L117.69270833333333,78.56604035695395L118.19140625,141.81143425570596L118.19140625,105.28333923551772L118.69010416666667,137.89410424232483L118.69010416666667,116.35192902882892L119.18880208333333,93.45002640618218L119.18880208333333,62.52257770962185L119.6875,59.77729670206705L119.6875,34.38535711500379L120.18619791666667,-23.06310293409561L120.18619791666667,-61.63749906751846L120.68489583333333,138.62628283765582L121.18359375000001,106.53113979763454L121.18359375000001,47.27448813120523L121.68229166666667,89.9690267244975L121.68229166666667,28.1204809612698L122.18098958333333,140.96917135185666L122.18098958333333,114.44279034932453L122.67968749999999,127.44473942120868L122.67968749999999,89.94580343034532L123.17838541666667,66.0267252392239L123.17838541666667,37.22174888186985L123.67708333333333,46.10244030422634L123.67708333333333,9.94306871626112L124.17578125,117.32279947068956L124.67447916666667,93.24653848012287L124.67447916666667,57.81767506069607L125.17317708333333,145.71354652775656L125.17317708333333,99.45901250839233L125.671875,27.791459931267624L125.671875,-10.149272706773528L126.17057291666667,96.66667662726509L126.17057291666667,51.15351857079399L126.66927083333333,-12.831197738647461L126.66927083333333,-49.46389071146648L127.16796875,88.7278748618232L127.16796875,58.981536971198196L127.66666666666667,83.06985992855495L127.66666666666667,56.616740756564674L128.16536458333334,93.41649055480957L128.16536458333334,63.96234650082058L128.6640625,124.49359628889296L128.6640625,72.13998275332982L129.16276041666666,85.96445375018651L129.16276041666666,40.38527552286783L129.66145833333334,38.14385276370579L129.66145833333334,11.606120639377174L130.16015625,91.45337952507866L130.16015625,62.44333087073433L130.65885416666666,54.75291697184244L130.65885416666666,32.165059301588265L131.15755208333334,95.88329479429457L131.15755208333334,63.59292401207817L131.65625,63.18280771043566L131.65625,37.19419214460584L132.15494791666666,65.82333162095811L132.15494791666666,46.24307208591038L132.65364583333334,64.57676177554661L132.65364583333334,24.505087958441848L133.15234375,120.23067418734234L133.15234375,90.64476092656452L133.65104166666666,96.13759575949776L133.65104166666666,62.283045344882545L134.14973958333331,109.78829521603053L134.14973958333331,88.55856408013237L134.6484375,102.50577195485431L134.6484375,65.21361287434897L135.14713541666666,105.15355285008746L135.14713541666666,73.78746445973715L135.64583333333331,18.86250178019205L135.64583333333331,-9.784037484063035L136.14453125,85.08178938759697L136.14453125,49.74800237019858L136.64322916666666,90.73820580376518L136.64322916666666,40.0455599890815L137.14192708333331,75.87087451087105L137.14192708333331,22.88568168216282L137.640625,3.1985619862874417L137.640625,-14.892087088690872L138.13932291666666,114.90460618336994L138.13932291666666,73.96985573238796L138.63802083333334,110.09219736523097L138.63802083333334,66.00568517049155L139.13671875,99.35173739327324L139.13671875,73.41675938500298L139.63541666666666,128.83608351813425L139.63541666666666,99.05651156107587L140.13411458333334,124.66304853227403L140.13411458333334,110.80876684188843L140.6328125,100.68793265024823L140.6328125,81.3166167471144L141.13151041666666,79.74595816930136L141.13151041666666,43.0521207385593L141.63020833333334,76.38396549224854L142.12890625,89.03125831815932L142.12890625,44.590922143724235L142.62760416666669,34.64556174808079L142.62760416666669,-5.199320687188034L143.12630208333334,80.65427425172594L143.12630208333334,58.572646670871315L143.625,94.13595999611748L143.625,51.73988670772976L144.12369791666669,76.61878246731227L144.12369791666669,28.992337650722924L144.62239583333334,116.76699177424115L144.62239583333334,70.27694172329372L145.12109375,75.09331618414986L145.12109375,45.25599013434517L145.61979166666669,124.63597276475694L145.61979166666669,111.54111401240033L146.11848958333334,28.241826799180775L146.11848958333334,0.533452033996582L146.6171875,87.41738319396973L146.6171875,76.02582221561009L147.11588541666666,118.45593118667603L147.11588541666666,103.45528168148464L147.61458333333334,131.06385758188037L147.61458333333334,102.24490716722276L148.11328125,86.30906385845607L148.61197916666666,113.23110967212254L148.61197916666666,82.55459986792671L149.11067708333334,124.18242772420246L149.11067708333334,97.92413430743748L149.609375,83.65016878975761L149.609375,63.93409188588461L150.10807291666669,123.6435907151964L150.10807291666669,107.52912373012965L150.60677083333331,114.5513669119941L150.60677083333331,95.75477684868706L151.10546875,117.64851972791884L151.10546875,94.95766380098131L151.60416666666669,131.42226492034067L151.60416666666669,102.70109282599556L152.10286458333331,101.5109709103902L152.10286458333331,79.26566272311742L152.6015625,96.23464790980023L152.6015625,57.56897597842747L153.10026041666669,95.02245325512355L153.10026041666669,67.03020731608072L153.59895833333331,106.84708033667671L153.59895833333331,85.12986750072902L154.09765625,135.19799296061197L154.09765625,123.2179820007748L154.59635416666669,76.44004090627035L154.59635416666669,56.98643673790825L155.09505208333331,80.48843399683633L155.09505208333331,49.867886437310105L155.59375,134.16000366210938L155.59375,113.33681456247967L156.09244791666666,94.99943743811714L156.09244791666666,61.609036975436744L156.59114583333331,132.93335162268747L156.59114583333331,105.35872417026097L157.08984375,113.40763028462726L157.08984375,93.55858882268268L157.58854166666666,77.70176601409912L157.58854166666666,57.325143178304046L158.08723958333334,80.42447916666666L158.08723958333334,54.20457373725044L158.5859375,77.86218357086182L158.5859375,62.591959953308105L159.08463541666666,78.3078916337755L159.08463541666666,45.66257932451037L159.58333333333334,88.87353324890137L159.58333333333334,68.37866730160182L160.08203125,37.665589650472015L160.08203125,9.102003521389427L160.58072916666666,89.68707942962646L160.58072916666666,60.429802894592285L161.07942708333334,72.01653385162354L161.07942708333334,59.285311804877395L161.578125,104.55868286556667L161.578125,75.44388654496935L162.07682291666666,92.90720017751056L162.07682291666666,79.19211207495796L162.57552083333334,26.494284523857957L162.57552083333334,8.630662600199376L163.07421875,96.66138124465942L163.07421875,78.32031197018092L163.57291666666666,124.67157395680744L163.57291666666666,79.81640609105429L164.07161458333334,89.31478526857164L164.07161458333334,72.69289991590712L164.5703125,131.93036466174655L164.5703125,104.79793702231514L165.06901041666666,-27.78516960144043L165.56770833333334,-7.315116034613724L166.06640625000003,103.32727771335179L166.06640625000003,76.22384972042506L166.56510416666666,83.5345427195231L166.56510416666666,49.904826800028474L167.06380208333334,88.28781112035117L167.06380208333334,56.18731964959038L167.56250000000003,117.67958943049115L167.56250000000003,93.56715668572319L168.06119791666666,75.81535551283095L168.06119791666666,53.14367707570395L168.55989583333334,133.77942220369974L168.55989583333334,104.60854811138576L169.05859374999997,136.6419466601478L169.05859374999997,109.65285036298964L169.55729166666666,84.79983266194662L169.55729166666666,64.44037384457057L170.05598958333334,77.15906238555908L170.05598958333334,61.983052253723145L170.55468749999997,113.11892112096149L170.55468749999997,98.91535637113783L171.05338541666666,109.11348523033989L171.05338541666666,92.28041643566554L171.55208333333334,84.48389683829414L171.55208333333334,63.7630835639106L172.05078125,82.31142250696817L172.05078125,69.50097719828287L172.54947916666666,86.55348136689928L172.54947916666666,67.68075190650093L173.04817708333334,66.38220903608534L173.04817708333334,58.04836135440403L173.546875,92.91078387366402L173.546875,76.49373033311632L174.04557291666666,110.62423006693524L174.04557291666666,77.10117626190186L174.54427083333334,97.89887868033516L174.54427083333334,76.39299074808756L175.04296875,84.10767947302925L175.04296875,78.14654986063638L175.54166666666666,112.66549868053859L175.54166666666666,95.84960805045235L176.04036458333334,134.05061133702597L176.04036458333334,127.44364545080397L176.5390625,99.90538544125026L176.5390625,76.73221588134766L177.03776041666666,32.490506066216355L177.03776041666666,4.454204241434726L177.53645833333334,83.09787405861748L177.53645833333334,63.508358213636605L178.03515625,66.17921151055229L178.03515625,39.51303217146131L178.53385416666666,85.7793369823032L178.53385416666666,64.56121985117593L179.03255208333334,112.2816942532857L179.03255208333334,91.36319298214381L179.53125,62.925158818562835L179.53125,42.94468530019125L180.02994791666669,112.32450527615016L180.02994791666669,99.11990054448444L180.52864583333334,110.19653007719252L180.52864583333334,94.01263840993244L181.02734375,64.66973982916939L181.02734375,45.65346919165718L181.52604166666669,84.10231807496812L181.52604166666669,56.330092218187126L182.02473958333331,7.663611623975964L182.02473958333331,-9.696991390652123L182.5234375,12.473045031229649L182.5234375,-22.5475410885281L183.02213541666669,88.17403348286948L183.02213541666669,70.34855906168619L183.52083333333331,95.25766160753038L183.52083333333331,71.79909780290392L184.01953125,94.64710823694867L184.01953125,70.16930823855931L184.51822916666669,58.59561061859131L184.51822916666669,43.29689661661783L185.01692708333331,113.38722679350111L185.01692708333331,100.69180398517186L185.515625,111.51644309361774L185.515625,91.034879260593L186.01432291666669,72.56243451436362L186.01432291666669,54.89984851413303L186.51302083333331,110.08086156845093L186.51302083333331,91.98399289449054L187.01171875,94.74932845433551L187.01171875,78.51946173773872L187.51041666666669,46.97339163886177L187.51041666666669,27.412238862779407L188.00911458333331,90.33392715454102L188.00911458333331,60.26284980773926L188.5078125,76.85410870446098L188.5078125,58.878071890936965L189.00651041666669,89.85161352157593L189.00651041666669,66.43880314297145L189.50520833333331,13.04059876335991L189.50520833333331,-0.7849049038357161L190.00390625,63.8091623518202L190.00390625,38.72922123803032L190.50260416666669,102.06532155142891L190.50260416666669,89.42198022206622L191.00130208333331,100.48019144270155L191.00130208333331,73.34393490685356L191.5,49.07334327697754L191.5,32.70453760359022L191.99869791666669,57.93579557206896L191.99869791666669,25.81158097585043L192.49739583333331,135.29627582761975L192.49739583333331,118.52591700024074L192.99609375,120.34484555986192L192.99609375,110.86492241753471L193.49479166666666,118.99040410253737L193.49479166666666,100.34904702504474L193.99348958333331,96.9623079829746L193.99348958333331,88.79227765401205L194.4921875,89.72145933575099L194.4921875,68.11166307661269L194.99088541666666,130.8200742933485L194.99088541666666,96.15266142951118L195.48958333333334,133.9823324945238L195.48958333333334,93.10599157545302L195.98828125,136.88121024767557L195.98828125,99.91571214463976L196.48697916666666,88.96454026963976L196.48697916666666,54.752615186903206L196.98567708333334,80.59629382027519L196.98567708333334,62.58010546366373L197.484375,90.01330894894069L197.484375,81.45468807220459L197.98307291666666,135.1472553677029L197.98307291666666,116.16901906331378L198.48177083333334,90.89888742234972L198.48177083333334,63.632052315606L198.98046875,118.93346577220494L198.98046875,107.71600876914131L199.47916666666666,147.4324970377816L199.47916666666666,116.3301722208659L199.97786458333334,112.77448076672023L199.97786458333334,80.83302524354723L200.4765625,105.37111149893867L200.4765625,80.62323755688136L200.97526041666666,113.22267383999294L200.97526041666666,74.61329894595677L201.47395833333334,87.47216187583076L201.47395833333334,62.96050537957085L201.97265625,125.30450656678941L201.97265625,98.51582140392726L202.47135416666666,96.54390202628242L202.47135416666666,79.92124806510078L202.97005208333334,93.74094708760578L202.97005208333334,71.34046014149985L203.46875000000003,122.36554564370049L203.46875000000003,106.74057383007472L203.96744791666666,128.81393769052295L203.96744791666666,118.06988694932726L204.46614583333334,97.0241503185696L204.46614583333334,89.50971476236981L204.96484375000003,45.75036101871067L204.96484375000003,28.70977263980442L205.46354166666666,129.12300319141812L205.46354166666666,108.22934495078194L205.96223958333334,75.2605333328247L205.96223958333334,53.078397221035424L206.46093749999997,100.8641750547621L206.46093749999997,73.55242114596898L206.95963541666666,98.84546486536664L206.95963541666666,70.61824162801108L207.45833333333334,59.64737828572592L207.45833333333334,37.38425064086914L207.95703124999997,119.73068255848354L207.95703124999997,101.21110513475206L208.45572916666666,144.62334961361356L208.45572916666666,120.23462804158527L208.95442708333334,114.10545608732436L208.95442708333334,107.31024477216933L209.453125,131.55013214217294L209.453125,101.78062989976671L209.95182291666666,150.05105017953449L209.95182291666666,126.89809372689989L210.45052083333334,146.6324533753925L210.94921875,56.77405558692085L210.94921875,51.84785026974148L211.44791666666666,80.98158359527588L211.44791666666666,72.58348401387533L211.94661458333334,103.62310711542767L211.94661458333334,83.5222732755873L212.4453125,90.45944611231488L212.4453125,54.359031041463226L212.94401041666666,92.38002904256183L212.94401041666666,80.36047246721056L213.44270833333334,131.95607532395255L213.44270833333334,121.23993968963623L213.94140625,113.9628014034695L213.94140625,108.06422143512303L214.44010416666666,45.2788503434923L214.44010416666666,21.170364379882812L214.93880208333334,61.80796983506945L214.93880208333334,47.80370574527317L215.4375,120.05928156110976L215.4375,106.42218600379097L215.93619791666666,116.20253133773804L215.93619791666666,100.46564446555244L216.43489583333334,115.41480663087633L216.43489583333334,102.01437648137409L216.93359375,92.93626112408107L216.93359375,80.16614182790121L217.43229166666669,96.00147660573322L217.43229166666669,73.49771319495308L217.93098958333334,124.19502960311043L217.93098958333334,110.61314890119765L218.4296875,132.73360064294604L218.4296875,110.29842021730211L218.92838541666669,83.41944948832193L219.42708333333331,81.31888484954834L219.42708333333331,65.37875525156656L219.92578125,86.94820192125108L219.92578125,61.59855937957764L220.42447916666669,120.82697057723999L220.42447916666669,99.61976957321167L220.92317708333331,117.73703702290851L220.92317708333331,93.39059835010106L221.421875,61.7065323723687L221.421875,53.83140722910562L221.92057291666669,61.48073122236463L221.92057291666669,37.92615265316433L222.41927083333331,129.0394087632497L222.41927083333331,123.27027802997166L222.91796875,117.24036031299168L222.91796875,101.40782647662694L223.41666666666669,77.01082939571803L223.41666666666669,55.94196849399143L223.91536458333331,102.68945052888658L223.91536458333331,77.59015274047852L224.4140625,103.30302646425035L224.4140625,76.80950111813014L224.91276041666669,82.89561213387383L224.91276041666669,74.32733885447183L225.41145833333331,61.70551384819878L225.41145833333331,43.75304455227322L225.91015625,80.74725702073839L225.91015625,67.48075336880153L226.40885416666669,106.28027163611519L226.40885416666669,90.10455173916286L226.90755208333331,114.30738793479073L226.90755208333331,108.03252930111354L227.40625,117.25844854778713L227.40625,99.95747635099623L227.90494791666669,82.72369374169243L227.90494791666669,72.29444005754259L228.40364583333331,63.98514069451225L228.40364583333331,51.91773234473335L228.90234375,119.24748243225945L228.90234375,108.28749985165065L229.40104166666669,122.25049956639606L229.40104166666669,106.24033700095283L229.89973958333331,94.69532781177098L229.89973958333331,88.39651499854195L230.3984375,131.36216020584106L230.3984375,120.59214652909172L230.89713541666666,88.17172294192845L231.39583333333331,61.30347972446018L231.39583333333331,46.7167329788208L231.89453125,93.07247930102879L231.89453125,68.64618078867593L232.39322916666666,109.88932715521919L232.89192708333334,111.91914680269029L232.89192708333334,86.1850774023268L233.390625,80.63848712709215L233.390625,63.328022850884324L233.88932291666666,105.31864807340834L233.88932291666666,87.86748128467137L234.38802083333334,142.95007708337573L234.38802083333334,125.5692096816169L234.88671875,119.20981589953107L234.88671875,104.01197115580243L235.38541666666666,111.90965472327339L235.38541666666666,90.23215489917332L235.88411458333334,83.10334862603081L235.88411458333334,68.53502962324355L236.3828125,88.18521838717992L236.3828125,54.15871185726589L236.88151041666666,135.21923814879526L236.88151041666666,98.46511681874591L237.38020833333334,127.31947509447735L237.38020833333334,105.76577075322467L237.87890625,144.2581415043937L237.87890625,114.1315746307373L238.37760416666666,103.90890688366359L238.37760416666666,84.4166742430793L238.87630208333334,38.79098341200086L238.87630208333334,27.00531016455757L239.375,94.51876476075914L239.375,77.92825561099583L239.87369791666666,100.58764574262831L239.87369791666666,86.2518614663018L240.37239583333334,143.70983717176648L240.37239583333334,131.5312540796068L240.87109375000003,119.72970883051556L240.87109375000003,92.27882734934491L241.36979166666666,65.45529545678032L241.36979166666666,57.1664514541626L241.86848958333334,103.78329361809624L241.86848958333334,89.51456689834595L242.36718750000003,103.48998694949681L242.36718750000003,88.16307491726344L242.86588541666666,105.84267875883315L242.86588541666666,84.77185153961182L243.36458333333334,107.32225015428331L243.36458333333334,85.49484337700737L243.86328124999997,61.07506624857584L243.86328124999997,42.340559005737305L244.36197916666666,59.51138644748264L244.36197916666666,43.89261065589058L244.86067708333334,107.68194479412502L245.35937499999997,62.00361135270861L245.35937499999997,53.25452645619711L245.85807291666666,72.83240943484837L245.85807291666666,64.92674742804634L246.35677083333334,36.295146518283424L246.35677083333334,10.905338287353516L246.85546875,69.40409480200874L246.85546875,62.39593177371555L247.35416666666666,80.60614426930746L247.35416666666666,66.43318239847818L247.85286458333334,123.25435887442696L247.85286458333334,110.61270565456813L248.3515625,53.10110653771294L248.3515625,39.50862799750435L248.85026041666666,122.01193621423509L248.85026041666666,113.08655940161812L249.34895833333334,90.8144630855984L249.34895833333334,83.73561636606851L249.84765625,116.75509484608966L249.84765625,92.00813568962944L250.34635416666666,74.58503490024144L250.34635416666666,51.4176747004191L250.84505208333334,124.23285410139296L250.84505208333334,102.69389242596095L251.34375,93.89537609948052L251.34375,74.72709072960747L251.84244791666666,79.87237776650322L251.84244791666666,58.63575744628906L252.34114583333334,96.09428962071735L252.34114583333334,77.45130337609184L252.83984375,121.32311444812352L252.83984375,105.13516754574245L253.33854166666666,81.0900847117106L253.33854166666666,72.58130550384521L253.83723958333334,50.41575813293457L254.3359375,74.197052637736L254.3359375,59.05062686072456L254.83463541666669,123.27525512377423L254.83463541666669,101.32899459203082L255.33333333333334,65.9409900241428L255.33333333333334,54.31657367282444L255.83203125,142.6047584878074L255.83203125,124.75982718997533L256.3307291666667,117.88230874803331L256.3307291666667,102.01884667078656L256.8294270833333,91.09181287553575L256.8294270833333,75.03988138834634L257.328125,117.13851261138916L257.328125,103.33490249845717L257.8268229166667,74.19611899058023L257.8268229166667,56.23523743947348L258.3255208333333,141.9998376501931L258.3255208333333,128.84775646527606L258.82421875,104.30452807744342L258.82421875,95.2273416519165L259.3229166666667,87.66736957761977L259.3229166666667,70.96018282572427L259.8216145833333,114.71069521374172L259.8216145833333,91.51552364561293L260.3203125,79.43293645646837L260.3203125,51.68079344431558L260.8190104166667,77.04744911193848L260.8190104166667,65.19876882765028L261.3177083333333,123.55167126655579L261.3177083333333,109.43694681591457L261.81640625,84.34902726279365L261.81640625,76.41370073954263L262.3151041666667,94.72118229336208L262.3151041666667,85.72214873631796L262.8138020833333,119.06078129344517L262.8138020833333,105.64673545625475L263.3125,105.68098333146837L263.3125,95.93804518381756L263.8111979166667,122.47672745916579L263.8111979166667,119.53899489508736L264.3098958333333,75.39502567715114L264.3098958333333,66.99514367845323L264.80859375,117.14286020067003L265.3072916666667,104.86448531680638L265.3072916666667,94.50034644868639L265.8059895833333,81.48536168204414L265.8059895833333,75.66895209418404L266.3046875,93.63056924608019L266.3046875,70.0836296081543L266.8033854166667,84.14006476932103L266.8033854166667,74.52677154541016L267.3020833333333,97.46534103817409L267.3020833333333,84.07462459140355L267.80078125,101.53887187110054L267.80078125,90.46556668811375L268.29947916666663,122.91445236735875L268.29947916666663,101.31597068574693L268.7981770833333,106.05668200386894L268.7981770833333,95.95835436715019L269.296875,68.59558465745714L269.296875,60.35819498697916" style="fill: none;" fill="none"></path></g></g></g></g></g></g><g transform="translate(30, 178)" clip-path="url(#clip_1)"><clipPath id="clip_1"><rect width="299" height="22"></rect></clipPath><g><g><line x1="0" y1="0" x2="0" y2="5" style="visibility: inherit;" fill="rgb(0, 0, 0)" stroke="rgb(204, 204, 204)" stroke-width="1px"></line><line x1="24.934895833333332" y1="0" x2="24.934895833333332" y2="5" style="visibility: inherit;" fill="rgb(0, 0, 0)" stroke="rgb(204, 204, 204)" stroke-width="1px"></line><line x1="49.869791666666664" y1="0" x2="49.869791666666664" y2="5" style="visibility: inherit;" fill="rgb(0, 0, 0)" stroke="rgb(204, 204, 204)" stroke-width="1px"></line><line x1="74.8046875" y1="0" x2="74.8046875" y2="5" style="visibility: inherit;" fill="rgb(0, 0, 0)" stroke="rgb(204, 204, 204)" stroke-width="1px"></line><line x1="99.73958333333333" y1="0" x2="99.73958333333333" y2="5" style="visibility: inherit;" fill="rgb(0, 0, 0)" stroke="rgb(204, 204, 204)" stroke-width="1px"></line><line x1="124.67447916666667" y1="0" x2="124.67447916666667" y2="5" style="visibility: inherit;" fill="rgb(0, 0, 0)" stroke="rgb(204, 204, 204)" stroke-width="1px"></line><line x1="149.609375" y1="0" x2="149.609375" y2="5" style="visibility: inherit;" fill="rgb(0, 0, 0)" stroke="rgb(204, 204, 204)" stroke-width="1px"></line><line x1="174.54427083333334" y1="0" x2="174.54427083333334" y2="5" style="visibility: inherit;" fill="rgb(0, 0, 0)" stroke="rgb(204, 204, 204)" stroke-width="1px"></line><line x1="199.47916666666666" y1="0" x2="199.47916666666666" y2="5" style="visibility: inherit;" fill="rgb(0, 0, 0)" stroke="rgb(204, 204, 204)" stroke-width="1px"></line><line x1="224.4140625" y1="0" x2="224.4140625" y2="5" style="visibility: inherit;" fill="rgb(0, 0, 0)" stroke="rgb(204, 204, 204)" stroke-width="1px"></line><line x1="249.34895833333334" y1="0" x2="249.34895833333334" y2="5" style="visibility: inherit;" fill="rgb(0, 0, 0)" stroke="rgb(204, 204, 204)" stroke-width="1px"></line><line x1="274.28385416666663" y1="0" x2="274.28385416666663" y2="5" style="visibility: inherit;" fill="rgb(0, 0, 0)" stroke="rgb(204, 204, 204)" stroke-width="1px"></line><line x1="299.21875" y1="0" x2="299.21875" y2="5" style="visibility: inherit;" fill="rgb(0, 0, 0)" stroke="rgb(204, 204, 204)" stroke-width="1px"></line></g><g transform="translate(0, 8)"><text x="0" y="0" dx="0em" dy="0.95em" style="text-anchor: middle; visibility: hidden; font-family: Roboto, sans-serif; font-size: 12px; font-weight: 200;" fill="rgb(50, 49, 63)" stroke="none" stroke-width="1px">-1k</text><text x="24.934895833333332" y="0" dx="0em" dy="0.95em" style="text-anchor: middle; visibility: inherit; font-family: Roboto, sans-serif; font-size: 12px; font-weight: 200;" fill="rgb(50, 49, 63)" stroke="none" stroke-width="1px">0</text><text x="49.869791666666664" y="0" dx="0em" dy="0.95em" style="text-anchor: middle; visibility: inherit; font-family: Roboto, sans-serif; font-size: 12px; font-weight: 200;" fill="rgb(50, 49, 63)" stroke="none" stroke-width="1px">1k</text><text x="74.8046875" y="0" dx="0em" dy="0.95em" style="text-anchor: middle; visibility: inherit; font-family: Roboto, sans-serif; font-size: 12px; font-weight: 200;" fill="rgb(50, 49, 63)" stroke="none" stroke-width="1px">2k</text><text x="99.73958333333333" y="0" dx="0em" dy="0.95em" style="text-anchor: middle; visibility: inherit; font-family: Roboto, sans-serif; font-size: 12px; font-weight: 200;" fill="rgb(50, 49, 63)" stroke="none" stroke-width="1px">3k</text><text x="124.67447916666667" y="0" dx="0em" dy="0.95em" style="text-anchor: middle; visibility: inherit; font-family: Roboto, sans-serif; font-size: 12px; font-weight: 200;" fill="rgb(50, 49, 63)" stroke="none" stroke-width="1px">4k</text><text x="149.609375" y="0" dx="0em" dy="0.95em" style="text-anchor: middle; visibility: inherit; font-family: Roboto, sans-serif; font-size: 12px; font-weight: 200;" fill="rgb(50, 49, 63)" stroke="none" stroke-width="1px">5k</text><text x="174.54427083333334" y="0" dx="0em" dy="0.95em" style="text-anchor: middle; visibility: inherit; font-family: Roboto, sans-serif; font-size: 12px; font-weight: 200;" fill="rgb(50, 49, 63)" stroke="none" stroke-width="1px">6k</text><text x="199.47916666666666" y="0" dx="0em" dy="0.95em" style="text-anchor: middle; visibility: inherit; font-family: Roboto, sans-serif; font-size: 12px; font-weight: 200;" fill="rgb(50, 49, 63)" stroke="none" stroke-width="1px">7k</text><text x="224.4140625" y="0" dx="0em" dy="0.95em" style="text-anchor: middle; visibility: inherit; font-family: Roboto, sans-serif; font-size: 12px; font-weight: 200;" fill="rgb(50, 49, 63)" stroke="none" stroke-width="1px">8k</text><text x="249.34895833333334" y="0" dx="0em" dy="0.95em" style="text-anchor: middle; visibility: inherit; font-family: Roboto, sans-serif; font-size: 12px; font-weight: 200;" fill="rgb(50, 49, 63)" stroke="none" stroke-width="1px">9k</text><text x="274.28385416666663" y="0" dx="0em" dy="0.95em" style="text-anchor: middle; visibility: inherit; font-family: Roboto, sans-serif; font-size: 12px; font-weight: 200;" fill="rgb(50, 49, 63)" stroke="none" stroke-width="1px">10k</text><text x="299.21875" y="0" dx="0em" dy="0.95em" style="text-anchor: middle; visibility: hidden; font-family: Roboto, sans-serif; font-size: 12px; font-weight: 200;" fill="rgb(50, 49, 63)" stroke="none" stroke-width="1px">11k</text></g><line x1="0" y1="0" x2="299.21875" y2="0" fill="rgb(0, 0, 0)" stroke="rgb(204, 204, 204)" stroke-width="1px"></line></g></g></g></g></svg>