<svg viewBox="0 0 330 200" xmlns="http://www.w3.org/2000/svg"><g><g><g><g><g><line x1="51.5625" y1="178" x2="46.5625" y2="178" style="visibility: inherit;" fill="rgb(0, 0, 0)" stroke="rgb(204, 204, 204)" stroke-width="1px"></line><line x1="51.5625" y1="164.30769230769232" x2="46.5625" y2="164.30769230769232" style="visibility: inherit;" fill="rgb(0, 0, 0)" stroke="rgb(204, 204, 204)" stroke-width="1px"></line><line x1="51.5625" y1="150.6153846153846" x2="46.5625" y2="150.6153846153846" style="visibility: inherit;" fill="rgb(0, 0, 0)" stroke="rgb(204, 204, 204)" stroke-width="1px"></line><line x1="51.5625" y1="136.9230769230769" x2="46.5625" y2="136.9230769230769" style="visibility: inherit;" fill="rgb(0, 0, 0)" stroke="rgb(204, 204, 204)" stroke-width="1px"></line><line x1="51.5625" y1="123.23076923076923" x2="46.5625" y2="123.23076923076923" style="visibility: inherit;" fill="rgb(0, 0, 0)" stroke="rgb(204, 204, 204)" stroke-width="1px"></line><line x1="51.5625" y1="109.53846153846155" x2="46.5625" y2="109.53846153846155" style="visibility: inherit;" fill="rgb(0, 0, 0)" stroke="rgb(204, 204, 204)" stroke-width="1px"></line><line x1="51.5625" y1="95.84615384615384" x2="46.5625" y2="95.84615384615384" style="visibility: inherit;" fill="rgb(0, 0, 0)" stroke="rgb(204, 204, 204)" stroke-width="1px"></line><line x1="51.5625" y1="82.15384615384616" x2="46.5625" y2="82.15384615384616" style="visibility: inherit;" fill="rgb(0, 0, 0)" stroke="rgb(204, 204, 204)" stroke-width="1px"></line><line x1="51.5625" y1="68.46153846153845" x2="46.5625" y2="68.46153846153845" style="visibility: inherit;" fill="rgb(0, 0, 0)" stroke="rgb(204, 204, 204)" stroke-width="1px"></line><line x1="51.5625" y1="54.769230769230774" x2="46.5625" y2="54.769230769230774" style="visibility: inherit;" fill="rgb(0, 0, 0)" stroke="rgb(204, 204, 204)" stroke-width="1px"></line><line x1="51.5625" y1="41.076923076923066" x2="46.5625" y2="41.076923076923066" style="visibility: inherit;" fill="rgb(0, 0, 0)" stroke="rgb(204, 204, 204)" stroke-width="1px"></line><line x1="51.5625" y1="27.384615384615387" x2="46.5625" y2="27.384615384615387" style="visibility: inherit;" fill="rgb(0, 0, 0)" stroke="rgb(204, 204, 204)" stroke-width="1px"></line><line x1="51.5625" y1="13.692307692307683" x2="46.5625" y2="13.692307692307683" style="visibility: inherit;" fill="rgb(0, 0, 0)" stroke="rgb(204, 204, 204)" stroke-width="1px"></line><line x1="51.5625" y1="0" x2="46.5625" y2="0" style="visibility: inherit;" fill="rgb(0, 0, 0)" stroke="rgb(204, 204, 204)" stroke-width="1px"></line></g><g transform="translate(41.5625, 0)"><text x="0" y="178" dx="0em" dy="0.3em" style="text-anchor: end; visibility: hidden; font-family: Roboto, sans-serif; font-size: 12px; font-weight: 200;" fill="rgb(50, 49, 63)" stroke="none" stroke-width="1px">-0.5</text><text x="0" y="164.30769230769232" dx="0em" dy="0.3em" style="text-anchor: end; visibility: inherit; font-family: Roboto, sans-serif; font-size: 12px; font-weight: 200;" fill="rgb(50, 49, 63)" stroke="none" stroke-width="1px">0</text><text x="0" y="150.6153846153846" dx="0em" dy="0.3em" style="text-anchor: end; visibility: hidden; font-family: Roboto, sans-serif; font-size: 12px; font-weight: 200;" fill="rgb(50, 49, 63)" stroke="none" stroke-width="1px">0.5</text><text x="0" y="136.9230769230769" dx="0em" dy="0.3em" style="text-anchor: end; visibility: inherit; font-family: Roboto, sans-serif; font-size: 12px; font-weight: 200;" fill="rgb(50, 49, 63)" stroke="none" stroke-width="1px">1</text><text x="0" y="123.23076923076923" dx="0em" dy="0.3em" style="text-anchor: end; visibility: hidden; font-family: Roboto, sans-serif; font-size: 12px; font-weight: 200;" fill="rgb(50, 49, 63)" stroke="none" stroke-width="1px">1.5</text><text x="0" y="109.53846153846155" dx="0em" dy="0.3em" style="text-anchor: end; visibility: inherit; font-family: Roboto, sans-serif; font-size: 12px; font-weight: 200;" fill="rgb(50, 49, 63)" stroke="none" stroke-width="1px">2</text><text x="0" y="95.84615384615384" dx="0em" dy="0.3em" style="text-anchor: end; visibility: hidden; font-family: Roboto, sans-serif; font-size: 12px; font-weight: 200;" fill="rgb(50, 49, 63)" stroke="none" stroke-width="1px">2.5</text><text x="0" y="82.15384615384616" dx="0em" dy="0.3em" style="text-anchor: end; visibility: inherit; font-family: Roboto, sans-serif; font-size: 12px; font-weight: 200;" fill="rgb(50, 49, 63)" stroke="none" stroke-width="1px">3</text><text x="0" y="68.46153846153845" dx="0em" dy="0.3em" style="text-anchor: end; visibility: hidden; font-family: Roboto, sans-serif; font-size: 12px; font-weight: 200;" fill="rgb(50, 49, 63)" stroke="none" stroke-width="1px">3.5</text><text x="0" y="54.769230769230774" dx="0em" dy="0.3em" style="text-anchor: end; visibility: inherit; font-family: Roboto, sans-serif; font-size: 12px; font-weight: 200;" fill="rgb(50, 49, 63)" stroke="none" stroke-width="1px">4</text><text x="0" y="41.076923076923066" dx="0em" dy="0.3em" style="text-anchor: end; visibility: hidden; font-family: Roboto, sans-serif; font-size: 12px; font-weight: 200;" fill="rgb(50, 49, 63)" stroke="none" stroke-width="1px">4.5</text><text x="0" y="27.384615384615387" dx="0em" dy="0.3em" style="text-anchor: end; visibility: inherit; font-family: Roboto, sans-serif; font-size: 12px; font-weight: 200;" fill="rgb(50, 49, 63)" stroke="none" stroke-width="1px">5</text><text x="0" y="13.692307692307683" dx="0em" dy="0.3em" style="text-anchor: end; visibility: hidden; font-family: Roboto, sans-serif; font-size: 12px; font-weight: 200;" fill="rgb(50, 49, 63)" stroke="none" stroke-width="1px">5.5</text><text x="0" y="0" dx="0em" dy="0.3em" style="text-anchor: end; visibility: hidden; font-family: Roboto, sans-serif; font-size: 12px; font-weight: 200;" fill="rgb(50, 49, 63)" stroke="none" stroke-width="1px">6</text></g><line x1="51.5625" y1="0" x2="51.5625" y2="178" fill="rgb(0, 0, 0)" stroke="rgb(204, 204, 204)" stroke-width="1px"></line></g></g><g transform="translate(51, 0)" clip-path="url(#clip_0)"><clipPath id="clip_0"><rect width="278" height="178"></rect></clipPath><g><g><g><line x1="0" y1="0" x2="0" y2="178" fill="rgb(0, 0, 0)" stroke="rgb(60, 60, 60)" stroke-width="1px" opacity="0.25"></line><line x1="23.203125" y1="0" x2="23.203125" y2="178" fill="rgb(0, 0, 0)" stroke="rgb(60, 60, 60)" stroke-width="1px" opacity="0.25"></line><line x1="46.40625" y1="0" x2="46.40625" y2="178" fill="rgb(0, 0, 0)" stroke="rgb(60, 60, 60)" stroke-width="1px" opacity="0.25"></line><line x1="69.609375" y1="0" x2="69.609375" y2="178" fill="rgb(0, 0, 0)" stroke="rgb(60, 60, 60)" stroke-width="1px" opacity="0.25"></line><line x1="92.8125" y1="0" x2="92.8125" y2="178" fill="rgb(0, 0, 0)" stroke="rgb(60, 60, 60)" stroke-width="1px" opacity="0.25"></line><line x1="116.015625" y1="0" x2="116.015625" y2="178" fill="rgb(0, 0, 0)" stroke="rgb(60, 60, 60)" stroke-width="1px" opacity="0.25"></line><line x1="139.21875" y1="0" x2="139.21875" y2="178" fill="rgb(0, 0, 0)" stroke="rgb(60, 60, 60)" stroke-width="1px" opacity="0.25"></line><line x1="162.421875" y1="0" x2="162.421875" y2="178" fill="rgb(0, 0, 0)" stroke="rgb(60, 60, 60)" stroke-width="1px" opacity="0.25"></line><line x1="185.625" y1="0" x2="185.625" y2="178" fill="rgb(0, 0, 0)" stroke="rgb(60, 60, 60)" stroke-width="1px" opacity="0.25"></line><line x1="208.828125" y1="0" x2="208.828125" y2="178" fill="rgb(0, 0, 0)" stroke="rgb(60, 60, 60)" stroke-width="1px" opacity="0.25"></line><line x1="232.03125" y1="0" x2="232.03125" y2="178" fill="rgb(0, 0, 0)" stroke="rgb(60, 60, 60)" stroke-width="1px" opacity="0.25"></line><line x1="255.234375" y1="0" x2="255.234375" y2="178" fill="rgb(0, 0, 0)" stroke="rgb(60, 60, 60)" stroke-width="1px" opacity="0.25"></line><line x1="278.4375" y1="0" x2="278.4375" y2="178" fill="rgb(0, 0, 0)" stroke="rgb(60, 60, 60)" stroke-width="1px" opacity="0.25"></line></g><g><line x1="0" y1="178" x2="278.4375" y2="178" fill="rgb(0, 0, 0)" stroke="rgb(60, 60, 60)" stroke-width="1px" opacity="0.25"></line><line x1="0" y1="164.30769230769232" x2="278.4375" y2="164.30769230769232" fill="rgb(0, 0, 0)" stroke="rgb(60, 60, 60)" stroke-width="1px" opacity="0.25"></line><line x1="0" y1="150.6153846153846" x2="278.4375" y2="150.6153846153846" fill="rgb(0, 0, 0)" stroke="rgb(60, 60, 60)" stroke-width="1px" opacity="0.25"></line><line x1="0" y1="136.9230769230769" x2="278.4375" y2="136.9230769230769" fill="rgb(0, 0, 0)" stroke="rgb(60, 60, 60)" stroke-width="1px" opacity="0.25"></line><line x1="0" y1="123.23076923076923" x2="278.4375" y2="123.23076923076923" fill="rgb(0, 0, 0)" stroke="rgb(60, 60, 60)" stroke-width="1px" opacity="0.25"></line><line x1="0" y1="109.53846153846155" x2="278.4375" y2="109.53846153846155" fill="rgb(0, 0, 0)" stroke="rgb(60, 60, 60)" stroke-width="1px" opacity="0.25"></line><line x1="0" y1="95.84615384615384" x2="278.4375" y2="95.84615384615384" fill="rgb(0, 0, 0)" stroke="rgb(60, 60, 60)" stroke-width="1px" opacity="0.25"></line><line x1="0" y1="82.15384615384616" x2="278.4375" y2="82.15384615384616" fill="rgb(0, 0, 0)" stroke="rgb(60, 60, 60)" stroke-width="1px" opacity="0.25"></line><line x1="0" y1="68.46153846153845" x2="278.4375" y2="68.46153846153845" fill="rgb(0, 0, 0)" stroke="rgb(60, 60, 60)" stroke-width="1px" opacity="0.25"></line><line x1="0" y1="54.769230769230774" x2="278.4375" y2="54.769230769230774" fill="rgb(0, 0, 0)" stroke="rgb(60, 60, 60)" stroke-width="1px" opacity="0.25"></line><line x1="0" y1="41.076923076923066" x2="278.4375" y2="41.076923076923066" fill="rgb(0, 0, 0)" stroke="rgb(60, 60, 60)" stroke-width="1px" opacity="0.25"></line><line x1="0" y1="27.384615384615387" x2="278.4375" y2="27.384615384615387" fill="rgb(0, 0, 0)" stroke="rgb(60, 60, 60)" stroke-width="1px" opacity="0.25"></line><line x1="0" y1="13.692307692307683" x2="278.4375" y2="13.692307692307683" fill="rgb(0, 0, 0)" stroke="rgb(60, 60, 60)" stroke-width="1px" opacity="0.25"></line><line x1="0" y1="0" x2="278.4375" y2="0" fill="rgb(0, 0, 0)" stroke="rgb(60, 60, 60)" stroke-width="1px" opacity="0.25"></line></g></g></g><g><g><line x1="0" y1="164.30769230769232" x2="278.4375" y2="164.30769230769232" fill="rgb(0, 0, 0)" stroke="rgb(153, 153, 153)" stroke-width="1.5px"></line></g></g><g><g><line x1="23.203125" y1="0" x2="23.203125" y2="178" fill="rgb(0, 0, 0)" stroke="rgb(153, 153, 153)" stroke-width="1.5px"></line></g></g><g><g><g><g><g><path stroke="rgb(255, 112, 67)" stroke-width="2px" d="M27.866953125,164.06579983091126L27.936562499999997,164.21594050673818L28.006171875,164.26248139749725L28.07578125,164.28299041082334L28.145390625,164.29341519580214L28.215,164.29898552995084L28.284609375,164.30207613017026L28.35421875,164.30387109621182L28.423828125,164.30481976282184L28.4934375,164.30543794941138L28.563046875,164.30588290642206L28.63265625,164.30589267601567L28.702265625,164.30567391113857L28.771875,164.30580547802822L28.841484375,164.30528902224376L28.91109375,164.30455236245115L28.980703125,164.303821716328L29.0503125,164.30189908728005L29.119921875,164.29643737160433L29.18953125,164.28728947297432L29.259140625,164.27682987798582L29.32875,164.27146749966246L29.398359375000002,164.2601540453703L29.46796875,164.25378886386278L29.537578125,164.24647210192194L29.607187500000002,164.23310345482125L29.676796875,164.22031516693755L29.74640625,164.21834670145532L29.816015625000002,164.20289349929251L29.885625,164.18894279130754L29.955234375,164.1134280562737L30.024843750000002,163.99890857071398L30.094453125,163.89003532453697L30.1640625,163.791157557202L28.07578125,163.90148121054762L28.3078125,164.063356043137L28.53984375,164.16093327415973L28.771875,164.21949070413723L29.00390625,164.25461030239012L29.2359375,164.27565398401674L29.46796875,164.28821503709838L29.932031249999998,164.29566216529818L30.1640625,164.30000405057365L30.39609375,164.30243992399994L30.628125,164.3037393904697L30.860156250000003,164.3041675925923L31.092187499999998,164.30435268162373L31.32421875,164.303959057684L31.55625,164.30360641891588L31.78828125,164.30039137448853L32.0203125,164.29817355557674L32.25234375,164.29443813079405L32.484375,164.289607993097L32.71640625,164.28773960918713L32.9484375,164.28371084612462L33.18046875,164.27328172863176L33.4125,164.2632710542087L33.64453125,164.25225294751252L33.8765625,164.24313859668615L34.10859375,164.22995388518348L34.340625,164.2137426983909L34.57265625,164.18996510669933L34.8046875,164.11370029481535L35.03671875,164.02902352162033L35.268750000000004,163.925702304575L35.50078125,163.79380080526292L35.7328125,163.6403779096456L35.96484375000001,163.39342435594554L36.196875,163.10945320411372L36.42890625,162.88103597700137L36.660937499999996,162.06701620606918L36.89296875,161.24405636899672L37.125,161.18665800675475L37.35703125,160.40294592765727L37.589062500000004,159.95172917267033L37.82109375,159.6549402440807L38.053124999999994,159.4603667953742L38.28515625,158.06415853999542L38.5171875,157.84478891415426L38.74921875,157.21941551190127L38.98125,157.19877727585555L39.21328125,156.3479018196912L39.4453125,156.2516690869096L39.67734375,156.17675523632545L39.909375000000004,155.56979083866298L40.14140625,154.9688810669713L40.373437499999994,155.38376703502274L40.60546875,155.11347033718L40.8375,152.88566719376306L41.06953125,153.67985082290832L41.3015625,154.7113104233785L41.53359375,154.5317647604088L41.765625,155.00116939326077L41.997656250000006,154.86501943457097L42.229687500000004,155.01018808990423L42.461718749999996,154.03886279657536L42.693749999999994,153.77271078895407L42.92578125,153.05543734170905L43.1578125,151.1914159536329L43.38984375,149.2510306112563L43.621875,149.58683610028368L43.85390625,148.78773691877146L44.0859375,148.12973208157717L44.317968750000006,147.5798327583856L44.550000000000004,144.7253922149045L44.782031249999996,143.9282622897558L45.014062499999994,144.4659001686533L45.24609375,143.38612136363375L45.478125,144.7275375542971L45.71015625,143.07801170822805L45.9421875,142.24134186221946L46.17421875,139.97437271846223L46.40625,138.72251127767908L46.638281250000006,136.22977423205216L46.8703125,134.34999953139064L47.102343749999996,131.7437090101458L47.334375,129.3781825042414L47.56640625,130.27882830994136L47.7984375,128.50785016695284L48.03046875,128.23988449932753L48.2625,129.67151148901584L48.49453125,126.37711717771597L48.7265625,121.51754923377237L48.958593750000006,119.40077016549819L49.190625,120.15291195070178L49.422656249999996,118.05497466253343L49.6546875,107.92966166801286L49.88671875,101.89706646280627L50.11875,104.81263985514772L50.350781250000004,104.84865648271565L50.5828125,103.8662183905496L50.81484375,94.58551642767786L51.04687499999999,88.8525356949011L51.27890625,90.49006934949213L51.5109375,97.24800549096781L51.742968749999996,96.42305182856319L51.975,92.22877895316067L52.20703125,88.7350118000909L52.4390625,91.29915509735096L52.671093750000004,88.77315769722331L52.903125,87.21471595199908L53.13515625,89.70523235275932L53.36718750000001,86.5267282788431L53.59921875,89.6219349294359L53.83125,88.61402094301309L54.063281249999996,88.29139068822562L54.2953125,88.637901951857L54.52734375,81.55905697757642L54.759375,75.11294956857898L54.991406250000004,71.72220253674534L55.2234375,63.28352505081825L55.455468749999994,60.12666674370083L55.6875,68.3235251293222L55.91953125,73.31181647600265L56.1515625,81.86598809539352L56.38359375,79.58056125628396L56.615625,78.2835686228077L56.84765625,76.13081199700193L57.0796875,78.91166423654063L57.311718750000004,75.30481321336742L57.54375,78.60450499579764L57.775781249999994,73.29315472806002L58.0078125,63.196196064187255L58.23984375,65.64699899062889L58.471875,73.21405042399346L58.70390625,77.23815330150583L58.9359375,74.26650252144022L59.16796875,64.40986160526198L59.400000000000006,44.20517857861692L59.632031250000004,45.649173384399724L59.864062499999996,49.79489425656381L60.096093749999994,50.21562110547073L60.328125,49.7697100351086L60.56015625,49.154601160507006L60.7921875,50.015218347295786L61.02421875,52.071511021476574L61.25625,41.880618533990976L61.48828125,40.529245272944934L61.720312500000006,46.937140857426805L61.952343750000004,40.213666197805686L62.184374999999996,39.089343036272815L62.416406249999994,38.1833247783442L62.6484375,46.412212878715884L62.88046875,55.044231718928756L63.1125,69.3984837229419L63.34453125,71.46171036151642L63.5765625,68.08839046415858L63.80859375,60.184038025114745L64.040625,60.29019705541589L64.27265625,53.21048104265084L64.5046875,46.32220848408286L64.73671875000001,44.646468459684236L64.96875,41.75574665292143L65.20078125,57.579145083662404L65.4328125,62.066320416004615L65.66484375,60.078770826262925L65.896875,73.47037636271052L66.12890625,72.87999647920044L66.3609375,73.90482415916428L66.59296875,79.21268056727591L66.825,78.27043893963688L67.05703125000001,75.50618385140608L67.2890625,66.11587802136798L67.52109374999999,75.45720164333085L67.753125,78.42399993520786L67.98515625,79.74200061044488L68.2171875,80.37910310674545L68.44921875,85.0511951498045L68.68125,81.87482816565078L68.91328125,81.42633063868584L69.1453125,89.72337556920911L69.37734375000001,84.70252354216211L69.609375,79.2128283530617L69.84140625,72.40274980137842L70.0734375,66.53856839771969L70.30546875,64.44299266451449L70.53750000000001,68.00195291330266L70.76953125,68.95279328775774L71.0015625,61.54047069264413L71.23359375000001,58.64254489727595L71.465625,58.114005061957045L71.69765625000001,49.47168919346179L71.92968750000001,53.20775919314475L72.16171874999999,57.73647110050974L72.39375,58.546415107533896L72.62578124999999,67.18902601013333L72.8578125,70.93742622032842L73.08984375,71.77883982760908L73.32187499999999,67.79504675193091L73.55390625,62.52443417439323L73.7859375,66.33599824854181L74.01796875,65.3944997388261L74.25,65.20241704159419L74.48203125,62.48550673881619L74.7140625,66.44399484270942L74.94609375,57.88520201332921L75.17812500000001,61.02649028289235L75.41015625,56.94687449998256L75.6421875,42.099711919227815L75.87421875000001,42.053076076378915L76.10624999999999,46.39134576789767L76.33828125,51.59906301376407L76.5703125,54.84222868185933L76.80234374999999,52.19105580418018L77.034375,63.61682458592984L77.26640625,66.07165293801562L77.4984375,50.67641860513208L77.73046875,60.83819119815098L77.9625,60.55757762876512L78.19453125,66.66137795472865L78.4265625,59.527257551927455L78.65859375,50.67344464486967L78.890625,60.61266840106694L79.12265625,67.73463026004748L79.3546875,64.06650239097628L79.58671875,66.53138042792824L79.81875000000001,74.31707158866612L80.05078125,77.54551436597575L80.2828125,69.47905610305901L80.51484375000001,72.37370221887042L80.74687499999999,73.91204481765038L80.97890625,63.80476790152023L81.2109375,71.86037468509781L81.44296874999999,63.33615466757913L81.675,67.86583998682677L82.1390625,72.91613420590693L82.37109375,74.79567875939338L82.603125,69.16065310524542L82.83515625,62.74125998025963L83.0671875,43.36750901409103L83.29921875000001,42.60247063484811L83.53125,46.80843977836981L83.76328125,50.12788560445802L83.99531250000001,57.51572287996184L84.22734375,58.64824501549023L84.45937500000001,53.028873156755076L84.69140624999999,55.911228712074376L84.92343749999999,56.64534022641831L85.15546875,53.57770694816318L85.38749999999999,62.77969181345734L85.61953125,68.45341586768114L85.8515625,65.7433165165522L86.08359374999999,57.51748144482465L86.315625,55.45424990017302L86.54765625,49.986594246932235L86.7796875,43.67621006472334L87.01171875,16.19194113141963L87.24375,27.62107552292103L87.47578125,40.09704887116322L87.7078125,36.44615228459322L87.93984375000001,33.28436013061544L88.171875,37.54584085206971L88.40390625,31.98807409836247L88.63593750000001,29.475342158461608L88.86796875,30.91629912723966L89.10000000000001,31.347504332206938L89.33203125000001,37.75039877382838L89.56406249999999,39.84530903217563L89.79609375,23.430907847847298L90.02812499999999,35.23327568451966L90.26015625,27.74512599186041L90.4921875,34.719836367821316L90.72421874999999,25.654613765272895L90.95625,2.5048335010507277L91.18828125,1.1038475540559105L91.4203125,3.8704246236482227L91.65234375,15.67856440084158L91.884375,11.564398948403845L92.11640625,18.212688629108396L92.3484375,28.289303053141126L92.58046875000001,19.330770599537917L92.8125,25.766697669030133L93.04453125,20.296723501132632L93.27656250000001,15.884788286282795L93.50859374999999,3.299651787405945L93.740625,24.710074838970023L93.97265625,37.19413625188337L94.20468749999999,37.99427434427908L94.43671875,40.61934298556759L94.66875,48.17286511093942L94.90078125,52.32463273350889L95.1328125,58.02539463972973L95.36484375,64.35844700417476L95.596875,44.32974615989295L95.82890625,39.37118542693035L96.0609375,43.49023697308654L96.29296875,37.62096825008914L96.525,39.153109796207325L96.75703125,32.93243060550761L96.9890625,34.87418990251733L97.22109375000001,41.714331575506016L97.453125,42.523861736863864L97.68515625,34.96522893082775L97.91718750000001,34.217235503027894L98.14921874999999,35.976448373913335L98.38125,35.7115927017631L98.61328125,45.6893478411882L98.84531249999999,49.073350443839274L99.07734375,41.474655842193734L99.309375,45.13995385171424L99.54140625,39.76060770109016L99.7734375,18.510021565515864L100.00546875,22.085599027049895L100.2375,35.493686534149866L100.46953125,45.61293587608451L100.70156250000001,50.65483850506775L100.93359375,43.608703403051926L101.165625,39.909181967556066L101.39765625000001,46.989647252620856L101.6296875,55.823538999484164L101.86171875000001,57.04858647811598L102.09374999999999,52.161988331430905L102.32578124999999,63.29566802961088L102.5578125,58.38287443884148L102.78984374999999,31.219295163605373L103.021875,32.52422247921041L103.25390625,25.085322707309157L103.48593749999999,6.449851027010938L103.71796875,17.718679290616866L103.95,24.53501311636233L104.18203125,25.185774386869685L104.4140625,30.58639332662678L104.64609375,25.794646524071L104.878125,15.092031268653106L105.11015625,19.06966179191603L105.34218750000001,7.220714299740212L105.57421875,19.73984740308629L105.80625,14.585885194499753L106.03828125000001,28.31413681315794L106.2703125,26.199414012568003L106.50234375000001,24.943021996689698L106.73437500000001,28.809943670050313L106.96640624999999,44.54544936336958L107.1984375,54.864642265820734L107.43046874999999,55.69910739036682L107.6625,59.801972169252394L107.89453125,67.53202297510725L108.12656249999999,74.93886179414451L108.35859375,79.08753039787905L108.590625,71.88366163261078L108.82265625,70.34147260846333L109.0546875,59.34500003658866L109.28671875,61.89125673699414L109.51875,61.994884146848314L109.75078125,64.29376578591358L109.98281250000001,69.79996667064482L110.21484375,69.64461197800102L110.446875,68.8114074021608L110.67890625000001,74.10115210895538L110.91093749999999,73.3345874680475L111.14296875,77.3438622279082L111.375,73.68529348373637L111.8390625,80.3722967250544L112.07109375,83.36422472763142L112.303125,89.07468506757345L112.53515625,87.66611583133432L112.7671875,78.96333975989022L112.99921875,79.82402101855057L113.23125,78.82713528968165L113.46328125,79.06454623775505L113.6953125,81.86305835131436L113.92734375,84.26900013670885L114.159375,82.71616111765107L114.39140625,75.0117316179126L114.62343750000001,69.63203885337226L114.85546875,67.83042080418268L115.0875,67.50770987997053L115.31953125000001,67.80047040218793L115.55156249999999,77.39200137278247L115.78359375,79.21122242894103L116.015625,77.56077308678732L116.24765624999999,63.12568410447625L116.4796875,73.61328207288706L116.71171875,86.08910783109702L117.17578125,71.22113167676068L117.4078125,68.06322102758773L117.63984375,82.18036405177088L117.871875,82.03729129530156L118.10390625000001,82.65632904541637L118.3359375,83.70768709211985L118.56796875,85.22484776881234L118.80000000000001,88.8006611015199L119.03203125,86.54086753540489L119.26406250000001,93.78312694777539L119.49609374999999,88.60532861523599L119.72812499999999,88.460402991426L119.96015625,88.03792747436471L120.42421875,80.89151977737158L120.65625,83.84327966896953L120.88828124999999,60.076388110595204L121.1203125,70.0055989315145L121.35234375,76.67647624827542L121.584375,72.38981419463458L121.81640625,81.6904058683714L122.0484375,83.2798253855999L122.28046875,83.55942302348359L122.5125,83.38732881831567L122.74453125000001,91.03530238836393L122.9765625,90.33855459139991L123.20859375,97.87355787644074L123.44062500000001,88.61926855131328L123.67265625,88.81098062776438L123.90468750000001,94.21578105173562L124.13671875000001,93.79252011889068L124.36874999999999,86.7663180053601L124.60078125,89.65310528216362L124.83281249999999,93.15206636941835L125.06484375,89.55596555078638L125.296875,95.79542050291023L125.52890624999999,102.36935929696192L125.7609375,108.2469140929101L125.99296875,105.16694924990735L126.225,92.92928472797925L126.45703125,96.52891315833016L126.6890625,94.4099511383124L126.92109375,89.80387878516969L127.153125,91.90008427605974L127.38515625000001,92.7403066785415L127.6171875,97.155839315775L127.84921875,90.80119108476997L128.08125,88.53873173601072L128.31328125,92.81476031940089L128.5453125,94.65972983360832L128.77734375,97.74647181481907L129.009375,98.12168568476358L129.24140625,98.28617264461342L129.47343750000002,104.03022698494733L129.70546875,102.88390036873095L129.9375,99.4073617173511L130.16953125,100.4683648195295L130.4015625,98.4218789064131L130.63359375,97.60909863619685L130.865625,91.14444598051807L131.09765625,97.11671830617819L131.3296875,95.92111667589253L131.56171874999998,99.66275004962168L131.79375,98.3225354421359L132.02578125,95.42355056215655L132.2578125,92.27051859952914L132.48984375,90.27359556241805L132.721875,87.23576249163503L132.95390625,75.40842356647667L133.1859375,63.34985402673621L133.41796875,64.02949126172606L133.65,78.59238039663714L133.88203125,83.69616327732646L134.11406250000002,87.39465543428201L134.34609375,93.25032337555004L134.578125,99.62545321933732L134.81015625,103.25070974147316L135.04218749999998,104.75348361818057L135.27421875,103.77213179805864L135.50625,108.17026706136504L135.73828125,105.25502231614595L135.9703125,100.59769907623918L136.20234375,105.424942388624L136.66640625,102.79144382790284L136.8984375,100.23817618631502L137.13046875,101.09569680840296L137.3625,95.9428534241625L137.59453125,97.67180662025584L137.8265625,96.55747571574011L138.05859375,95.04098452917552L138.290625,94.22232869005826L138.52265625,90.84741904349333L138.75468750000002,94.79732407154746L138.98671875,93.7667282770631L139.21875,99.52335275392004L139.45078125,104.98760818121225L139.6828125,109.22393325237405L139.91484375,110.03738940792984L140.146875,114.1796509932968L140.37890625,115.92341657899621L140.6109375,114.51956250185987L140.84296875,115.35516416150692L141.07500000000002,114.70794067407512L141.30703125,115.4134401675019L141.5390625,113.83362535397545L141.77109375,116.93551914549074L142.003125,114.25413164016403L142.23515625000002,111.49418140132535L142.69921875,108.94168277925299L142.93125,111.45664432988654L143.16328125,114.66685826388651L143.39531250000002,118.23439577932517L143.62734375000002,116.25987301986936L143.85937500000003,107.53502232266382L144.09140624999998,101.51664744323396L144.32343749999998,105.88117341654885L144.55546875,106.17104132081272L144.7875,100.90756033584137L145.01953125,102.12739940763464L145.25156249999998,104.75554936466416L145.48359374999998,110.2991966290618L145.715625,114.35995506544975L145.94765625,111.66941539273851L146.1796875,111.88197921869413L146.41171875,110.26591643417997L146.64374999999998,110.25514353304027L146.87578125,114.22928509384666L147.1078125,115.65035846440313L147.33984375,120.65402385725797L147.571875,121.70258796524308L147.80390625,120.66009191735293L148.0359375,124.64953644313636L148.26796875,126.94879510865618L148.5,125.16278241105178L148.73203125,125.13094694355583L148.9640625,121.72368583780663L149.19609375000002,118.66889182518435L149.428125,118.48046186395639L149.66015625,111.4554742724923L149.8921875,105.31908287986407L150.12421875,111.62114318471494L150.35625000000002,118.56583056238865L150.58828125000002,121.03382824477714L150.8203125,120.11130547066061L151.05234375,111.46073097174619L151.284375,114.62649305985904L151.51640625000002,109.79024235479878L151.74843750000002,109.91135022867047L151.98046874999997,107.80775916932555L152.21249999999998,109.92311033499283L152.44453124999998,110.44654196757378L152.6765625,112.33206360769177L152.90859375,119.20173523610131L153.140625,120.81516911947216L153.37265624999998,125.25754727892019L153.60468749999998,124.88352568591337L153.83671875,127.53725702367431L154.06875,123.8349395020323L154.30078125,124.34314283822923L154.5328125,123.72095843747685L154.76484374999998,127.48967350984564L154.996875,128.98463417522925L155.22890625,123.88927901094998L155.4609375,118.66742783325269L155.69296875,120.82765513932961L155.925,118.62612859725554L156.15703125,112.21785550307989L156.3890625,115.33322596957724L156.62109375,112.49930712504376L156.853125,113.35870292736999L157.08515625,113.14745496529838L157.3171875,118.84853565172074L157.54921875,121.69229327953059L157.78125,123.55816104004502L158.01328125,121.47195652533786L158.2453125,120.35749431221294L158.47734375000002,123.36818331617204L158.709375,122.77282140245582L158.94140625,123.93683278041486L159.1734375,121.12037537520034L159.40546875,122.13578731019852L159.63750000000002,123.3534812233055L159.86953125000002,125.90447056346517L160.1015625,130.34733554981943L160.33359375,133.47750613341717L160.565625,136.3657448457983L160.79765625000002,137.45021136254067L161.02968750000002,135.3411301738711L161.26171875000003,136.02037120400482L161.49374999999998,134.4416128374072L161.72578124999998,135.97145299590605L161.9578125,137.74897516791668L162.18984375,137.02066672459034L162.421875,135.73468169615464L162.65390624999998,135.95031220619282L162.88593749999998,131.10219162141232L163.11796875,129.43134062228492L163.35,123.06604041392647L163.58203125,128.8409290142039L163.8140625,126.87642778686987L164.04609374999998,127.93804278122461L164.278125,130.78955754129336L164.51015625,130.19485673828638L164.7421875,131.47749454599543L164.97421875,127.343015238269L165.20625,129.55456534624602L165.43828125,116.31493619167189L165.6703125,97.26694703839557L165.90234375,97.61836492173963L166.134375,105.0996657742859L166.36640625,104.11343751200994L166.59843750000002,102.93102966090188L166.83046875,105.86321757317593L167.0625,107.3584687888866L167.29453125,116.2315504071492L167.5265625,124.40135830790223L167.75859375000002,127.4820225917172L167.99062500000002,129.81943420298893L168.22265625,125.0468655441651L168.4546875,121.17608751603198L168.68671875,106.94387263643146L168.91875000000002,103.64067722542296L169.15078125000002,111.02250056238438L169.38281249999997,108.13718467768753L169.61484374999998,111.8504925927829L169.84687499999998,114.57083453718079L170.07890625,122.66811142599687L170.3109375,126.02646045183648L170.54296875,125.55123180969021L170.77499999999998,127.52676125155274L171.00703124999998,129.3040177424243L171.2390625,131.7853367530079L171.47109375,128.03650864195836L171.703125,127.57280216722128L171.93515625,130.91307865445876L172.16718749999998,133.14729912338154L172.39921875,134.07681903396548L172.63125,135.88242287590344L172.86328125,132.55513938803173L173.0953125,134.27329952120922L173.32734375,136.53217600208148L173.559375,137.19251322905885L173.79140625,137.45361029280548L174.0234375,130.0145827482541L174.25546875,129.81988458887977L174.4875,131.57888035120007L174.71953125,132.5056290653296L174.9515625,131.12185853238435L175.18359375,131.09091700576906L175.415625,131.16899175232243L175.64765625,132.04334962010964L175.87968750000002,131.69030728676117L176.11171875,129.15990824314107L176.34375,127.58279159094643L176.57578125,124.73627672540901L176.8078125,126.4678560263014L177.03984375000002,124.99760141262297L177.27187500000002,126.33380473290751L177.50390625,126.1030265754247L177.7359375,130.0660938348L177.96796875,131.03492613495825L178.20000000000002,129.285932314487L178.43203125000002,128.94075277388978L178.66406250000003,129.90807915386398L178.89609374999998,130.61086763626744L179.12812499999998,132.32201713503477L179.36015625,133.94589758852538L179.5921875,135.59069616437526L179.82421875,135.441655130078L180.05624999999998,134.30205113069667L180.28828124999998,137.92560394126355L180.5203125,138.0756068751153L180.75234375,140.63451187621712L180.984375,142.54860680036595L181.21640625,139.52758881565563L181.44843749999998,137.85436958648435L181.68046875,135.18364544350814L181.9125,136.14767379728914L182.14453125,132.12828467129904L182.3765625,132.6607057552659L182.60859375,129.92350730490045L182.840625,130.95971093154304L183.07265625,128.78595119095425L183.3046875,131.77009473484094L183.53671875,129.24323710530416L183.76875,130.4183075691564L184.00078125000002,129.24273898532275L184.2328125,129.89927694902678L184.46484375,132.75357805131776L184.696875,133.6876771852171L184.92890625,129.36582016423273L185.16093750000002,126.46092395102704L185.39296875000002,126.20584241312486L185.625,124.8412746598641L185.85703125,121.86236307132316L186.0890625,121.78872612549935L186.32109375000002,125.59086207089193L186.55312500000002,127.84683070090449L186.78515624999997,127.80008739489384L187.01718749999998,127.28596119759398L187.24921874999998,126.19998721930288L187.48125,125.74324781183452L187.71328125,126.13953148598517L187.9453125,129.61550211290927L188.17734374999998,130.3154398110946L188.40937499999998,129.9350840054875L188.64140625,132.2165023246088L188.8734375,131.9968760786736L189.10546875,131.05231282031394L189.3375,131.44436389845433L189.56953124999998,131.6381823972297L189.8015625,132.53201876521396L190.03359375,131.5607925157014L190.265625,129.82220811616193L190.49765625,120.5718641458202L190.7296875,119.0401404120245L190.96171875,120.88600494141919L191.19375,123.45533566373221L191.42578125,119.72501381959788L191.6578125,116.03959057947375L191.88984375,119.12753769107272L192.121875,126.43095829327241L192.35390625,129.09474797483196L192.5859375,131.62722129302153L192.81796875,130.30545506972538L193.05,132.53135973640593L193.28203125000002,127.52748535760001L193.5140625,122.9427632987228L193.74609375,125.80249787521568L193.978125,128.04375345476714L194.21015625,129.3103337666563L194.44218750000002,131.36033944421197L194.67421875000002,132.38260570568826L194.90625,130.12019772540552L195.13828125,128.86758519032517L195.3703125,131.21729579826777L195.60234375000002,130.98693654279873L195.83437500000002,132.33614104226578L196.06640625000003,133.2040800204917L196.29843749999998,134.01772003248826L196.53046874999998,134.6153588255467L196.7625,134.31003801402167L196.99453125,133.39541720468142L197.2265625,133.5453327126404L197.45859374999998,135.07359484137163L197.69062499999998,134.62711257334573L197.92265625,134.1481366899143L198.1546875,127.35316911158607L198.38671875,126.96000245196517L198.61875,120.85668374152257L198.85078124999998,126.01428264364215L199.0828125,129.45416346412435L199.31484375,133.57320408357106L199.546875,135.9812951859731L199.77890625,133.5824707567677L200.0109375,135.1450704265549L200.24296875,134.8839767945541L200.70703125,134.82792468733754L200.9390625,134.1780366797966L201.17109375,136.70474511795956L201.40312500000002,136.98214424361558L201.63515625,137.0411783865906L201.8671875,135.40652479095468L202.09921875,135.9369939866991L202.33125,125.53424569434067L202.56328125000002,127.31743635492133L202.79531250000002,123.97261910935362L203.02734375,125.73364793562043L203.259375,130.0524257820115L203.49140625,131.13322636905292L203.72343750000002,133.65664126987582L203.95546875000002,132.05725116394999L204.18749999999997,127.21314089354165L204.41953124999998,125.918387377781L204.65156249999998,126.00208633949163L204.88359375,125.87792654382605L205.115625,129.18716382893987L205.34765625,133.5189510560356L205.57968749999998,136.01374088109543L205.81171874999998,133.60797749984866L206.04375,136.09410715807948L206.27578125,139.93061954481013L206.5078125,137.58460292042855L206.73984375,139.7932982677131L206.97187499999998,140.28423579949975L207.20390625,140.77004973587847L207.4359375,141.92544311673228L207.66796875,143.33147565726142L207.9,142.92470267857408L208.3640625,142.12072285725012L208.59609375,138.83695670699768L208.828125,141.92282532066747L209.06015625,140.11651476132795L209.2921875,138.7559823507543L209.52421875,140.44028337959224L209.75625,139.49909746927898L209.98828125,133.70598404942908L210.2203125,133.45382987233606L210.45234375,134.37935768092774L210.68437500000002,135.34034731976175L210.91640625,136.1742699287927L211.1484375,139.86421223903503L211.38046875,141.0270417477179L211.6125,141.83085269603063L211.84453125000002,142.50748608174146L212.07656250000002,139.9073997541615L212.30859375,138.79374490268657L212.540625,130.73634195104893L212.77265625,123.86604925902235L213.00468750000002,127.36200221494991L213.23671875000002,127.50760114445598L213.46875000000003,133.80492130027645L213.70078124999998,132.04551195198923L213.93281249999998,133.01143180967762L214.16484375,131.08603974458717L214.396875,131.87961992465665L214.62890625,135.2888088203218L214.86093749999998,135.4775885054593L215.09296874999998,132.83650449522926L215.325,134.68611649683427L215.55703125,135.97453349010166L215.7890625,138.18654679852642L216.02109375,139.1422050011951L216.25312499999998,139.19063101991495L216.48515625,138.8567407663961L216.7171875,138.3175906317596L216.94921875,139.4919395836644L217.18125,136.2702035697693L217.41328125,133.8690129963303L217.6453125,134.4314040212479L217.87734375,137.99101493125883L218.109375,138.93888000238604L218.34140625,141.0780967192708L218.5734375,139.11633974918567L218.80546875000002,139.10971869959968L219.0375,139.18927484528328L219.5015625,136.1371791890444L219.73359375,137.45261826746903L219.96562500000002,137.45608640002845L220.19765625000002,135.251640435246L220.4296875,136.33615940857098L220.89375,137.15599020198042L221.12578125000002,130.61406130716236L221.35781250000002,132.23976014972897L221.58984374999997,131.97370556775203L221.82187499999998,134.30811663095088L222.05390624999998,136.3875665367159L222.2859375,136.9465887844868L222.51796875,140.339259125196L222.75,140.83469870027395L222.98203124999998,143.4098702056474L223.21406249999998,141.5794684464311L223.44609375,141.50461631953476L223.678125,139.7565047691496L223.91015625,140.48897850400215L224.1421875,141.31373648758947L224.37421874999998,140.27799755239067L224.60625,141.78689216317878L224.83828125,138.69837824365172L225.0703125,136.81177742214788L225.30234375,136.36278569978626L225.534375,137.63345862520103L225.76640625,139.31718474085548L225.9984375,141.2310433016009L226.23046875,142.38878762142122L226.4625,143.8316760193437L226.69453125,144.71465541447438L226.9265625,145.95363620786856L227.15859375,141.23079284626562L227.390625,140.26648478497822L227.62265625,139.14607838771292L227.8546875,140.1957090725166L228.08671875000002,141.47040197109078L228.31875,142.45810931972065L228.55078125,144.78611740821518L228.7828125,144.53535429954573L229.01484375,145.5552198795908L229.24687500000002,143.85913211936966L229.47890625000002,143.03067620390095L229.7109375,143.59436880868887L229.94296875,144.92641977676467L230.175,144.1128010120361L230.40703125000002,144.32485793811907L230.63906250000002,145.44020548241724L230.87109375000003,145.4080674061895L231.10312499999998,142.19893269688515L231.33515624999998,139.87590295367892L231.5671875,142.02797907032183L231.79921875,145.88153154423097L232.03125,146.72957795217098L232.49531249999998,146.53070255866785L232.72734375,146.20647049948107L232.959375,147.07177421728414L233.19140625,146.00251381426375L233.4234375,146.55723902022893L233.65546874999998,146.8411569089471L233.8875,146.7378321564203L234.11953125,147.32642157714216L234.3515625,147.34012462814425L234.58359375,145.84111349929162L234.815625,143.66858425458312L235.04765625,145.75571669402515L235.2796875,139.21538460273757L235.51171875,135.68078390096233L235.74375,125.30393968332268L235.97578125,125.45424887492561L236.20781250000002,129.03703081076233L236.43984375,126.20174365641685L236.671875,129.9725493753076L236.90390625,129.63602289664547L237.1359375,129.9025811188044L237.36796875000002,133.2613603088676L237.60000000000002,138.05785693010205L237.83203125,140.74235152677696L238.0640625,140.6727745978594L238.29609375,143.3717796996524L238.52812500000002,144.45019821817493L238.76015625000002,143.42249264828635L238.99218749999997,142.47297121041535L239.22421874999998,140.65628377675813L239.45624999999998,142.2950418587086L239.68828125,143.81114807377526L239.9203125,147.16887708372954L240.15234375,148.05165796017283L240.38437499999998,148.4598661729754L240.8484375,144.44077687858524L241.08046875,143.65817065889414L241.3125,144.93145129594072L241.54453125,146.5655128844276L241.77656249999998,148.1461014937439L242.00859375,148.23950481820114L242.240625,148.91514379304377L242.47265625,148.51275655158778L242.7046875,150.0664779529523L242.93671875,149.69619629572065L243.16875,150.44837592348367L243.40078125,149.1050385630882L243.6328125,145.89048764502922L243.86484375,148.17170988144642L244.096875,146.39132710332512L244.32890625,146.42239122594913L244.5609375,146.87942731246204L244.79296875,146.83092044052853L245.025,147.5477194352085L245.25703125,146.7026503155816L245.48906250000002,144.65498853148154L245.72109375,144.04217811615408L245.953125,144.2044619846733L246.18515625,143.94820920168937L246.4171875,144.61889930964182L246.64921875000002,145.44448339811137L246.88125000000002,141.32549758797666L247.11328125,141.88727107992318L247.3453125,142.82297406176286L247.57734375,145.8698259521146L247.80937500000002,148.19877186313067L248.04140625000002,147.22442916431442L248.27343750000003,148.18333751063136L248.50546874999998,149.85965360829812L248.73749999999998,148.53879129023946L248.96953125,149.31128394819714L249.2015625,148.25173530158008L249.43359375,149.44204301435025L249.66562499999998,150.0559777683375L249.89765624999998,151.40554269397558L250.1296875,152.05932437968985L250.36171875,151.1580627985668L250.59375,150.12459086529262L250.82578125,149.5344666797262L251.28984375,149.52689409099378L251.521875,148.79602267097997L251.75390625,149.49974333633384L251.9859375,148.69754449957253L252.21796875,147.44281017488575L252.45,144.82121473100662L252.68203125,143.5867574435516L252.9140625,142.81549992417632L253.14609375,143.8824289951505L253.378125,146.23222038965577L253.61015625000002,146.98784426710927L253.8421875,147.1190241420292L254.07421875,146.91060161577875L254.30625,148.64359506085918L254.53828125,149.37187518408678L254.77031250000002,150.22466913484615L255.00234375000002,150.5636939062981L255.234375,149.38429930992314" style="fill: none;" fill="none"></path></g></g></g></g><g opacity="0.2"><g><g><g><path stroke="rgb(255, 112, 67)" stroke-width="2px" d="M27.866953125,164.06579983091126L27.936562499999997,164.30602491223434L28.006171875,164.30716065262598L28.07578125,164.30710901049483L28.145390625,164.3070257950704L28.215,164.30669130739878L28.284609375,164.30649573793366L28.35421875,164.30648817393208L28.423828125,164.30621886180262L28.4934375,164.3063558844509L28.563046875,164.30654630621072L28.63265625,164.30590727724035L28.702265625,164.30534647812826L28.771875,164.30600257060948L28.841484375,164.30451494564142L28.91109375,164.3034478923118L28.980703125,164.30272605632825L29.0503125,164.29901563186343L29.119921875,164.28824563012816L29.18953125,164.27356846118346L29.259140625,164.26114105913214L29.32875,164.26342410862875L29.398359375000002,164.24318408729653L29.46796875,164.24424116700314L29.537578125,164.23549701101504L29.607187500000002,164.21305054118142L29.676796875,164.20113276783377L29.74640625,164.215394006254L29.816015625000002,164.17971371028287L29.885625,164.16801673704043L29.955234375,164.00015597876447L30.024843750000002,163.82712936515992L30.094453125,163.72672546826877L30.1640625,163.642840913282L28.07578125,164.06696668582467L28.3078125,164.30616828784696L28.53984375,164.30729911918417L28.771875,164.3073268485599L29.00390625,164.30728969957383L29.2359375,164.30721950638633L29.46796875,164.3070566166957L29.932031249999998,164.30683285758894L30.1640625,164.30651687848373L30.39609375,164.30609373413833L30.628125,164.30568859017401L30.860156250000003,164.30480989577615L31.092187499999998,164.3046303151708L31.32421875,164.30336862177444L31.55625,164.30307746076366L31.78828125,164.2955688078476L32.0203125,164.29484682720906L32.25234375,164.28883499362004L32.484375,164.28236278655152L32.71640625,164.28493703332228L32.9484375,164.2776677015309L33.18046875,164.25763805239245L33.4125,164.24825504257416L33.64453125,164.23572578746825L33.8765625,164.22946707044656L34.10859375,164.21017681792952L34.340625,164.18942591820198L34.57265625,164.15429871916197L34.8046875,163.99930307698938L35.03671875,163.90200836182788L35.268750000000004,163.77072047900694L35.50078125,163.59594855629481L35.7328125,163.41024356621963L35.96484375000001,163.02299402539546L36.196875,162.68349647636597L36.42890625,162.53841013633289L36.660937499999996,160.84598654967087L36.89296875,160.00961661338806L37.125,161.10056046339182L37.35703125,159.22737780901102L37.589062500000004,159.27490404018988L37.82109375,159.2097568511963L38.053124999999994,159.16850662231445L38.28515625,155.96984615692725L38.5171875,157.51573447539255L38.74921875,156.2813554085218L38.98125,157.16781992178696L39.21328125,155.07158863544464L39.4453125,156.1073199877372L39.67734375,156.06438446044922L39.909375000000004,154.6593442421693L40.14140625,154.0675164094338L40.373437499999994,156.00609598709985L40.60546875,154.70802529041583L40.8375,149.5439624786377L41.06953125,154.87112626662622L41.3015625,156.25849982408377L41.53359375,154.26244626595422L41.765625,155.7052763425387L41.997656250000006,154.66079449653625L42.229687500000004,155.22794107290414L42.461718749999996,152.58187485658206L42.693749999999994,153.37348277752216L42.92578125,151.9795271708415L43.1578125,148.39538387151865L43.38984375,146.34045259769147L43.621875,150.09054433382474L43.85390625,147.58908814650317L44.0859375,147.1427248257857L44.317968750000006,146.7549837735983L44.550000000000004,140.44373139968286L44.782031249999996,142.7325674020327L45.014062499999994,145.2723569869995L45.24609375,141.76645315610446L45.478125,146.73966184029211L45.71015625,140.60372293912448L45.9421875,140.98633709320654L46.17421875,136.57391900282641L46.40625,136.8447191165044L46.638281250000006,132.49066866361179L46.8703125,131.53033748039832L47.102343749999996,127.83427322827853L47.334375,125.8298927453848L47.56640625,131.6297970184913L47.7984375,125.85138295247003L48.03046875,127.83793599788959L48.2625,131.8189519735483L48.49453125,121.43552571076611L48.7265625,114.228197317857L48.958593750000006,116.22560156308688L49.190625,121.28112462850717L49.422656249999996,114.90806873028095L49.6546875,92.74169217623196L49.88671875,92.84817365499643L50.11875,109.18599994365985L50.350781250000004,104.90268142406757L50.5828125,102.39256125230054L50.81484375,80.66446348337027L51.04687499999999,80.25306459573599L51.27890625,92.94636983137866L51.5109375,107.38490970318134L51.742968749999996,95.18562133495624L51.975,85.93736964005691L52.20703125,83.4943610704862L52.4390625,95.14537004324106L52.671093750000004,84.9841615970318L52.903125,84.87705333416278L53.13515625,93.44100695389966L53.36718750000001,81.75897216796875L53.59921875,94.26474490532507L53.83125,87.1021499633789L54.063281249999996,87.80744530604437L54.2953125,89.15766884730414L54.52734375,70.94078951615555L54.759375,65.44378845508282L54.991406250000004,66.6360819889949L55.2234375,50.62550882192758L55.455468749999994,55.39137928302472L55.6875,80.61881270775427L55.91953125,80.79425349602332L56.1515625,94.6972455244798L56.38359375,76.15242099761963L56.615625,76.33807967259332L56.84765625,72.90167705829327L57.0796875,83.08294259584866L57.311718750000004,69.89453667860764L57.54375,83.55404266944299L57.775781249999994,65.32612932645358L58.0078125,48.050758068378144L58.23984375,69.32320338029129L58.471875,84.56462757404034L58.70390625,83.27430761777438L58.9359375,69.80902635134183L59.16796875,49.6249002309946L59.400000000000006,13.898154038649349L59.632031250000004,47.815165593073914L59.864062499999996,56.01347556480994L60.096093749999994,50.846711378831124L60.328125,49.10084342956543L60.56015625,48.231937848604645L60.7921875,51.30614412747897L61.02421875,55.15595003274771L61.25625,26.594279802762543L61.48828125,38.502185381375824L61.720312500000006,56.54898423414963L61.952343750000004,30.128454208374023L62.184374999999996,37.40285829397348L62.416406249999994,36.824297391451324L62.6484375,58.75554502927341L62.88046875,67.99225997924805L63.1125,90.92986172896167L63.34453125,74.5565503193782L63.5765625,63.0284106181218L63.80859375,48.32750936654898L64.040625,60.449435600867645L64.27265625,42.590907023503235L64.5046875,35.989799646230836L64.73671875000001,42.132858423086304L64.96875,37.41966394277719L65.20078125,81.3142427297739L65.4328125,68.79708341451791L65.66484375,57.09744644165039L65.896875,93.55778466738187L66.12890625,71.99442665393536L66.3609375,75.44206567911002L66.59296875,87.17446517944336L66.825,76.85707649817834L67.05703125000001,71.35980121905988L67.2890625,52.03041927631085L67.52109374999999,89.46918707627515L67.753125,82.8741973730234L67.98515625,81.71900162330041L68.2171875,81.33475685119629L68.44921875,92.05933321439304L68.68125,77.11027768942026L68.91328125,80.75358434823843L69.1453125,102.16894296499399L69.37734375000001,77.17124550159161L69.609375,70.97828556941107L69.84140625,62.187631973853485L70.0734375,57.74229629223163L70.30546875,61.299629064706664L70.53750000000001,73.34039328648493L70.76953125,70.37905384944037L71.0015625,50.4219867999737L71.23359375000001,54.29565620422363L71.465625,57.32119530897873L71.69765625000001,36.5082153907189L71.92968750000001,58.81186419266922L72.16171874999999,64.52953896155725L72.39375,59.76133111807016L72.62578124999999,80.15294236403244L72.8578125,76.56002653562106L73.08984375,73.04096023853009L73.32187499999999,61.81935713841364L73.55390625,54.6185153080867L73.7859375,72.05334435976468L74.01796875,63.98225197425256L74.25,64.91429299574631L74.48203125,58.4101412846492L74.7140625,72.38172699854925L74.94609375,45.04701276925894L75.17812500000001,65.73842268723709L75.41015625,50.82745082561786L75.6421875,19.828968048095703L75.87421875000001,41.98312231210562L76.10624999999999,52.89875030517578L76.33828125,59.41063888256366L76.5703125,59.70697718400223L76.80234374999999,48.2142964876615L77.034375,80.75547775855432L77.26640625,69.75389546614426L77.4984375,27.583567105806793L77.73046875,76.08085008767935L77.9625,60.13665727468637L78.19453125,75.81707844367395L78.4265625,48.82607694772574L78.65859375,37.39272528428299L78.890625,75.52150403536282L79.12265625,78.41757304851825L79.3546875,58.56431058736948L79.58671875,70.22869748335617L79.81875000000001,85.99560832977295L80.05078125,82.38817853194016L80.2828125,57.3793687086839L80.51484375000001,76.71567139258752L80.74687499999999,76.21955871582031L80.97890625,48.64385252732498L81.2109375,83.94378486046423L81.44296874999999,50.549824641301086L81.675,74.66036796569824L82.1390625,80.49157553452713L82.37109375,77.61499558962308L82.603125,60.70811462402344L82.83515625,53.112170292780945L83.0671875,14.306882564838109L83.29921875000001,41.4549130659837L83.53125,53.117393493652344L83.76328125,55.10705434359036L83.99531250000001,68.59747879321759L84.22734375,60.34702821878287L84.45937500000001,44.599815368652344L84.69140624999999,60.234762045053344L84.92343749999999,57.7465074979342L85.15546875,48.97625703078049L85.38749999999999,76.58266911139856L85.61953125,76.96400194901688L85.8515625,61.678167489858765L86.08359374999999,45.17872883723333L86.315625,52.35940258319562L86.54765625,41.785110767071075L86.7796875,34.210633791410004L87.01171875,-25.034462268535897L87.24375,44.764777110173156L87.47578125,58.81100889352652L87.7078125,30.969807404738216L87.93984375000001,28.541671899648808L88.171875,43.938061934251046L88.40390625,23.651423967801605L88.63593750000001,25.706244248610286L88.86796875,33.07773458040677L89.10000000000001,31.994312139657833L89.33203125000001,47.35474043626053L89.56406249999999,42.9876744196965L89.79609375,-1.1906939286452043L90.02812499999999,52.93682743952825L90.26015625,16.512901452871464L90.4921875,45.181901931762695L90.72421874999999,12.056779861450195L90.95625,-32.21983689528246L91.18828125,-0.9976313664362859L91.4203125,8.020290228036739L91.65234375,33.39077406663162L91.884375,5.393150769747222L92.11640625,28.185123150165257L92.3484375,43.404224689190215L92.58046875000001,5.892971919133116L92.8125,35.420588273268486L93.04453125,12.09176224928635L93.27656250000001,9.26688546400803L93.50859374999999,-15.57805296090931L93.740625,56.8257094163161L93.97265625,55.92022837125339L94.20468749999999,39.19448148287259L94.43671875,44.55694594750037L94.66875,59.50314829899714L94.90078125,58.5522841673631L95.1328125,66.576537499061L95.36484375,73.85802555084229L95.596875,14.286694893470182L95.82890625,31.93334432748648L96.0609375,49.66881429232083L96.29296875,28.81706516559308L96.525,41.45132211538461L96.75703125,23.601411819458008L96.9890625,37.78682884803186L97.22109375000001,51.974544084989105L97.453125,43.738156978900605L97.68515625,23.62727972177359L97.91718750000001,33.095245361328125L98.14921874999999,38.615267680241516L98.38125,35.31430919353778L98.61328125,60.655980550325836L98.84531249999999,54.14935434781589L99.07734375,30.076613939725434L99.309375,50.637900865994965L99.54140625,31.691588475153992L99.7734375,-13.365857637845572L100.00546875,27.448965219350956L100.2375,55.605817794799805L100.46953125,60.79180988898645L100.70156250000001,58.217692448542664L100.93359375,33.03950075002817L101.165625,34.359899814312286L101.39765625000001,57.61034518021805L101.6296875,69.07437661977914L101.86171875000001,58.88615769606369L102.09374999999999,44.83209111140325L102.32578124999999,79.99618757688083L102.5578125,51.01368405268743L102.78984374999999,-9.526073749248786L103.021875,34.48161345261795L103.25390625,13.92697304945725L103.48593749999999,-21.503356493436392L103.71796875,34.62192168602576L103.95,34.75951385498047L104.18203125,26.161916292630707L104.4140625,38.68732173626239L104.64609375,18.60702632023737L104.878125,-0.9618916144737648L105.11015625,25.036107576810394L105.34218750000001,-10.552706938523503L105.57421875,38.51854705810547L105.80625,6.854941881619966L106.03828125000001,48.9065142411452L106.2703125,23.02732981168307L106.50234375000001,23.058433972872223L106.73437500000001,34.61032618009128L106.96640624999999,68.14870790334848L107.1984375,70.34343161949744L107.43046874999999,56.950805077186004L107.6625,65.95626933758075L107.89453125,79.12709918388953L108.12656249999999,86.04912002270038L108.35859375,85.3105333034809L108.590625,61.077858484708344L108.82265625,68.02818907224216L109.0546875,42.85029117877667L109.28671875,65.71064178760236L109.51875,62.15032526162955L109.75078125,67.74208824451154L109.98281250000001,78.0592679977417L110.21484375,69.41157993903528L110.446875,67.56160053840051L110.67890625000001,82.03576916914719L110.91093749999999,72.1847405066857L111.14296875,83.35777436769925L111.375,68.19744036747858L111.8390625,90.40280158703143L112.07109375,87.85211673149695L112.303125,97.64037557748648L112.53515625,85.55326197697565L112.7671875,65.90917565272406L112.99921875,81.11504290654108L113.23125,77.33180669637827L113.46328125,79.42066265986517L113.6953125,86.06082652165338L113.92734375,87.87791281480057L114.159375,80.38690258906439L114.39140625,63.4550873683049L114.62343750000001,61.56249970656174L114.85546875,65.12799373039832L115.0875,67.02364349365234L115.31953125000001,68.23961118551401L115.55156249999999,91.77929782867432L115.78359375,81.9400540131789L116.015625,75.08509907355676L116.24765624999999,41.47305063100961L116.4796875,89.3446790255033L116.71171875,104.80284646841196L117.17578125,48.919167445256164L117.4078125,63.32635505382831L117.63984375,103.35607858804556L117.871875,81.8226821605976L118.10390625000001,83.58488567058856L118.3359375,85.28472416217511L118.56796875,87.50058878385104L118.80000000000001,94.16438110058124L119.03203125,83.15117718623236L119.26406250000001,104.64651606633112L119.49609374999999,80.83863111642691L119.72812499999999,88.243014555711L119.96015625,87.40421419877273L120.42421875,70.17190823188196L120.65625,88.27091950636643L120.88828124999999,24.426050773033726L121.1203125,84.89941516289343L121.35234375,86.68279222341684L121.584375,65.95982111417331L121.81640625,95.64129337897668L122.0484375,85.66395466144269L122.28046875,83.97881948030911L122.5125,83.12918751056378L122.74453125000001,102.50726274343637L122.9765625,89.29343289595386L123.20859375,109.17606280400202L123.44062500000001,74.7378345636221L123.67265625,89.09854874244104L123.90468750000001,102.3229816876925L124.13671875000001,93.15762871962329L124.36874999999999,76.22701483506424L124.60078125,93.9832861973689L124.83281249999999,98.40050800030048L125.06484375,84.16181432283841L125.296875,105.15460293109601L125.52890624999999,112.23026748803946L125.7609375,117.06324628683237L125.99296875,100.5470019854032L126.225,74.57278794508713L126.45703125,101.92835580385648L126.6890625,91.23150810828577L126.92109375,82.8947702554556L127.153125,95.04439251239484L127.38515625000001,94.00064028226413L127.6171875,103.77913827162524L127.84921875,81.26921873826248L128.08125,85.14504271287186L128.31328125,99.22880319448618L128.5453125,97.42718410491943L128.77734375,102.37658478663519L129.009375,98.68450648968036L129.24140625,98.53290308438815L129.47343750000002,112.64630849544818L129.70546875,101.16441044440637L129.9375,94.19255374028131L130.16953125,102.05986947279712L130.4015625,95.35215003673846L130.63359375,96.38992823087253L130.865625,81.44746699699988L131.09765625,106.07512679466834L131.3296875,94.12771423046405L131.56171874999998,105.2752001102154L131.79375,96.31221353090726L132.02578125,91.0750732421875L132.2578125,87.54097065558801L132.48984375,87.27821100675143L132.721875,82.67901288546048L132.95390625,57.667415178739105L133.1859375,45.26199971712552L133.41796875,65.04894711421088L133.65,100.43671409900372L133.88203125,91.3518375983605L134.11406250000002,92.9423936697153L134.34609375,102.03382528745212L134.578125,109.18814798501822L134.81015625,108.688594524677L135.04218749999998,107.00764443324164L135.27421875,102.3001040678758L135.50625,114.76746995632465L135.73828125,100.88215519831732L135.9703125,93.61171421637903L136.20234375,112.6658073572012L136.66640625,98.8411959868211L136.8984375,96.40827472393329L137.13046875,102.38197774153491L137.3625,88.21358834780179L137.59453125,100.26523641439584L137.8265625,94.88597935896655L138.05859375,92.76624774932861L138.290625,92.99434493138239L138.52265625,85.78505457364597L138.75468750000002,100.72218161362866L138.98671875,92.22083458533655L139.21875,108.15828946920541L139.45078125,113.1839913221506L139.6828125,115.57842085911676L139.91484375,111.25757364126352L140.146875,120.39304337134729L140.37890625,118.53906495754535L140.6109375,112.41378138615534L140.84296875,116.60856665097751L141.07500000000002,113.73710544292743L141.30703125,116.47168940764209L141.5390625,111.46390313368579L141.77109375,121.58835983276367L142.003125,110.23205038217398L142.23515625000002,107.35425604306735L142.69921875,105.11293484614447L142.93125,115.22908665583685L143.16328125,119.48217916488647L143.39531250000002,123.58570205248319L143.62734375000002,113.29808888068567L143.85937500000003,94.44774627685547L144.09140624999998,92.48908512408917L144.32343749999998,112.42796237652118L144.55546875,106.60584317720853L144.7875,93.01233885838434L145.01953125,103.95715801532452L145.25156249999998,108.69777430020847L145.48359374999998,118.61466752565823L145.715625,120.45109272003174L145.94765625,107.63360588367169L146.1796875,112.2008249576275L146.41171875,107.84182225740872L146.64374999999998,110.23898418133075L146.87578125,120.19049743505624L147.1078125,117.78196852023785L147.33984375,128.15952194654025L147.571875,123.27543412722073L147.80390625,119.09634784551767L148.0359375,130.63370323181152L148.26796875,130.39768310693594L148.5,122.48376336464514L148.73203125,125.08319374231192L148.9640625,116.6127941791828L149.19609375000002,114.08670080625095L149.428125,118.19781692211444L149.66015625,100.91799288529614L149.8921875,96.11449579092172L150.12421875,121.07423364199124L150.35625000000002,128.9828616288992L150.58828125000002,124.73582476835986L150.8203125,118.72752130948581L151.05234375,98.48486922337457L151.284375,119.37513619202832L151.51640625000002,102.53586629720834L151.74843750000002,110.09301203947803L151.98046874999997,104.65237258030817L152.21249999999998,113.09613708349374L152.44453124999998,111.23168941644522L152.6765625,115.16034606786874L152.90859375,129.50624267871564L153.140625,123.23531994452844L153.37265624999998,131.92111451809222L153.60468749999998,124.32249329640314L153.83671875,131.51785403031568L154.06875,118.28146321956928L154.30078125,125.1054478425246L154.5328125,122.78768183634833L154.76484374999998,133.1427461183988L154.996875,131.22707517330463L155.22890625,116.24624626453107L155.4609375,110.83465106670673L155.69296875,124.06799609844501L155.925,115.32383878414447L156.15703125,102.6054458618164L156.3890625,120.00628166932324L156.62109375,108.2484288582435L156.853125,114.64779663085938L157.08515625,112.83058302219098L157.3171875,127.40015668135425L157.54921875,125.95792972124539L157.78125,126.35696268081665L158.01328125,118.3426497532771L158.2453125,118.68580099252554L158.47734375000002,127.88421682211069L158.709375,121.87977853188147L158.94140625,125.68284984735342L159.1734375,116.8956892673786L159.40546875,123.6589052126958L159.63750000000002,125.18002209296594L159.86953125000002,129.73095457370465L160.1015625,137.01163302935086L160.33359375,138.17276200881372L160.565625,140.69810291437003L160.79765625000002,139.07691113765424L161.02968750000002,132.1775083908668L161.26171875000003,137.03923274920538L161.49374999999998,132.0734752875108L161.72578124999998,138.2662132336543L161.9578125,140.41525842593268L162.18984375,135.92820405960083L162.421875,133.80570415350107L162.65390624999998,136.2737579712501L162.88593749999998,123.83001074424158L163.11796875,126.92506412359384L163.35,113.5180901013888L163.58203125,137.50326191462003L163.8140625,123.92967594586887L164.04609374999998,129.53046527275671L164.278125,135.06682968139648L164.51015625,129.3028055337759L164.7421875,133.40145125755896L164.97421875,121.14129627667941L165.20625,132.87189050821158L165.43828125,96.4554924598107L165.6703125,68.69496330848108L165.90234375,98.14549174675574L166.134375,116.32161705310529L166.36640625,102.63409511859601L166.59843750000002,101.15741788423978L166.83046875,110.261499441587L167.0625,109.60134561245258L167.29453125,129.5411728345431L167.5265625,136.6560701590318L167.75859375000002,132.10301901743964L167.99062500000002,133.32555161989652L168.22265625,117.88801255592932L168.4546875,115.36992047383234L168.68671875,85.5955503170307L168.91875000000002,98.68588410891019L169.15078125000002,122.09523556782648L169.38281249999997,103.80921085064227L169.61484374999998,117.42045446542593L169.84687499999998,118.65134745377759L170.07890625,134.814026759221L170.3109375,131.0639839905959L170.54296875,124.83838884647076L170.77499999999998,130.49005541434656L171.00703124999998,131.9699024787316L171.2390625,135.50731526888333L171.47109375,122.41326647538403L171.703125,126.87724245511569L171.93515625,135.92349338531494L172.16718749999998,136.4986298267658L172.39921875,135.4710988998413L172.63125,138.59082863881036L172.86328125,127.56421415622418L173.0953125,136.85053972097543L173.32734375,139.92049072338983L173.559375,138.1830190695249L173.79140625,137.84525588842538L174.0234375,118.856041431427L174.25546875,129.5278373498183L174.4875,134.21737399468054L174.71953125,133.89575213652392L174.9515625,129.0462027329665L175.18359375,131.04450471584613L175.415625,131.28610387215247L175.64765625,133.3548864217905L175.87968750000002,131.16074378673846L176.11171875,125.3643096777109L176.34375,125.21711661265448L176.57578125,120.4665044271029L176.8078125,129.06522497764L177.03984375000002,122.79221949210535L177.27187500000002,128.3381097133343L177.50390625,125.75685933920053L177.7359375,136.01069472386285L177.96796875,132.48817458519568L178.20000000000002,126.66244158378015L178.43203125000002,128.4229834629939L178.66406250000003,131.35906872382532L178.89609374999998,131.66505035987268L179.12812499999998,134.88874138318576L179.36015625,136.38171826876126L179.5921875,138.05789402815012L179.82421875,135.21809357863208L180.05624999999998,132.59264513162466L180.28828124999998,143.3609331571139L180.5203125,138.300611275893L180.75234375,144.4728693778698L180.984375,145.41974918658917L181.21640625,134.99606183859018L181.44843749999998,135.34454074272742L181.68046875,131.17755922904382L181.9125,137.5937163279607L182.14453125,126.0992009823139L182.3765625,133.4593373812162L182.60859375,125.8177096293523L182.840625,132.5140163715069L183.07265625,125.52531158007108L183.3046875,136.2463100506709L183.53671875,125.45295066099902L183.76875,132.18091326493482L184.00078125000002,127.4793861095722L184.2328125,130.8840838945829L184.46484375,137.03502970475415L184.696875,135.08882588606616L184.92890625,122.88303463275616L185.16093750000002,122.10357963121854L185.39296875000002,125.8232201062716L185.625,122.79442302997296L185.85703125,117.39399568851178L186.0890625,121.67827070676364L186.32109375000002,131.2940659889808L186.55312500000002,131.23078364592334L186.78515624999997,127.72997243587787L187.01718749999998,126.5147719016442L187.24921874999998,124.57102625186627L187.48125,125.05813870063196L187.71328125,126.73395699721118L187.9453125,134.8294580532954L188.17734374999998,131.36534635837262L188.40937499999998,129.3645502970769L188.64140625,135.63862980329074L188.8734375,131.66743670977078L189.10546875,129.63546793277447L189.3375,132.03244051566492L189.56953124999998,131.9289101453928L189.8015625,133.8727733171903L190.03359375,130.10395314143256L190.265625,127.21433151685275L190.49765625,106.69634819030762L190.7296875,116.74255481133093L190.96171875,123.6548017355112L191.19375,127.30933174720178L191.42578125,114.12953105339636L191.6578125,110.5114557192876L191.88984375,123.75945835847119L192.121875,137.38608919657193L192.35390625,133.09043249717126L192.5859375,135.4259312703059L192.81796875,128.32280573478113L193.05,135.87021673642673L193.28203125000002,120.02167378939114L193.5140625,116.06568021040698L193.74609375,130.09209973995502L193.978125,131.40563682409433L194.21015625,131.21020423449002L194.44218750000002,134.43534796054547L194.67421875000002,133.91600509790274L194.90625,126.72658575498141L195.13828125,126.98866638770471L195.3703125,134.7418617101816L195.60234375000002,130.6413976595952L195.83437500000002,134.35994779146634L196.06640625000003,134.50598848783054L196.29843749999998,135.23818005048312L196.53046874999998,135.51181701513437L196.7625,133.85205679673413L196.99453125,132.02348599067102L197.2265625,133.77020597457886L197.45859374999998,137.36598803446844L197.69062499999998,133.9573891713069L197.92265625,133.4296728647672L198.1546875,117.16071774409369L198.38671875,126.37025246253381L198.61875,111.7017056758587L198.85078124999998,133.75068099682147L199.0828125,134.6139846948477L199.31484375,139.7517650127411L199.546875,139.59343183957614L199.77890625,129.98423411295965L200.0109375,137.4889699312357L200.24296875,134.49233634655292L200.70703125,134.74384652651273L200.9390625,133.2032046684852L201.17109375,140.49480777520398L201.40312500000002,137.39824293209955L201.63515625,137.1297296010531L201.8671875,132.95454439750085L202.09921875,136.73269778031568L202.33125,109.93012325580304L202.56328125000002,129.99222234579233L202.79531250000002,118.95539324100201L203.02734375,128.37519117502066L203.259375,136.53059255159818L203.49140625,132.754427249615L203.72343750000002,137.44176362111017L203.95546875000002,129.65816600506122L204.18749999999997,119.94697548792914L204.41953124999998,123.97625710414007L204.65156249999998,126.12763478205756L204.88359375,125.6916868503277L205.115625,134.1510197566106L205.34765625,140.0166318966792L205.57968749999998,139.7559256186852L205.81171874999998,129.99933242797852L206.04375,139.82330164542566L206.27578125,145.6853881249061L206.5078125,134.0655779838562L206.73984375,143.10634128863995L206.97187499999998,141.0206420971797L207.20390625,141.4987706404466L207.4359375,143.65853318801294L207.66796875,145.44052446805514L207.9,142.31454321054312L208.3640625,140.9147531252641L208.59609375,133.91130748161902L208.828125,146.5516282411722L209.06015625,137.40704892231867L209.2921875,136.7151837348938L209.52421875,142.9667349228492L209.75625,138.08731860380908L209.98828125,125.01631391965427L210.2203125,133.0755986066965L210.45234375,135.76764939381525L210.68437500000002,136.7818317780128L210.91640625,137.42515384233914L211.1484375,145.39912570439853L211.38046875,142.7712860107422L211.6125,143.03656911849976L211.84453125000002,143.52243616030768L212.07656250000002,136.00727026279156L212.30859375,137.12326262547418L212.540625,118.65023752359244L212.77265625,113.56061022098248L213.00468750000002,132.60593164884128L213.23671875000002,127.72599953871509L213.46875000000003,143.25090153400714L213.70078124999998,129.40639792955838L213.93281249999998,134.4603115962102L214.16484375,128.19795164695154L214.396875,133.06999019476083L214.62890625,140.40259216381952L214.86093749999998,135.76075803316556L215.09296874999998,128.87487847988422L215.325,137.46053449924176L215.55703125,137.90715898000278L215.7890625,141.50456676116357L216.02109375,140.5756923051981L216.25312499999998,139.26327004799475L216.48515625,138.3559053861178L216.7171875,137.50886542980487L216.94921875,141.25346301152155L217.18125,131.43759954892673L217.41328125,130.26722713617178L217.6453125,135.27499055862427L217.87734375,143.3304312962752L218.109375,140.36067760907687L218.34140625,144.2869217945979L218.5734375,136.17370429405798L218.80546875000002,139.09978712522067L219.0375,139.30860906380872L219.5015625,131.5590357046861L219.73359375,139.42577688510602L219.96562500000002,137.46128859886755L220.19765625000002,131.94497148807233L220.4296875,137.96293786855844L220.89375,138.38573639209454L221.12578125000002,120.8011679649353L221.35781250000002,134.67830841357892L221.58984374999997,131.57462369478665L221.82187499999998,137.80973322574908L222.05390624999998,139.50674139536343L222.2859375,137.7851221561432L222.51796875,145.42826463625983L222.75,141.57785806289087L222.98203124999998,147.27262746370755L223.21406249999998,138.83386580760663L223.44609375,141.3923381291903L223.678125,137.13433744357184L223.91015625,141.587689106281L224.1421875,142.55087346297046L224.37421874999998,138.72438914959247L224.60625,144.05023407936096L224.83828125,134.06560736436109L225.0703125,133.9818761898921L225.30234375,135.6892981162438L225.534375,139.53946801332327L225.76640625,141.84277391433716L225.9984375,144.101831142719L226.23046875,144.12540410115167L226.4625,145.99600861622736L226.69453125,146.03912450717047L226.9265625,147.81210739795978L227.15859375,134.14652780386118L227.390625,138.82002269304715L227.62265625,137.46546879181494L227.8546875,141.77015509972205L228.08671875000002,143.38244131895212L228.31875,143.93967034266547L228.55078125,148.27812954095694L228.7828125,144.1592096365415L229.01484375,147.08501824965845L229.24687500000002,141.31500047903796L229.47890625000002,141.78799233069788L229.7109375,144.4399077158708L229.94296875,146.9244962288783L230.175,142.8923728649433L230.40703125000002,144.64294332724353L230.63906250000002,147.1132267988645L230.87109375000003,145.3598602918478L231.10312499999998,137.3852306329287L231.33515624999998,136.39135833886954L231.5671875,145.2560932452862L231.79921875,151.66186025509467L232.03125,148.00164756408105L232.49531249999998,146.23238946841315L232.72734375,145.72012241070087L232.959375,148.36972979398874L233.19140625,144.39862320973322L233.4234375,147.3893268291767L233.65546874999998,147.26703374202435L233.8875,146.58284502763013L234.11953125,148.20930570822497L234.3515625,147.36067920464734L234.58359375,143.59259680601266L234.815625,140.40979038752042L235.04765625,148.88641535318814L235.2796875,129.40488646580621L235.51171875,130.37888284829947L235.74375,109.73867335686316L235.97578125,125.67971266233005L236.20781250000002,134.41120371451746L236.43984375,121.94881292489859L236.671875,135.6287579536438L236.90390625,129.13123317865225L237.1359375,130.3024184520428L237.36796875000002,138.29952909396246L237.60000000000002,145.25260186195374L237.83203125,144.7690934217893L238.0640625,140.56840920448303L238.29609375,147.42028735234186L238.52812500000002,146.06782599595877L238.76015625000002,141.8809342934535L238.99218749999997,141.04868905360883L239.22421874999998,137.93125262627234L239.45624999999998,144.75317898163428L239.68828125,146.0853073963752L239.9203125,152.20547059866098L240.15234375,149.37582927483777L240.38437499999998,149.0721784921793L240.8484375,138.412142937L241.08046875,142.48426132935742L241.3125,146.84137225151062L241.54453125,149.01660526715793L241.77656249999998,150.51698440771838L242.00859375,148.37960980488702L242.240625,149.9286022553077L242.47265625,147.9091756894038L242.7046875,152.39706005499914L242.93671875,149.14077380987314L243.16875,151.57664536512814L243.40078125,147.090032522495L243.6328125,141.0686612679408L243.86484375,151.59354323607226L244.096875,143.72075293614313L244.32890625,146.46898740988513L244.5609375,147.56498144223139L244.79296875,146.75816013262823L245.025,148.62291792722849L245.25703125,145.43504663614127L245.48906250000002,141.58349585533142L245.72109375,143.1229624931629L245.953125,144.44788778745212L246.18515625,143.56383002721347L246.4171875,145.62493447157053L246.64921875000002,146.6828595308157L246.88125000000002,135.14701887277457L247.11328125,142.72993131784293L247.3453125,144.22652853452243L247.57734375,150.44010378764227L247.80937500000002,151.69219072965475L248.04140625000002,145.76291511609003L248.27343750000003,149.62170003010675L248.50546874999998,152.3741277547983L248.73749999999998,146.55749781315143L248.96953125,150.47002293513373L249.2015625,146.66241233165448L249.43359375,151.2275045835055L249.66562499999998,150.97687989931842L249.89765624999998,153.42989008243268L250.1296875,153.03999690826123L250.36171875,149.80617042688223L250.59375,148.57438296538135L250.82578125,148.6492804013766L251.28984375,149.51553520789514L251.521875,147.6997155409593L251.75390625,150.55532433436468L251.9859375,147.49424624443054L252.21796875,145.56070868785565L252.45,140.8888215651879L252.68203125,141.73507151236902L252.9140625,141.65861364511343L253.14609375,145.48282260161182L253.378125,149.75690748141363L253.61015625000002,148.12128008328952L253.8421875,147.3157939544091L254.07421875,146.5979678264031L254.30625,151.24308522847983L254.53828125,150.46429536892816L254.77031250000002,151.5038600609853L255.00234375000002,151.07223106347598L255.234375,147.61520741536066" style="fill: none;" fill="none"></path></g></g></g></g></g></g><g transform="translate(51, 178)" clip-path="url(#clip_1)"><clipPath id="clip_1"><rect width="278" height="22"></rect></clipPath><g><g><line x1="0" y1="0" x2="0" y2="5" style="visibility: inherit;" fill="rgb(0, 0, 0)" stroke="rgb(204, 204, 204)" stroke-width="1px"></line><line x1="23.203125" y1="0" x2="23.203125" y2="5" style="visibility: inherit;" fill="rgb(0, 0, 0)" stroke="rgb(204, 204, 204)" stroke-width="1px"></line><line x1="46.40625" y1="0" x2="46.40625" y2="5" style="visibility: inherit;" fill="rgb(0, 0, 0)" stroke="rgb(204, 204, 204)" stroke-width="1px"></line><line x1="69.609375" y1="0" x2="69.609375" y2="5" style="visibility: inherit;" fill="rgb(0, 0, 0)" stroke="rgb(204, 204, 204)" stroke-width="1px"></line><line x1="92.8125" y1="0" x2="92.8125" y2="5" style="visibility: inherit;" fill="rgb(0, 0, 0)" stroke="rgb(204, 204, 204)" stroke-width="1px"></line><line x1="116.015625" y1="0" x2="116.015625" y2="5" style="visibility: inherit;" fill="rgb(0, 0, 0)" stroke="rgb(204, 204, 204)" stroke-width="1px"></line><line x1="139.21875" y1="0" x2="139.21875" y2="5" style="visibility: inherit;" fill="rgb(0, 0, 0)" stroke="rgb(204, 204, 204)" stroke-width="1px"></line><line x1="162.421875" y1="0" x2="162.421875" y2="5" style="visibility: inherit;" fill="rgb(0, 0, 0)" stroke="rgb(204, 204, 204)" stroke-width="1px"></line><line x1="185.625" y1="0" x2="185.625" y2="5" style="visibility: inherit;" fill="rgb(0, 0, 0)" stroke="rgb(204, 204, 204)" stroke-width="1px"></line><line x1="208.828125" y1="0" x2="208.828125" y2="5" style="visibility: inherit;" fill="rgb(0, 0, 0)" stroke="rgb(204, 204, 204)" stroke-width="1px"></line><line x1="232.03125" y1="0" x2="232.03125" y2="5" style="visibility: inherit;" fill="rgb(0, 0, 0)" stroke="rgb(204, 204, 204)" stroke-width="1px"></line><line x1="255.234375" y1="0" x2="255.234375" y2="5" style="visibility: inherit;" fill="rgb(0, 0, 0)" stroke="rgb(204, 204, 204)" stroke-width="1px"></line><line x1="278.4375" y1="0" x2="278.4375" y2="5" style="visibility: inherit;" fill="rgb(0, 0, 0)" stroke="rgb(204, 204, 204)" stroke-width="1px"></line></g><g transform="translate(0, 8)"><text x="0" y="0" dx="0em" dy="0.95em" style="text-anchor: middle; visibility: hidden; font-family: Roboto, sans-serif; font-size: 12px; font-weight: 200;" fill="rgb(50, 49, 63)" stroke="none" stroke-width="1px">-2k</text><text x="23.203125" y="0" dx="0em" dy="0.95em" style="text-anchor: middle; visibility: inherit; font-family: Roboto, sans-serif; font-size: 12px; font-weight: 200;" fill="rgb(50, 49, 63)" stroke="none" stroke-width="1px">0</text><text x="46.40625" y="0" dx="0em" dy="0.95em" style="text-anchor: middle; visibility: hidden; font-family: Roboto, sans-serif; font-size: 12px; font-weight: 200;" fill="rgb(50, 49, 63)" stroke="none" stroke-width="1px">2k</text><text x="69.609375" y="0" dx="0em" dy="0.95em" style="text-anchor: middle; visibility: inherit; font-family: Roboto, sans-serif; font-size: 12px; font-weight: 200;" fill="rgb(50, 49, 63)" stroke="none" stroke-width="1px">4k</text><text x="92.8125" y="0" dx="0em" dy="0.95em" style="text-anchor: middle; visibility: hidden; font-family: Roboto, sans-serif; font-size: 12px; font-weight: 200;" fill="rgb(50, 49, 63)" stroke="none" stroke-width="1px">6k</text><text x="116.015625" y="0" dx="0em" dy="0.95em" style="text-anchor: middle; visibility: inherit; font-family: Roboto, sans-serif; font-size: 12px; font-weight: 200;" fill="rgb(50, 49, 63)" stroke="none" stroke-width="1px">8k</text><text x="139.21875" y="0" dx="0em" dy="0.95em" style="text-anchor: middle; visibility: hidden; font-family: Roboto, sans-serif; font-size: 12px; font-weight: 200;" fill="rgb(50, 49, 63)" stroke="none" stroke-width="1px">10k</text><text x="162.421875" y="0" dx="0em" dy="0.95em" style="text-anchor: middle; visibility: inherit; font-family: Roboto, sans-serif; font-size: 12px; font-weight: 200;" fill="rgb(50, 49, 63)" stroke="none" stroke-width="1px">12k</text><text x="185.625" y="0" dx="0em" dy="0.95em" style="text-anchor: middle; visibility: hidden; font-family: Roboto, sans-serif; font-size: 12px; font-weight: 200;" fill="rgb(50, 49, 63)" stroke="none" stroke-width="1px">14k</text><text x="208.828125" y="0" dx="0em" dy="0.95em" style="text-anchor: middle; visibility: inherit; font-family: Roboto, sans-serif; font-size: 12px; font-weight: 200;" fill="rgb(50, 49, 63)" stroke="none" stroke-width="1px">16k</text><text x="232.03125" y="0" dx="0em" dy="0.95em" style="text-anchor: middle; visibility: hidden; font-family: Roboto, sans-serif; font-size: 12px; font-weight: 200;" fill="rgb(50, 49, 63)" stroke="none" stroke-width="1px">18k</text><text x="255.234375" y="0" dx="0em" dy="0.95em" style="text-anchor: middle; visibility: inherit; font-family: Roboto, sans-serif; font-size: 12px; font-weight: 200;" fill="rgb(50, 49, 63)" stroke="none" stroke-width="1px">20k</text><text x="278.4375" y="0" dx="0em" dy="0.95em" style="text-anchor: middle; visibility: hidden; font-family: Roboto, sans-serif; font-size: 12px; font-weight: 200;" fill="rgb(50, 49, 63)" stroke="none" stroke-width="1px">22k</text></g><line x1="0" y1="0" x2="278.4375" y2="0" fill="rgb(0, 0, 0)" stroke="rgb(204, 204, 204)" stroke-width="1px"></line></g></g></g></g></svg>