<svg viewBox="0 0 330 200" xmlns="http://www.w3.org/2000/svg"><g><g><g><g><g><line x1="41.171875" y1="178" x2="36.171875" y2="178" style="visibility: inherit;" fill="rgb(0, 0, 0)" stroke="rgb(204, 204, 204)" stroke-width="1px"></line><line x1="41.171875" y1="161.8181818181818" x2="36.171875" y2="161.8181818181818" style="visibility: inherit;" fill="rgb(0, 0, 0)" stroke="rgb(204, 204, 204)" stroke-width="1px"></line><line x1="41.171875" y1="145.63636363636363" x2="36.171875" y2="145.63636363636363" style="visibility: inherit;" fill="rgb(0, 0, 0)" stroke="rgb(204, 204, 204)" stroke-width="1px"></line><line x1="41.171875" y1="129.45454545454547" x2="36.171875" y2="129.45454545454547" style="visibility: inherit;" fill="rgb(0, 0, 0)" stroke="rgb(204, 204, 204)" stroke-width="1px"></line><line x1="41.171875" y1="113.27272727272727" x2="36.171875" y2="113.27272727272727" style="visibility: inherit;" fill="rgb(0, 0, 0)" stroke="rgb(204, 204, 204)" stroke-width="1px"></line><line x1="41.171875" y1="97.09090909090908" x2="36.171875" y2="97.09090909090908" style="visibility: inherit;" fill="rgb(0, 0, 0)" stroke="rgb(204, 204, 204)" stroke-width="1px"></line><line x1="41.171875" y1="80.90909090909092" x2="36.171875" y2="80.90909090909092" style="visibility: inherit;" fill="rgb(0, 0, 0)" stroke="rgb(204, 204, 204)" stroke-width="1px"></line><line x1="41.171875" y1="64.72727272727273" x2="36.171875" y2="64.72727272727273" style="visibility: inherit;" fill="rgb(0, 0, 0)" stroke="rgb(204, 204, 204)" stroke-width="1px"></line><line x1="41.171875" y1="48.54545454545454" x2="36.171875" y2="48.54545454545454" style="visibility: inherit;" fill="rgb(0, 0, 0)" stroke="rgb(204, 204, 204)" stroke-width="1px"></line><line x1="41.171875" y1="32.36363636363635" x2="36.171875" y2="32.36363636363635" style="visibility: inherit;" fill="rgb(0, 0, 0)" stroke="rgb(204, 204, 204)" stroke-width="1px"></line><line x1="41.171875" y1="16.181818181818187" x2="36.171875" y2="16.181818181818187" style="visibility: inherit;" fill="rgb(0, 0, 0)" stroke="rgb(204, 204, 204)" stroke-width="1px"></line><line x1="41.171875" y1="0" x2="36.171875" y2="0" style="visibility: inherit;" fill="rgb(0, 0, 0)" stroke="rgb(204, 204, 204)" stroke-width="1px"></line></g><g transform="translate(31.171875, 0)"><text x="0" y="178" dx="0em" dy="0.3em" style="text-anchor: end; visibility: hidden; font-family: Roboto, sans-serif; font-size: 12px; font-weight: 200;" fill="rgb(50, 49, 63)" stroke="none" stroke-width="1px">-20</text><text x="0" y="161.8181818181818" dx="0em" dy="0.3em" style="text-anchor: end; visibility: inherit; font-family: Roboto, sans-serif; font-size: 12px; font-weight: 200;" fill="rgb(50, 49, 63)" stroke="none" stroke-width="1px">0</text><text x="0" y="145.63636363636363" dx="0em" dy="0.3em" style="text-anchor: end; visibility: hidden; font-family: Roboto, sans-serif; font-size: 12px; font-weight: 200;" fill="rgb(50, 49, 63)" stroke="none" stroke-width="1px">20</text><text x="0" y="129.45454545454547" dx="0em" dy="0.3em" style="text-anchor: end; visibility: inherit; font-family: Roboto, sans-serif; font-size: 12px; font-weight: 200;" fill="rgb(50, 49, 63)" stroke="none" stroke-width="1px">40</text><text x="0" y="113.27272727272727" dx="0em" dy="0.3em" style="text-anchor: end; visibility: hidden; font-family: Roboto, sans-serif; font-size: 12px; font-weight: 200;" fill="rgb(50, 49, 63)" stroke="none" stroke-width="1px">60</text><text x="0" y="97.09090909090908" dx="0em" dy="0.3em" style="text-anchor: end; visibility: inherit; font-family: Roboto, sans-serif; font-size: 12px; font-weight: 200;" fill="rgb(50, 49, 63)" stroke="none" stroke-width="1px">80</text><text x="0" y="80.90909090909092" dx="0em" dy="0.3em" style="text-anchor: end; visibility: hidden; font-family: Roboto, sans-serif; font-size: 12px; font-weight: 200;" fill="rgb(50, 49, 63)" stroke="none" stroke-width="1px">100</text><text x="0" y="64.72727272727273" dx="0em" dy="0.3em" style="text-anchor: end; visibility: inherit; font-family: Roboto, sans-serif; font-size: 12px; font-weight: 200;" fill="rgb(50, 49, 63)" stroke="none" stroke-width="1px">120</text><text x="0" y="48.54545454545454" dx="0em" dy="0.3em" style="text-anchor: end; visibility: hidden; font-family: Roboto, sans-serif; font-size: 12px; font-weight: 200;" fill="rgb(50, 49, 63)" stroke="none" stroke-width="1px">140</text><text x="0" y="32.36363636363635" dx="0em" dy="0.3em" style="text-anchor: end; visibility: inherit; font-family: Roboto, sans-serif; font-size: 12px; font-weight: 200;" fill="rgb(50, 49, 63)" stroke="none" stroke-width="1px">160</text><text x="0" y="16.181818181818187" dx="0em" dy="0.3em" style="text-anchor: end; visibility: hidden; font-family: Roboto, sans-serif; font-size: 12px; font-weight: 200;" fill="rgb(50, 49, 63)" stroke="none" stroke-width="1px">180</text><text x="0" y="0" dx="0em" dy="0.3em" style="text-anchor: end; visibility: hidden; font-family: Roboto, sans-serif; font-size: 12px; font-weight: 200;" fill="rgb(50, 49, 63)" stroke="none" stroke-width="1px">200</text></g><line x1="41.171875" y1="0" x2="41.171875" y2="178" fill="rgb(0, 0, 0)" stroke="rgb(204, 204, 204)" stroke-width="1px"></line></g></g><g transform="translate(41, 0)" clip-path="url(#clip_0)"><clipPath id="clip_0"><rect width="288" height="178"></rect></clipPath><g><g><g><line x1="0" y1="0" x2="0" y2="178" fill="rgb(0, 0, 0)" stroke="rgb(60, 60, 60)" stroke-width="1px" opacity="0.25"></line><line x1="24.069010416666664" y1="0" x2="24.069010416666664" y2="178" fill="rgb(0, 0, 0)" stroke="rgb(60, 60, 60)" stroke-width="1px" opacity="0.25"></line><line x1="48.13802083333333" y1="0" x2="48.13802083333333" y2="178" fill="rgb(0, 0, 0)" stroke="rgb(60, 60, 60)" stroke-width="1px" opacity="0.25"></line><line x1="72.20703125" y1="0" x2="72.20703125" y2="178" fill="rgb(0, 0, 0)" stroke="rgb(60, 60, 60)" stroke-width="1px" opacity="0.25"></line><line x1="96.27604166666666" y1="0" x2="96.27604166666666" y2="178" fill="rgb(0, 0, 0)" stroke="rgb(60, 60, 60)" stroke-width="1px" opacity="0.25"></line><line x1="120.34505208333334" y1="0" x2="120.34505208333334" y2="178" fill="rgb(0, 0, 0)" stroke="rgb(60, 60, 60)" stroke-width="1px" opacity="0.25"></line><line x1="144.4140625" y1="0" x2="144.4140625" y2="178" fill="rgb(0, 0, 0)" stroke="rgb(60, 60, 60)" stroke-width="1px" opacity="0.25"></line><line x1="168.48307291666669" y1="0" x2="168.48307291666669" y2="178" fill="rgb(0, 0, 0)" stroke="rgb(60, 60, 60)" stroke-width="1px" opacity="0.25"></line><line x1="192.55208333333331" y1="0" x2="192.55208333333331" y2="178" fill="rgb(0, 0, 0)" stroke="rgb(60, 60, 60)" stroke-width="1px" opacity="0.25"></line><line x1="216.62109375" y1="0" x2="216.62109375" y2="178" fill="rgb(0, 0, 0)" stroke="rgb(60, 60, 60)" stroke-width="1px" opacity="0.25"></line><line x1="240.69010416666669" y1="0" x2="240.69010416666669" y2="178" fill="rgb(0, 0, 0)" stroke="rgb(60, 60, 60)" stroke-width="1px" opacity="0.25"></line><line x1="264.7591145833333" y1="0" x2="264.7591145833333" y2="178" fill="rgb(0, 0, 0)" stroke="rgb(60, 60, 60)" stroke-width="1px" opacity="0.25"></line><line x1="288.828125" y1="0" x2="288.828125" y2="178" fill="rgb(0, 0, 0)" stroke="rgb(60, 60, 60)" stroke-width="1px" opacity="0.25"></line></g><g><line x1="0" y1="178" x2="288.828125" y2="178" fill="rgb(0, 0, 0)" stroke="rgb(60, 60, 60)" stroke-width="1px" opacity="0.25"></line><line x1="0" y1="161.8181818181818" x2="288.828125" y2="161.8181818181818" fill="rgb(0, 0, 0)" stroke="rgb(60, 60, 60)" stroke-width="1px" opacity="0.25"></line><line x1="0" y1="145.63636363636363" x2="288.828125" y2="145.63636363636363" fill="rgb(0, 0, 0)" stroke="rgb(60, 60, 60)" stroke-width="1px" opacity="0.25"></line><line x1="0" y1="129.45454545454547" x2="288.828125" y2="129.45454545454547" fill="rgb(0, 0, 0)" stroke="rgb(60, 60, 60)" stroke-width="1px" opacity="0.25"></line><line x1="0" y1="113.27272727272727" x2="288.828125" y2="113.27272727272727" fill="rgb(0, 0, 0)" stroke="rgb(60, 60, 60)" stroke-width="1px" opacity="0.25"></line><line x1="0" y1="97.09090909090908" x2="288.828125" y2="97.09090909090908" fill="rgb(0, 0, 0)" stroke="rgb(60, 60, 60)" stroke-width="1px" opacity="0.25"></line><line x1="0" y1="80.90909090909092" x2="288.828125" y2="80.90909090909092" fill="rgb(0, 0, 0)" stroke="rgb(60, 60, 60)" stroke-width="1px" opacity="0.25"></line><line x1="0" y1="64.72727272727273" x2="288.828125" y2="64.72727272727273" fill="rgb(0, 0, 0)" stroke="rgb(60, 60, 60)" stroke-width="1px" opacity="0.25"></line><line x1="0" y1="48.54545454545454" x2="288.828125" y2="48.54545454545454" fill="rgb(0, 0, 0)" stroke="rgb(60, 60, 60)" stroke-width="1px" opacity="0.25"></line><line x1="0" y1="32.36363636363635" x2="288.828125" y2="32.36363636363635" fill="rgb(0, 0, 0)" stroke="rgb(60, 60, 60)" stroke-width="1px" opacity="0.25"></line><line x1="0" y1="16.181818181818187" x2="288.828125" y2="16.181818181818187" fill="rgb(0, 0, 0)" stroke="rgb(60, 60, 60)" stroke-width="1px" opacity="0.25"></line><line x1="0" y1="0" x2="288.828125" y2="0" fill="rgb(0, 0, 0)" stroke="rgb(60, 60, 60)" stroke-width="1px" opacity="0.25"></line></g></g></g><g><g><line x1="0" y1="161.8181818181818" x2="288.828125" y2="161.8181818181818" fill="rgb(0, 0, 0)" stroke="rgb(153, 153, 153)" stroke-width="1.5px"></line></g></g><g><g><line x1="24.069010416666664" y1="0" x2="24.069010416666664" y2="178" fill="rgb(0, 0, 0)" stroke="rgb(153, 153, 153)" stroke-width="1.5px"></line></g></g><g><g><g><g><g><path stroke="rgb(255, 112, 67)" stroke-width="2px" d="M24.550390625000002,146.1958775433627L25.031770833333333,116.5680520772934L25.513151041666667,60.38481121134007L25.994531249999998,12.430077939683743L26.475911458333332,-74.58302859049489L31.289713541666668,-8.067446610986241L31.77109375,27.398360597348145L32.25247395833333,66.73778389003586L24.550390625000002,99.43448967004461L25.031770833333333,102.29614425284504L25.513151041666667,80.73943053078565L25.994531249999998,39.19654260409719L26.475911458333332,-31.554432231988468L31.77109375,-38.52647774379051L32.25247395833333,2.072792550944831L32.73385416666667,44.181314499071114L33.215234375,77.48399904549308L33.696614583333336,99.67921814597543L34.17799479166666,114.58701514038397L34.659375,123.00436197940398L35.14075520833334,130.40679053183268L35.622135416666666,133.65587622517012L36.103515625,137.4363995287027L36.584895833333334,138.59424006379172L37.06627604166666,140.6047300807154L37.54765625,142.57082460286614L38.02903645833333,142.53231776669995L38.510416666666664,142.51700568354568L38.991796875000006,142.62774996330816L39.47317708333333,142.12234521002264L39.95455729166667,141.7344883083169L40.4359375,140.5661251485698L40.917317708333336,139.9224841142976L41.39869791666667,140.45592990505855L41.880078125,138.46983396620422L42.36145833333333,138.50624247622468L42.84283854166667,138.6679476175264L43.32421875,138.80592525053632L43.805598958333334,138.4018850550514L44.28697916666666,138.53650315328122L44.768359375,137.56412866254308L45.24973958333334,134.59671172788796L45.731119791666664,134.3469577146669L46.2125,135.88596591214755L46.69388020833333,136.5214957765366L47.17526041666667,134.52281160055438L47.656640625,137.07460832763113L48.13802083333333,139.14192267258187L48.61940104166667,139.44191840734882L49.100781250000004,139.6927057471681L49.58216145833333,141.23508896066323L50.063541666666666,140.40669681178946L50.544921875,140.7033239508876L51.026302083333334,141.5728534542284L51.50768229166667,141.5192303095643L51.989062499999996,140.71274286713506L52.47044270833334,139.78142940058999L52.951822916666664,140.6581443474518L53.433203125,140.24050449926256L53.91458333333333,140.8604309760357L54.39596354166667,141.81730368782755L54.87734375,141.67630482844137L55.358723958333336,142.44255097456838L55.84010416666666,143.71140376894513L56.321484375000004,143.7627824940775L56.80286458333333,144.85691439446228L57.284244791666666,144.1008789070631L57.765625,144.4070926948571L58.247005208333334,144.11776031800846L58.72838541666667,144.6148158476765L59.209765624999996,145.77011071110945L59.69114583333333,146.03295808094038L60.17252604166667,145.98398696099096L60.65390625,146.32854525276645L61.13528645833333,146.6352783135473L61.61666666666667,147.1660120489971L62.098046875,146.08508835288902L62.579427083333336,146.36791275988017L63.06080729166666,145.81942872781642L63.5421875,146.89686463137645L64.02356770833333,147.10781202861503L64.50494791666667,147.24477929008938L64.986328125,146.81462532274415L65.46770833333333,146.42451369129387L65.94908854166667,145.5199812638708L66.43046875,145.87133158308498L66.91184895833334,145.98341962190355L67.39322916666667,146.65973199747407L67.87460937499999,146.88359248744706L68.35598958333333,147.1315871899669L68.83736979166667,146.97492861291926L69.31875,146.51394007235913L69.80013020833333,146.8430385803806L70.28151041666668,147.64301584315245L70.762890625,146.76420762434407L71.24427083333333,147.40914648123373L71.72565104166667,146.58829815540838L72.20703125,145.90177882416432L72.68841145833333,147.13896927689274L73.16979166666667,146.82205143668563L73.651171875,146.8884435140444L74.13255208333332,146.8606857928194L74.61393229166667,147.2759650382027L75.0953125,148.24778968160194L75.57669270833333,148.14369114849418L76.05807291666666,148.62708567464784L76.53945312500001,149.17257535096124L77.02083333333333,150.2046733760819L77.50221354166666,150.28256252063315L77.98359375000001,150.7711611134264L78.46497395833333,150.81376733566947L78.94635416666667,150.00704188305784L79.427734375,149.27831574762146L79.90911458333333,149.49442381497246L80.39049479166667,149.94938367019796L80.871875,150.7139802123838L81.35325520833334,150.77286030164126L81.83463541666667,149.66176008052088L82.31601562499999,149.9817970893226L82.79739583333334,150.14355986744633L83.27877604166666,150.76913312117358L83.76015625,150.71328887844146L84.24153645833334,150.84143322974154L84.72291666666666,150.29414538956058L85.204296875,150.21675926326625L85.68567708333335,150.59781236684756L86.16705729166667,149.68507585894022L86.6484375,150.683861361894L87.12981770833333,150.1783453607821L87.61119791666667,150.96315229148703L88.092578125,151.77591365549856L88.57395833333332,151.76520165926374L89.05533854166667,150.7516972686961L89.53671875,150.62740657810332L90.01809895833333,150.5190335194217L90.49947916666667,150.200045312098L90.980859375,151.08054382904902L91.46223958333333,151.3457553683356L91.94361979166668,151.00033227012912L92.425,150.61855830705704L92.90638020833333,151.1202464406718L93.38776041666667,151.26395937396896L93.869140625,151.59405391917008L94.35052083333333,151.81414101544246L94.83190104166665,152.41765545707153L95.31328125,152.1366762945399L95.79466145833334,152.20663579963986L96.27604166666666,151.57071885244238L96.757421875,152.27172530810296L97.23880208333334,151.6916711600926L97.72018229166666,152.40434764317692L98.20156250000001,152.09432629206626L98.68294270833333,152.94360379373342L99.16432291666666,153.00906567007215L99.645703125,152.24310376000892L100.12708333333333,152.6188293968967L100.60846354166667,152.1904562130226L101.08984375,152.15966843453964L101.57122395833333,152.64013402969573L102.05260416666667,152.73768887174143L102.53398437499999,152.82542934643797L103.01536458333334,152.61257154080178L103.49674479166667,152.13464935869627L103.97812499999999,151.36805943638475L104.45950520833334,151.4685801977972L104.94088541666667,151.42236027341355L105.422265625,151.99704987126802L105.90364583333333,153.00155185824113L106.38502604166668,153.09223755512465L106.86640625,152.3068356714748L107.34778645833333,153.19013755095617L107.82916666666667,152.84004373371533L108.310546875,151.636309398965L108.79192708333333,152.51800269773415L109.27330729166667,152.78625889680544L109.7546875,153.03987362421609L110.23606770833332,152.47369464766308L110.71744791666667,152.47789194770542L111.198828125,152.029790852106L111.68020833333333,152.58163474852392L112.16158854166666,153.06364655332135L112.64296875000001,153.02236723455516L113.12434895833333,152.78809199933573L113.60572916666666,152.6196220737414L114.08710937500001,152.97435406727618L114.56848958333333,153.14914428684565L115.04986979166667,153.62134854318228L115.53125,153.72352904251315L116.01263020833333,153.1364402258841L116.49401041666667,152.98677293652253L116.975390625,152.23736365607303L117.45677083333334,152.34240110380006L117.93815104166667,152.35947640391268L118.41953124999999,152.822651874896L118.90091145833334,152.4139835948639L119.38229166666666,152.02053211290092L119.863671875,152.1617441813203L120.34505208333334,153.0280035365743L120.82643229166666,153.01461730263637L121.3078125,151.9169304421176L121.78919270833335,152.72882401594748L122.27057291666667,153.21871357058478L122.751953125,153.27634043663465L123.23333333333333,153.5189707970982L123.71471354166667,154.21430329832174L124.19609375,154.33445979285247L124.67747395833332,153.7670788450718L125.15885416666667,152.91570237961943L125.640234375,153.38521126084052L126.12161458333333,152.62832224656114L126.60299479166667,152.86605687443705L127.084375,153.40096742031096L127.56575520833333,153.89440822346012L128.04713541666666,153.89975195644823L128.528515625,153.23007205524434L129.00989583333333,153.4692985355758L129.49127604166665,153.5893775034977L129.97265625,153.02637228651133L130.45403645833332,152.91869821099596L130.93541666666667,152.9635647434699L131.41679687500002,153.3447508261734L131.89817708333334,153.58135850726185L132.37955729166666,153.2512062987874L132.8609375,152.55441498438384L133.34231770833333,153.12045738462888L133.82369791666667,153.57708223939326L134.305078125,153.76560359168283L134.78645833333334,154.5189421776482L135.26783854166666,152.7454727957413L135.74921874999998,153.22389015743633L136.23059895833333,154.11769995964903L136.71197916666665,154.21900333483148L137.193359375,153.94728598416418L137.67473958333335,153.7919395670166L138.15611979166667,153.4666964786355L138.6375,153.52200633627797L139.11888020833334,152.9179134062035L139.60026041666666,152.9961952788295L140.081640625,153.8157952326497L140.56302083333335,154.95010429489378L141.04440104166667,154.55743948705924L141.52578125,154.43275911903774L142.00716145833331,154.28041713468613L142.48854166666666,154.39234825749625L142.969921875,154.206514169397L143.45130208333333,153.4112373916584L143.93268229166668,154.07605050092965L144.4140625,154.19842294332457L144.89544270833335,153.81632783187942L145.37682291666667,154.0340386771661L145.858203125,152.1746047595334L146.33958333333334,153.35332380625937L146.82096354166666,153.22389071541843L147.30234375,153.2172812551455L147.78372395833335,152.7016596535778L148.26510416666665,153.18316700685725L148.746484375,152.7894105322338L149.22786458333334,152.55636376402023L149.70924479166666,153.46818845189358L150.190625,153.68729780277567L150.67200520833333,154.1192147717533L151.15338541666665,154.1412661067043L151.634765625,153.4634421473489L152.11614583333332,154.2861934823513L152.59752604166667,154.8828332807255L153.07890625000002,154.60363137116192L153.5602864583333,154.63495299539335L154.04166666666666,155.57254582108965L154.523046875,155.01901662007302L155.00442708333333,155.21739232074597L155.48580729166667,154.9510913747252L155.96718750000002,154.03056337613793L156.44856770833331,153.703330850584L156.92994791666666,155.03505166572924L157.411328125,154.3128621338869L157.89270833333333,153.5513234454378L158.37408854166668,154.40865474688914L158.85546875,155.03910602354298L159.33684895833332,154.37970683436836L159.81822916666667,153.94985231620274L160.29960937500002,153.62391361056905L160.78098958333334,153.82368159307703L161.26236979166666,154.71601086624662L161.74375,154.83100949257621L162.22513020833333,154.82189095097786L162.70651041666667,154.96433669613603L163.187890625,154.45489713861446L163.66927083333334,155.07423730202856L164.15065104166666,154.8293811894502L164.63203124999998,155.53686146014118L165.11341145833333,155.8961153099781L165.59479166666668,155.78782600819144L166.076171875,155.77502956848244L166.55755208333332,156.27050804586298L167.03893229166667,155.42172966827152L167.5203125,155.46494749736848L168.00169270833334,154.97690096024638L168.48307291666669,155.58910491150272L168.96445312499998,155.44045003657894L169.44583333333333,156.58199650225797L169.92721354166667,155.59300568014675L170.40859375,154.75128141393077L170.88997395833334,155.1337357291568L171.3713541666667,155.00763196261838L171.85273437499998,154.57437852102694L172.33411458333333,155.26155655701592L172.81549479166668,154.4439443628983L173.296875,154.6941700456953L173.77825520833335,155.01511952043975L174.25963541666667,155.23454938518753L174.741015625,155.47093489130262L175.22239583333334,155.7673489971373L175.70377604166666,154.53353685009236L176.18515625,154.71886611751282L176.66653645833335,154.56940544154816L177.14791666666665,154.76150745130252L177.629296875,155.10281913981837L178.11067708333334,155.72050227109196L178.59205729166666,155.12558132952972L179.0734375,155.80650180730592L179.55481770833333,155.93506164533824L180.03619791666665,155.2955730471894L180.517578125,155.6797515871998L180.99895833333335,155.73132778011475L181.48033854166667,154.74058588246317L181.96171875,154.7960924983555L182.44309895833334,155.27892627697574L182.92447916666666,155.63064432653255L183.405859375,155.56834555324485L183.88723958333335,155.26928551631747L184.36861979166665,154.88589651065163L184.85,155.36777415614128L185.33138020833334,155.07425275745652L185.81276041666666,155.00509020303014L186.294140625,154.48556532662434L186.77552083333333,154.38939388070028L187.25690104166665,154.7715841946866L187.73828125,154.31843070743585L188.21966145833332,154.36997775540522L188.70104166666667,154.6258464298267L189.18242187500002,155.03203400556504L189.6638020833333,155.62900144318388L190.14518229166666,155.38317886301394L190.6265625,155.76025458357208L191.10794270833333,155.6668099704635L191.58932291666667,155.8820160040843L192.07070312500002,155.53092800912782L192.55208333333331,155.14090199465792L193.03346354166666,155.43883779436223L193.51484375,155.93658838981315L193.99622395833333,155.3498792049306L194.47760416666668,156.15000792637298L194.958984375,155.55385048391773L195.44036458333332,155.4633470071586L195.92174479166667,155.96810635645582L196.40312500000002,155.74478142300157L196.88450520833334,155.73176105392412L197.36588541666666,155.18012637056913L197.847265625,155.02350733049246L198.32864583333333,155.76591523855538L198.81002604166667,156.19962488741533L199.29140625,156.17678521721982L199.77278645833334,156.6942686217176L200.25416666666666,156.70336115874278L200.73554687499998,156.56815617826405L201.21692708333333,156.7201378784478L201.69830729166668,156.45938898899828L202.1796875,155.98228756751007L202.66106770833332,156.06583277887606L203.14244791666667,156.23565316242062L203.623828125,156.30035598866664L204.10520833333334,155.8749285035338L204.58658854166669,156.4724623924118L205.06796874999998,155.99540818204576L205.54934895833333,156.22889474325345L206.03072916666667,155.9278965782158L206.512109375,156.00389617086194L206.99348958333334,155.8080803893957L207.4748697916667,155.53358017277984L207.95624999999998,155.8612003671012L208.43763020833333,156.34246542137154L208.91901041666668,156.24167167516956L209.400390625,155.7144258622129L209.88177083333335,155.8378656911947L210.36315104166667,156.15991676703948L210.84453125,156.7249409878332L211.32591145833334,156.49178783939573L211.80729166666666,156.63546712252725L212.288671875,155.89490096915068L212.77005208333335,155.63179006047213L213.25143229166665,155.42380194086314L213.7328125,155.0996338887666L214.21419270833334,155.17469473838912L214.69557291666666,155.85827213686227L215.176953125,155.5253712431825L215.65833333333333,154.5229463149125L216.13971354166665,155.1406018260347L216.62109375,154.88858118423275L217.10247395833335,156.32569859984406L217.58385416666667,155.6489771765968L218.065234375,156.503585268083L218.54661458333334,156.120921389149L219.02799479166666,155.7998586653986L219.509375,156.19140436515212L219.99075520833335,156.189368124504L220.47213541666665,156.82224604046834L220.953515625,156.71936625422205L221.43489583333334,156.75123504378192L221.91627604166666,156.81249204514012L222.39765625,156.49408316417902L222.87903645833333,156.2834063995145L223.36041666666665,155.94690457620882L223.841796875,154.6227528108387L224.32317708333332,155.47080790251775L224.80455729166667,156.32707251492042L225.28593750000002,156.0938225078647L225.7673177083333,156.42664210215867L226.24869791666666,156.41429194145434L226.730078125,156.42581744392533L227.21145833333333,156.1279670111689L227.69283854166667,156.4705377303247L228.17421875000002,156.499658658231L228.65559895833331,156.25985108372146L229.13697916666666,155.6814020907458L229.618359375,155.46986894082664L230.09973958333333,155.71013812530475L230.58111979166668,155.73112441550214L231.0625,155.59831908657102L231.54388020833332,155.2921989846519L232.02526041666667,155.8422363958099L232.50664062500002,156.11118489251746L232.98802083333334,156.5409843379846L233.46940104166666,156.88314333092353L233.95078125,157.1879423652145L234.43216145833333,157.03389800274687L234.91354166666667,156.63168664169717L235.394921875,156.5166523468042L235.87630208333334,156.29167951565975L236.35768229166666,156.586074125356L236.83906249999998,156.6724079209811L237.32044270833333,156.8023175823727L237.80182291666668,157.31754296599965L238.283203125,156.96216586707428L238.76458333333332,157.2239641570299L239.24596354166667,157.2318981676521L239.72734375,156.85280659849775L240.20872395833334,156.7479683867415L240.69010416666669,156.55527909140434L241.17148437499998,156.98067792965452L241.65286458333333,157.1813433186836L242.13424479166667,156.83528687749612L242.615625,157.3023277439515L243.09700520833334,156.96077227059408L243.5783854166667,156.9217389811697L244.05976562499998,157.09463583754325L244.54114583333333,157.1492710554573L245.02252604166668,157.07364263406507L245.50390625,157.1637417958987L245.98528645833335,156.92180829262156L246.46666666666667,156.76291138603992L246.948046875,156.8231876857832L247.42942708333334,156.50692265209992L247.91080729166666,156.66194548322497L248.3921875,156.1745809616019L248.87356770833335,155.99009278576517L249.35494791666665,156.3905433028234L249.836328125,157.0542613329791L250.31770833333334,156.8309012021007L250.79908854166666,157.25287015296763L251.28046875,157.38611783333L251.76184895833333,157.65070882408247L252.24322916666665,156.85974055629032L252.724609375,156.47163291492876L253.20598958333335,156.91167700209778L253.68736979166667,157.3645001809728L254.16875,157.51839250873573L254.65013020833334,157.13443668238764L255.13151041666666,157.69196817564796L255.612890625,157.80853925735633L256.0942708333333,157.28703850122997L256.5756510416667,156.96324554884424L257.05703125,156.96752581739636L257.53841145833337,157.14295404260068L258.01979166666666,158.08372433280502L258.501171875,157.96264157655622L258.9825520833333,157.09035044886343L259.46393229166665,156.72933685831288L259.9453125,157.55088523592335" style="fill: none;" fill="none"></path></g></g></g></g><g opacity="0.2"><g><g><g><path stroke="rgb(255, 112, 67)" stroke-width="2px" d="M24.550390625000002,146.1958775433627L25.031770833333333,98.79135679765182L25.513151041666667,6.4488999800248585L25.994531249999998,-43.964688387784086L30.326953125,-60.316186523437494L30.808333333333334,4.789792008833456L31.289713541666668,61.52358828457918L31.77109375,80.57205817482688L32.25247395833333,125.7302717035467L24.550390625000002,148.47124665000223L25.031770833333333,106.58819018277254L25.513151041666667,48.406330316716975L25.994531249999998,-23.11551097523082L31.289713541666668,-62.09659146395597L31.77109375,36.15583024458451L32.25247395833333,62.97169508500534L32.73385416666667,107.34409561157227L33.215234375,127.43802500638095L33.696614583333336,132.97204645330254L34.17799479166666,136.94871049360796L34.659375,135.63038219105113L35.14075520833334,141.51043333573773L35.622135416666666,138.52950475866143L36.103515625,143.10718447945334L36.584895833333334,140.3310008655895L37.06627604166666,143.62046510523015L37.54765625,145.51996638558128L38.02903645833333,142.4745575124567L38.510416666666664,142.4940375588157L38.991796875000006,142.79386638294568L39.47317708333333,141.36423808011142L39.95455729166667,141.15270295576616L40.4359375,138.8135804089633L40.917317708333336,138.95702256289397L41.39869791666667,141.25609859119763L41.880078125,135.4906900579279L42.36145833333333,138.56085524125533L42.84283854166667,138.91050532947887L43.32421875,139.01289170005106L43.805598958333334,137.79582476182418L44.28697916666666,138.73843030062588L44.768359375,136.10556692643598L45.24973958333334,130.14558632590555L45.731119791666664,133.97232669483532L46.2125,138.19447820836848L46.69388020833333,137.47479057312012L47.17526041666667,131.52478533658115L47.656640625,140.9023034182462L48.13802083333333,142.242894190008L48.61940104166667,139.8919120094993L49.100781250000004,140.06888675689697L49.58216145833333,143.548663780906L50.063541666666666,139.16410858847877L50.544921875,141.1482646595348L51.026302083333334,142.8771477092396L51.50768229166667,141.43879559256814L51.989062499999996,139.5030117034912L52.47044270833334,138.38445920077237L52.951822916666664,141.9732167677446L53.433203125,139.61404472697865L53.91458333333333,141.7903206911954L54.39596354166667,143.25261275551537L54.87734375,141.46480653936212L55.358723958333336,143.59192019375888L55.84010416666666,145.61468296051024L56.321484375000004,143.839850581776L56.80286458333333,146.4981122450395L57.284244791666666,142.96682567596437L57.765625,144.86641337654808L58.247005208333334,143.68376175273548L58.72838541666667,145.36039914217864L59.209765624999996,147.50305300625888L59.69114583333333,146.4272291356867L60.17252604166667,145.9105302810669L60.65390625,146.8453826904297L61.13528645833333,147.09537790471856L61.61666666666667,147.96211265217175L62.098046875,144.4637028087269L62.579427083333336,146.79214937036687L63.06080729166666,144.99670267972078L63.5421875,148.51301848671653L64.02356770833333,147.4242331244729L64.50494791666667,147.4502301823009L64.986328125,146.1693943717263L65.46770833333333,145.83934624411842L65.94908854166667,144.16318262273617L66.43046875,146.3983570619063L66.91184895833334,146.1515516801314L67.39322916666667,147.67420056082986L67.87460937499999,147.21938322240655L68.35598958333333,147.50357924374666L68.83736979166667,146.73994074734773L69.31875,145.822457261519L69.80013020833333,147.33668634241278L70.28151041666668,148.84298173731025L70.762890625,145.44599529613149L71.24427083333333,148.37655476656826L71.72565104166667,145.35702566667035L72.20703125,144.87199982729825L72.68841145833333,148.99475495598534L73.16979166666667,146.34667467637496L73.651171875,146.98803163008256L74.13255208333332,146.8190492109819L74.61393229166667,147.89888390627775L75.0953125,149.70552664670078L75.57669270833333,147.98754334883256L76.05807291666666,149.3521774638783L76.53945312500001,149.99080986543134L77.02083333333333,151.7528204137629L77.50221354166666,150.39939623746005L77.98359375000001,151.5040590026162L78.46497395833333,150.8776766690341L78.94635416666667,148.7969537041404L79.427734375,148.18522654446687L79.90911458333333,149.81858591599897L80.39049479166667,150.63182345303622L80.871875,151.86087502566252L81.35325520833334,150.86118043552744L81.83463541666667,147.99510974884035L82.31601562499999,150.4618526025252L82.79739583333334,150.3862040346319L83.27877604166666,151.70749300176448L83.76015625,150.62952251434328L84.24153645833334,151.03364975669166L84.72291666666666,149.47321362928912L85.204296875,150.1006800738248L85.68567708333335,151.16939202221957L86.16705729166667,148.3159710970792L86.6484375,152.1820396163247L87.12981770833333,149.42007135911422L87.61119791666667,152.14036268754438L88.092578125,152.9950557015159L88.57395833333332,151.74913366491143L89.05533854166667,149.23144068284466L89.53671875,150.44097054221413L90.01809895833333,150.35647393139925L90.49947916666667,149.7215630011125L90.980859375,152.40129160447555L91.46223958333333,151.74357267726552L91.94361979166668,150.4821976228194L92.425,150.04589736244895L92.90638020833333,151.87277864109387L93.38776041666667,151.4795287739147L93.869140625,152.08919573697176L94.35052083333333,152.14427165985106L94.83190104166665,153.32292711951516L95.31328125,151.7152075507424L95.79466145833334,152.31157505728982L96.27604166666666,150.61684343164617L96.757421875,153.3232349915938L97.23880208333334,150.82158993807707L97.72018229166666,153.47336236780342L98.20156250000001,151.6292942654003L98.68294270833333,154.2175200462341L99.16432291666666,153.1072584845803L99.645703125,151.09416089491413L100.12708333333333,153.18241785222833L100.60846354166667,151.54789643721148L101.08984375,152.11348676681519L101.57122395833333,153.36083242242987L102.05260416666667,152.88402113481L102.53398437499999,152.9570400584828L103.01536458333334,152.29328483234752L103.49674479166667,151.417766085538L103.97812499999999,150.21817455291747L104.45950520833334,151.61936133991588L104.94088541666667,151.35303038683804L105.422265625,152.85908426804974L105.90364583333333,154.50830483870072L106.38502604166668,153.22826610045L106.86640625,151.128732846L107.34778645833333,154.51509037017823L107.82916666666667,152.31490300785413L108.310546875,149.8307078968395L108.79192708333333,153.8405426458879L109.27330729166667,153.18864319541237L109.7546875,153.42029571533203L110.23606770833332,151.6244261828336L110.71744791666667,152.4841878977689L111.198828125,151.35763920870696L111.68020833333333,153.40940059315074L112.16158854166666,153.78666426051745L112.64296875000001,152.96044825640593L113.12434895833333,152.43667914650658L113.60572916666666,152.3669171853499L114.08710937500001,153.50645205757834L114.56848958333333,153.41132961619985L115.04986979166667,154.32965492768722L115.53125,153.87679979150946L116.01263020833333,152.25580700094048L116.49401041666667,152.76227200248024L116.975390625,151.11324973539874L117.45677083333334,152.49995727539064L117.93815104166667,152.3850893540816L118.41953124999999,153.51741508137096L118.90091145833334,151.80098117481577L119.38229166666666,151.4303548899564L119.863671875,152.3735622839494L120.34505208333334,154.32739256945524L120.82643229166666,152.9945379517295L121.3078125,150.27040015133943L121.78919270833335,153.94666437669233L122.27057291666667,153.95354790254072L122.751953125,153.36278073570946L123.23333333333333,153.88291633779355L123.71471354166667,155.25730205015702L124.19609375,154.51469453464856L124.67747395833332,152.91600742340088L125.15885416666667,151.63863768144085L125.640234375,154.08947458267212L126.12161458333333,151.49298872514203L126.60299479166667,153.22265881625088L127.084375,154.2033332391219L127.56575520833333,154.63456942818382L128.04713541666666,153.9077675559304L128.528515625,152.2255522034385L129.00989583333333,153.828138256073L129.49127604166665,153.76949595538053L129.97265625,152.18186446103184L130.45403645833332,152.75718709772283L130.93541666666667,153.03086454218084L131.41679687500002,153.9165299502286L131.89817708333334,153.9362700288946L132.37955729166666,152.75597798607566L132.8609375,151.50922801277855L133.34231770833333,153.96952098499645L133.82369791666667,154.26201952153988L134.305078125,154.0483856201172L134.78645833333334,155.64895005659625L135.26783854166666,150.08526872288098L135.74921874999998,153.9415161999789L136.23059895833333,155.45841466296804L136.71197916666665,154.3709583976052L137.193359375,153.53970995816317L137.67473958333335,153.55891994129527L138.15611979166667,152.97883184606377L138.6375,153.60497112274172L139.11888020833334,152.01177401109175L139.60026041666666,153.11361808776857L140.081640625,155.04519516338001L140.56302083333335,156.6515678882599L141.04440104166667,153.96844227530738L141.52578125,154.2457385670055L142.00716145833331,154.05190415815875L142.48854166666666,154.56024494171143L142.969921875,153.9277630372481L143.45130208333333,152.21832222505049L143.93268229166668,155.07327016483654L144.4140625,154.38198160691695L144.89544270833335,153.2431851647117L145.37682291666667,154.3606049450961L145.858203125,149.38545388308438L146.33958333333334,155.1214023763483L146.82096354166666,153.02974107915705L147.30234375,153.2073670647361L147.78372395833335,151.92822725122625L148.26510416666665,153.90542803677644L148.746484375,152.19877582029864L149.22786458333334,152.20679361169988L149.70924479166666,154.83592548370362L150.190625,154.01596182909879L150.67200520833333,154.76709022521973L151.15338541666665,154.17434310913086L151.634765625,152.44670620831576L152.11614583333332,155.52032048485495L152.59752604166667,155.77779297828673L153.07890625000002,154.18482850681653L153.5602864583333,154.6819354317405L154.04166666666666,156.97893505963413L154.523046875,154.18872281854803L155.00442708333333,155.5149558717554L155.48580729166667,154.55163995569404L155.96718750000002,152.64977137825707L156.44856770833331,153.2124820622531L156.92994791666666,157.03263288844715L157.411328125,153.22957783612338L157.89270833333333,152.40901541276412L158.37408854166668,155.69465169906616L158.85546875,155.98478293852372L159.33684895833332,153.39060805060646L159.81822916666667,153.30507053895428L160.29960937500002,153.13500555211846L160.78098958333334,154.12333356683902L161.26236979166666,156.05450477600098L161.74375,155.00350743207065L162.22513020833333,154.80821313858033L162.70651041666667,155.17800531387329L163.187890625,153.69073780233208L163.66927083333334,156.00324754714964L164.15065104166666,154.46209702058272L164.63203124999998,156.59808186617764L165.11341145833333,156.43499608473346L165.59479166666668,155.62539205551147L166.076171875,155.7558349089189L166.55755208333332,157.01372576193376L167.03893229166667,154.14856210188432L167.5203125,155.52977424101397L168.00169270833334,154.2448311545632L168.48307291666669,156.50741083838722L168.96445312499998,155.21746772419323L169.44583333333333,158.29431620077654L169.92721354166667,154.10951944697987L170.40859375,153.48869501460683L170.88997395833334,155.70741720199587L171.3713541666667,154.8184763128107L171.85273437499998,153.9244983586398L172.33411458333333,156.29232361099938L172.81549479166668,153.21752607172184L173.296875,155.06950856989081L173.77825520833335,155.49654373255643L174.25963541666667,155.56369418230923L174.741015625,155.82551315047525L175.22239583333334,156.21197015588933L175.70377604166666,152.68281862952492L176.18515625,154.99686001864347L176.66653645833335,154.3452144276012L177.14791666666665,155.04966046593407L177.629296875,155.61478667259215L178.11067708333334,156.64702696800234L178.59205729166666,154.2331999171864L179.0734375,156.82788252397017L179.55481770833333,156.12790140238675L180.03619791666665,154.33634014996616L180.517578125,156.2560193972154L180.99895833333335,155.80869206948714L181.48033854166667,153.25447303598577L181.96171875,154.87935242219405L182.44309895833334,156.00317694490607L182.92447916666666,156.1582214008678L183.405859375,155.4748973933133L183.88723958333335,154.8206954609264L184.36861979166665,154.31081300215288L184.85,156.09059062437578L185.33138020833334,154.6339706594294L185.81276041666666,154.90134637139062L186.294140625,153.70627801201562L186.77552083333333,154.24513671181418L187.25690104166665,155.34486966566607L187.73828125,153.63870047655973L188.21966145833332,154.44729832735928L188.70104166666667,155.00964944145898L189.18242187500002,155.64131536917253L189.6638020833333,156.52445259961215L190.14518229166666,155.01444499275902L190.6265625,156.3258681644093L191.10794270833333,155.52664305080066L191.58932291666667,156.20482505451548L192.07070312500002,155.00429601669313L192.55208333333331,154.5558629729531L193.03346354166666,155.8857414939187L193.51484375,156.6832142829895L193.99622395833333,154.46981542760676L194.47760416666668,157.3502010085366L194.958984375,154.65961432023482L195.44036458333332,155.32759179201994L195.92174479166667,156.72524538040162L196.40312500000002,155.40979402282022L196.88450520833334,155.71223050030795L197.36588541666666,154.35267434553668L197.847265625,154.78857877037743L198.32864583333333,156.87952710064974L198.81002604166667,156.8501893607053L199.29140625,156.14252571192654L199.77278645833334,157.4704937284643L200.25416666666666,156.71699996428057L200.73554687499998,156.36534870754588L201.21692708333333,156.94811042872342L201.69830729166668,156.068265654824L202.1796875,155.26663543527778L202.66106770833332,156.19115059592508L203.14244791666667,156.49038373773746L203.623828125,156.39741022803565L204.10520833333334,155.23678727583453L204.58658854166669,157.36876322572883L205.06796874999998,155.2798268664967L205.54934895833333,156.579124585065L206.03072916666667,155.47639933065935L206.512109375,156.1178955598311L206.99348958333334,155.51435671719636L207.4748697916667,155.12182984785602L207.95624999999998,156.3526306585832L208.43763020833333,157.0643630027771L208.91901041666668,156.09048105586658L209.400390625,154.9235571427779L209.88177083333335,156.02302543466743L210.36315104166667,156.64299338080667L210.84453125,157.57247731902382L211.32591145833334,156.14205811673943L211.80729166666666,156.85098604722455L212.288671875,154.7840517390858L212.77005208333335,155.23712369745428L213.25143229166665,155.11181976144965L213.7328125,154.61338181062177L214.21419270833334,155.28728601282293L214.69557291666666,156.88363823457198L215.176953125,155.0260199026628L215.65833333333333,153.01930892250755L216.13971354166665,156.06708509271795L216.62109375,154.51055022152988L217.10247395833335,158.48137472326104L217.58385416666667,154.63389504172585L218.065234375,157.78549740531227L218.54661458333334,155.54692557074807L219.02799479166666,155.31826457977294L219.509375,156.77872291478243L219.99075520833335,156.18631376353179L220.47213541666665,157.77156291441483L220.953515625,156.5650465748527L221.43489583333334,156.79903822812167L221.91627604166666,156.9043775471774L222.39765625,156.0164698427374L222.87903645833333,155.9673912525177L223.36041666666665,155.44215184125034L223.841796875,152.63652516278353L224.32317708333332,156.74289054003629L224.80455729166667,157.6114694335244L225.28593750000002,155.74394749728117L225.7673177083333,156.92587149359963L226.24869791666666,156.39576670039784L226.730078125,156.44310569763184L227.21145833333333,155.68119136203418L227.69283854166667,156.98439380905845L228.17421875000002,156.54334005009045L228.65559895833331,155.90013972195712L229.13697916666666,154.8137286012823L229.618359375,155.15256921594795L230.09973958333333,156.07054190202192L230.58111979166668,155.76260385079817L231.0625,155.39911109317433L231.54388020833332,154.83301883177324L232.02526041666667,156.66729251254688L232.50664062500002,156.5146076375788L232.98802083333334,157.18568350618537L233.46940104166666,157.39638182033192L233.95078125,157.64514091665094L234.43216145833333,156.8028314590454L234.91354166666667,156.02836960012263L235.394921875,156.34410090446474L235.87630208333334,155.9542202689431L236.35768229166666,157.02766603990034L236.83906249999998,156.80190861441872L237.32044270833333,156.9971820744601L237.80182291666668,158.0903810414401L238.283203125,156.4291002186862L238.76458333333332,157.61666159196332L239.24596354166667,157.24379918358542L239.72734375,156.28416924476622L240.20872395833334,156.59071106910707L240.69010416666669,156.26624514839867L241.17148437499998,157.61877618702974L241.65286458333333,157.4823414022272L242.13424479166667,156.3162022157149L242.615625,158.0028890436346L243.09700520833334,156.44843906055797L243.5783854166667,156.86318904703313L244.05976562499998,157.3539811221036L244.54114583333333,157.23122388232838L245.02252604166668,156.96020000197672L245.50390625,157.29889053864912L245.98528645833335,156.55890803770586L246.46666666666667,156.52456602616743L246.948046875,156.91360213539818L247.42942708333334,156.03252510157498L247.91080729166666,156.8944797299125L248.3921875,155.4435341791673L248.87356770833335,155.7133605220101L249.35494791666665,156.99121907841075L249.836328125,158.04983837821266L250.31770833333334,156.4958610057831L250.79908854166666,157.88582357926802L251.28046875,157.58598935387352L251.76184895833333,158.04759531021116L252.24322916666665,155.67328815460203L252.724609375,155.88947145288643L253.20598958333335,157.57174313285134L253.68736979166667,158.04373494928535L254.16875,157.7492310003801L254.65013020833334,156.55850294286554L255.13151041666666,158.52826541553844L255.612890625,157.98339587991887L256.0942708333333,156.50478736704048L256.5756510416667,156.4775561202656L257.05703125,156.97394622022458L257.53841145833337,157.40609638040718L258.01979166666666,159.4948797681115L258.501171875,157.78101744218307L258.9825520833333,155.78191375732422L259.46393229166665,156.18781647248701L259.9453125,158.78320780233904" style="fill: none;" fill="none"></path></g></g></g></g></g></g><g transform="translate(41, 178)" clip-path="url(#clip_1)"><clipPath id="clip_1"><rect width="288" height="22"></rect></clipPath><g><g><line x1="0" y1="0" x2="0" y2="5" style="visibility: inherit;" fill="rgb(0, 0, 0)" stroke="rgb(204, 204, 204)" stroke-width="1px"></line><line x1="24.069010416666664" y1="0" x2="24.069010416666664" y2="5" style="visibility: inherit;" fill="rgb(0, 0, 0)" stroke="rgb(204, 204, 204)" stroke-width="1px"></line><line x1="48.13802083333333" y1="0" x2="48.13802083333333" y2="5" style="visibility: inherit;" fill="rgb(0, 0, 0)" stroke="rgb(204, 204, 204)" stroke-width="1px"></line><line x1="72.20703125" y1="0" x2="72.20703125" y2="5" style="visibility: inherit;" fill="rgb(0, 0, 0)" stroke="rgb(204, 204, 204)" stroke-width="1px"></line><line x1="96.27604166666666" y1="0" x2="96.27604166666666" y2="5" style="visibility: inherit;" fill="rgb(0, 0, 0)" stroke="rgb(204, 204, 204)" stroke-width="1px"></line><line x1="120.34505208333334" y1="0" x2="120.34505208333334" y2="5" style="visibility: inherit;" fill="rgb(0, 0, 0)" stroke="rgb(204, 204, 204)" stroke-width="1px"></line><line x1="144.4140625" y1="0" x2="144.4140625" y2="5" style="visibility: inherit;" fill="rgb(0, 0, 0)" stroke="rgb(204, 204, 204)" stroke-width="1px"></line><line x1="168.48307291666669" y1="0" x2="168.48307291666669" y2="5" style="visibility: inherit;" fill="rgb(0, 0, 0)" stroke="rgb(204, 204, 204)" stroke-width="1px"></line><line x1="192.55208333333331" y1="0" x2="192.55208333333331" y2="5" style="visibility: inherit;" fill="rgb(0, 0, 0)" stroke="rgb(204, 204, 204)" stroke-width="1px"></line><line x1="216.62109375" y1="0" x2="216.62109375" y2="5" style="visibility: inherit;" fill="rgb(0, 0, 0)" stroke="rgb(204, 204, 204)" stroke-width="1px"></line><line x1="240.69010416666669" y1="0" x2="240.69010416666669" y2="5" style="visibility: inherit;" fill="rgb(0, 0, 0)" stroke="rgb(204, 204, 204)" stroke-width="1px"></line><line x1="264.7591145833333" y1="0" x2="264.7591145833333" y2="5" style="visibility: inherit;" fill="rgb(0, 0, 0)" stroke="rgb(204, 204, 204)" stroke-width="1px"></line><line x1="288.828125" y1="0" x2="288.828125" y2="5" style="visibility: inherit;" fill="rgb(0, 0, 0)" stroke="rgb(204, 204, 204)" stroke-width="1px"></line></g><g transform="translate(0, 8)"><text x="0" y="0" dx="0em" dy="0.95em" style="text-anchor: middle; visibility: hidden; font-family: Roboto, sans-serif; font-size: 12px; font-weight: 200;" fill="rgb(50, 49, 63)" stroke="none" stroke-width="1px">-1k</text><text x="24.069010416666664" y="0" dx="0em" dy="0.95em" style="text-anchor: middle; visibility: inherit; font-family: Roboto, sans-serif; font-size: 12px; font-weight: 200;" fill="rgb(50, 49, 63)" stroke="none" stroke-width="1px">0</text><text x="48.13802083333333" y="0" dx="0em" dy="0.95em" style="text-anchor: middle; visibility: inherit; font-family: Roboto, sans-serif; font-size: 12px; font-weight: 200;" fill="rgb(50, 49, 63)" stroke="none" stroke-width="1px">1k</text><text x="72.20703125" y="0" dx="0em" dy="0.95em" style="text-anchor: middle; visibility: inherit; font-family: Roboto, sans-serif; font-size: 12px; font-weight: 200;" fill="rgb(50, 49, 63)" stroke="none" stroke-width="1px">2k</text><text x="96.27604166666666" y="0" dx="0em" dy="0.95em" style="text-anchor: middle; visibility: inherit; font-family: Roboto, sans-serif; font-size: 12px; font-weight: 200;" fill="rgb(50, 49, 63)" stroke="none" stroke-width="1px">3k</text><text x="120.34505208333334" y="0" dx="0em" dy="0.95em" style="text-anchor: middle; visibility: inherit; font-family: Roboto, sans-serif; font-size: 12px; font-weight: 200;" fill="rgb(50, 49, 63)" stroke="none" stroke-width="1px">4k</text><text x="144.4140625" y="0" dx="0em" dy="0.95em" style="text-anchor: middle; visibility: inherit; font-family: Roboto, sans-serif; font-size: 12px; font-weight: 200;" fill="rgb(50, 49, 63)" stroke="none" stroke-width="1px">5k</text><text x="168.48307291666669" y="0" dx="0em" dy="0.95em" style="text-anchor: middle; visibility: inherit; font-family: Roboto, sans-serif; font-size: 12px; font-weight: 200;" fill="rgb(50, 49, 63)" stroke="none" stroke-width="1px">6k</text><text x="192.55208333333331" y="0" dx="0em" dy="0.95em" style="text-anchor: middle; visibility: inherit; font-family: Roboto, sans-serif; font-size: 12px; font-weight: 200;" fill="rgb(50, 49, 63)" stroke="none" stroke-width="1px">7k</text><text x="216.62109375" y="0" dx="0em" dy="0.95em" style="text-anchor: middle; visibility: inherit; font-family: Roboto, sans-serif; font-size: 12px; font-weight: 200;" fill="rgb(50, 49, 63)" stroke="none" stroke-width="1px">8k</text><text x="240.69010416666669" y="0" dx="0em" dy="0.95em" style="text-anchor: middle; visibility: inherit; font-family: Roboto, sans-serif; font-size: 12px; font-weight: 200;" fill="rgb(50, 49, 63)" stroke="none" stroke-width="1px">9k</text><text x="264.7591145833333" y="0" dx="0em" dy="0.95em" style="text-anchor: middle; visibility: inherit; font-family: Roboto, sans-serif; font-size: 12px; font-weight: 200;" fill="rgb(50, 49, 63)" stroke="none" stroke-width="1px">10k</text><text x="288.828125" y="0" dx="0em" dy="0.95em" style="text-anchor: middle; visibility: hidden; font-family: Roboto, sans-serif; font-size: 12px; font-weight: 200;" fill="rgb(50, 49, 63)" stroke="none" stroke-width="1px">11k</text></g><line x1="0" y1="0" x2="288.828125" y2="0" fill="rgb(0, 0, 0)" stroke="rgb(204, 204, 204)" stroke-width="1px"></line></g></g></g></g></svg>