<svg viewBox="0 0 330 200" xmlns="http://www.w3.org/2000/svg"><g><g><g><g><g><line x1="61.953125" y1="178" x2="56.953125" y2="178" style="visibility: inherit;" fill="rgb(0, 0, 0)" stroke="rgb(204, 204, 204)" stroke-width="1px"></line><line x1="61.953125" y1="160.20000000000002" x2="56.953125" y2="160.20000000000002" style="visibility: inherit;" fill="rgb(0, 0, 0)" stroke="rgb(204, 204, 204)" stroke-width="1px"></line><line x1="61.953125" y1="142.4" x2="56.953125" y2="142.4" style="visibility: inherit;" fill="rgb(0, 0, 0)" stroke="rgb(204, 204, 204)" stroke-width="1px"></line><line x1="61.953125" y1="124.6" x2="56.953125" y2="124.6" style="visibility: inherit;" fill="rgb(0, 0, 0)" stroke="rgb(204, 204, 204)" stroke-width="1px"></line><line x1="61.953125" y1="106.8" x2="56.953125" y2="106.8" style="visibility: inherit;" fill="rgb(0, 0, 0)" stroke="rgb(204, 204, 204)" stroke-width="1px"></line><line x1="61.953125" y1="88.99999999999999" x2="56.953125" y2="88.99999999999999" style="visibility: inherit;" fill="rgb(0, 0, 0)" stroke="rgb(204, 204, 204)" stroke-width="1px"></line><line x1="61.953125" y1="71.19999999999999" x2="56.953125" y2="71.19999999999999" style="visibility: inherit;" fill="rgb(0, 0, 0)" stroke="rgb(204, 204, 204)" stroke-width="1px"></line><line x1="61.953125" y1="53.400000000000006" x2="56.953125" y2="53.400000000000006" style="visibility: inherit;" fill="rgb(0, 0, 0)" stroke="rgb(204, 204, 204)" stroke-width="1px"></line><line x1="61.953125" y1="35.599999999999994" x2="56.953125" y2="35.599999999999994" style="visibility: inherit;" fill="rgb(0, 0, 0)" stroke="rgb(204, 204, 204)" stroke-width="1px"></line><line x1="61.953125" y1="17.799999999999997" x2="56.953125" y2="17.799999999999997" style="visibility: inherit;" fill="rgb(0, 0, 0)" stroke="rgb(204, 204, 204)" stroke-width="1px"></line><line x1="61.953125" y1="0" x2="56.953125" y2="0" style="visibility: inherit;" fill="rgb(0, 0, 0)" stroke="rgb(204, 204, 204)" stroke-width="1px"></line></g><g transform="translate(51.953125, 0)"><text x="0" y="178" dx="0em" dy="0.3em" style="text-anchor: end; visibility: hidden; font-family: Roboto, sans-serif; font-size: 12px; font-weight: 200;" fill="rgb(50, 49, 63)" stroke="none" stroke-width="1px">-0.02</text><text x="0" y="160.20000000000002" dx="0em" dy="0.3em" style="text-anchor: end; visibility: inherit; font-family: Roboto, sans-serif; font-size: 12px; font-weight: 200;" fill="rgb(50, 49, 63)" stroke="none" stroke-width="1px">0</text><text x="0" y="142.4" dx="0em" dy="0.3em" style="text-anchor: end; visibility: hidden; font-family: Roboto, sans-serif; font-size: 12px; font-weight: 200;" fill="rgb(50, 49, 63)" stroke="none" stroke-width="1px">0.02</text><text x="0" y="124.6" dx="0em" dy="0.3em" style="text-anchor: end; visibility: inherit; font-family: Roboto, sans-serif; font-size: 12px; font-weight: 200;" fill="rgb(50, 49, 63)" stroke="none" stroke-width="1px">0.04</text><text x="0" y="106.8" dx="0em" dy="0.3em" style="text-anchor: end; visibility: hidden; font-family: Roboto, sans-serif; font-size: 12px; font-weight: 200;" fill="rgb(50, 49, 63)" stroke="none" stroke-width="1px">0.06</text><text x="0" y="88.99999999999999" dx="0em" dy="0.3em" style="text-anchor: end; visibility: inherit; font-family: Roboto, sans-serif; font-size: 12px; font-weight: 200;" fill="rgb(50, 49, 63)" stroke="none" stroke-width="1px">0.08</text><text x="0" y="71.19999999999999" dx="0em" dy="0.3em" style="text-anchor: end; visibility: hidden; font-family: Roboto, sans-serif; font-size: 12px; font-weight: 200;" fill="rgb(50, 49, 63)" stroke="none" stroke-width="1px">0.1</text><text x="0" y="53.400000000000006" dx="0em" dy="0.3em" style="text-anchor: end; visibility: inherit; font-family: Roboto, sans-serif; font-size: 12px; font-weight: 200;" fill="rgb(50, 49, 63)" stroke="none" stroke-width="1px">0.12</text><text x="0" y="35.599999999999994" dx="0em" dy="0.3em" style="text-anchor: end; visibility: hidden; font-family: Roboto, sans-serif; font-size: 12px; font-weight: 200;" fill="rgb(50, 49, 63)" stroke="none" stroke-width="1px">0.14</text><text x="0" y="17.799999999999997" dx="0em" dy="0.3em" style="text-anchor: end; visibility: inherit; font-family: Roboto, sans-serif; font-size: 12px; font-weight: 200;" fill="rgb(50, 49, 63)" stroke="none" stroke-width="1px">0.16</text><text x="0" y="0" dx="0em" dy="0.3em" style="text-anchor: end; visibility: hidden; font-family: Roboto, sans-serif; font-size: 12px; font-weight: 200;" fill="rgb(50, 49, 63)" stroke="none" stroke-width="1px">0.18</text></g><line x1="61.953125" y1="0" x2="61.953125" y2="178" fill="rgb(0, 0, 0)" stroke="rgb(204, 204, 204)" stroke-width="1px"></line></g></g><g transform="translate(61, 0)" clip-path="url(#clip_0)"><clipPath id="clip_0"><rect width="268" height="178"></rect></clipPath><g><g><g><line x1="0" y1="0" x2="0" y2="178" fill="rgb(0, 0, 0)" stroke="rgb(60, 60, 60)" stroke-width="1px" opacity="0.25"></line><line x1="24.367897727272727" y1="0" x2="24.367897727272727" y2="178" fill="rgb(0, 0, 0)" stroke="rgb(60, 60, 60)" stroke-width="1px" opacity="0.25"></line><line x1="48.73579545454545" y1="0" x2="48.73579545454545" y2="178" fill="rgb(0, 0, 0)" stroke="rgb(60, 60, 60)" stroke-width="1px" opacity="0.25"></line><line x1="73.10369318181817" y1="0" x2="73.10369318181817" y2="178" fill="rgb(0, 0, 0)" stroke="rgb(60, 60, 60)" stroke-width="1px" opacity="0.25"></line><line x1="97.4715909090909" y1="0" x2="97.4715909090909" y2="178" fill="rgb(0, 0, 0)" stroke="rgb(60, 60, 60)" stroke-width="1px" opacity="0.25"></line><line x1="121.83948863636363" y1="0" x2="121.83948863636363" y2="178" fill="rgb(0, 0, 0)" stroke="rgb(60, 60, 60)" stroke-width="1px" opacity="0.25"></line><line x1="146.20738636363635" y1="0" x2="146.20738636363635" y2="178" fill="rgb(0, 0, 0)" stroke="rgb(60, 60, 60)" stroke-width="1px" opacity="0.25"></line><line x1="170.5752840909091" y1="0" x2="170.5752840909091" y2="178" fill="rgb(0, 0, 0)" stroke="rgb(60, 60, 60)" stroke-width="1px" opacity="0.25"></line><line x1="194.9431818181818" y1="0" x2="194.9431818181818" y2="178" fill="rgb(0, 0, 0)" stroke="rgb(60, 60, 60)" stroke-width="1px" opacity="0.25"></line><line x1="219.31107954545456" y1="0" x2="219.31107954545456" y2="178" fill="rgb(0, 0, 0)" stroke="rgb(60, 60, 60)" stroke-width="1px" opacity="0.25"></line><line x1="243.67897727272725" y1="0" x2="243.67897727272725" y2="178" fill="rgb(0, 0, 0)" stroke="rgb(60, 60, 60)" stroke-width="1px" opacity="0.25"></line><line x1="268.046875" y1="0" x2="268.046875" y2="178" fill="rgb(0, 0, 0)" stroke="rgb(60, 60, 60)" stroke-width="1px" opacity="0.25"></line></g><g><line x1="0" y1="178" x2="268.046875" y2="178" fill="rgb(0, 0, 0)" stroke="rgb(60, 60, 60)" stroke-width="1px" opacity="0.25"></line><line x1="0" y1="160.20000000000002" x2="268.046875" y2="160.20000000000002" fill="rgb(0, 0, 0)" stroke="rgb(60, 60, 60)" stroke-width="1px" opacity="0.25"></line><line x1="0" y1="142.4" x2="268.046875" y2="142.4" fill="rgb(0, 0, 0)" stroke="rgb(60, 60, 60)" stroke-width="1px" opacity="0.25"></line><line x1="0" y1="124.6" x2="268.046875" y2="124.6" fill="rgb(0, 0, 0)" stroke="rgb(60, 60, 60)" stroke-width="1px" opacity="0.25"></line><line x1="0" y1="106.8" x2="268.046875" y2="106.8" fill="rgb(0, 0, 0)" stroke="rgb(60, 60, 60)" stroke-width="1px" opacity="0.25"></line><line x1="0" y1="88.99999999999999" x2="268.046875" y2="88.99999999999999" fill="rgb(0, 0, 0)" stroke="rgb(60, 60, 60)" stroke-width="1px" opacity="0.25"></line><line x1="0" y1="71.19999999999999" x2="268.046875" y2="71.19999999999999" fill="rgb(0, 0, 0)" stroke="rgb(60, 60, 60)" stroke-width="1px" opacity="0.25"></line><line x1="0" y1="53.400000000000006" x2="268.046875" y2="53.400000000000006" fill="rgb(0, 0, 0)" stroke="rgb(60, 60, 60)" stroke-width="1px" opacity="0.25"></line><line x1="0" y1="35.599999999999994" x2="268.046875" y2="35.599999999999994" fill="rgb(0, 0, 0)" stroke="rgb(60, 60, 60)" stroke-width="1px" opacity="0.25"></line><line x1="0" y1="17.799999999999997" x2="268.046875" y2="17.799999999999997" fill="rgb(0, 0, 0)" stroke="rgb(60, 60, 60)" stroke-width="1px" opacity="0.25"></line><line x1="0" y1="0" x2="268.046875" y2="0" fill="rgb(0, 0, 0)" stroke="rgb(60, 60, 60)" stroke-width="1px" opacity="0.25"></line></g></g></g><g><g><line x1="0" y1="160.20000000000002" x2="268.046875" y2="160.20000000000002" fill="rgb(0, 0, 0)" stroke="rgb(153, 153, 153)" stroke-width="1.5px"></line></g></g><g><g><line x1="24.367897727272727" y1="0" x2="24.367897727272727" y2="178" fill="rgb(0, 0, 0)" stroke="rgb(153, 153, 153)" stroke-width="1.5px"></line></g></g><g><g><g><g><g><path stroke="rgb(255, 112, 67)" stroke-width="2px" d="M24.47024289772727,5.457744789123539L24.774841619318185,76.27183128595351L24.925922585227273,95.13575106622004L24.93810653409091,95.43585177601916L25.033141335227274,80.10776989187612L25.522936079545453,95.92027466401943L25.674017045454544,83.35617508169413L25.77879900568182,99.8892487005132L25.79585653409091,59.29425621823648L25.912822443181817,84.92515738460044L25.944500710227274,87.70673198281759L26.107765625,89.94493947465057L26.336823863636365,76.96485624279126L26.838802556818184,80.71722128388627L27.616138494318182,90.34277035315806L27.62588565340909,99.15165367143844L27.7428515625,103.31435977620046L27.75990909090909,114.8540967512773L27.86712784090909,106.1980767683875L28.488509232954545,96.45584610204841L28.593291193181816,94.85676166185877L28.6006015625,85.3332201793735L28.94175213068182,68.51694097318135L29.039223721590908,79.54056085007268L29.329201704545454,86.50074922165314L29.7263984375,75.9765686036348L29.87991619318182,95.83971073016816L29.989571732954545,92.82488487347409L30.189388494318184,81.60653985442418L30.30391761363636,76.23245930896276L30.4233203125,64.07913964131914L30.425757102272726,78.53627808080431L30.454998579545453,75.19936423452374L30.910678267045455,51.88830257474437L31.044701704545457,22.86250919166279L31.770865056818185,51.92008768407367L32.23872869318182,82.55251304503095L32.27771732954545,89.36157198689969L32.421487926136365,58.21611829460247L33.184203124999996,60.191083676239884L33.18907670454546,69.14832801620604L33.31091619318182,89.7185512808634L33.48392826704546,100.16358450104423L33.66181392045455,105.2581836461884L33.67887144886363,94.57523509509753L33.93960795454546,86.16892783260008L34.00783806818182,95.33280501528498L34.20278125,102.49792093092742L34.887519176136365,101.4673094561828L35.08977272727273,102.15889462180296L35.31395738636364,95.11601812327878L35.3553828125,94.93352815201811L35.76232670454546,88.05921147757122L36.03524715909091,78.81135471637086L36.4811796875,70.94709757431868L36.810146306818176,45.894172407763804L36.87837642045455,40.249666539177554L37.392539062500006,65.21354615411221L37.42665411931819,75.02100442362541L37.889644176136365,67.28952999301345L38.20642684659091,81.288743783162L38.31364559659091,92.39190468020814L38.52077272727272,75.08076600210396L38.65723295454546,79.81574511394818L38.67429048295455,68.48088400760837L38.76201491477273,90.33171534538003L38.96426846590909,83.06537823557693L39.47599431818182,92.3151861100187L39.522293323863636,99.71050268404426L39.692868607954544,99.69280450816595L40.387353693181815,-12.208407747294679L46.14061434659091,-15.633395160639976L46.28194815340909,7.452796329614676L46.932571022727274,20.264804933999272L47.439423295454546,36.818873049339246L47.648987215909095,18.19317465395961L47.680665482954545,50.27768652541181L24.372771306818183,57.41239085020269L24.726105823863637,68.42846180213478L24.882060369318182,90.44364317067257L25.781235795454545,71.21409134034987L25.79829332386364,91.05465235569879L26.0809609375,89.5370790365863L26.27590411931818,87.38773115179112L26.380686079545455,75.55892765820724L26.587813210227274,91.97467786431731L26.95333167613636,88.16835403537999L27.00937784090909,104.1204896741882L27.306666193181815,102.28386270724384L27.313976562500002,86.44693184210449L27.462620738636364,93.51347733207696L27.482115056818184,81.97619203608127L27.59420738636364,70.11953542638355L27.794024147727274,80.58497156386693L28.56648650568182,95.7179681121416L28.695636363636364,110.70983335012836L28.84184375,89.16154517194417L28.92469460227273,83.94284532225599L29.214672585227273,77.66738825176043L29.39499502840909,30.413301622473497L29.906720880681817,-118.5981281020622L36.483616477272726,-9.308682751545323L36.52991548295454,25.520744059151987L36.75410014204545,62.91048938731349L36.82720383522727,69.69749508798118L36.98315838068182,57.002122350335085L37.02945738636364,68.83189101564882L38.08215056818182,100.29703718333245L38.445232244318184,116.84171058809042L38.52808309659091,85.98484474942252L39.09585511363637,109.89040620669823L39.154338068181815,112.62791678515136L40.01208806818182,108.27150409225858L40.336181107954545,119.42098353120228L40.51162997159091,116.85611192353095L41.42786292613636,116.83934017579273L41.70078338068182,114.3478432438404L41.81774928977273,125.32960888276286L41.92009446022727,134.84033203470577L42.32703835227273,124.21164279668254L42.402578835227274,117.73636845224334L42.87775284090909,101.86326056881684L42.938672585227266,102.00447140910588L42.992281960227274,93.66621522056082L43.48938707386364,100.14108597187412L43.52350213068182,114.50428138225205L43.59416903409091,108.10471488743379L43.61366335227273,97.40525714462609L44.761391335227266,105.81668162170416L45.701992187500004,91.49031273498157L47.32245738636363,103.2932945476414L47.45160724431818,114.2254988799358L47.700159801136365,114.5269015568414L48.33372514204545,119.77485714363567L48.59933522727273,114.2860720801801L48.63345028409091,126.99911459704938L48.821083096590904,126.50155545604648L49.10131392045455,111.44345360477222L49.46439559659091,107.82564246821077L49.60572940340909,102.6650515614013L49.627660511363636,116.17684828180435L49.812856534090905,113.83072323941207L50.07115625,109.92659109916103L50.09065056818182,83.3551777057994L50.26366264204545,97.39970236618213L50.54876704545455,117.72416170253688L50.790009232954546,100.75968091854054L50.792446022727276,106.78104508202432L50.88504403409091,108.98821534860824L51.37483877840909,109.46521812646803L51.38214914772727,107.86484115880259L51.50155184659091,104.40829844094233L51.56003480113636,111.99330805907795L52.1083125,110.1805535970339L52.264267045454545,109.8643441228991L52.42265838068182,110.68883775227818L52.47870454545454,107.7242611429307L52.69070525568181,97.96920838124828L52.86615411931818,95.16006007771061L53.187810369318186,106.09915431010943L53.97976704545455,112.51494075935018L54.94717258522727,109.21829056072791L55.06170170454545,125.62542493867015L55.15429971590909,117.65403023974379L55.22252982954546,106.78103291640448L55.50032386363637,112.83348425596814L56.397062500000004,109.08081529837763L57.12322585227273,113.90517585636326L57.14759375,109.69584736800878L57.2548125,121.70263933465893L57.31816903409091,124.54393917397269L57.42782457386364,124.87417296693091L57.48387073863636,118.39558228209832L57.66662997159091,130.04022586885227L57.82745809659091,130.87123826946694L58.10281534090909,135.85524313810993L58.41959801136364,133.07564563133434L58.446402698863636,128.94024443255734L58.49513849431818,127.08293199197573L59.07265767045455,118.23060156378816L59.416245028409094,124.4767763571362L59.58194673295455,111.10031817176463L59.91091335227273,114.89066044460844L59.91578693181818,118.3375730530686L60.00838494318182,121.80409860290688L60.06443110795455,122.11533477591037L60.736985085227275,117.20393331936931L60.975790482954544,110.42354783351384L60.995284801136364,115.90746589741205L61.41928622159091,114.14314652109799L61.499700284090906,111.94492581441793L61.68002272727273,100.93280628773446L61.77505752840909,121.79742841871307L62.27703622159091,120.68846766204669L62.469542613636364,121.9966276696386L62.613313210227275,126.55675976670159L63.33216619318182,123.36442692277653L63.63920170454545,126.72738284467354L63.72448934659091,128.30047908960995L63.90481178977272,138.597970460142L64.25814630681819,128.17234932320434L64.31906605113636,121.07355375133227L64.47502059659091,110.11048559452456L64.83566548295454,108.86785333994247L65.07934446022728,124.6608771588994L65.242609375,128.23123592803435L66.03943963068181,127.33343968671296L66.04187642045454,117.9397287230595L66.1174169034091,122.18726864700938L66.88013210227273,134.1623756977643L66.90937357954546,124.16137367324384L66.91912073863637,123.71460174105378L66.9215575284091,122.50405758548862L67.20178835227271,120.97259171443633L67.76468678977274,124.4865826841441L68.0034921875,127.59241612888857L68.04491761363636,130.22988913170983L68.08877982954546,127.55463886566454L68.54445951704547,126.68809644047911L68.76620738636363,123.33325484075841L68.84905823863636,118.61603028463541L68.89292045454545,125.75924071483148L69.75310724431819,123.56117049224574L70.03821164772727,126.06487874488472L70.06988991477273,137.795201656821L70.29407457386364,137.25499735510505L70.36474147727273,128.17806398294064L70.4597762784091,129.28725681139048L71.33458380681817,138.61966819976578L71.39794034090909,132.65834947952513L71.49784872159091,133.4174527724319L71.55876846590908,132.51393959103424L71.89748224431817,120.52933462249278L72.04856321022727,123.62328654877567L72.55541548295454,128.1705269464983L72.59440411931818,138.04453405538996L72.7747265625,130.06184253454092L72.89656605113636,124.15072376227306L73.22796946022727,116.2475832551475L73.4277862215909,112.6647065150592L73.85666122159091,116.59003021406252L73.92001775568183,131.41180543906762L74.06866193181818,128.48416386012596L74.2684786931818,123.43938768365598L74.4366171875,128.6437635168947L74.53652556818182,139.6717910141061L74.64130752840909,146.4253475319779L74.96296377840909,146.32659377643085L74.9897684659091,140.48534028106104L75.33579261363636,135.99571111901503L75.56485085227273,138.0340705195302L75.59896590909091,135.20419082994664L77.27060369318183,132.52482479664926L77.36076491477273,124.43631201179768L77.97727272727272,126.15552331204381L78.25019318181818,133.2513217806528L78.40858451704545,132.64231492338837L78.42564204545454,129.34954105054297L78.56210227272727,112.35480684658857L78.58403338068182,125.00373996896131L78.72780397727273,136.24613259600153L78.75948224431818,127.21751625637143L79.14205823863635,130.7170123195644L79.22247230113636,136.87187508439993L79.77806036931818,132.18242104945168L80.03879687499999,133.3082263851022L80.31902769886364,130.22500528179737L80.43843039772727,127.20277915050467L80.574890625,124.66317605942413L80.896546875,127.23845411699966L80.91604119318183,118.39637858964178L81.23769744318182,126.73091188727123L81.52523863636364,124.73154865776482L81.59103196022727,123.43167239949098L81.59590553977273,123.37362830236546L81.81521661931818,123.30312299546596L81.98579190340908,115.1810306943476L82.06864275568182,131.44482016068815L82.13687286931818,117.06925381602119L82.92882954545455,113.17498397637169L82.95076065340909,118.2201096839235L82.98000213068183,125.52261470744166L83.02630113636364,136.4245569440076L83.0677265625,139.2478869266718L83.19931321022727,121.18671212717351L83.2285546875,125.30199378385817L83.28947443181819,123.41153849634335L83.3796356534091,129.18672441555742L83.63306178977273,131.86779117979816L83.67936079545454,124.39356225251085L83.93522372159092,126.75060293268515L84.47375426136364,125.4203370451412L84.52492684659092,132.05967573937662L84.6589502840909,134.13994772086673L84.87095099431818,137.54354080200272L85.0512734375,136.20206453466463L85.49964275568182,132.9693380943778L86.83987713068181,142.65730768613327L86.89104971590909,142.55443715585653L86.91054403409092,131.0216228445374L86.94709588068181,139.07179171577116L87.20539559659092,140.18503144404303L87.42470667613637,140.39272569311268L87.90719105113637,141.22623572792176L87.92424857954545,142.06616942045426L88.0972606534091,143.58657763455713L88.35068678977272,145.51926972779276L88.3921122159091,132.79496029086496L88.55537713068182,124.27168974499455L89.06466619318182,126.57738688302368L89.13533309659091,134.65357987143L89.99795667613637,136.1018338999593L90.07106036931819,131.29077011236214L90.117359375,120.4766611557523L90.33423366477273,126.50245280303476L90.46094673295454,132.14392355256032L90.53648721590909,138.37396043671816L90.67538423295454,136.77316864391358L91.3138231534091,136.1894414148342L91.39423721590909,144.30904502095945L92.01074502840909,131.68942123485903L92.09359588068182,134.10142378588498L92.76371306818181,138.57814190912237L93.03663352272729,145.29822607891552L93.8066590909091,141.21609370623105L94.40854616477273,139.9502040953283L94.44753480113637,140.92605713998344L94.47433948863636,132.21138166961114L94.90321448863637,138.69658109025383L95.04454829545455,138.3606815444006L95.09328409090908,125.00994703987678L95.38569886363636,131.89986245107318L95.72928622159091,129.2733561937312L95.78776917613636,134.81025298531648L96.35310440340909,134.5091862776625L96.496875,118.63843140475439L96.52367968749999,129.53533711446815L97.48621164772726,134.7719379452675L97.55444176136365,135.87481637107192L97.67871803977273,125.64820308748993L97.91508664772728,125.4221168432481L97.99062713068182,123.09378812037984L98.00281107954547,121.12352092339444L98.26111079545454,120.30450160547403L98.93366477272727,128.05639668878501L99.43076988636363,131.14650818631998L99.78897798295453,137.05919563457937L99.82796661931818,132.4315741210316L99.8377137784091,130.32233877951708L99.9181278409091,125.2564133511472L99.96686363636363,129.2546956590705L100.14474928977272,132.4752838243182L100.74663636363636,135.4473841255388L100.96107386363637,144.19233914940693L101.24374147727272,146.2560528786727L101.30953480113635,141.3127942712157L101.48011008522727,136.11671280032687L101.64581178977272,140.48075687641676L101.96259446022728,140.5570567372726L102.0015830965909,144.35669965316572L103.11763281249999,136.23491805535386L103.41248437499999,132.1094776662697L103.68053124999999,134.9094564618176L104.18250994318183,133.97992248424922L104.22637215909091,134.02032179617308L104.73809801136365,111.14964262117994L105.4764453125,117.83734281820088L106.200171875,129.55376412130613L106.78500142045455,138.9830920827819L106.8702890625,145.50600902437765L107.00187571022727,143.3839289262867L107.07985298295453,139.98109735220527L107.25530184659091,133.24587723594817L107.32109517045454,136.2810890452976L107.33084232954546,123.98737423759192L107.48436008522727,132.88607808018617L107.91079829545455,136.3493897310787L107.9424765625,136.6325196368631L108.13741974431818,134.4303356869898L108.14716690340909,125.58675352000483L108.23489133522727,129.62390041985088L108.44689204545455,133.45583728365884L108.46394957386363,134.03088929779997L108.57116832386363,139.97442427472873L108.70031818181819,138.64296648500326L109.38505610795454,137.3891788655398L109.91383948863636,135.67058811866508L109.94795454545455,141.6200322990612L110.30859943181818,138.78011294394707L110.64975,139.44141913795457L111.15172869318181,142.82768833052506L111.17365980113635,140.5377506700837L111.30280965909091,141.54661741213104L111.63177627840909,133.8420368084675L111.71950071022728,126.1065340268234L111.9997315340909,131.93132413969155L112.91352769886363,127.5770557453973L113.05242471590908,126.09371176724093L113.24493110795454,132.2849761048821L113.33265553977273,134.7277770566861L113.6080127840909,137.88487350391867L113.64700142045454,138.279397633657L113.8395078125,140.2820307761342L114.04907173295454,141.91652719854775L115.75238778409091,140.72762534010093L115.85716974431818,143.8199692832689L116.00337713068181,142.1019412888444L116.05211292613637,144.88538577591518L116.33478053977272,140.30439796885932L116.46149360795455,139.985450927264L116.60770099431818,141.33221466949374L116.69542542613635,135.4526710653948L116.82457528409091,133.70722957996412L116.86600071022727,136.0444037994616L116.90011576704545,142.19536441778376L116.9585987215909,140.4034406901314L116.98784019886364,132.81549279337608L117.082875,127.96408162859372L117.11699005681818,127.50537961213166L117.41915198863637,134.20297752194628L117.57754332386364,139.39183645351542L117.63358948863636,129.78249320807345L117.89188920454546,132.538884295358L118.14775213068181,142.11065655057652L118.25984446022727,142.66458626332894L118.97869744318182,144.42796756576308L119.76334374999999,141.0400531369496L120.09962073863636,127.86248105514339L120.80628977272727,131.06868766575033L120.93787642045454,134.84641605990512L120.99879616477273,130.25212044821612L121.30583167613636,135.75281998131533L121.50321164772727,143.16576146506583L121.65185582386364,145.8838375767965L121.69815482954546,146.88354273980255L122.5948934659091,146.67812301603195L122.71673295454545,147.89373247586033L122.9433544034091,148.42762406729068L122.98234303977272,148.11059033565166L123.05544673295455,138.39288911814953L123.23333238636364,139.61952488509095L123.51112642045454,141.86661227755116L124.11301349431818,140.18283032335262L124.11788707386363,143.02566063110484L124.57600355113637,142.89551607969076L124.96588991477273,138.70421232284707L125.34359232954546,140.4396684351659L125.57021377840908,130.42182987410402L125.70423721590909,131.67081690298662L125.85044460227273,137.86484412412133L126.84465482954545,140.04078641450576L126.96162073863636,140.44094812253815L126.98111505681818,137.73340569692672L127.34175994318181,141.45626840104356L127.45628906249999,140.0214221025091L127.6171171875,138.08417564479004L128.03137144886364,144.18810253529244L128.16539488636363,147.51863330893812L128.3140390625,147.77318833004293L128.6966150568182,143.96183820385252L128.74047727272728,144.35269899438927L129.11574289772727,141.87873623562518L129.40815767045456,137.95330825205247L129.6615838068182,142.4031058582997L129.7419978693182,133.6660707243285L129.89795241477273,132.70526771414288L130.11482670454546,138.1045428065539L130.15137855113636,140.5059042455602L130.8677947443182,136.49929378401328L130.8872890625,133.07157942218237L131.03105965909091,141.2338064543167L131.611015625,141.4084742046451L131.6280731534091,147.89794168886874L131.6378203125,151.40298458824952L131.64756747159092,149.39021483102678L131.99115482954545,144.29476963185812L132.09837357954547,143.47307951452458L132.50288068181817,136.5848993897565L132.5394325284091,144.43623017416164L132.59060511363637,146.08209811267713L132.62715696022727,125.58629504094993L132.9146981534091,130.1699189934163L133.85042542613635,133.16716770070963L133.90403480113636,133.5936795847903L134.01125355113635,136.3871621017033L134.07948366477274,136.30119551446285L134.29392116477274,139.33376377538588L134.6107038352273,143.1719354228124L134.72035937500002,141.81633540039925L135.23452201704546,141.40816963223023L135.49282173295452,138.6709547895634L135.50013210227272,143.6072260857191L135.56348863636362,144.5704040676693L135.6390291193182,144.39301020087836L136.07521448863636,144.36308255184912L136.0873984375,136.40289993994966L136.10689275568183,141.13186912440378L136.50165269886364,140.68888500036667L136.63080255681817,144.7034821361415L137.11816051136364,146.14606215686274L137.42275923295452,150.6770423439856L137.94179545454546,144.2039235259721L138.02220951704547,138.35178676877197L138.25370454545455,143.96257527654632L138.4364637784091,143.26273552051344L138.4705788352273,141.98219797325825L138.68257954545453,138.1422910190385L139.11876491477273,140.30289635817778L139.19917897727274,143.77287435418708L139.6353643465909,141.08604279569593L140.36640127840909,142.26711046076898L140.38102201704547,140.81500574455907L140.81720738636363,140.25944363210348L141.48976136363638,141.02684386929124L142.79344389204547,143.48250853961855L142.91772017045454,144.70313828883258L143.1467784090909,146.16782540156058L143.42944602272726,140.99961226060162L143.56346946022728,140.79669331863025L143.63657315340907,147.69586860219837L143.82664275568183,148.57272240150093L143.89243607954546,145.8501377876289L143.93386150568182,147.4812802459709L144.54549573863636,145.99392806386425L144.584484375,146.33238398400232L145.15469318181817,143.928056217237L145.26922230113638,141.08599408567173L145.56407386363637,139.88488184303176L146.07092613636362,146.96767928359736L146.14402982954545,147.20416024302142L146.30729474431817,146.5231449471396L147.15773437500002,147.384747142135L147.38435582386364,143.8422407970064L147.39897656250002,149.05697204349093L147.4525859375,144.68160395608933L147.67189701704547,145.08057233742826L148.1056455965909,140.18917499394388L148.4004971590909,144.13619208312733L148.58325639204546,149.10328893267632L149.68224857954544,148.59589433269812L149.88450213068182,145.73593036620088L150.05751420454544,142.84766382180612L150.2938828125,145.47758069040154L150.32312428977272,145.2766080600129L150.45227414772725,148.51264233296257L150.68620596590907,146.79084381583414L151.04197727272725,144.64595008744647L152.16046377840908,145.83634744452746L152.35540696022727,139.09624451796597L153.07913352272726,140.11221083820095L153.1546740056818,135.31336495649953L153.17416832386365,139.4234806130656L153.95150426136362,137.69731248082687L154.31702272727273,141.63510225690587L154.79463352272725,140.98328806625116L155.13091051136365,144.78300179446524L155.30148579545457,145.2728537065076L155.30392258522727,145.68194826676174L155.50861292613638,147.68188019042447L155.89362571022727,151.4975137686073L156.16167258522725,144.68763313921326L156.36636292613636,143.54175103474876L156.6660880681818,145.39477481659782L156.93413494318182,141.41571517745572L157.11689417613638,147.79075704707157L157.24360724431818,151.3633193030563L157.94052911931817,147.39991968033357L157.96489701704547,144.57788227771306L158.36940411931818,146.0306575317656L158.8616356534091,145.58323640820237L159.10531463068182,138.31456790564567L159.13211931818182,138.9192496940381L159.26370596590908,138.8197946762971L159.72913281249998,140.21671003079007L159.8436619318182,143.6370199286973L160.04591548295454,145.54627861196013L160.2286747159091,148.46004051887522L160.30421519886363,150.38620286866146L160.41630752840908,126.06803587963648L160.59662997159091,134.42949762010855L160.69897514204547,140.71580589779782L160.85980326704544,144.0213226341818L161.34228764204545,146.0760908331641L161.68831178977274,146.4533887974124L162.29507244318182,147.10251180167205L162.87015482954547,145.10112908861163L163.14551207386364,144.39678357649518L163.48666264204545,144.5747660214226L163.87898579545453,144.58315915730716L163.94721590909091,144.4360198358722L164.05687144886363,144.74353301137847L165.07788636363637,144.16270885861016L165.16073721590908,141.5876204031473L165.25577201704547,146.55422178135908L167.0833643465909,149.0137618483698L167.08580113636364,139.68382637093043L167.12722656250003,143.09238255434974L167.36359517045454,137.37320174702253L167.48787144886364,138.8108873082891L167.69012500000002,140.94567445628013L167.88019460227272,146.88356980614168L168.70626633522727,139.7850727005738L168.8500369318182,146.55860719234872L169.29596946022727,146.25561702222302L169.29840625,148.22901509043976L169.33008451704546,147.4000446849311L169.673671875,149.2547454131093L169.9880177556818,146.54779286518374L170.0391903409091,149.02406171938586L170.49243323863635,149.13862724248057L170.63133025568183,149.52283319871714L170.8238366477273,143.38573430383855L171.10894105113638,146.4303980824629L172.4321178977273,139.60014473422046L172.4418650568182,145.29803618087576L172.51740553977274,146.32883715387706L172.6051299715909,146.03310874436212L172.72940624999998,147.82182352846212L172.91460227272725,146.76170743945448L173.54573082386364,148.86401627357728L173.74311079545456,146.66561952499106L174.41566477272727,141.77709920148584L174.51800994318182,143.55749406361898L174.79580397727273,146.5814084566791L175.10283948863636,142.2738071627712L175.1661960227273,148.72146004079553L175.44886363636363,151.55966570340857L175.82412926136362,148.3812152037815L175.96058948863634,149.42826882569764L176.08486576704547,149.86359543871149L176.13847514204545,149.82331488323968L176.21888920454543,149.9770069962308L176.27980894886363,148.82805971804652L176.6696953125,147.09945520045397L176.8597649147727,145.97471399952195L176.91337428977272,142.33487513154282L176.91824786931818,146.18478823402245L177.16680042613638,149.76624068207275L177.17411079545457,152.5194224008127L177.27158238636363,154.67032671381259L177.54937642045454,148.48344041829836L177.95144673295454,148.62573167220077L178.31696519886364,148.6203205113728L178.49972443181818,147.3845620933246L178.64836860795455,149.19607301879356L179.06262286931818,150.251917239299L179.40133664772725,150.4453142392758L180.44915625000002,148.53254413235925L180.54906463068184,148.14000899153197L180.56124857954543,148.21498493392613L180.6757776988636,146.1448495631775L180.82198508522728,146.75547375234132L180.87803125,142.1048435524235L181.0900319602273,146.28103780285298L181.51890696022727,143.72042382708656L181.53596448863635,146.85712390542906L183.17105042613636,150.0368332636409L183.25877485795453,147.23921513867694L183.84116761363637,147.61334412388396L183.91670809659092,128.06577179367773L184.64287144886364,139.60015665045637L184.68673366477273,144.99154513836658L184.8816768465909,144.03802183902712L185.0327578125,146.50347715876373L185.19845951704545,149.9538873787932L185.76135795454547,148.38442048050237L185.7662315340909,151.97890831518038L186.07326704545457,148.91362146310726L186.1780490056818,142.9689064015312L186.46802698863635,145.3893463712551L186.98706321022726,145.29416976461516L187.11133948863636,139.69209090405528L187.4622372159091,143.0043956389059L187.5767663352273,137.74422042250808L187.65474360795454,145.85551737162575L187.86187073863638,146.84251052864258L188.14453835227272,146.7588267804853L188.16159588068183,149.51945263626706L188.18840056818183,150.64133620654064L188.55148224431818,143.94122499492477L188.8560809659091,141.69606063405698L189.16311647727275,145.3929390546085L189.49451988636363,146.5307766685725L189.66509517045455,151.03659044138138L189.94045241477272,143.6402997045609L190.32790198863637,141.95932338827208L190.56914417613638,145.06940532024714L191.0370078125,142.60623937753448L191.13935298295453,145.22553497527605L191.31723863636364,148.20354634090998L191.4561356534091,141.88080801883183L192.6988984375,139.6620765901735L192.86460014204545,137.79340178412977L193.05223295454547,140.18192641998996L193.08634801136364,140.52037041405242L193.1813828125,141.94886859547734L193.25936008522729,143.690031232486L194.00014417613636,145.74122498336425L194.16828267045454,146.58142441259616L194.26575426136364,148.47321959389328L194.7019396306818,150.43591323779867L194.75798579545454,146.90961048654822L195.22584943181818,149.71541819171375L195.28676917613637,150.55877454576648L195.60598863636363,147.5073088872299L195.62304616477275,143.88928825842532L195.67909232954545,140.89028841547486L195.75950639204547,142.87751403655002L195.76925355113636,144.9467874467694L195.92764488636365,143.24065899433634L196.08603622159092,138.1206726633426L196.5392791193182,141.2889065821717L196.63431392045456,141.55787016509473L196.67330255681816,139.1158886006981L197.0242002840909,142.46802125313937L197.08755681818184,142.98754156672393L197.1777180397727,148.1238711221125L197.69675426136362,145.84198298293984L197.79666264204545,146.57348856352945L197.9891690340909,147.70865397347916L198.11100852272727,145.31158087845986L198.1573075284091,148.85259450634626L198.4058600852273,146.53184018409436L199.04917258522727,150.40236058638206L199.32452982954547,147.14016315702025L199.4098174715909,142.2763732532467L200.44057954545457,143.72234076945813L200.75248863636364,143.83202458017368L201.16674289772726,144.09755976434528L201.6078018465909,147.3183125509976L201.839296875,146.31813341582767L202.13658522727275,148.51913052502246L202.35102272727272,149.88493607865556L202.43387357954543,148.8063896736609L202.5825177556818,150.02861805684012L202.6263799715909,143.3710138915577L202.80913920454546,146.68920030138483L203.17709446022727,141.7062904178595L203.3038075284091,144.51824880135032L203.64495809659093,146.28399242783766L204.23709801136366,143.2352246798586L204.8511690340909,147.38933831006352L205.2434921875,143.30459813684266L205.3604580965909,145.37242789244675L205.8331953125,147.12230560616268L205.91117258522726,147.95031067124376L205.9306669034091,147.54521321023327L206.39122017045455,148.63033544906867L206.42777201704544,150.91491732560928L206.58860014204546,150.42086706005534L206.8956356534091,136.82223970140817L207.1027627840909,139.82347888347982L207.2343494318182,143.3117982470839L207.4244190340909,144.40413893782193L207.91665056818184,145.44774097545798L207.9946278409091,141.94055804695998L208.0847890625,141.4985089116473L208.27973224431818,146.22432669733038L208.4600546875,150.94875316379412L208.6476875,149.95548537884918L209.10580397727273,149.51919262820343L209.18134446022728,151.5000026331178L209.26175852272726,152.57155927633235L209.4177130681818,150.6878484437763L209.5127478693182,149.5847888882398L209.53955255681817,148.70579763504503L209.6930703125,148.8987657065847L210.26815269886364,151.6288958476876L210.33881960227274,150.75522934001057L211.4061335227273,151.5446875611029L211.86912357954546,151.35082533354057L211.88618110795454,151.04324295040664L212.20540056818183,153.1713343756151L212.23707883522727,153.50053007352363L212.3491711647727,154.05841772219844L212.41252769886364,148.90362813181466L212.5441143465909,151.34937907029263L212.76098863636363,146.3323766071741L213.69915269886366,147.60157272870208L213.83804971590908,144.17921392443694L214.09634943181817,143.72300302161526L214.25474076704546,146.15455094262214L214.36439630681818,148.42319381138236L214.7323515625,145.86344541430802L214.76159303977272,147.8897533662339L215.40490553977273,144.70251981927274L215.48044602272728,147.10003288724016L215.51212428977271,147.26123151518695L216.0896434659091,146.41108228348372L216.25290838068182,145.3483406015198L216.82068039772727,145.46279678272967L217.0448650568182,147.17791879074431L217.1642677556818,150.01839810876046L217.42500426136363,153.0026872709721L218.0025234375,145.65858315141975L218.2535127840909,147.05205484337793L218.4606399147727,147.33026577924005L218.49962855113637,141.00805350657888L219.4304822443182,140.8331274170672L219.47190767045453,145.2022971262929L219.7423913352273,149.71602157610042L219.78869034090908,148.40145611707794L219.9860703125,148.39460853781955L220.1371512784091,144.68868583051358L220.6293828125,145.73771866356128L220.82919957386363,147.2301287203717L221.14841903409092,147.99785772515463L222.29371022727273,145.79521655203774L222.66897585227275,148.1639597607367L222.71771164772727,152.33564814799803L223.2196903409091,152.14863921656476L223.45849573863634,150.60766426550904L223.57302485795452,151.21261646972633L223.6436917613636,149.81613635824047L224.00921022727275,147.60685655537796L224.0579460227273,148.83078928061457L224.06525639204546,147.59651609103759L224.21633735795456,149.87152191819774L224.27238352272727,150.65059634296313L224.27969389204546,149.86678040801414L224.76948863636366,150.02245086925583L224.94737428977274,150.10977382986164L225.15450142045455,151.9783240140433L225.21785795454548,152.42574663749068L225.5248934659091,154.2419013989909L225.6784112215909,143.44961694734954L226.70186292613636,147.18621660937464L226.84563352272727,146.11999564599753L226.85050710227273,147.39244803656197L226.92604758522725,149.4038443277422L227.09905965909093,148.0906245359864L227.66926846590908,150.3288232906363L227.90563707386363,146.72397509388338L228.5099609375,149.00402310772068L229.00219247159092,145.64782648434237L229.55778053977272,146.8301683929562L229.9476669034091,149.38402366545796L230.7250028409091,147.00795224134325L230.83222159090909,145.28157155885816L231.10514204545453,149.66820370167207L231.19774005681816,147.10575381702012L231.7094659090909,149.41031951508418L231.97020241477273,147.7409703603476L232.3089161931818,148.22726885086834L232.37470951704546,148.66026340369308L232.6841818181818,148.12830049168423L233.01802201704544,146.63880564970586L233.1544822443182,143.5248334765602L233.23245951704544,130.85905157567075L233.40547159090912,138.7298068007291L233.4956328125,144.09800492259626L234.33145170454546,147.2865707335339L234.5483259943182,148.40504353865776L234.6043721590909,149.4274965095508L234.75057954545454,147.40568321633265L235.4060759943182,150.2648123583968L235.60101917613636,153.10260426230136L235.80570951704547,154.29464826339128L235.90318110795454,147.53314054550913L235.9762848011364,149.45851043964734L236.13467613636365,146.92392035666293L236.2126534090909,147.1071400025081L237.15325426136363,146.93513687304204L237.48953125,148.6074931690189L237.66010653409091,149.9212567649241L237.83068181818183,149.06088302936885L238.12309659090909,148.5514821042522L238.23031534090907,152.29007345571543L238.37652272727274,152.34579874536053L238.56171875,153.86917845352383L238.70061576704543,151.40805473547513L238.9174900568182,151.10654155714116L239.04907670454546,153.94616969102802L239.24401988636365,152.12942391171563L239.51206676136363,147.59507582983082L239.53643465909093,151.3947690239963L239.88489559659092,153.12573328190547L240.06278125,150.3612795166582L240.53064488636363,149.81054405703605L240.70122017045455,150.2085352205304L240.82062286931819,151.7149684566598L240.86448508522727,151.4196070331836L241.0204396306818,149.83153228929663L241.38352130681818,149.7303855100037L241.95860369318183,152.97344702608953L242.1169950284091,151.46505635784607L242.64090482954546,153.80653343301438L243.21598721590908,152.0954271674241L243.2671598011364,153.08935290128503L243.4742869318182,153.43189772166616L243.47916051136363,152.865930186199L244.13709375000002,154.87252191386332L244.37346235795454,154.08534856725757L245.1118096590909,153.514944966221L245.20684446022727,149.07358962064038L245.6113515625,148.90281585940747L245.798984375,147.93532486044782L245.8550305397727,149.08048605521572L246.24979048295455,150.33819336608082L246.51052698863637,153.07670547997225L246.58850426136362,150.57421356654328L246.65429758522725,150.94878258118726L246.6762286931818,153.8711485802215L246.84924076704547,151.94460985103737L247.00275852272728,147.51154431605036L247.03199999999998,150.06402696939526L247.23425355113636,152.4776707225127L247.42675994318182,146.2646784730603L247.67287571022726,147.273218449375L247.7216115056818,151.3959585543996L247.86538210227272,151.8167306823448L247.90680752840908,148.29034926729892L248.04570454545456,147.4965216892212L248.07250923295456,149.54944379000364L248.42828053977274,152.6476098512098L248.54037286931816,152.0237486552885L249.10570809659092,150.9192847175414L249.15444389204544,150.1000911514768L250.0243778409091,148.88344481890252L250.04143536931818,148.67459028202205L250.45081605113637,149.30591967053957L250.53366690340908,149.59245698391047L250.61164417613637,150.52499744021085L250.74323082386366,148.69790606512538L250.9625419034091,149.75207637243815L251.4377159090909,149.38624914835898L251.51325639204546,146.91432540357715L251.64727982954545,148.47937561223273L251.73256747159093,152.06703482258686L251.75693536931817,153.50021799870353L252.232109375,150.86431125264178L252.50259303977273,151.10876851758846L252.85592755681816,154.01471205074483L252.98995099431818,147.17035888325506L253.50655042613636,147.21670833373867L253.85257457386362,151.67928670779497L254.0377705965909,154.09619391104954L254.40572585227272,153.40265916550982L254.8394744318182,151.1108620699634L254.98080823863637,152.6059046881729L255.88242045454544,149.34807409509025L256.1358465909091,152.70914679651113L256.16996164772723,150.69237046649843L256.2162606534091,150.59202786392444L256.31616903409093,150.57590530160948L256.3502840909091,151.87226189982226L256.3868359375,152.65844403608938L256.41851420454543,149.92166409167228L256.44288210227273,150.8145177785908L256.51354900568185,151.5445950376603L256.6110205965909,149.79686896295027L256.63295170454546,150.8117423986833L256.7718487215909,151.91667049023155L256.8303316761364,145.35843023176577L257.2445859375,148.48475699165812L257.24945951704547,148.69790716373535L257.66127698863636,149.76974438103207L258.09015198863636,150.34864454431633L258.2972791193182,149.19789705358923" style="fill: none;" fill="none"></path></g></g></g></g><g opacity="0.2"><g><g><g><path stroke="rgb(255, 112, 67)" stroke-width="2px" d="M24.47024289772727,5.457744789123539L24.774841619318185,118.7602831840515L24.925922585227273,113.2451140552759L24.93810653409091,95.78877021074294L25.033141335227274,60.09542618393898L25.522936079545453,117.79466126561164L25.674017045454544,65.38931165337563L25.77879900568182,123.99462875425814L25.79585653409091,-0.5754725217819372L25.912822443181817,122.98405848890542L25.944500710227274,91.85386520326136L26.107765625,93.29007048606871L26.336823863636365,57.53711361885071L26.838802556818184,86.33841757178305L27.616138494318182,104.76977948546408L27.62588565340909,112.35876594185828L27.7428515625,109.55665741562842L27.75990909090909,132.16077227592467L27.86712784090909,93.21536545157431L28.488509232954545,81.84339058101176L28.593291193181816,92.45822269916533L28.6006015625,71.04822133183478L28.94175213068182,43.29285417199135L29.039223721590908,96.07586008012294L29.329201704545454,96.94098230898379L29.7263984375,60.19034255743027L29.87991619318182,125.63437309563159L29.989571732954545,88.30265071690081L30.189388494318184,64.77903265953064L30.30391761363636,68.17134146094321L30.4233203125,45.84916417002678L30.425757102272726,100.2219828635454L30.454998579545453,70.19399386346339L30.910678267045455,16.921711754798892L31.044701704545457,-20.676179635524765L31.770865056818185,95.50645467340945L32.23872869318182,128.50115061253308L32.27771732954545,99.57516033649443L32.421487926136365,11.497937929630284L33.184203124999996,63.15353174209595L33.18907670454546,82.58419450819491L33.31091619318182,120.57388615310191L33.48392826704546,115.83113432377576L33.66181392045455,112.90008236169814L33.67887144886363,78.55081227123736L33.93960795454546,73.55946694016455L34.00783806818182,109.078620788455L34.20278125,113.24559480398892L34.887519176136365,99.92139224410056L35.08977272727273,103.19627237021922L35.31395738636364,84.55170337557792L35.3553828125,94.65979319512843L35.76232670454546,77.74773646593093L36.03524715909091,64.9395695745945L36.4811796875,59.15071186125279L36.810146306818176,8.314784657955174L36.87837642045455,31.782907736301425L37.392539062500006,102.65936557650565L37.42665411931819,89.73219182789325L37.889644176136365,55.692318347096446L38.20642684659091,102.28756446838378L38.31364559659091,109.04664602577685L38.52077272727272,49.11405798494816L38.65723295454546,86.91821378171443L38.67429048295455,51.47859234809876L38.76201491477273,123.10796235203742L38.96426846590909,72.1658725708723L39.47599431818182,106.18989792168139L39.522293323863636,110.80347754508256L39.692868607954544,99.66625724434851L40.387353693181815,-180.06022613048555L45.3267265625,-82.87275593280798L46.00171732954545,54.111265134811404L46.14061434659091,9.957194668054585L46.28194815340909,42.08208356499672L46.932571022727274,39.482817840576175L47.439423295454546,61.64997522234917L47.648987215909095,-9.745372939109817L47.680665482954545,98.40445433259009L24.372771306818183,68.11444733738898L24.726105823863637,84.95256823003291L24.882060369318182,123.46641522347926L25.781235795454545,42.3697635948658L25.79829332386364,120.81549387872218L26.0809609375,87.26071905791758L26.27590411931818,84.1637093245983L26.380686079545455,57.815722417831424L26.587813210227274,116.5983031734824L26.95333167613636,82.45886829197406L27.00937784090909,128.0486931324005L27.306666193181815,99.52892225682734L27.313976562500002,62.69153554439545L27.462620738636364,104.11329556703566L27.482115056818184,64.67026409208775L27.59420738636364,52.33455051183701L27.794024147727274,96.283125770092L28.56648650568182,118.41746293455361L28.695636363636364,133.1976312071085L28.84184375,56.83911290466786L28.92469460227273,76.11479554772376L29.214672585227273,68.25420264601706L29.39499502840909,-40.46782832145693L35.9450859375,-3.24137996435167L36.41051278409091,4.653680962324146L36.483616477272726,56.201799255609515L36.52991548295454,77.76488427519797L36.75410014204545,118.99510737955569L36.82720383522727,79.87800363898276L36.98315838068182,37.95906324386597L37.02945738636364,86.57654401361941L38.08215056818182,147.49475643485783L38.445232244318184,141.65872069522737L38.52808309659091,39.69954599142075L39.09585511363637,145.74874839261173L39.154338068181815,116.73418265283107L40.01208806818182,101.73688505291938L40.336181107954545,136.14520268961786L40.51162997159091,113.00880451202391L41.42786292613636,116.81418255418538L41.70078338068182,110.61059784591197L41.81774928977273,141.80225734114646L41.92009446022727,149.1064167626202L42.32703835227273,108.26860893964766L42.402578835227274,108.02345693558453L42.87775284090909,78.05359874367713L42.938672585227266,102.21628766953944L42.992281960227274,81.15883093774318L43.48938707386364,109.85339209884404L43.52350213068182,136.04907449781894L43.59416903409091,98.50536514520644L43.61366335227273,81.35607053041457L44.761391335227266,118.43381833732127L45.701992187500004,70.00075940489768L47.32245738636363,120.99776726663112L47.45160724431818,130.62380537837743L47.700159801136365,114.97900557219981L48.33372514204545,127.64679052382706L48.59933522727273,106.05289448499678L48.63345028409091,146.0686783723533L48.821083096590904,125.75521674454211L49.10131392045455,88.85630082786082L49.46439559659091,102.3989257633686L49.60572940340909,94.92416520118712L49.627660511363636,136.44454336240887L49.812856534090905,110.31153567582368L50.07115625,104.0703928887844L50.09065056818182,43.49805761575699L50.26366264204545,118.4664893567562L50.54876704545455,148.21085070706903L50.790009232954546,75.31295974254607L50.792446022727276,115.81309132724999L50.88504403409091,112.29897074848412L51.37483877840909,110.1807222932577L51.38214914772727,105.46427570730447L51.50155184659091,99.22348436415194L51.56003480113636,123.37082248628138L52.1083125,107.46142190396785L52.264267045454545,109.3900299116969L52.42265838068182,111.92557819634675L52.47870454545454,103.27739622890948L52.69070525568181,83.3366292387247L52.86615411931818,90.94633762240409L53.187810369318186,122.50779565870761L53.97976704545455,122.13862043321132L54.94717258522727,104.27331526279448L55.06170170454545,150.23612650558354L55.15429971590909,105.69693819135426L55.22252982954546,90.47153693139552L55.50032386363637,121.91216126531361L56.397062500000004,103.45181186199187L57.12322585227273,121.14171669334172L57.14759375,103.38185463547705L57.2548125,139.7128272846341L57.31816903409091,128.80588893294333L57.42782457386364,125.36952365636824L57.48387073863636,108.67769625484942L57.66662997159091,147.50719124898313L57.82745809659091,132.11775687038897L58.10281534090909,143.33125044107436L58.41959801136364,128.906249371171L58.446402698863636,122.73714263439177L58.49513849431818,124.29696333110331L59.07265767045455,104.95210592150687L59.416245028409094,133.84603854715823L59.58194673295455,91.03563089370726L59.91091335227273,120.5761738538742L59.91578693181818,123.50794196575879L60.00838494318182,127.00388692766427L60.06443110795455,122.58218903541564L60.736985085227275,109.83683113455771L60.975790482954544,100.2529696047306L60.995284801136364,124.13334299325942L61.41928622159091,111.49666745662688L61.499700284090906,108.64759475439786L61.68002272727273,84.41462699770926L61.77505752840909,153.094361615181L62.27703622159091,119.02502652704715L62.469542613636364,123.95886768102645L62.613313210227275,133.39695791229605L63.33216619318182,118.57592765688895L63.63920170454545,131.77181672751902L63.72448934659091,130.66012345701455L63.90481178977272,154.0442075159401L64.25814630681819,112.53391761779784L64.31906605113636,110.42536039352416L64.47502059659091,93.665883359313L64.83566548295454,107.00390495806931L65.07934446022728,148.3504128873348L65.242609375,133.5867740817368L66.03943963068181,125.98674532473086L66.04187642045454,103.8491622775793L66.1174169034091,128.55857853293418L66.88013210227273,152.1250362738967L66.90937357954546,109.15987063646315L66.91912073863637,123.04444384276866L66.9215575284091,120.68824135214089L67.20178835227271,118.67539290785788L67.76468678977274,129.75756913870572L68.0034921875,132.25116629600524L68.04491761363636,134.18609863594173L68.08877982954546,123.54176346659659L68.54445951704547,125.38828280270099L68.76620738636363,118.30099244117736L68.84905823863636,111.54019345045089L68.89292045454545,136.47405636012553L69.75310724431819,120.26406515836715L70.03821164772727,129.82044112384318L70.06988991477273,155.39068602472545L70.29407457386364,136.44469090253114L70.36474147727273,114.56266392469405L70.4597762784091,130.95104605406522L71.33458380681817,152.61828528232874L71.39794034090909,123.71637139916419L71.49784872159091,134.55610771179198L71.55876846590908,131.15866981893777L71.89748224431817,102.55242716968058L72.04856321022727,128.26421443819999L72.55541548295454,134.99138754308223L72.59440411931818,152.8555447187275L72.7747265625,118.08780525326728L72.89656605113636,115.28404560387133L73.22796946022727,104.39287249445914L73.4277862215909,107.29039140492677L73.85666122159091,122.47801576256751L73.92001775568183,153.64446827657522L74.06866193181818,124.09270149171351L74.2684786931818,115.87222341895102L74.4366171875,136.4503272667527L74.53652556818182,156.21383225992324L74.64130752840909,156.55568230878563L74.96296377840909,146.17846314311026L74.9897684659091,131.7234600380063L75.33579261363636,129.26126737594603L75.56485085227273,141.0916096203029L75.59896590909091,130.95937129557132L77.27060369318183,128.50577574670314L77.36076491477273,112.30354283452033L77.97727272727272,128.734340262413L78.25019318181818,143.89501948356627L78.40858451704545,131.7288046374917L78.42564204545454,124.41038024127482L78.56210227272727,86.86270554065703L78.58403338068182,143.9771396525204L78.72780397727273,153.10972153656186L78.75948224431818,113.6745917469263L79.14205823863635,135.96625641435384L79.22247230113636,146.1041692316532L79.77806036931818,125.1482399970293L80.03879687499999,134.99693438857793L80.31902769886364,125.6001736268401L80.43843039772727,122.66943995356559L80.574890625,120.85377142280339L80.896546875,131.10137120336293L80.91604119318183,105.13326529860495L81.23769744318182,139.23271183371543L81.52523863636364,121.73250381350516L81.59103196022727,121.48185801208018L81.59590553977273,123.28656215667723L81.81521661931818,123.19736503511666L81.98579190340908,102.99789224267005L82.06864275568182,155.840504360199L82.13687286931818,95.50590429902076L82.92882954545455,107.33357921689748L82.95076065340909,125.78779824525117L82.98000213068183,136.47637224271892L83.02630113636364,152.7774702988565L83.0677265625,143.48288190066813L83.19931321022727,94.09494992792605L83.2285546875,131.47491626888512L83.28947443181819,120.5758555650711L83.3796356534091,137.8495032943785L83.63306178977273,135.88939132615923L83.67936079545454,113.18221886157988L83.93522372159092,130.28616395294665L84.47375426136364,123.42493821382521L84.52492684659092,142.01868378072976L84.6589502840909,137.26035569310187L84.87095099431818,142.64893042370676L85.0512734375,134.18985013365744L85.49964275568182,128.12024843394755L86.83987713068181,157.18926207376646L86.89104971590909,142.40013136044143L86.91054403409092,113.7224013775587L86.94709588068181,151.14704502262177L87.20539559659092,141.85489103645085L87.42470667613637,140.70426706671714L87.90719105113637,142.47650078013538L87.92424857954545,143.32606995925306L88.0972606534091,145.86718995571135L88.35068678977272,148.4183078676462L88.3921122159091,113.70849613547324L88.55537713068182,111.48678392618893L89.06466619318182,130.03593259006738L89.13533309659091,146.76786935403942L89.99795667613637,138.2742149427533L90.07106036931819,124.07417443096637L90.117359375,104.25549772083758L90.33423366477273,135.54114027395843L90.46094673295454,140.60612967684864L90.53648721590909,147.71901576295494L90.67538423295454,134.37198095470666L91.3138231534091,135.31385057121514L91.39423721590909,156.48845043014737L92.01074502840909,112.7599855557084L92.09359588068182,137.71942761242389L92.76371306818181,145.2932190939784L93.03663352272729,155.3783523336053L93.8066590909091,135.0928951472044L94.40854616477273,138.05136967897414L94.44753480113637,142.38983670696615L94.47433948863636,119.13936846405267L94.90321448863637,148.42438022121786L95.04454829545455,137.85683222562074L95.09328409090908,104.98384528309106L95.38569886363636,142.23473556786774L95.72928622159091,125.33359680771827L95.78776917613636,143.11559817269443L96.35310440340909,134.0575862161815L96.496875,94.83229909539222L96.52367968749999,145.88069567903875L97.48621164772726,142.62683919146656L97.55444176136365,137.5291340097785L97.67871803977273,110.308283162117L97.91508664772728,125.08298747688531L97.99062713068182,119.60129503607749L98.00281107954547,118.16812012791632L98.26111079545454,119.07597262859343L98.93366477272727,139.68423931375145L99.43076988636363,135.78167543262242L99.78897798295453,145.92822680696844L99.82796661931818,125.4901418507099L99.8377137784091,127.15848576724528L99.9181278409091,117.6575252085924L99.96686363636363,135.25211912095546L100.14474928977272,137.3061660721898L100.74663636363636,139.90553457736968L100.96107386363637,157.30977168520914L101.24374147727272,149.35162347257136L101.30953480113635,133.89790636003016L101.48011008522727,128.32259059399365L101.64581178977272,147.02682299055158L101.96259446022728,140.67150652855634L102.0015830965909,150.05616402700542L103.11763281249999,124.05224565863608L103.41248437499999,125.9213170826435L103.68053124999999,139.10942465513943L104.18250994318183,132.58562151789664L104.22637215909091,134.08092076405882L104.73809801136365,76.84362385869025L105.4764453125,127.86889311373233L106.200171875,147.12839607596396L106.78500142045455,153.12708402499558L106.8702890625,155.2903844367713L107.00187571022727,140.20080877915024L107.07985298295453,134.87684999108313L107.25530184659091,123.14304706156253L107.32109517045454,140.83390675932168L107.33084232954546,105.54680202603339L107.48436008522727,146.23413384407758L107.91079829545455,141.54435720741748L107.9424765625,137.05721449553965L108.13741974431818,131.12705976217984L108.14716690340909,112.32138026952742L108.23489133522727,135.67962076961993L108.44689204545455,139.20374257937073L108.46394957386363,134.89346731901168L108.57116832386363,148.88972674012183L108.70031818181819,136.64577980041503L109.38505610795454,135.5084974363446L109.91383948863636,133.092701998353L109.94795454545455,150.54419856965544L110.30859943181818,134.52023391127585L110.64975,140.4333784289658L111.15172869318181,147.90709211938082L111.17365980113635,137.10284417942165L111.30280965909091,143.05991752520202L111.63177627840909,122.28516590297221L111.71950071022728,114.50327985435723L111.9997315340909,140.6685093089938L112.91352769886363,121.04565315395593L113.05242471590908,123.86869580000638L113.24493110795454,141.57187261134385L113.33265553977273,138.39197848439215L113.6080127840909,142.62051817476748L113.64700142045454,138.87118382826446L113.8395078125,143.28598048985003L114.04907173295454,144.3682718321681L115.75238778409091,138.94427255243062L115.85716974431818,148.45848519802092L116.00337713068181,139.52489929720758L116.05211292613637,149.06055250652133L116.33478053977272,133.4329162582755L116.46149360795455,139.507030364871L116.60770099431818,143.35236028283833L116.69542542613635,126.63335565924643L116.82457528409091,131.08906735181807L116.86600071022727,139.55016512870787L116.90011576704545,151.42180534526707L116.9585987215909,137.71555509865283L116.98784019886364,121.43357094824313L117.082875,120.68696488142012L117.11699005681818,126.81732658743857L117.41915198863637,144.2493743866682L117.57754332386364,147.17512485086917L117.63358948863636,115.3684783399105L117.89188920454546,136.67347092628478L118.14775213068181,156.46831493340434L118.25984446022727,143.49548083245753L118.97869744318182,147.0730395194143L119.76334374999999,135.95818149372934L120.09962073863636,108.09612293243407L120.80628977272727,135.87799758166074L120.93787642045454,140.51300865113734L120.99879616477273,123.36067703068255L121.30583167613636,144.00386928096412L121.50321164772727,154.2851736906916L121.65185582386364,149.9609517443925L121.69815482954546,148.38310048431157L122.5948934659091,146.36999343037604L122.71673295454545,149.7171466656029L122.9433544034091,149.22846145443617L122.98234303977272,147.63503973819314L123.05544673295455,123.81633729189633L123.23333238636364,141.45947853550314L123.51112642045454,145.23724336624144L124.11301349431818,137.65715739205478L124.11788707386363,147.28990609273313L124.57600355113637,142.70029925256966L124.96588991477273,132.41725668758153L125.34359232954546,143.04285260364412L125.57021377840908,115.39507203251122L125.70423721590909,133.5442974463105L125.85044460227273,147.1558849558234L126.84465482954545,143.3046998500824L126.96162073863636,141.04119068458675L126.98111505681818,133.67209205850958L127.34175994318181,147.04056245721875L127.45628906249999,137.86915265470742L127.6171171875,135.1783059582114L128.03137144886364,153.34399287104608L128.16539488636363,152.51442946940662L128.3140390625,148.15502086170017L128.6966150568182,138.2448130145669L128.74047727272728,144.93899018019437L129.11574289772727,138.1677920974791L129.40815767045456,132.06516627669333L129.6615838068182,149.07780226767062L129.7419978693182,120.56051802337169L129.89795241477273,131.26406319886445L130.11482670454546,146.2034554451704L130.15137855113636,144.10794640406965L130.8677947443182,130.4893780916929L130.8872890625,127.930007879436L131.03105965909091,153.4771470025182L131.611015625,141.67047583013772L131.6280731534091,157.63214291520418L131.6378203125,156.66054893732073L131.64756747159092,146.37106019519268L131.99115482954545,136.65160183310508L132.09837357954547,142.24054433852433L132.50288068181817,126.25262920260428L132.5394325284091,156.21322635076942L132.59060511363637,148.55090002045034L132.62715696022727,94.84259043335913L132.9146981534091,137.0453549221158L133.85042542613635,137.6630407616496L133.90403480113636,134.2334474109113L134.01125355113635,140.5773858770728L134.07948366477274,136.17224563360213L134.29392116477274,143.88261616677045L134.6107038352273,148.92919289395212L134.72035937500002,139.78293536677955L135.23452201704546,140.79592097997664L135.49282173295452,134.56513252556323L135.50013210227272,151.01163302995266L135.56348863636362,146.01517104059457L135.6390291193182,144.12691940069197L136.07521448863636,144.31819107830523L136.0873984375,124.46262602210044L136.10689275568183,148.225322901085L136.50165269886364,140.02440881431102L136.63080255681817,150.7253778398037L137.11816051136364,148.30993218794464L137.42275923295452,157.47351262466984L137.94179545454546,134.49424529895185L138.02220951704547,129.57358163297175L138.25370454545455,152.3787580382079L138.4364637784091,142.2129758864641L138.4705788352273,140.06139165237545L138.68257954545453,132.38243058770894L139.11876491477273,143.5438043668866L139.19917897727274,148.97784134820103L139.6353643465909,137.05579545795916L140.36640127840909,144.03871195837854L140.38102201704547,138.6368486702442L140.81720738636363,139.42610046342014L141.48976136363638,142.17794422507285L142.79344389204547,147.1660055451095L142.91772017045454,146.53408291265367L143.1467784090909,148.3648560706526L143.42944602272726,133.2472925491631L143.56346946022728,140.49231490567325L143.63657315340907,158.04463152755054L143.82664275568183,149.8880031004548L143.89243607954546,141.7662608668208L143.93386150568182,149.92799393348395L144.54549573863636,143.76289979070424L144.584484375,146.8400678642094L145.15469318181817,140.32156456708907L145.26922230113638,136.82290088832377L145.56407386363637,138.08321347907184L146.07092613636362,157.59187544444578L146.14402982954545,147.5588816821575L146.30729474431817,145.50162200331687L147.15773437500002,148.67715043462812L147.38435582386364,138.52848127931355L147.39897656250002,156.87906891321765L147.4525859375,138.11855182498692L147.67189701704547,145.6790249094367L148.1056455965909,132.85207897871732L148.4004971590909,150.05671771690248L148.58325639204546,156.55393420699986L149.68224857954544,147.83480243273078L149.88450213068182,141.44598441645502L150.05751420454544,138.51526400521396L150.2938828125,149.4224559932947L150.32312428977272,144.97514911442994L150.45227414772725,153.366693742387L150.68620596590907,144.20814604014157L151.04197727272725,141.42860949486493L152.16046377840908,147.6219434801489L152.35540696022727,128.98609012812375L153.07913352272726,141.63616031855344L153.1546740056818,128.11509613394736L153.17416832386365,145.58865409791468L153.95150426136362,135.10806028246878L154.31702272727273,147.5417869210243L154.79463352272725,140.00556678026913L155.13091051136365,150.48257238678636L155.30148579545457,146.00763157457112L155.30392258522727,146.2955901071429L155.50861292613638,150.68177807591857L155.89362571022727,157.22096413588153L156.16167258522725,134.47281219512223L156.36636292613636,141.82292787805198L156.6660880681818,148.1743104893714L156.93413494318182,135.4471257187426L157.11689417613638,157.35331985149534L157.24360724431818,156.72216268703343L157.94052911931817,141.45482024624943L157.96489701704547,140.34482617378234L158.36940411931818,148.2098204128444L158.8616356534091,144.91210472285746L159.10531463068182,127.41156515181063L159.13211931818182,139.82627237662672L159.26370596590908,138.6706121496856L159.72913281249998,142.31208306252955L159.8436619318182,148.7674847755581L160.04591548295454,148.4101666368544L160.2286747159091,152.8306833792478L160.30421519886363,153.27544639334084L160.41630752840908,89.59078539609908L160.59662997159091,146.9716902308166L160.69897514204547,150.14526831433176L160.85980326704544,148.97959773875772L161.34228764204545,149.15824313163756L161.68831178977274,147.0193357437849L162.29507244318182,148.07619630806147L162.87015482954547,142.09905501902102L163.14551207386364,143.3402653083205L163.48666264204545,144.84173968881368L163.87898579545453,144.59574886113404L163.94721590909091,144.2153108537197L164.05687144886363,145.20480277463793L165.07788636363637,143.2914726294577L165.16073721590908,137.72498771995305L165.25577201704547,154.0041238486767L167.0833643465909,152.70307194888593L167.08580113636364,125.68892315477132L167.12722656250003,148.20521682947873L167.36359517045454,128.7944305360317L167.48787144886364,140.9674156501889L167.69012500000002,144.14785517826675L167.88019460227272,155.79041283093395L168.70626633522727,129.137327042222L168.8500369318182,156.7189089300111L169.29596946022727,145.80113176703452L169.29840625,151.1891121927649L169.33008451704546,146.156589076668L169.673671875,152.0367965053767L169.9880177556818,142.48736404329537L170.0391903409091,152.73846500068905L170.49243323863635,149.3104755271226L170.63133025568183,150.099142133072L170.8238366477273,134.18008596152066L171.10894105113638,150.99739375039937L172.4321178977273,129.35476471185683L172.4418650568182,153.8448733508587L172.51740553977274,147.875038613379L172.6051299715909,145.58951613008975L172.72940624999998,150.50489570461215L172.91460227272725,145.171533305943L173.54573082386364,152.01747952476146L173.74311079545456,143.36802440211176L174.41566477272727,134.444318716228L174.51800994318182,146.22808635681866L174.79580397727273,151.11728004626931L175.10283948863636,135.81240522190927L175.1661960227273,158.3929393578321L175.44886363636363,155.8169741973281L175.82412926136362,143.61353945434092L175.96058948863634,150.99884925857188L176.08486576704547,150.51658535823228L176.13847514204545,149.7628940500319L176.21888920454543,150.20754516571762L176.27980894886363,147.10463880077003L176.6696953125,144.5065484240651L176.8597649147727,144.28760219812392L176.91337428977272,136.8751168295741L176.91824786931818,151.95965788774194L177.16680042613638,155.13841935414823L177.17411079545457,156.64919497892262L177.27158238636363,157.89668318331243L177.54937642045454,139.20311097502707L177.95144673295454,148.83916855305432L178.31696519886364,148.61220377013086L178.49972443181818,145.53092446625232L178.64836860795455,151.91333940699698L179.06262286931818,151.83568357005717L179.40133664772725,150.73540973924102L180.44915625000002,145.66338897198438L180.54906463068184,147.55120628029107L180.56124857954543,148.32744884751736L180.6757776988636,143.03964650705456L180.82198508522728,147.67141003608702L180.87803125,135.12889825254678L181.0900319602273,152.5453291784972L181.51890696022727,139.87950286343693L181.53596448863635,151.5621740229428L183.17105042613636,154.80639730095865L183.25877485795453,143.042787951231L183.84116761363637,148.17453760169445L183.91670809659092,98.74441329836844L184.64287144886364,156.90173393562438L184.68673366477273,153.07862787023188L184.8816768465909,142.60773689001797L185.0327578125,150.20166013836862L185.19845951704545,155.1295027088374L185.76135795454547,146.03022013306617L185.7662315340909,157.3706400671974L186.07326704545457,144.31569118499755L186.1780490056818,134.05183380916714L186.46802698863635,149.02000632584094L186.98706321022726,145.15140485465525L187.11133948863636,131.28897261321544L187.4622372159091,147.97285274118184L187.5767663352273,129.85395759791135L187.65474360795454,158.0224627953023L187.86187073863638,148.32300026416777L188.14453835227272,146.63330115824937L188.16159588068183,153.6603914199397L188.18840056818183,152.32416156195106L188.55148224431818,133.89105817750095L188.8560809659091,138.3283140927553L189.16311647727275,150.9382566854358L189.49451988636363,148.23753308951854L189.66509517045455,157.79531110059472L189.94045241477272,132.54586359933018L190.32790198863637,139.43785891383885L190.56914417613638,149.73452821820973L191.0370078125,138.91149046346544L191.13935298295453,149.1544783718884L191.31723863636364,152.67056338936092L191.4561356534091,132.39670053571461L192.6988984375,136.33397944718598L192.86460014204545,134.99038957506417L193.05223295454547,143.76471337378024L193.08634801136364,141.0280364051461L193.1813828125,144.09161586761473L193.25936008522729,146.301775187999L194.00014417613636,148.8180156096816L194.16828267045454,147.84172355644404L194.26575426136364,151.3109123658389L194.7019396306818,153.3799537036568L194.75798579545454,141.62015635967254L195.22584943181818,153.92412974946203L195.28676917613637,151.82380907684566L195.60598863636363,142.93011039942502L195.62304616477275,138.46225731521844L195.67909232954545,136.39178865104913L195.75950639204547,145.85835246816276L195.76925355113636,148.0506975620985L195.92764488636365,140.6814663156867L196.08603622159092,130.440693166852L196.5392791193182,146.04125746041535L196.63431392045456,141.96131553947924L196.67330255681816,135.45291625410317L197.0242002840909,147.49622023180126L197.08755681818184,143.76682203710078L197.1777180397727,155.82836545519532L197.69675426136362,142.41915077418088L197.79666264204545,147.6707469344139L197.9891690340909,149.4114020884037L198.11100852272727,141.7159712359309L198.1573075284091,154.16411494817586L198.4058600852273,143.05070870071648L199.04917258522727,156.20814118981363L199.32452982954547,142.2468670129776L199.4098174715909,134.98068839758633L200.44057954545457,145.8912920437753L200.75248863636364,143.996550296247L201.16674289772726,144.49586254060267L201.6078018465909,152.14944173097612L201.839296875,144.81786471307277L202.13658522727275,151.82062618881466L202.35102272727272,151.9336444091052L202.43387357954543,147.1885700661689L202.5825177556818,151.86196063160898L202.6263799715909,133.38460764363407L202.80913920454546,151.66647991612555L203.17709446022727,134.23192559257149L203.3038075284091,148.73618637658655L203.64495809659093,148.93260786756872L204.23709801136366,138.66207305788993L204.8511690340909,153.620508755371L205.2434921875,137.1774878770113L205.3604580965909,148.4741725258529L205.8331953125,149.74712217673658L205.91117258522726,149.19231826886534L205.9306669034091,146.93756701871752L206.39122017045455,150.2580188073218L206.42777201704544,154.34179014042022L206.58860014204546,149.67979166172444L206.8956356534091,116.42429866343736L207.1027627840909,144.32533765658735L207.2343494318182,148.54427729249L207.4244190340909,146.04264997392892L207.91665056818184,147.01314403191208L207.9946278409091,136.67978365421294L208.0847890625,140.83543520867823L208.27973224431818,153.3130533758551L208.4600546875,158.0353928634897L208.6476875,148.46558370143174L209.10580397727273,148.8647535022348L209.18134446022728,154.47121764048936L209.26175852272726,154.1788942411542L209.4177130681818,147.86228219494222L209.5127478693182,147.9301995549351L209.53955255681817,147.38731075525283L209.6930703125,149.18821781389414L210.26815269886364,155.72409105934204L210.33881960227274,149.44472957849501L211.4061335227273,152.72887489274146L211.86912357954546,151.06003199219705L211.88618110795454,150.58186937570574L212.20540056818183,156.3634715134278L212.23707883522727,153.99432362038644L212.3491711647727,154.89524919521065L212.41252769886364,141.17144374623894L212.5441143465909,155.0180054780096L212.76098863636363,138.80687291249632L213.69915269886366,149.50536691099404L213.83804971590908,139.04567571803926L214.09634943181817,143.0386866673827L214.25474076704546,149.80187282413243L214.36439630681818,151.8261581145227L214.7323515625,142.0238228186965L214.76159303977272,150.9292152941227L215.40490553977273,139.92166949883102L215.48044602272728,150.6963024891913L215.51212428977271,147.50302945710717L216.0896434659091,145.1358584359288L216.25290838068182,143.75422807857393L216.82068039772727,145.63448105454444L217.0448650568182,149.7506018027663L217.1642677556818,154.2791170857847L217.42500426136363,157.47912101428957L218.0025234375,134.6424269720912L218.2535127840909,149.14226238131522L218.4606399147727,147.74758218303322L218.49962855113637,131.5247350975871L219.4304822443182,140.5707382827997L219.47190767045453,151.75605169013144L219.7423913352273,156.4866082508117L219.78869034090908,146.42960792854427L219.9860703125,148.38433716893195L220.1371512784091,139.1298017695546L220.6293828125,147.3112679131329L220.82919957386363,149.46874380558728L221.14841903409092,149.149451232329L222.29371022727273,142.49125479236244L222.66897585227275,151.71707457378508L222.71771164772727,158.59318072889002L223.2196903409091,151.86812581941487L223.45849573863634,148.29620183892547L223.57302485795452,152.12004477605225L223.6436917613636,147.72141619101166L224.00921022727275,144.29293685108422L224.0579460227273,150.6666883684695L224.06525639204546,145.74510630667208L224.21633735795456,153.284030658938L224.27238352272727,151.81920798011126L224.27969389204546,148.69105650559067L224.76948863636366,150.25595656111838L224.94737428977274,150.24075827077033L225.15450142045455,154.78114929031582L225.21785795454548,153.09688057266177L225.5248934659091,156.9661335412413L225.6784112215909,127.26119026988744L226.70186292613636,152.79111610241236L226.84563352272727,144.52066420093178L226.85050710227273,149.30112662240862L226.92604758522725,152.42093876451256L227.09905965909093,146.12079484835266L227.66926846590908,153.6861214226112L227.90563707386363,141.31670279875397L228.5099609375,152.42409512847664L229.00219247159092,140.6135315492749L229.55778053977272,148.603681255877L229.9476669034091,153.21480657421054L230.7250028409091,143.4438451051712L230.83222159090909,142.6920005351305L231.10514204545453,156.24815191589298L231.19774005681816,143.2620789900422L231.7094659090909,152.8671680621803L231.97020241477273,145.23694662824272L232.3089161931818,148.9567165866494L232.37470951704546,149.30975523293017L232.6841818181818,147.33035612367092L233.01802201704544,144.4045633867383L233.1544822443182,138.8538752168417L233.23245951704544,111.86037872433661L233.40547159090912,150.53593963831665L233.4956328125,152.150302105397L234.33145170454546,152.06941944994034L234.5483259943182,150.0827527463436L234.6043721590909,150.9611759658903L234.75057954545454,144.37296327650546L235.4060759943182,154.55350607149305L235.60101917613636,157.3592921181582L235.80570951704547,156.08271426502617L235.90318110795454,137.39087896868585L235.9762848011364,152.34656528085472L236.13467613636365,143.1220352321863L236.2126534090909,147.3819694712758L237.15325426136363,146.677132178843L237.48953125,151.1160276129842L237.66010653409091,151.8919021587819L237.83068181818183,147.770322426036L238.12309659090909,147.78738071657716L238.23031534090907,157.8979604829103L238.37652272727274,152.42938667982818L238.56171875,156.15424801576884L238.70061576704543,147.71636915840207L238.9174900568182,150.6542717896402L239.04907670454546,158.2056118918583L239.24401988636365,149.40430524274706L239.51206676136363,140.79355370700358L239.53643465909093,157.0943088152446L239.88489559659092,155.72217966876926L240.06278125,146.21459886878728L240.53064488636363,148.9844408676028L240.70122017045455,150.80552196577193L240.82062286931819,153.97461831085386L240.86448508522727,150.97656489796938L241.0204396306818,147.4494201734662L241.38352130681818,149.57866534106432L241.95860369318183,157.83803930021824L242.1169950284091,149.2024703554809L242.64090482954546,157.3187490457669L243.21598721590908,149.52876776903867L243.2671598011364,154.5802415020764L243.4742869318182,153.94571495223792L243.47916051136363,152.01697888299825L244.13709375000002,157.88240950535985L244.37346235795454,152.904588547349L245.1118096590909,152.65933956466617L245.20684446022727,142.4115566022694L245.6113515625,148.64665521755813L245.798984375,146.48408836200832L245.8550305397727,150.79822784736754L246.24979048295455,152.22475433237852L246.51052698863637,157.1844736508094L246.58850426136362,146.8204756963998L246.65429758522725,151.51063610315325L246.6762286931818,158.25469757877292L246.84924076704547,149.05480175726115L247.00275852272728,140.86194601356982L247.03199999999998,153.8927509494126L247.23425355113636,156.0981363521889L247.42675994318182,136.9451900988817L247.67287571022726,148.78602841384708L247.7216115056818,157.5800687119365L247.86538210227272,152.4478888742626L247.90680752840908,143.00077714473008L248.04570454545456,146.30578032210468L248.07250923295456,152.62882694117727L248.42828053977274,157.29485894301908L248.54037286931816,151.08795686140658L249.10570809659092,149.2625888109207L249.15444389204544,148.87130080237984L250.0243778409091,147.05847532004117L250.04143536931818,148.36130847670137L250.45081605113637,150.25291375331582L250.53366690340908,150.02226295396684L250.61164417613637,151.92380812466146L250.74323082386366,145.95726900249718L250.9625419034091,151.3333318334073L251.4377159090909,148.83750831224023L251.51325639204546,143.20643978640436L251.64727982954545,150.8269509252161L251.73256747159093,157.44852363811808L251.75693536931817,155.64999276287855L252.232109375,146.9104511335492L252.50259303977273,151.47545441500844L252.85592755681816,158.37362735047938L252.98995099431818,136.90382913202046L253.50655042613636,147.286232509464L253.85257457386362,158.37315426887946L254.0377705965909,157.72155471593143L254.40572585227272,152.36235704720022L254.8394744318182,147.67316642664372L254.98080823863637,154.84846861548723L255.88242045454544,144.46132820546626L256.1358465909091,157.75075584864246L256.16996164772723,147.6672059714794L256.2162606534091,150.44151396006347L256.31616903409093,150.55172145813705L256.3502840909091,153.81679679714145L256.3868359375,153.83771724049004L256.41851420454543,145.81649417504667L256.44288210227273,152.15379830896856L256.51354900568185,152.63971092626454L256.6110205965909,147.17527985088526L256.63295170454546,152.33405255228283L256.7718487215909,153.57406262755396L256.8303316761364,135.52106984406709L257.2445859375,153.17424713149668L257.24945951704547,149.01763242185115L257.66127698863636,151.37750020697715L258.09015198863636,151.21699478924276L258.2972791193182,147.47177581749855" style="fill: none;" fill="none"></path></g></g></g></g></g></g><g transform="translate(61, 178)" clip-path="url(#clip_1)"><clipPath id="clip_1"><rect width="268" height="22"></rect></clipPath><g><g><line x1="0" y1="0" x2="0" y2="5" style="visibility: inherit;" fill="rgb(0, 0, 0)" stroke="rgb(204, 204, 204)" stroke-width="1px"></line><line x1="24.367897727272727" y1="0" x2="24.367897727272727" y2="5" style="visibility: inherit;" fill="rgb(0, 0, 0)" stroke="rgb(204, 204, 204)" stroke-width="1px"></line><line x1="48.73579545454545" y1="0" x2="48.73579545454545" y2="5" style="visibility: inherit;" fill="rgb(0, 0, 0)" stroke="rgb(204, 204, 204)" stroke-width="1px"></line><line x1="73.10369318181817" y1="0" x2="73.10369318181817" y2="5" style="visibility: inherit;" fill="rgb(0, 0, 0)" stroke="rgb(204, 204, 204)" stroke-width="1px"></line><line x1="97.4715909090909" y1="0" x2="97.4715909090909" y2="5" style="visibility: inherit;" fill="rgb(0, 0, 0)" stroke="rgb(204, 204, 204)" stroke-width="1px"></line><line x1="121.83948863636363" y1="0" x2="121.83948863636363" y2="5" style="visibility: inherit;" fill="rgb(0, 0, 0)" stroke="rgb(204, 204, 204)" stroke-width="1px"></line><line x1="146.20738636363635" y1="0" x2="146.20738636363635" y2="5" style="visibility: inherit;" fill="rgb(0, 0, 0)" stroke="rgb(204, 204, 204)" stroke-width="1px"></line><line x1="170.5752840909091" y1="0" x2="170.5752840909091" y2="5" style="visibility: inherit;" fill="rgb(0, 0, 0)" stroke="rgb(204, 204, 204)" stroke-width="1px"></line><line x1="194.9431818181818" y1="0" x2="194.9431818181818" y2="5" style="visibility: inherit;" fill="rgb(0, 0, 0)" stroke="rgb(204, 204, 204)" stroke-width="1px"></line><line x1="219.31107954545456" y1="0" x2="219.31107954545456" y2="5" style="visibility: inherit;" fill="rgb(0, 0, 0)" stroke="rgb(204, 204, 204)" stroke-width="1px"></line><line x1="243.67897727272725" y1="0" x2="243.67897727272725" y2="5" style="visibility: inherit;" fill="rgb(0, 0, 0)" stroke="rgb(204, 204, 204)" stroke-width="1px"></line><line x1="268.046875" y1="0" x2="268.046875" y2="5" style="visibility: inherit;" fill="rgb(0, 0, 0)" stroke="rgb(204, 204, 204)" stroke-width="1px"></line></g><g transform="translate(0, 8)"><text x="0" y="0" dx="0em" dy="0.95em" style="text-anchor: middle; visibility: hidden; font-family: Roboto, sans-serif; font-size: 12px; font-weight: 200;" fill="rgb(50, 49, 63)" stroke="none" stroke-width="1px">-10k</text><text x="24.367897727272727" y="0" dx="0em" dy="0.95em" style="text-anchor: middle; visibility: inherit; font-family: Roboto, sans-serif; font-size: 12px; font-weight: 200;" fill="rgb(50, 49, 63)" stroke="none" stroke-width="1px">0</text><text x="48.73579545454545" y="0" dx="0em" dy="0.95em" style="text-anchor: middle; visibility: hidden; font-family: Roboto, sans-serif; font-size: 12px; font-weight: 200;" fill="rgb(50, 49, 63)" stroke="none" stroke-width="1px">10k</text><text x="73.10369318181817" y="0" dx="0em" dy="0.95em" style="text-anchor: middle; visibility: inherit; font-family: Roboto, sans-serif; font-size: 12px; font-weight: 200;" fill="rgb(50, 49, 63)" stroke="none" stroke-width="1px">20k</text><text x="97.4715909090909" y="0" dx="0em" dy="0.95em" style="text-anchor: middle; visibility: hidden; font-family: Roboto, sans-serif; font-size: 12px; font-weight: 200;" fill="rgb(50, 49, 63)" stroke="none" stroke-width="1px">30k</text><text x="121.83948863636363" y="0" dx="0em" dy="0.95em" style="text-anchor: middle; visibility: inherit; font-family: Roboto, sans-serif; font-size: 12px; font-weight: 200;" fill="rgb(50, 49, 63)" stroke="none" stroke-width="1px">40k</text><text x="146.20738636363635" y="0" dx="0em" dy="0.95em" style="text-anchor: middle; visibility: hidden; font-family: Roboto, sans-serif; font-size: 12px; font-weight: 200;" fill="rgb(50, 49, 63)" stroke="none" stroke-width="1px">50k</text><text x="170.5752840909091" y="0" dx="0em" dy="0.95em" style="text-anchor: middle; visibility: inherit; font-family: Roboto, sans-serif; font-size: 12px; font-weight: 200;" fill="rgb(50, 49, 63)" stroke="none" stroke-width="1px">60k</text><text x="194.9431818181818" y="0" dx="0em" dy="0.95em" style="text-anchor: middle; visibility: hidden; font-family: Roboto, sans-serif; font-size: 12px; font-weight: 200;" fill="rgb(50, 49, 63)" stroke="none" stroke-width="1px">70k</text><text x="219.31107954545456" y="0" dx="0em" dy="0.95em" style="text-anchor: middle; visibility: inherit; font-family: Roboto, sans-serif; font-size: 12px; font-weight: 200;" fill="rgb(50, 49, 63)" stroke="none" stroke-width="1px">80k</text><text x="243.67897727272725" y="0" dx="0em" dy="0.95em" style="text-anchor: middle; visibility: hidden; font-family: Roboto, sans-serif; font-size: 12px; font-weight: 200;" fill="rgb(50, 49, 63)" stroke="none" stroke-width="1px">90k</text><text x="268.046875" y="0" dx="0em" dy="0.95em" style="text-anchor: middle; visibility: hidden; font-family: Roboto, sans-serif; font-size: 12px; font-weight: 200;" fill="rgb(50, 49, 63)" stroke="none" stroke-width="1px">100k</text></g><line x1="0" y1="0" x2="268.046875" y2="0" fill="rgb(0, 0, 0)" stroke="rgb(204, 204, 204)" stroke-width="1px"></line></g></g></g></g></svg>