<svg viewBox="0 0 330 200" xmlns="http://www.w3.org/2000/svg"><g><g><g><g><g><line x1="30.78125" y1="178" x2="25.78125" y2="178" style="visibility: inherit;" fill="rgb(0, 0, 0)" stroke="rgb(204, 204, 204)" stroke-width="1px"></line><line x1="30.78125" y1="160.20000000000002" x2="25.78125" y2="160.20000000000002" style="visibility: inherit;" fill="rgb(0, 0, 0)" stroke="rgb(204, 204, 204)" stroke-width="1px"></line><line x1="30.78125" y1="142.4" x2="25.78125" y2="142.4" style="visibility: inherit;" fill="rgb(0, 0, 0)" stroke="rgb(204, 204, 204)" stroke-width="1px"></line><line x1="30.78125" y1="124.6" x2="25.78125" y2="124.6" style="visibility: inherit;" fill="rgb(0, 0, 0)" stroke="rgb(204, 204, 204)" stroke-width="1px"></line><line x1="30.78125" y1="106.8" x2="25.78125" y2="106.8" style="visibility: inherit;" fill="rgb(0, 0, 0)" stroke="rgb(204, 204, 204)" stroke-width="1px"></line><line x1="30.78125" y1="89" x2="25.78125" y2="89" style="visibility: inherit;" fill="rgb(0, 0, 0)" stroke="rgb(204, 204, 204)" stroke-width="1px"></line><line x1="30.78125" y1="71.2" x2="25.78125" y2="71.2" style="visibility: inherit;" fill="rgb(0, 0, 0)" stroke="rgb(204, 204, 204)" stroke-width="1px"></line><line x1="30.78125" y1="53.400000000000006" x2="25.78125" y2="53.400000000000006" style="visibility: inherit;" fill="rgb(0, 0, 0)" stroke="rgb(204, 204, 204)" stroke-width="1px"></line><line x1="30.78125" y1="35.599999999999994" x2="25.78125" y2="35.599999999999994" style="visibility: inherit;" fill="rgb(0, 0, 0)" stroke="rgb(204, 204, 204)" stroke-width="1px"></line><line x1="30.78125" y1="17.799999999999997" x2="25.78125" y2="17.799999999999997" style="visibility: inherit;" fill="rgb(0, 0, 0)" stroke="rgb(204, 204, 204)" stroke-width="1px"></line><line x1="30.78125" y1="0" x2="25.78125" y2="0" style="visibility: inherit;" fill="rgb(0, 0, 0)" stroke="rgb(204, 204, 204)" stroke-width="1px"></line></g><g transform="translate(20.78125, 0)"><text x="0" y="178" dx="0em" dy="0.3em" style="text-anchor: end; visibility: hidden; font-family: Roboto, sans-serif; font-size: 12px; font-weight: 200;" fill="rgb(50, 49, 63)" stroke="none" stroke-width="1px">-5</text><text x="0" y="160.20000000000002" dx="0em" dy="0.3em" style="text-anchor: end; visibility: inherit; font-family: Roboto, sans-serif; font-size: 12px; font-weight: 200;" fill="rgb(50, 49, 63)" stroke="none" stroke-width="1px">-4</text><text x="0" y="142.4" dx="0em" dy="0.3em" style="text-anchor: end; visibility: hidden; font-family: Roboto, sans-serif; font-size: 12px; font-weight: 200;" fill="rgb(50, 49, 63)" stroke="none" stroke-width="1px">-3</text><text x="0" y="124.6" dx="0em" dy="0.3em" style="text-anchor: end; visibility: inherit; font-family: Roboto, sans-serif; font-size: 12px; font-weight: 200;" fill="rgb(50, 49, 63)" stroke="none" stroke-width="1px">-2</text><text x="0" y="106.8" dx="0em" dy="0.3em" style="text-anchor: end; visibility: hidden; font-family: Roboto, sans-serif; font-size: 12px; font-weight: 200;" fill="rgb(50, 49, 63)" stroke="none" stroke-width="1px">-1</text><text x="0" y="89" dx="0em" dy="0.3em" style="text-anchor: end; visibility: inherit; font-family: Roboto, sans-serif; font-size: 12px; font-weight: 200;" fill="rgb(50, 49, 63)" stroke="none" stroke-width="1px">0</text><text x="0" y="71.2" dx="0em" dy="0.3em" style="text-anchor: end; visibility: hidden; font-family: Roboto, sans-serif; font-size: 12px; font-weight: 200;" fill="rgb(50, 49, 63)" stroke="none" stroke-width="1px">1</text><text x="0" y="53.400000000000006" dx="0em" dy="0.3em" style="text-anchor: end; visibility: inherit; font-family: Roboto, sans-serif; font-size: 12px; font-weight: 200;" fill="rgb(50, 49, 63)" stroke="none" stroke-width="1px">2</text><text x="0" y="35.599999999999994" dx="0em" dy="0.3em" style="text-anchor: end; visibility: hidden; font-family: Roboto, sans-serif; font-size: 12px; font-weight: 200;" fill="rgb(50, 49, 63)" stroke="none" stroke-width="1px">3</text><text x="0" y="17.799999999999997" dx="0em" dy="0.3em" style="text-anchor: end; visibility: inherit; font-family: Roboto, sans-serif; font-size: 12px; font-weight: 200;" fill="rgb(50, 49, 63)" stroke="none" stroke-width="1px">4</text><text x="0" y="0" dx="0em" dy="0.3em" style="text-anchor: end; visibility: hidden; font-family: Roboto, sans-serif; font-size: 12px; font-weight: 200;" fill="rgb(50, 49, 63)" stroke="none" stroke-width="1px">5</text></g><line x1="30.78125" y1="0" x2="30.78125" y2="178" fill="rgb(0, 0, 0)" stroke="rgb(204, 204, 204)" stroke-width="1px"></line></g></g><g transform="translate(30, 0)" clip-path="url(#clip_0)"><clipPath id="clip_0"><rect width="299" height="178"></rect></clipPath><g><g><g><line x1="0" y1="0" x2="0" y2="178" fill="rgb(0, 0, 0)" stroke="rgb(60, 60, 60)" stroke-width="1px" opacity="0.25"></line><line x1="24.934895833333332" y1="0" x2="24.934895833333332" y2="178" fill="rgb(0, 0, 0)" stroke="rgb(60, 60, 60)" stroke-width="1px" opacity="0.25"></line><line x1="49.869791666666664" y1="0" x2="49.869791666666664" y2="178" fill="rgb(0, 0, 0)" stroke="rgb(60, 60, 60)" stroke-width="1px" opacity="0.25"></line><line x1="74.8046875" y1="0" x2="74.8046875" y2="178" fill="rgb(0, 0, 0)" stroke="rgb(60, 60, 60)" stroke-width="1px" opacity="0.25"></line><line x1="99.73958333333333" y1="0" x2="99.73958333333333" y2="178" fill="rgb(0, 0, 0)" stroke="rgb(60, 60, 60)" stroke-width="1px" opacity="0.25"></line><line x1="124.67447916666667" y1="0" x2="124.67447916666667" y2="178" fill="rgb(0, 0, 0)" stroke="rgb(60, 60, 60)" stroke-width="1px" opacity="0.25"></line><line x1="149.609375" y1="0" x2="149.609375" y2="178" fill="rgb(0, 0, 0)" stroke="rgb(60, 60, 60)" stroke-width="1px" opacity="0.25"></line><line x1="174.54427083333334" y1="0" x2="174.54427083333334" y2="178" fill="rgb(0, 0, 0)" stroke="rgb(60, 60, 60)" stroke-width="1px" opacity="0.25"></line><line x1="199.47916666666666" y1="0" x2="199.47916666666666" y2="178" fill="rgb(0, 0, 0)" stroke="rgb(60, 60, 60)" stroke-width="1px" opacity="0.25"></line><line x1="224.4140625" y1="0" x2="224.4140625" y2="178" fill="rgb(0, 0, 0)" stroke="rgb(60, 60, 60)" stroke-width="1px" opacity="0.25"></line><line x1="249.34895833333334" y1="0" x2="249.34895833333334" y2="178" fill="rgb(0, 0, 0)" stroke="rgb(60, 60, 60)" stroke-width="1px" opacity="0.25"></line><line x1="274.28385416666663" y1="0" x2="274.28385416666663" y2="178" fill="rgb(0, 0, 0)" stroke="rgb(60, 60, 60)" stroke-width="1px" opacity="0.25"></line><line x1="299.21875" y1="0" x2="299.21875" y2="178" fill="rgb(0, 0, 0)" stroke="rgb(60, 60, 60)" stroke-width="1px" opacity="0.25"></line></g><g><line x1="0" y1="178" x2="299.21875" y2="178" fill="rgb(0, 0, 0)" stroke="rgb(60, 60, 60)" stroke-width="1px" opacity="0.25"></line><line x1="0" y1="160.20000000000002" x2="299.21875" y2="160.20000000000002" fill="rgb(0, 0, 0)" stroke="rgb(60, 60, 60)" stroke-width="1px" opacity="0.25"></line><line x1="0" y1="142.4" x2="299.21875" y2="142.4" fill="rgb(0, 0, 0)" stroke="rgb(60, 60, 60)" stroke-width="1px" opacity="0.25"></line><line x1="0" y1="124.6" x2="299.21875" y2="124.6" fill="rgb(0, 0, 0)" stroke="rgb(60, 60, 60)" stroke-width="1px" opacity="0.25"></line><line x1="0" y1="106.8" x2="299.21875" y2="106.8" fill="rgb(0, 0, 0)" stroke="rgb(60, 60, 60)" stroke-width="1px" opacity="0.25"></line><line x1="0" y1="89" x2="299.21875" y2="89" fill="rgb(0, 0, 0)" stroke="rgb(60, 60, 60)" stroke-width="1px" opacity="0.25"></line><line x1="0" y1="71.2" x2="299.21875" y2="71.2" fill="rgb(0, 0, 0)" stroke="rgb(60, 60, 60)" stroke-width="1px" opacity="0.25"></line><line x1="0" y1="53.400000000000006" x2="299.21875" y2="53.400000000000006" fill="rgb(0, 0, 0)" stroke="rgb(60, 60, 60)" stroke-width="1px" opacity="0.25"></line><line x1="0" y1="35.599999999999994" x2="299.21875" y2="35.599999999999994" fill="rgb(0, 0, 0)" stroke="rgb(60, 60, 60)" stroke-width="1px" opacity="0.25"></line><line x1="0" y1="17.799999999999997" x2="299.21875" y2="17.799999999999997" fill="rgb(0, 0, 0)" stroke="rgb(60, 60, 60)" stroke-width="1px" opacity="0.25"></line><line x1="0" y1="0" x2="299.21875" y2="0" fill="rgb(0, 0, 0)" stroke="rgb(60, 60, 60)" stroke-width="1px" opacity="0.25"></line></g></g></g><g><g><line x1="0" y1="89" x2="299.21875" y2="89" fill="rgb(0, 0, 0)" stroke="rgb(153, 153, 153)" stroke-width="1.5px"></line></g></g><g><g><line x1="24.934895833333332" y1="0" x2="24.934895833333332" y2="178" fill="rgb(0, 0, 0)" stroke="rgb(153, 153, 153)" stroke-width="1.5px"></line></g></g><g><g><g><g><g><path stroke="rgb(255, 112, 67)" stroke-width="2px" d="M25.433593750000004,89.04867054796777L25.433593750000004,89.08501139223226L25.932291666666668,89.12563066607512L25.932291666666668,89.15122577967345L26.430989583333332,89.2049926498841L26.430989583333332,89.24450646635621L26.9296875,89.25991147543104L26.9296875,89.27296334998869L27.428385416666664,89.32314123119241L27.428385416666664,89.33977994661528L27.927083333333336,89.45445449399674L27.927083333333336,89.46305000682995L28.42578125,89.54199744180949L28.42578125,89.57938184777194L28.924479166666664,89.73240522281904L28.924479166666664,89.85529029329102L29.423177083333332,89.99051467771285L29.423177083333332,90.11837130925399L29.921875,89.92853020028679L29.921875,90.05821643587264L30.420572916666668,90.00923567680748L30.420572916666668,90.05478320389014L30.919270833333332,90.28904175191693L30.919270833333332,90.32550553451257L31.41796875,90.58431361864113L31.41796875,90.71412121712902L31.916666666666668,91.31842317596886L31.916666666666668,91.52073578989304L32.415364583333336,92.00807479787771L32.415364583333336,91.72006941489441L32.9140625,92.42526112523925L32.9140625,92.61765244541253L33.412760416666664,92.63666788989322L33.412760416666664,92.85397214113814L25.433593750000004,91.34974542088518L25.433593750000004,90.47782595369743L25.932291666666668,89.96314466702425L25.932291666666668,89.66037049364367L26.430989583333332,89.50096616766892L26.430989583333332,89.42274208622874L26.9296875,89.3973533226805L27.428385416666664,89.44502962107313L27.428385416666664,89.49799786166797L27.927083333333336,89.58547109758254L27.927083333333336,89.65294275490386L28.42578125,89.76130592917845L28.42578125,89.8112129401908L28.924479166666664,89.96008453797111L28.924479166666664,89.94695189583766L29.423177083333332,90.1284603285117L29.423177083333332,90.22404282673185L29.921875,90.37688527932201L29.921875,90.50818179327533L30.420572916666668,90.64616571592278L30.420572916666668,90.7510501398265L30.919270833333332,90.94234258375292L30.919270833333332,91.11501870895465L31.41796875,91.47959192004828L31.41796875,91.66413497213742L31.916666666666668,91.70464470198286L31.916666666666668,92.06200412398896L32.415364583333336,92.79460455826714L32.415364583333336,92.65945162804005L32.9140625,94.07730968970704L32.9140625,95.41162001477866L33.412760416666664,97.39409762494083L33.412760416666664,99.19683462305255L33.91145833333333,100.47700882627599L33.91145833333333,102.7774265186431L34.41015625,105.96293356278194L34.41015625,106.86053463374765L34.908854166666664,111.58678201529497L34.908854166666664,113.91391342457007L35.407552083333336,117.1161154077999L35.407552083333336,117.5259704951377L35.90625,118.78306755327769L35.90625,119.44242225231878L36.40494791666667,119.91482160891384L36.40494791666667,121.3822064495402L36.903645833333336,123.49986752130494L36.903645833333336,126.0056606784934L37.40234375,127.33301846596446L37.40234375,128.07402372606305L37.90104166666667,129.11357570795838L37.90104166666667,126.6646724099435L38.39973958333333,128.0483405515264L38.39973958333333,129.14826700715486L38.8984375,130.72369786756195L38.8984375,130.29309998427007L39.397135416666664,129.69740265413625L39.397135416666664,130.52647664192023L39.895833333333336,128.56443979527177L39.895833333333336,129.6990808235742L40.39453125,131.39046549243554L40.39453125,131.86960350658194L40.893229166666664,131.73464662543353L40.893229166666664,132.66548628992686L41.391927083333336,131.3367921172789L41.391927083333336,131.38857492322987L41.89062500000001,130.58709276506463L41.89062500000001,129.20215802186226L42.389322916666664,132.10196972843107L42.389322916666664,133.1875704059368L42.888020833333336,132.38309819754159L42.888020833333336,132.19746065650102L43.38671875,131.02251482316086L43.38671875,129.8394571704163L43.885416666666664,131.8142197276648L43.885416666666664,132.28683689030981L44.384114583333336,135.9842931055604L44.384114583333336,135.05569011351935L44.8828125,137.0040315722315L44.8828125,135.6953355082803L45.38151041666667,137.43151519351798L45.38151041666667,138.40564732106685L45.88020833333333,137.21767895431614L45.88020833333333,139.5155314601141L46.37890625,143.28044308642612L46.37890625,147.30197669398825L46.87760416666667,148.42037640411877L46.87760416666667,149.34995161532893L47.37630208333333,150.29170921230036L47.37630208333333,156.89677506198714L47.875,154.9609096187963L47.875,155.44311521402682L48.373697916666664,150.1479808876019L48.373697916666664,150.65126268798716L48.872395833333336,147.54614449938896L48.872395833333336,148.38517577052573L49.37109375,150.70268623471534L49.37109375,145.8987288215177L49.869791666666664,141.6423720585356L49.869791666666664,139.80021611613333L50.368489583333336,145.24794070102155L50.368489583333336,146.64780258284438L50.86718750000001,152.99391230074423L50.86718750000001,158.65205660896217L51.365885416666664,155.8968260445399L51.365885416666664,154.81371324528473L51.864583333333336,156.30810206216108L51.864583333333336,157.28070707012137L52.36328125,152.82161462598395L52.36328125,150.19542177852006L52.861979166666664,151.096578609562L52.861979166666664,156.88533901906973L53.360677083333336,145.82090441547015L53.360677083333336,155.81440384007797L53.859375,162.19342444668595L53.859375,172.65192483860483L54.35807291666667,162.64270616887944L54.35807291666667,161.35959623169265L54.85677083333333,159.3446252126179L54.85677083333333,156.9137632905651L55.35546875,153.35290700311714L55.35546875,154.20885968038593L55.85416666666667,154.7947482003519L55.85416666666667,155.1338196691125L56.35286458333333,145.34193826295433L56.35286458333333,141.23738807068762L56.8515625,147.22789590851366L56.8515625,151.4763868027681L57.35026041666667,151.00416179738963L57.35026041666667,155.72898652698115L57.84895833333333,153.4675785502524L57.84895833333333,154.1850753665406L58.34765625,151.65928159001103L58.34765625,151.11645516540187L58.846354166666664,150.31319709292399L58.846354166666664,148.44880448622314L59.345052083333336,151.1895301511455L59.345052083333336,154.56594553056766L59.84375,149.70291656531936L59.84375,150.40400553153782L60.342447916666664,149.1090534043719L60.342447916666664,150.95818882896958L60.841145833333336,154.5346408707765L60.841145833333336,156.92191081183358L61.33984374999999,141.62467717252497L61.33984374999999,134.09596844150022L61.838541666666664,146.86454891463157L61.838541666666664,154.36098825991178L62.337239583333336,149.3118649438621L62.337239583333336,146.82092881891734L62.8359375,144.83227088387972L62.8359375,144.93404982051948L63.334635416666664,148.58544543720302L63.334635416666664,149.48828600011478L63.833333333333336,151.55522009707815L63.833333333333336,153.77937845335796L64.33203125,142.367267555871L64.33203125,137.37416824989222L64.83072916666667,137.70902699287356L64.83072916666667,138.79167691502346L65.32942708333333,134.16160593767984L65.32942708333333,135.8243321272136L65.828125,132.36489588811406L65.828125,130.70371067282204L66.32682291666667,129.98105214450746L66.32682291666667,130.33927469261877L66.82552083333333,134.87349761967891L66.82552083333333,138.53662966159007L67.32421875,129.85750594179046L67.32421875,127.69859592461712L67.82291666666666,125.96086837019996L67.82291666666666,125.58593214730308L68.32161458333333,116.14781964051654L68.32161458333333,116.42125093119103L68.8203125,118.05232316956972L68.8203125,120.24487672034535L69.31901041666667,120.067238837383L69.31901041666667,122.58667962902891L69.81770833333333,126.26490118714636L69.81770833333333,131.43747943527976L70.31640625,130.04521825961757L70.31640625,128.7002056399136L70.81510416666667,125.97303216690715L70.81510416666667,125.83922438284692L71.31380208333334,121.8721530226525L71.31380208333334,122.3361703555379L71.8125,124.50269285205566L71.8125,130.0318633041594L72.31119791666667,126.53267443429314L72.31119791666667,124.64484438568878L72.80989583333334,128.06692787927705L72.80989583333334,131.1080581481595L73.30859375,126.16142042013044L73.30859375,123.41607358653566L73.80729166666667,123.77867509483826L73.80729166666667,125.1461574265929L74.30598958333333,122.84260233101678L74.30598958333333,120.43360763464827L74.8046875,116.25669704958473L74.8046875,115.48775316169665L75.30338541666666,109.6942859082866L75.30338541666666,107.20174893793155L75.80208333333334,109.65736210499222L75.80208333333334,116.29506768795261L76.30078125,120.45967414624936L76.30078125,123.74457062391903L76.79947916666666,118.37533414070884L76.79947916666666,116.79859080615687L77.29817708333334,111.75240488709835L77.29817708333334,109.48833268083233L77.796875,117.42231441257654L77.796875,123.61558532189285L78.29557291666666,119.06709761304234L78.29557291666666,115.88594322015388L78.79427083333333,115.10247959023442L78.79427083333333,116.66763932541446L79.29296875,109.65502615353724L79.29296875,106.76250239122665L79.79166666666667,107.37014245455715L79.79166666666667,111.83324907937796L80.29036458333333,108.30593788337202L80.29036458333333,109.4536546165436L80.7890625,106.3409186181241L80.7890625,105.84459631781658L81.28776041666667,112.01561290467312L81.28776041666667,114.37538531329947L81.78645833333333,110.91063031975457L81.78645833333333,113.80547274484653L82.28515625,112.77730830511103L82.28515625,114.29466762543113L82.78385416666667,116.19029570579761L82.78385416666667,118.73968401527544L83.28255208333333,117.447899802781L83.78125000000001,115.66034665123037L83.78125000000001,114.00118897447236L84.27994791666667,107.92143772416858L84.27994791666667,106.91768929942577L84.77864583333333,111.8969361447342L84.77864583333333,117.08788220304534L85.27734374999999,119.03060892235213L85.27734374999999,122.81369589692935L85.77604166666667,119.10686353043666L85.77604166666667,118.77266286847562L86.27473958333333,122.62013946913224L86.27473958333333,124.58677476729477L86.7734375,123.82297725966887L86.7734375,125.93757398778983L87.27213541666667,130.66797993573422L87.27213541666667,136.00502996202036L87.77083333333333,135.26535075995758L87.77083333333333,133.7410588484611L88.26953125,125.47495193848647L88.26953125,120.0649736426451L88.76822916666667,125.63402477396598L88.76822916666667,129.1116847580258L89.26692708333333,128.20601121339703L89.26692708333333,129.01009079786243L89.765625,120.06970802409711L89.765625,114.52001062550103L90.26432291666667,118.81926711748814L90.26432291666667,120.74246536463961L90.76302083333334,121.23331828815023L90.76302083333334,123.6998005813496L91.26171875,119.27270216620784L91.26171875,121.68221991346371L91.76041666666666,118.35054548910911L91.76041666666666,113.35632394511495L92.25911458333334,115.09803802704211L92.25911458333334,120.17053002676603L92.7578125,123.19899350739263L92.7578125,125.18953814468826L93.25651041666666,130.7411130235317L93.25651041666666,136.18781104837194L93.75520833333334,128.72783615561926L93.75520833333334,124.14372893793941L94.25390625,129.38729414834717L94.25390625,133.2807312482246L94.75260416666666,141.22856631241132L94.75260416666666,148.30462351776296L95.25130208333334,137.71384403787334L95.25130208333334,129.6156765513556L95.75,130.87633408861976L95.75,134.5895602950908L96.24869791666666,143.06886805113896L96.24869791666666,146.97521760116067L96.74739583333333,142.13372295647886L96.74739583333333,140.27114815682188L97.24609375,133.33593835812817L97.24609375,130.51872201908833L97.74479166666667,124.28915252297644L97.74479166666667,119.7066876197429L98.24348958333333,116.75587445882388L98.24348958333333,116.36691274635453L98.7421875,128.3499480247048L98.7421875,137.14341852185413L99.24088541666667,129.32648719976714L99.24088541666667,126.25344177741033L99.73958333333333,126.5586190405978L99.73958333333333,127.90274958750565L100.23828125,122.62918947303868L100.23828125,120.30894057133543L100.73697916666667,121.58609778510777L100.73697916666667,121.97185450808553L101.23567708333333,121.86081960449427L101.23567708333333,120.86811744362002L101.73437500000001,118.00778304094008L101.73437500000001,120.27291020008285L102.23307291666667,128.5282540813229L102.23307291666667,135.4614578160728L102.73177083333333,132.24152568299084L102.73177083333333,131.98383680414264L103.23046874999999,123.45494491238061L103.23046874999999,122.54930143343606L103.72916666666667,122.94130248062132L103.72916666666667,124.15542281527709L104.22786458333333,125.45768739735718L104.22786458333333,126.4263900873401L104.7265625,129.677798430761L104.7265625,133.5876999858858L105.22526041666667,132.40023118995677L105.22526041666667,131.5688762589875L105.72395833333333,137.9533548882355L105.72395833333333,141.79668195073305L106.22265625,128.57790585890115L106.22265625,122.36796048006237L106.72135416666667,131.3153536958743L106.72135416666667,135.01794581432634L107.22005208333333,115.8310408194035L107.22005208333333,107.5392140173417L107.71875,118.19407898566138L107.71875,126.69659748066074L108.21744791666667,129.93791337960127L108.21744791666667,132.80870605083206L108.71614583333334,131.85536588056027L108.71614583333334,131.19286590589962L109.21484375,129.25417079552344L109.21484375,125.7703525043984L109.71354166666666,115.83240282401204L109.71354166666666,110.27241391578173L110.21223958333334,109.70221192025454L110.21223958333334,110.30841226567811L110.7109375,114.6198353957533L110.7109375,119.47320092388387L111.20963541666666,119.6292381278777L111.20963541666666,121.25180527640008L111.70833333333334,111.95441415472402L111.70833333333334,111.21358267404779L112.20703125,106.6772766681799L112.20703125,106.46422631336979L112.70572916666666,112.72905907865604L112.70572916666666,117.60829203746461L113.20442708333334,115.05930968178357L113.20442708333334,114.25881096394684L113.703125,112.2794173042287L113.703125,115.62241596939026L114.20182291666666,112.60319461680565L114.20182291666666,112.97985488806435L114.70052083333334,114.79207173487107L114.70052083333334,116.16713407218792L115.19921875,114.50672550785742L115.69791666666666,113.55408169143321L115.69791666666666,114.77737943478179L116.19661458333333,113.03706155865045L116.19661458333333,113.02351798682602L116.6953125,108.87771973412747L116.6953125,108.66438202739664L117.19401041666667,109.33537596631592L117.19401041666667,113.20880393367139L117.69270833333333,113.85073155034262L117.69270833333333,114.72384522598193L118.19140625,115.9805721273494L118.19140625,116.67059911671116L118.69010416666667,110.92697084297438L118.69010416666667,112.4376195690018L119.18880208333333,113.6730387938608L119.18880208333333,116.34332333162959L119.6875,117.47687617633065L119.6875,118.45184686477972L120.18619791666667,106.7914031572401L120.18619791666667,101.6331292454755L120.68489583333333,106.75399441625808L121.18359375000001,95.07348162118275L121.18359375000001,91.42024836649705L121.68229166666667,89.49882843321687L121.68229166666667,91.40496422187164L122.18098958333333,94.82079572520061L122.18098958333333,99.24731996918563L122.67968749999999,102.48770654716994L122.67968749999999,105.94841149162593L123.17838541666667,104.2459523410281L123.17838541666667,104.84919095818286L123.67708333333333,95.6158695839887L123.67708333333333,89.7809055818942L124.17578125,92.3421493013994L124.67447916666667,88.5441419935403L124.67447916666667,88.79506188474166L125.17317708333333,92.2027264943246L125.17317708333333,95.47804196539664L125.671875,89.88249886431186L125.671875,88.03884187697105L126.17057291666667,91.62451555823525L126.17057291666667,95.9371796756699L126.66927083333333,87.74837653098787L126.66927083333333,85.10992742453983L127.16796875,81.11641972109658L127.16796875,78.3010960676967L127.66666666666667,75.02285436264867L127.66666666666667,73.68595481081124L128.16536458333334,75.27771991350244L128.16536458333334,77.32695636187786L128.6640625,82.26956795802589L128.6640625,88.01756982535647L129.16276041666666,84.91302241164759L129.16276041666666,85.26692816661784L129.66145833333334,85.21214657453889L129.66145833333334,86.33767176138277L130.16015625,84.82608087102722L130.16015625,85.25401949787229L130.65885416666666,89.45661777200752L130.65885416666666,92.36232140268358L131.15755208333334,95.6002049982874L131.15755208333334,96.7660104358392L131.65625,91.27981308008414L131.65625,89.96075875166167L132.15494791666666,85.31057471396392L132.15494791666666,83.80276139475028L132.65364583333334,81.24922939716053L132.65364583333334,80.98313722716732L133.15234375,84.25151859831489L133.15234375,87.16913051433372L133.65104166666666,86.21552575365905L133.65104166666666,85.93136874876144L134.14973958333331,85.68638955498767L134.14973958333331,86.38747380164286L134.6484375,91.23947554342163L134.6484375,95.51965922303326L135.14713541666666,89.42080054633217L135.14713541666666,87.71846144767044L135.64583333333331,83.96208389145994L135.64583333333331,82.72104660000124L136.14453125,67.78874984339306L136.14453125,69.24315927836557L136.64322916666666,76.89818743862664L136.64322916666666,87.27206326483463L137.14192708333331,83.49794481848937L137.14192708333331,86.21237398955384L137.640625,70.51691892727112L137.640625,64.32525591721473L138.13932291666666,76.72613603514634L138.13932291666666,84.78445354844452L138.63802083333334,89.24134899941279L138.63802083333334,92.95855262856003L139.13671875,87.69173058378885L139.13671875,84.65427233522051L139.63541666666666,80.22221708860943L139.63541666666666,78.9483397756037L140.13411458333334,79.67062728846174L140.13411458333334,80.5457159044987L140.6328125,85.8817113353399L140.6328125,89.10080514154359L141.13151041666666,86.00340867639498L141.13151041666666,85.76052688718387L141.63020833333334,83.48878711676926L142.12890625,80.44767290959555L142.12890625,80.36524302607654L142.62760416666669,73.99235078123736L142.62760416666669,73.64215673701482L143.12630208333334,72.72857537327121L143.12630208333334,72.24427359138673L143.625,73.43018123170582L143.625,75.2556729689887L144.12369791666669,74.44873025749033L144.12369791666669,76.8643252225751L144.62239583333334,76.57392685008254L144.62239583333334,80.20885162229662L145.12109375,79.92938555166319L145.12109375,81.70413717320676L145.61979166666669,83.70531295949887L145.61979166666669,84.91153808960122L146.11848958333334,79.82421051340582L146.11848958333334,76.29980567739773L146.6171875,79.40753426817875L146.6171875,82.9241308925618L147.11588541666666,85.80592791545803L147.11588541666666,87.39038052444707L147.61458333333334,91.30068349531321L147.61458333333334,93.72730534607786L148.11328125,87.31695678075921L148.61197916666666,82.93109364414674L148.61197916666666,81.91391132059373L149.11067708333334,80.34643344034362L149.11067708333334,80.85631727903846L149.609375,85.16760035234549L149.609375,87.68636259483014L150.10807291666669,84.02380870966145L150.10807291666669,82.25684983246346L150.60677083333331,80.22985062308797L150.60677083333331,78.90004109208398L151.10546875,79.75087906637557L151.10546875,80.18275984834892L151.60416666666669,82.17632569975414L151.60416666666669,85.29074318174574L152.10286458333331,79.19821583130391L152.10286458333331,77.93952741920015L152.6015625,76.5587058466617L152.6015625,78.66811467897556L153.10026041666669,74.07564415986336L153.10026041666669,71.73976070436835L153.59895833333331,73.13140118332504L153.59895833333331,74.34649953968406L154.09765625,77.59593756513046L154.09765625,79.82900621602683L154.59635416666669,73.19334609335509L154.59635416666669,69.78781255141405L155.09505208333331,70.36402200731939L155.09505208333331,72.57825912876906L155.59375,74.06572851803291L155.59375,77.28240124980444L156.09244791666666,77.22014105677505L156.09244791666666,76.98213652825297L156.59114583333331,81.10500894579853L156.59114583333331,85.13509780283906L157.08984375,78.81040636847102L157.08984375,75.54753527730514L157.58854166666666,75.92068905883914L157.58854166666666,77.46413753064803L158.08723958333334,73.55283598442276L158.08723958333334,72.89940199100613L158.5859375,73.14962251212383L158.5859375,73.32588718429913L159.08463541666666,66.25440789995021L159.08463541666666,65.08314987264531L159.58333333333334,67.0598181023744L159.58333333333334,67.94460664359019L160.08203125,58.82634166101981L160.08203125,54.03179985058529L160.58072916666666,61.70082309348716L160.58072916666666,66.9721904093226L161.07942708333334,65.53225296820402L161.07942708333334,64.34960277846574L161.578125,64.31843294126463L161.578125,64.94084956540271L162.07682291666666,60.221732162795085L162.07682291666666,57.79941051921942L162.57552083333334,54.08457388950404L162.57552083333334,55.516904726463665L163.07421875,58.963786644243086L163.07421875,64.63059340149337L163.57291666666666,61.241695264757695L163.57291666666666,63.79916395412745L164.07161458333334,61.09399756948269L164.07161458333334,59.95385049557755L164.5703125,67.29661373362583L164.5703125,73.21674963990236L165.06901041666666,61.71273487305275L165.06901041666666,58.22797367987411L165.56770833333334,53.58194707642424L165.56770833333334,51.65421674973028L166.06640625000003,55.80132248834525L166.06640625000003,59.9003250386462L166.56510416666666,62.34462440169723L166.56510416666666,65.01226639364285L167.06380208333334,64.09571509131268L167.06380208333334,65.6245064149408L167.56250000000003,68.13649256528069L167.56250000000003,70.45438153922946L168.06119791666666,66.27119641888373L168.06119791666666,63.81100290649078L168.55989583333334,70.43507987280452L168.55989583333334,75.04775557768203L169.05859374999997,76.99159902245913L169.05859374999997,79.31420947975585L169.55729166666666,75.82140371481579L169.55729166666666,73.64336833286286L170.05598958333334,71.09933730678557L170.05598958333334,69.59659343669892L170.55468749999997,75.39772332972336L170.55468749999997,79.7905141679409L171.05338541666666,73.87349851655738L171.05338541666666,72.49502795057164L171.55208333333334,67.99090105722348L171.55208333333334,66.17511556643248L172.05078125,65.89352830706835L172.05078125,64.8473278740573L172.54947916666666,59.52020754215288L172.54947916666666,57.959500128013886L173.04817708333334,63.024688609828345L173.04817708333334,65.19001830124247L173.546875,60.24421495260828L173.546875,61.208833773505894L174.04557291666666,66.30817011807693L174.04557291666666,70.83451547988851L174.54427083333334,72.67057202082037L174.54427083333334,74.6945805848906L175.04296875,72.13654152758538L175.04296875,71.16137590532075L175.54166666666666,73.60613173082214L175.54166666666666,75.54164002558434L176.04036458333334,78.69611850393323L176.04036458333334,79.34779160626238L176.5390625,74.11581826095286L176.5390625,72.18863387992681L177.03776041666666,64.77492664868058L177.03776041666666,60.7683802235986L177.53645833333334,62.378117462925026L177.53645833333334,64.24350422676319L178.03515625,61.16536932263323L178.03515625,60.29855647250146L178.53385416666666,59.26025894262867L178.53385416666666,60.970346687903856L179.03255208333334,66.9147188703244L179.03255208333334,70.22257889986187L179.53125,63.00726316022963L179.53125,60.96691905527169L180.02994791666669,65.71376597803149L180.02994791666669,70.33271675062963L180.52864583333334,70.38343473406309L180.52864583333334,69.91187400419518L181.02734375,62.59639144658447L181.02734375,59.08683773469569L181.52604166666669,51.94403411741044L181.52604166666669,49.23270173189035L182.02473958333331,41.885123644572424L182.02473958333331,42.448600984991764L182.5234375,44.621799732077804L182.5234375,50.63793972541612L183.02213541666669,51.90225453501773L183.02213541666669,55.39549254492421L183.52083333333331,58.437816605064256L183.52083333333331,60.756027355845575L184.01953125,56.18230226937282L184.01953125,54.79601117195694L184.51822916666669,49.97853584898716L184.51822916666669,48.67182178862813L185.01692708333331,53.72210689763976L185.01692708333331,57.68484378564806L185.515625,63.76230127756865L185.515625,67.33898225274724L186.01432291666669,60.5698623588505L186.01432291666669,55.75182218139307L186.51302083333331,57.05830647221168L186.51302083333331,60.05812793773986L187.01171875,62.842954908624755L187.01171875,64.71811865974395L187.51041666666669,59.280790991836355L187.51041666666669,56.81468677237842L188.00911458333331,59.97784105131157L188.00911458333331,62.78460856908041L188.5078125,62.89657277961658L188.5078125,64.90601833283954L189.00651041666669,59.1196615291837L189.00651041666669,58.59151555497666L189.50520833333331,51.21591511606704L189.50520833333331,47.81931519055087L190.00390625,46.02566862788033L190.00390625,47.704337333954754L190.50260416666669,47.78750627000176L190.50260416666669,46.83598618006134L191.00130208333331,48.23038271603243L191.00130208333331,50.97345428667818L191.5,51.65739536406012L191.5,52.095665875204865L191.99869791666669,51.44660768933802L191.99869791666669,53.54095685260121L192.49739583333331,57.58761130676642L192.49739583333331,60.49998861137614L192.99609375,57.84378160943738L192.99609375,56.82710652059407L193.49479166666666,56.65120835129077L193.49479166666666,57.572484406373825L193.99348958333331,59.0019464162242L193.99348958333331,60.51828452987979L194.4921875,51.90477946426576L194.4921875,46.908167036927374L194.99088541666666,48.451109652851024L194.99088541666666,53.38472114868997L195.48958333333334,55.18579056541943L195.48958333333334,62.44323597121729L195.98828125,64.19207861047084L195.98828125,68.2778996921843L196.48697916666666,65.03663370950615L196.48697916666666,65.19803781237361L196.98567708333334,57.41105674580429L196.98567708333334,51.51955717370328L197.484375,49.12275124529253L197.484375,48.32822558009179L197.98307291666666,54.292530564806164L197.98307291666666,59.69257597705203L198.48177083333334,53.756465195301054L198.48177083333334,52.924528378655225L198.98046875,48.64938314581495L198.98046875,46.8485642899548L199.47916666666666,54.08892146047802L199.47916666666666,60.18023149071246L199.97786458333334,61.08665904938047L199.97786458333334,64.16934155427735L200.4765625,54.970718072672604L200.4765625,51.50853332926031L200.97526041666666,50.13016262679811L200.97526041666666,52.34205984490823L201.47395833333334,49.36090204845494L201.47395833333334,50.924223037544635L201.97265625,54.51506623028741L201.97265625,57.22416280030624L202.47135416666666,51.33737010907779L202.47135416666666,48.295126533220106L202.97005208333334,46.064811782664L202.97005208333334,45.605896175280776L203.46875000000003,48.91121945641968L203.46875000000003,50.29913867153248L203.96744791666666,53.978485316261754L203.96744791666666,56.58254365099974L204.46614583333334,53.8486060474724L204.46614583333334,51.444369030857715L204.96484375000003,46.314231205501926L204.96484375000003,44.32496952087807L205.46354166666666,48.503031744188824L205.46354166666666,52.9358422646682L205.96223958333334,52.83962370215419L205.96223958333334,54.09376357828714L206.46093749999997,55.02831548950158L206.46093749999997,57.63799388468911L206.95963541666666,51.302632775668215L206.95963541666666,50.90799072191947L207.45833333333334,44.902067306076496L207.45833333333334,42.626777416726945L207.95703124999997,51.76836270705521L207.95703124999997,58.06238534579075L208.45572916666666,59.329036546524755L208.45572916666666,61.48192527340435L208.95442708333334,55.1861525204574L208.95442708333334,51.84713466565579L209.453125,56.47369415045244L209.453125,60.31082423258104L209.95182291666666,58.57748714285063L209.95182291666666,58.062706398945856L210.45052083333334,63.477242703426946L210.94921875,56.07430237483328L210.94921875,52.195612289615546L211.44791666666666,43.74773511058572L211.44791666666666,39.304863047400026L211.94661458333334,44.410289101480785L211.94661458333334,49.53293440144024L212.4453125,46.979212888483765L212.4453125,49.6045328333405L212.94401041666666,50.898109657432286L212.94401041666666,52.166982945719745L213.44270833333334,55.7513036781069L213.44270833333334,58.5655664666603L213.94140625,59.26750014687239L213.94140625,60.046666508106355L214.44010416666666,44.42973788093801L214.44010416666666,38.110349175401204L214.93880208333334,35.425656507651595L214.93880208333334,35.7828316105846L215.4375,45.24701585134527L215.4375,51.78929939842618L215.93619791666666,58.10447013244866L215.93619791666666,62.563140176927085L216.43489583333334,61.379793247696774L216.43489583333334,60.953564596841936L216.93359375,54.92429598848237L216.93359375,52.04340789246686L217.43229166666669,50.953158669043354L217.43229166666669,52.492293141108014L217.93098958333334,53.409484437597534L217.93098958333334,54.54544636934565L218.4296875,55.77550558405854L218.4296875,57.31201992605769L218.92838541666669,54.23814787253526L219.42708333333331,48.11766295066347L219.42708333333331,44.620804298108055L219.92578125,47.40361649762703L219.92578125,51.982312396592576L220.42447916666669,46.38563734258812L220.42447916666669,44.16050788620471L220.92317708333331,47.033102941866865L220.92317708333331,50.604783115599254L221.421875,49.581701198705254L221.421875,49.05142195671095L221.92057291666669,38.313784406478945L221.92057291666669,33.28236032360539L222.41927083333331,42.05612555047122L222.41927083333331,46.81268094360976L222.91796875,47.87896591174691L222.91796875,48.91927661507183L223.41666666666669,40.25696706538709L223.41666666666669,39.5094743905384L223.91536458333331,43.13432345497124L223.91536458333331,45.99626988475031L224.4140625,45.47863954010312L224.4140625,47.837838955537705L224.91276041666669,52.39874712217821L224.91276041666669,54.91327157729251L225.41145833333331,49.57395427175392L225.41145833333331,46.50238668887633L225.91015625,40.42848655205261L225.91015625,34.25403906715686L226.40885416666669,38.85966714985832L226.40885416666669,43.06176371078293L226.90755208333331,47.33497828185915L226.90755208333331,50.32914436543202L227.40625,52.700487174297656L227.40625,55.366358321729464L227.90494791666669,52.24844711889219L227.90494791666669,51.20352658432358L228.40364583333331,42.32589530468961L228.40364583333331,37.77836530399906L228.90234375,45.27336514110915L228.90234375,48.894474149439056L229.40104166666669,52.39784477752048L229.40104166666669,56.45729406476974L229.89973958333331,48.1599808585701L229.89973958333331,44.66400054288254L230.3984375,44.2984076118013L230.3984375,44.061475521060274L230.89713541666666,45.73997575147892L231.39583333333331,38.132586887502356L231.39583333333331,35.868150898828326L231.89453125,31.570678709157818L231.89453125,33.233275717621154L232.39322916666666,43.027090445831476L232.89192708333334,44.74859681586925L232.89192708333334,49.70361483848396L233.390625,47.51829811070146L233.390625,46.36938783248533L233.88932291666666,46.48594382238548L233.88932291666666,46.239342172337544L234.38802083333334,48.12422980749187L234.38802083333334,51.06540661504017L234.88671875,51.88353113561956L234.88671875,52.32462547916226L235.38541666666666,52.06892996965679L235.38541666666666,53.394436070554434L235.88411458333334,47.26433980776847L235.88411458333334,43.76651669212567L236.3828125,38.86391914766065L236.3828125,40.464455576426L236.88151041666666,38.76254198294056L236.88151041666666,43.57607913339836L237.38020833333334,47.66045891001643L237.38020833333334,52.35827787133944L237.87890625,50.4737811148935L237.87890625,53.78257868175349L238.37760416666666,56.089934934882166L238.37760416666666,60.307736090247545L238.87630208333334,51.82847861017268L238.87630208333334,46.08870707729747L239.375,43.37501225220734L239.375,42.550796268865895L239.87369791666666,46.55983765511837L239.87369791666666,49.66599693053441L240.37239583333334,52.139628056010466L240.37239583333334,53.409200293613L240.87109375000003,50.26356493401081L240.87109375000003,49.771806276843265L241.36979166666666,49.86451002419312L241.36979166666666,49.50088905132006L241.86848958333334,50.149200442053036L241.86848958333334,50.161672841678346L242.36718750000003,46.78593982408659L242.36718750000003,46.90539478510746L242.86588541666666,40.70741322070437L242.86588541666666,39.599013457477554L243.36458333333334,45.88358384238509L243.36458333333334,49.898077580135045L243.86328124999997,42.40524118232785L243.86328124999997,39.91135183982884L244.36197916666666,35.473623981552336L244.36197916666666,34.88073192982497L244.86067708333334,44.315375250271686L245.35937499999997,43.96862898927435L245.35937499999997,44.944108015665414L245.85807291666666,39.57060804746688L245.85807291666666,36.930757295978914L246.35677083333334,38.2685547231989L246.35677083333334,41.289252893886385L246.85546875,37.902467484928025L246.85546875,37.07474335411599L247.35416666666666,35.707056820269905L247.35416666666666,36.48873110525397L247.85286458333334,43.422099785283734L247.85286458333334,48.00574641482562L248.3515625,41.03362635765393L248.3515625,41.01992915626717L248.85026041666666,41.5306404123089L248.85026041666666,41.5618840032447L249.34895833333334,39.89789582095315L249.34895833333334,38.67535459996327L249.84765625,34.0843834638659L249.84765625,33.62502293110274L250.34635416666666,28.040906168939966L250.34635416666666,27.7419277345671L250.84505208333334,32.02121340725028L250.84505208333334,35.84326708014729L251.34375,33.90829310712768L251.34375,33.48605279146167L251.84244791666666,33.47735641013701L251.84244791666666,34.92601732737494L252.34114583333334,37.168754832307535L252.34114583333334,39.75230142614844L252.83984375,40.866652118811615L252.83984375,43.30378885963537L253.33854166666666,47.22338947712766L253.33854166666666,49.76162040388218L253.83723958333334,42.7163729152419L254.3359375,33.38911402471889L254.3359375,29.081633125829853L254.83463541666669,38.12719337647446L254.83463541666669,44.83054764095121L255.33333333333334,43.27364243878826L255.33333333333334,42.33404512056056L255.83203125,46.99671873836722L255.83203125,50.321373518639845L256.3307291666667,51.667383465966005L256.3307291666667,52.86335015404251L256.8294270833333,47.46993453090207L256.8294270833333,43.998246195225825L257.328125,39.538357659762426L257.328125,37.72031386648734L257.8268229166667,32.87573034259751L257.8268229166667,31.089214221793874L258.3255208333333,37.697431731318495L258.3255208333333,43.779441113528655L258.82421875,46.49361948684278L258.82421875,48.830516861173045L259.3229166666667,49.479736756260706L259.3229166666667,50.47744305549591L259.8216145833333,48.262901380172565L259.8216145833333,49.16944309861133L260.3203125,38.39083724970025L260.3203125,32.57832336040976L260.8190104166667,33.79073199994948L260.8190104166667,35.56374656538716L261.3177083333333,41.64609719384045L261.3177083333333,45.91217642467219L261.81640625,48.54474859619735L261.81640625,50.28489448776601L262.3151041666667,47.627130464021924L262.3151041666667,46.53598456579718L262.8138020833333,52.4275716984169L262.8138020833333,56.143759320014496L263.3125,52.651398013731104L263.3125,50.56135224741712L263.8111979166667,51.22651120806942L263.8111979166667,50.57984198561436L264.3098958333333,48.6605980052419L264.3098958333333,47.27047251545592L264.80859375,48.29096507360462L265.3072916666667,40.274298377811455L265.3072916666667,37.38364265202257L265.8059895833333,37.90579630517228L265.8059895833333,38.10182580937902L266.3046875,32.677718009888885L266.3046875,31.02010740658028L266.8033854166667,37.50816280973188L266.8033854166667,41.969936862780045L267.3020833333333,38.792414025779586L267.3020833333333,37.55578197259667L267.80078125,43.0495030809579L267.80078125,46.71683842236625L268.29947916666663,45.55376895841853L268.29947916666663,46.6115811573082L268.7981770833333,47.12971026817643L268.7981770833333,48.09858320665172L269.296875,45.21260115690118L269.296875,44.30846435777597" style="fill: none;" fill="none"></path></g></g></g></g><g opacity="0.2"><g><g><g><path stroke="rgb(255, 112, 67)" stroke-width="2px" d="M25.433593750000004,89.04867054796777L25.433593750000004,89.10681589879096L25.932291666666668,89.16462516896426L25.932291666666668,89.18132563326508L26.430989583333332,89.27519067563117L26.430989583333332,89.29916829951108L26.9296875,89.28194088488817L26.9296875,89.29199310839176L27.428385416666664,89.39714385941625L27.428385416666664,89.36448649987578L27.927083333333336,89.62542622536421L27.927083333333336,89.4758964996785L28.42578125,89.6601608172059L28.42578125,89.63538521677256L28.924479166666664,89.96176041215658L28.924479166666664,90.03953123092651L29.423177083333332,90.19329403191804L29.423177083333332,90.3101237937808L29.921875,89.64379745721817L29.921875,90.25273393541575L30.420572916666668,89.93576722443103L30.420572916666668,90.12310299575329L30.919270833333332,90.64042494893074L30.919270833333332,90.38020077645778L31.41796875,90.97252390533686L31.41796875,90.90883206129074L31.916666666666668,92.22487456798554L31.916666666666668,91.82420440018177L32.415364583333336,92.73908286094665L32.415364583333336,91.28806149959564L32.9140625,93.48304845690727L32.9140625,92.906239387393L33.412760416666664,92.66519105434418L33.412760416666664,93.17992850244045L25.433593750000004,89.0934054051526L25.433593750000004,89.16994677539915L25.932291666666668,89.19112274497748L25.932291666666668,89.20620923638344L26.430989583333332,89.26185967959464L26.430989583333332,89.30540596432984L26.9296875,89.35927017740906L27.428385416666664,89.5165440686047L27.428385416666664,89.57745022252202L27.927083333333336,89.71668095141649L27.927083333333336,89.75415024086833L28.42578125,89.92385069057346L28.42578125,89.88607345670462L28.924479166666664,90.18339193463325L28.924479166666664,89.92725293263793L29.423177083333332,90.40072297751904L29.423177083333332,90.36741657406091L29.921875,90.60614895820618L29.921875,90.70512656420469L30.420572916666668,90.85314159989358L30.420572916666668,90.90837677568197L30.919270833333332,91.22928124964237L30.919270833333332,91.37403289675713L31.41796875,92.02645173668861L31.41796875,91.94094955027103L31.916666666666668,91.76540929675102L31.916666666666668,92.59804325699807L32.415364583333336,93.89350520968438L32.415364583333336,92.45672223269939L32.9140625,96.20409678220749L32.9140625,97.4130855023861L33.412760416666664,100.36781404018402L33.412760416666664,101.90094012022018L33.91145833333333,102.39727013111114L33.91145833333333,106.22805305719376L34.41015625,110.74119412899017L34.41015625,108.20693624019623L34.908854166666664,118.67615308761597L34.908854166666664,117.40461053848267L35.407552083333336,121.91941838264465L35.407552083333336,118.1407531261444L35.90625,120.66871314048767L35.90625,120.43145430088043L36.40494791666667,120.62342064380645L36.40494791666667,123.58328371047973L36.903645833333336,126.67635912895203L36.903645833333336,129.76435041427612L37.40234375,129.32405514717104L37.40234375,129.18553161621094L37.90104166666667,130.6729036808014L37.90104166666667,122.99131746292115L38.39973958333333,130.12384276390074L38.39973958333333,130.79815669059755L38.8984375,133.08684415817262L38.8984375,129.6472031593323L39.397135416666664,128.80385665893553L39.397135416666664,131.7700876235962L39.895833333333336,125.62138452529908L39.895833333333336,131.40104236602784L40.39453125,133.92754249572752L40.39453125,132.5883105278015L40.893229166666664,131.53221130371094L40.893229166666664,134.06174578666688L41.391927083333336,129.3437508583069L41.391927083333336,131.46624913215638L41.89062500000001,129.3848695278168L41.89062500000001,127.12475590705871L42.389322916666664,136.45168728828432L42.389322916666664,134.81597142219542L42.888020833333336,131.17638988494875L42.888020833333336,131.9190043449402L43.38671875,129.26009607315063L43.38671875,128.06487069129943L43.885416666666664,134.77636356353761L43.885416666666664,132.99576263427733L44.384114583333336,141.53047742843628L44.384114583333336,133.66278562545776L44.8828125,139.92654376029967L44.8828125,133.73229141235353L45.38151041666667,140.0357847213745L45.38151041666667,139.86684551239014L45.88020833333333,135.43572640419006L45.88020833333333,142.96231021881104L46.37890625,148.92781052589416L46.37890625,153.33427710533144L46.87760416666667,150.09797596931458L46.87760416666667,150.74431443214417L47.37630208333333,151.70434560775757L47.37630208333333,166.80437383651733L47.875,152.05711145401003L47.875,156.16642360687254L48.373697916666664,142.20527939796446L48.373697916666664,151.40618538856506L48.872395833333336,142.8884672164917L48.872395833333336,149.64372267723084L49.37109375,154.17895193099977L49.37109375,138.69279270172117L49.869791666666664,135.2578369140625L49.869791666666664,137.0369822025299L50.368489583333336,153.41952757835386L50.368489583333336,148.7475954055786L50.86718750000001,162.513076877594L50.86718750000001,167.13927307128907L51.365885416666664,151.76398019790648L51.365885416666664,153.18904404640196L51.864583333333336,158.54968528747557L51.864583333333336,158.73961458206176L52.36328125,146.13297595977784L52.36328125,146.25613250732422L52.861979166666664,152.44831385612488L52.861979166666664,165.5684796333313L53.360677083333336,129.22425251007078L53.360677083333336,170.80465297698973L53.859375,171.7619553565979L53.859375,188.33967542648315L54.35807291666667,147.62887816429136L54.35807291666667,159.43493132591246L54.85677083333333,156.32216868400573L54.85677083333333,153.26747040748594L55.35546875,148.0116225719452L55.35546875,155.49278869628907L55.85416666666667,155.6735809803009L55.85416666666667,155.64242687225342L56.35286458333333,130.65411615371704L56.35286458333333,135.08056278228761L56.8515625,156.21365766525267L56.8515625,157.8491231441498L57.35026041666667,150.2958242893219L57.35026041666667,162.8162236213684L57.84895833333333,150.07546658515932L57.84895833333333,155.2613205909729L58.34765625,147.87059092521667L58.34765625,150.30221552848818L58.846354166666664,149.10830998420715L58.846354166666664,145.65221557617187L59.345052083333336,155.30061864852905L59.345052083333336,159.63056859970092L59.84375,142.4083731174469L59.84375,151.45563898086547L60.342447916666664,147.16662521362306L60.342447916666664,153.73189196586608L60.841145833333336,159.89931893348694L60.841145833333336,160.5028157234192L61.33984374999999,118.67882671356202L61.33984374999999,122.80290534496308L61.838541666666664,166.0174196243286L61.838541666666664,165.60564727783205L62.337239583333336,141.73817996978758L62.337239583333336,143.08452463150024L62.8359375,141.84928398132323L62.8359375,145.08671822547913L63.334635416666664,154.0625388622284L63.334635416666664,150.84254684448243L63.833333333333336,154.6556212425232L63.833333333333336,157.11561598777772L64.33203125,125.2491012096405L64.33203125,129.8845192909241L64.83072916666667,138.2113151073456L64.83072916666667,140.4156517982483L65.32942708333333,127.21649947166443L65.32942708333333,138.31842141151427L65.828125,127.17574152946472L65.828125,128.21193284988405L66.32682291666667,128.89706435203553L66.32682291666667,130.87660851478577L66.82552083333333,141.67483201026917L66.82552083333333,144.0313277244568L67.32421875,116.83882036209107L67.32421875,124.46023089885712L67.82291666666666,123.35427703857422L67.82291666666666,125.02352781295777L68.32161458333333,101.99065088033676L68.32161458333333,116.83139786720275L68.8203125,120.49893152713776L68.8203125,123.5337070465088L69.31901041666667,119.80078201293945L69.31901041666667,126.36584081649781L69.81770833333333,131.7822335243225L69.81770833333333,139.19634680747984L70.31640625,127.95682649612426L70.31640625,126.68268671035767L70.81510416666667,121.88227195739746L70.81510416666667,125.63851270675659L71.31380208333334,115.92154598236084L71.31380208333334,123.03219635486603L71.8125,127.75247659683228L71.8125,138.32561898231506L72.31119791666667,121.28389112949371L72.31119791666667,121.81309931278228L72.80989583333334,133.20005311965943L72.80989583333334,135.66975355148315L73.30859375,118.74146382808685L73.30859375,119.2980533361435L73.80729166666667,124.32257735729218L73.80729166666667,127.19738092422486L74.30598958333333,119.38726968765259L74.30598958333333,116.82011559009553L74.8046875,109.99133117198944L74.8046875,114.3343373298645L75.30338541666666,101.00408502817154L75.30338541666666,103.46294348239898L75.80208333333334,113.34078185558319L75.80208333333334,126.25162606239319L76.30078125,126.70658383369445L76.30078125,128.67191534042357L76.79947916666666,110.32147941589355L76.79947916666666,114.43347580432892L77.29817708333334,104.18312600851058L77.29817708333334,106.09222437143326L77.796875,129.32328701019287L77.796875,132.9054916858673L78.29557291666666,112.24436604976654L78.29557291666666,111.11421163082123L78.79427083333333,113.92728414535523L78.79427083333333,119.0153789281845L79.29296875,99.13610639572144L79.29296875,102.42371674776078L79.79166666666667,108.28160254955291L79.79166666666667,118.52790901660919L80.29036458333333,103.0149710893631L80.29036458333333,111.17522971630096L80.7890625,101.67181462049484L80.7890625,105.10011286735535L81.28776041666667,121.27213778495789L81.28776041666667,117.91504392623901L81.78645833333333,105.71349782943726L81.78645833333333,118.14773638248444L82.28515625,111.23506164550781L82.28515625,116.57070660591125L82.78385416666667,119.03373782634735L82.78385416666667,122.56376647949219L83.28255208333333,115.5102234840393L83.78125000000001,112.97901692390442L83.78125000000001,111.51245245933532L84.27994791666667,98.80181084871292L84.27994791666667,105.41206666231156L84.77864583333333,119.36580641269684L84.77864583333333,124.87430129051208L85.27734374999999,121.94469900131226L85.27734374999999,128.48832635879515L85.77604166666667,113.54661498069763L85.77604166666667,118.27136187553405L86.27473958333333,128.39135437011717L86.27473958333333,127.53672771453857L86.7734375,122.67728099822997L86.7734375,129.10946907997132L87.27213541666667,137.76358885765077L87.27213541666667,144.0106050014496L87.77083333333333,134.1558319568634L87.77083333333333,131.45462098121644L88.26953125,113.07579157352447L88.26953125,111.95000619888306L88.76822916666667,133.98760147094728L88.76822916666667,134.3281747341156L89.26692708333333,126.84750089645385L89.26692708333333,130.21621017456053L89.765625,106.6591338634491L89.765625,106.19546452760696L90.26432291666667,125.26815185546874L90.26432291666667,123.62726273536683L90.76302083333334,121.96959767341613L90.76302083333334,127.39952402114868L91.26171875,112.63205454349517L91.26171875,125.29649653434754L91.76041666666666,113.35303385257721L91.76041666666666,105.8649916291237L92.25911458333334,117.71060914993286L92.25911458333334,127.77926802635193L92.7578125,127.74168872833252L92.7578125,128.17535510063172L93.25651041666666,139.06847534179687L93.25651041666666,144.35785808563233L93.75520833333334,117.53787381649018L93.75520833333334,117.26756811141968L94.25390625,137.25264196395872L94.25390625,139.12088689804077L94.75260416666666,153.1503189086914L94.75260416666666,158.9187093257904L95.25130208333334,121.82767481803894L95.25130208333334,117.46842532157898L95.75,132.767320394516L95.75,140.15939960479736L96.24869791666666,155.78782968521116L96.24869791666666,152.83474192619323L96.74739583333333,134.87148098945616L96.74739583333333,137.47728595733642L97.24609375,122.93312366008759L97.24609375,126.29289751052856L97.74479166666667,114.94479827880859L97.74479166666667,112.83299026489257L98.24348958333333,112.32965471744538L98.24348958333333,115.78347017765046L98.7421875,146.32450094223023L98.7421875,150.33362426757813L99.24088541666667,117.60109021663666L99.24088541666667,121.64387364387512L99.73958333333333,127.01638493537902L99.73958333333333,129.91894540786743L100.23828125,114.7188493013382L100.23828125,116.82856721878052L100.73697916666667,123.5018336057663L100.73697916666667,122.55048959255218L101.23567708333333,121.69426724910736L101.23567708333333,119.37906420230865L101.73437500000001,113.71728143692016L101.73437500000001,123.670600938797L102.23307291666667,140.91126990318298L102.23307291666667,145.86126341819764L102.73177083333333,127.41162748336792L102.73177083333333,131.59730348587036L103.23046874999999,110.66160707473755L103.23046874999999,121.19083621501923L103.72916666666667,123.52930405139924L103.72916666666667,125.97660331726074L104.22786458333333,127.41108427047729L104.22786458333333,127.87944412231445L104.7265625,134.55491094589232L104.7265625,139.452552318573L105.22526041666667,130.61902799606324L105.22526041666667,130.32184386253357L105.72395833333333,147.53007283210755L105.72395833333333,147.56167254447936L106.22265625,108.74974172115326L106.22265625,113.0530424118042L106.72135416666667,144.73644351959229L106.72135416666667,140.5718339920044L107.22005208333333,87.05068332701921L107.22005208333333,95.10147381424903L107.71875,134.17637643814086L107.71875,139.4503752231598L108.21744791666667,134.79988722801207L108.21744791666667,137.11489505767824L108.71614583333334,130.4253556251526L108.71614583333334,130.1991159439087L109.21484375,126.34612812995911L109.21484375,120.54462506771088L109.71354166666666,100.92547830343247L109.71354166666666,101.93243055343628L110.21223958333334,108.8469089269638L110.21223958333334,111.21771278381348L110.7109375,121.08697009086609L110.7109375,126.75324921607971L111.20963541666666,119.8632939338684L111.20963541666666,123.68565599918365L111.70833333333334,98.00832747220993L111.70833333333334,110.10233545303345L112.20703125,99.87281765937806L112.20703125,106.14465078115464L112.70572916666666,122.1263082265854L112.70572916666666,124.92714147567749L113.20442708333334,111.23583614826202L113.20442708333334,113.05806288719177L113.703125,109.31032681465149L113.703125,120.63691396713257L114.20182291666666,108.07436258792877L114.20182291666666,113.5448452949524L114.70052083333334,117.51039700508117L114.70052083333334,118.22972757816315L115.19921875,112.01611266136169L115.69791666666666,112.12511596679687L115.69791666666666,116.6123260498047L116.19661458333333,110.42658474445344L116.19661458333333,113.00320262908936L116.6953125,102.65902235507966L116.6953125,108.34437546730041L117.19401041666667,110.34186687469483L117.19401041666667,119.01894588470459L117.69270833333333,114.81362297534943L117.69270833333333,116.03351573944092L118.19140625,117.86566247940064L118.19140625,117.70563960075378L118.69010416666667,102.31152843236923L118.69010416666667,114.70359265804291L119.18880208333333,115.52616763114929L119.18880208333333,120.34875013828278L119.6875,119.17720544338226L119.6875,119.91430289745331L120.18619791666667,89.3007375959307L120.18619791666667,93.8957183778286L120.68489583333333,114.43529217243194L121.18359375000001,77.55271242856979L121.18359375000001,85.94039848446846L121.68229166666667,86.61669853329659L121.68229166666667,94.26416790485382L122.18098958333333,99.94454298019409L122.18098958333333,105.88710633516311L122.67968749999999,107.34828641414643L122.67968749999999,111.13946890830994L123.17838541666667,101.69226361513138L123.17838541666667,105.75404888391495L123.67708333333333,81.76588752269745L123.67708333333333,81.02845957875252L124.17578125,96.1840148806572L124.67447916666667,82.84713103175163L124.67447916666667,89.17144172154367L125.17317708333333,97.31422340869904L125.17317708333333,100.3910151720047L125.671875,81.48918421268463L125.671875,85.27335639595985L126.17057291666667,97.00302608013153L126.17057291666667,102.4061758518219L126.66927083333333,75.46517181396484L126.66927083333333,81.15225376486778L127.16796875,75.1261581659317L127.16796875,74.0781105875969L127.66666666666667,70.1054918050766L127.66666666666667,71.68060548305512L128.16536458333334,77.66536756753922L128.16536458333334,80.40081103444099L128.6640625,89.68348535224796L128.6640625,96.6395726263523L129.16276041666666,80.2562012910843L129.16276041666666,85.79778679907322L129.66145833333334,85.12997418642044L129.66145833333334,88.02595954164863L130.16015625,82.55869453549386L130.16015625,85.89592743813992L130.65885416666666,95.76051518321037L130.65885416666666,96.72087684869766L131.15755208333334,100.45703039169311L131.15755208333334,98.5147185921669L131.65625,83.05051704645157L131.65625,87.98217725902796L132.15494791666666,78.3352986574173L132.15494791666666,81.5410414159298L132.65364583333334,77.4189314007759L132.65364583333334,80.58399897217751L133.15234375,89.15409065503627L133.15234375,91.54554838836194L133.65104166666666,84.78511861264705L133.65104166666666,85.50513324141502L134.14973958333331,85.31892076432705L134.14973958333331,87.43910017162561L134.6484375,98.51747815608978L134.6484375,101.93993474245072L135.14713541666666,80.27251253128051L135.14713541666666,85.16495279967785L135.64583333333331,78.32751755714416L135.64583333333331,80.85949066281319L136.14453125,45.39030470848084L136.14453125,71.42477343082427L136.64322916666666,88.38072967901826L136.64322916666666,102.83287700414658L137.14192708333331,77.83676714897156L137.14192708333331,90.2840177461505L137.640625,46.97373633384704L137.640625,55.03776140213013L138.13932291666666,95.32745621204376L138.13932291666666,96.8719298183918L138.63802083333334,95.92669217586517L138.63802083333334,98.53435807228088L139.13671875,79.79149751663208L139.13671875,80.098084962368L139.63541666666666,73.57413421869278L139.63541666666666,77.03752380609512L140.13411458333334,80.75405855774879L140.13411458333334,81.85834882855416L140.6328125,93.88570448160172L140.6328125,93.92944585084915L141.13151041666666,81.35731397867202L141.13151041666666,85.39620420336723L141.63020833333334,80.0811774611473L142.12890625,75.886001598835L142.12890625,80.24159820079804L142.62760416666669,64.43301241397857L142.62760416666669,73.116865670681L143.12630208333334,71.35820332765579L143.12630208333334,71.51782091856003L143.625,75.20904269218445L143.625,77.99391057491303L144.12369791666669,73.23831619024277L144.12369791666669,80.48771767020226L144.62239583333334,76.1383292913437L144.62239583333334,85.66123878061771L145.12109375,79.51018644571305L145.12109375,84.36626460552216L145.61979166666669,86.707076638937L145.61979166666669,86.72087578475475L146.11848958333334,72.1932191491127L146.11848958333334,71.01319842338562L146.6171875,84.06912715435028L146.6171875,88.19902582913637L147.11588541666666,90.1286234498024L147.11588541666666,89.76705943793058L147.61458333333334,97.16613795161247L147.61458333333334,97.3672381222248L148.11328125,77.70143393278121L148.61197916666666,76.35229893922806L148.61197916666666,80.3881378352642L149.11067708333334,77.99521661996842L149.11067708333334,81.62114303708077L149.609375,91.63452496230602L149.609375,91.46450595855713L150.10807291666669,78.52997788190842L150.10807291666669,79.60641151666641L150.60677083333331,77.18935180902481L150.60677083333331,76.905326795578L151.10546875,81.02713602781296L151.10546875,80.8305810213089L151.60416666666669,85.16667447686196L151.60416666666669,89.96236940473318L152.10286458333331,70.05942480564117L152.10286458333331,76.05149480104447L152.6015625,74.487473487854L152.6015625,81.83222792744637L153.10026041666669,67.18693838119506L153.10026041666669,68.2359355211258L153.59895833333331,75.2188619017601L153.59895833333331,76.16914707422256L154.09765625,82.4700946033001L154.09765625,83.17860919237137L154.59635416666669,63.23985590934754L154.59635416666669,64.6795122385025L155.09505208333331,71.22833619117736L155.09505208333331,75.8996148109436L155.59375,76.29693260192872L155.59375,82.1074103474617L156.09244791666666,77.12675076723099L156.09244791666666,76.62512973546981L156.59114583333331,87.28931757211686L156.59114583333331,91.18023108839989L157.08984375,69.32336921691895L157.08984375,70.65322864055634L157.58854166666666,76.48041973114013L157.58854166666666,79.77931023836136L158.08723958333334,67.68588366508484L158.08723958333334,71.91925100088119L158.5859375,73.52495329380035L158.5859375,73.59028419256211L159.08463541666666,55.64718897342682L159.08463541666666,63.32626283168793L159.58333333333334,70.02482044696808L159.58333333333334,69.27178945541382L160.08203125,45.148944187164304L160.08203125,46.839987134933466L160.58072916666666,73.20435795783996L160.58072916666666,74.87924138307571L161.07942708333334,63.37234680652618L161.07942708333334,62.575627493858335L161.578125,64.27167818546295L161.578125,65.8744745016098L162.07682291666666,53.14305605888367L162.07682291666666,54.16592805385589L162.57552083333334,48.512318944931025L162.57552083333334,57.665400981903076L163.07421875,64.13410952091218L163.07421875,73.13080353736878L163.57291666666666,56.15834805965423L163.57291666666666,67.63536698818207L164.07161458333334,57.03624799251557L164.07161458333334,58.24362988471985L164.5703125,78.31075859069824L164.5703125,82.09695349931717L165.06901041666666,44.45671272277832L165.06901041666666,53.0008318901062L165.56770833333334,46.61290717124939L165.56770833333334,48.762621259689325L166.06640625000003,62.021981096267695L166.06640625000003,66.0488288640976L166.56510416666666,66.0110734462738L166.56510416666666,69.01372938156128L167.06380208333334,62.72088813781738L167.06380208333334,67.917693400383L167.56250000000003,71.90447179079055L167.56250000000003,73.93121500015259L168.06119791666666,59.99641873836518L168.06119791666666,60.120712637901306L168.55989583333334,80.37119532227516L168.55989583333334,81.96676913499832L169.05859374999997,79.90736418962479L169.05859374999997,82.79812516570091L169.55729166666666,70.5821950674057L169.55729166666666,70.37631525993348L170.05598958333334,67.28329076766968L170.05598958333334,67.34247763156891L170.55468749999997,84.09941816926002L170.55468749999997,86.37970042526722L171.05338541666666,64.99797503948211L171.05338541666666,70.42732210159302L171.55208333333334,61.23471071720124L171.55208333333334,63.451437330245966L172.05078125,65.47114741802216L172.05078125,63.27802722454071L172.54947916666666,51.52952704429626L172.54947916666666,55.61843900680542L173.04817708333334,70.62247133255005L173.04817708333334,68.43801283836365L173.546875,52.82550992965699L173.546875,62.65576200485229L174.04557291666666,73.95717463493347L174.04557291666666,77.6240335226059L174.54427083333334,75.42465683221818L174.54427083333334,77.73059343099594L175.04296875,68.2994829416275L175.04296875,69.69862747192383L175.54166666666666,77.27326546907425L175.54166666666666,78.44490246772766L176.04036458333334,83.42783622145653L176.04036458333334,80.32530125975609L176.5390625,66.26785824298858L176.5390625,69.29785730838776L177.03776041666666,53.654365801811224L177.03776041666666,54.758560585975644L177.53645833333334,64.79272332191468L177.53645833333334,67.04158437252045L178.03515625,56.54816696643829L178.03515625,58.99833719730377L178.53385416666666,57.70281264781951L178.53385416666666,63.53547830581665L179.03255208333334,75.83127714395523L179.03255208333334,75.18436894416809L179.53125,52.184289550781244L179.53125,57.90640289783478L180.02994791666669,72.83403636217118L180.02994791666669,77.26114290952682L180.52864583333334,70.45951170921326L180.52864583333334,69.20453290939331L181.02734375,51.62316761016845L181.02734375,53.82250716686249L181.52604166666669,41.22982869148254L181.52604166666669,45.165703153610224L182.02473958333331,30.863756513595572L182.02473958333331,43.29381699562073L182.5234375,47.8815978527069L182.5234375,59.66214971542358L183.02213541666669,53.79872674942017L183.02213541666669,60.63534955978393L183.52083333333331,63.00130269527435L183.52083333333331,64.23334348201752L184.01953125,49.321714639663696L184.01953125,52.716574525833124L184.51822916666669,42.75232286453247L184.51822916666669,46.7117506980896L185.01692708333331,61.29753456115722L185.01692708333331,63.628949117660525L185.515625,72.87848751544952L185.515625,72.70400371551514L186.01432291666669,50.41618251800537L186.01432291666669,48.52476191520691L186.51302083333331,59.018032908439636L186.51302083333331,64.5578601360321L187.01171875,67.02019536495209L187.01171875,67.53086428642273L187.51041666666669,51.124799489974976L187.51041666666669,53.11553044319153L188.00911458333331,64.72257246971131L188.00911458333331,66.99475984573364L188.5078125,63.064519095420835L188.5078125,67.92018666267396L189.00651041666669,50.44012632369996L189.00651041666669,57.79929659366607L189.50520833333331,40.15251445770264L189.50520833333331,42.72441530227661L190.00390625,43.33519878387452L190.00390625,50.2223403930664L190.50260416666669,47.91225967407226L190.50260416666669,45.40870604515075L191.00130208333331,50.32197751998902L191.00130208333331,55.08806164264679L191.5,52.683306980133054L191.5,52.75307164192199L191.99869791666669,50.473020410537714L191.99869791666669,56.68248059749604L192.49739583333331,63.657592988014216L192.49739583333331,64.8685545682907L192.99609375,53.85947110652924L192.99609375,55.30209388732911L193.49479166666666,56.38736109733581L193.49479166666666,58.95439848899841L193.99348958333331,61.14613943099975L193.99348958333331,62.79279170036315L194.4921875,38.98452186584473L194.4921875,39.413248395919794L194.99088541666666,50.765523576736456L194.99088541666666,60.78513839244843L195.48958333333334,57.88739469051362L195.48958333333334,73.3294040799141L195.98828125,66.8153425693512L195.98828125,74.40663131475449L196.48697916666666,60.1747347354889L196.48697916666666,65.44014396667481L196.98567708333334,45.730585145950315L196.98567708333334,42.68230781555175L197.484375,45.52754235267639L197.484375,47.136437082290655L197.98307291666666,63.23898804187775L197.98307291666666,67.79264409542084L198.48177083333334,44.85229902267456L198.48177083333334,51.67662315368652L198.98046875,42.23666529655456L198.98046875,44.14733600616455L199.47916666666666,64.94945721626281L199.47916666666666,69.31719653606415L199.97786458333334,62.44630038738251L199.97786458333334,68.79336531162262L200.4765625,41.172782850265506L200.4765625,46.31525621414184L200.97526041666666,48.06260657310486L200.97526041666666,55.659905672073364L201.47395833333334,44.88916535377503L201.47395833333334,53.269204521179205L201.97265625,59.90133101940155L201.97265625,61.287807655334475L202.47135416666666,42.50718107223511L202.47135416666666,43.7317611694336L202.97005208333334,42.71933965682983L202.97005208333334,44.91752276420593L203.46875000000003,53.869204378128046L203.46875000000003,52.38101749420166L203.96744791666666,59.49750528335571L203.96744791666666,60.488631153106695L204.46614583333334,49.7476996421814L204.46614583333334,47.83801350593566L204.96484375000003,38.619024467468265L204.96484375000003,41.341076993942266L205.46354166666666,54.770125079154965L205.46354166666666,59.58505804538727L205.96223958333334,52.695295858383176L205.96223958333334,55.974973392486575L206.46093749999997,56.43014335632324L206.46093749999997,61.552511477470404L206.95963541666666,41.79959111213684L206.95963541666666,50.31602764129639L207.45833333333334,35.89318218231202L207.45833333333334,39.21384258270264L207.95703124999997,65.4807406425476L207.95703124999997,67.50341930389405L208.45572916666666,61.22901334762574L208.45572916666666,64.71125836372376L208.95442708333334,45.74249339103699L208.95442708333334,46.83860788345336L209.453125,63.4135333776474L209.453125,66.06651935577392L209.95182291666666,55.97748150825501L209.95182291666666,57.29053528308869L210.45052083333334,71.59904716014861L210.94921875,44.96989188194274L210.94921875,46.377577161788935L211.44791666666666,31.07591934204102L211.44791666666666,32.64055495262146L211.94661458333334,52.068428182601934L211.94661458333334,57.21690235137939L212.4453125,43.14863061904907L212.4453125,53.542512750625605L212.94401041666666,52.83847489356995L212.94401041666666,54.07029287815094L213.44270833333334,61.12778477668762L213.44270833333334,62.786960649490354L213.94140625,60.320400667190555L213.94140625,61.21541604995727L214.44010416666666,21.004344940185547L214.44010416666666,28.631266117095947L214.93880208333334,31.39861750602722L214.93880208333334,36.31859426498413L215.4375,59.44329221248627L215.4375,61.60272471904754L215.93619791666666,67.57722623348236L215.93619791666666,69.25114524364471L216.43489583333334,59.604772853851316L216.43489583333334,60.31422162055969L216.93359375,45.88039307594299L216.93359375,47.7220757484436L217.43229166666669,49.31778483390808L217.43229166666669,54.80099484920501L217.93098958333334,54.78527138233184L217.93098958333334,56.24938926696777L218.4296875,57.620594406127935L218.4296875,59.6167914390564L218.92838541666669,49.62733979225159L219.42708333333331,38.93693556785584L219.42708333333331,39.37551631927491L219.92578125,51.57783479690552L219.92578125,58.8503562450409L220.42447916666669,37.990624761581415L220.42447916666669,40.82281370162964L220.92317708333331,51.341995525360105L220.92317708333331,55.96230337619781L221.421875,48.04707832336426L221.421875,48.256003093719485L221.92057291666669,22.20732808113098L221.92057291666669,25.735224199295047L222.41927083333331,55.21677339076996L222.41927083333331,53.94751403331756L222.91796875,49.478393363952634L222.91796875,50.47974267005921L223.41666666666669,27.263502740859995L223.41666666666669,38.38823537826538L223.91536458333331,48.571597051620486L223.91536458333331,50.28918952941895L224.4140625,44.70219402313232L224.4140625,51.37663807868958L224.91276041666669,59.240109372138974L224.91276041666669,58.685058259963995L225.41145833333331,41.56497831344605L225.41145833333331,41.895035314559934L225.91015625,31.317636346817007L225.91015625,24.992367839813223L226.40885416666669,45.768109273910525L226.40885416666669,49.364908552169794L226.90755208333331,53.74480013847351L226.90755208333331,54.82039349079132L227.40625,56.257501387596136L227.40625,59.365165042877194L227.90494791666669,47.571580314636236L227.90494791666669,49.636145782470706L228.40364583333331,29.00944838523864L228.40364583333331,30.95707030296326L228.90234375,56.51586489677429L228.90234375,54.3261376619339L229.40104166666669,57.652900719642645L229.40104166666669,62.54646799564361L229.89973958333331,35.714011049270624L229.89973958333331,39.4200300693512L230.3984375,43.75001821517944L230.3984375,43.70607738494873L230.89713541666666,48.25772609710694L231.39583333333331,26.721503591537466L231.39583333333331,32.471496915817255L231.89453125,25.124470424652102L231.89453125,35.72717123031616L232.39322916666666,57.71781253814697L232.89192708333334,47.3308563709259L232.89192708333334,57.136141872406L233.390625,44.24032301902771L233.390625,44.64602241516113L233.88932291666666,46.66077780723572L233.88932291666666,45.86943969726562L234.38802083333334,50.951561260223386L234.38802083333334,55.47717182636261L234.88671875,53.11071791648865L234.88671875,52.986266994476324L235.38541666666666,51.68538670539856L235.38541666666666,55.382695221900946L235.88411458333334,38.06919541358948L235.88411458333334,38.5197820186615L236.3828125,31.510022830963138L236.3828125,42.86526021957397L236.88151041666666,36.2096715927124L236.88151041666666,50.79638485908508L237.38020833333334,53.78702857494355L237.38020833333334,59.40500631332398L237.87890625,47.647035980224615L237.87890625,58.745775032043454L238.37760416666666,59.5509693145752L238.37760416666666,66.6344378232956L238.87630208333334,39.10959239006043L238.87630208333334,37.47904977798461L239.375,39.304470014572146L239.375,41.314472293853754L239.87369791666666,52.57339973449707L239.87369791666666,54.32523584365845L240.37239583333334,55.85007474422454L240.37239583333334,55.31355865001679L240.87109375000003,45.545111894607544L240.87109375000003,49.034168291091916L241.36979166666666,50.00356564521789L241.36979166666666,48.955457592010504L241.86848958333334,51.12166752815247L241.86848958333334,50.18038144111634L242.36718750000003,41.72234029769898L242.36718750000003,47.0845772266388L242.86588541666666,31.410440874099734L242.86588541666666,37.936413812637326L243.36458333333334,55.3104394197464L243.36458333333334,55.919818186759954L243.86328124999997,31.165986585617063L243.86328124999997,36.17051782608033L244.36197916666666,28.817032194137564L244.36197916666666,33.991393852233884L244.86067708333334,58.46734023094177L245.35937499999997,43.448509597778326L245.35937499999997,46.40732655525207L245.85807291666666,31.510358095169067L245.85807291666666,32.970981168746945L246.35677083333334,40.27525086402893L246.35677083333334,45.8203001499176L246.85546875,32.822289371490484L246.85546875,35.83315715789794L247.35416666666666,33.65552701950074L247.35416666666666,37.6612425327301L247.85286458333334,53.82215280532837L247.85286458333334,54.88121635913849L248.3515625,30.57544627189637L248.3515625,40.99938335418702L248.85026041666666,42.296707296371466L248.85026041666666,41.60874938964844L249.34895833333334,37.401913547515875L249.34895833333334,36.84154276847839L249.84765625,27.19792675971985L249.84765625,32.93598213195801L250.34635416666666,19.6647310256958L250.34635416666666,27.293460083007815L250.84505208333334,38.440141916275024L250.84505208333334,41.5763475894928L251.34375,31.00583214759827L251.34375,32.85269231796265L251.84244791666666,33.464311838150024L251.84244791666666,37.09900870323182L252.34114583333334,40.532861089706415L252.34114583333334,43.627621316909796L252.83984375,42.5381781578064L252.83984375,46.959493970870966L253.33854166666666,53.102790403366086L253.33854166666666,53.568966794013974L253.83723958333334,32.14850168228149L254.3359375,19.398225688934335L254.3359375,22.620411777496347L254.83463541666669,51.695533752441406L254.83463541666669,54.88557903766632L255.33333333333334,40.93828463554382L255.33333333333334,40.924649143219L255.83203125,53.99072916507721L255.83203125,55.30835568904877L256.3307291666667,53.68639838695526L256.3307291666667,54.65730018615723L256.8294270833333,39.3798110961914L256.8294270833333,38.79071369171143L257.328125,32.84852485656738L257.328125,34.99324817657471L257.8268229166667,25.608855056762692L257.8268229166667,28.40944004058838L258.3255208333333,47.60975799560546L258.3255208333333,52.902455186843866L258.82421875,50.564887046813965L258.82421875,52.335862922668454L259.3229166666667,50.45356659889221L259.3229166666667,51.97400250434876L259.8216145833333,44.9410888671875L259.8216145833333,50.52925567626953L260.3203125,22.22292847633362L260.3203125,23.85955252647401L260.8190104166667,35.60934495925903L260.8190104166667,38.22326841354371L261.3177083333333,50.76962313652038L261.3177083333333,52.3112952709198L261.81640625,52.493606853485105L261.81640625,52.89511332511901L262.3151041666667,43.640484428405756L262.3151041666667,44.899265718460086L262.8138020833333,61.26495239734649L262.8138020833333,61.718040752410886L263.3125,47.41285605430603L263.3125,47.42628359794617L263.8111979166667,52.22424964904785L263.8111979166667,49.60983815193177L264.3098958333333,45.78173203468323L264.3098958333333,45.18528428077698L264.80859375,49.82170391082764L265.3072916666667,28.249298334121704L265.3072916666667,33.04765906333924L265.8059895833333,38.68902678489685L265.8059895833333,38.39587006568908L266.3046875,24.54155631065369L266.3046875,28.533691501617422L266.8033854166667,47.24024591445922L266.8033854166667,48.66259794235229L267.3020833333333,34.02612977027893L267.3020833333333,35.70083389282226L267.80078125,51.29008474349976L267.80078125,52.21784143447876L268.29947916666663,43.80916476249695L268.29947916666663,48.1982994556427L268.7981770833333,47.90690393447876L268.7981770833333,49.55189261436462L269.296875,40.88362808227539L269.296875,42.95225915908813" style="fill: none;" fill="none"></path></g></g></g></g></g></g><g transform="translate(30, 178)" clip-path="url(#clip_1)"><clipPath id="clip_1"><rect width="299" height="22"></rect></clipPath><g><g><line x1="0" y1="0" x2="0" y2="5" style="visibility: inherit;" fill="rgb(0, 0, 0)" stroke="rgb(204, 204, 204)" stroke-width="1px"></line><line x1="24.934895833333332" y1="0" x2="24.934895833333332" y2="5" style="visibility: inherit;" fill="rgb(0, 0, 0)" stroke="rgb(204, 204, 204)" stroke-width="1px"></line><line x1="49.869791666666664" y1="0" x2="49.869791666666664" y2="5" style="visibility: inherit;" fill="rgb(0, 0, 0)" stroke="rgb(204, 204, 204)" stroke-width="1px"></line><line x1="74.8046875" y1="0" x2="74.8046875" y2="5" style="visibility: inherit;" fill="rgb(0, 0, 0)" stroke="rgb(204, 204, 204)" stroke-width="1px"></line><line x1="99.73958333333333" y1="0" x2="99.73958333333333" y2="5" style="visibility: inherit;" fill="rgb(0, 0, 0)" stroke="rgb(204, 204, 204)" stroke-width="1px"></line><line x1="124.67447916666667" y1="0" x2="124.67447916666667" y2="5" style="visibility: inherit;" fill="rgb(0, 0, 0)" stroke="rgb(204, 204, 204)" stroke-width="1px"></line><line x1="149.609375" y1="0" x2="149.609375" y2="5" style="visibility: inherit;" fill="rgb(0, 0, 0)" stroke="rgb(204, 204, 204)" stroke-width="1px"></line><line x1="174.54427083333334" y1="0" x2="174.54427083333334" y2="5" style="visibility: inherit;" fill="rgb(0, 0, 0)" stroke="rgb(204, 204, 204)" stroke-width="1px"></line><line x1="199.47916666666666" y1="0" x2="199.47916666666666" y2="5" style="visibility: inherit;" fill="rgb(0, 0, 0)" stroke="rgb(204, 204, 204)" stroke-width="1px"></line><line x1="224.4140625" y1="0" x2="224.4140625" y2="5" style="visibility: inherit;" fill="rgb(0, 0, 0)" stroke="rgb(204, 204, 204)" stroke-width="1px"></line><line x1="249.34895833333334" y1="0" x2="249.34895833333334" y2="5" style="visibility: inherit;" fill="rgb(0, 0, 0)" stroke="rgb(204, 204, 204)" stroke-width="1px"></line><line x1="274.28385416666663" y1="0" x2="274.28385416666663" y2="5" style="visibility: inherit;" fill="rgb(0, 0, 0)" stroke="rgb(204, 204, 204)" stroke-width="1px"></line><line x1="299.21875" y1="0" x2="299.21875" y2="5" style="visibility: inherit;" fill="rgb(0, 0, 0)" stroke="rgb(204, 204, 204)" stroke-width="1px"></line></g><g transform="translate(0, 8)"><text x="0" y="0" dx="0em" dy="0.95em" style="text-anchor: middle; visibility: hidden; font-family: Roboto, sans-serif; font-size: 12px; font-weight: 200;" fill="rgb(50, 49, 63)" stroke="none" stroke-width="1px">-1k</text><text x="24.934895833333332" y="0" dx="0em" dy="0.95em" style="text-anchor: middle; visibility: inherit; font-family: Roboto, sans-serif; font-size: 12px; font-weight: 200;" fill="rgb(50, 49, 63)" stroke="none" stroke-width="1px">0</text><text x="49.869791666666664" y="0" dx="0em" dy="0.95em" style="text-anchor: middle; visibility: inherit; font-family: Roboto, sans-serif; font-size: 12px; font-weight: 200;" fill="rgb(50, 49, 63)" stroke="none" stroke-width="1px">1k</text><text x="74.8046875" y="0" dx="0em" dy="0.95em" style="text-anchor: middle; visibility: inherit; font-family: Roboto, sans-serif; font-size: 12px; font-weight: 200;" fill="rgb(50, 49, 63)" stroke="none" stroke-width="1px">2k</text><text x="99.73958333333333" y="0" dx="0em" dy="0.95em" style="text-anchor: middle; visibility: inherit; font-family: Roboto, sans-serif; font-size: 12px; font-weight: 200;" fill="rgb(50, 49, 63)" stroke="none" stroke-width="1px">3k</text><text x="124.67447916666667" y="0" dx="0em" dy="0.95em" style="text-anchor: middle; visibility: inherit; font-family: Roboto, sans-serif; font-size: 12px; font-weight: 200;" fill="rgb(50, 49, 63)" stroke="none" stroke-width="1px">4k</text><text x="149.609375" y="0" dx="0em" dy="0.95em" style="text-anchor: middle; visibility: inherit; font-family: Roboto, sans-serif; font-size: 12px; font-weight: 200;" fill="rgb(50, 49, 63)" stroke="none" stroke-width="1px">5k</text><text x="174.54427083333334" y="0" dx="0em" dy="0.95em" style="text-anchor: middle; visibility: inherit; font-family: Roboto, sans-serif; font-size: 12px; font-weight: 200;" fill="rgb(50, 49, 63)" stroke="none" stroke-width="1px">6k</text><text x="199.47916666666666" y="0" dx="0em" dy="0.95em" style="text-anchor: middle; visibility: inherit; font-family: Roboto, sans-serif; font-size: 12px; font-weight: 200;" fill="rgb(50, 49, 63)" stroke="none" stroke-width="1px">7k</text><text x="224.4140625" y="0" dx="0em" dy="0.95em" style="text-anchor: middle; visibility: inherit; font-family: Roboto, sans-serif; font-size: 12px; font-weight: 200;" fill="rgb(50, 49, 63)" stroke="none" stroke-width="1px">8k</text><text x="249.34895833333334" y="0" dx="0em" dy="0.95em" style="text-anchor: middle; visibility: inherit; font-family: Roboto, sans-serif; font-size: 12px; font-weight: 200;" fill="rgb(50, 49, 63)" stroke="none" stroke-width="1px">9k</text><text x="274.28385416666663" y="0" dx="0em" dy="0.95em" style="text-anchor: middle; visibility: inherit; font-family: Roboto, sans-serif; font-size: 12px; font-weight: 200;" fill="rgb(50, 49, 63)" stroke="none" stroke-width="1px">10k</text><text x="299.21875" y="0" dx="0em" dy="0.95em" style="text-anchor: middle; visibility: hidden; font-family: Roboto, sans-serif; font-size: 12px; font-weight: 200;" fill="rgb(50, 49, 63)" stroke="none" stroke-width="1px">11k</text></g><line x1="0" y1="0" x2="299.21875" y2="0" fill="rgb(0, 0, 0)" stroke="rgb(204, 204, 204)" stroke-width="1px"></line></g></g></g></g></svg>