<svg viewBox="0 0 330 200" xmlns="http://www.w3.org/2000/svg"><g><g><g><g><g><line x1="30.78125" y1="178" x2="25.78125" y2="178" style="visibility: inherit;" fill="rgb(0, 0, 0)" stroke="rgb(204, 204, 204)" stroke-width="1px"></line><line x1="30.78125" y1="164.30769230769232" x2="25.78125" y2="164.30769230769232" style="visibility: inherit;" fill="rgb(0, 0, 0)" stroke="rgb(204, 204, 204)" stroke-width="1px"></line><line x1="30.78125" y1="150.6153846153846" x2="25.78125" y2="150.6153846153846" style="visibility: inherit;" fill="rgb(0, 0, 0)" stroke="rgb(204, 204, 204)" stroke-width="1px"></line><line x1="30.78125" y1="136.9230769230769" x2="25.78125" y2="136.9230769230769" style="visibility: inherit;" fill="rgb(0, 0, 0)" stroke="rgb(204, 204, 204)" stroke-width="1px"></line><line x1="30.78125" y1="123.23076923076923" x2="25.78125" y2="123.23076923076923" style="visibility: inherit;" fill="rgb(0, 0, 0)" stroke="rgb(204, 204, 204)" stroke-width="1px"></line><line x1="30.78125" y1="109.53846153846155" x2="25.78125" y2="109.53846153846155" style="visibility: inherit;" fill="rgb(0, 0, 0)" stroke="rgb(204, 204, 204)" stroke-width="1px"></line><line x1="30.78125" y1="95.84615384615384" x2="25.78125" y2="95.84615384615384" style="visibility: inherit;" fill="rgb(0, 0, 0)" stroke="rgb(204, 204, 204)" stroke-width="1px"></line><line x1="30.78125" y1="82.15384615384616" x2="25.78125" y2="82.15384615384616" style="visibility: inherit;" fill="rgb(0, 0, 0)" stroke="rgb(204, 204, 204)" stroke-width="1px"></line><line x1="30.78125" y1="68.46153846153845" x2="25.78125" y2="68.46153846153845" style="visibility: inherit;" fill="rgb(0, 0, 0)" stroke="rgb(204, 204, 204)" stroke-width="1px"></line><line x1="30.78125" y1="54.769230769230774" x2="25.78125" y2="54.769230769230774" style="visibility: inherit;" fill="rgb(0, 0, 0)" stroke="rgb(204, 204, 204)" stroke-width="1px"></line><line x1="30.78125" y1="41.076923076923066" x2="25.78125" y2="41.076923076923066" style="visibility: inherit;" fill="rgb(0, 0, 0)" stroke="rgb(204, 204, 204)" stroke-width="1px"></line><line x1="30.78125" y1="27.384615384615387" x2="25.78125" y2="27.384615384615387" style="visibility: inherit;" fill="rgb(0, 0, 0)" stroke="rgb(204, 204, 204)" stroke-width="1px"></line><line x1="30.78125" y1="13.692307692307683" x2="25.78125" y2="13.692307692307683" style="visibility: inherit;" fill="rgb(0, 0, 0)" stroke="rgb(204, 204, 204)" stroke-width="1px"></line><line x1="30.78125" y1="0" x2="25.78125" y2="0" style="visibility: inherit;" fill="rgb(0, 0, 0)" stroke="rgb(204, 204, 204)" stroke-width="1px"></line></g><g transform="translate(20.78125, 0)"><text x="0" y="178" dx="0em" dy="0.3em" style="text-anchor: end; visibility: hidden; font-family: Roboto, sans-serif; font-size: 12px; font-weight: 200;" fill="rgb(50, 49, 63)" stroke="none" stroke-width="1px">-4</text><text x="0" y="164.30769230769232" dx="0em" dy="0.3em" style="text-anchor: end; visibility: inherit; font-family: Roboto, sans-serif; font-size: 12px; font-weight: 200;" fill="rgb(50, 49, 63)" stroke="none" stroke-width="1px">-2</text><text x="0" y="150.6153846153846" dx="0em" dy="0.3em" style="text-anchor: end; visibility: hidden; font-family: Roboto, sans-serif; font-size: 12px; font-weight: 200;" fill="rgb(50, 49, 63)" stroke="none" stroke-width="1px">0</text><text x="0" y="136.9230769230769" dx="0em" dy="0.3em" style="text-anchor: end; visibility: inherit; font-family: Roboto, sans-serif; font-size: 12px; font-weight: 200;" fill="rgb(50, 49, 63)" stroke="none" stroke-width="1px">2</text><text x="0" y="123.23076923076923" dx="0em" dy="0.3em" style="text-anchor: end; visibility: hidden; font-family: Roboto, sans-serif; font-size: 12px; font-weight: 200;" fill="rgb(50, 49, 63)" stroke="none" stroke-width="1px">4</text><text x="0" y="109.53846153846155" dx="0em" dy="0.3em" style="text-anchor: end; visibility: inherit; font-family: Roboto, sans-serif; font-size: 12px; font-weight: 200;" fill="rgb(50, 49, 63)" stroke="none" stroke-width="1px">6</text><text x="0" y="95.84615384615384" dx="0em" dy="0.3em" style="text-anchor: end; visibility: hidden; font-family: Roboto, sans-serif; font-size: 12px; font-weight: 200;" fill="rgb(50, 49, 63)" stroke="none" stroke-width="1px">8</text><text x="0" y="82.15384615384616" dx="0em" dy="0.3em" style="text-anchor: end; visibility: inherit; font-family: Roboto, sans-serif; font-size: 12px; font-weight: 200;" fill="rgb(50, 49, 63)" stroke="none" stroke-width="1px">10</text><text x="0" y="68.46153846153845" dx="0em" dy="0.3em" style="text-anchor: end; visibility: hidden; font-family: Roboto, sans-serif; font-size: 12px; font-weight: 200;" fill="rgb(50, 49, 63)" stroke="none" stroke-width="1px">12</text><text x="0" y="54.769230769230774" dx="0em" dy="0.3em" style="text-anchor: end; visibility: inherit; font-family: Roboto, sans-serif; font-size: 12px; font-weight: 200;" fill="rgb(50, 49, 63)" stroke="none" stroke-width="1px">14</text><text x="0" y="41.076923076923066" dx="0em" dy="0.3em" style="text-anchor: end; visibility: hidden; font-family: Roboto, sans-serif; font-size: 12px; font-weight: 200;" fill="rgb(50, 49, 63)" stroke="none" stroke-width="1px">16</text><text x="0" y="27.384615384615387" dx="0em" dy="0.3em" style="text-anchor: end; visibility: inherit; font-family: Roboto, sans-serif; font-size: 12px; font-weight: 200;" fill="rgb(50, 49, 63)" stroke="none" stroke-width="1px">18</text><text x="0" y="13.692307692307683" dx="0em" dy="0.3em" style="text-anchor: end; visibility: hidden; font-family: Roboto, sans-serif; font-size: 12px; font-weight: 200;" fill="rgb(50, 49, 63)" stroke="none" stroke-width="1px">20</text><text x="0" y="0" dx="0em" dy="0.3em" style="text-anchor: end; visibility: hidden; font-family: Roboto, sans-serif; font-size: 12px; font-weight: 200;" fill="rgb(50, 49, 63)" stroke="none" stroke-width="1px">22</text></g><line x1="30.78125" y1="0" x2="30.78125" y2="178" fill="rgb(0, 0, 0)" stroke="rgb(204, 204, 204)" stroke-width="1px"></line></g></g><g transform="translate(30, 0)" clip-path="url(#clip_0)"><clipPath id="clip_0"><rect width="299" height="178"></rect></clipPath><g><g><g><line x1="0" y1="0" x2="0" y2="178" fill="rgb(0, 0, 0)" stroke="rgb(60, 60, 60)" stroke-width="1px" opacity="0.25"></line><line x1="21.372767857142858" y1="0" x2="21.372767857142858" y2="178" fill="rgb(0, 0, 0)" stroke="rgb(60, 60, 60)" stroke-width="1px" opacity="0.25"></line><line x1="42.745535714285715" y1="0" x2="42.745535714285715" y2="178" fill="rgb(0, 0, 0)" stroke="rgb(60, 60, 60)" stroke-width="1px" opacity="0.25"></line><line x1="64.11830357142857" y1="0" x2="64.11830357142857" y2="178" fill="rgb(0, 0, 0)" stroke="rgb(60, 60, 60)" stroke-width="1px" opacity="0.25"></line><line x1="85.49107142857143" y1="0" x2="85.49107142857143" y2="178" fill="rgb(0, 0, 0)" stroke="rgb(60, 60, 60)" stroke-width="1px" opacity="0.25"></line><line x1="106.86383928571429" y1="0" x2="106.86383928571429" y2="178" fill="rgb(0, 0, 0)" stroke="rgb(60, 60, 60)" stroke-width="1px" opacity="0.25"></line><line x1="128.23660714285714" y1="0" x2="128.23660714285714" y2="178" fill="rgb(0, 0, 0)" stroke="rgb(60, 60, 60)" stroke-width="1px" opacity="0.25"></line><line x1="149.609375" y1="0" x2="149.609375" y2="178" fill="rgb(0, 0, 0)" stroke="rgb(60, 60, 60)" stroke-width="1px" opacity="0.25"></line><line x1="170.98214285714286" y1="0" x2="170.98214285714286" y2="178" fill="rgb(0, 0, 0)" stroke="rgb(60, 60, 60)" stroke-width="1px" opacity="0.25"></line><line x1="192.35491071428572" y1="0" x2="192.35491071428572" y2="178" fill="rgb(0, 0, 0)" stroke="rgb(60, 60, 60)" stroke-width="1px" opacity="0.25"></line><line x1="213.72767857142858" y1="0" x2="213.72767857142858" y2="178" fill="rgb(0, 0, 0)" stroke="rgb(60, 60, 60)" stroke-width="1px" opacity="0.25"></line><line x1="235.10044642857142" y1="0" x2="235.10044642857142" y2="178" fill="rgb(0, 0, 0)" stroke="rgb(60, 60, 60)" stroke-width="1px" opacity="0.25"></line><line x1="256.4732142857143" y1="0" x2="256.4732142857143" y2="178" fill="rgb(0, 0, 0)" stroke="rgb(60, 60, 60)" stroke-width="1px" opacity="0.25"></line><line x1="277.84598214285717" y1="0" x2="277.84598214285717" y2="178" fill="rgb(0, 0, 0)" stroke="rgb(60, 60, 60)" stroke-width="1px" opacity="0.25"></line><line x1="299.21875" y1="0" x2="299.21875" y2="178" fill="rgb(0, 0, 0)" stroke="rgb(60, 60, 60)" stroke-width="1px" opacity="0.25"></line></g><g><line x1="0" y1="178" x2="299.21875" y2="178" fill="rgb(0, 0, 0)" stroke="rgb(60, 60, 60)" stroke-width="1px" opacity="0.25"></line><line x1="0" y1="164.30769230769232" x2="299.21875" y2="164.30769230769232" fill="rgb(0, 0, 0)" stroke="rgb(60, 60, 60)" stroke-width="1px" opacity="0.25"></line><line x1="0" y1="150.6153846153846" x2="299.21875" y2="150.6153846153846" fill="rgb(0, 0, 0)" stroke="rgb(60, 60, 60)" stroke-width="1px" opacity="0.25"></line><line x1="0" y1="136.9230769230769" x2="299.21875" y2="136.9230769230769" fill="rgb(0, 0, 0)" stroke="rgb(60, 60, 60)" stroke-width="1px" opacity="0.25"></line><line x1="0" y1="123.23076923076923" x2="299.21875" y2="123.23076923076923" fill="rgb(0, 0, 0)" stroke="rgb(60, 60, 60)" stroke-width="1px" opacity="0.25"></line><line x1="0" y1="109.53846153846155" x2="299.21875" y2="109.53846153846155" fill="rgb(0, 0, 0)" stroke="rgb(60, 60, 60)" stroke-width="1px" opacity="0.25"></line><line x1="0" y1="95.84615384615384" x2="299.21875" y2="95.84615384615384" fill="rgb(0, 0, 0)" stroke="rgb(60, 60, 60)" stroke-width="1px" opacity="0.25"></line><line x1="0" y1="82.15384615384616" x2="299.21875" y2="82.15384615384616" fill="rgb(0, 0, 0)" stroke="rgb(60, 60, 60)" stroke-width="1px" opacity="0.25"></line><line x1="0" y1="68.46153846153845" x2="299.21875" y2="68.46153846153845" fill="rgb(0, 0, 0)" stroke="rgb(60, 60, 60)" stroke-width="1px" opacity="0.25"></line><line x1="0" y1="54.769230769230774" x2="299.21875" y2="54.769230769230774" fill="rgb(0, 0, 0)" stroke="rgb(60, 60, 60)" stroke-width="1px" opacity="0.25"></line><line x1="0" y1="41.076923076923066" x2="299.21875" y2="41.076923076923066" fill="rgb(0, 0, 0)" stroke="rgb(60, 60, 60)" stroke-width="1px" opacity="0.25"></line><line x1="0" y1="27.384615384615387" x2="299.21875" y2="27.384615384615387" fill="rgb(0, 0, 0)" stroke="rgb(60, 60, 60)" stroke-width="1px" opacity="0.25"></line><line x1="0" y1="13.692307692307683" x2="299.21875" y2="13.692307692307683" fill="rgb(0, 0, 0)" stroke="rgb(60, 60, 60)" stroke-width="1px" opacity="0.25"></line><line x1="0" y1="0" x2="299.21875" y2="0" fill="rgb(0, 0, 0)" stroke="rgb(60, 60, 60)" stroke-width="1px" opacity="0.25"></line></g></g></g><g><g><line x1="0" y1="150.6153846153846" x2="299.21875" y2="150.6153846153846" fill="rgb(0, 0, 0)" stroke="rgb(153, 153, 153)" stroke-width="1.5px"></line></g></g><g><g><line x1="21.372767857142858" y1="0" x2="21.372767857142858" y2="178" fill="rgb(0, 0, 0)" stroke="rgb(153, 153, 153)" stroke-width="1.5px"></line></g></g><g><g><g><g><g><path stroke="rgb(255, 112, 67)" stroke-width="2px" d="M24.193973214285716,150.6460137088568L24.32220982142857,150.65606149842586L24.83515625,150.70172967503632L24.96339285714286,150.6950481300398L25.21986607142857,150.7091475372431L25.34810267857143,150.72820544888532L25.476339285714285,150.7199996587696L25.861049107142854,150.771320354073L25.989285714285714,150.88165353675524L26.11752232142857,150.9075886951397L26.63046875,151.0428254409558L27.784598214285715,150.39381777295344L27.91283482142857,150.89277304373485L28.169308035714284,153.22152327015877L28.682254464285716,155.6636607846869L28.93872767857143,157.97968749696798L29.195200892857144,159.55635093456684L29.3234375,161.30816532561943L29.579910714285713,161.45305702627033L29.83638392857143,161.69796984100014L29.964620535714285,162.44982787922697L30.349330357142854,163.22615968205935L30.477566964285714,163.6997733762226L30.60580357142857,163.68612654370187L30.73404017857143,164.0167456378365L30.862276785714286,164.67982416117616L31.246986607142855,165.31080313758386L31.375223214285715,164.3162042081097L31.63169642857143,163.88749134487594L31.888169642857143,162.98014123889544L32.01640625,162.5814729911318L32.144642857142856,162.63518561354667L32.272879464285715,162.77200615445366L32.65758928571429,163.75566214505648L32.78582589285714,162.6576133596071L32.9140625,164.57705009474745L33.04229910714286,164.65647973074326L33.29877232142857,164.39340733233277L33.683482142857144,163.03981847445968L34.32466517857143,162.38806900774068L34.45290178571429,162.39692456270438L34.58113839285714,163.0143911619991L34.709375,164.29896130754867L34.837611607142854,163.38273421680924L34.965848214285714,163.48920239891095L35.60703125,165.64116232065237L36.632924107142856,165.98750302154772L37.01763392857143,163.9689494098001L37.14587053571429,161.26408136080826L38.043526785714285,159.64595853111197L38.42823660714286,157.70440420400783L38.68470982142857,157.10298071438902L38.81294642857143,153.24288898144232L38.94118303571429,153.38060720179777L39.454129464285714,153.78357337089065L39.582366071428574,153.25339067084582L39.710602678571426,151.8571766242789L40.095312500000006,149.2311992972182L40.22354910714286,152.15161428395683L41.121205357142856,152.18376317210797L41.377678571428575,145.21837284273414L41.63415178571429,147.51693589028702L41.76238839285714,147.1603864307499L41.89062500000001,143.7993422635649L42.01886160714286,142.47287165819364L42.53180803571429,138.84687788306925L42.78828125,137.6587695283387L43.17299107142858,135.74039824208396L43.30122767857143,140.76941883481928L43.42946428571428,134.7357105231863L43.685937499999994,137.94142788013846L43.81417410714286,137.57263374039456L43.942410714285714,136.84263740512776L44.32712053571428,137.44798213928004L44.58359375,140.45677107066274L44.71183035714286,137.9322265273675L44.96830357142857,136.33553341591576L45.09654017857143,136.0716032497401L45.481249999999996,135.9872330961782L46.12243303571428,133.59685793379663L46.25066964285715,139.43517836019458L46.37890625,137.19826892389966L46.63537946428571,127.63502772948533L47.020089285714285,129.45717202879746L47.2765625,123.87045021164914L47.40479910714286,130.25114583373554L47.66127232142857,125.96226867171723L47.91774553571429,129.004206496809L48.04598214285714,123.63698176504754L48.94363839285714,127.8812068625141L49.96953125,121.1094836648154L50.097767857142856,120.73250177514564L50.22600446428571,122.58673509412368L50.73895089285714,114.96265354426717L51.12366071428571,97.73919995690136L51.50837053571429,98.87639076564942L51.636607142857144,98.65996474656006L52.02131696428571,98.67643580171834L52.14955357142858,107.19433679641844L52.40602678571429,101.07501140191017L52.53426339285714,102.56349857146931L52.662499999999994,104.55429876833699L52.918973214285714,108.5534823641704L53.30368303571428,114.09954405001422L53.431919642857146,112.52614591407367L53.56015625,108.54476479958508L53.94486607142858,110.34089786067521L54.32957589285714,106.8565113110331L54.97075892857143,98.91097806746609L55.22723214285715,101.84547934583196L55.48370535714285,97.4411342719279L55.61194196428571,89.90872326781232L56.253125,92.46640698303095L56.63783482142857,101.26838695198805L56.76607142857143,102.79099745451333L56.89430803571428,108.15258416289824L57.02254464285714,103.85195945676088L57.279017857142854,102.4201847859011L57.791964285714286,96.5945349708026L58.0484375,93.43156786640209L58.30491071428572,83.15106207885944L58.56138392857142,86.86451927692241L59.202566964285715,95.44617740113785L59.45904017857143,92.68869428881786L59.97198660714286,96.62108632309351L60.613169642857144,93.93927348622013L60.86964285714286,100.79933700221697L60.99787946428571,94.16083846842002L61.639062499999994,91.96768327796082L61.76729910714286,95.12998369618887L61.895535714285714,103.26596290272028L62.152008928571426,100.21347565798582L62.28024553571428,85.18711760022643L62.408482142857146,90.80005333190662L62.92142857142858,91.03975859685659L63.04966517857143,85.01532625796746L63.30613839285714,84.78741380404995L63.690848214285715,74.3304257827586L64.20379464285715,73.64830151011678L64.33203125,83.69818766324873L64.46026785714287,81.9618477492695L64.58850446428572,91.21479774117077L64.84497767857142,97.65236514889042L65.2296875,89.81723384998254L65.35792410714285,86.09410802779114L65.48616071428572,75.46566340159806L65.87087053571429,68.22536082946733L65.99910714285714,71.01629366255044L66.25558035714286,77.83653148646131L67.025,76.71141208880437L67.28147321428571,76.57757897090582L67.66618303571428,79.06393389236545L67.79441964285714,86.56860689397546L68.05089285714286,89.59913661891983L68.17912946428572,93.59692903509138L68.8203125,89.69280716728944L68.94854910714285,84.91495396191026L69.20502232142857,83.33324869386226L69.46149553571429,80.87128883822804L69.58973214285714,84.6495304992165L69.71796875,90.98184159524055L70.10267857142857,76.01103958379696L70.23091517857142,72.93814790963629L70.615625,74.02286837529836L70.74386160714286,67.33542726884075L71.00033482142858,61.87296548066105L71.12857142857143,64.01737461709442L71.38504464285714,74.26213082024913L71.89799107142858,76.59711082740152L72.02622767857143,72.8762541732081L72.15446428571428,69.30733984053843L72.4109375,62.952534338799474L72.53917410714286,65.20826875579245L73.05212053571428,64.1624608133181L73.18035714285715,77.9840968188014L73.30859375,86.4140777577472L73.56506696428572,76.66670758111503L73.69330357142857,81.10924998319238L73.82154017857142,80.59719677711871L73.94977678571428,75.19330646959153L75.10390625,76.37727723432216L75.23214285714286,63.75681317075593L75.87332589285714,58.95926617792871L76.77098214285714,62.250469034337605L76.89921875,75.63724742167302L77.41216517857143,71.1969427804903L77.54040178571428,82.6040840361202L77.66863839285715,66.95087263940798L77.92511160714287,69.38597533770127L78.18158482142857,69.12631871960733L78.69453125,68.99490403881819L79.84866071428571,69.31105457304302L79.97689732142857,76.40592352117896L80.10513392857143,77.7159671904286L80.23337053571429,77.80857169069384L80.48984375,55.09555150393703L80.61808035714284,53.927497035362514L81.00279017857143,60.83340765326193L81.3875,57.556660714863185L82.28515625,52.101827761784875L82.41339285714285,50.52404209633624L82.54162946428572,59.194153164248924L82.66986607142857,51.66768407947634L82.92633928571428,54.51463811656539L83.05457589285714,65.43975959089589L83.43928571428572,61.71133453308322L83.56752232142858,66.4822611655474L83.69575892857142,69.18000687633041L83.95223214285714,67.25115028856492L84.20870535714285,69.30054477448547L84.33694196428571,67.45935198652684L84.84988839285715,80.31040748121335L85.74754464285715,78.18989292388049L86.13225446428572,67.83155466724521L86.26049107142858,62.39576448886124L86.51696428571428,68.6949051584422L86.7734375,62.90928544243047L87.15814732142856,63.05005212624178L88.56875,68.04131500353768L88.95345982142857,62.63714483590979L89.08169642857143,53.67105660885884L89.20993303571429,51.92373246901498L89.46640624999999,61.139413455079335L89.72287946428573,64.66512384443809L89.85111607142856,61.68984091996289L90.10758928571428,67.1084079546877L90.74877232142856,65.2309681995141L90.87700892857143,66.6920832812995L91.64642857142857,63.58554456904636L91.90290178571429,60.494302328539064L92.03113839285713,59.05280357917722L92.159375,55.92082361173973L92.28761160714286,57.53930769759896L92.4158482142857,66.01521068315336L92.54408482142857,56.878310786535245L92.67232142857144,53.155065460803385L92.80055803571429,66.2177059893163L92.92879464285714,71.36001158116679L93.05703125,60.46465948025055L93.31350446428571,65.88166269723988L93.69821428571429,71.35085794643138L93.82645089285714,65.67617606617048L93.9546875,55.75300812054663L94.21116071428571,55.778439675513084L94.72410714285714,56.015663752723725L94.98058035714287,64.00027129498798L95.23705357142858,61.071314686454166L95.75,58.87702519164266L95.87823660714287,56.42126877310421L96.0064732142857,51.757423762923516L96.26294642857144,59.8618852293399L96.51941964285714,59.906979347865345L96.77589285714286,65.33880559906628L97.03236607142857,68.70550189933797L97.16060267857144,68.80764650233942L97.54531250000001,54.63649959292257L97.80178571428571,54.57812895685029L97.93002232142857,47.97983606504692L98.05825892857143,49.64728447382946L98.18649553571429,57.67633287888716L98.31473214285714,55.23920077643272L98.44296875,43.256587975437455L98.69944196428571,52.199372390224156L98.82767857142858,39.98421899406164L99.46886160714286,47.38328939908496L99.59709821428571,52.194064661649L99.85357142857144,57.01575446964375L99.98180803571428,56.838735413062565L100.11004464285715,51.662195750823585L100.49475446428572,50.12329750490935L100.75122767857142,44.8928627216017L101.00770089285714,41.478785506402275L101.26417410714285,42.08661626163322L101.52064732142857,48.74183489862844L101.77712053571429,51.6961758915227L101.90535714285714,55.039015695623874L102.03359375000001,57.042881011377865L102.41830357142858,61.02247795656758L102.93124999999999,56.73856591423687L103.05948660714286,53.66229684083481L103.31595982142858,58.92132386889579L103.70066964285715,57.653396691379534L104.21361607142858,60.61612448286408L104.85479910714285,61.294982506443965L105.75245535714285,63.876932606189456L105.88069196428572,60.51558871480855L106.13716517857142,66.06248650384381L106.26540178571429,53.75316614124483L106.39363839285716,52.28182516316864L106.521875,43.252002437143965L106.65011160714286,63.11431222466243L106.77834821428571,58.73438426026886L107.03482142857143,60.65579626661052L107.16305803571429,52.60287729140411L107.67600446428573,55.763135113198835L107.80424107142856,62.22459196551172L108.06071428571428,58.16204144475362L108.3171875,48.26062760028815L108.70189732142856,53.31637995818785L108.9583705357143,50.70460631752652L109.08660714285713,41.92628393446498L109.21484375,47.77505588548743L109.59955357142857,52.95612985181153L109.72779017857142,46.85296480918638L109.85602678571429,47.96251201163864L109.98426339285713,47.2116168507726L110.1125,48.85761251722062L110.36897321428572,50.76556141503301L110.49720982142857,56.93104379693335L110.62544642857144,55.636558841354876L110.88191964285714,52.78514458027866L111.01015625,54.04999012247233L111.13839285714286,47.88515295269014L111.2666294642857,42.21588691650217L111.39486607142857,50.04455912274534L111.52310267857143,50.57185398161934L111.77957589285714,51.98728898950118L111.9078125,56.488614655109615L112.29252232142856,55.711277982612785L112.80546875,56.03642334356968L113.19017857142858,59.30960290046647L113.31841517857143,46.865546074902795L113.4466517857143,55.325385296168L113.703125,57.89306337327623L113.9595982142857,54.9826125213647L114.08783482142857,51.85816912109518L114.34430803571428,45.89112780979653L114.60078125,51.26531049489421L115.11372767857144,44.71997696043563L115.62667410714286,32.5137527449588L115.75491071428571,43.78526099474421L116.01138392857143,41.30582691310253L116.13962053571429,37.39607420243634L116.26785714285714,49.18604531233658L116.39609375,49.580588257536036L116.52433035714284,47.312410524758974L116.65256696428571,54.64853291083083L117.03727678571428,44.835147648954944L117.16551339285714,41.89323160413408L117.93493303571428,45.50198264017725L118.19140625,47.78303684832285L118.31964285714285,45.9129427132887L118.44787946428572,50.81876559510814L118.57611607142857,54.69128394719034L118.83258928571428,54.81290239909471L119.21729910714285,52.839303235205016L119.34553571428572,57.24330793435281L119.73024553571429,51.20963720999946L119.85848214285714,53.54563876426968L119.98671875000001,42.93721009478099L120.24319196428571,49.3972159823118L120.49966517857142,53.24830745827417L120.884375,56.35866051326639L121.01261160714286,57.5061677411592L121.26908482142858,54.58054874814543L121.65379464285715,53.35561168203031L121.78203124999999,60.064891127494924L121.91026785714286,57.91350927906417L122.16674107142858,60.086469332274746L122.29497767857143,46.86820609746808L122.42321428571428,48.45429360312664L122.67968749999999,45.35853214848581L122.80792410714285,43.134443136935545L122.93616071428572,52.6830589004437L123.57734375,51.90491661092427L124.09029017857142,47.415362193304865L124.21852678571429,57.452886555907426L124.475,58.24698493600464L124.73147321428571,60.66551623086172L124.98794642857142,63.27251891421379L125.11618303571429,59.70051467494427L125.24441964285715,59.76259977129395L125.37265624999999,54.013549729766666L125.50089285714286,61.58115875443901L125.62912946428573,50.792104922979696L125.88560267857143,54.00278215051819L126.14207589285715,63.89486492676676L126.39854910714286,65.4145668254636L126.78325892857143,68.3152209372816L127.03973214285713,65.39201582793763L127.16796875,68.4570675066878L127.29620535714285,57.753258025797535L127.80915178571429,58.356608423360534L128.065625,65.30546670079178L128.19386160714285,61.3228772236564L128.45033482142856,56.126714897144566L128.83504464285713,59.93196023500211L129.34799107142857,56.67986732306445L129.73270089285714,58.22931571032943L130.1174107142857,54.72429394444245L130.24564732142858,55.38023304039032L130.50212053571428,63.22933074337669L130.75859375,55.02519563277482L131.0150669642857,55.718277064066186L131.65625,67.2419833775811L131.9127232142857,63.84459795618919L132.04095982142857,63.39404327266182L132.16919642857144,58.960310105959245L132.29743303571428,57.370484264916435L132.68214285714285,51.21783508057509L133.4515625,44.42052772023884L133.7080357142857,47.74083606597181L133.83627232142857,58.49991563400542L133.96450892857143,61.73159073899888L134.09274553571427,65.87176494801922L134.22098214285714,51.257110306420465L134.73392857142858,58.71454098290577L134.99040178571428,55.67953559438213L135.11863839285715,54.75280702886109L135.50334821428572,55.70914247865981L135.63158482142856,47.57590968153181L135.75982142857143,62.45586644302742L135.8880580357143,61.12154614145121L136.01629464285713,64.63398335245449L136.27276785714284,62.453644347316306L136.4010044642857,57.6696175271567L136.52924107142857,47.34496515505978L136.65747767857144,55.61904081366387L136.91395089285714,66.29935505601307L137.29866071428572,62.24180034580738L137.55513392857145,62.45605714558537L137.6833705357143,57.63510869131946L137.93984375,69.48526695711062L138.06808035714286,63.19309856866617L138.45279017857143,59.434336801158736L138.8375,65.44736754606484L138.96573660714284,67.34995976972313L139.86339285714286,63.790937265313815L139.99162946428572,59.890121042143505L140.1198660714286,60.5332672840057L140.24810267857143,56.92833967572944L140.3763392857143,63.14754452997192L140.50457589285713,64.45408936235476L140.6328125,55.61075866525504L140.8892857142857,56.76007241834436L141.01752232142857,56.17112556089807L141.1457589285714,57.539251328829636L141.53046874999998,55.72371353815192L141.65870535714285,47.848037444368L141.78694196428572,53.5874296443552L141.91517857142858,52.376631493841536L142.1716517857143,50.87959728338051L142.94107142857143,51.0193364574682L143.0693080357143,54.43776280423416L143.45401785714284,63.54515406151248L144.35167410714286,63.75732083163592L144.73638392857143,59.56066456553804L145.24933035714287,59.625723837213826L145.63404017857144,52.48555598530231L145.76227678571428,51.54691543228342L145.89051339285714,50.57183470295478L146.14698660714285,54.57357928457898L146.27522321428572,55.268773026163544L146.40345982142856,52.18323688276169L146.78816964285713,52.409524302931146L146.91640625,55.24698434775926L147.17287946428573,58.02662280916074L147.42935267857143,58.929630037612945L147.5575892857143,54.40285591868595L147.8140625,54.94029454251641L148.0705357142857,54.730145312358175L148.19877232142858,54.13156763503734L148.45524553571428,62.00251156608287L148.71171875,57.135059138793366L148.83995535714286,64.73212680947606L148.9681919642857,54.69270403133618L149.09642857142856,58.57749375669231L149.48113839285713,49.86073886641396L149.609375,47.397801950689L149.73761160714287,40.895231768557935L150.1223214285714,38.74454837697762L150.25055803571428,47.151580088667785L151.27645089285713,58.48011674850379L151.66116071428573,66.94746691025198L151.7893973214286,60.91224742966419L152.04587053571427,56.67849956910786L152.30234375,57.50087183736502L152.43058035714287,40.55096408142292L152.81529017857142,48.284308225089475L152.94352678571428,46.018253362741106L153.20000000000002,43.67591959858668L153.32823660714286,47.96827151505833L153.45647321428572,58.36291622183547L153.58470982142856,56.926186346917774L153.96941964285713,58.98984081886468L154.9953125,65.47749923900886L155.12354910714288,66.66280742703475L155.25178571428572,55.094140015584586L155.50825892857142,54.57296379497651L155.76473214285716,45.44036107117535L155.89296875,54.57499424820214L156.02120535714286,48.6469637002697L156.27767857142857,54.405324550775156L156.53415178571427,56.08422816716696L156.66238839285714,59.62032297207754L156.790625,54.6518894701737L157.17533482142855,51.01193041390635L157.30357142857142,47.26260607619652L157.43180803571428,51.35062403648375L158.07299107142856,52.47968245341256L158.3294642857143,45.693207855554896L158.45770089285713,55.69034892879644L158.8424107142857,53.8348903276899L159.0988839285714,53.31215286914624L159.86830357142856,55.65353652176196L159.99654017857142,40.690876561119076L160.25301339285716,53.50225998302061L160.50948660714286,61.77717022227181L161.0224330357143,49.34231801658875L161.27890625,51.310762431892115L161.5353794642857,54.110263987079996L161.79185267857142,48.185188156276666L162.04832589285715,53.73582447330889L162.30479910714288,57.31285103187635L162.4330357142857,58.58261386079686L162.56127232142856,47.762491102310456L162.68950892857143,48.15351760473624L162.8177455357143,50.528998186555306L163.58716517857144,53.616928002227674L163.71540178571428,52.661844575994806L164.48482142857142,47.528987168335775L164.74129464285716,54.28079664834784L164.99776785714283,39.975984902413906L165.1260044642857,34.68947559439306L165.25424107142857,50.60564268367159L166.40837053571428,46.135733808726854L166.66484375000002,48.39909156439213L167.04955357142856,40.61557235149585L167.43426339285716,40.95956912946911L167.56250000000003,44.940656943990064L167.8189732142857,44.828111993824166L167.94720982142857,36.19111439806735L168.07544642857144,29.53471962667095L168.2036830357143,40.98361303656635L168.46015624999998,44.56522879840839L168.58839285714285,37.73098221923059L168.84486607142858,42.148633957627595L168.97310267857142,36.83338403011292L169.1013392857143,39.5000011329303L169.48604910714283,35.63753747691489L169.6142857142857,37.67943152498606L169.87075892857143,38.026067352867244L170.89665178571428,51.500127681195266L171.02488839285715,49.76875917660703L171.153125,47.88617959348863L171.28136160714286,50.81920614218281L171.66607142857143,39.4818119355726L171.7943080357143,40.54652400169439L171.92254464285716,51.24955048359252L172.3072544642857,41.02273743361628L172.43549107142857,34.94081941986781L172.56372767857144,46.66251980556024L172.94843749999998,43.896329444559086L174.4872767857143,42.92303261687443L174.87198660714284,44.07593595243012L175.12845982142858,40.79014258858546L175.25669642857144,47.00583284295559L175.51316964285712,44.41810154527905L175.64140625,45.389843582619285L176.0261160714286,45.460296929506946L176.41082589285713,45.27532313732783L176.5390625,38.992348775538225L176.66729910714287,34.98059415489624L176.7955357142857,39.94277267993068L176.92377232142857,39.46019497533371L177.05200892857144,47.31847869948996L177.1802455357143,46.92821144266948L177.30848214285712,44.3314145224151L177.56495535714285,35.05397302562979L177.82142857142858,37.49545070873536L177.94966517857145,34.65927950304696L178.20613839285713,46.40152388210725L178.46261160714286,45.4077793699701L178.71908482142857,43.2159048632869L178.84732142857143,39.88968068136231L178.9755580357143,36.053478220359615L179.10379464285714,34.67902114805489L179.23203125,39.12496921677766L179.36026785714284,39.8955446263331L180.5143973214286,33.915839407729706L180.64263392857143,33.79791397225576L180.89910714285713,38.60728407952985L181.02734375,34.526723141715784L181.54029017857144,38.92848394183913L181.66852678571428,40.822716714919416L181.79676339285714,41.18670579588185L182.05323660714285,39.35265552004714L182.43794642857145,36.31703465489561L182.82265625,34.83098640854734L183.07912946428573,31.816779206625558L183.33560267857143,31.9421450081062L183.46383928571427,43.64905675912677L183.7203125,36.72098441886999L183.84854910714287,50.53108234936697L184.23325892857144,41.705655611731075L184.36149553571428,39.189528949595726L184.48973214285712,36.67743191067917L184.74620535714286,32.04356564571263L184.87444196428572,40.69149187132369L185.0026785714286,41.11346308544069L185.25915178571427,41.3264376136029L185.38738839285713,40.56030284056632L185.515625,35.16986289893865L185.64386160714287,41.08810935688873L185.77209821428573,36.10569981682631L185.90033482142857,34.63766281940768L186.54151785714285,17.99269284780071L186.66975446428572,16.623668464182977L186.92622767857142,25.856481985773904L187.43917410714286,27.562398114334698L187.56741071428573,32.60053654363088L187.8238839285714,24.483079060249285L188.33683035714287,21.83242837815678L188.59330357142858,20.60570332957209L188.84977678571428,20.736260003396044L189.10625,33.148433336162846L189.23448660714286,28.917456725518317L189.36272321428572,38.62592921672626L189.4909598214286,28.73235901788507L189.74743303571427,20.60458792894771L190.13214285714287,31.22288755703246L190.26037946428573,29.48564451917665L190.5168526785714,43.17202524487814L190.64508928571428,45.67741009908471L190.77332589285714,32.69351623110047L191.02979910714288,35.40643619458351L191.5427455357143,39.52002960098992L191.79921875,38.67551151857548L191.92745535714286,45.11228625191864L192.18392857142857,43.16575214806751L192.3121651785714,28.386655972584514L192.696875,32.388904054366506L192.82511160714287,26.47848978557214L193.46629464285715,26.915898180894818L193.59453125000002,29.797689660677825L193.72276785714286,19.86135651679056L193.85100446428572,36.88785607362977L194.10747767857143,38.19545614154865L194.36395089285713,40.32960249305346L194.4921875,37.79324671358673L194.62042410714287,40.48464726920335L194.74866071428573,37.84901126426015L194.87689732142857,42.352199034791795L195.0051339285714,31.92508443317601L195.38984375,44.13963397172015L195.77455357142856,37.15453427284955L196.0310267857143,44.16619045929268L196.41573660714286,34.14543571112249L196.5439732142857,26.596964842764226L196.67220982142857,22.362805135751678L196.80044642857143,29.68537875781444L197.31339285714287,26.813408733335734L197.82633928571428,29.20024857392948L198.08281250000002,38.405869969552995L198.21104910714288,29.441373720294756L198.7239955357143,35.409335557719615L198.85223214285716,41.90466135801292L199.2369419642857,35.85206136464999L199.62165178571428,37.08120165314997L199.878125,34.82381735701168L200.1345982142857,29.287796625707887L200.26283482142856,32.70019591037065L200.39107142857142,31.8490514967933L200.77578125000002,33.58913089854548L201.0322544642857,42.76307241471886L201.16049107142857,45.677241565896736L201.4169642857143,47.88926818313406L201.54520089285714,47.99254716288523L201.6734375,37.03287647277997L201.9299107142857,40.28313451521282L202.05814732142858,47.13145564504077L202.44285714285715,45.47823662601934L203.08404017857143,28.979635128406073L204.62287946428572,26.884192268543796L204.75111607142856,38.611934498934275L204.87935267857142,28.288446475352163L205.0075892857143,27.932205141540162L205.5205357142857,33.76804732691442L205.9052455357143,42.47681491207414L206.03348214285717,45.19310831299531L206.28995535714284,39.24740713492008L206.4181919642857,43.362489644158174L206.54642857142858,44.661651841727014L206.67466517857144,43.85109190459674L207.18761160714286,40.56574705935584L207.31584821428572,36.443187284497974L207.44408482142856,28.330600187612085L207.7005580357143,25.720280302057947L207.82879464285716,29.162072473414764L207.95703124999997,36.1024442955817L208.2135044642857,28.262803775459744L208.46997767857144,31.266818641289994L209.23939732142858,30.776357288665224L209.4958705357143,25.46155024590797L210.13705357142857,31.951105762121838L210.26529017857143,36.48542026151927L211.41941964285712,20.081397385370835L211.54765625,35.63358301669989L212.06060267857143,32.072606099458035L212.57354910714284,34.73637137076257L212.95825892857144,39.45704173326169L213.34296874999998,38.79830088552868L213.47120535714285,21.07804381773171L213.59944196428572,29.665722716326375L213.9841517857143,31.992625392866728L214.11238839285713,36.13596172910945L214.49709821428573,39.88582405730679L214.75357142857143,39.2376562855334L214.8818080357143,44.17336493878174L215.01004464285714,46.142630067207214L215.90770089285712,36.94214507101095L216.0359375,27.567361651042553L216.16417410714286,28.206169753640115L216.29241071428572,37.03518761221261L216.54888392857143,42.024990970037514L216.67712053571427,46.27884222653498L216.80535714285713,34.03301009243766L216.93359375,34.996490449712155L217.06183035714287,32.18251188457338L217.1900669642857,32.480346117654335L217.31830357142857,28.946270121294983L217.44654017857144,27.896956772577916L217.57477678571428,32.241835586045255L217.95948660714285,32.98439877829105L218.21595982142858,38.804850657543284L218.85714285714286,43.488168279798664L218.98537946428573,39.446551985288316L219.1136160714286,45.070775018640695L219.37008928571427,42.09934437754559L220.26774553571428,27.64152202710577L220.52421875,33.94188392995222L221.16540178571427,37.87927502068166L221.29363839285713,38.966334602346656L221.80658482142857,33.853556407159935L222.06305803571428,27.91444003419982L222.19129464285714,42.26345184118922L222.44776785714285,43.995585248437244L222.57600446428572,39.16894433096589L222.83247767857142,35.47518374898894L222.9607142857143,40.88350009502136L223.7301339285714,34.70924105761378L223.85837053571427,44.540169332913756L223.98660714285714,37.23420027716336L224.62779017857142,35.09215549767197L224.75602678571428,44.82247906731748L225.91015625,36.65148175473094L226.03839285714287,49.75935224629185L226.4231026785714,57.263099129006335L226.55133928571428,46.78908799772383L226.67957589285714,51.45342701714955L226.93604910714288,46.62200210027619L227.19252232142856,42.255354580478226L227.4489955357143,45.40222380269274L227.83370535714286,35.763519269784204L227.96194196428573,56.22379401708012L228.2184151785714,45.674931458325L228.34665178571427,45.45353883926595L228.603125,41.41456122376315L228.85959821428574,43.87288265288396L228.98783482142855,49.7561447469944L229.24430803571428,43.91709773921604L229.37254464285715,47.69280845173837L229.88549107142856,47.733119968832625L230.01372767857143,53.11397881395058L230.27020089285713,49.95661918205649L230.3984375,49.386561653464646L230.52667410714287,53.580850977111105L230.65491071428573,46.827548824792046L231.03962053571428,42.16975980353283L231.16785714285714,44.77131362583776L231.29609375,33.63349810827008L231.80904017857142,31.639106891085092L232.06551339285716,23.788579115495416L232.19375,31.761186574052363L232.32198660714286,39.5662500080676L232.57845982142857,42.02053258705023L232.83493303571427,41.28411385671106L233.09140625,39.50707144935565L233.3478794642857,37.93946573009642L233.47611607142855,39.44033084984795L233.60435267857142,49.655402316859266L233.86082589285715,45.02443986235867L233.98906250000002,40.23060524384998L234.11729910714288,41.01450426898127L234.2455357142857,44.94623539712909L234.37377232142856,44.689983446904996L234.50200892857143,41.54841512870866L234.75848214285713,47.431797155791536L234.88671875,42.56848469136782L235.27142857142857,42.19527723966292L235.3996651785714,38.971449133761695L235.65613839285714,46.45106039235699L235.784375,42.232412029810234L236.16908482142856,46.57775499470404L236.29732142857142,42.44002733717324L236.4255580357143,35.17443257990686L236.55379464285716,41.693480577607204L236.9385044642857,37.57490921777073L237.45145089285714,34.736465693391565L237.70792410714287,35.98817475811352L237.8361607142857,39.930343496929765L237.96439732142858,39.095851819593406L238.34910714285715,36.22661803004482L238.47734375000002,34.08535178069215L238.7338169642857,26.74510544003487L239.24676339285716,35.662081169623015L239.375,32.74512268295621L239.50323660714284,26.5953096937581L239.6314732142857,42.537655475913446L239.88794642857144,39.76321693573211L240.40089285714285,49.793569557519845L240.52912946428572,49.35971517858494L240.78560267857142,51.136939260349195L240.9138392857143,43.2222017970824L241.04207589285716,38.48171121731569L241.17031250000002,39.30261526892606L241.4267857142857,35.030041991321085L241.8114955357143,42.756175013799925L241.93973214285717,49.35827243334756L242.06796875,42.058126994319686L242.19620535714284,36.00761308342324L242.3244419642857,37.04794841129568L242.70915178571428,37.35320007000833L242.83738839285715,44.376440775178075L243.47857142857143,38.91094260184438L243.73504464285716,47.0782857959042L243.86328124999997,42.167230102279596L243.99151785714284,46.09276990739951L244.5044642857143,44.24460797879782L244.88917410714285,39.12464511846485L245.14564732142858,37.605765288570645L245.53035714285716,45.33081721945398L245.65859375,41.300490230729636L245.78683035714286,36.44915992917171L245.9150669642857,41.81749553025695L246.04330357142857,41.26781594983986L246.2997767857143,34.98254068403027L246.42801339285717,35.78525940281225L246.55624999999998,35.966295423932706L246.94095982142858,37.86852765343564L247.06919642857144,42.78445488645742L247.32566964285715,36.281057066020324L247.45390625,45.78101011523195L247.58214285714286,42.975923832247645L247.96685267857143,40.482320081631485L248.22332589285716,46.325034496817295L248.3515625,36.12807358270576L248.47979910714284,40.945078079771065L248.6080357142857,36.679905605468555L249.50569196428572,39.57127490859739L249.63392857142858,36.48303459143622L250.01863839285713,39.24521145028692L250.65982142857143,50.07750342187362L251.17276785714284,54.16008266882807L251.42924107142858,54.058707705826585L251.9421875,49.74146499872131L252.07042410714286,41.4219940434598L252.3268973214286,48.51758176683987L252.83984375,37.84579885821841L252.96808035714287,32.06731425004597L253.0963169642857,42.38516725650483L253.35279017857144,35.806717278482225L253.4810267857143,41.30007099302833L253.60926339285714,42.603283228094256L254.12220982142858,39.01240164321173L254.37868303571426,36.138726726706025L254.63515625,43.09389377199492L254.89162946428573,42.8885048422985L255.01986607142857,50.845336023289626L255.27633928571427,43.05357559750368L255.7892857142857,38.75794309973193L256.04575892857144,38.47066035352906L256.17399553571425,24.029764716568277L256.55870535714286,21.0546720083702L256.94341517857146,29.640307829608957L257.45636160714287,42.1974334054633L257.7128348214286,40.03589925460985L257.84107142857147,37.806214329283335L258.22578125,43.277164325202946L258.7387276785714,40.61770087783661L258.8669642857143,35.16788034162459L258.99520089285716,37.45684744889004L259.1234375,41.70258861764945L259.50814732142857,33.335066060745156L259.63638392857143,43.71498009547842L259.7646205357143,40.694334701761946L260.02109375,28.497148153820827L260.14933035714284,25.259096281771907L260.2775669642857,29.37708986087879L260.5340401785714,32.42397894845335L260.66227678571425,33.43856752607321L261.04698660714286,31.861708830416305L261.1752232142857,10.174226390309574L261.4316964285714,15.034725935222403L261.68816964285713,25.967967818448276L261.81640625,37.07639378921346L261.94464285714287,36.100423593709124L262.8422991071429,39.462097946133085L262.97053571428575,39.07223070324549L263.0987723214286,32.66025613481915L263.2270089285714,34.30628041100343L263.99642857142857,36.81364794865659L264.12466517857143,38.212820973689894L264.2529017857143,26.469722683936002L264.38113839285717,21.714258184993522L264.509375,23.278459837002714L264.7658482142857,31.5838016184257L265.15055803571425,29.7620299451953L265.53526785714286,27.458067060040865L266.04821428571427,21.418354370358188L266.17645089285713,28.35908252624886L266.3046875,25.074592523467935L266.43292410714287,19.986807152170456L266.8176339285714,36.4253848671455L266.9458705357143,36.604364514506806L267.45881696428575,33.378545774039885L267.8435267857143,35.3908176499708L267.97176339285716,38.98469520447504L268.35647321428576,37.181446348195834L268.48470982142857,24.647268723036337L268.61294642857143,37.122990145940555L268.7411830357143,19.89307479998546L268.86941964285717,18.008594149916902L269.2541294642857,21.65325894215492L269.3823660714286,27.18670364222355L269.51060267857144,29.20404670972941L269.63883928571425,38.316565246953935L270.1517857142857,44.887404428558476L270.28002232142853,31.306857717325126L270.4082589285714,34.20952738063923L270.79296875,36.56196685093463L271.0494419642857,30.57461502595665L271.17767857142854,33.30556760190587L271.3059151785714,26.76621532874042L271.56238839285714,31.498356645693022L271.690625,20.60291612928031L271.8188616071429,20.29909286416674L272.07533482142856,24.974814464368446L272.2035714285714,31.232208648385175L272.8447544642857,35.808515815909104L273.10122767857143,32.69928519802278L273.2294642857143,22.604708764828555L273.48593750000003,18.57614747287698L273.8706473214286,25.306919480665044L274.1271205357143,28.216904913872266L274.2553571428571,29.480606698135553L274.38359375,36.88923171579014L274.6400669642857,30.172039947348946L274.8965401785714,20.589112405533765L275.02477678571427,24.75241135905418L275.15301339285713,28.912804988509432L275.66595982142854,41.19521987242507L275.7941964285714,36.12170897329731L276.05066964285714,29.171013806078747L276.3071428571428,24.49874634282318L276.94832589285716,29.756498019316957L277.46127232142857,33.295090851666785L277.58950892857143,32.35929463034726L277.7177455357143,39.796378609967284L277.84598214285717,34.492797270491344L279.38482142857146,26.772987486581165L279.64129464285713,32.64365799159189L279.89776785714287,26.949032894508186L280.15424107142854,25.693769829666127L280.2824776785714,25.018766745399585L280.4107142857143,19.90561341497185L280.53895089285714,15.925212554880053L280.6671875,14.14239847502914L280.7954241071428,15.63315443348126L280.9236607142857,13.484555511275646L281.05189732142856,8.221454354973773L281.1801339285714,8.493418959795417L281.3083705357143,18.826488434546107L281.43660714285716,14.758896131265535L281.69308035714283,10.296925449661494L281.8213169642857,23.656505336935577L281.94955357142857,28.046443027600795L282.2060267857143,35.3108593973053L282.4625,34.41434497000126L282.8472098214286,37.38881169039357L283.2319196428572,36.06275437686008L283.48839285714286,29.73262156861155L283.6166294642857,38.822103182913104L283.87310267857146,39.571466666264556L284.2578125,30.197894448658193L284.51428571428573,33.80328808427154L284.6425223214286,23.849079537668562L284.8989955357143,34.86724816228899L285.15546875,40.174613376790475L285.2837053571428,33.19791677109754L285.4119419642857,31.146558325410176L285.6684151785714,27.323531343935258L285.7966517857143,31.46464639659929L286.05312499999997,39.08166916683578L286.18136160714283,40.0809318660307L286.43783482142857,30.894676403366176L286.56607142857143,18.369867118969083L287.5919642857143,29.844962510057076L287.7202008928571,29.754978193853514L287.97667410714286,33.21571603289864" style="fill: none;" fill="none"></path></g></g></g></g><g opacity="0.2"><g><g><g><path stroke="rgb(255, 112, 67)" stroke-width="2px" d="M24.193973214285716,150.6460137088568L24.32220982142857,150.6620901721673L24.83515625,150.74557112458234L24.96339285714286,150.6871906331239L25.21986607142857,150.72755572328774L25.34810267857143,150.7545694015347L25.476339285714285,150.70826524761148L25.861049107142854,150.84614642050406L25.989285714285714,151.0443735500941L26.11752232142857,150.94609938275357L26.63046875,151.2444539723488L27.784598214285715,149.42383814201906L27.91283482142857,151.63957677437708L28.169308035714284,156.7100863456726L28.682254464285716,159.32399641550504L28.93872767857143,161.4520941239137L29.195200892857144,161.92067889983838L29.3234375,163.93544212671426L29.579910714285713,161.6703725044544L29.83638392857143,162.0653166770935L29.964620535714285,163.57757370288556L30.349330357142854,164.39063184077924L30.477566964285714,164.41018456679123L30.60580357142857,163.66565645658054L30.73404017857143,164.51267192913934L30.862276785714286,165.67443911845868L31.246986607142855,166.2572699876932L31.375223214285715,162.82430734084204L31.63169642857143,163.24442244493045L31.888169642857143,161.6191165814033L32.01640625,161.98347075168903L32.144642857142856,162.715754536482L32.272879464285715,162.9772369494805L32.65758928571429,165.23114606050345L32.78582589285714,161.0105402286236L32.9140625,167.45620514796332L33.04229910714286,164.77562418350806L33.29877232142857,163.99879873715915L33.683482142857144,161.00943519518927L34.32466517857143,161.41044480984027L34.45290178571429,162.4102078951322L34.58113839285714,163.94059106019827L34.709375,166.22581652494577L34.837611607142854,162.00839358109695L34.965848214285714,163.6489046720358L35.60703125,168.86910220292899L36.632924107142856,166.50701407285837L37.01763392857143,160.94111899229196L37.14587053571429,157.20677928741162L38.043526785714285,157.21877428660025L38.42823660714286,154.7920727133751L38.68470982142857,156.2008454799652L38.81294642857143,147.45275138203914L38.94118303571429,153.58718453233058L39.454129464285714,154.38802262452933L39.582366071428574,152.45811662077904L39.710602678571426,149.7628555544294L40.095312500000006,145.29223330662802L40.22354910714286,156.5322367640642L41.121205357142856,152.23198650433466L41.377678571428575,134.7702873486739L41.63415178571429,150.96478046161624L41.76238839285714,146.62556224144421L41.89062500000001,138.75777601278745L42.01886160714286,140.48316575013675L42.53180803571429,133.4078872203827L42.78828125,135.8766069962428L43.17299107142858,132.8628413127019L43.30122767857143,148.3129497239223L43.42946428571428,125.68514805573682L43.685937499999994,142.75000391556665L43.81417410714286,137.01944253077875L43.942410714285714,135.74764290222754L44.32712053571428,138.35599924050845L44.58359375,144.96995446773676L44.71183035714286,134.14540971242465L44.96830357142857,133.94049374873822L45.09654017857143,135.67570800047656L45.481249999999996,135.86067786583533L46.12243303571428,130.01129519022427L46.25066964285715,148.19265899979152L46.37890625,133.8429047694573L46.63537946428571,113.29016593786386L47.020089285714285,132.1903884777656L47.2765625,115.4903674859267L47.40479910714286,139.82218926686505L47.66127232142857,119.52895292868982L47.91774553571429,133.5671132344466L48.04598214285714,115.58614466740534L48.94363839285714,134.24754450871393L49.96953125,110.95189886826734L50.097767857142856,120.16702894064096L50.22600446428571,125.36808507259076L50.73895089285714,103.52653121948242L51.12366071428571,71.9040195758526L51.50837053571429,100.58217697877149L51.636607142857144,98.33532571792603L52.02131696428571,98.70114238445575L52.14955357142858,119.97118828846857L52.40602678571429,91.8960233101478L52.53426339285714,104.79622932580801L52.662499999999994,107.54049906363855L52.918973214285714,114.55225775792047L53.30368303571428,122.41863657877997L53.431919642857146,110.16604871016284L53.56015625,102.57269312785223L53.94486607142858,113.03509745231042L54.32957589285714,101.62993148656992L54.97075892857143,86.99267820211557L55.22723214285715,106.2472312633808L55.48370535714285,90.83461666107178L55.61194196428571,78.61010676163895L56.253125,96.30293255585889L56.63783482142857,114.47135690542368L56.76607142857143,105.07491320830127L56.89430803571428,116.19496422547559L57.02254464285714,97.40102239755484L57.279017857142854,100.27252277961145L57.791964285714286,87.85606024815485L58.0484375,88.6871172098013L58.30491071428572,67.73030339754544L58.56138392857142,92.43470507401685L59.202566964285715,108.31866458746103L59.45904017857143,88.55246962033786L59.97198660714286,102.51967437450702L60.613169642857144,89.9165542309101L60.86964285714286,111.08943227621225L60.99787946428571,84.20309066772461L61.639062499999994,88.677950492272L61.76729910714286,99.87343432353094L61.895535714285714,115.46993171251736L62.152008928571426,95.63474479088416L62.28024553571428,62.64758051358737L62.408482142857146,99.21945692942694L62.92142857142858,91.39931649428149L63.04966517857143,75.97867774963379L63.30613839285714,84.44554512317364L63.690848214285715,58.644943750821625L64.20379464285715,72.62511510115402L64.33203125,98.77301689294669L64.46026785714287,79.3573378783006L64.58850446428572,105.0942227290227L64.84497767857142,107.30871626046988L65.2296875,78.06453690162073L65.35792410714285,80.50941929450403L65.48616071428572,59.52299646230844L65.87087053571429,57.36490697127121L65.99910714285714,75.20269291217511L66.25558035714286,88.0668882223276L67.025,75.02373299231897L67.28147321428571,76.37682929405798L67.66618303571428,82.7934662745549L67.79441964285714,97.82561639639047L68.05089285714286,94.1449312063364L68.17912946428572,99.5936176593487L68.8203125,83.83662436558649L68.94854910714285,77.74817415384146L69.20502232142857,80.96069079179031L69.46149553571429,77.1783490547767L69.58973214285714,90.31689299069919L69.71796875,100.48030823927661L70.10267857142857,53.55483656663162L70.23091517857142,68.32881039839523L70.615625,75.6499490737915L70.74386160714286,57.30426560915433L71.00033482142858,53.67927279839148L71.12857142857143,67.23398832174448L71.38504464285714,89.6292651249812L71.89799107142858,80.09958083813007L72.02622767857143,67.294969191918L72.15446428571428,63.953968341533965L72.4109375,53.42032608619104L72.53917410714286,68.59187038128192L73.05212053571428,62.59374889960657L73.18035714285715,98.71655082702637L73.30859375,99.05904916616586L73.56506696428572,62.04565231616681L73.69330357142857,87.77306358630841L73.82154017857142,79.82911696800818L73.94977678571428,67.08747100830078L75.10390625,78.15323338141809L75.23214285714286,44.826117075406586L75.87332589285714,51.762945688687836L76.77098214285714,67.18727331895096L76.89921875,95.71741500267615L77.41216517857143,64.53648581871619L77.54040178571428,99.71479591956506L77.66863839285715,43.47105554433969L77.92511160714287,73.03862938514123L78.18158482142857,68.73683379246637L78.69453125,68.79778201763446L79.84866071428571,69.78528037438025L79.97689732142857,87.04822694338284L80.10513392857143,79.68103269430307L80.23337053571429,77.94747844109168L80.48984375,21.026021223801823L80.61808035714284,52.17541533250076L81.00279017857143,71.19227358011099L81.3875,52.64154030726507L82.28515625,43.91957833216741L82.41339285714285,48.1573635981633L82.54162946428572,72.19931976611798L82.66986607142857,40.37798045231745L82.92633928571428,58.785069172198945L83.05457589285714,81.82744180239163L83.43928571428572,56.11869694636419L83.56752232142858,73.63865111424371L83.69575892857142,73.22662544250488L83.95223214285714,64.35786540691669L84.20870535714285,72.37463650336633L84.33694196428571,64.6975628045889L84.84988839285715,99.58699072324313L85.74754464285715,75.00912108788123L86.13225446428572,52.2940472822923L86.26049107142858,54.24207922128531L86.51696428571428,78.14361616281363L86.7734375,54.2308558684129L87.15814732142856,63.26120215195877L88.56875,75.52820931948148L88.95345982142857,54.53088958446796L89.08169642857143,40.22192426828238L89.20993303571429,49.302746259249176L89.46640624999999,74.96293493417593L89.72287946428573,69.9536894284762L89.85111607142856,57.22691653325007L90.10758928571428,75.2362585067749L90.74877232142856,62.41480856675369L90.87700892857143,68.8837559039776L91.64642857142857,58.92573650066669L91.90290178571429,55.85743896777814L92.03113839285713,56.89055545513446L92.159375,51.222853660583496L92.28761160714286,59.96703382638785L92.4158482142857,78.72906516148493L92.54408482142857,43.172960941608125L92.67232142857144,47.570197472205535L92.80055803571429,85.81166678208572L92.92879464285714,79.0734699689425L93.05703125,44.12163132887619L93.31350446428571,74.00716752272385L93.69821428571429,79.5546508202186L93.82645089285714,57.164153245779175L93.9546875,40.86825620211087L94.21116071428571,55.81658700796274L94.72410714285714,56.37149986853967L94.98058035714287,75.97718260838434L95.23705357142858,56.67787977365347L95.75,55.585590949425324L95.87823660714287,52.73763414529654L96.0064732142857,44.761656247652496L96.26294642857144,72.01857742896448L96.51941964285714,59.974620525653535L96.77589285714286,73.48654497586764L97.03236607142857,73.75554634974554L97.16060267857144,68.96086340684158L97.54531250000001,33.37977922879733L97.80178571428571,54.49057300274188L97.93002232142857,38.082396727341866L98.05825892857143,52.148457087003266L98.18649553571429,69.71990548647366L98.31473214285714,51.5835026227511L98.44296875,25.282668773944554L98.69944196428571,65.61354901240423L98.82767857142858,21.661488899817837L99.46886160714286,58.481895006619965L99.59709821428571,59.41022755549505L99.85357142857144,64.24828918163593L99.98180803571428,56.573206828190735L100.11004464285715,43.89738625746506L100.49475446428572,47.814950136037965L100.75122767857142,37.04721054664026L101.00770089285714,36.35766968360315L101.26417410714285,42.998362394479614L101.52064732142857,58.72466285412128L101.77712053571429,56.127687380864074L101.90535714285714,60.053275401775664L102.03359375000001,60.04867898500882L102.41830357142858,66.99187337435208L102.93124999999999,50.312697850740875L103.05948660714286,49.04789323073166L103.31595982142858,66.80986441098727L103.70066964285715,55.751505925105164L104.21361607142858,65.06021617009088L104.85479910714285,62.31326954181378L105.75245535714285,67.74985775580774L105.88069196428572,55.47357287773718L106.13716517857142,74.3828331873967L106.26540178571429,35.289185597346375L106.39363839285716,50.07481369605432L106.521875,29.707268348106968L106.65011160714286,92.90777690594012L106.77834821428571,52.16449231367844L107.03482142857143,63.53791427612305L107.16305803571429,40.52349882859451L107.67600446428573,60.50352184589093L107.80424107142856,71.91677724398099L108.06071428571428,52.068215663616485L108.3171875,33.408506833589996L108.70189732142856,60.90000849503738L108.9583705357143,46.786945856534516L109.08660714285713,28.758800359872676L109.21484375,56.54821381202112L109.59955357142857,60.7277408012977L109.72779017857142,37.69821724524866L109.85602678571429,49.626832815317016L109.98426339285713,46.0852741094736L110.1125,51.32660601689265L110.36897321428572,53.62748476175162L110.49720982142857,66.17926736978384L110.62544642857144,53.69483140798715L110.88191964285714,48.50802318866437L111.01015625,55.94725843576285L111.13839285714286,38.637897198016816L111.2666294642857,33.711987862220184L111.39486607142857,61.78756743211014L111.52310267857143,51.36279626993033L111.77957589285714,54.110441501324004L111.9078125,63.24060315352219L112.29252232142856,54.545272973867554L112.80546875,56.524141385005066L113.19017857142858,64.21937223581168L113.31841517857143,28.199460836557247L113.4466517857143,68.01514412806586L113.703125,61.744580488938546L113.9595982142857,50.616936243497406L114.08783482142857,47.17150402069092L114.34430803571428,36.940565842848564L114.60078125,59.32658452254074L115.11372767857144,34.90197665874774L115.62667410714286,14.204416421743534L115.75491071428571,60.69252336942233L116.01138392857143,37.586675790640015L116.13962053571429,31.531445136437046L116.26785714285714,66.87100197718695L116.39609375,50.172402675335235L116.52433035714284,43.910143925593445L116.65256696428571,65.6527164899386L117.03727678571428,30.11506975614108L117.16551339285714,37.4803575369028L117.93493303571428,50.915109194242035L118.19140625,51.20461816054123L118.31964285714285,43.10780151073749L118.44787946428572,58.17749991783728L118.57611607142857,60.50006147531363L118.83258928571428,54.99533007695124L119.21729910714285,49.878904489370484L119.34553571428572,63.84931498307449L119.73024553571429,42.15913112346942L119.85848214285714,57.04964109567496L119.98671875000001,27.024567090548004L120.24319196428571,59.08722481360803L120.49966517857142,59.02494467221774L120.884375,61.02419009575476L121.01261160714286,59.227428582998414L121.26908482142858,50.192120258624726L121.65379464285715,51.518206082857574L121.78203124999999,70.12881029569186L121.91026785714286,54.68643650641809L122.16674107142858,63.345909412090606L122.29497767857143,27.04081124525803L122.42321428571428,50.83342486161453L122.67968749999999,40.71488996652457L122.80792410714285,39.79830961961014L122.93616071428572,67.00598254570593L123.57734375,50.73770317664514L124.09029017857142,40.68103056687576L124.21852678571429,72.50917309981125L124.475,59.43813250615046L124.73147321428571,64.29331317314734L124.98794642857142,67.18302293924185L125.11618303571429,54.34250831604004L125.24441964285715,59.85572741581843L125.37265624999999,45.38997466747577L125.50089285714286,72.93257229144757L125.62912946428573,34.60852417579065L125.88560267857143,58.81879799182599L126.14207589285715,78.73298909113959L126.39854910714286,67.69411967350885L126.78325892857143,72.66620210500864L127.03973214285713,61.00720816392166L127.16796875,73.05464502481314L127.29620535714285,41.69754380446213L127.80915178571429,59.26163401970496L128.065625,75.72875411693866L128.19386160714285,55.34899300795334L128.45033482142856,48.3324714073768L128.83504464285713,65.63982824178842L129.34799107142857,51.80172795515793L129.73270089285714,60.5534882912269L130.1174107142857,49.46676129561203L130.24564732142858,56.36414168431208L130.50212053571428,75.00297729785626L130.75859375,42.718992966872L131.0150669642857,56.757899211003235L131.65625,84.52754284785345L131.9127232142857,58.74851982410138L132.04095982142857,62.71821124737079L132.16919642857144,52.309710355905395L132.29743303571428,54.985745503352234L132.68214285714285,41.98886130406306L133.4515625,34.224566679734444L133.7080357142857,52.72129858457126L133.83627232142857,74.63853498605582L133.96450892857143,66.57910339648907L134.09274553571427,72.08202626154974L134.22098214285714,29.33512834402231L134.73392857142858,69.90068699763373L134.99040178571428,51.12702751159668L135.11863839285715,53.36271418057956L135.50334821428572,57.14364565335788L135.63158482142856,35.376060485839844L135.75982142857143,84.77580158527081L135.8880580357143,59.120065689086914L136.01629464285713,69.90263916895941L136.27276785714284,59.18313583960901L136.4010044642857,50.493577296917266L136.52924107142857,31.857986596914433L136.65747767857144,68.03015430157001L136.91395089285714,82.3198264195369L137.29866071428572,56.15546828049881L137.55513392857145,62.77744234525241L137.6833705357143,50.40368600992056L137.93984375,87.2605043557974L138.06808035714286,53.75484598599948L138.45279017857143,53.796194149897644L138.8375,74.46691366342398L138.96573660714284,70.20384810521051L139.86339285714286,58.45240350869986L139.99162946428572,54.03889670738806L140.1198660714286,61.49798664679895L140.24810267857143,51.52094826331506L140.3763392857143,72.47635181133563L140.50457589285713,66.41390661092905L140.6328125,42.34576261960544L140.8892857142857,58.48404304797833L141.01752232142857,55.28770527472864L141.1457589285714,59.59143998072698L141.53046874999998,53.000406852135285L141.65870535714285,36.03452330369217L141.78694196428572,62.19651794433594L141.91517857142858,50.560434268071106L142.1716517857143,48.634045967688934L142.94107142857143,51.22894521859976L143.0693080357143,59.565402324383086L143.45401785714284,77.20624094742996L144.35167410714286,64.0755709868211L144.73638392857143,53.265680166391235L145.24933035714287,59.72331274472751L145.63404017857144,41.77530420743503L145.76227678571428,50.138954602755035L145.89051339285714,49.109213608961845L146.14698660714285,60.57619615701529L146.27522321428572,56.311563638540406L146.40345982142856,47.554932667658875L146.78816964285713,52.74895543318527L146.91640625,59.503174415001496L147.17287946428573,62.19608050126297L147.42935267857143,60.28414088029129L147.5575892857143,47.61269474029541L147.8140625,55.746452478262086L148.0705357142857,54.41492146712082L148.19877232142858,53.23370111905612L148.45524553571428,73.80892746265118L148.71171875,49.83388049785907L148.83995535714286,76.12772831550012L148.9681919642857,39.63356986412634L149.09642857142856,64.40467834472656L149.48113839285713,36.78560653099646L149.609375,43.70339657710149L149.73761160714287,31.141376495361328L150.1223214285714,35.51852328960712L150.25055803571428,59.762127656203056L151.27645089285713,75.47292173825778L151.66116071428573,79.6484921528743L151.7893973214286,51.8594182087825L152.04587053571427,50.32787777827337L152.30234375,58.73443023975079L152.43058035714287,15.126102447509766L152.81529017857142,59.884324440589324L152.94352678571428,42.61917106921857L153.20000000000002,40.16241895235501L153.32823660714286,54.40679938976581L153.45647321428572,73.95488328200119L153.58470982142856,54.7710915345412L153.96941964285713,62.085322526785035L154.9953125,75.20898686922513L155.12354910714288,68.44076970907358L155.25178571428572,37.74113889840933L155.50825892857142,53.791199464064384L155.76473214285716,31.741456985473633L155.89296875,68.27694401374231L156.02120535714286,39.754917878371025L156.27767857142857,63.04286582653339L156.53415178571427,58.60258359175461L156.66238839285714,64.92446517944336L156.790625,47.19923921731802L157.17533482142855,45.55199182950534L157.30357142857142,41.638619569631715L157.43180803571428,57.48265097691462L158.07299107142856,54.173270078805785L158.3294642857143,35.5134959587684L158.45770089285713,70.68606053865872L158.8424107142857,51.05170242603009L159.0988839285714,52.52804668133075L159.86830357142856,59.16561200068548L159.99654017857142,18.24688662015475L160.25301339285716,72.7193351158729L160.50948660714286,74.18953558114859L161.0224330357143,30.69003970806415L161.27890625,54.26342905484714L161.5353794642857,58.309516319861785L161.79185267857142,39.297574410071746L162.04832589285715,62.06177894885724L162.30479910714288,62.67839086972751L162.4330357142857,60.48725810417761L162.56127232142856,31.532306964580837L162.68950892857143,48.74005735837497L162.8177455357143,54.092219059283906L163.58716517857144,58.248822725736176L163.71540178571428,51.22921943664551L164.48482142857142,39.8297010568472L164.74129464285716,64.40851086836594L164.99776785714283,18.518767283513L165.1260044642857,26.759711632361782L165.25424107142857,74.47989331758939L166.40837053571428,39.43087049630972L166.66484375000002,51.79412819789007L167.04955357142856,28.940293532151433L167.43426339285716,41.475564296428985L167.56250000000003,50.912288665771484L167.8189732142857,44.65929456857535L167.94720982142857,23.235618004432094L168.07544642857144,19.550127469576324L168.2036830357143,58.15695315140945L168.46015624999998,49.93765244117151L168.58839285714285,27.479612350463867L168.84486607142858,48.77511156522311L168.97310267857142,28.860509138840886L169.1013392857143,43.49992678715632L169.48604910714283,29.843841992891754L169.6142857142857,40.74227259709284L169.87075892857143,38.546021094688996L170.89665178571428,71.71121817368729L171.02488839285715,47.17170641972468L171.153125,45.062310218811035L171.28136160714286,55.21874596522405L171.66607142857143,22.475720625657292L171.7943080357143,42.14359210087702L171.92254464285716,67.30409020643967L172.3072544642857,25.682517858651973L172.43549107142857,25.81794239924505L172.56372767857144,64.24507038409894L172.94843749999998,39.7470439030574L174.4872767857143,41.46308737534744L174.87198660714284,45.8052909557636L175.12845982142858,35.86145254281851L175.25669642857144,56.32936822451077L175.51316964285712,40.53650459876428L175.64140625,46.84745663862961L176.0261160714286,45.5659769498385L176.41082589285713,44.99786244905911L176.5390625,29.56788723285382L176.66729910714287,28.96296222393329L176.7955357142857,47.38604046748235L176.92377232142857,38.73632841843826L177.05200892857144,59.105904285724336L177.1802455357143,46.34281055743878L177.30848214285712,40.43621914203351L177.56495535714285,21.137810780451844L177.82142857142858,41.15766723339374L177.94966517857145,30.405022694514344L178.20613839285713,64.01489045069769L178.46261160714286,43.917162601764375L178.71908482142857,39.928093103262086L178.84732142857143,34.90034440847543L178.9755580357143,30.299174528855534L179.10379464285714,32.617335539597725L179.23203125,45.793891319861785L179.36026785714284,41.05140774066632L180.5143973214286,24.94628157982459L180.64263392857143,33.62102581904485L180.89910714285713,45.82133924044095L181.02734375,28.405881734994747L181.54029017857144,45.53112514202411L181.66852678571428,43.66406587453989L181.79676339285714,41.73268941732553L182.05323660714285,36.601580106295074L182.43794642857145,31.76360335716834L182.82265625,32.60191403902493L183.07912946428573,27.29546840374286L183.33560267857143,32.13019371032715L183.46383928571427,61.209424385657684L183.7203125,26.32887590848483L183.84854910714287,71.24622924511249L184.23325892857144,28.46751550527719L184.36149553571428,35.41533895639273L184.48973214285712,32.90928635230432L184.74620535714286,25.092766248262848L184.87444196428572,53.663381209740265L185.0026785714286,41.74641990661621L185.25915178571427,41.64589940584622L185.38738839285713,39.411100681011504L185.515625,27.084202986497136L185.64386160714287,49.96547904381384L185.77209821428573,28.63208550673264L185.90033482142857,32.435607323279754L186.54151785714285,-6.9747621096097445L186.66975446428572,14.57013188875638L186.92622767857142,39.70570226816031L187.43917410714286,30.121272307175847L187.56741071428573,40.157744187575126L187.8238839285714,12.30689283517691L188.33683035714287,17.856452355018032L188.59330357142858,18.765615756695095L188.84977678571428,20.93209501413199L189.10625,51.76669333531306L189.23448660714286,22.57099180955154L189.36272321428572,53.188637953538155L189.4909598214286,13.892003719623265L189.74743303571427,8.412931295541622L190.13214285714287,47.1503369991596L190.26037946428573,26.87977996239295L190.5168526785714,63.70159633343036L190.64508928571428,49.43548738039456L190.77332589285714,13.217675429124089L191.02979910714288,39.475816139808074L191.5427455357143,45.69041971059946L191.79921875,37.4087343949538L191.92745535714286,54.76744835193341L192.18392857142857,40.2459509922908L192.3121651785714,6.218011709359982L192.696875,38.39227617703952L192.82511160714287,17.612868382380555L193.46629464285715,27.57201077387884L193.59453125000002,34.120376880352325L193.72276785714286,4.956856800959658L193.85100446428572,62.4276054088886L194.10747767857143,40.15685624342697L194.36395089285713,43.530822020310616L194.4921875,33.98871304438665L194.62042410714287,44.521748102628266L194.74866071428573,33.895557256845336L194.87689732142857,49.106980690589324L195.0051339285714,16.284412530752324L195.38984375,62.461458279536316L195.77455357142856,26.67688472454364L196.0310267857143,54.683674738957336L196.41573660714286,19.114303588867188L196.5439732142857,15.274258540226866L196.67220982142857,16.011565575232876L196.80044642857143,40.66923919090857L197.31339285714287,22.50545369661771L197.82633928571428,32.7805083348201L198.08281250000002,52.21430206298828L198.21104910714288,15.994629346407379L198.7239955357143,44.361278313856864L198.85223214285716,51.64765005845291L199.2369419642857,26.77316137460562L199.62165178571428,38.92491208589993L199.878125,31.437740912804234L200.1345982142857,20.983765528752258L200.26283482142856,37.81879483736478L200.39107142857142,30.57233487642728L200.77578125000002,36.19925000117376L201.0322544642857,56.523984688978935L201.16049107142857,50.048495292663574L201.4169642857143,51.20730810899002L201.54520089285714,48.147465632512024L201.6734375,20.59337043762207L201.9299107142857,45.15852157886212L202.05814732142858,57.403937339782715L202.44285714285715,42.998408097487236L203.08404017857143,4.231732881986177L204.62287946428572,23.74102797875037L204.75111607142856,56.20354784451999L204.87935267857142,12.803214439978971L205.0075892857143,27.3978431408222L205.5205357142857,42.52181060497577L205.9052455357143,55.53996628981369L206.03348214285717,49.267548414377075L206.28995535714284,30.328855367807247L206.4181919642857,49.53511340801532L206.54642857142858,46.61039513808029L206.67466517857144,42.63525199890137L207.18761160714286,35.63772979149451L207.31584821428572,30.259347622211155L207.44408482142856,16.16171954228327L207.7005580357143,21.804800473726715L207.82879464285716,34.32476073044998L207.95703124999997,46.51300202883206L208.2135044642857,16.50334299527682L208.46997767857144,35.77284094003531L209.23939732142858,30.040665259728062L209.4958705357143,17.48933968177209L210.13705357142857,41.68543903644269L210.26529017857143,43.28689201061542L211.41941964285712,-4.5246369288518L211.54765625,58.96186146369348L212.06060267857143,26.73114072359525L212.57354910714284,38.73201927771936L212.95825892857144,46.538047277010406L213.34296874999998,37.81018961392917L213.47120535714285,-5.502341783963735L213.59944196428572,42.54724106421838L213.9841517857143,35.48297940767728L214.11238839285713,42.350966233473564L214.49709821428573,45.51061754960281L214.75357142857143,38.26540462787335L214.8818080357143,51.57692791865423L215.01004464285714,49.09652775984543L215.90770089285712,23.141417576716492L216.0359375,13.505186521089996L216.16417410714286,29.164381907536438L216.29241071428572,50.27871440007136L216.54888392857143,49.5096960067749L216.67712053571427,52.65961911128118L216.80535714285713,15.664261891291689L216.93359375,36.44171098562387L217.06183035714287,27.961544036865234L217.1900669642857,32.92709746727576L217.31830357142857,23.645156126755925L217.44654017857144,26.322986749502324L217.57477678571428,38.759153806246246L217.95948660714285,34.09824356665979L218.21595982142858,47.53552847642166L218.85714285714286,50.51314471318171L218.98537946428573,33.384127543522766L219.1136160714286,53.50710956866925L219.37008928571427,37.64219841590295L220.26774553571428,5.954788501446071L220.52421875,43.39242678422195L221.16540178571427,43.78536165677585L221.29363839285713,40.59692397484412L221.80658482142857,26.184389114379883L222.06305803571428,19.005765474759613L222.19129464285714,63.78696955167331L222.44776785714285,46.593785359309265L222.57600446428572,31.928982954758855L222.83247767857142,29.934542876023503L222.9607142857143,48.99597461407001L223.7301339285714,25.447852501502407L223.85837053571427,59.2865617458637L223.98660714285714,26.27524669353778L224.62779017857142,31.879088328434875L224.75602678571428,59.4179644217858L225.91015625,24.39498578585111L226.03839285714287,69.42115798363318L226.4231026785714,68.51871945307806L226.55133928571428,31.078071300800023L226.67957589285714,58.44993554628812L226.93604910714288,39.37486472496619L227.19252232142856,35.70538330078125L227.4489955357143,50.122527636014496L227.83370535714286,21.30546247042142L227.96194196428573,86.91420613802396L228.2184151785714,29.851637620192317L228.34665178571427,45.1214499106774L228.603125,35.35609480050894L228.85959821428574,47.560364796565125L228.98783482142855,58.581037888160125L229.24430803571428,35.15852722754846L229.37254464285715,53.3563745205219L229.88549107142856,47.79358724447397L230.01372767857143,61.18526708162747L230.27020089285713,45.22057973421536L230.3984375,48.531475360576934L230.52667410714287,59.87228496258075L230.65491071428573,36.69759559631348L231.03962053571428,35.18307627164401L231.16785714285714,48.673644359295196L231.29609375,16.926774831918575L231.80904017857142,28.647520065307617L232.06551339285716,12.012787452110873L232.19375,43.720097761887764L232.32198660714286,51.273845159090484L232.57845982142857,45.70195645552414L232.83493303571427,40.1794857612023L233.09140625,36.84150783832257L233.3478794642857,35.58805715120755L233.47611607142855,41.69162852947528L233.60435267857142,64.97800951737625L233.86082589285715,38.07799618060773L233.98906250000002,33.03985331608698L234.11729910714288,42.19035280667819L234.2455357142857,50.84383208935077L234.37377232142856,44.30560552156888L234.50200892857143,36.83606265141413L234.75848214285713,56.25687019641583L234.88671875,35.27351599473221L235.27142857142857,41.63546606210562L235.3996651785714,34.13570697490985L235.65613839285714,57.67047728024997L235.784375,35.90443948599008L236.16908482142856,53.09576944204477L236.29732142857142,36.23343585087702L236.4255580357143,24.27604044400729L236.55379464285716,51.472052574157715L236.9385044642857,31.39705217801608L237.45145089285714,30.47880040682279L237.70792410714287,37.86573835519644L237.8361607142857,45.843596605154175L237.96439732142858,37.84411430358887L238.34910714285715,31.922767345721898L238.47734375000002,30.87345240666315L238.7338169642857,15.73473592904898L239.24676339285716,49.03754476400522L239.375,28.36968495295599L239.50323660714284,17.370590209960938L239.6314732142857,66.45117414914645L239.88794642857144,35.60155912546011L240.40089285714285,64.83909849020151L240.52912946428572,48.70893361018255L240.78560267857142,53.802775382995605L240.9138392857143,31.350095602182247L241.04207589285716,31.370975347665645L241.17031250000002,40.533971346341644L241.4267857142857,28.62118207491361L241.8114955357143,54.34537454751822L241.93973214285717,59.261418562669014L242.06796875,31.107908835777867L242.19620535714284,26.93184221707858L242.3244419642857,38.60845140310434L242.70915178571428,37.8110775580773L242.83738839285715,54.911301832932686L243.47857142857143,30.712695341843816L243.73504464285716,59.32930058699387L243.86328124999997,34.800646561842704L243.99151785714284,51.98107961507944L244.5044642857143,41.472365085895234L244.88917410714285,31.444700827965367L245.14564732142858,35.32744554372934L245.53035714285716,56.91839511577899L245.65859375,35.2549997476431L245.78683035714286,29.17216447683481L245.9150669642857,49.869998931884766L246.04330357142857,40.443296579214234L246.2997767857143,25.554627785315883L246.42801339285717,36.9893374809852L246.55624999999998,36.23784945561335L246.94095982142858,40.72187599769006L247.06919642857144,50.15834573599008L247.32566964285715,26.52596033536471L247.45390625,60.03093968904935L247.58214285714286,38.76829440777118L247.96685267857143,36.741914455707246L248.22332589285716,55.08910611959604L248.3515625,20.832632211538456L248.47979910714284,48.17058482536902L248.6080357142857,30.2821468940148L249.50569196428572,43.90832886329065L249.63392857142858,31.85067411569449L250.01863839285713,43.38847673856296L250.65982142857143,66.32594137925369L251.17276785714284,60.2839515392597L251.42924107142858,53.90664526132437L251.9421875,43.26560093806341L252.07042410714286,28.942787610567535L252.3268973214286,59.16096335190994L252.83984375,21.8381244952862L252.96808035714287,23.399587337787327L253.0963169642857,57.861946766193086L253.35279017857144,25.939042311448308L253.4810267857143,49.540101564847504L253.60926339285714,44.558101580693176L254.12220982142858,33.62607926588791L254.37868303571426,31.828214351947484L254.63515625,53.526644339928254L254.89162946428573,42.580421447753906L255.01986607142857,62.780582794776336L255.27633928571427,31.36593495882474L255.7892857142857,32.31449435307429L256.04575892857144,38.03973623422476L256.17399553571425,2.368421261127171L256.55870535714286,16.59203294607309L256.94341517857146,42.5187615614671L257.45636160714287,61.03312176924484L257.7128348214286,36.79359802832971L257.84107142857147,34.46168694129358L258.22578125,51.4835893190824L258.7387276785714,36.62850570678711L258.8669642857143,26.993149537306575L258.99520089285716,40.890298109788155L259.1234375,48.071200370788574L259.50814732142857,20.783782225388737L259.63638392857143,59.28485114757831L259.7646205357143,36.163366611187286L260.02109375,10.20136833190918L260.14933035714284,20.402018473698547L260.2775669642857,35.55408022953913L260.5340401785714,36.994312579815215L260.66227678571425,34.960450392503L261.04698660714286,29.49642078693097L261.1752232142857,-22.35699726985052L261.4316964285714,22.325475252591644L261.68816964285713,42.36783064328708L261.81640625,53.73903274536133L261.94464285714287,34.636468300452606L262.8422991071429,44.50460947476901L262.97053571428575,38.48742983891413L263.0987723214286,23.042294282179622L263.2270089285714,36.775316825279816L263.99642857142857,40.57469925513635L264.12466517857143,40.31158051123987L264.2529017857143,8.855075249305143L264.38113839285717,14.581061436579775L264.509375,25.624762315016536L264.7658482142857,44.04181429056021L265.15055803571425,27.029372435349675L265.53526785714286,24.0021227323092L266.04821428571427,12.358785335834202L266.17645089285713,38.77017476008489L266.3046875,20.147857519296505L266.43292410714287,12.355129095224239L266.8176339285714,61.08325143960806L266.9458705357143,36.87283398554876L267.45881696428575,28.539817663339473L267.8435267857143,38.40922546386719L267.97176339285716,44.375511536231414L268.35647321428576,34.47657306377704L268.48470982142857,5.846002285297093L268.61294642857143,55.836572280296906L268.7411830357143,-5.9517982189472L268.86941964285717,15.181873174814083L269.2541294642857,27.120256130511937L269.3823660714286,35.48687069232648L269.51060267857144,32.23006131098821L269.63883928571425,51.98534305279071L270.1517857142857,54.7436632009653L270.28002232142853,10.93603765047513L270.4082589285714,38.56353187561035L270.79296875,40.090626056377715L271.0494419642857,21.59358728848971L271.17767857142854,37.40199646582971L271.3059151785714,16.957186918992253L271.56238839285714,38.59656862112192L271.690625,4.259755354661198L271.8188616071429,19.8433579664964L272.07533482142856,31.988396864670964L272.2035714285714,40.61829992441031L272.8447544642857,42.67297656719501L273.10122767857143,28.035439271193294L273.2294642857143,7.462844115037175L273.48593750000003,12.533305534949674L273.8706473214286,35.40307749234714L274.1271205357143,32.58188306368314L274.2553571428571,31.37615937453049L274.38359375,48.002169242272004L274.6400669642857,20.09625229468713L274.8965401785714,6.214721092811002L275.02477678571427,30.99735978933481L275.15301339285713,35.153395432692314L275.66595982142854,59.61884219829852L275.7941964285714,28.51144262460562L276.05066964285714,18.74497105525091L276.3071428571428,17.490345147939824L276.94832589285716,37.64312553405762L277.46127232142857,38.60298010019156L277.58950892857143,30.95560029836801L277.7177455357143,50.95200457939734L277.84598214285717,26.53742526127741L279.38482142857146,15.193272810715886L279.64129464285713,41.44966374910794L279.89776785714287,18.407095248882595L280.15424107142854,23.810875232403102L280.2824776785714,24.006262118999782L280.4107142857143,12.235883419330296L280.53895089285714,9.95461126474234L280.6671875,11.468177355252777L280.7954241071428,17.869288371159485L280.9236607142857,10.261657127967252L281.05189732142856,0.3268026205209631L281.1801339285714,8.901365867027865L281.3083705357143,34.32609264667218L281.43660714285716,8.657507676344661L281.69308035714283,3.60396942725549L281.8213169642857,43.69587516784668L281.94955357142857,34.63134956359863L282.2060267857143,46.20748395186203L282.4625,33.06957332904523L282.8472098214286,41.850511770982L283.2319196428572,34.073668406559875L283.48839285714286,20.237422356238735L283.6166294642857,52.45632560436542L283.87310267857146,40.69551189129169L284.2578125,16.13753612224872L284.51428571428573,39.21137853769156L284.6425223214286,8.917766717764042L284.8989955357143,51.394501099219696L285.15546875,48.135661198542664L285.2837053571428,22.732871862558223L285.4119419642857,28.069520656879124L285.6684151785714,21.588990871722874L285.7966517857143,37.676318975595336L286.05312499999997,50.5072033221905L286.18136160714283,41.57982591482309L286.43783482142857,17.11529320936936L286.56607142857143,-0.4173468076265836L287.5919642857143,47.057605596689086L287.7202008928571,29.620001719548156L287.97667410714286,38.40682279146634" style="fill: none;" fill="none"></path></g></g></g></g></g></g><g transform="translate(30, 178)" clip-path="url(#clip_1)"><clipPath id="clip_1"><rect width="299" height="22"></rect></clipPath><g><g><line x1="0" y1="0" x2="0" y2="5" style="visibility: inherit;" fill="rgb(0, 0, 0)" stroke="rgb(204, 204, 204)" stroke-width="1px"></line><line x1="21.372767857142858" y1="0" x2="21.372767857142858" y2="5" style="visibility: inherit;" fill="rgb(0, 0, 0)" stroke="rgb(204, 204, 204)" stroke-width="1px"></line><line x1="42.745535714285715" y1="0" x2="42.745535714285715" y2="5" style="visibility: inherit;" fill="rgb(0, 0, 0)" stroke="rgb(204, 204, 204)" stroke-width="1px"></line><line x1="64.11830357142857" y1="0" x2="64.11830357142857" y2="5" style="visibility: inherit;" fill="rgb(0, 0, 0)" stroke="rgb(204, 204, 204)" stroke-width="1px"></line><line x1="85.49107142857143" y1="0" x2="85.49107142857143" y2="5" style="visibility: inherit;" fill="rgb(0, 0, 0)" stroke="rgb(204, 204, 204)" stroke-width="1px"></line><line x1="106.86383928571429" y1="0" x2="106.86383928571429" y2="5" style="visibility: inherit;" fill="rgb(0, 0, 0)" stroke="rgb(204, 204, 204)" stroke-width="1px"></line><line x1="128.23660714285714" y1="0" x2="128.23660714285714" y2="5" style="visibility: inherit;" fill="rgb(0, 0, 0)" stroke="rgb(204, 204, 204)" stroke-width="1px"></line><line x1="149.609375" y1="0" x2="149.609375" y2="5" style="visibility: inherit;" fill="rgb(0, 0, 0)" stroke="rgb(204, 204, 204)" stroke-width="1px"></line><line x1="170.98214285714286" y1="0" x2="170.98214285714286" y2="5" style="visibility: inherit;" fill="rgb(0, 0, 0)" stroke="rgb(204, 204, 204)" stroke-width="1px"></line><line x1="192.35491071428572" y1="0" x2="192.35491071428572" y2="5" style="visibility: inherit;" fill="rgb(0, 0, 0)" stroke="rgb(204, 204, 204)" stroke-width="1px"></line><line x1="213.72767857142858" y1="0" x2="213.72767857142858" y2="5" style="visibility: inherit;" fill="rgb(0, 0, 0)" stroke="rgb(204, 204, 204)" stroke-width="1px"></line><line x1="235.10044642857142" y1="0" x2="235.10044642857142" y2="5" style="visibility: inherit;" fill="rgb(0, 0, 0)" stroke="rgb(204, 204, 204)" stroke-width="1px"></line><line x1="256.4732142857143" y1="0" x2="256.4732142857143" y2="5" style="visibility: inherit;" fill="rgb(0, 0, 0)" stroke="rgb(204, 204, 204)" stroke-width="1px"></line><line x1="277.84598214285717" y1="0" x2="277.84598214285717" y2="5" style="visibility: inherit;" fill="rgb(0, 0, 0)" stroke="rgb(204, 204, 204)" stroke-width="1px"></line><line x1="299.21875" y1="0" x2="299.21875" y2="5" style="visibility: inherit;" fill="rgb(0, 0, 0)" stroke="rgb(204, 204, 204)" stroke-width="1px"></line></g><g transform="translate(0, 8)"><text x="0" y="0" dx="0em" dy="0.95em" style="text-anchor: middle; visibility: hidden; font-family: Roboto, sans-serif; font-size: 12px; font-weight: 200;" fill="rgb(50, 49, 63)" stroke="none" stroke-width="1px">-1k</text><text x="21.372767857142858" y="0" dx="0em" dy="0.95em" style="text-anchor: middle; visibility: inherit; font-family: Roboto, sans-serif; font-size: 12px; font-weight: 200;" fill="rgb(50, 49, 63)" stroke="none" stroke-width="1px">0</text><text x="42.745535714285715" y="0" dx="0em" dy="0.95em" style="text-anchor: middle; visibility: hidden; font-family: Roboto, sans-serif; font-size: 12px; font-weight: 200;" fill="rgb(50, 49, 63)" stroke="none" stroke-width="1px">1k</text><text x="64.11830357142857" y="0" dx="0em" dy="0.95em" style="text-anchor: middle; visibility: inherit; font-family: Roboto, sans-serif; font-size: 12px; font-weight: 200;" fill="rgb(50, 49, 63)" stroke="none" stroke-width="1px">2k</text><text x="85.49107142857143" y="0" dx="0em" dy="0.95em" style="text-anchor: middle; visibility: hidden; font-family: Roboto, sans-serif; font-size: 12px; font-weight: 200;" fill="rgb(50, 49, 63)" stroke="none" stroke-width="1px">3k</text><text x="106.86383928571429" y="0" dx="0em" dy="0.95em" style="text-anchor: middle; visibility: inherit; font-family: Roboto, sans-serif; font-size: 12px; font-weight: 200;" fill="rgb(50, 49, 63)" stroke="none" stroke-width="1px">4k</text><text x="128.23660714285714" y="0" dx="0em" dy="0.95em" style="text-anchor: middle; visibility: hidden; font-family: Roboto, sans-serif; font-size: 12px; font-weight: 200;" fill="rgb(50, 49, 63)" stroke="none" stroke-width="1px">5k</text><text x="149.609375" y="0" dx="0em" dy="0.95em" style="text-anchor: middle; visibility: inherit; font-family: Roboto, sans-serif; font-size: 12px; font-weight: 200;" fill="rgb(50, 49, 63)" stroke="none" stroke-width="1px">6k</text><text x="170.98214285714286" y="0" dx="0em" dy="0.95em" style="text-anchor: middle; visibility: hidden; font-family: Roboto, sans-serif; font-size: 12px; font-weight: 200;" fill="rgb(50, 49, 63)" stroke="none" stroke-width="1px">7k</text><text x="192.35491071428572" y="0" dx="0em" dy="0.95em" style="text-anchor: middle; visibility: inherit; font-family: Roboto, sans-serif; font-size: 12px; font-weight: 200;" fill="rgb(50, 49, 63)" stroke="none" stroke-width="1px">8k</text><text x="213.72767857142858" y="0" dx="0em" dy="0.95em" style="text-anchor: middle; visibility: hidden; font-family: Roboto, sans-serif; font-size: 12px; font-weight: 200;" fill="rgb(50, 49, 63)" stroke="none" stroke-width="1px">9k</text><text x="235.10044642857142" y="0" dx="0em" dy="0.95em" style="text-anchor: middle; visibility: inherit; font-family: Roboto, sans-serif; font-size: 12px; font-weight: 200;" fill="rgb(50, 49, 63)" stroke="none" stroke-width="1px">10k</text><text x="256.4732142857143" y="0" dx="0em" dy="0.95em" style="text-anchor: middle; visibility: hidden; font-family: Roboto, sans-serif; font-size: 12px; font-weight: 200;" fill="rgb(50, 49, 63)" stroke="none" stroke-width="1px">11k</text><text x="277.84598214285717" y="0" dx="0em" dy="0.95em" style="text-anchor: middle; visibility: inherit; font-family: Roboto, sans-serif; font-size: 12px; font-weight: 200;" fill="rgb(50, 49, 63)" stroke="none" stroke-width="1px">12k</text><text x="299.21875" y="0" dx="0em" dy="0.95em" style="text-anchor: middle; visibility: hidden; font-family: Roboto, sans-serif; font-size: 12px; font-weight: 200;" fill="rgb(50, 49, 63)" stroke="none" stroke-width="1px">13k</text></g><line x1="0" y1="0" x2="299.21875" y2="0" fill="rgb(0, 0, 0)" stroke="rgb(204, 204, 204)" stroke-width="1px"></line></g></g></g></g></svg>