<svg viewBox="0 0 330 200" xmlns="http://www.w3.org/2000/svg"><g><g><g><g><g><line x1="41.171875" y1="178" x2="36.171875" y2="178" style="visibility: inherit;" fill="rgb(0, 0, 0)" stroke="rgb(204, 204, 204)" stroke-width="1px"></line><line x1="41.171875" y1="155.75" x2="36.171875" y2="155.75" style="visibility: inherit;" fill="rgb(0, 0, 0)" stroke="rgb(204, 204, 204)" stroke-width="1px"></line><line x1="41.171875" y1="133.5" x2="36.171875" y2="133.5" style="visibility: inherit;" fill="rgb(0, 0, 0)" stroke="rgb(204, 204, 204)" stroke-width="1px"></line><line x1="41.171875" y1="111.25" x2="36.171875" y2="111.25" style="visibility: inherit;" fill="rgb(0, 0, 0)" stroke="rgb(204, 204, 204)" stroke-width="1px"></line><line x1="41.171875" y1="89" x2="36.171875" y2="89" style="visibility: inherit;" fill="rgb(0, 0, 0)" stroke="rgb(204, 204, 204)" stroke-width="1px"></line><line x1="41.171875" y1="66.75" x2="36.171875" y2="66.75" style="visibility: inherit;" fill="rgb(0, 0, 0)" stroke="rgb(204, 204, 204)" stroke-width="1px"></line><line x1="41.171875" y1="44.5" x2="36.171875" y2="44.5" style="visibility: inherit;" fill="rgb(0, 0, 0)" stroke="rgb(204, 204, 204)" stroke-width="1px"></line><line x1="41.171875" y1="22.25" x2="36.171875" y2="22.25" style="visibility: inherit;" fill="rgb(0, 0, 0)" stroke="rgb(204, 204, 204)" stroke-width="1px"></line><line x1="41.171875" y1="0" x2="36.171875" y2="0" style="visibility: inherit;" fill="rgb(0, 0, 0)" stroke="rgb(204, 204, 204)" stroke-width="1px"></line></g><g transform="translate(31.171875, 0)"><text x="0" y="178" dx="0em" dy="0.3em" style="text-anchor: end; visibility: hidden; font-family: Roboto, sans-serif; font-size: 12px; font-weight: 200;" fill="rgb(50, 49, 63)" stroke="none" stroke-width="1px">-30</text><text x="0" y="155.75" dx="0em" dy="0.3em" style="text-anchor: end; visibility: inherit; font-family: Roboto, sans-serif; font-size: 12px; font-weight: 200;" fill="rgb(50, 49, 63)" stroke="none" stroke-width="1px">-25</text><text x="0" y="133.5" dx="0em" dy="0.3em" style="text-anchor: end; visibility: hidden; font-family: Roboto, sans-serif; font-size: 12px; font-weight: 200;" fill="rgb(50, 49, 63)" stroke="none" stroke-width="1px">-20</text><text x="0" y="111.25" dx="0em" dy="0.3em" style="text-anchor: end; visibility: inherit; font-family: Roboto, sans-serif; font-size: 12px; font-weight: 200;" fill="rgb(50, 49, 63)" stroke="none" stroke-width="1px">-15</text><text x="0" y="89" dx="0em" dy="0.3em" style="text-anchor: end; visibility: hidden; font-family: Roboto, sans-serif; font-size: 12px; font-weight: 200;" fill="rgb(50, 49, 63)" stroke="none" stroke-width="1px">-10</text><text x="0" y="66.75" dx="0em" dy="0.3em" style="text-anchor: end; visibility: inherit; font-family: Roboto, sans-serif; font-size: 12px; font-weight: 200;" fill="rgb(50, 49, 63)" stroke="none" stroke-width="1px">-5</text><text x="0" y="44.5" dx="0em" dy="0.3em" style="text-anchor: end; visibility: hidden; font-family: Roboto, sans-serif; font-size: 12px; font-weight: 200;" fill="rgb(50, 49, 63)" stroke="none" stroke-width="1px">0</text><text x="0" y="22.25" dx="0em" dy="0.3em" style="text-anchor: end; visibility: inherit; font-family: Roboto, sans-serif; font-size: 12px; font-weight: 200;" fill="rgb(50, 49, 63)" stroke="none" stroke-width="1px">5</text><text x="0" y="0" dx="0em" dy="0.3em" style="text-anchor: end; visibility: hidden; font-family: Roboto, sans-serif; font-size: 12px; font-weight: 200;" fill="rgb(50, 49, 63)" stroke="none" stroke-width="1px">10</text></g><line x1="41.171875" y1="0" x2="41.171875" y2="178" fill="rgb(0, 0, 0)" stroke="rgb(204, 204, 204)" stroke-width="1px"></line></g></g><g transform="translate(41, 0)" clip-path="url(#clip_0)"><clipPath id="clip_0"><rect width="288" height="178"></rect></clipPath><g><g><g><line x1="0" y1="0" x2="0" y2="178" fill="rgb(0, 0, 0)" stroke="rgb(60, 60, 60)" stroke-width="1px" opacity="0.25"></line><line x1="24.069010416666664" y1="0" x2="24.069010416666664" y2="178" fill="rgb(0, 0, 0)" stroke="rgb(60, 60, 60)" stroke-width="1px" opacity="0.25"></line><line x1="48.13802083333333" y1="0" x2="48.13802083333333" y2="178" fill="rgb(0, 0, 0)" stroke="rgb(60, 60, 60)" stroke-width="1px" opacity="0.25"></line><line x1="72.20703125" y1="0" x2="72.20703125" y2="178" fill="rgb(0, 0, 0)" stroke="rgb(60, 60, 60)" stroke-width="1px" opacity="0.25"></line><line x1="96.27604166666666" y1="0" x2="96.27604166666666" y2="178" fill="rgb(0, 0, 0)" stroke="rgb(60, 60, 60)" stroke-width="1px" opacity="0.25"></line><line x1="120.34505208333334" y1="0" x2="120.34505208333334" y2="178" fill="rgb(0, 0, 0)" stroke="rgb(60, 60, 60)" stroke-width="1px" opacity="0.25"></line><line x1="144.4140625" y1="0" x2="144.4140625" y2="178" fill="rgb(0, 0, 0)" stroke="rgb(60, 60, 60)" stroke-width="1px" opacity="0.25"></line><line x1="168.48307291666669" y1="0" x2="168.48307291666669" y2="178" fill="rgb(0, 0, 0)" stroke="rgb(60, 60, 60)" stroke-width="1px" opacity="0.25"></line><line x1="192.55208333333331" y1="0" x2="192.55208333333331" y2="178" fill="rgb(0, 0, 0)" stroke="rgb(60, 60, 60)" stroke-width="1px" opacity="0.25"></line><line x1="216.62109375" y1="0" x2="216.62109375" y2="178" fill="rgb(0, 0, 0)" stroke="rgb(60, 60, 60)" stroke-width="1px" opacity="0.25"></line><line x1="240.69010416666669" y1="0" x2="240.69010416666669" y2="178" fill="rgb(0, 0, 0)" stroke="rgb(60, 60, 60)" stroke-width="1px" opacity="0.25"></line><line x1="264.7591145833333" y1="0" x2="264.7591145833333" y2="178" fill="rgb(0, 0, 0)" stroke="rgb(60, 60, 60)" stroke-width="1px" opacity="0.25"></line><line x1="288.828125" y1="0" x2="288.828125" y2="178" fill="rgb(0, 0, 0)" stroke="rgb(60, 60, 60)" stroke-width="1px" opacity="0.25"></line></g><g><line x1="0" y1="178" x2="288.828125" y2="178" fill="rgb(0, 0, 0)" stroke="rgb(60, 60, 60)" stroke-width="1px" opacity="0.25"></line><line x1="0" y1="155.75" x2="288.828125" y2="155.75" fill="rgb(0, 0, 0)" stroke="rgb(60, 60, 60)" stroke-width="1px" opacity="0.25"></line><line x1="0" y1="133.5" x2="288.828125" y2="133.5" fill="rgb(0, 0, 0)" stroke="rgb(60, 60, 60)" stroke-width="1px" opacity="0.25"></line><line x1="0" y1="111.25" x2="288.828125" y2="111.25" fill="rgb(0, 0, 0)" stroke="rgb(60, 60, 60)" stroke-width="1px" opacity="0.25"></line><line x1="0" y1="89" x2="288.828125" y2="89" fill="rgb(0, 0, 0)" stroke="rgb(60, 60, 60)" stroke-width="1px" opacity="0.25"></line><line x1="0" y1="66.75" x2="288.828125" y2="66.75" fill="rgb(0, 0, 0)" stroke="rgb(60, 60, 60)" stroke-width="1px" opacity="0.25"></line><line x1="0" y1="44.5" x2="288.828125" y2="44.5" fill="rgb(0, 0, 0)" stroke="rgb(60, 60, 60)" stroke-width="1px" opacity="0.25"></line><line x1="0" y1="22.25" x2="288.828125" y2="22.25" fill="rgb(0, 0, 0)" stroke="rgb(60, 60, 60)" stroke-width="1px" opacity="0.25"></line><line x1="0" y1="0" x2="288.828125" y2="0" fill="rgb(0, 0, 0)" stroke="rgb(60, 60, 60)" stroke-width="1px" opacity="0.25"></line></g></g></g><g><g><line x1="0" y1="44.5" x2="288.828125" y2="44.5" fill="rgb(0, 0, 0)" stroke="rgb(153, 153, 153)" stroke-width="1.5px"></line></g></g><g><g><line x1="24.069010416666664" y1="0" x2="24.069010416666664" y2="178" fill="rgb(0, 0, 0)" stroke="rgb(153, 153, 153)" stroke-width="1.5px"></line></g></g><g><g><g><g><g><path stroke="rgb(255, 112, 67)" stroke-width="2px" d="M31.0490234375,210.47037176103382L31.289713541666668,139.51007019454195L31.53040364583333,80.15148334745298L31.77109375,39.235097491211036L32.011783854166666,22.264819738805855L32.25247395833333,41.940016579211814L32.4931640625,22.824721021814675L32.73385416666667,17.860659225858313L32.974544270833334,18.179146744837684L33.215234375,1.8898467472510418L33.45592447916667,-25.9371980851179L33.696614583333336,14.351902432338933L33.937304687499996,5.795180148829497L34.41868489583334,67.6545605116444L34.659375,80.3204447075554L34.900065104166664,73.87341672576008L35.14075520833334,72.84307224260907L35.3814453125,32.348046063681984L35.622135416666666,20.26876419934165L35.86282552083333,11.750718587162732L36.103515625,6.234398074983336L36.34420572916667,18.659953301076474L36.584895833333334,23.053635459518514L36.8255859375,42.14618050901251L37.06627604166666,18.271467060096054L37.306966145833336,4.5138551010029415L37.54765625,15.421043706742052L37.78834635416666,43.698988032832744L38.02903645833333,43.46686340361531L38.269726562500004,89.29506169909679L38.510416666666664,95.95789902659973L38.75110677083333,126.46193584235293L38.991796875000006,76.43331644315442L39.232486979166666,50.81291842805652L39.47317708333333,43.773531410379974L39.7138671875,58.909305537512274L39.95455729166667,67.20799175069953L40.195247395833334,105.80503491858389L40.4359375,128.45992654502243L40.67662760416667,170.97452076160823L40.917317708333336,181.79217293670123L41.158007812499996,175.8707231498381L41.39869791666667,169.38912097791555L41.63938802083333,134.34890858757333L41.880078125,114.50215435283086L42.12076822916667,43.75347332153736L42.36145833333333,101.59486315246832L42.6021484375,79.0712705230499L42.84283854166667,57.46410819624571L43.08352864583333,90.4268089958114L43.32421875,86.42768551040189L43.56490885416667,130.94501310067474L43.805598958333334,164.12311961577592L44.0462890625,153.24714451269065L44.28697916666666,148.66319584152552L44.527669270833336,124.63083880008134L44.768359375,126.773931289082L45.00904947916666,119.44010160944774L45.24973958333334,123.86241973031707L45.4904296875,152.96302648418634L45.731119791666664,154.28939052124912L45.97180989583334,126.92689452469403L46.2125,112.83881941974197L46.453190104166666,132.210847727895L46.69388020833333,134.89172126796257L46.9345703125,144.843323166051L47.17526041666667,116.34606157236007L47.41595052083333,119.03566688116017L47.656640625,124.07268301138654L47.89733072916667,134.37635253601894L48.13802083333333,138.82717519958987L48.3787109375,143.7767320606719L48.61940104166667,162.17456783137382L48.86009114583333,123.25036313344039L49.100781250000004,130.2918888319075L49.341471354166664,138.00337205341697L49.58216145833333,149.99949145562195L49.8228515625,130.1936361041471L50.063541666666666,134.3916858891728L50.30423177083333,138.16454308867947L50.544921875,161.80582355523404L50.78561197916667,146.14119287886797L51.026302083333334,113.48579939698327L51.266992187499994,85.54987129983394L51.50768229166667,70.68424498449019L51.748372395833336,121.9372197354451L51.989062499999996,134.57831736830562L52.22975260416667,121.43232373015698L52.47044270833334,106.3325256467856L52.7111328125,82.55459887033682L52.951822916666664,91.9240408316015L53.19251302083334,94.61273834554905L53.433203125,99.67598170667026L53.673893229166666,93.49607688563545L53.91458333333333,93.73440249429632L54.1552734375,89.94918269912293L54.39596354166667,68.26186154961523L54.636653645833334,72.8522861878868L54.87734375,67.84507062916731L55.11803385416666,82.38639586260783L55.358723958333336,110.65717908555787L55.5994140625,134.46853146561693L55.84010416666666,143.51583727841802L56.08079427083333,144.49558558848636L56.321484375000004,118.66231582872351L56.562174479166664,103.18801908440759L56.80286458333333,100.0416202351294L57.043554687500006,99.21085284023535L57.284244791666666,116.89894948642882L57.52493489583333,136.34587161446473L57.765625,135.44805084648647L58.00631510416667,115.65790712227177L58.247005208333334,114.75497111433594L58.4876953125,107.5148292872539L58.72838541666667,106.29857589800544L58.969075520833336,96.27281148194902L59.209765624999996,90.50147100782176L59.45045572916667,97.02702770051825L59.69114583333333,90.67859689603726L59.9318359375,85.8428414357333L60.17252604166667,95.27451484755449L60.41321614583333,105.00497929427489L60.65390625,123.93967939480223L60.89459635416667,121.48827281632471L61.13528645833333,118.31522714041738L61.3759765625,110.30785290564936L61.61666666666667,80.7774767408719L61.857356770833334,71.95476019918624L62.098046875,61.503058424828644L62.33873697916666,63.34565585567845L62.579427083333336,69.60415216514048L62.8201171875,76.55005191462382L63.06080729166666,66.30660786805835L63.30149739583334,89.36712008582523L63.5421875,99.10496763865335L63.782877604166664,85.22291502761949L64.02356770833333,101.96106900100773L64.2642578125,105.13836835220376L64.50494791666667,100.41315067288231L64.74563802083333,100.17724282072157L64.986328125,94.12708662108284L65.22701822916666,97.11948458525956L65.46770833333333,84.40903083904635L65.70839843750001,91.83057557358772L65.94908854166667,121.69919605978984L66.18977864583333,133.40186069922842L66.43046875,139.43528733323333L66.67115885416666,124.26382021945905L66.91184895833334,112.51058728243227L67.1525390625,117.28319029060194L67.39322916666667,136.64593037156575L67.63391927083333,119.16781375043578L67.87460937499999,102.30085745115868L68.11529947916667,85.8841731945264L68.35598958333333,74.8979866218321L68.5966796875,83.15027606199696L68.83736979166667,72.85587153739044L69.07805989583333,83.3728611868996L69.31875,83.1004147483336L69.55944010416667,90.23743955334587L69.80013020833333,98.08358593964913L70.0408203125,109.18537499060832L70.28151041666668,125.3163772007859L70.52220052083334,109.33432642346835L70.762890625,103.20476114109886L71.00358072916666,97.1747353086217L71.4849609375,83.85102305467986L71.72565104166667,109.10322400126493L71.96634114583334,110.31870813962006L72.20703125,98.99827204105964L72.44772135416667,85.17366542075699L72.68841145833333,90.61632852110043L72.9291015625,94.84673867912754L73.16979166666667,104.82901805336277L73.651171875,102.56510438975691L73.89186197916668,100.67803350482583L74.13255208333332,83.52946954366088L74.3732421875,73.97884097454859L74.61393229166667,80.02489831184096L74.85462239583333,83.58638296446053L75.0953125,82.49896913719682L75.33600260416667,88.70736076088257L75.57669270833333,102.82850928337278L75.8173828125,110.29229928035083L76.05807291666666,119.75834045993413L76.29876302083333,123.75686046950295L76.53945312500001,137.1603690282838L76.78014322916665,115.73164196827032L77.02083333333333,97.99162971984158L77.2615234375,80.95683475023992L77.50221354166666,68.43083959631016L77.74290364583334,64.48504855759079L77.98359375000001,78.211749654574L78.46497395833333,76.26072667453457L78.7056640625,77.17174457558257L78.94635416666667,62.66874742894327L79.18704427083334,44.6756745933828L79.427734375,56.093141105135544L79.66842447916666,57.13303313872828L79.90911458333333,55.4867866267062L80.14980468750001,59.667581209498465L80.39049479166667,64.48996408519615L80.63118489583333,59.30836443744582L80.871875,72.85917193318892L81.11256510416666,88.7870989240735L81.35325520833334,93.3593607948738L81.5939453125,70.49552305498825L81.83463541666667,93.43555869078102L82.07532552083333,82.34455172905602L82.31601562499999,74.55938232832716L82.55670572916667,50.53629769381025L82.79739583333334,42.24232492861831L83.0380859375,59.22692909489681L83.27877604166666,77.44348550945885L83.51946614583333,83.97660669034937L83.76015625,95.52205272880924L84.00084635416667,97.24183713655312L84.24153645833334,112.8320407203474L84.48222656249999,113.53328059981098L84.72291666666666,110.2849507741322L84.96360677083334,117.95684731079281L85.204296875,100.90404454751693L85.44498697916667,108.18106327941348L85.68567708333335,101.89645014339881L85.92636718749999,85.01561090787767L86.16705729166667,79.6700459423096L86.40774739583334,81.04946590080448L86.6484375,84.48064389595142L86.88912760416667,92.70338937025517L87.12981770833333,87.797127272971L87.3705078125,87.36270970957727L87.61119791666667,92.32920839105397L87.85188802083333,93.16349646636458L88.092578125,105.22170612566835L88.57395833333332,121.17405127855042L88.8146484375,116.01146396262585L89.05533854166667,127.21637087025128L89.29602864583333,133.84397436236074L89.53671875,149.87903083476263L89.77740885416667,155.53175874896547L90.01809895833333,154.07505408971133L90.2587890625,130.53834227590932L90.49947916666667,139.71656978052363L90.74016927083333,156.92605362368528L90.980859375,142.27814239759982L91.22154947916667,130.49731285631503L91.46223958333333,131.86045188462643L91.7029296875,141.21616508219185L91.94361979166668,153.47124312432734L92.18430989583332,168.32404668636397L92.425,159.15803160373733L92.66569010416667,156.3580785829089L92.90638020833333,154.06765430916914L93.1470703125,142.01420777410013L93.38776041666667,155.40443637710655L93.869140625,155.9514838477483L94.35052083333333,139.39481216076078L94.59121093750001,129.81674769761005L94.83190104166665,116.90195011163853L95.07259114583333,126.65452005782785L95.31328125,132.14811189126408L95.55397135416666,143.01092379064224L95.79466145833334,135.9072998569659L96.03535156250001,137.36383654870104L96.27604166666666,130.18807686208197L96.51673177083333,120.20695961975163L96.757421875,134.11539319433632L96.99811197916667,148.99557262467064L97.23880208333334,142.89897531155776L97.4794921875,165.8430179231407L97.72018229166666,149.60435971933853L98.20156250000001,129.91162656616123L98.44225260416667,119.88659460348457L98.68294270833333,119.81196317078215L98.9236328125,119.35250577569927L99.16432291666666,107.47069749618129L99.645703125,104.68134031167361L99.88639322916667,106.51679809493262L100.12708333333333,97.82795902968907L100.36777343749999,96.5074091343967L100.60846354166667,97.9877478259139L100.84915364583334,121.53711906297997L101.08984375,120.52249944224356L101.33053385416666,105.89986889370918L101.57122395833333,106.76592753892325L101.8119140625,90.64047152617684L102.05260416666667,79.68447252523369L102.29329427083334,64.29181566483656L102.53398437499999,70.29394363550472L102.77467447916666,76.3515934609659L103.01536458333334,84.17427326102779L103.2560546875,90.09029178178147L103.49674479166667,104.77417316172027L103.73743489583335,119.70100444634855L103.97812499999999,121.38872461605132L104.21881510416667,125.33281187229193L104.45950520833334,112.65577936656973L104.7001953125,114.80157739929973L104.94088541666667,118.65659268744362L105.18157552083333,106.87340898542148L105.422265625,117.88610357301559L105.66295572916667,113.32754818354323L105.90364583333333,98.61397487493919L106.1443359375,89.65674822910168L106.38502604166668,81.27277262558663L106.62571614583332,81.87610332220866L106.86640625,94.94881995230958L107.10709635416667,93.38158197230126L107.34778645833333,81.61249391452088L107.5884765625,86.73066344389686L107.82916666666667,88.79483719902855L108.06985677083333,104.64528271339906L108.310546875,97.51894397725209L108.55123697916667,97.5465089034411L108.79192708333333,94.17112471767501L109.0326171875,96.5500266677632L109.27330729166667,89.33731303015317L109.51399739583333,95.03806279062607L109.7546875,93.5992696354352L109.99537760416668,92.94039456782119L110.23606770833332,104.81600767575131L110.4767578125,100.90489038349642L110.71744791666667,108.46656063390647L110.95813802083333,104.8789550494723L111.198828125,105.34238105962113L111.43951822916667,114.045110108551L111.68020833333333,120.86045607214965L111.9208984375,107.86799649408934L112.16158854166666,111.07183656222509L112.40227864583333,114.88157453254989L112.64296875000001,101.78433103392204L112.88365885416665,120.47036462682294L113.3650390625,136.60555438552979L113.60572916666666,143.9383928653877L113.84641927083334,134.75296285851485L114.08710937500001,130.50775076808745L114.32779947916666,133.55610332645304L114.56848958333333,137.04128948305447L114.8091796875,130.7323879018688L115.04986979166667,132.88304995150946L115.29055989583334,124.87322659642447L115.53125,114.94682454199163L115.77194010416666,124.7669907518063L116.01263020833333,128.42120275186505L116.25332031250001,138.15542272381188L116.49401041666667,123.98186649592044L116.73470052083333,118.63092911309792L116.975390625,110.37433482686754L117.21608072916666,104.70163630414055L117.45677083333334,87.69713431696918L117.6974609375,77.29650586903588L117.93815104166667,88.4395736340314L118.17884114583333,84.74537645123182L118.41953124999999,107.17999152625667L118.66022135416667,104.15275550535361L118.90091145833334,94.9528809490862L119.38229166666666,88.70292392391339L119.62298177083333,86.35357152353748L119.863671875,94.5028756220998L120.10436197916667,87.08552698611388L120.34505208333334,82.88167195033532L120.58574218749999,93.94078968829811L120.82643229166666,94.232452137869L121.06712239583334,77.18019375777328L121.3078125,83.44114111886074L121.54850260416667,93.72189326659235L121.78919270833335,90.59513850435849L122.02988281249999,88.1294518198087L122.27057291666667,100.26610039028608L122.51126302083334,93.44528813334158L122.751953125,106.25534518225103L122.99264322916667,97.57011079587406L123.23333333333333,85.38359125970523L123.4740234375,79.79134216617774L123.71471354166667,78.02384473032492L123.95540364583333,84.00678295819006L124.19609375,80.37352981405284L124.43678385416668,81.52928617380158L124.9181640625,92.29742258776484L125.15885416666667,97.62225276225364L125.39954427083333,105.60636694665882L125.640234375,113.200353790737L125.88092447916667,111.25663328732061L126.12161458333333,113.89225973466043L126.3623046875,98.69734236347082L126.60299479166667,107.65489269225242L126.84368489583333,102.13159791546131L127.084375,104.76169415424506L127.32506510416667,124.3391381890192L127.56575520833333,121.36083803120937L127.8064453125,136.18253095593266L128.28782552083334,142.10553702143557L128.528515625,134.3927658011182L128.76920572916669,133.20765365181347L129.00989583333333,134.2017587865471L129.2505859375,123.09179564744706L129.49127604166665,133.44099566239402L129.73196614583333,139.10341201840808L129.97265625,143.45455014836173L130.21334635416665,148.34661512930023L130.45403645833332,143.98048551892535L130.6947265625,127.02316693315088L130.93541666666667,131.39220940976847L131.17610677083334,137.1755718845696L131.41679687500002,134.11061267725054L131.65748697916666,132.8519616691555L131.89817708333334,129.36757104446207L132.1388671875,126.98121157198972L132.37955729166666,130.4773077995171L132.62024739583333,123.67937235060869L132.8609375,129.4114432956191L133.10162760416665,122.8899574461825L133.34231770833333,119.15218758721635L133.5830078125,107.46734997832468L133.82369791666667,107.08839948894793L134.06438802083335,114.57680472327598L134.305078125,120.8882428299983L134.54576822916667,122.53059286901949L134.78645833333334,120.97785424130915L135.02714843750002,115.665910371171L135.26783854166666,113.53842847825679L135.50852864583334,106.74801276017185L135.74921874999998,89.18391317062948L135.98990885416666,92.57384952743871L136.23059895833333,98.47272692227378L136.4712890625,95.23577131571777L136.71197916666665,102.78122189129834L136.95266927083333,103.79600299409297L137.193359375,105.20817148334544L137.43404947916667,91.58444158820367L137.67473958333335,83.58173076026473L137.9154296875,98.06510741062662L138.15611979166667,91.12962818233788L138.39680989583334,97.1422020345248L138.6375,98.05727091248735L138.87819010416666,93.32272999057712L139.11888020833334,100.26804847103085L139.35957031249998,100.04370624173715L139.60026041666666,95.74767426460404L139.84095052083333,99.42996404057396L140.081640625,97.22383531979116L140.32233072916668,104.98217175156708L140.56302083333335,91.22374875635408L140.8037109375,98.99451921993791L141.04440104166667,102.15422717222155L141.28509114583335,113.3882108562504L141.52578125,119.51876311500757L141.76647135416667,105.88562449574405L142.00716145833331,105.68993361926039L142.2478515625,85.05385697922682L142.48854166666666,67.96737667227731L142.72923177083334,67.2255233544406L142.969921875,78.57685814489702L143.45130208333333,82.60300375336278L143.6919921875,86.97010873624009L143.93268229166668,84.35901769917203L144.17337239583333,91.70658676696416L144.4140625,86.22526785416959L144.65475260416667,75.65134657790396L145.1361328125,68.61987915855725L145.37682291666667,70.79716710580634L145.61751302083334,79.92056434353141L145.858203125,81.40361927628486L146.09889322916666,91.79328828024846L146.33958333333334,100.03998372178067L146.58027343749998,95.48094869864458L146.82096354166666,84.06859381444737L147.06165364583333,81.91044324545553L147.30234375,62.85186413948827L147.54303385416668,58.043231530339085L147.78372395833335,67.44964832982454L148.0244140625,87.048301456696L148.26510416666665,72.64487092872037L148.50579427083332,59.69172721373779L148.746484375,64.54892639438953L148.98717447916667,55.093800764802964L149.22786458333334,56.152916792347355L149.4685546875,56.892269932815026L149.70924479166666,58.90191323017394L149.94993489583334,56.87503377947399L150.190625,64.66632306309455L150.43131510416669,51.121171000790085L150.67200520833333,48.176696135515854L151.634765625,40.47285898322755L151.87545572916667,45.55247493383226L152.11614583333332,50.36954554436765L152.3568359375,41.24007256816722L152.59752604166667,40.29626297468481L152.83821614583334,26.42659125038707L153.07890625000002,17.63586987321807L153.3195963541667,31.82091953793306L153.5602864583333,26.82130494617903L153.80097656249998,23.523738396784577L154.04166666666666,27.774179942977973L154.28235677083333,30.808900799496502L154.523046875,37.71727894195529L154.76373697916668,29.915882635406337L155.00442708333333,35.43683905380469L155.2451171875,52.165161398515096L155.48580729166667,44.07967095581593L155.72649739583335,45.201984555768384L155.96718750000002,51.20421637490238L156.20787760416667,70.87545678493288L156.44856770833331,67.16735107825345L156.6892578125,69.03829078153457L156.92994791666666,68.53368076011948L157.17063802083334,66.7648069210375L157.411328125,79.75437323495893L157.65201822916666,83.32016487267701L157.89270833333333,84.48254585353784L158.1333984375,91.55325872473868L158.37408854166668,83.09136202080816L158.61477864583335,90.83208840694292L158.85546875,84.27189007762827L159.09615885416665,76.70110731699322L159.33684895833332,64.91532493935975L159.5775390625,67.49147262398573L159.81822916666667,61.27055604591473L160.05891927083334,63.93987207969726L160.29960937500002,63.30592931127966L160.54029947916666,59.48401673803581L160.78098958333334,70.60042442423017L161.0216796875,75.27642649139113L161.26236979166666,84.823479643614L161.50305989583333,86.27862578818255L161.74375,79.44825360172423L161.98444010416665,80.8203249942865L162.22513020833333,90.87046995232141L162.4658203125,87.0624367527344L162.70651041666667,89.11417870355714L162.94720052083335,85.63776472945851L163.187890625,88.87771132790948L163.42858072916667,82.91787146570626L163.66927083333334,70.41167197133508L163.9099609375,75.14052304211499L164.15065104166666,77.76466845860031L164.39134114583334,74.28247093790738L164.63203124999998,73.92796814700347L164.87272135416666,92.9993156019472L165.11341145833333,88.06065324208875L165.3541015625,96.60298154867732L165.59479166666668,103.18167502234603L165.83548177083335,100.93127847761052L166.076171875,96.22480310112319L166.55755208333332,89.04778122133067L166.7982421875,85.40233479992179L167.03893229166667,83.4114375582673L167.27962239583334,83.99936743684637L167.5203125,78.0081592995407L167.76100260416666,72.03266642323027L168.00169270833334,73.5359047188216L168.2423828125,64.789494489065L168.48307291666669,56.92514039184523L168.72376302083333,64.15804353419466L168.96445312499998,80.87589862265303L169.20514322916665,80.48055436562366L169.44583333333333,68.83859529465956L169.6865234375,54.77353994351935L169.92721354166667,55.54602871598191L170.16790364583332,55.989610680707614L170.64928385416667,61.93815585659047L170.88997395833334,74.39034745148479L171.13066406250002,77.26901979596411L171.3713541666667,100.74032224745153L171.6120442708333,97.76707111794113L171.85273437499998,98.26804021715141L172.09342447916666,101.86672516178498L172.33411458333333,79.05091465718392L172.5748046875,69.74453078512457L172.81549479166668,71.71974718811576L173.05618489583333,68.26100689555685L173.296875,66.71187968245432L173.53756510416667,65.87927943224483L173.77825520833335,63.3190666446374L174.01894531250002,58.07631308134117L174.25963541666667,51.2808894961817L174.50032552083331,40.29208268223662L174.741015625,40.99180914103065L174.98170572916666,33.96230458938526L175.22239583333334,31.882209089538133L175.4630859375,41.45079826542178L175.70377604166666,60.800253319909814L175.94446614583333,67.17595641623176L176.18515625,62.75228184706115L176.42584635416668,52.91297028211441L176.66653645833335,46.97234513609221L176.9072265625,44.55247600345976L177.14791666666665,51.14896572273472L177.38860677083332,71.22849171544016L177.629296875,80.2236767934853L177.86998697916667,83.17699017567003L178.11067708333334,69.306382257L178.35136718750002,61.49277361765824L178.59205729166666,61.02261960825516L178.83274739583334,57.438150159842934L179.0734375,53.807107691959835L179.31412760416666,63.92222766220348L179.55481770833333,66.27161542498933L179.7955078125,79.36755845024507L180.03619791666665,88.73476381465387L180.27688802083333,90.18402006247398L180.517578125,81.14442515622827L180.75826822916667,91.49832905919106L180.99895833333335,93.83251670355052L181.2396484375,76.29492189499409L181.48033854166667,65.27297666795653L181.96171875,59.723594369456784L182.20240885416666,51.63661747095919L182.44309895833334,46.671358385789006L182.68378906249998,40.547012180750144L182.92447916666666,41.52580203691993L183.16516927083333,39.38891720104144L183.405859375,44.51193086700395L183.64654947916668,46.806733586768836L183.88723958333335,56.19298415802749L184.1279296875,63.490619901554766L184.36861979166665,58.399784376464474L184.60930989583332,60.45691381588113L184.85,59.97467778858263L185.09069010416667,60.621255061249265L185.33138020833334,54.93643291069288L185.5720703125,53.982614384133925L185.81276041666666,46.68263883235413L186.05345052083334,55.09629146362757L186.294140625,55.631419420870635L186.53483072916669,41.93454889335184L186.77552083333333,46.98272892879216L187.01621093749998,50.53392383722525L187.25690104166665,48.46042997400797L187.49759114583333,49.291357669596906L187.73828125,48.25057467899622L187.97897135416667,64.98673997570216L188.21966145833332,66.0245980682918L188.4603515625,64.67018181460789L188.70104166666667,76.03258974062021L188.94173177083334,78.66259644691118L189.18242187500002,72.54852260508518L189.4231119791667,75.85630682324397L189.6638020833333,60.64090209493056L189.90449218749998,66.49527144723545L190.14518229166666,78.09209763701803L190.38587239583333,90.54804422674208L190.6265625,82.26959183107392L190.86725260416668,77.60710665160762L191.10794270833333,78.90540254458395L191.3486328125,77.82359753337268L191.58932291666667,77.63895985059004L191.83001302083335,69.53188233239685L192.07070312500002,73.55280780710719L192.31139322916667,76.65631545971597L192.55208333333331,68.53425709122875L192.7927734375,72.19089717694796L193.03346354166666,96.11406398671076L193.27415364583334,94.71369363342049L193.51484375,84.00970565720988L193.75553385416666,69.23315440323707L193.99622395833333,57.35109518710826L194.2369140625,58.11271354880363L194.47760416666668,65.04926627472896L194.71829427083335,62.91208425519382L194.958984375,73.68678916548201L195.19967447916665,70.91723487052029L195.44036458333332,79.69920044227068L195.6810546875,72.7812610833861L195.92174479166667,71.4221788530956L196.16243489583334,66.76262917312447L196.40312500000002,64.04825568075456L196.64381510416666,64.11285332605527L196.88450520833334,74.24656993249229L197.1251953125,82.03795615016922L197.36588541666666,76.80283289420309L197.60657552083333,73.10244742672266L197.847265625,79.12320299888029L198.08795572916665,79.7157423635982L198.32864583333333,84.61626542929783L198.5693359375,68.33797689511762L198.81002604166667,62.88745340010158L199.05071614583335,72.01087242305654L199.29140625,84.04611224854219L199.53209635416667,79.45239953830378L199.77278645833334,80.75942130943857L200.0134765625,72.7053976777835L200.25416666666666,67.40389879725237L200.49485677083334,71.50812939752257L200.73554687499998,59.21625236480901L200.97623697916666,52.76585102921408L201.21692708333333,44.04994838741829L201.4576171875,42.58362125937587L201.69830729166668,54.77032493343619L201.93899739583335,50.50824672931831L202.1796875,55.495602162804616L202.42037760416665,51.75455298431301L202.66106770833332,55.00009298329105L202.9017578125,44.10974185469479L203.14244791666667,32.45923430921276L203.38313802083334,36.02684459448837L203.623828125,35.47077699518789L203.86451822916666,33.638663730720246L204.10520833333334,37.41221358877393L204.3458984375,52.07004012645467L204.58658854166669,45.47188721407166L204.82727864583333,46.74615037148421L205.06796874999998,40.731079309613854L205.30865885416665,48.85897872533283L205.54934895833333,50.69794499925303L205.7900390625,53.20659529239851L206.03072916666667,53.35526787204098L206.27141927083332,47.131935738101895L206.512109375,50.26916192923505L206.75279947916667,46.3726395568521L206.99348958333334,48.44659619577355L207.23417968750002,49.060474647567425L207.4748697916667,45.59891880720006L207.7155598958333,44.20432551842417L207.95624999999998,44.309035571464825L208.19694010416666,39.90814484122331L208.43763020833333,32.6606256971534L208.6783203125,54.75977484761335L208.91901041666668,61.893382122389404L209.15970052083333,72.12620490209575L209.400390625,71.52228484044264L209.64108072916667,63.15210523062819L209.88177083333335,63.742796007715896L210.12246093750002,66.51709573741154L210.36315104166667,70.79957551762698L210.60384114583331,82.3575722873523L210.84453125,83.85464465262376L211.08522135416666,94.23314468647173L211.5666015625,78.74809931150158L211.80729166666666,73.44902733821318L212.04798177083333,76.1797268239179L212.288671875,86.7621009258937L212.52936197916668,76.43842901638219L212.77005208333335,73.54549611718099L213.0107421875,81.40711054033423L213.25143229166665,86.01568275944223L213.49212239583332,75.5255250731458L213.7328125,78.02327507730423L213.97350260416667,79.91648097274361L214.21419270833334,78.32299484394585L214.45488281250002,70.65116729249117L214.69557291666666,67.13139513677096L214.93626302083334,82.56588792053304L215.176953125,77.27524027375841L215.41764322916666,73.5091332790164L215.65833333333333,64.96593587618517L215.8990234375,60.908102566131646L216.13971354166665,62.85897922881167L216.38040364583333,71.22078409414125L216.62109375,69.05988073480506L216.86178385416667,70.38676755030382L217.10247395833335,72.81787113427775L217.3431640625,68.91522745656762L217.58385416666667,64.35148717622636L217.82454427083334,54.968553544644564L218.065234375,46.162655497529535L218.30592447916666,41.59612712916043L218.54661458333334,35.01589612994377L218.78730468749998,40.55315344830624L219.02799479166666,51.98521541416806L219.509375,51.286628733039876L219.75006510416668,44.00649739382324L219.99075520833335,36.65209511445558L220.2314453125,40.304395486870966L220.47213541666665,41.429999657845244L220.71282552083332,40.55072506211741L220.953515625,26.936492089882748L221.19420572916667,33.48049956587272L221.43489583333334,30.373844850226153L221.6755859375,33.440951700308254L221.91627604166666,41.56446531492373L222.15696614583334,51.90731748508156L222.39765625,60.533156798879745L222.63834635416669,55.54651266253021L222.87903645833333,62.32462273309245L223.11972656249998,64.52610419672499L223.36041666666665,63.38986971903901L223.60110677083333,63.02921792822518L223.841796875,65.97929797266387L224.08248697916667,60.5969978838829L224.32317708333332,56.773449661115876L224.5638671875,61.594745007622265L224.80455729166667,71.87024628130676L225.04524739583334,71.27486709480334L225.28593750000002,71.00634285285979L225.5266276041667,67.87854749485797L225.7673177083333,63.21570929601754L226.00800781249998,64.38911328741888L226.24869791666666,70.82460168140518L226.48938802083333,69.0815520473563L226.730078125,72.43773534943122L226.97076822916668,78.0483388224212L227.21145833333333,75.09422455543087L227.4521484375,68.82765007921343L227.69283854166667,59.80250389878918L227.93352864583335,66.50404092493635L228.17421875000002,65.8885681249081L228.41490885416667,71.67631907089823L228.65559895833331,74.98024177327318L228.8962890625,70.5015389429007L229.13697916666666,64.21585862079107L229.37766927083334,69.182422753804L229.618359375,69.42560631074491L229.85904947916666,75.22369495176068L230.09973958333333,63.226937422411396L230.3404296875,68.91705094412372L230.58111979166668,66.67356698653343L231.0625,65.2886190661266L231.30319010416665,54.82499914219825L231.54388020833332,55.009589243238246L231.7845703125,56.45078371066159L232.02526041666667,58.13877687274399L232.50664062500002,63.31417665373673L232.74733072916666,63.48921585018271L232.98802083333334,52.8172678037574L233.2287109375,60.59751444125712L233.46940104166666,77.66385328450525L233.71009114583333,62.52362869071199L233.95078125,65.27620085410615L234.19147135416665,64.32835503776278L234.43216145833333,75.92453186726215L234.6728515625,79.70548823962L234.91354166666667,78.70717464619509L235.15423177083335,73.79323091228981L235.394921875,83.23987943482507L235.63561197916667,89.12832131476466L235.87630208333334,89.04298426682512L236.1169921875,75.18319577440475L236.35768229166666,72.2819329694799L236.59837239583334,70.14511452411958L236.83906249999998,68.33462754664032L237.07975260416666,74.87537621365314L237.32044270833333,74.34928135220007L237.5611328125,86.4020786341655L237.80182291666668,83.87704746583866L238.04251302083335,81.15227837955814L238.283203125,85.64937548873343L238.52389322916665,90.49422776363801L238.76458333333332,90.10177606858319L239.0052734375,85.8837719971985L239.24596354166667,80.07237195343079L239.48665364583334,70.5990449295658L239.72734375,69.59829669154992L239.96803385416666,74.02920182321851L240.20872395833334,74.35068262919417L240.4494140625,73.48748292270083L240.69010416666669,79.99391349400746L240.93079427083333,73.22722968247929L241.17148437499998,72.4239665555203L241.41217447916665,65.38502507491374L241.65286458333333,71.81568442513624L241.8935546875,75.12394372659968L242.13424479166667,59.82643690131931L242.37493489583332,60.17618397726314L242.615625,72.09670993240888L242.85631510416667,62.83755722613464L243.09700520833334,66.88199222905239L243.33769531250002,69.27621493353126L243.5783854166667,66.5035183335166L243.8190755208333,60.46793608813409L244.05976562499998,66.3428658017452L244.54114583333333,79.6949488359055L244.7818359375,73.38884514077671L245.02252604166668,78.32837731304268L245.26321614583333,73.6638683334738L245.50390625,63.47889706824719L245.74459635416667,81.92881992658675L245.98528645833335,77.84200512886466L246.22597656250002,71.84832098198187L246.46666666666667,73.79195512123259L246.70735677083331,77.19933353416533L246.948046875,87.53453374476678L247.18873697916666,95.244921659061L247.42942708333334,87.88966555036824L247.6701171875,87.83345781944824L248.15149739583333,89.83293828953882L248.3921875,79.24416501992691L248.63287760416668,77.90042391582577L248.87356770833335,73.64545471646933L249.1142578125,79.06657021986574L249.35494791666665,76.12986675350147L249.59563802083332,80.42401485114262L249.836328125,84.87393123429399L250.07701822916667,84.10883360935078L250.31770833333334,73.91784916062848L250.55839843750002,64.36695082509337L250.79908854166666,62.4088099737395L251.03977864583334,67.78336774465019L251.28046875,71.45027091000424L251.52115885416666,77.51458995994297L251.76184895833333,74.15583207044818L252.24322916666665,64.14744176288735L252.48391927083333,63.15065961492236L252.724609375,64.35178101904498L253.20598958333335,62.90079694299284L253.4466796875,65.48620881383647L253.68736979166667,70.8044489058556L253.92805989583334,75.07050972895037L254.16875,69.16235355923301L254.40944010416666,61.2510987281187L254.65013020833334,60.66018310543201L254.89082031249998,57.40576640699089L255.13151041666666,70.4552440734731L255.37220052083333,59.43917095494431L255.612890625,55.09242169995403L255.85358072916668,56.54878669344961L256.0942708333333,60.05107706405866L256.3349609375,67.59106479655593L256.5756510416667,67.63950266463094L256.81634114583335,70.45138645900805L257.05703125,76.58862198313187L257.2977213541667,70.44182650637693L257.53841145833337,62.57071840996783L257.7791015625,73.02170537611984L258.01979166666666,74.21990968883719L258.26048177083334,72.149103062753L258.501171875,80.70929292285686L258.7418619791667,78.18598285820632L258.9825520833333,64.7450492948684L259.2232421875,63.72422100605924L259.46393229166665,73.32750957430815L259.7046223958333,61.45028306735405L259.9453125,70.06439538057356L260.1860026041667,62.942035601471126L260.4266927083333,71.96883660670177L260.66738281249997,77.70600525686774L260.90807291666664,66.829818125663L261.1487630208333,78.5214571595775L261.389453125,71.24075828794162L261.63014322916666,60.13884936573219L261.87083333333334,78.06996882201499L262.1115234375,69.7998250355796L262.3522135416667,59.60118623199917L262.59290364583336,62.417530558245524L262.83359375000003,54.190932681403844L263.0742838541667,64.12818756714005L263.3149739583333,72.7840370024117L263.5556640625,71.23117188482715L264.03704427083335,69.24259139459869L264.277734375,72.20091027117692L264.5184244791667,62.51776653109146L264.7591145833333,78.07147355543466L264.9998046875,66.1911001793557L265.24049479166666,62.61457274150929L265.48118489583334,66.67325343723347L265.721875,62.440577943535146L265.96256510416663,80.8553029581377L266.2032552083333,83.05084918287213L266.68463541666665,69.04465987173805L266.9253255208333,64.62950730495507L267.166015625,53.54073946102173L267.4067057291667,59.91884110703297L267.64739583333335,61.70727789839643L267.8880859375,56.98263536954246L268.1287760416667,58.02986496844483L268.3694661458333,69.1191190276062L268.61015625,69.6910042305896L268.85084635416666,80.81680937886891L269.09153645833334,78.16932569194233L269.3322265625,60.6345694151425L269.5729166666667,47.359610591346254L269.81360677083336,56.74908784032715L270.05429687500003,60.68915013194592L270.29498697916665,61.904260838750076L270.5356770833333,54.31566569848243L270.7763671875,48.64717817809214L271.0170572916667,36.56644337002058L271.25774739583335,33.65462037458191L271.49843749999997,32.25530505021912L271.73912760416664,35.01987906360927L271.9798177083333,23.372513375665545L272.2205078125,13.455460120431056" style="fill: none;" fill="none"></path></g></g></g></g><g opacity="0.2"><g><g><g><path stroke="rgb(255, 112, 67)" stroke-width="2px" d="M30.326953125,218.67632446289062L30.567643229166666,138.080269241333L30.808333333333334,155.26817865371706L31.0490234375,206.67542762756347L31.289713541666668,33.069657063484186L31.53040364583333,-8.886377239227302L32.011783854166666,-3.1905948638915858L32.25247395833333,71.45281043052674L32.4931640625,-5.848221492767318L32.73385416666667,10.414566659927376L32.974544270833334,18.65687801837922L33.215234375,-22.544103097915634L33.45592447916667,-67.67776517868043L33.696614583333336,74.78555307388305L33.937304687499996,-7.039903259277336L34.41868489583334,160.4436309814453L34.659375,99.31927099227906L34.900065104166664,64.20287475585937L35.14075520833334,71.29755551815033L35.3814453125,-28.394493198394766L35.622135416666666,2.1498414039611737L35.86282552083333,-1.0263498306274572L36.103515625,-2.0400826930999756L36.34420572916667,37.29828613996506L36.584895833333334,29.644158697128287L36.8255859375,70.78499808311463L37.06627604166666,-17.540603113174424L37.306966145833336,-16.122562837600693L37.54765625,31.781826615333557L37.78834635416666,86.11590452194214L38.02903645833333,43.11867645978927L38.269726562500004,158.03735914230347L38.510416666666664,105.95215501785279L38.75110677083333,172.21799106597902L38.991796875000006,1.3903873443603476L39.232486979166666,12.382321405410762L39.47317708333333,33.214450883865354L39.7138671875,81.61296672821045L39.95455729166667,79.65602107048035L40.195247395833334,163.70059967041016L40.4359375,162.44226398468018L40.67662760416667,234.74641208648683L40.917317708333336,198.0186511993408L41.158007812499996,166.98854846954347L41.39869791666667,159.66671772003176L41.63938802083333,81.78859000205993L41.880078125,84.73202300071716L42.12076822916667,-62.36954822540284L42.36145833333333,188.35694789886475L42.6021484375,45.28588157892227L42.84283854166667,25.05336470603943L43.08352864583333,139.8708601951599L43.32421875,80.4290002822876L43.56490885416667,197.72100448608398L43.805598958333334,213.89027938842773L44.0462890625,136.93318185806274L44.28697916666666,141.78727283477784L44.527669270833336,88.58230323791504L44.768359375,129.988570022583L45.00904947916666,108.43935708999634L45.24973958333334,130.4958969116211L45.4904296875,196.61393661499022L45.731119791666664,156.27893657684328L45.97180989583334,85.88315052986145L46.2125,91.70670676231384L46.453190104166666,161.2688901901245L46.69388020833333,138.91303157806396L46.9345703125,159.77072601318358L47.17526041666667,73.60016918182373L47.41595052083333,123.07007484436035L47.656640625,131.62820720672607L47.89733072916667,149.83185682296752L48.13802083333333,145.50340919494627L48.3787109375,151.20106735229493L48.61940104166667,189.77132148742675L48.86009114583333,64.86405608654022L49.100781250000004,140.85417737960816L49.341471354166664,149.57059688568117L49.58216145833333,167.99367055892944L49.8228515625,100.48485307693481L50.063541666666666,140.6887605667114L50.30423177083333,143.82382888793947L50.544921875,197.2677442550659L50.78561197916667,122.64424686431884L51.026302083333334,64.5027091741562L51.266992187499994,43.64597915410995L51.50768229166667,48.385805511474615L51.748372395833336,198.81668186187744L51.989062499999996,153.53996381759643L52.22975260416667,101.71333327293397L52.47044270833334,83.68282852172851L52.7111328125,46.887708705663684L52.951822916666664,105.97820377349854L53.19251302083334,98.64578461647034L53.433203125,107.27084674835206L53.673893229166666,84.22621965408325L53.91458333333333,94.09189090728759L54.1552734375,84.27135300636292L54.39596354166667,35.730879825353625L54.636653645833334,79.73792314529419L54.87734375,60.334247291088104L55.11803385416666,104.19838371276856L55.358723958333336,153.06335391998292L55.5994140625,170.18556003570555L55.84010416666666,157.08679599761965L56.08079427083333,145.96520805358887L56.321484375000004,79.91241118907928L56.562174479166664,79.97657396793366L56.80286458333333,95.32202196121216L57.043554687500006,97.96470174789428L57.284244791666666,143.43109445571898L57.52493489583333,165.51625480651856L57.765625,134.10131969451905L58.00631510416667,85.9726915359497L58.247005208333334,113.40056710243225L58.4876953125,96.65461654663086L58.72838541666667,104.47419581413268L58.969075520833336,81.23416485786439L59.209765624999996,81.84446029663086L59.45045572916667,106.81536273956299L59.69114583333333,81.1559506893158L59.9318359375,78.5892082452774L60.17252604166667,109.42202496528625L60.41321614583333,119.60067596435547L60.65390625,152.34172954559327L60.89459635416667,117.8111629486084L61.13528645833333,113.5556586265564L61.3759765625,98.29679155349731L61.61666666666667,36.48191249370575L61.857356770833334,58.72068538665772L62.098046875,45.82550576329231L62.33873697916666,66.10955200195312L62.579427083333336,78.9918966293335L62.8201171875,86.96890153884888L63.06080729166666,50.94144179821015L63.30149739583334,123.95788841247558L63.5421875,113.71173896789551L63.782877604166664,64.39983611106872L64.02356770833333,127.06829996109009L64.2642578125,109.9043173789978L64.50494791666667,93.32532415390014L64.74563802083333,99.82338104248046L64.986328125,85.05185232162475L65.22701822916666,101.60808153152466L65.46770833333333,65.34335021972656L65.70839843750001,102.96289267539979L65.94908854166667,166.502126789093L66.18977864583333,150.95585765838624L66.43046875,148.48542728424073L66.67115885416666,101.5066195487976L66.91184895833334,94.88073787689208L67.1525390625,124.44209480285645L67.39322916666667,165.69004049301148L67.63391927083333,92.95063881874084L67.87460937499999,77.00042300224304L68.11529947916667,61.25914680957794L68.35598958333333,58.41870676279068L68.5966796875,95.52871022224426L68.83736979166667,57.414264750480655L69.07805989583333,99.14834566116333L69.31875,82.69174509048462L69.55944010416667,100.94297676086425L69.80013020833333,109.85280551910401L70.0408203125,125.83805856704711L70.28151041666668,149.51288051605226L70.52220052083334,85.36125025749206L70.762890625,94.01041321754455L71.00358072916666,88.12969655990601L71.4849609375,63.86545467376709L71.72565104166667,146.98152542114258L71.96634114583334,112.14193434715271L72.20703125,82.017617893219L72.44772135416667,64.43675549030304L72.68841145833333,98.7803231716156L72.9291015625,101.19235391616822L73.16979166666667,119.80243711471557L73.651171875,99.16923389434814L73.89186197916668,97.8474271774292L74.13255208333332,57.80662360191346L74.3732421875,59.652898120880124L74.61393229166667,89.09398431777954L74.85462239583333,88.92860994338989L75.0953125,80.86784839630127L75.33600260416667,98.01994819641114L75.57669270833333,124.01023206710815L75.8173828125,121.48798427581787L76.05807291666666,133.95740222930908L76.29876302083333,129.7546404838562L76.53945312500001,157.2656318664551L76.78014322916665,83.58855137825012L77.02083333333333,71.38161134719849L77.2615234375,55.404642295837405L77.50221354166666,49.64184686541557L77.74290364583334,58.56636199951171L77.98359375000001,98.80180130004882L78.46497395833333,73.3341922044754L78.7056640625,78.53827142715454L78.94635416666667,40.91425170898438L79.18704427083334,17.686065340042123L79.427734375,73.21934087276459L79.66842447916666,58.692871189117426L79.90911458333333,53.0174168586731L80.14980468750001,65.93877308368683L80.39049479166667,71.72353839874268L80.63118489583333,51.53596496582031L80.871875,93.18538317680358L81.11256510416666,112.67898941040039L81.35325520833334,100.21775360107422L81.5939453125,36.19976644515991L81.83463541666667,127.84561214447021L82.07532552083333,65.7080412864685L82.31601562499999,62.88162822723389L82.55670572916667,14.50167074203492L82.79739583333334,29.80136578083038L83.0380859375,84.70383534431457L83.27877604166666,104.76832013130188L83.51946614583333,93.77628846168518L83.76015625,112.84022178649903L84.00084635416667,99.82151374816894L84.24153645833334,136.21734609603882L84.48222656249999,114.58514041900635L84.72291666666666,105.41245603561401L84.96360677083334,129.4646921157837L85.204296875,75.32484040260314L85.44498697916667,119.0965913772583L85.68567708333335,92.46953043937683L85.92636718749999,59.69435205459595L86.16705729166667,71.65169849395753L86.40774739583334,83.11859583854675L86.6484375,89.62741088867188L86.88912760416667,105.03750758171081L87.12981770833333,80.43773412704468L87.3705078125,86.7110833644867L87.61119791666667,99.77895641326904L87.85188802083333,94.41492857933045L88.092578125,123.30902061462402L88.57395833333332,145.10256900787354L88.8146484375,108.26758298873901L89.05533854166667,144.02373123168945L89.29602864583333,143.78537960052492L89.53671875,173.9316155433655L89.77740885416667,164.0108506202698L90.01809895833333,151.88999710083007L90.2587890625,95.2332745552063L90.49947916666667,153.48391103744507L90.74016927083333,182.74027938842772L90.980859375,120.30627555847168L91.22154947916667,112.82606854438782L91.46223958333333,133.9051604270935L91.7029296875,155.24973487854004L91.94361979166668,171.8538601875305L92.18430989583332,190.60325202941894L92.425,145.40900897979736L92.66569010416667,152.15814905166624L92.90638020833333,150.63201789855955L93.1470703125,123.93403797149658L93.38776041666667,175.4897792816162L93.869140625,156.77205505371094L94.35052083333333,114.55980463027954L94.59121093750001,115.44965100288391L94.83190104166665,97.52975373268127L95.07259114583333,141.28337497711183L95.31328125,140.38849964141846L95.55397135416666,159.3051416397095L95.79466145833334,125.25186395645142L96.03535156250001,139.54864158630372L96.27604166666666,119.42443733215332L96.51673177083333,105.23528375625611L96.757421875,154.97804355621338L96.99811197916667,171.3158417701721L97.23880208333334,133.75407934188843L97.4794921875,200.25908184051514L97.72018229166666,125.24637241363526L98.20156250000001,100.37252683639527L98.44225260416667,104.84904665946961L98.68294270833333,119.70001602172852L98.9236328125,118.66331968307495L99.16432291666666,89.64798507690429L99.645703125,100.4973045349121L99.88639322916667,109.26998476982116L100.12708333333333,84.79470043182373L100.36777343749999,94.52658429145814L100.60846354166667,100.20825586318969L100.84915364583334,156.8611759185791L101.08984375,119.00057001113892L101.33053385416666,83.96592307090759L101.57122395833333,108.06501550674439L101.8119140625,66.45228750705719L102.05260416666667,63.25047402381897L102.29329427083334,41.202830374240875L102.53398437499999,79.29713559150696L102.77467447916666,85.43806819915771L103.01536458333334,95.90829296112061L103.2560546875,98.96431956291198L103.49674479166667,126.79999523162842L103.73743489583335,142.09125137329102L103.97812499999999,123.92030487060546L104.21881510416667,131.24894275665284L104.45950520833334,93.64023060798645L104.7001953125,118.02027444839477L104.94088541666667,124.43911561965942L105.18157552083333,89.1986334323883L105.422265625,134.40514545440672L105.66295572916667,106.48971509933472L105.90364583333333,76.54361491203308L106.1443359375,76.22090826034545L106.38502604166668,68.69680922031402L106.62571614583332,82.78109936714172L106.86640625,114.55789489746094L107.10709635416667,91.03072500228882L107.34778645833333,63.95886182785034L107.5884765625,94.40791773796082L107.82916666666667,91.89109783172607L108.06985677083333,128.42095098495483L108.310546875,86.82943587303161L108.55123697916667,97.58785629272461L108.79192708333333,89.10804843902588L109.0326171875,100.11837959289551L109.27330729166667,78.51824257373809L109.51399739583333,103.58918743133545L109.7546875,91.44107990264892L109.99537760416668,91.95208196640014L110.23606770833332,122.62942733764649L110.4767578125,95.03821444511414L110.71744791666667,119.80906600952149L110.95813802083333,99.49754667282104L111.198828125,106.03752007484437L111.43951822916667,127.0992036819458L111.68020833333333,131.0834750175476L111.9208984375,88.3793071269989L112.16158854166666,115.87759666442871L112.40227864583333,120.5961814880371L112.64296875000001,82.13846578598023L112.88365885416665,148.4994150161743L113.3650390625,160.8083390235901L113.60572916666666,154.93765058517457L113.84641927083334,120.97481784820556L114.08710937500001,124.13993263244629L114.32779947916666,138.12863216400146L114.56848958333333,142.26906871795654L114.8091796875,121.26903553009033L115.04986979166667,136.10904302597046L115.29055989583334,112.858491563797L115.53125,100.0572214603424L115.77194010416666,139.49724006652832L116.01263020833333,133.90252075195312L116.25332031250001,152.7567526817322L116.49401041666667,102.72153215408325L116.73470052083333,110.60452303886413L116.975390625,97.98944339752197L117.21608072916666,96.19258852005005L117.45677083333334,62.190381336212155L117.6974609375,61.695563197135925L117.93815104166667,105.15417528152466L118.17884114583333,79.20408067703247L118.41953124999999,140.83191413879396L118.66022135416667,99.61190147399903L118.90091145833334,81.15306911468505L119.38229166666666,79.32798838615417L119.62298177083333,82.82954292297363L119.863671875,106.72683176994323L120.10436197916667,75.95950403213502L120.34505208333334,76.57588939666748L120.58574218749999,110.52946629524232L120.82643229166666,94.66994581222534L121.06712239583334,51.601806187629705L121.3078125,92.83256216049195L121.54850260416667,109.1430214881897L121.78919270833335,85.9050063610077L122.02988281249999,84.43092179298401L122.27057291666667,118.47107324600219L122.51126302083334,83.21406974792481L122.751953125,125.47043075561524L122.99264322916667,84.5422592163086L123.23333333333333,67.10381195545196L123.4740234375,71.40296852588654L123.71471354166667,75.37259857654571L123.95540364583333,92.98119029998779L124.19609375,74.92365009784699L124.43678385416668,83.26292071342468L124.9181640625,108.44962720870971L125.15885416666667,105.60949802398682L125.39954427083333,117.5825382232666L125.640234375,124.59133405685425L125.88092447916667,108.34105253219604L126.12161458333333,117.84569940567016L126.3623046875,75.9049663066864L126.60299479166667,121.09121818542481L126.84368489583333,93.84665575027466L127.084375,108.70683851242066L127.32506510416667,153.70530424118041L127.56575520833333,116.89338779449463L127.8064453125,158.41507034301756L128.28782552083334,150.99004611968994L128.528515625,122.82360897064208L128.76920572916669,131.42998542785645L129.00989583333333,135.69291648864746L129.2505859375,106.426850938797L129.49127604166665,148.96479568481445L129.73196614583333,147.59703655242922L129.97265625,149.98125734329224L130.21334635416665,155.68471260070802L130.45403645833332,137.43129110336304L130.6947265625,101.58718905448913L130.93541666666667,137.94577312469482L131.17610677083334,145.85061559677123L131.41679687500002,129.51317386627196L131.65748697916666,130.96398515701296L131.89817708333334,124.14098510742187L132.1388671875,123.40167236328125L132.37955729166666,135.7214521408081L132.62024739583333,113.48246917724609L132.8609375,138.00954971313476L133.10162760416665,113.10772867202759L133.34231770833333,113.54553279876708L133.5830078125,89.94009356498718L133.82369791666667,106.51997375488281L134.06438802083335,125.80941257476806L134.305078125,130.3553999900818L134.54576822916667,124.99411792755127L134.78645833333334,118.64874629974365L135.02714843750002,107.69799456596374L135.26783854166666,110.3472056388855L135.50852864583334,96.56238918304443L135.74921874999998,62.83776378631592L135.98990885416666,97.65875406265259L136.23059895833333,107.32104301452637L136.4712890625,90.38033790588379L136.71197916666665,114.09939775466918L136.95266927083333,105.31817464828491L137.193359375,107.32642421722412L137.43404947916667,71.14884674549103L137.67473958333335,71.57766451835633L137.9154296875,119.79017238616943L138.15611979166667,80.72640933990479L138.39680989583334,106.16106281280517L138.6375,99.42987422943115L138.87819010416666,86.2209186077118L139.11888020833334,110.68602619171142L139.35957031249998,99.70719289779663L139.60026041666666,89.30362629890442L139.84095052083333,104.95339870452881L140.081640625,93.91464223861695L140.32233072916668,116.61967639923095L140.56302083333335,70.58611426353454L140.8037109375,110.65067491531372L141.04440104166667,106.89378910064697L141.28509114583335,130.2391863822937L141.52578125,128.7145915031433L141.76647135416667,85.43591656684876L142.00716145833331,105.39639730453491L142.2478515625,54.09974201917649L142.48854166666666,42.33765621185303L142.72923177083334,66.11274337768555L142.969921875,95.60386033058167L143.45130208333333,88.6422221660614L143.6919921875,93.52076621055603L143.93268229166668,80.44238114356995L144.17337239583333,102.72794036865234L144.4140625,78.00328948497773L144.65475260416667,59.79046466350556L145.1361328125,58.0726780295372L145.37682291666667,74.06309902667999L145.61751302083334,93.60566020011902L145.858203125,83.62820167541504L146.09889322916666,107.37779178619385L146.33958333333334,112.41002688407897L146.58027343749998,88.64239616394043L146.82096354166666,66.95006148815155L147.06165364583333,78.67321739196777L147.30234375,34.26399548053742L147.54303385416668,50.83028261661529L147.78372395833335,81.55927352905273L148.0244140625,116.44628114700318L148.26510416666665,51.0397251367569L148.50579427083332,40.26201164126397L148.746484375,71.83472516536713L148.98717447916667,40.91111232042313L149.22786458333334,57.741590833663935L149.4685546875,58.001299643516546L149.70924479166666,61.916378176212305L149.94993489583334,53.834714603424075L150.190625,76.35325698852539L150.43131510416669,30.803442907333377L150.67200520833333,43.75998383760452L151.634765625,28.917103254795084L151.87545572916667,53.1718988597393L152.11614583333332,57.59515146017074L152.3568359375,27.54586310386658L152.59752604166667,38.88054858446121L152.83821614583334,5.62208366394043L153.07890625000002,4.449787807464603L153.3195963541667,53.09849403500557L153.5602864583333,19.321883058547964L153.80097656249998,18.57738857269287L154.04166666666666,34.149842262268066L154.28235677083333,35.3609820842743L154.523046875,48.079846155643466L154.76373697916668,18.213788175582895L155.00442708333333,43.71827368140221L155.2451171875,77.25764491558076L155.48580729166667,31.95143529176713L155.72649739583335,46.88545495569706L155.96718750000002,60.20756410360336L156.20787760416667,100.38231739997863L156.44856770833331,61.60519251823425L156.6892578125,71.8447003364563L156.92994791666666,67.77676572799683L157.17063802083334,64.11149616241455L157.411328125,99.23872270584107L157.65201822916666,88.66885232925415L157.89270833333333,86.2261173248291L158.1333984375,102.15932803153991L158.37408854166668,70.39851696491242L158.61477864583335,102.44317798614502L158.85546875,74.43159258365631L159.09615885416665,65.34493317604066L159.33684895833332,47.23665137290955L159.5775390625,71.35569415092468L159.81822916666667,51.93918117880821L160.05891927083334,67.9438461303711L160.29960937500002,62.35501515865326L160.54029947916666,53.751147878170016L160.78098958333334,87.27503595352172L161.0216796875,82.29042959213257L161.26236979166666,99.14405937194825L161.50305989583333,88.4613450050354L161.74375,69.20269532203675L161.98444010416665,82.87843208312988L162.22513020833333,105.94568738937377L162.4658203125,81.35038695335388L162.70651041666667,92.19179162979125L162.94720052083335,80.42314376831055L163.187890625,93.73763122558594L163.42858072916667,73.97811167240143L163.66927083333334,51.65237272977829L163.9099609375,82.23379964828491L164.15065104166666,81.70088658332824L164.39134114583334,69.05917465686798L164.63203124999998,73.39621396064759L164.87272135416666,121.6063367843628L165.11341145833333,80.65265970230102L165.3541015625,109.41647400856019L165.59479166666668,113.04971523284912L165.83548177083335,97.5556836605072L166.076171875,89.16509003639221L166.55755208333332,78.28224840164185L166.7982421875,79.93416516780853L167.03893229166667,80.42509169578553L167.27962239583334,84.88126225471497L167.5203125,69.02134709358215L167.76100260416666,63.06942710876464L168.00169270833334,75.79076216220855L168.2423828125,51.669879144430155L168.48307291666669,45.12860924601554L168.72376302083333,75.00739824771881L168.96445312499998,105.95268125534058L169.20514322916665,79.88753798007966L169.44583333333333,51.375656688213354L169.6865234375,33.675956916809085L169.92721354166667,56.704761874675754L170.16790364583332,56.65498362779617L170.64928385416667,70.86097362041474L170.88997395833334,93.06863484382629L171.13066406250002,81.5870283126831L171.3713541666667,135.9472759246826L171.6120442708333,93.30719442367554L171.85273437499998,99.0194938659668L172.09342447916666,107.26475257873535L172.33411458333333,44.82719890028238L172.5748046875,55.784954977035525L172.81549479166668,74.68257179260254L173.05618489583333,63.07289645671844L173.296875,64.3881888628006L173.53756510416667,64.63037905693054L173.77825520833335,59.47874746322631L174.01894531250002,50.212182736396784L174.25963541666667,41.08775411844253L174.50032552083331,23.80887246131897L174.741015625,42.04139882922172L174.98170572916666,23.418047761917105L175.22239583333334,28.76206583976746L175.4630859375,55.803682029247284L175.70377604166666,89.82443590164185L175.94446614583333,76.73951106071472L176.18515625,56.11676999330521L176.42584635416668,38.15400293469429L176.66653645833335,38.061407417058945L176.9072265625,40.92267230451107L177.14791666666665,61.04370030164719L177.38860677083332,101.34778070449829L177.629296875,93.71645441055298L177.86998697916667,87.60696024894715L178.11067708333334,48.50047037899495L178.35136718750002,49.772360658645624L178.59205729166666,60.31738859415054L178.83274739583334,52.06144598722457L179.0734375,48.3605439901352L179.31412760416666,79.09490761756896L179.55481770833333,69.79569706916809L179.7955078125,99.01147298812866L180.03619791666665,102.78557186126709L180.27688802083333,92.3579044342041L180.517578125,67.58503279685974L180.75826822916667,107.02918491363525L180.99895833333335,97.33379817008972L181.2396484375,49.988529682159424L181.48033854166667,48.740058827400205L181.96171875,51.39952092170715L182.20240885416666,39.506152123212814L182.44309895833334,39.22346975803376L182.68378906249998,31.36049287319183L182.92447916666666,42.993986821174616L183.16516927083333,36.183589947223666L183.405859375,52.19645136594772L183.64654947916668,50.24893766641617L183.88723958333335,70.27236001491546L184.1279296875,74.4370735168457L184.36861979166665,50.76353108882904L184.60930989583332,63.542607975006106L184.85,59.251323747634885L185.09069010416667,61.59112097024918L185.33138020833334,46.40919968485832L185.5720703125,52.551886594295496L185.81276041666666,35.73267550468445L186.05345052083334,67.71677041053772L186.294140625,56.43411135673523L186.53483072916669,21.38924310207366L186.77552083333333,54.554998981952664L187.01621093749998,55.86071619987487L187.25690104166665,45.35018917918205L187.49759114583333,50.53774921298027L187.73828125,46.68940019309521L187.97897135416667,90.09098792076111L188.21966145833332,67.58138520717621L188.4603515625,62.63855743408203L188.70104166666667,93.07620162963867L188.94173177083334,82.60760650634765L189.18242187500002,63.37741184234619L189.4231119791667,80.81798315048218L189.6638020833333,37.817795002460485L189.90449218749998,75.27682547569275L190.14518229166666,95.48733692169189L190.38587239583333,109.23196411132812L190.6265625,69.85191323757172L190.86725260416668,70.61337888240814L191.10794270833333,80.85284638404846L191.3486328125,76.20089001655579L191.58932291666667,77.36200332641602L191.83001302083335,57.371266055107114L192.07070312500002,79.58419601917267L192.31139322916667,81.31157693862914L192.55208333333331,56.35116953849793L192.7927734375,77.67585730552673L193.03346354166666,131.99881420135497L193.27415364583334,92.61313810348511L193.51484375,67.95372369289399L193.75553385416666,47.068327522277826L193.99622395833333,39.528006362915036L194.2369140625,59.255141091346744L194.47760416666668,75.45409536361694L194.71829427083335,59.70631122589111L194.958984375,89.8488465309143L195.19967447916665,66.76290342807769L195.44036458333332,92.87214879989624L195.6810546875,62.4043520450592L195.92174479166667,69.3835555076599L196.16243489583334,59.77330465316773L196.40312500000002,59.97669544219971L196.64381510416666,64.20974979400634L196.88450520833334,89.44714484214782L197.1251953125,93.72503547668457L197.36588541666666,68.95014801025391L197.60657552083333,67.55186922550202L197.847265625,88.1543363571167L198.08795572916665,80.60455141067504L198.32864583333333,91.96705002784729L198.5693359375,43.92054409384727L198.81002604166667,54.71166815757752L199.05071614583335,85.69600095748902L199.29140625,102.09897198677064L199.53209635416667,72.56183047294617L199.77278645833334,82.71995396614075L200.0134765625,60.6243622303009L200.25416666666666,59.45165047645568L200.49485677083334,77.66447529792785L200.73554687499998,40.77843681573867L200.97623697916666,43.09024902582169L201.21692708333333,30.97609442472458L201.4576171875,40.38413056731224L201.69830729166668,73.05038044452667L201.93899739583335,44.11512942314148L202.1796875,62.97663531303405L202.42037760416665,46.142979216575625L202.66106770833332,59.86840298175812L202.9017578125,27.774215161800385L203.14244791666667,14.98347299098968L203.38313802083334,41.378260022401804L203.623828125,34.63667559623718L203.86451822916666,30.890493834018717L204.10520833333334,43.07253837585449L204.3458984375,74.05677993297577L204.58658854166669,35.57465784549713L204.82727864583333,48.65754510760307L205.06796874999998,31.708472716808316L205.30865885416665,61.05082784891128L205.54934895833333,53.456394410133356L205.7900390625,56.96957073211669L206.03072916666667,53.578276741504666L206.27141927083332,37.7969375371933L206.512109375,54.97500121593475L206.75279947916667,40.52785599827766L206.99348958333334,51.557531154155726L207.23417968750002,49.98129232525825L207.4748697916667,40.406585046648985L207.7155598958333,42.112435585260386L207.95624999999998,44.46610065102577L208.19694010416666,33.30680874586105L208.43763020833333,21.78934698104858L208.6783203125,87.90849857330322L208.91901041666668,72.59379303455353L209.15970052083333,87.47543907165527L209.400390625,70.61640474796295L209.64108072916667,50.59683581590653L209.88177083333335,64.62883217334748L210.12246093750002,70.67854533195495L210.36315104166667,77.22329518795013L210.60384114583331,99.69456744194031L210.84453125,86.100253200531L211.08522135416666,109.80089473724365L211.5666015625,55.52053124904633L211.80729166666666,65.50041937828064L212.04798177083333,80.27577605247498L212.288671875,102.63566207885742L212.52936197916668,60.95292115211487L212.77005208333335,69.20609676837921L213.0107421875,93.19953217506409L213.25143229166665,92.92854108810425L213.49212239583332,59.790288543701166L213.7328125,81.76990008354187L213.97350260416667,82.7562898159027L214.21419270833334,75.9327656507492L214.45488281250002,59.14342596530915L214.69557291666666,61.85173690319061L214.93626302083334,105.71762709617614L215.176953125,69.3392688035965L215.41764322916666,67.85997278690338L215.65833333333333,52.15113977193832L215.8990234375,54.82135260105133L216.13971354166665,65.78529422283172L216.38040364583333,83.76349139213562L216.62109375,65.81852569580079L216.86178385416667,72.37709777355194L217.10247395833335,76.46452651023864L217.3431640625,63.06126194000244L217.58385416666667,57.50587675571441L217.82454427083334,40.894153097271925L218.065234375,32.953808426856995L218.30592447916666,34.746334576606756L218.54661458333334,25.145549631118765L218.78730468749998,48.859039425849915L219.02799479166666,69.13330836296082L219.509375,50.23874871134758L219.75006510416668,33.086300384998324L219.99075520833335,25.620491695404056L220.2314453125,45.78284604549408L220.47213541666665,43.118405914306635L220.71282552083332,39.23181316852569L220.953515625,6.5151426315307654L221.19420572916667,43.29651077985764L221.43489583333334,25.713862776756287L221.6755859375,38.04161197543144L221.91627604166666,53.74973573684693L222.15696614583334,67.4215957403183L222.39765625,73.47191576957702L222.63834635416669,48.0665464580059L222.87903645833333,72.49178783893585L223.11972656249998,67.82832639217376L223.36041666666665,61.685518002510065L223.60110677083333,62.488240242004395L223.841796875,70.4044180393219L224.08248697916667,52.523547750711444L224.32317708333332,51.03812732696534L224.5638671875,68.82668802738189L224.80455729166667,87.2834981918335L225.04524739583334,70.38179831504821L225.28593750000002,70.60355648994445L225.5266276041667,63.18685445785522L225.7673177083333,56.22145199775696L226.00800781249998,66.14921927452087L226.24869791666666,80.47783427238464L226.48938802083333,66.46697759628296L226.730078125,77.47201030254364L226.97076822916668,86.46424403190613L227.21145833333333,70.66305315494537L227.4521484375,59.427788364887235L227.69283854166667,46.26478462815285L227.93352864583335,76.5563464641571L228.17421875000002,64.96535892486573L228.41490885416667,80.35794548988342L228.65559895833331,79.93612582683564L228.8962890625,63.78348469734192L229.13697916666666,54.78733813762665L229.37766927083334,76.63226895332336L229.618359375,69.7903816461563L229.85904947916666,83.9208279132843L230.09973958333333,45.231801128387445L230.3404296875,77.4522212266922L230.58111979166668,63.308341050148016L231.0625,63.211197185516355L231.30319010416665,39.1295692563057L231.54388020833332,55.286474394798276L231.7845703125,58.61257541179657L232.02526041666667,60.67076661586762L232.50664062500002,71.07727632522582L232.74733072916666,63.75177464485168L232.98802083333334,36.80934573411942L233.2287109375,72.26788439750672L233.46940104166666,103.26336154937744L233.71009114583333,39.81329180002213L233.95078125,69.40505909919739L234.19147135416665,62.906586313247686L234.43216145833333,93.31879711151123L234.6728515625,85.37692279815674L234.91354166666667,77.20970425605773L235.15423177083335,66.42231531143189L235.394921875,97.40985221862793L235.63561197916667,97.96098413467408L235.87630208333334,88.91497869491577L236.1169921875,54.393513035774234L236.35768229166666,67.9300387620926L236.59837239583334,66.9398868560791L236.83906249999998,65.61889708042145L237.07975260416666,84.68649921417236L237.32044270833333,73.56013906002045L237.5611328125,104.48127455711365L237.80182291666668,80.08950071334839L238.04251302083335,77.06512475013733L238.283203125,92.39502115249634L238.52389322916665,97.76150617599487L238.76458333333332,89.51309852600097L239.0052734375,79.55676589012145L239.24596354166667,71.35527188777924L239.48665364583334,56.389054393768305L239.72734375,68.09717433452606L239.96803385416666,80.67555952072144L240.20872395833334,74.83290383815765L240.4494140625,72.19268336296082L240.69010416666669,89.75355935096741L240.93079427083333,63.07720396518707L241.17148437499998,71.21907186508179L241.41217447916665,54.82661285400391L241.65286458333333,81.46167345046997L241.8935546875,80.08633267879486L242.13424479166667,36.88017666339874L242.37493489583332,60.700804591178894L242.615625,89.97749886512756L242.85631510416667,48.948828166723246L243.09700520833334,72.94864473342895L243.33769531250002,72.86754899024963L243.5783854166667,62.34447343349457L243.8190755208333,51.414562720060346L244.05976562499998,75.15526037216186L244.54114583333333,99.723073387146L244.7818359375,63.9296895980835L245.02252604166668,85.73767557144166L245.26321614583333,66.66710486412049L245.50390625,48.201440170407295L245.74459635416667,109.60370421409607L245.98528645833335,71.7117829322815L246.22597656250002,62.857794761657715L246.46666666666667,76.70740633010864L246.70735677083331,82.31040115356446L246.948046875,103.03733406066894L247.18873697916666,106.81050353050232L247.42942708333334,76.85678138732911L247.6701171875,87.74914622306824L248.15149739583333,92.83215899467469L248.3921875,63.36100511550903L248.63287760416668,75.88481225967408L248.87356770833335,67.2630009174347L249.1142578125,87.19824347496032L249.35494791666665,71.72481155395508L249.59563802083332,86.86523699760437L249.836328125,91.54880580902099L250.07701822916667,82.96118717193603L250.31770833333334,58.63137248754501L250.55839843750002,50.0406033217907L250.79908854166666,59.47159869670868L251.03977864583334,75.84520440101623L251.28046875,76.95062565803528L251.52115885416666,86.61106853485107L251.76184895833333,69.11769523620606L252.24322916666665,49.134856301546094L252.48391927083333,61.65548639297485L252.724609375,66.15346312522888L253.20598958333335,60.72432082891464L253.4466796875,69.36432662010193L253.68736979166667,78.78180904388428L253.92805989583334,81.46960096359253L254.16875,60.30011930465699L254.40944010416666,49.384216481447226L254.65013020833334,59.77380967140198L254.89082031249998,52.52414135932922L255.13151041666666,90.02946057319642L255.37220052083333,42.91506127715111L255.612890625,48.57229781746864L255.85358072916668,58.73333418369293L256.0942708333333,65.30451261997223L256.3349609375,78.90104639530182L256.5756510416667,67.71215946674347L256.81634114583335,74.66921215057373L257.05703125,85.79447526931763L257.2977213541667,61.2216332912445L257.53841145833337,50.76405626535416L257.7791015625,88.6981858253479L258.01979166666666,76.01721615791321L258.26048177083334,69.04289312362671L258.501171875,93.5495777130127L258.7418619791667,74.40101776123046L258.9825520833333,44.58364894986153L259.2232421875,62.19297857284546L259.46393229166665,87.73244242668152L259.7046223958333,43.63444330692292L259.9453125,82.98556385040283L260.1860026041667,52.25849593281745L260.4266927083333,85.50903811454774L260.66738281249997,86.3117582321167L260.90807291666664,50.51553742885589L261.1487630208333,96.05891571044921L261.389453125,60.31970998048783L261.63014322916666,43.48598598241806L261.87083333333334,104.96664800643921L262.1115234375,57.39460935592652L262.3522135416667,44.30322802662849L262.59290364583336,66.64204704761505L262.83359375000003,41.851035866141316L263.0742838541667,79.03406989574432L263.3149739583333,85.76781115531921L263.5556640625,68.90187420845032L264.03704427083335,66.25972065925598L264.277734375,76.63838858604431L264.5184244791667,47.993050920963285L264.7591145833333,101.40203409194946L264.9998046875,48.37054011523723L265.24049479166666,57.24978158473968L265.48118489583334,72.76127448081971L265.721875,56.09156470298767L265.96256510416663,108.4773904800415L266.2032552083333,86.34416851997375L266.68463541666665,48.03537590503693L266.9253255208333,58.00677845478057L267.166015625,36.90758769512176L267.4067057291667,69.48599357604981L267.64739583333335,64.38993308544158L267.8880859375,49.89567157626152L268.1287760416667,59.6007093667984L268.3694661458333,85.75300011634826L268.61015625,70.54883203506469L268.85084635416666,97.50551710128784L269.09153645833334,74.19810016155243L269.3322265625,34.33243499994278L269.5729166666667,27.44717235565186L269.81360677083336,70.83330371379853L270.05429687500003,66.59924356937408L270.29498697916665,63.72692689895629L270.5356770833333,42.932772988080984L270.7763671875,40.14444689750671L271.0170572916667,18.445341157913205L271.25774739583335,29.28688588142396L271.49843749999997,30.156332063674924L271.73912760416664,39.166740083694464L271.9798177083333,5.9014648437500075L272.2205078125,-1.4201197624206543" style="fill: none;" fill="none"></path></g></g></g></g></g></g><g transform="translate(41, 178)" clip-path="url(#clip_1)"><clipPath id="clip_1"><rect width="288" height="22"></rect></clipPath><g><g><line x1="0" y1="0" x2="0" y2="5" style="visibility: inherit;" fill="rgb(0, 0, 0)" stroke="rgb(204, 204, 204)" stroke-width="1px"></line><line x1="24.069010416666664" y1="0" x2="24.069010416666664" y2="5" style="visibility: inherit;" fill="rgb(0, 0, 0)" stroke="rgb(204, 204, 204)" stroke-width="1px"></line><line x1="48.13802083333333" y1="0" x2="48.13802083333333" y2="5" style="visibility: inherit;" fill="rgb(0, 0, 0)" stroke="rgb(204, 204, 204)" stroke-width="1px"></line><line x1="72.20703125" y1="0" x2="72.20703125" y2="5" style="visibility: inherit;" fill="rgb(0, 0, 0)" stroke="rgb(204, 204, 204)" stroke-width="1px"></line><line x1="96.27604166666666" y1="0" x2="96.27604166666666" y2="5" style="visibility: inherit;" fill="rgb(0, 0, 0)" stroke="rgb(204, 204, 204)" stroke-width="1px"></line><line x1="120.34505208333334" y1="0" x2="120.34505208333334" y2="5" style="visibility: inherit;" fill="rgb(0, 0, 0)" stroke="rgb(204, 204, 204)" stroke-width="1px"></line><line x1="144.4140625" y1="0" x2="144.4140625" y2="5" style="visibility: inherit;" fill="rgb(0, 0, 0)" stroke="rgb(204, 204, 204)" stroke-width="1px"></line><line x1="168.48307291666669" y1="0" x2="168.48307291666669" y2="5" style="visibility: inherit;" fill="rgb(0, 0, 0)" stroke="rgb(204, 204, 204)" stroke-width="1px"></line><line x1="192.55208333333331" y1="0" x2="192.55208333333331" y2="5" style="visibility: inherit;" fill="rgb(0, 0, 0)" stroke="rgb(204, 204, 204)" stroke-width="1px"></line><line x1="216.62109375" y1="0" x2="216.62109375" y2="5" style="visibility: inherit;" fill="rgb(0, 0, 0)" stroke="rgb(204, 204, 204)" stroke-width="1px"></line><line x1="240.69010416666669" y1="0" x2="240.69010416666669" y2="5" style="visibility: inherit;" fill="rgb(0, 0, 0)" stroke="rgb(204, 204, 204)" stroke-width="1px"></line><line x1="264.7591145833333" y1="0" x2="264.7591145833333" y2="5" style="visibility: inherit;" fill="rgb(0, 0, 0)" stroke="rgb(204, 204, 204)" stroke-width="1px"></line><line x1="288.828125" y1="0" x2="288.828125" y2="5" style="visibility: inherit;" fill="rgb(0, 0, 0)" stroke="rgb(204, 204, 204)" stroke-width="1px"></line></g><g transform="translate(0, 8)"><text x="0" y="0" dx="0em" dy="0.95em" style="text-anchor: middle; visibility: hidden; font-family: Roboto, sans-serif; font-size: 12px; font-weight: 200;" fill="rgb(50, 49, 63)" stroke="none" stroke-width="1px">-2k</text><text x="24.069010416666664" y="0" dx="0em" dy="0.95em" style="text-anchor: middle; visibility: inherit; font-family: Roboto, sans-serif; font-size: 12px; font-weight: 200;" fill="rgb(50, 49, 63)" stroke="none" stroke-width="1px">0</text><text x="48.13802083333333" y="0" dx="0em" dy="0.95em" style="text-anchor: middle; visibility: hidden; font-family: Roboto, sans-serif; font-size: 12px; font-weight: 200;" fill="rgb(50, 49, 63)" stroke="none" stroke-width="1px">2k</text><text x="72.20703125" y="0" dx="0em" dy="0.95em" style="text-anchor: middle; visibility: inherit; font-family: Roboto, sans-serif; font-size: 12px; font-weight: 200;" fill="rgb(50, 49, 63)" stroke="none" stroke-width="1px">4k</text><text x="96.27604166666666" y="0" dx="0em" dy="0.95em" style="text-anchor: middle; visibility: hidden; font-family: Roboto, sans-serif; font-size: 12px; font-weight: 200;" fill="rgb(50, 49, 63)" stroke="none" stroke-width="1px">6k</text><text x="120.34505208333334" y="0" dx="0em" dy="0.95em" style="text-anchor: middle; visibility: inherit; font-family: Roboto, sans-serif; font-size: 12px; font-weight: 200;" fill="rgb(50, 49, 63)" stroke="none" stroke-width="1px">8k</text><text x="144.4140625" y="0" dx="0em" dy="0.95em" style="text-anchor: middle; visibility: hidden; font-family: Roboto, sans-serif; font-size: 12px; font-weight: 200;" fill="rgb(50, 49, 63)" stroke="none" stroke-width="1px">10k</text><text x="168.48307291666669" y="0" dx="0em" dy="0.95em" style="text-anchor: middle; visibility: inherit; font-family: Roboto, sans-serif; font-size: 12px; font-weight: 200;" fill="rgb(50, 49, 63)" stroke="none" stroke-width="1px">12k</text><text x="192.55208333333331" y="0" dx="0em" dy="0.95em" style="text-anchor: middle; visibility: hidden; font-family: Roboto, sans-serif; font-size: 12px; font-weight: 200;" fill="rgb(50, 49, 63)" stroke="none" stroke-width="1px">14k</text><text x="216.62109375" y="0" dx="0em" dy="0.95em" style="text-anchor: middle; visibility: inherit; font-family: Roboto, sans-serif; font-size: 12px; font-weight: 200;" fill="rgb(50, 49, 63)" stroke="none" stroke-width="1px">16k</text><text x="240.69010416666669" y="0" dx="0em" dy="0.95em" style="text-anchor: middle; visibility: hidden; font-family: Roboto, sans-serif; font-size: 12px; font-weight: 200;" fill="rgb(50, 49, 63)" stroke="none" stroke-width="1px">18k</text><text x="264.7591145833333" y="0" dx="0em" dy="0.95em" style="text-anchor: middle; visibility: inherit; font-family: Roboto, sans-serif; font-size: 12px; font-weight: 200;" fill="rgb(50, 49, 63)" stroke="none" stroke-width="1px">20k</text><text x="288.828125" y="0" dx="0em" dy="0.95em" style="text-anchor: middle; visibility: hidden; font-family: Roboto, sans-serif; font-size: 12px; font-weight: 200;" fill="rgb(50, 49, 63)" stroke="none" stroke-width="1px">22k</text></g><line x1="0" y1="0" x2="288.828125" y2="0" fill="rgb(0, 0, 0)" stroke="rgb(204, 204, 204)" stroke-width="1px"></line></g></g></g></g></svg>