<svg viewBox="0 0 330 200" xmlns="http://www.w3.org/2000/svg"><g><g><g><g><g><line x1="30.78125" y1="178" x2="25.78125" y2="178" style="visibility: inherit;" fill="rgb(0, 0, 0)" stroke="rgb(204, 204, 204)" stroke-width="1px"></line><line x1="30.78125" y1="155.75" x2="25.78125" y2="155.75" style="visibility: inherit;" fill="rgb(0, 0, 0)" stroke="rgb(204, 204, 204)" stroke-width="1px"></line><line x1="30.78125" y1="133.5" x2="25.78125" y2="133.5" style="visibility: inherit;" fill="rgb(0, 0, 0)" stroke="rgb(204, 204, 204)" stroke-width="1px"></line><line x1="30.78125" y1="111.25" x2="25.78125" y2="111.25" style="visibility: inherit;" fill="rgb(0, 0, 0)" stroke="rgb(204, 204, 204)" stroke-width="1px"></line><line x1="30.78125" y1="89" x2="25.78125" y2="89" style="visibility: inherit;" fill="rgb(0, 0, 0)" stroke="rgb(204, 204, 204)" stroke-width="1px"></line><line x1="30.78125" y1="66.75" x2="25.78125" y2="66.75" style="visibility: inherit;" fill="rgb(0, 0, 0)" stroke="rgb(204, 204, 204)" stroke-width="1px"></line><line x1="30.78125" y1="44.5" x2="25.78125" y2="44.5" style="visibility: inherit;" fill="rgb(0, 0, 0)" stroke="rgb(204, 204, 204)" stroke-width="1px"></line><line x1="30.78125" y1="22.25" x2="25.78125" y2="22.25" style="visibility: inherit;" fill="rgb(0, 0, 0)" stroke="rgb(204, 204, 204)" stroke-width="1px"></line><line x1="30.78125" y1="0" x2="25.78125" y2="0" style="visibility: inherit;" fill="rgb(0, 0, 0)" stroke="rgb(204, 204, 204)" stroke-width="1px"></line></g><g transform="translate(20.78125, 0)"><text x="0" y="178" dx="0em" dy="0.3em" style="text-anchor: end; visibility: hidden; font-family: Roboto, sans-serif; font-size: 12px; font-weight: 200;" fill="rgb(50, 49, 63)" stroke="none" stroke-width="1px">-2</text><text x="0" y="155.75" dx="0em" dy="0.3em" style="text-anchor: end; visibility: inherit; font-family: Roboto, sans-serif; font-size: 12px; font-weight: 200;" fill="rgb(50, 49, 63)" stroke="none" stroke-width="1px">0</text><text x="0" y="133.5" dx="0em" dy="0.3em" style="text-anchor: end; visibility: hidden; font-family: Roboto, sans-serif; font-size: 12px; font-weight: 200;" fill="rgb(50, 49, 63)" stroke="none" stroke-width="1px">2</text><text x="0" y="111.25" dx="0em" dy="0.3em" style="text-anchor: end; visibility: inherit; font-family: Roboto, sans-serif; font-size: 12px; font-weight: 200;" fill="rgb(50, 49, 63)" stroke="none" stroke-width="1px">4</text><text x="0" y="89" dx="0em" dy="0.3em" style="text-anchor: end; visibility: hidden; font-family: Roboto, sans-serif; font-size: 12px; font-weight: 200;" fill="rgb(50, 49, 63)" stroke="none" stroke-width="1px">6</text><text x="0" y="66.75" dx="0em" dy="0.3em" style="text-anchor: end; visibility: inherit; font-family: Roboto, sans-serif; font-size: 12px; font-weight: 200;" fill="rgb(50, 49, 63)" stroke="none" stroke-width="1px">8</text><text x="0" y="44.5" dx="0em" dy="0.3em" style="text-anchor: end; visibility: hidden; font-family: Roboto, sans-serif; font-size: 12px; font-weight: 200;" fill="rgb(50, 49, 63)" stroke="none" stroke-width="1px">10</text><text x="0" y="22.25" dx="0em" dy="0.3em" style="text-anchor: end; visibility: inherit; font-family: Roboto, sans-serif; font-size: 12px; font-weight: 200;" fill="rgb(50, 49, 63)" stroke="none" stroke-width="1px">12</text><text x="0" y="0" dx="0em" dy="0.3em" style="text-anchor: end; visibility: hidden; font-family: Roboto, sans-serif; font-size: 12px; font-weight: 200;" fill="rgb(50, 49, 63)" stroke="none" stroke-width="1px">14</text></g><line x1="30.78125" y1="0" x2="30.78125" y2="178" fill="rgb(0, 0, 0)" stroke="rgb(204, 204, 204)" stroke-width="1px"></line></g></g><g transform="translate(30, 0)" clip-path="url(#clip_0)"><clipPath id="clip_0"><rect width="299" height="178"></rect></clipPath><g><g><g><line x1="0" y1="0" x2="0" y2="178" fill="rgb(0, 0, 0)" stroke="rgb(60, 60, 60)" stroke-width="1px" opacity="0.25"></line><line x1="21.372767857142858" y1="0" x2="21.372767857142858" y2="178" fill="rgb(0, 0, 0)" stroke="rgb(60, 60, 60)" stroke-width="1px" opacity="0.25"></line><line x1="42.745535714285715" y1="0" x2="42.745535714285715" y2="178" fill="rgb(0, 0, 0)" stroke="rgb(60, 60, 60)" stroke-width="1px" opacity="0.25"></line><line x1="64.11830357142857" y1="0" x2="64.11830357142857" y2="178" fill="rgb(0, 0, 0)" stroke="rgb(60, 60, 60)" stroke-width="1px" opacity="0.25"></line><line x1="85.49107142857143" y1="0" x2="85.49107142857143" y2="178" fill="rgb(0, 0, 0)" stroke="rgb(60, 60, 60)" stroke-width="1px" opacity="0.25"></line><line x1="106.86383928571429" y1="0" x2="106.86383928571429" y2="178" fill="rgb(0, 0, 0)" stroke="rgb(60, 60, 60)" stroke-width="1px" opacity="0.25"></line><line x1="128.23660714285714" y1="0" x2="128.23660714285714" y2="178" fill="rgb(0, 0, 0)" stroke="rgb(60, 60, 60)" stroke-width="1px" opacity="0.25"></line><line x1="149.609375" y1="0" x2="149.609375" y2="178" fill="rgb(0, 0, 0)" stroke="rgb(60, 60, 60)" stroke-width="1px" opacity="0.25"></line><line x1="170.98214285714286" y1="0" x2="170.98214285714286" y2="178" fill="rgb(0, 0, 0)" stroke="rgb(60, 60, 60)" stroke-width="1px" opacity="0.25"></line><line x1="192.35491071428572" y1="0" x2="192.35491071428572" y2="178" fill="rgb(0, 0, 0)" stroke="rgb(60, 60, 60)" stroke-width="1px" opacity="0.25"></line><line x1="213.72767857142858" y1="0" x2="213.72767857142858" y2="178" fill="rgb(0, 0, 0)" stroke="rgb(60, 60, 60)" stroke-width="1px" opacity="0.25"></line><line x1="235.10044642857142" y1="0" x2="235.10044642857142" y2="178" fill="rgb(0, 0, 0)" stroke="rgb(60, 60, 60)" stroke-width="1px" opacity="0.25"></line><line x1="256.4732142857143" y1="0" x2="256.4732142857143" y2="178" fill="rgb(0, 0, 0)" stroke="rgb(60, 60, 60)" stroke-width="1px" opacity="0.25"></line><line x1="277.84598214285717" y1="0" x2="277.84598214285717" y2="178" fill="rgb(0, 0, 0)" stroke="rgb(60, 60, 60)" stroke-width="1px" opacity="0.25"></line><line x1="299.21875" y1="0" x2="299.21875" y2="178" fill="rgb(0, 0, 0)" stroke="rgb(60, 60, 60)" stroke-width="1px" opacity="0.25"></line></g><g><line x1="0" y1="178" x2="299.21875" y2="178" fill="rgb(0, 0, 0)" stroke="rgb(60, 60, 60)" stroke-width="1px" opacity="0.25"></line><line x1="0" y1="155.75" x2="299.21875" y2="155.75" fill="rgb(0, 0, 0)" stroke="rgb(60, 60, 60)" stroke-width="1px" opacity="0.25"></line><line x1="0" y1="133.5" x2="299.21875" y2="133.5" fill="rgb(0, 0, 0)" stroke="rgb(60, 60, 60)" stroke-width="1px" opacity="0.25"></line><line x1="0" y1="111.25" x2="299.21875" y2="111.25" fill="rgb(0, 0, 0)" stroke="rgb(60, 60, 60)" stroke-width="1px" opacity="0.25"></line><line x1="0" y1="89" x2="299.21875" y2="89" fill="rgb(0, 0, 0)" stroke="rgb(60, 60, 60)" stroke-width="1px" opacity="0.25"></line><line x1="0" y1="66.75" x2="299.21875" y2="66.75" fill="rgb(0, 0, 0)" stroke="rgb(60, 60, 60)" stroke-width="1px" opacity="0.25"></line><line x1="0" y1="44.5" x2="299.21875" y2="44.5" fill="rgb(0, 0, 0)" stroke="rgb(60, 60, 60)" stroke-width="1px" opacity="0.25"></line><line x1="0" y1="22.25" x2="299.21875" y2="22.25" fill="rgb(0, 0, 0)" stroke="rgb(60, 60, 60)" stroke-width="1px" opacity="0.25"></line><line x1="0" y1="0" x2="299.21875" y2="0" fill="rgb(0, 0, 0)" stroke="rgb(60, 60, 60)" stroke-width="1px" opacity="0.25"></line></g></g></g><g><g><line x1="0" y1="155.75" x2="299.21875" y2="155.75" fill="rgb(0, 0, 0)" stroke="rgb(153, 153, 153)" stroke-width="1.5px"></line></g></g><g><g><line x1="21.372767857142858" y1="0" x2="21.372767857142858" y2="178" fill="rgb(0, 0, 0)" stroke="rgb(153, 153, 153)" stroke-width="1.5px"></line></g></g><g><g><g><g><g><path stroke="rgb(255, 112, 67)" stroke-width="2px" d="M24.193973214285716,155.74926231185418L24.32220982142857,155.74933742944768L24.83515625,155.748953816937L24.96339285714286,155.74880181838168L25.21986607142857,155.74766228972834L25.34810267857143,155.74727498427697L25.476339285714285,155.74713421788715L25.861049107142854,155.74654113108758L25.989285714285714,155.74608860276638L26.11752232142857,155.74523556205477L26.63046875,155.74073956867073L27.784598214285715,155.09001872731992L27.91283482142857,154.39226944903942L28.169308035714284,153.96017063244784L28.682254464285716,153.66432230040095L28.93872767857143,153.33464805788213L29.195200892857144,153.2633672647692L29.3234375,153.1270319695602L29.579910714285713,153.10000836018452L29.83638392857143,152.45070873558194L29.964620535714285,151.79342742589253L30.349330357142854,151.46057241887738L30.477566964285714,151.03857605074572L30.60580357142857,151.4044304833261L30.73404017857143,149.81896300742915L30.862276785714286,143.63894712316684L31.246986607142855,144.52072264731038L31.375223214285715,144.23583621161492L31.63169642857143,145.5904725409539L31.888169642857143,146.12967332702218L32.01640625,145.88633402041233L32.144642857142856,146.25459714394114L32.272879464285715,146.4740853006823L32.65758928571429,147.41680460562324L32.78582589285714,140.8631560712367L32.9140625,138.43345569901803L33.04229910714286,138.8418858275247L33.29877232142857,140.93258556459406L33.683482142857144,141.27249005354113L34.32466517857143,141.33664720017345L34.45290178571429,138.036711551634L34.58113839285714,131.26122962976527L34.709375,133.21184659385398L34.837611607142854,133.38564498060208L34.965848214285714,134.48726500184816L35.60703125,119.38303664298915L36.632924107142856,109.14182738606793L37.01763392857143,101.46766471931787L37.14587053571429,100.36526062528469L38.043526785714285,99.15483788513264L38.42823660714286,93.95598361408048L38.68470982142857,90.59487553545053L38.81294642857143,91.05293371741979L38.94118303571429,90.54650541821076L39.454129464285714,89.48631148742939L39.582366071428574,87.67842338804715L39.710602678571426,90.47663144066584L40.095312500000006,82.50360109683557L40.22354910714286,75.21750241682878L41.121205357142856,65.3224036107413L41.377678571428575,55.70623980819866L41.63415178571429,44.11464888369828L41.76238839285714,35.0312673957096L41.89062500000001,46.57636250918791L42.01886160714286,41.96726258913089L42.53180803571429,48.618219854351345L42.78828125,31.409215165326867L43.17299107142858,43.971858330458346L43.30122767857143,54.237399952346074L43.42946428571428,48.58908031984208L43.685937499999994,40.439264670634486L43.81417410714286,37.791991505398876L43.942410714285714,33.33995778165728L44.32712053571428,33.155455820575185L44.58359375,40.049909253606096L44.71183035714286,38.864215361886565L44.96830357142857,43.86294683683713L45.09654017857143,33.49855447333336L45.481249999999996,34.35709605527687L46.12243303571428,37.44460140414696L46.25066964285715,45.03013951031959L46.37890625,33.01492485075353L46.63537946428571,27.013078216726537L47.020089285714285,15.903762295255026L47.2765625,3.8107163157516446L47.40479910714286,23.512711146262497L47.66127232142857,28.330366098157885L47.91774553571429,34.95733859734077L48.04598214285714,30.67398282644951L48.94363839285714,39.074743585335035L49.96953125,24.694104240266572L50.097767857142856,23.83650834913736L50.22600446428571,18.796134421561273L50.73895089285714,13.176689260801147L51.12366071428571,13.880196782112394L51.50837053571429,10.833636601066754L51.636607142857144,13.87357549625407L52.02131696428571,24.3314154431687L52.14955357142858,10.682946365205416L52.40602678571429,13.634380436615917L52.53426339285714,6.02180262605952L52.662499999999994,18.651501823667324L52.918973214285714,6.425947957756291L53.30368303571428,6.722820409251537L53.431919642857146,2.3210735607822492L53.56015625,16.616134470026477L53.94486607142858,24.66286367495108L54.32957589285714,31.286381067748373L54.97075892857143,29.519533337304292L55.22723214285715,27.73214327165443L55.48370535714285,22.265477674418435L55.61194196428571,33.69081145358905L56.253125,18.778860079245714L56.63783482142857,6.206664125321488L56.76607142857143,4.6354248286474835L56.89430803571428,-13.1289414071328L57.02254464285714,3.983858376545516L57.279017857142854,19.231022280337093L57.791964285714286,24.81279697530369L58.0484375,41.73363269873203L58.30491071428572,45.31516788904513L58.56138392857142,50.824357262281445L59.202566964285715,51.71161016883127L59.45904017857143,45.03312483466669L59.97198660714286,30.98826150320174L60.613169642857144,23.774172378910794L60.86964285714286,38.88704089721037L60.99787946428571,38.971115710735276L61.639062499999994,58.66801548147198L61.76729910714286,69.79767544355391L61.895535714285714,81.55207597784043L62.152008928571426,76.26379365665817L62.28024553571428,74.37436842288437L62.408482142857146,73.23461911300338L62.92142857142858,72.8641630483837L63.04966517857143,66.68244932133979L63.30613839285714,56.34501432203667L63.690848214285715,66.8118259836639L64.20379464285715,67.74585148867398L64.33203125,73.9790496181037L64.46026785714287,78.89586468640482L64.58850446428572,88.40709121288964L64.84497767857142,94.14013475931947L65.2296875,95.09250418399134L65.35792410714285,82.22646007570242L65.48616071428572,76.76409960766206L65.87087053571429,74.58059101688606L65.99910714285714,90.1391558491453L66.25558035714286,83.7859860565224L67.025,82.80141179001085L67.28147321428571,92.11953239581439L67.66618303571428,87.54147642219932L67.79441964285714,90.10202163079306L68.05089285714286,96.90675626766041L68.17912946428572,88.10378731829735L68.8203125,93.78506484951266L68.94854910714285,92.79649967745355L69.20502232142857,94.10057191130764L69.46149553571429,99.49212358043935L69.58973214285714,91.64732373742072L69.71796875,99.39553454511051L70.10267857142857,80.55866443510463L70.23091517857142,78.81431800958877L70.615625,90.53098081849437L70.74386160714286,92.9329850393678L71.00033482142858,87.86215143907934L71.12857142857143,90.93784957831424L71.38504464285714,99.26826914373231L71.89799107142858,98.97123706473823L72.02622767857143,91.47684624274919L72.15446428571428,92.54511164713114L72.4109375,90.26819223814135L72.53917410714286,93.31838473470764L73.05212053571428,96.15011053557251L73.18035714285715,99.8511507587138L73.30859375,98.93652196386475L73.56506696428572,96.58658230101477L73.69330357142857,97.7765202748502L73.82154017857142,90.52559009955672L73.94977678571428,89.46825165609329L75.10390625,87.28004540836697L75.23214285714286,81.21817845008304L75.87332589285714,85.24414130390603L76.77098214285714,77.42364871705128L76.89921875,68.66779396655889L77.41216517857143,78.11063002182681L77.54040178571428,84.58102091928505L77.66863839285715,91.16973305213561L77.92511160714287,91.1645022181756L78.18158482142857,94.55410380054036L78.69453125,90.22050360970808L79.84866071428571,98.29750053961939L79.97689732142857,101.168746381282L80.10513392857143,104.63162969903898L80.23337053571429,103.43792159173938L80.48984375,104.38301362284452L80.61808035714284,103.33411022238988L81.00279017857143,98.18380887635387L81.3875,96.84314491348168L82.28515625,92.13165174720704L82.41339285714285,100.30256976364863L82.54162946428572,99.40461057233104L82.66986607142857,97.17437409047656L82.92633928571428,94.18876723458989L83.05457589285714,94.72060158259048L83.43928571428572,97.18129354957567L83.56752232142858,105.15073877718345L83.69575892857142,107.7878947862762L83.95223214285714,92.99917780213225L84.20870535714285,100.48116152794759L84.33694196428571,102.59574011153936L84.84988839285715,103.39467813484048L85.74754464285715,100.36995071120366L86.13225446428572,105.7136342045504L86.26049107142858,108.79744421940079L86.51696428571428,107.91954109371322L86.7734375,109.2457981187142L87.15814732142856,111.45842236745577L88.56875,112.85515046398773L88.95345982142857,111.28219101596436L89.08169642857143,110.85310319524145L89.20993303571429,106.07647361434184L89.46640624999999,109.29123263404774L89.72287946428573,110.00214851406817L89.85111607142856,113.11753819291356L90.10758928571428,103.67611414137221L90.74877232142856,109.79963935579501L90.87700892857143,107.9418399165013L91.64642857142857,107.99692040860288L91.90290178571429,115.70298340427657L92.03113839285713,112.00909501616823L92.159375,107.16381741943758L92.28761160714286,113.48646914591075L92.4158482142857,115.6888379074912L92.54408482142857,117.43126400815135L92.67232142857144,117.45939332548788L92.80055803571429,120.00869015636451L92.92879464285714,120.8608637439156L93.05703125,116.33730691593553L93.31350446428571,116.02835292769471L93.69821428571429,115.49878726692795L93.82645089285714,114.09993751222969L93.9546875,112.40760624036241L94.21116071428571,107.53746058717398L94.72410714285714,105.10974785193817L94.98058035714287,110.92623367610584L95.23705357142858,113.30253025712378L95.75,114.28395475638989L95.87823660714287,114.4245410543268L96.0064732142857,112.91012817511469L96.26294642857144,117.07335311108535L96.51941964285714,119.31817208489005L96.77589285714286,121.22135378575459L97.03236607142857,116.45132413897595L97.16060267857144,112.0625237667184L97.54531250000001,112.71222703716879L97.80178571428571,115.19458568728999L97.93002232142857,109.29887733839175L98.05825892857143,111.49911938895117L98.18649553571429,115.33401989215214L98.31473214285714,106.77082969709396L98.44296875,111.69596939065552L98.69944196428571,108.55262594687044L98.82767857142858,96.9023214892572L99.46886160714286,104.53827851510204L99.59709821428571,108.8875337332258L99.85357142857144,115.22296392260606L99.98180803571428,116.20753694378504L100.11004464285715,112.27548492433529L100.49475446428572,112.8673946051711L100.75122767857142,111.65149128370965L101.00770089285714,110.1870734926074L101.26417410714285,114.46548017478044L101.52064732142857,109.62449870476755L101.77712053571429,112.40783152562162L101.90535714285714,117.05838836182225L102.03359375000001,113.37592497437637L102.41830357142858,116.76435975414182L102.93124999999999,119.04846879352131L103.05948660714286,118.23887129133344L103.31595982142858,117.22849857512354L103.70066964285715,116.75503850998426L104.21361607142858,113.04561794413296L104.85479910714285,114.2820406592677L105.75245535714285,106.10361823062837L105.88069196428572,110.96455531490291L106.13716517857142,109.01557243569162L106.26540178571429,109.05563347758928L106.39363839285716,110.57771226896094L106.521875,106.79970405777244L106.65011160714286,112.47684762644737L106.77834821428571,113.567696248102L107.03482142857143,113.88439384377467L107.16305803571429,108.28549341724198L107.67600446428573,117.06927204350161L107.80424107142856,114.16223092210012L108.06071428571428,111.84346313078235L108.3171875,115.70531512975114L108.70189732142856,116.31817121314656L108.9583705357143,119.31056966190128L109.08660714285713,116.98808050039167L109.21484375,114.67779748369904L109.59955357142857,120.66322712141069L109.72779017857142,114.78611764930362L109.85602678571429,118.54097039474651L109.98426339285713,118.78204960211279L110.1125,124.4101479803572L110.36897321428572,123.9972822758585L110.49720982142857,119.4519160326141L110.62544642857144,123.26799686764586L110.88191964285714,120.13041917094533L111.01015625,119.33369464641179L111.13839285714286,115.26407634595255L111.2666294642857,116.12889740097059L111.39486607142857,119.31332189576347L111.52310267857143,116.6337480946572L111.77957589285714,119.24167641426274L111.9078125,117.22368233457296L112.29252232142856,116.88693664702826L112.80546875,120.34593192477853L113.19017857142858,118.96420130574603L113.31841517857143,116.66213296320379L113.4466517857143,121.17834848443472L113.703125,119.55955165791394L113.9595982142857,121.13551657299926L114.08783482142857,117.90038906872708L114.34430803571428,116.34571092927717L114.60078125,117.84725426199593L115.11372767857144,121.6458592448387L115.62667410714286,116.07568190298994L115.75491071428571,120.14588302256178L116.01138392857143,121.68577800918527L116.13962053571429,124.04195201831405L116.26785714285714,127.765107991918L116.39609375,125.03289522089008L116.52433035714284,123.8668078384247L116.65256696428571,126.18152543314973L117.03727678571428,122.96869455819535L117.16551339285714,120.13827275660759L117.93493303571428,119.41713553325609L118.19140625,111.65168922934697L118.31964285714285,116.52088056679824L118.44787946428572,122.57652261660253L118.57611607142857,121.00635698321913L118.83258928571428,121.35419087936552L119.21729910714285,119.54750455218597L119.34553571428572,111.68808961390283L119.73024553571429,119.44033294009462L119.85848214285714,122.5223910038906L119.98671875000001,113.34421212823615L120.24319196428571,113.58028940767899L120.49966517857142,116.66839357859405L120.884375,121.89977608112402L121.01261160714286,126.94928424947206L121.26908482142858,127.80745477314439L121.65379464285715,119.98695792457846L121.78203124999999,121.91969696105353L121.91026785714286,120.06098220003148L122.16674107142858,118.77428161652387L122.29497767857143,121.73703343600928L122.42321428571428,118.83700087625326L122.67968749999999,120.50346088980757L122.80792410714285,123.24524770125821L122.93616071428572,121.75771396127388L123.57734375,124.33981996039773L124.09029017857142,120.40296650684014L124.21852678571429,120.4650915548571L124.475,114.57961140187788L124.73147321428571,116.40334144897585L124.98794642857142,120.06379037897185L125.11618303571429,126.0699401068711L125.24441964285715,124.51786112594748L125.37265624999999,121.35774440651025L125.50089285714286,124.63811127594046L125.62912946428573,126.62897021920043L125.88560267857143,127.12914280504322L126.14207589285715,129.35765954500638L126.39854910714286,131.889608780421L126.78325892857143,133.80625207416844L127.03973214285713,130.1857817005672L127.16796875,128.92963544318425L127.29620535714285,130.2902648794016L127.80915178571429,132.0132972149468L128.065625,130.75910126855473L128.19386160714285,131.11786783749162L128.45033482142856,131.48141853221833L128.83504464285713,132.94658113842357L129.34799107142857,134.09248588278976L129.73270089285714,135.41027291891032L130.1174107142857,137.84247985647355L130.24564732142858,137.68164027432343L130.50212053571428,135.14995663583122L130.75859375,133.06059625875855L131.0150669642857,133.91277981479112L131.65625,134.14087497996772L131.9127232142857,133.99226362590483L132.04095982142857,135.6904332642823L132.16919642857144,133.27833399802861L132.29743303571428,130.5059755541707L132.68214285714285,134.40501168357284L133.4515625,135.82976576678126L133.7080357142857,134.64169426555733L133.83627232142857,131.99507607099594L133.96450892857143,134.79465052531472L134.09274553571427,137.13175122765486L134.22098214285714,135.88945554988257L134.73392857142858,137.44476775107785L134.99040178571428,129.72846162186863L135.11863839285715,131.4805111459899L135.50334821428572,133.7529083712106L135.63158482142856,134.55188697714834L135.75982142857143,135.28391693913477L135.8880580357143,134.44233334591112L136.01629464285713,133.26692692357375L136.27276785714284,135.9982891852741L136.4010044642857,136.8295155450752L136.52924107142857,137.41042451173368L136.65747767857144,133.51985319918577L136.91395089285714,136.89240637103427L137.29866071428572,136.75577688622303L137.55513392857145,138.88457699065103L137.6833705357143,140.82583773401197L137.93984375,137.6521528140713L138.06808035714286,136.29097969389016L138.45279017857143,137.3681000355247L138.8375,136.87843557497044L138.96573660714284,135.14186186969386L139.86339285714286,136.20632270801133L139.99162946428572,138.02411811845343L140.1198660714286,139.05008459864163L140.24810267857143,139.06963369118037L140.3763392857143,140.010701733034L140.50457589285713,137.79006991815638L140.6328125,136.2910634579186L140.8892857142857,135.49787255537058L141.01752232142857,134.21265515334335L141.1457589285714,134.04268738416985L141.53046874999998,138.01174889080616L141.65870535714285,135.94001882119713L141.78694196428572,136.78721411731087L141.91517857142858,137.9066521627083L142.1716517857143,134.5118731559738L142.94107142857143,133.71174448141008L143.0693080357143,135.02330540066092L143.45401785714284,136.63343599703984L144.35167410714286,136.13466016213346L144.73638392857143,136.963710962297L145.24933035714287,135.48257336530773L145.63404017857144,137.09001663633398L145.76227678571428,131.58132862632402L145.89051339285714,131.61820872774678L146.14698660714285,127.94788642019606L146.27522321428572,132.17727796012505L146.40345982142856,134.84371163114514L146.78816964285713,136.92433327832583L146.91640625,137.3769020342753L147.17287946428573,137.04068408035792L147.42935267857143,131.4638813830826L147.5575892857143,132.31667042955237L147.8140625,133.87057417741107L148.0705357142857,133.61044371194058L148.19877232142858,135.04533095399387L148.45524553571428,134.34816640162376L148.71171875,128.88477370467132L148.83995535714286,133.6178471107861L148.9681919642857,135.53408123609904L149.09642857142856,132.18855786059785L149.48113839285713,134.2075282319456L149.609375,133.35122045183596L149.73761160714287,133.7012143034006L150.1223214285714,133.61194487203747L150.25055803571428,134.36188738220685L151.27645089285713,135.5192890088186L151.66116071428573,138.5515909505144L151.7893973214286,134.87055859042735L152.04587053571427,134.73218503638225L152.30234375,132.17610995199752L152.43058035714287,134.98134497539087L152.81529017857142,134.72794794878888L152.94352678571428,133.26797616387324L153.20000000000002,131.99086856785368L153.32823660714286,133.00297002162307L153.45647321428572,134.93902988532645L153.58470982142856,137.27308791458285L153.96941964285713,139.10883412706661L154.9953125,139.01598428456666L155.12354910714288,135.055841545872L155.25178571428572,136.61522454655892L155.50825892857142,135.1236226596637L155.76473214285716,134.4678789042356L155.89296875,131.05382947104704L156.02120535714286,133.9467173038574L156.27767857142857,133.73792981020523L156.53415178571427,130.2146081740374L156.66238839285714,129.76276494352308L156.790625,131.1834255295294L157.17533482142855,132.4673589013396L157.30357142857142,133.61822841420044L157.43180803571428,132.8612060657398L158.07299107142856,134.56570636101102L158.3294642857143,126.67279500286303L158.45770089285713,131.42800652098967L158.8424107142857,134.7820653683681L159.0988839285714,137.12229517500037L159.86830357142856,139.95515139341612L159.99654017857142,133.49994367027438L160.25301339285716,136.58250042595955L160.50948660714286,137.34047894357738L161.0224330357143,136.9493000369018L161.27890625,133.56055807237303L161.5353794642857,136.45407928326412L161.79185267857142,140.00348411678485L162.04832589285715,140.87218640255458L162.30479910714288,140.1180011988135L162.4330357142857,141.62595388653585L162.56127232142856,139.4534621379537L162.68950892857143,140.27807414184585L162.8177455357143,137.8069960394536L163.58716517857144,139.4850609671494L163.71540178571428,140.33857384153728L164.48482142857142,135.1167082478316L164.74129464285716,131.29615828333567L164.99776785714283,132.37711616717738L165.1260044642857,131.15040488459445L165.25424107142857,130.36242171178924L166.40837053571428,133.7809442463557L166.66484375000002,131.77728917497635L167.04955357142856,126.51356125055695L167.43426339285716,122.61642764913407L167.56250000000003,125.23903178517442L167.8189732142857,129.22474967446578L167.94720982142857,130.82883735303074L168.07544642857144,131.042796705985L168.2036830357143,133.32348152090546L168.46015624999998,135.15992124133967L168.58839285714285,132.42430429013766L168.84486607142858,129.9406729838383L168.97310267857142,128.25002954608988L169.1013392857143,128.42368826989406L169.48604910714283,130.4810786588435L169.6142857142857,132.06008280178574L169.87075892857143,132.10039721048275L170.89665178571428,131.66476463148834L171.02488839285715,132.09163369458818L171.153125,133.43799825740996L171.28136160714286,128.8939170255252L171.66607142857143,131.7345771082633L171.7943080357143,128.2318256311651L171.92254464285716,128.75740585404847L172.3072544642857,126.28979477690586L172.43549107142857,127.39862531070072L172.56372767857144,129.34736699845885L172.94843749999998,130.66822569958268L174.4872767857143,127.28384332294402L174.87198660714284,129.2734380747982L175.12845982142858,131.3659767261808L175.25669642857144,134.499285027484L175.51316964285712,135.42621360129112L175.64140625,134.1968119377255L176.0261160714286,137.34765803422687L176.41082589285713,140.02846140626764L176.5390625,138.0836807546836L176.66729910714287,137.43761188732515L176.7955357142857,134.14013878671486L176.92377232142857,134.37194467883205L177.05200892857144,134.95221044600544L177.1802455357143,134.27510437953794L177.30848214285712,131.541759154727L177.56495535714285,125.53556701036092L177.82142857142858,129.21994279916163L177.94966517857145,132.9915700858538L178.20613839285713,132.62797951136258L178.46261160714286,127.55650232693093L178.71908482142857,130.15202153003537L178.84732142857143,132.86960767076206L178.9755580357143,130.55853394487974L179.10379464285714,131.10678325783894L179.23203125,131.4088034909468L179.36026785714284,133.74567906746276L180.5143973214286,127.83876516037587L180.64263392857143,124.03180150755287L180.89910714285713,126.21412022452381L181.02734375,126.2956582876493L181.54029017857144,118.74589959218797L181.66852678571428,122.96230345627484L181.79676339285714,128.37655901110662L182.05323660714285,131.92076073406034L182.43794642857145,134.8200424213284L182.82265625,135.50756561750612L183.07912946428573,137.35158607956436L183.33560267857143,137.30741085765757L183.46383928571427,137.1606832692504L183.7203125,137.5987749248433L183.84854910714287,139.70007400212813L184.23325892857144,139.66323561965302L184.36149553571428,137.31595171987342L184.48973214285712,137.9879753500183L184.74620535714286,136.80066271483656L184.87444196428572,135.40005304729792L185.0026785714286,135.85307501742753L185.25915178571427,132.96586864584393L185.38738839285713,130.84972778197354L185.515625,132.85271685264246L185.64386160714287,133.83832429612715L185.77209821428573,136.96738470056675L185.90033482142857,134.244273522252L186.54151785714285,133.6992919079984L186.66975446428572,137.1670640607193L186.92622767857142,134.79705682393998L187.43917410714286,132.07553977368528L187.56741071428573,129.78209115623386L187.8238839285714,120.81583982443185L188.33683035714287,122.2963267429791L188.59330357142858,128.15179576063886L188.84977678571428,127.02336121550043L189.10625,129.0405303296497L189.23448660714286,130.49406916243137L189.36272321428572,130.90275017227114L189.4909598214286,128.85786341312755L189.74743303571427,126.23371671845453L190.13214285714287,129.24092493778429L190.26037946428573,131.3579399724362L190.5168526785714,131.6367769801353L190.64508928571428,130.7128355719885L190.77332589285714,132.36832601536756L191.02979910714288,134.62758534973528L191.5427455357143,132.1564018835167L191.79921875,127.81657342371582L191.92745535714286,123.07673567686821L192.18392857142857,128.25860986205544L192.3121651785714,128.44443367178803L192.696875,128.8529932633374L192.82511160714287,131.7788888773521L193.46629464285715,132.7471107757807L193.59453125000002,135.3728701720667L193.72276785714286,132.925780776145L193.85100446428572,133.67091596305485L194.10747767857143,134.40343900430273L194.36395089285713,133.39009547178787L194.4921875,131.3797545072129L194.62042410714287,129.97494302014653L194.74866071428573,132.39656613957968L194.87689732142857,132.70317302162698L195.0051339285714,128.91859883079084L195.38984375,134.92051557307929L195.77455357142856,136.72845461729463L196.0310267857143,136.34083260752735L196.41573660714286,136.23122868930088L196.5439732142857,134.042301249473L196.67220982142857,135.32874152181668L196.80044642857143,136.75113919447733L197.31339285714287,136.26774944109243L197.82633928571428,135.9985979869516L198.08281250000002,135.38042846170373L198.21104910714288,129.67433163432665L198.7239955357143,133.4696338767313L198.85223214285716,133.65293058124203L199.2369419642857,135.1105301342429L199.62165178571428,136.24866588485366L199.878125,137.7182649527319L200.1345982142857,132.58960982288883L200.26283482142856,126.27498250082711L200.39107142857142,116.59833219573247L200.77578125000002,119.54036123112051L201.0322544642857,127.79990784856801L201.16049107142857,130.39882287700848L201.4169642857143,129.72478551459238L201.54520089285714,128.9021263050552L201.6734375,130.44702521130534L201.9299107142857,133.07307771542722L202.05814732142858,134.08941266357337L202.44285714285715,131.68284263264795L203.08404017857143,133.18307151229178L204.62287946428572,136.60240954656L204.75111607142856,139.09725870191215L204.87935267857142,138.51185176074003L205.0075892857143,135.57336310922798L205.5205357142857,135.21334902870476L205.9052455357143,138.46814417498004L206.03348214285717,141.02966531310494L206.28995535714284,140.57569479461918L206.4181919642857,140.45100803683047L206.54642857142858,141.07327339357047L206.67466517857144,140.1281339723224L207.18761160714286,141.5829051434013L207.31584821428572,141.12930880779103L207.44408482142856,140.32511058327006L207.7005580357143,135.84839819000032L207.82879464285716,136.9890668518893L207.95703124999997,133.24555198714447L208.2135044642857,133.16115558365175L208.46997767857144,130.9881902826976L209.23939732142858,133.59857720691866L209.4958705357143,135.10109483932797L210.13705357142857,136.49486186346616L210.26529017857143,137.7765953733993L211.41941964285712,135.6729066249414L211.54765625,137.92994477013846L212.06060267857143,139.4250666836506L212.57354910714284,138.95750046012438L212.95825892857144,138.91663749955674L213.34296874999998,135.8828142043506L213.47120535714285,131.7952132795188L213.59944196428572,130.68710887276728L213.9841517857143,132.3460939994073L214.11238839285713,135.55179710809088L214.49709821428573,134.42695119156656L214.75357142857143,135.71368724211584L214.8818080357143,137.23979536357243L215.01004464285714,139.40166381396483L215.90770089285712,139.23648761151807L216.0359375,139.88464336656676L216.16417410714286,140.5485261444041L216.29241071428572,141.9665555276745L216.54888392857143,142.264163876669L216.67712053571427,143.2953789681771L216.80535714285713,142.75792818966974L216.93359375,143.45624757828398L217.06183035714287,142.4205543459778L217.1900669642857,143.01375022896082L217.31830357142857,140.96705677132576L217.44654017857144,138.9704416693495L217.57477678571428,138.13399617083348L217.95948660714285,136.96173679356264L218.21595982142858,137.33943211152842L218.85714285714286,139.55474957296067L218.98537946428573,136.670074799471L219.1136160714286,138.52603993345076L219.37008928571427,135.3575651617573L220.26774553571428,138.27182650993623L220.52421875,137.24434795040108L221.16540178571427,136.1744149151934L221.29363839285713,134.9408479823764L221.80658482142857,135.54243305290316L222.06305803571428,137.2547693906103L222.19129464285714,139.224236557357L222.44776785714285,136.3688843783572L222.57600446428572,139.18551316480844L222.83247767857142,136.1110555805028L222.9607142857143,137.04532343609694L223.7301339285714,137.6509872642968L223.85837053571427,141.4673771839031L223.98660714285714,141.7259026039057L224.62779017857142,142.95893020739632L224.75602678571428,142.14543295687724L225.91015625,143.07148592344694L226.03839285714287,143.03561987085206L226.4231026785714,143.88260216476357L226.55133928571428,141.03205159879826L226.67957589285714,140.09441825495423L226.93604910714288,139.7854253038541L227.19252232142856,140.9681854656205L227.4489955357143,140.31681954329406L227.83370535714286,140.22232156077143L227.96194196428573,140.818760413403L228.2184151785714,141.08118641881626L228.34665178571427,142.47490703170587L228.603125,141.38743051949197L228.85959821428574,143.9132919881526L228.98783482142855,144.32934836588998L229.24430803571428,145.6040965321225L229.37254464285715,146.68528471604358L229.88549107142856,145.68102785477265L230.01372767857143,144.00392755585446L230.27020089285713,143.99736211131534L230.3984375,143.22273106831622L230.52667410714287,143.36398599420974L230.65491071428573,141.420888095349L231.03962053571428,141.04335751488802L231.16785714285714,143.18758785340188L231.29609375,141.672838184911L231.80904017857142,141.17385471086382L232.06551339285716,142.36509225500035L232.19375,144.75903871197943L232.32198660714286,144.09706881963876L232.57845982142857,142.9825498600225L232.83493303571427,144.5384175473106L233.09140625,143.93559338412595L233.3478794642857,145.29976077235884L233.47611607142855,145.20508532438961L233.60435267857142,146.16509209700993L233.86082589285715,146.95240703599794L233.98906250000002,146.44116821811883L234.11729910714288,147.18529387072496L234.2455357142857,147.11767024848325L234.37377232142856,144.13024412425438L234.50200892857143,142.80773391027498L234.75848214285713,144.58377063691168L234.88671875,144.88748619806495L235.27142857142857,144.19034829051333L235.3996651785714,142.18638255781553L235.65613839285714,143.97020935765875L235.784375,144.24777746648772L236.16908482142856,145.2322799739312L236.29732142857142,144.38651838165947L236.4255580357143,142.99955519594207L236.55379464285716,142.8435452434865L236.9385044642857,140.94936572035832L237.45145089285714,143.5363935203593L237.70792410714287,144.61369757778888L237.8361607142857,145.54969285087256L237.96439732142858,145.15436745975296L238.34910714285715,144.96260503407646L238.47734375000002,144.043534412839L238.7338169642857,141.4138788788664L239.24676339285716,143.0336843674867L239.375,144.07597632679276L239.50323660714284,141.1289835421618L239.6314732142857,138.2280765323863L239.88794642857144,136.85065688187038L240.40089285714285,140.19056414660307L240.52912946428572,139.05259326157864L240.78560267857142,139.3758707109564L240.9138392857143,140.96041443726264L241.04207589285716,143.00694271195437L241.17031250000002,144.36925606291595L241.4267857142857,141.79101498938266L241.8114955357143,142.45045840750134L241.93973214285717,142.40942532426115L242.06796875,139.77704833511115L242.19620535714284,141.29882877804994L242.3244419642857,140.76438004218437L242.70915178571428,141.91968441273508L242.83738839285715,142.046914000903L243.47857142857143,142.77112542962695L243.73504464285716,143.23254716024198L243.86328124999997,142.65222511068222L243.99151785714284,142.30487428531194L244.5044642857143,142.84203515306203L244.88917410714285,142.15728605899267L245.14564732142858,142.15654482908877L245.53035714285716,142.97949200551412L245.65859375,144.37893704283655L245.78683035714286,144.34549888794672L245.9150669642857,143.76556492939622L246.04330357142857,143.50047369655985L246.2997767857143,143.0221774092735L246.42801339285717,143.86586225696928L246.55624999999998,142.82183534901455L246.94095982142858,143.00678988099764L247.06919642857144,144.69071244478627L247.32566964285715,144.2075822429681L247.45390625,145.09910330336237L247.58214285714286,146.1260002473649L247.96685267857143,143.16439800379615L248.22332589285716,143.23844943593707L248.3515625,142.2564100453303L248.47979910714284,143.46807188564813L248.6080357142857,141.741304747905L249.50569196428572,142.49367848196366L249.63392857142858,141.08050113414967L250.01863839285713,141.37608120140578L250.65982142857143,143.9502566563913L251.17276785714284,144.11660297559672L251.42924107142858,143.71607933549268L251.9421875,143.22020523612608L252.07042410714286,145.1218532315785L252.3268973214286,145.26846457373466L252.83984375,143.8172999849997L252.96808035714287,144.088830466931L253.0963169642857,144.59780666581685L253.35279017857144,142.89618361205993L253.4810267857143,144.85784322745286L253.60926339285714,145.35914634899305L254.12220982142858,143.47121473691467L254.37868303571426,143.39106283510688L254.63515625,143.0074183757601L254.89162946428573,143.5077214786707L255.01986607142857,143.68776735361212L255.27633928571427,143.75692704138632L255.7892857142857,144.70040796588347L256.04575892857144,145.65725119644694L256.17399553571425,144.0521432443517L256.55870535714286,143.7076610913311L256.94341517857146,143.66574407758918L257.45636160714287,144.06388774003153L257.7128348214286,143.4650584965084L257.84107142857147,140.73047823960388L258.22578125,134.13466357740643L258.7387276785714,136.14008527727654L258.8669642857143,138.98017878372508L258.99520089285716,139.88166807913206L259.1234375,141.83261155678883L259.50814732142857,141.41146387811932L259.63638392857143,138.9057525942113L259.7646205357143,140.76647031005535L260.02109375,140.79491554317661L260.14933035714284,143.7102791465389L260.2775669642857,143.6323954461257L260.5340401785714,143.53304625143053L260.66227678571425,140.15746950262454L261.04698660714286,138.22036902400058L261.1752232142857,139.1735319810641L261.4316964285714,137.9406240235288L261.68816964285713,138.9951909989428L261.81640625,141.48035636903714L261.94464285714287,142.65701622582597L262.8422991071429,141.45913954864216L262.97053571428575,142.94453857118054L263.0987723214286,142.8571656392465L263.2270089285714,143.92421320059597L263.99642857142857,144.66557269977747L264.12466517857143,145.2396224062873L264.2529017857143,144.2185439301272L264.38113839285717,143.94636295036912L264.509375,143.40966127989554L264.7658482142857,139.29862426923432L265.15055803571425,142.34063884441088L265.53526785714286,143.03901477947252L266.04821428571427,141.95379737791075L266.17645089285713,141.79889297352224L266.3046875,144.34743971744768L266.43292410714287,145.054103130815L266.8176339285714,144.68393454236838L266.9458705357143,146.18007835914526L267.45881696428575,145.27528189521928L267.8435267857143,143.79917222799003L267.97176339285716,142.37808471644604L268.35647321428576,139.88819067910126L268.48470982142857,140.03301031133418L268.61294642857143,139.69567404234937L268.7411830357143,138.57345583465417L268.86941964285717,139.6717161442442L269.2541294642857,138.1082366767885L269.3823660714286,137.78343953271877L269.51060267857144,136.0567486380349L269.63883928571425,129.5571826633698L270.1517857142857,134.4366970382265L270.28002232142853,136.03522737754176L270.4082589285714,138.51161875684733L270.79296875,140.46357480501933L271.0494419642857,139.9137476135242L271.17767857142854,141.9646003543704L271.3059151785714,143.19448311325127L271.56238839285714,142.52900104639656L271.690625,139.94226935456828L271.8188616071429,140.54238888591908L272.07533482142856,138.38616269213188L272.2035714285714,136.62714285482306L272.8447544642857,138.35044578212106L273.10122767857143,140.04327050744058L273.2294642857143,139.18167198835945L273.48593750000003,141.76364746176682L273.8706473214286,141.52085564424684L274.1271205357143,140.40913690263085L274.2553571428571,141.59446638902457L274.38359375,142.27591574836035L274.6400669642857,141.72604007511293L274.8965401785714,138.31677712791534L275.02477678571427,134.55225717898233L275.15301339285713,138.49465137646212L275.66595982142854,140.7639243598319L275.7941964285714,142.41267907592874L276.05066964285714,141.2893080113722L276.3071428571428,143.1385068624254L276.94832589285716,143.8315617191217L277.46127232142857,144.64175711258778L277.58950892857143,144.25971697082835L277.7177455357143,143.42570066041182L277.84598214285717,143.48495027772444L279.38482142857146,142.78104884834204L279.64129464285713,144.40277857727477L279.89776785714287,145.01455490974587L280.15424107142854,144.91146570854187L280.2824776785714,144.42275109537124L280.4107142857143,143.63559592752264L280.53895089285714,143.13839195363886L280.6671875,142.6422170054505L280.7954241071428,143.96273554573L280.9236607142857,144.15128490453685L281.05189732142856,144.66655544713572L281.1801339285714,144.6833459006276L281.3083705357143,142.97626772919452L281.43660714285716,143.38156246780846L281.69308035714283,142.5610197224587L281.8213169642857,144.46182695259867L281.94955357142857,143.3192967905415L282.2060267857143,143.87330669366202L282.4625,143.35551868202018L282.8472098214286,145.2132928509815L283.2319196428572,143.17142098184252L283.48839285714286,143.75448222777737L283.6166294642857,144.86927943123277L283.87310267857146,146.45013527687132L284.2578125,146.84543950328668L284.51428571428573,146.09638375919724L284.6425223214286,145.31710842181243L284.8989955357143,145.82554984050392L285.15546875,144.95146077249885L285.2837053571428,141.9739475689795L285.4119419642857,144.00958580627838L285.6684151785714,142.92601725372552L285.7966517857143,143.0095556850009L286.05312499999997,143.29712643472985L286.18136160714283,143.01721286325835L286.43783482142857,143.87149881153812L286.56607142857143,142.6487224270672L287.5919642857143,140.36749240575853L287.7202008928571,139.96903658997192L287.97667410714286,143.10145979279977" style="fill: none;" fill="none"></path></g></g></g></g><g opacity="0.2"><g><g><g><path stroke="rgb(255, 112, 67)" stroke-width="2px" d="M24.193973214285716,155.74926231185418L24.32220982142857,155.74938250000378L24.83515625,155.7485855489267L24.96339285714286,155.74862306808063L25.21986607142857,155.74617452111852L25.34810267857143,155.74673920140776L25.476339285714285,155.74693291969743L25.861049107142854,155.7456764048402L25.989285714285714,155.74542121139166L26.11752232142857,155.74396889601485L26.63046875,155.73403635692375L27.784598214285715,154.1174786593765L27.91283482142857,153.34792380407453L28.169308035714284,153.3128689341247L28.682254464285716,153.2208975609392L28.93872767857143,152.8403692059219L29.195200892857144,153.15647623874247L29.3234375,152.9225636422634L29.579910714285713,153.0594770628959L29.83638392857143,151.47681864723563L29.964620535714285,150.8075415082276L30.349330357142854,150.96130086109042L30.477566964285714,150.40558983013034L30.60580357142857,151.95320779830217L30.73404017857143,147.44077306240797L30.862276785714286,134.36894965171814L31.246986607142855,145.8433836773038L31.375223214285715,143.80850699543953L31.63169642857143,147.62242578715086L31.888169642857143,146.93847420811653L32.01640625,145.52132514119148L32.144642857142856,146.80699175596237L32.272879464285715,146.80331750959158L32.65758928571429,148.83088349550962L32.78582589285714,131.0326835513115L32.9140625,134.78890520334244L33.04229910714286,139.4545310139656L33.29877232142857,144.06863515079021L33.683482142857144,141.7823467850685L34.32466517857143,141.43288291990757L34.45290178571429,133.0868080854416L34.58113839285714,121.0980067551136L34.709375,136.137772038579L34.837611607142854,133.64634256064892L34.965848214285714,136.13969503343105L35.60703125,96.72669410705566L36.632924107142856,93.78001350164413L37.01763392857143,89.95642071962357L37.14587053571429,98.711654484272L38.043526785714285,97.33920377492905L38.42823660714286,86.15770220756531L38.68470982142857,85.55321341753006L38.81294642857143,91.7400209903717L38.94118303571429,89.7868629693985L39.454129464285714,87.896020591259L39.582366071428574,84.96659123897552L39.710602678571426,94.67394351959229L40.095312500000006,70.54405558109283L40.22354910714286,64.28835439682007L41.121205357142856,50.47975540161133L41.377678571428575,41.281994104385376L41.63415178571429,26.727262496948242L41.76238839285714,21.406195163726807L41.89062500000001,63.89400517940521L42.01886160714286,35.05361270904541L42.53180803571429,58.59465575218201L42.78828125,5.595708131790161L43.17299107142858,62.81582307815552L43.30122767857143,69.63571238517761L43.42946428571428,40.11660087108612L43.685937499999994,28.21454119682312L43.81417410714286,33.82108175754547L43.942410714285714,26.661907196044922L44.32712053571428,32.878702878952026L44.58359375,50.391589403152466L44.71183035714286,37.08567452430725L44.96830357142857,51.361044049263L45.09654017857143,17.951965928077698L45.481249999999996,35.64490842819214L46.12243303571428,42.07585942745209L46.25066964285715,56.40844666957855L46.37890625,14.992102861404419L46.63537946428571,18.010308265686035L47.020089285714285,-0.7602115869522095L47.2765625,-14.328852653503418L47.40479910714286,53.06570339202881L47.66127232142857,35.55684852600098L47.91774553571429,44.89779734611511L48.04598214285714,24.24894917011261L48.94363839285714,51.67588472366333L49.96953125,3.1231452226638794L50.097767857142856,22.550114512443542L50.22600446428571,11.235573530197144L50.73895089285714,4.74752151966095L51.12366071428571,14.935458064079285L51.50837053571429,6.263796329498291L51.636607142857144,18.433483839035034L52.02131696428571,40.01817536354065L52.14955357142858,-9.789757251739502L52.40602678571429,18.06153154373169L52.53426339285714,-5.3970640897750854L52.662499999999994,37.59605062007904L52.918973214285714,-11.91238284111023L53.30368303571428,7.168129086494446L53.431919642857146,-4.281546711921692L53.56015625,38.05872583389282L53.94486607142858,36.73295748233795L54.32957589285714,41.221657156944275L54.97075892857143,26.869261741638184L55.22723214285715,25.051058173179626L55.48370535714285,14.065479278564453L55.61194196428571,50.82881212234497L56.253125,-3.589066982269287L56.63783482142857,-12.65162980556488L56.76607142857143,2.2785658836364746L56.89430803571428,-39.77549076080322L57.02254464285714,29.65305805206299L57.279017857142854,42.101768136024475L57.791964285714286,33.1854590177536L58.0484375,67.11488628387451L58.30491071428572,50.68747067451477L58.56138392857142,59.088141322135925L59.202566964285715,53.042489528656006L59.45904017857143,35.0153968334198L59.97198660714286,9.920966506004333L60.613169642857144,12.953038692474365L60.86964285714286,61.55634367465973L60.99787946428571,39.097227931022644L61.639062499999994,88.21336513757706L61.76729910714286,86.49216538667679L61.895535714285714,99.18367677927017L62.152008928571426,68.3313701748848L62.28024553571428,71.54023057222366L62.408482142857146,71.52499514818192L62.92142857142858,72.30847895145416L63.04966517857143,57.409878730773926L63.30613839285714,40.83886182308197L63.690848214285715,82.51204347610474L64.20379464285715,69.14688974618912L64.33203125,83.32884681224823L64.46026785714287,86.2710872888565L64.58850446428572,102.67393100261688L64.84497767857142,102.73970007896423L65.2296875,96.52105832099915L65.35792410714285,62.92739391326904L65.48616071428572,68.5705589056015L65.87087053571429,71.30532813072205L65.99910714285714,113.47700309753418L66.25558035714286,74.25623136758804L67.025,81.32455039024353L67.28147321428571,106.09671330451965L67.66618303571428,80.67439246177673L67.79441964285714,93.94283944368362L68.05089285714286,107.11385822296143L68.17912946428572,74.89933389425278L68.8203125,102.3069811463356L68.94854910714285,91.31365191936493L69.20502232142857,96.05668026208878L69.46149553571429,107.57945108413696L69.58973214285714,79.88012397289276L69.71796875,111.0178507566452L70.10267857142857,52.303359270095825L70.23091517857142,76.197798371315L70.615625,108.10597503185272L70.74386160714286,96.53599137067795L71.00033482142858,80.2559010386467L71.12857142857143,95.5513967871666L71.38504464285714,111.76389849185944L71.89799107142858,98.5256889462471L72.02622767857143,80.23526000976562L72.15446428571428,94.14750975370407L72.4109375,86.85281312465668L72.53917410714286,97.89367347955704L73.05212053571428,100.39769923686981L73.18035714285715,105.40271109342575L73.30859375,97.56457877159119L73.56506696428572,93.06167280673981L73.69330357142857,99.56142723560333L73.82154017857142,79.64919483661652L73.94977678571428,87.88224399089813L75.10390625,83.9977360367775L75.23214285714286,72.12537801265717L75.87332589285714,91.2830855846405L76.77098214285714,65.6929098367691L76.89921875,55.53401184082031L77.41216517857143,92.2748841047287L77.54040178571428,94.28660726547241L77.66863839285715,101.05280125141144L77.92511160714287,91.15665596723557L78.18158482142857,99.63850617408752L78.69453125,83.72010332345963L79.84866071428571,110.41299593448639L79.97689732142857,105.47561514377594L80.10513392857143,109.82595467567444L80.23337053571429,101.64735943078995L80.48984375,105.80065166950226L80.61808035714284,101.76075512170792L81.00279017857143,90.4583568572998L81.3875,94.83214896917343L82.28515625,85.0644119977951L82.41339285714285,112.558946788311L82.54162946428572,98.05767178535461L82.66986607142857,93.82901936769485L82.92633928571428,89.71035695075989L83.05457589285714,95.51835310459137L83.43928571428572,100.8723315000534L83.56752232142858,117.10490661859512L83.69575892857142,111.74362879991531L83.95223214285714,70.81610232591629L84.20870535714285,111.70413711667061L84.33694196428571,105.76760798692703L84.84988839285715,104.59308516979218L85.74754464285715,95.83285957574844L86.13225446428572,113.72915944457054L86.26049107142858,113.42315924167633L86.51696428571428,106.60268640518188L86.7734375,111.23518365621567L87.15814732142856,114.77735874056816L88.56875,114.95024260878563L88.95345982142857,108.92275184392929L89.08169642857143,110.2094714641571L89.20993303571429,98.9115292429924L89.46640624999999,114.11337116360664L89.72287946428573,111.06852233409882L89.85111607142856,117.79062271118164L90.10758928571428,89.51397806406021L90.74877232142856,118.9849271774292L90.87700892857143,105.15514075756073L91.64642857142857,108.07954114675522L91.90290178571429,127.2620778977871L92.03113839285713,106.46826243400574L92.159375,99.89590102434158L92.28761160714286,122.9704467356205L92.4158482142857,118.99239104986191L92.54408482142857,120.04490315914154L92.67232142857144,117.50158730149269L92.80055803571429,123.83263540267944L92.92879464285714,122.13912412524223L93.05703125,109.55197167396545L93.31350446428571,115.56492194533348L93.69821428571429,114.70443877577782L93.82645089285714,112.00166288018227L93.9546875,109.8691093325615L94.21116071428571,100.23224210739136L94.72410714285714,101.46817874908447L94.98058035714287,119.65096241235733L95.23705357142858,116.86697512865067L95.75,115.75609150528908L95.87823660714287,114.63542050123215L96.0064732142857,110.63850885629654L96.26294642857144,123.31819051504135L96.51941964285714,122.68540054559708L96.77589285714286,124.07612633705139L97.03236607142857,109.29627966880798L97.16060267857144,105.47932320833206L97.54531250000001,113.68678194284439L97.80178571428571,118.91812366247177L97.93002232142857,100.4553148150444L98.05825892857143,114.79948246479034L98.18649553571429,121.08637064695358L98.31473214285714,93.92604440450668L98.44296875,119.08367893099785L98.69944196428571,103.83761078119278L98.82767857142858,79.42686480283737L99.46886160714286,115.99221405386925L99.59709821428571,115.41141656041145L99.85357142857144,124.72610920667648L99.98180803571428,117.68439647555351L100.11004464285715,106.37740689516068L100.49475446428572,113.75525912642479L100.75122767857142,109.82763630151749L101.00770089285714,107.99044680595398L101.26417410714285,120.88309019804001L101.52064732142857,102.36302649974823L101.77712053571429,116.5828307569027L101.90535714285714,124.0342236161232L102.03359375000001,107.85222989320755L102.41830357142858,121.84701192378998L102.93124999999999,122.47463235259056L103.05948660714286,117.0244750380516L103.31595982142858,115.71293950080872L103.70066964285715,116.04484841227531L104.21361607142858,107.48148709535599L104.85479910714285,116.13667473196983L105.75245535714285,93.83598458766937L105.88069196428572,118.2559609413147L106.13716517857142,106.0920981168747L106.26540178571429,109.11572504043579L106.39363839285716,112.86083045601845L106.521875,101.13269174098969L106.65011160714286,120.99256297945976L106.77834821428571,115.20396918058395L107.03482142857143,114.3594402372837L107.16305803571429,99.88714277744293L107.67600446428573,130.24493998289108L107.80424107142856,109.80166923999786L108.06071428571428,108.3653114438057L108.3171875,121.49809312820435L108.70189732142856,117.23745533823967L108.9583705357143,123.79916733503342L109.08660714285713,113.50434675812721L109.21484375,111.21237295866013L109.59955357142857,129.64137157797813L109.72779017857142,105.97045344114304L109.85602678571429,124.17324951291084L109.98426339285713,119.14366841316223L110.1125,132.85229554772377L110.36897321428572,123.37798371911049L110.49720982142857,112.6338666677475L110.62544642857144,128.99211812019348L110.88191964285714,115.42405262589455L111.01015625,118.13860785961151L111.13839285714286,109.15964889526367L111.2666294642857,117.42612898349762L111.39486607142857,124.0899586379528L111.52310267857143,112.61438739299774L111.77957589285714,123.15356889367104L111.9078125,114.1966912150383L112.29252232142856,116.38181811571121L112.80546875,125.53442484140396L113.19017857142858,116.89160537719727L113.31841517857143,113.20903044939041L113.4466517857143,127.95267176628113L113.703125,117.13135641813278L113.9595982142857,123.49946394562721L114.08783482142857,113.0476978123188L114.34430803571428,114.01369372010231L114.60078125,120.09956926107407L115.11372767857144,127.34376671910286L115.62667410714286,107.72041589021683L115.75491071428571,126.25118470191956L116.01138392857143,123.99562048912048L116.13962053571429,127.57621303200722L116.26785714285714,133.3498419523239L116.39609375,120.93457606434822L116.52433035714284,122.11767676472664L116.65256696428571,129.65360182523727L117.03727678571428,118.14944824576378L117.16551339285714,115.89264005422592L117.93493303571428,118.33542969822884L118.19140625,100.00351977348328L118.31964285714285,123.82466757297516L118.44787946428572,131.65998569130898L118.57611607142857,118.651108533144L118.83258928571428,121.87594172358513L119.21729910714285,116.83747506141663L119.34553571428572,99.89896720647812L119.73024553571429,131.06869792938232L119.85848214285714,127.14547809958458L119.98671875000001,99.57694381475449L120.24319196428571,113.93440532684326L120.49966517857142,121.30054983496666L120.884375,129.74684983491898L121.01261160714286,134.52354650199413L121.26908482142858,129.09471055865288L121.65379464285715,108.25621265172958L121.78203124999999,124.81880551576614L121.91026785714286,117.27291005849838L122.16674107142858,116.84423074126244L122.29497767857143,126.18116116523743L122.42321428571428,114.48695203661919L122.67968749999999,123.00315091013908L122.80792410714285,127.35792791843414L122.93616071428572,119.52641335129738L123.57734375,128.21297895908356L124.09029017857142,114.49768632650375L124.21852678571429,120.55827912688255L124.475,105.75139117240906L124.73147321428571,119.1389365196228L124.98794642857142,125.55446377396584L125.11618303571429,135.07916469871998L125.24441964285715,122.189742654562L125.37265624999999,116.61756932735443L125.50089285714286,129.55866158008575L125.62912946428573,129.61525863409042L125.88560267857143,127.87940168380737L126.14207589285715,132.7004346549511L126.39854910714286,135.68753263354301L126.78325892857143,136.68121701478958L127.03973214285713,124.75507614016533L127.16796875,127.04541605710983L127.29620535714285,132.33120903372765L127.80915178571429,134.59784571826458L128.065625,128.8778073489666L128.19386160714285,131.656017690897L128.45033482142856,132.0267445743084L128.83504464285713,135.1443250477314L129.34799107142857,135.8113429993391L129.73270089285714,137.38695347309113L130.1174107142857,141.49079026281834L130.24564732142858,137.44038090109825L130.50212053571428,131.35243117809296L130.75859375,129.92655569314957L131.0150669642857,135.19105514883995L131.65625,134.48301772773266L131.9127232142857,133.7693465948105L132.04095982142857,138.2376877218485L132.16919642857144,129.66018509864807L132.29743303571428,126.34743788838387L132.68214285714285,140.253565877676L133.4515625,137.96689689159393L133.7080357142857,132.85958701372147L133.83627232142857,128.02514877915382L133.96450892857143,138.99401220679283L134.09274553571427,140.63740228116512L134.22098214285714,134.0260120332241L134.73392857142858,139.77773605287075L134.99040178571428,118.15400242805481L135.11863839285715,134.10858543217182L135.50334821428572,137.1615042090416L135.63158482142856,135.750354886055L135.75982142857143,136.3819618821144L135.8880580357143,133.17995795607567L136.01629464285713,131.50381729006767L136.27276785714284,140.0953325778246L136.4010044642857,138.07635508477688L136.52924107142857,138.28178796172142L136.65747767857144,127.68399623036385L136.91395089285714,141.95123612880707L137.29866071428572,136.55083265900612L137.55513392857145,142.0777771472931L137.6833705357143,143.73772884905338L137.93984375,132.89162543416023L138.06808035714286,134.24922001361847L138.45279017857143,138.9837805479765L138.8375,136.14393888413906L138.96573660714284,132.53700131177902L139.86339285714286,137.80301396548748L139.99162946428572,140.75081123411655L140.1198660714286,140.58903431892395L140.24810267857143,139.09895732998848L140.3763392857143,141.4223037958145L140.50457589285713,134.45912219583988L140.6328125,134.0425537675619L140.8892857142857,134.30808620154858L141.01752232142857,132.2848290503025L141.1457589285714,133.78773573040962L141.53046874999998,143.96534115076065L141.65870535714285,132.83242371678352L141.78694196428572,138.05800706148148L141.91517857142858,139.58580923080444L142.1716517857143,129.41970464587212L142.94107142857143,132.51155146956444L143.0693080357143,136.9906467795372L143.45401785714284,139.04863189160824L144.35167410714286,135.38649640977383L144.73638392857143,138.20728716254234L145.24933035714287,133.26086696982384L145.63404017857144,139.50118154287338L145.76227678571428,123.31829661130905L145.89051339285714,131.6735288798809L146.14698660714285,122.44240295886993L146.27522321428572,138.52136527001858L146.40345982142856,138.84336213767529L146.78816964285713,140.04526574909687L146.91640625,138.05575516819954L147.17287946428573,136.53635714948177L147.42935267857143,123.09867733716965L147.5575892857143,133.5958539992571L147.8140625,136.2014297991991L148.0705357142857,133.22024801373482L148.19877232142858,137.19766181707382L148.45524553571428,133.30241957306862L148.71171875,120.68968465924263L148.83995535714286,140.7174572199583L148.9681919642857,138.40843242406845L149.09642857142856,127.17027279734612L149.48113839285713,137.23598378896713L149.609375,132.06675878167152L149.73761160714287,134.2262050807476L150.1223214285714,133.47804072499275L150.25055803571428,135.48680114746094L151.27645089285713,137.2553914487362L151.66116071428573,143.1000438630581L151.7893973214286,129.34901005029678L152.04587053571427,134.52462470531464L152.30234375,128.34199732542038L152.43058035714287,139.18919751048088L152.81529017857142,134.34785240888596L152.94352678571428,131.0780184864998L153.20000000000002,130.0752071738243L153.32823660714286,134.52112220227718L153.45647321428572,137.8431196808815L153.58470982142856,140.77417495846748L153.96941964285713,141.8624534457922L154.9953125,138.8767095208168L155.12354910714288,129.11562743782997L155.25178571428572,138.9542990475893L155.50825892857142,132.8862198293209L155.76473214285716,133.48426327109337L155.89296875,125.93275532126427L156.02120535714286,138.28604905307293L156.27767857142857,133.42474856972694L156.53415178571427,124.92962571978569L156.66238839285714,129.08500009775162L156.790625,133.31441640853882L157.17533482142855,134.39325895905495L157.30357142857142,135.3445326834917L157.43180803571428,131.72567254304886L158.07299107142856,137.12245680391788L158.3294642857143,114.83342796564102L158.45770089285713,138.56082379817963L158.8424107142857,139.81315363943577L159.0988839285714,140.63263988494873L159.86830357142856,144.20443572103977L159.99654017857142,123.81713208556175L160.25301339285716,141.20633555948734L160.50948660714286,138.47744672000408L161.0224330357143,136.36253167688847L161.27890625,128.47744512557983L161.5353794642857,140.7943610996008L161.79185267857142,145.3275913670659L162.04832589285715,142.17523983120918L162.30479910714288,138.98672339320183L162.4330357142857,143.88788291811943L162.56127232142856,136.19472451508045L162.68950892857143,141.5149921476841L162.8177455357143,134.1003788858652L163.58716517857144,142.00215835869312L163.71540178571428,141.6188431531191L164.48482142857142,127.2839098572731L164.74129464285716,125.56533333659172L164.99776785714283,133.99855299293995L165.1260044642857,129.31033796072006L165.25424107142857,129.1804469525814L166.40837053571428,138.90872804820538L166.66484375000002,128.77180656790733L167.04955357142856,118.61796936392784L167.43426339285716,116.77072724699974L167.56250000000003,129.17293798923492L167.8189732142857,135.20332650840282L167.94720982142857,133.23496887087822L168.07544642857144,131.3637357354164L168.2036830357143,136.74450874328613L168.46015624999998,137.91458082199097L168.58839285714285,128.32087886333466L168.84486607142858,126.21522602438927L168.97310267857142,125.71406438946724L169.1013392857143,128.68417635560036L169.48604910714283,133.5671642422676L169.6142857142857,134.4285890161991L169.87075892857143,132.1608688235283L170.89665178571428,131.01131576299667L171.02488839285715,132.73193728923798L171.153125,135.4575451016426L171.28136160714286,122.07779517769814L171.66607142857143,135.99556723237038L171.7943080357143,122.9776984155178L171.92254464285716,129.54577618837357L172.3072544642857,122.58837816119194L172.43549107142857,129.06187111139297L172.56372767857144,132.27047953009605L172.94843749999998,132.6495137512684L174.4872767857143,122.20726975798607L174.87198660714284,132.2578302025795L175.12845982142858,134.5047847032547L175.25669642857144,139.19924747943878L175.51316964285712,136.8166064620018L175.64140625,132.3527094423771L176.0261160714286,142.07392717897892L176.41082589285713,144.04966646432877L176.5390625,135.1665097773075L176.66729910714287,136.4685085862875L176.7955357142857,129.1939291357994L176.92377232142857,134.71965351700783L177.05200892857144,135.82260909676552L177.1802455357143,133.25944527983665L177.30848214285712,127.4417413175106L177.56495535714285,116.5262787938118L177.82142857142858,134.74650648236275L177.94966517857145,138.64901101589203L178.20613839285713,132.08259364962578L178.46261160714286,119.94928655028343L178.71908482142857,134.045300334692L178.84732142857143,136.94598688185215L178.9755580357143,127.09192335605621L179.10379464285714,131.92915722727776L179.23203125,131.8618338406086L179.36026785714284,137.25099243223667L180.5143973214286,118.97839429974556L180.64263392857143,118.3213560283184L180.89910714285713,129.48759829998016L181.02734375,126.41796538233757L181.54029017857144,107.42126154899597L181.66852678571428,129.28690925240517L181.79676339285714,136.49794234335423L182.05323660714285,137.23706331849098L182.43794642857145,139.16896495223045L182.82265625,136.53885041177273L183.07912946428573,140.11761677265167L183.33560267857143,137.24114802479744L183.46383928571427,136.9405918866396L183.7203125,138.2559124082327L183.84854910714287,142.85202261805534L184.23325892857144,139.6079780459404L184.36149553571428,133.79502587020397L184.48973214285712,138.99601079523563L184.74620535714286,135.01969376206398L184.87444196428572,133.29913854599L185.0026785714286,136.53260797262192L185.25915178571427,128.63505908846855L185.38738839285713,127.67551648616791L185.515625,135.85720045864582L185.64386160714287,135.31673546135426L185.77209821428573,141.66097530722618L185.90033482142857,130.15960675477982L186.54151785714285,132.88181948661804L186.66975446428572,142.36872228980064L186.92622767857142,131.24204596877098L187.43917410714286,127.99326419830322L187.56741071428573,126.34191823005676L187.8238839285714,107.36646282672882L188.33683035714287,124.51705712080002L188.59330357142858,136.93499928712845L188.84977678571428,125.33070939779282L189.10625,132.06628400087357L189.23448660714286,132.67437741160393L189.36272321428572,131.5157716870308L189.4909598214286,125.79053327441216L189.74743303571427,122.29749667644501L190.13214285714287,133.75173726677895L190.26037946428573,134.53346252441406L190.5168526785714,132.05503249168396L190.64508928571428,129.3269234597683L190.77332589285714,134.85156168043613L191.02979910714288,138.0164743512869L191.5427455357143,128.44962668418884L191.79921875,121.30683073401451L191.92745535714286,115.96697905659676L192.18392857142857,136.0314211398363L192.3121651785714,128.72316938638687L192.696875,129.46583265066147L192.82511160714287,136.16773229837418L193.46629464285715,134.19944362342358L193.59453125000002,139.3115092664957L193.72276785714286,129.25514668226242L193.85100446428572,134.78861874341965L194.10747767857143,135.5022235661745L194.36395089285713,131.8700801730156L194.4921875,128.36424306035042L194.62042410714287,127.86772578954697L194.74866071428573,136.0290008187294L194.87689732142857,133.16308334469795L195.0051339285714,123.24173754453659L195.38984375,143.923390686512L195.77455357142856,139.4403631836176L196.0310267857143,135.75939959287643L196.41573660714286,136.06682281196117L196.5439732142857,130.75891008973122L196.67220982142857,137.25840193033218L196.80044642857143,138.88473570346832L197.31339285714287,135.54266481101513L197.82633928571428,135.59487080574036L198.08281250000002,134.45317417383194L198.21104910714288,121.11518639326096L198.7239955357143,139.16258724033833L198.85223214285716,133.92787563800812L199.2369419642857,137.29692946374416L199.62165178571428,137.95586951076984L199.878125,139.92266355454922L200.1345982142857,124.89662712812424L200.26283482142856,116.80304151773453L200.39107142857142,102.08335673809052L200.77578125000002,123.95340478420258L201.0322544642857,140.18922777473927L201.16049107142857,134.29719541966915L201.4169642857143,128.71372947096825L201.54520089285714,127.66813749074936L201.6734375,132.76437357068062L201.9299107142857,137.01215647161007L202.05814732142858,135.61391508579254L202.44285714285715,128.07298758625984L203.08404017857143,135.43341483175755L204.62287946428572,141.73141659796238L204.75111607142856,142.83953243494034L204.87935267857142,137.63374134898186L205.0075892857143,131.16563013195992L205.5205357142857,134.67332790791988L205.9052455357143,143.35033689439297L206.03348214285717,144.87194702029228L206.28995535714284,139.89473901689053L206.4181919642857,140.26397790014744L206.54642857142858,142.00667142868042L206.67466517857144,138.7104248404503L207.18761160714286,143.76506190001965L207.31584821428572,140.44891430437565L207.44408482142856,139.11881324648857L207.7005580357143,129.13332960009575L207.82879464285716,138.70006984472275L207.95703124999997,127.63027969002724L208.2135044642857,133.03456097841263L208.46997767857144,127.7287423312664L209.23939732142858,137.51415759325027L209.4958705357143,137.35487128794193L210.13705357142857,138.58551239967346L210.26529017857143,139.699195638299L211.41941964285712,132.5173735022545L211.54765625,141.3155019879341L212.06060267857143,141.66774955391884L212.57354910714284,138.25615112483501L212.95825892857144,138.85534305870533L213.34296874999998,131.33207926154137L213.47120535714285,125.66381189227104L213.59944196428572,129.02495226264L213.9841517857143,134.8345716893673L214.11238839285713,140.36035177111626L214.49709821428573,132.7396823167801L214.75357142857143,137.64379131793976L214.8818080357143,139.5289575457573L215.01004464285714,142.64446648955345L215.90770089285712,138.98872330784798L216.0359375,140.85687699913979L216.16417410714286,141.5443503111601L216.29241071428572,144.09359960258007L216.54888392857143,142.7105764001608L216.67712053571427,144.8422016054392L216.80535714285713,141.95175202190876L216.93359375,144.5037266612053L217.06183035714287,140.86701449751854L217.1900669642857,143.90354405343533L217.31830357142857,137.8970165848732L217.44654017857144,135.97551901638508L217.57477678571428,136.87932792305946L217.95948660714285,135.20334772765636L218.21595982142858,137.90597508847713L218.85714285714286,142.87772576510906L218.98537946428573,132.34306263923645L219.1136160714286,141.3099876344204L219.37008928571427,130.60485300421715L220.26774553571428,142.64321853220463L220.52421875,135.7031301110983L221.16540178571427,134.56951536238194L221.29363839285713,133.09049758315086L221.80658482142857,136.4448106586933L222.06305803571428,139.82327389717102L222.19129464285714,142.178437307477L222.44776785714285,132.08585610985756L222.57600446428572,143.41045634448528L222.83247767857142,131.49936920404434L222.9607142857143,138.44672521948814L223.7301339285714,138.55948300659657L223.85837053571427,147.19196206331253L223.98660714285714,142.1136907339096L224.62779017857142,144.80847161263227L224.75602678571428,140.92518708109856L225.91015625,144.4605653733015L226.03839285714287,142.98182079195976L226.4231026785714,145.15307560563087L226.55133928571428,136.75622574985027L226.67957589285714,138.6879682391882L226.93604910714288,139.32193587720394L227.19252232142856,142.74232570827007L227.4489955357143,139.33977065980434L227.83370535714286,140.0805745869875L227.96194196428573,141.7134186923504L228.2184151785714,141.47482542693615L228.34665178571427,144.56548795104027L228.603125,139.7562157511711L228.85959821428574,147.7020841911435L228.98783482142855,144.95343293249607L229.24430803571428,147.51621878147125L229.37254464285715,148.30706699192524L229.88549107142856,144.1746425628662L230.01372767857143,141.4882771074772L230.27020089285713,143.98751394450665L230.3984375,142.06078450381756L230.52667410714287,143.57586838304996L230.65491071428573,138.50624124705791L231.03962053571428,140.4770616441965L231.16785714285714,146.40393336117268L231.29609375,139.40071368217468L231.80904017857142,140.42537949979305L232.06551339285716,144.15194857120514L232.19375,148.34995839744806L232.32198660714286,143.10411398112774L232.57845982142857,141.31077142059803L232.83493303571427,146.87221907824278L233.09140625,143.03135713934898L233.3478794642857,147.3460118547082L233.47611607142855,145.06307215243578L233.60435267857142,147.60510225594044L233.86082589285715,148.13337944447994L233.98906250000002,145.6743099913001L234.11729910714288,148.30148234963417L234.2455357142857,147.0162348151207L234.37377232142856,139.64910493791103L234.50200892857143,140.82396858930588L234.75848214285713,147.24782572686672L234.88671875,145.34305953979492L235.27142857142857,143.14464142918587L235.3996651785714,139.18043395876884L235.65613839285714,146.6459495574236L235.784375,144.66412962973118L236.16908482142856,146.70903373509645L236.29732142857142,143.1178759932518L236.4255580357143,140.91911041736603L236.55379464285716,142.60953031480312L236.9385044642857,138.10809643566608L237.45145089285714,147.41693522036076L237.70792410714287,146.22965366393328L237.8361607142857,146.95368576049805L237.96439732142858,144.56137937307358L238.34910714285715,144.6749613955617L238.47734375000002,142.66492848098278L238.7338169642857,137.46939557790756L239.24676339285716,145.46339260041714L239.375,145.63941426575184L239.50323660714284,136.7084943652153L239.6314732142857,133.87671601772308L239.88794642857144,134.78452740609646L240.40089285714285,145.20042504370213L240.52912946428572,137.34563693404198L240.78560267857142,139.86078688502312L240.9138392857143,143.33723002672195L241.04207589285716,146.07673512399197L241.17031250000002,146.41272608935833L241.4267857142857,137.92365337908268L241.8114955357143,143.4396235346794L241.93973214285717,142.3478756994009L242.06796875,135.82848285138607L242.19620535714284,143.58149944245815L242.3244419642857,139.96270693838596L242.70915178571428,143.65264096856117L242.83738839285715,142.23775838315487L243.47857142857143,143.8574425727129L243.73504464285716,143.92467975616455L243.86328124999997,141.78174203634262L243.99151785714284,141.78384804725647L244.5044642857143,143.64777645468712L244.88917410714285,141.13016241788864L245.14564732142858,142.1554329842329L245.53035714285716,144.2139127701521L245.65859375,146.4781045988202L245.78683035714286,144.295341655612L245.9150669642857,142.89566399157047L246.04330357142857,143.1028368473053L246.2997767857143,142.30473297834396L246.42801339285717,145.13138952851295L246.55624999999998,141.25579498708248L246.94095982142858,143.28422167897224L247.06919642857144,147.21659629046917L247.32566964285715,143.48288694024086L247.45390625,146.4363848939538L247.58214285714286,147.6663456633687L247.96685267857143,138.721994638443L248.22332589285716,143.3495265841484L248.3515625,140.7833509594202L248.47979910714284,145.28556464612484L248.6080357142857,139.15115404129028L249.50569196428572,143.62223908305168L249.63392857142858,138.96073511242867L250.01863839285713,141.81945130228996L250.65982142857143,147.81151983886957L251.17276785714284,144.36612245440483L251.42924107142858,143.11529387533665L251.9421875,142.4763940870762L252.07042410714286,147.9743252247572L252.3268973214286,145.4883815869689L252.83984375,141.64055310189724L252.96808035714287,144.49612618982792L253.0963169642857,145.36127096414566L253.35279017857144,140.34374903142452L253.4810267857143,147.80033265054226L253.60926339285714,146.1111010313034L254.12220982142858,140.6393173187971L254.37868303571426,143.27083498239517L254.63515625,142.43195168673992L254.89162946428573,144.2581761330366L255.01986607142857,143.9578361660242L255.27633928571427,143.86066657304764L255.7892857142857,146.11562935262918L256.04575892857144,147.09251604229212L256.17399553571425,141.64448131620884L256.55870535714286,143.1909378618002L256.94341517857146,143.60286855697632L257.45636160714287,144.66110323369503L257.7128348214286,142.56681463122368L257.84107142857147,136.6286078542471L258.22578125,124.24094158411026L258.7387276785714,139.14821782708168L258.8669642857143,143.2403190433979L258.99520089285716,141.23390202224255L259.1234375,144.75902677327394L259.50814732142857,140.77974236011505L259.63638392857143,135.14718566834927L259.7646205357143,143.5575468838215L260.02109375,140.8375833928585L260.14933035714284,148.08332455158234L260.2775669642857,143.5155698955059L260.5340401785714,143.38402245938778L260.66227678571425,135.0941043794155L261.04698660714286,135.3147183060646L261.1752232142857,140.60327641665936L261.4316964285714,136.0912620872259L261.68816964285713,140.5770414620638L261.81640625,145.2081044241786L261.94464285714287,144.42200601100922L262.8422991071429,139.66232453286648L262.97053571428575,145.1726371049881L263.0987723214286,142.7261062413454L263.2270089285714,145.52478454262018L263.99642857142857,145.77761194854975L264.12466517857143,146.10069696605206L264.2529017857143,142.68692621588707L264.38113839285717,143.53809148073196L264.509375,142.60460877418518L264.7658482142857,133.1320687532425L265.15055803571425,146.90366070717573L265.53526785714286,144.086578682065L266.04821428571427,140.325971275568L266.17645089285713,141.56653636693954L266.3046875,148.17025983333588L266.43292410714287,146.11409825086594L266.8176339285714,144.1286816596985L266.9458705357143,148.42429408431053L267.45881696428575,143.91808719933033L267.8435267857143,141.58500772714615L267.97176339285716,140.24645344913006L268.35647321428576,136.15334962308407L268.48470982142857,140.2502397596836L268.61294642857143,139.18966963887215L268.7411830357143,136.89012852311134L268.86941964285717,141.31910660862923L269.2541294642857,135.763017475605L269.3823660714286,137.29624381661415L269.51060267857144,133.46671229600906L269.63883928571425,119.80783370137215L270.1517857142857,141.75596860051155L270.28002232142853,138.43302288651466L270.4082589285714,142.22620582580566L270.79296875,143.39150887727737L271.0494419642857,139.08900682628155L271.17767857142854,145.0408794656396L271.3059151785714,145.0393072515726L271.56238839285714,141.53077794611454L271.690625,136.06217181682587L271.8188616071429,141.44256818294525L272.07533482142856,135.1518234014511L272.2035714285714,133.9886130988598L272.8447544642857,140.93540017306805L273.10122767857143,142.58250759541988L273.2294642857143,137.88927420973778L273.48593750000003,145.63661067187786L273.8706473214286,141.15666791796684L274.1271205357143,138.7415587902069L274.2553571428571,143.37246061861515L274.38359375,143.298089787364L274.6400669642857,140.9012265652418L274.8965401785714,133.202882707119L275.02477678571427,128.9054772555828L275.15301339285713,144.4082426726818L275.66595982142854,144.16783383488655L275.7941964285714,144.885811150074L276.05066964285714,139.60425141453743L276.3071428571428,145.91230513900518L276.94832589285716,144.87114400416613L277.46127232142857,145.85705020278692L277.58950892857143,143.6866567581892L277.7177455357143,142.17467619478703L277.84598214285717,143.5738247036934L279.38482142857146,141.72519670426846L279.64129464285713,146.83537317067385L279.89776785714287,145.9322194084525L280.15424107142854,144.7568319067359L280.2824776785714,143.6896791756153L280.4107142857143,142.45486317574978L280.53895089285714,142.3925859928131L280.6671875,141.89795458316803L280.7954241071428,145.9435133561492L280.9236607142857,144.43410894274712L281.05189732142856,145.439461261034L281.1801339285714,144.70853158086538L281.3083705357143,140.41565047204494L281.43660714285716,143.98950457572937L281.69308035714283,141.330205604434L281.8213169642857,147.31303779780865L281.94955357142857,141.6055015474558L282.2060267857143,144.7043215483427L282.4625,142.57883666455746L282.8472098214286,147.99995410442352L283.2319196428572,140.10861317813396L283.48839285714286,144.6290740966797L283.6166294642857,146.54147523641586L283.87310267857146,148.8214190453291L284.2578125,147.4383958429098L284.51428571428573,144.97280014306307L284.6425223214286,144.14819541573524L284.8989955357143,146.58821196854115L285.15546875,143.64032717049122L285.2837053571428,137.50767776370049L285.4119419642857,147.06304316222668L285.6684151785714,141.30066442489624L285.7966517857143,143.13486333191395L286.05312499999997,143.7284825593233L286.18136160714283,142.59734250605106L286.43783482142857,145.15292773395777L286.56607142857143,140.81455785036087L287.5919642857143,136.9456473737955L287.7202008928571,139.371352866292L287.97667410714286,147.8000945970416" style="fill: none;" fill="none"></path></g></g></g></g></g></g><g transform="translate(30, 178)" clip-path="url(#clip_1)"><clipPath id="clip_1"><rect width="299" height="22"></rect></clipPath><g><g><line x1="0" y1="0" x2="0" y2="5" style="visibility: inherit;" fill="rgb(0, 0, 0)" stroke="rgb(204, 204, 204)" stroke-width="1px"></line><line x1="21.372767857142858" y1="0" x2="21.372767857142858" y2="5" style="visibility: inherit;" fill="rgb(0, 0, 0)" stroke="rgb(204, 204, 204)" stroke-width="1px"></line><line x1="42.745535714285715" y1="0" x2="42.745535714285715" y2="5" style="visibility: inherit;" fill="rgb(0, 0, 0)" stroke="rgb(204, 204, 204)" stroke-width="1px"></line><line x1="64.11830357142857" y1="0" x2="64.11830357142857" y2="5" style="visibility: inherit;" fill="rgb(0, 0, 0)" stroke="rgb(204, 204, 204)" stroke-width="1px"></line><line x1="85.49107142857143" y1="0" x2="85.49107142857143" y2="5" style="visibility: inherit;" fill="rgb(0, 0, 0)" stroke="rgb(204, 204, 204)" stroke-width="1px"></line><line x1="106.86383928571429" y1="0" x2="106.86383928571429" y2="5" style="visibility: inherit;" fill="rgb(0, 0, 0)" stroke="rgb(204, 204, 204)" stroke-width="1px"></line><line x1="128.23660714285714" y1="0" x2="128.23660714285714" y2="5" style="visibility: inherit;" fill="rgb(0, 0, 0)" stroke="rgb(204, 204, 204)" stroke-width="1px"></line><line x1="149.609375" y1="0" x2="149.609375" y2="5" style="visibility: inherit;" fill="rgb(0, 0, 0)" stroke="rgb(204, 204, 204)" stroke-width="1px"></line><line x1="170.98214285714286" y1="0" x2="170.98214285714286" y2="5" style="visibility: inherit;" fill="rgb(0, 0, 0)" stroke="rgb(204, 204, 204)" stroke-width="1px"></line><line x1="192.35491071428572" y1="0" x2="192.35491071428572" y2="5" style="visibility: inherit;" fill="rgb(0, 0, 0)" stroke="rgb(204, 204, 204)" stroke-width="1px"></line><line x1="213.72767857142858" y1="0" x2="213.72767857142858" y2="5" style="visibility: inherit;" fill="rgb(0, 0, 0)" stroke="rgb(204, 204, 204)" stroke-width="1px"></line><line x1="235.10044642857142" y1="0" x2="235.10044642857142" y2="5" style="visibility: inherit;" fill="rgb(0, 0, 0)" stroke="rgb(204, 204, 204)" stroke-width="1px"></line><line x1="256.4732142857143" y1="0" x2="256.4732142857143" y2="5" style="visibility: inherit;" fill="rgb(0, 0, 0)" stroke="rgb(204, 204, 204)" stroke-width="1px"></line><line x1="277.84598214285717" y1="0" x2="277.84598214285717" y2="5" style="visibility: inherit;" fill="rgb(0, 0, 0)" stroke="rgb(204, 204, 204)" stroke-width="1px"></line><line x1="299.21875" y1="0" x2="299.21875" y2="5" style="visibility: inherit;" fill="rgb(0, 0, 0)" stroke="rgb(204, 204, 204)" stroke-width="1px"></line></g><g transform="translate(0, 8)"><text x="0" y="0" dx="0em" dy="0.95em" style="text-anchor: middle; visibility: hidden; font-family: Roboto, sans-serif; font-size: 12px; font-weight: 200;" fill="rgb(50, 49, 63)" stroke="none" stroke-width="1px">-1k</text><text x="21.372767857142858" y="0" dx="0em" dy="0.95em" style="text-anchor: middle; visibility: inherit; font-family: Roboto, sans-serif; font-size: 12px; font-weight: 200;" fill="rgb(50, 49, 63)" stroke="none" stroke-width="1px">0</text><text x="42.745535714285715" y="0" dx="0em" dy="0.95em" style="text-anchor: middle; visibility: hidden; font-family: Roboto, sans-serif; font-size: 12px; font-weight: 200;" fill="rgb(50, 49, 63)" stroke="none" stroke-width="1px">1k</text><text x="64.11830357142857" y="0" dx="0em" dy="0.95em" style="text-anchor: middle; visibility: inherit; font-family: Roboto, sans-serif; font-size: 12px; font-weight: 200;" fill="rgb(50, 49, 63)" stroke="none" stroke-width="1px">2k</text><text x="85.49107142857143" y="0" dx="0em" dy="0.95em" style="text-anchor: middle; visibility: hidden; font-family: Roboto, sans-serif; font-size: 12px; font-weight: 200;" fill="rgb(50, 49, 63)" stroke="none" stroke-width="1px">3k</text><text x="106.86383928571429" y="0" dx="0em" dy="0.95em" style="text-anchor: middle; visibility: inherit; font-family: Roboto, sans-serif; font-size: 12px; font-weight: 200;" fill="rgb(50, 49, 63)" stroke="none" stroke-width="1px">4k</text><text x="128.23660714285714" y="0" dx="0em" dy="0.95em" style="text-anchor: middle; visibility: hidden; font-family: Roboto, sans-serif; font-size: 12px; font-weight: 200;" fill="rgb(50, 49, 63)" stroke="none" stroke-width="1px">5k</text><text x="149.609375" y="0" dx="0em" dy="0.95em" style="text-anchor: middle; visibility: inherit; font-family: Roboto, sans-serif; font-size: 12px; font-weight: 200;" fill="rgb(50, 49, 63)" stroke="none" stroke-width="1px">6k</text><text x="170.98214285714286" y="0" dx="0em" dy="0.95em" style="text-anchor: middle; visibility: hidden; font-family: Roboto, sans-serif; font-size: 12px; font-weight: 200;" fill="rgb(50, 49, 63)" stroke="none" stroke-width="1px">7k</text><text x="192.35491071428572" y="0" dx="0em" dy="0.95em" style="text-anchor: middle; visibility: inherit; font-family: Roboto, sans-serif; font-size: 12px; font-weight: 200;" fill="rgb(50, 49, 63)" stroke="none" stroke-width="1px">8k</text><text x="213.72767857142858" y="0" dx="0em" dy="0.95em" style="text-anchor: middle; visibility: hidden; font-family: Roboto, sans-serif; font-size: 12px; font-weight: 200;" fill="rgb(50, 49, 63)" stroke="none" stroke-width="1px">9k</text><text x="235.10044642857142" y="0" dx="0em" dy="0.95em" style="text-anchor: middle; visibility: inherit; font-family: Roboto, sans-serif; font-size: 12px; font-weight: 200;" fill="rgb(50, 49, 63)" stroke="none" stroke-width="1px">10k</text><text x="256.4732142857143" y="0" dx="0em" dy="0.95em" style="text-anchor: middle; visibility: hidden; font-family: Roboto, sans-serif; font-size: 12px; font-weight: 200;" fill="rgb(50, 49, 63)" stroke="none" stroke-width="1px">11k</text><text x="277.84598214285717" y="0" dx="0em" dy="0.95em" style="text-anchor: middle; visibility: inherit; font-family: Roboto, sans-serif; font-size: 12px; font-weight: 200;" fill="rgb(50, 49, 63)" stroke="none" stroke-width="1px">12k</text><text x="299.21875" y="0" dx="0em" dy="0.95em" style="text-anchor: middle; visibility: hidden; font-family: Roboto, sans-serif; font-size: 12px; font-weight: 200;" fill="rgb(50, 49, 63)" stroke="none" stroke-width="1px">13k</text></g><line x1="0" y1="0" x2="299.21875" y2="0" fill="rgb(0, 0, 0)" stroke="rgb(204, 204, 204)" stroke-width="1px"></line></g></g></g></g></svg>