<svg viewBox="0 0 330 200" xmlns="http://www.w3.org/2000/svg"><g><g><g><g><g><line x1="30.78125" y1="178" x2="25.78125" y2="178" style="visibility: inherit;" fill="rgb(0, 0, 0)" stroke="rgb(204, 204, 204)" stroke-width="1px"></line><line x1="30.78125" y1="155.75" x2="25.78125" y2="155.75" style="visibility: inherit;" fill="rgb(0, 0, 0)" stroke="rgb(204, 204, 204)" stroke-width="1px"></line><line x1="30.78125" y1="133.5" x2="25.78125" y2="133.5" style="visibility: inherit;" fill="rgb(0, 0, 0)" stroke="rgb(204, 204, 204)" stroke-width="1px"></line><line x1="30.78125" y1="111.25" x2="25.78125" y2="111.25" style="visibility: inherit;" fill="rgb(0, 0, 0)" stroke="rgb(204, 204, 204)" stroke-width="1px"></line><line x1="30.78125" y1="89" x2="25.78125" y2="89" style="visibility: inherit;" fill="rgb(0, 0, 0)" stroke="rgb(204, 204, 204)" stroke-width="1px"></line><line x1="30.78125" y1="66.75" x2="25.78125" y2="66.75" style="visibility: inherit;" fill="rgb(0, 0, 0)" stroke="rgb(204, 204, 204)" stroke-width="1px"></line><line x1="30.78125" y1="44.5" x2="25.78125" y2="44.5" style="visibility: inherit;" fill="rgb(0, 0, 0)" stroke="rgb(204, 204, 204)" stroke-width="1px"></line><line x1="30.78125" y1="22.25" x2="25.78125" y2="22.25" style="visibility: inherit;" fill="rgb(0, 0, 0)" stroke="rgb(204, 204, 204)" stroke-width="1px"></line><line x1="30.78125" y1="0" x2="25.78125" y2="0" style="visibility: inherit;" fill="rgb(0, 0, 0)" stroke="rgb(204, 204, 204)" stroke-width="1px"></line></g><g transform="translate(20.78125, 0)"><text x="0" y="178" dx="0em" dy="0.3em" style="text-anchor: end; visibility: hidden; font-family: Roboto, sans-serif; font-size: 12px; font-weight: 200;" fill="rgb(50, 49, 63)" stroke="none" stroke-width="1px">-6</text><text x="0" y="155.75" dx="0em" dy="0.3em" style="text-anchor: end; visibility: inherit; font-family: Roboto, sans-serif; font-size: 12px; font-weight: 200;" fill="rgb(50, 49, 63)" stroke="none" stroke-width="1px">-4</text><text x="0" y="133.5" dx="0em" dy="0.3em" style="text-anchor: end; visibility: hidden; font-family: Roboto, sans-serif; font-size: 12px; font-weight: 200;" fill="rgb(50, 49, 63)" stroke="none" stroke-width="1px">-2</text><text x="0" y="111.25" dx="0em" dy="0.3em" style="text-anchor: end; visibility: inherit; font-family: Roboto, sans-serif; font-size: 12px; font-weight: 200;" fill="rgb(50, 49, 63)" stroke="none" stroke-width="1px">0</text><text x="0" y="89" dx="0em" dy="0.3em" style="text-anchor: end; visibility: hidden; font-family: Roboto, sans-serif; font-size: 12px; font-weight: 200;" fill="rgb(50, 49, 63)" stroke="none" stroke-width="1px">2</text><text x="0" y="66.75" dx="0em" dy="0.3em" style="text-anchor: end; visibility: inherit; font-family: Roboto, sans-serif; font-size: 12px; font-weight: 200;" fill="rgb(50, 49, 63)" stroke="none" stroke-width="1px">4</text><text x="0" y="44.5" dx="0em" dy="0.3em" style="text-anchor: end; visibility: hidden; font-family: Roboto, sans-serif; font-size: 12px; font-weight: 200;" fill="rgb(50, 49, 63)" stroke="none" stroke-width="1px">6</text><text x="0" y="22.25" dx="0em" dy="0.3em" style="text-anchor: end; visibility: inherit; font-family: Roboto, sans-serif; font-size: 12px; font-weight: 200;" fill="rgb(50, 49, 63)" stroke="none" stroke-width="1px">8</text><text x="0" y="0" dx="0em" dy="0.3em" style="text-anchor: end; visibility: hidden; font-family: Roboto, sans-serif; font-size: 12px; font-weight: 200;" fill="rgb(50, 49, 63)" stroke="none" stroke-width="1px">10</text></g><line x1="30.78125" y1="0" x2="30.78125" y2="178" fill="rgb(0, 0, 0)" stroke="rgb(204, 204, 204)" stroke-width="1px"></line></g></g><g transform="translate(30, 0)" clip-path="url(#clip_0)"><clipPath id="clip_0"><rect width="299" height="178"></rect></clipPath><g><g><g><line x1="0" y1="0" x2="0" y2="178" fill="rgb(0, 0, 0)" stroke="rgb(60, 60, 60)" stroke-width="1px" opacity="0.25"></line><line x1="24.934895833333332" y1="0" x2="24.934895833333332" y2="178" fill="rgb(0, 0, 0)" stroke="rgb(60, 60, 60)" stroke-width="1px" opacity="0.25"></line><line x1="49.869791666666664" y1="0" x2="49.869791666666664" y2="178" fill="rgb(0, 0, 0)" stroke="rgb(60, 60, 60)" stroke-width="1px" opacity="0.25"></line><line x1="74.8046875" y1="0" x2="74.8046875" y2="178" fill="rgb(0, 0, 0)" stroke="rgb(60, 60, 60)" stroke-width="1px" opacity="0.25"></line><line x1="99.73958333333333" y1="0" x2="99.73958333333333" y2="178" fill="rgb(0, 0, 0)" stroke="rgb(60, 60, 60)" stroke-width="1px" opacity="0.25"></line><line x1="124.67447916666667" y1="0" x2="124.67447916666667" y2="178" fill="rgb(0, 0, 0)" stroke="rgb(60, 60, 60)" stroke-width="1px" opacity="0.25"></line><line x1="149.609375" y1="0" x2="149.609375" y2="178" fill="rgb(0, 0, 0)" stroke="rgb(60, 60, 60)" stroke-width="1px" opacity="0.25"></line><line x1="174.54427083333334" y1="0" x2="174.54427083333334" y2="178" fill="rgb(0, 0, 0)" stroke="rgb(60, 60, 60)" stroke-width="1px" opacity="0.25"></line><line x1="199.47916666666666" y1="0" x2="199.47916666666666" y2="178" fill="rgb(0, 0, 0)" stroke="rgb(60, 60, 60)" stroke-width="1px" opacity="0.25"></line><line x1="224.4140625" y1="0" x2="224.4140625" y2="178" fill="rgb(0, 0, 0)" stroke="rgb(60, 60, 60)" stroke-width="1px" opacity="0.25"></line><line x1="249.34895833333334" y1="0" x2="249.34895833333334" y2="178" fill="rgb(0, 0, 0)" stroke="rgb(60, 60, 60)" stroke-width="1px" opacity="0.25"></line><line x1="274.28385416666663" y1="0" x2="274.28385416666663" y2="178" fill="rgb(0, 0, 0)" stroke="rgb(60, 60, 60)" stroke-width="1px" opacity="0.25"></line><line x1="299.21875" y1="0" x2="299.21875" y2="178" fill="rgb(0, 0, 0)" stroke="rgb(60, 60, 60)" stroke-width="1px" opacity="0.25"></line></g><g><line x1="0" y1="178" x2="299.21875" y2="178" fill="rgb(0, 0, 0)" stroke="rgb(60, 60, 60)" stroke-width="1px" opacity="0.25"></line><line x1="0" y1="155.75" x2="299.21875" y2="155.75" fill="rgb(0, 0, 0)" stroke="rgb(60, 60, 60)" stroke-width="1px" opacity="0.25"></line><line x1="0" y1="133.5" x2="299.21875" y2="133.5" fill="rgb(0, 0, 0)" stroke="rgb(60, 60, 60)" stroke-width="1px" opacity="0.25"></line><line x1="0" y1="111.25" x2="299.21875" y2="111.25" fill="rgb(0, 0, 0)" stroke="rgb(60, 60, 60)" stroke-width="1px" opacity="0.25"></line><line x1="0" y1="89" x2="299.21875" y2="89" fill="rgb(0, 0, 0)" stroke="rgb(60, 60, 60)" stroke-width="1px" opacity="0.25"></line><line x1="0" y1="66.75" x2="299.21875" y2="66.75" fill="rgb(0, 0, 0)" stroke="rgb(60, 60, 60)" stroke-width="1px" opacity="0.25"></line><line x1="0" y1="44.5" x2="299.21875" y2="44.5" fill="rgb(0, 0, 0)" stroke="rgb(60, 60, 60)" stroke-width="1px" opacity="0.25"></line><line x1="0" y1="22.25" x2="299.21875" y2="22.25" fill="rgb(0, 0, 0)" stroke="rgb(60, 60, 60)" stroke-width="1px" opacity="0.25"></line><line x1="0" y1="0" x2="299.21875" y2="0" fill="rgb(0, 0, 0)" stroke="rgb(60, 60, 60)" stroke-width="1px" opacity="0.25"></line></g></g></g><g><g><line x1="0" y1="111.25" x2="299.21875" y2="111.25" fill="rgb(0, 0, 0)" stroke="rgb(153, 153, 153)" stroke-width="1.5px"></line></g></g><g><g><line x1="24.934895833333332" y1="0" x2="24.934895833333332" y2="178" fill="rgb(0, 0, 0)" stroke="rgb(153, 153, 153)" stroke-width="1.5px"></line></g></g><g><g><g><g><g><path stroke="rgb(255, 112, 67)" stroke-width="2px" d="M25.682942708333332,111.4709452081006L25.932291666666668,111.48408652338549L26.430989583333332,111.66493213905156L26.430989583333332,111.75249252988023L26.680338541666668,111.8335143092066L26.9296875,111.88691183817636L26.9296875,111.88624557387574L27.428385416666664,112.03432263378122L27.428385416666664,112.13528095206362L27.677734375,112.30030717281244L28.176432291666664,112.44685327876303L29.173828125,113.91733314379681L29.423177083333332,117.47494575545997L29.672526041666668,120.390629121877L30.171223958333332,123.21380082284408L30.420572916666668,127.63147250146454L30.669921874999996,129.97273418903552L30.669921874999996,131.24350128839046L30.919270833333332,133.2331517528448L31.168619791666668,135.6869150837245L31.41796875,133.5571086754792L31.667317708333332,137.39104655850525L31.916666666666668,138.41339173330206L31.916666666666668,138.4817416712605L32.166015625,138.25327250644065L32.166015625,139.08317779775842L32.664713541666664,137.1069451447199L32.664713541666664,137.6564123712132L32.9140625,141.65423331233137L33.163411458333336,142.2261855172277L33.412760416666664,141.57905936998392L33.412760416666664,141.7979939442013L33.662109375,141.75929720581368L33.91145833333333,141.9954017908318L34.160807291666664,141.3960011922162L34.160807291666664,140.85047274997467L34.41015625,140.14793138170955L34.659505208333336,147.4923213067058L34.908854166666664,145.23895724166493L35.65690104166667,143.19905728752357L35.65690104166667,144.65394622594545L35.90625,146.11693504231303L35.90625,147.5809579542163L36.155598958333336,144.7078437472899L36.155598958333336,142.8080081976775L36.903645833333336,148.64792993327583L37.90104166666667,147.88722254428762L38.150390625,150.99121167424434L38.39973958333333,144.63290348141638L39.14778645833333,143.20515142969674L39.646484375,143.38189588244276L39.895833333333336,139.01010501535765L39.895833333333336,138.6620739826675L40.145182291666664,144.2006419020422L40.643880208333336,148.27010623917405L40.643880208333336,149.13928431454588L40.893229166666664,151.09292632450678L41.142578125,153.3690113670234L41.391927083333336,157.15061657706556L42.139973958333336,154.06880329298752L42.389322916666664,144.23275221733886L42.63867187499999,153.7100896200458L42.888020833333336,150.26027933126207L42.888020833333336,149.30972894051976L43.137369791666664,146.66903932106084L43.636067708333336,143.17303604609717L43.885416666666664,142.04981477693883L44.134765625,149.38027992031675L44.384114583333336,152.48221751559797L44.384114583333336,157.57128050630703L44.633463541666664,156.70728549185642L44.8828125,150.39605242504626L44.8828125,147.3786335974571L45.38151041666667,150.77226258454542L45.630859375,150.133054954635L45.630859375,150.6909830348652L45.88020833333333,155.18212801080713L46.12955729166667,153.61602708018881L46.37890625,153.68428530882036L47.126953125,158.66502093428514L47.126953125,160.4891364047178L47.37630208333333,163.63801349814227L47.62565104166667,154.69615533122715L47.875,157.2184841762143L48.12434895833333,158.20820515931592L48.373697916666664,162.9511869286355L48.623046875,161.3667502126012L48.872395833333336,158.93588292127333L48.872395833333336,158.3474124164908L49.869791666666664,161.04759396860177L50.86718750000001,152.93230937569842L50.86718750000001,148.4969938436121L51.116536458333336,155.22862380975306L51.61523437499999,148.69946184297694L51.864583333333336,144.09131933772738L52.36328125,137.65109891607867L52.36328125,134.10921657034459L52.861979166666664,145.5061620470804L52.861979166666664,150.93990545254482L53.111328125,152.4837441133352L53.360677083333336,148.12737833779406L53.360677083333336,144.47223249269337L53.610026041666664,150.07667002196794L54.108723958333336,166.49460135171228L54.108723958333336,177.01397034090408L54.35807291666667,171.35413449145344L54.607421875,168.80880251608482L55.10611979166667,161.09564877201433L55.60481770833333,160.02922680764982L55.85416666666667,157.0930344986295L56.103515625,155.28906945749375L56.35286458333333,152.6547566674009L56.8515625,151.1796806706104L57.35026041666667,142.75305561143836L57.35026041666667,139.15572707604574L57.599609375,144.90754514188293L57.599609375,149.25848723203376L57.84895833333333,148.15172148198147L58.34765625,144.11917979985628L58.597005208333336,142.34681656044816L58.846354166666664,136.628407365573L59.095703125,139.17588494210992L59.84375,140.40226448768112L60.093098958333336,144.8775612663849L60.59179687500001,144.97087753722812L61.090494791666664,146.8383199626788L61.33984374999999,144.56758691397815L61.589192708333336,147.84056092219058L62.087890625,149.49902997563188L62.337239583333336,146.53320034831702L62.337239583333336,145.862251546919L62.586588541666664,147.74316677268723L62.8359375,142.66325726995694L62.8359375,137.96170468860763L63.334635416666664,135.60679993470845L63.583984375,137.5171953525563L63.833333333333336,138.35167296447875L64.08268229166667,140.39095275234294L64.58138020833333,143.76910347122617L64.83072916666667,140.66978403555552L64.83072916666667,139.4909622587395L65.080078125,144.53827770457457L65.32942708333333,137.82959712687605L65.57877604166667,133.6673399874179L65.828125,141.9659535925751L65.828125,145.42298088319092L66.32682291666667,139.87402340082522L66.32682291666667,136.20189006512283L66.576171875,137.5560370170171L67.32421875,136.17230486173005L67.57356770833333,133.0750912326489L68.072265625,134.85899010288205L68.072265625,135.66400069586925L68.32161458333333,134.0570166742354L68.57096354166666,133.44627855035958L69.06966145833333,130.75857930668172L69.31901041666667,129.42860127859103L69.568359375,128.13702916129105L69.81770833333333,128.3860756100635L69.81770833333333,127.69204027303577L70.06705729166667,124.4185810586722L70.31640625,124.66992477184006L70.56575520833333,127.59415693047922L70.81510416666667,123.94708246268797L71.064453125,124.81669162677507L71.31380208333334,127.35807703117597L71.31380208333334,129.64167907345336L71.56315104166667,133.85435983245395L72.06184895833334,135.0942439359714L72.31119791666667,134.0398750199252L72.31119791666667,133.84899449905L72.560546875,133.997136143209L72.80989583333334,137.0129943533906L73.30859375,138.81673445964867L73.30859375,138.96120316186554L73.55794270833333,129.80646327822808L73.80729166666667,129.71577088647726L73.80729166666667,129.18638368018654L74.056640625,129.65786515812985L74.056640625,128.72647695625372L75.30338541666666,121.4675716303858L75.30338541666666,120.96489583808616L76.05143229166666,120.6471082947161L76.79947916666666,128.2024070371095L77.048828125,124.62052997046135L77.54752604166666,124.75990552957906L77.54752604166666,124.74565811905893L77.796875,121.16195469620008L78.04622395833333,122.98893412066806L78.29557291666666,121.25586003132645L78.79427083333333,123.02639749090662L79.79166666666667,117.81077596509928L80.041015625,117.31670065799042L80.041015625,116.53294868516139L80.29036458333333,120.91355784682757L80.53971354166667,118.91568617044882L80.53971354166667,116.91950688075421L81.03841145833333,117.23069803900358L81.28776041666667,114.82464242197179L82.28515625,113.13986848126115L82.28515625,112.92212013501084L82.53450520833333,113.65143004863356L82.53450520833333,112.03931899254856L82.78385416666667,116.2236545108875L83.03320312500001,119.52038036126615L83.28255208333333,116.91884832435085L83.53190104166667,116.93988187821645L83.53190104166667,115.39392794496978L83.78125000000001,111.55792268411616L84.03059895833333,116.31798074422062L84.27994791666667,121.36080500947106L84.77864583333333,117.92005950043601L85.52669270833333,118.23037118810416L86.025390625,118.70886190592051L86.025390625,118.90566576039075L86.27473958333333,119.61489711412955L86.52408854166667,116.50391026934486L87.02278645833333,119.48534195781053L88.26953125,117.7829351196307L88.76822916666667,116.18362217811453L88.76822916666667,115.26926915373032L89.017578125,115.6344506339766L89.26692708333333,112.88172037506328L89.51627604166667,112.47482352542414L89.51627604166667,112.74844740308842L89.765625,111.04902580143523L90.513671875,104.63124878264375L90.513671875,100.71538057957238L91.26171875,102.5305349650034L91.51106770833334,101.33982675206953L91.76041666666666,101.46972281892472L91.76041666666666,99.37048918699847L92.009765625,103.29885000852124L92.009765625,105.5568862430297L92.25911458333334,105.02099610400452L92.25911458333334,105.53720849473629L92.50846354166666,105.13818554114908L92.50846354166666,104.75071522314316L92.7578125,101.78915348481517L93.00716145833334,101.63295018870461L93.25651041666666,99.22834248661297L93.505859375,98.87144770216523L93.505859375,98.27778432364212L93.75520833333334,97.39005248305169L94.25390625,98.10941193435768L94.50325520833334,96.81517553290237L94.75260416666666,96.45649914717977L95.25130208333334,99.37993681595506L95.50065104166666,96.37092869380584L95.50065104166666,96.0968664222924L95.75,93.99257551038076L95.99934895833334,96.26648026945476L96.24869791666666,96.22227793480327L96.498046875,99.36053234067779L96.74739583333333,95.84361995296014L96.99674479166666,98.31689361653528L97.24609375,99.68055286956907L97.49544270833333,97.96147156329799L97.49544270833333,96.87210960132985L97.74479166666667,97.35055710639423L97.74479166666667,97.9357423291556L97.994140625,95.1068194214077L98.24348958333333,88.64334017655678L98.24348958333333,86.18521749151603L98.99153645833333,91.61170451148067L98.99153645833333,93.73329447092839L99.24088541666667,91.96721369255916L99.490234375,95.60646919148766L99.490234375,97.03123471580507L99.98893229166667,96.77940386201477L100.23828125,97.93650946417772L100.48763020833333,93.37457805513932L100.73697916666667,89.03050635838267L100.986328125,82.20314640154693L101.23567708333333,92.89288683965955L101.23567708333333,98.64453874072522L101.48502604166667,93.8782697084015L101.73437500000001,96.44513345137032L102.23307291666667,95.87537304386375L102.48242187500001,89.00197486773058L102.73177083333333,90.52607050356225L102.98111979166667,89.53008209953877L103.47981770833333,92.58541962677343L104.22786458333333,83.9502498219854L104.97591145833333,82.2920299476651L105.22526041666667,83.05710354484724L105.474609375,86.93794171832565L105.474609375,88.72920919550994L105.72395833333333,81.84972825702152L105.72395833333333,76.07194353971553L105.97330729166667,84.54681398769422L105.97330729166667,89.27401624500872L106.22265625,89.18174852955414L106.47200520833333,86.57006994502589L106.970703125,92.74815452466514L106.970703125,96.45677018386189L107.22005208333333,88.5312131179694L107.46940104166667,87.7443609674766L107.96809895833333,89.70443181633917L108.21744791666667,92.18306753897647L108.21744791666667,92.2261726728915L108.466796875,92.32503210734359L108.71614583333334,92.66589543361087L108.96549479166667,81.94366491519581L108.96549479166667,74.69086449553474L109.21484375,80.01695688492L109.21484375,81.61699553683961L109.46419270833334,83.67738874170522L109.71354166666666,82.99415857442223L109.71354166666666,82.52989494113923L109.962890625,82.41537432258608L110.21223958333334,75.58169443836975L110.21223958333334,74.0060535635422L110.46158854166666,81.03044879233063L110.46158854166666,82.97546396133436L110.7109375,83.5816778986283L110.96028645833334,86.92692835024762L110.96028645833334,88.46813245947223L111.458984375,80.09276218614018L111.95768229166666,70.47134573102616L112.20703125,81.14046310091389L112.45638020833334,81.07516813698037L112.45638020833334,82.51580810798778L112.70572916666666,85.72305761726842L112.955078125,85.4150527295598L113.20442708333334,80.04876165253692L113.45377604166666,76.56161168016656L113.703125,82.0720348882536L114.20182291666666,80.373631318084L114.70052083333334,85.55822361688112L114.70052083333334,89.44392629373249L114.94986979166666,82.46903951113329L115.19921875,87.66035130706373L115.19921875,90.73273701123563L115.44856770833333,86.19411508233647L115.44856770833333,81.72409021849215L115.69791666666666,79.55890629288423L115.947265625,87.40646710751574L116.19661458333333,83.65212074970079L116.94466145833333,79.25918836626334L117.19401041666667,69.65145062943056L117.19401041666667,62.1081316443667L117.443359375,66.51126792266281L117.443359375,72.63123361011928L117.69270833333333,68.67211589658609L118.19140625,73.6121335830948L118.19140625,75.58914016524919L118.69010416666667,80.1371200015543L118.69010416666667,81.95249542775143L118.939453125,82.84958670844073L119.18880208333333,77.56509794181247L119.43815104166667,81.00892238250769L119.6875,82.62437050599692L119.93684895833333,83.09363737737439L120.18619791666667,81.43620969674173L120.43554687500001,71.05435107839811L120.68489583333333,79.49627501781409L120.68489583333333,83.54343410143629L120.93424479166667,79.05976672058924L121.18359375000001,79.99091412476079L121.18359375000001,79.59094746024236L121.43294270833333,81.01338457531229L121.68229166666667,83.91428625265655L121.68229166666667,84.10684451866088L122.43033854166667,83.09339848403894L122.92903645833333,86.64951282289482L122.92903645833333,88.74216354815279L123.17838541666667,89.66229456024237L123.427734375,77.21334925506633L123.67708333333333,80.29232021101785L123.92643229166667,77.92039426522538L123.92643229166667,76.95574963305641L124.17578125,81.65869181283861L124.17578125,84.17850289898247L124.42513020833333,85.80210785959441L124.67447916666667,90.77200162943768L124.923828125,85.32908047757486L125.17317708333333,81.11942430449689L125.42252604166667,86.54592515893677L125.671875,71.43515754859386L125.92122395833333,67.31257298660718L125.92122395833333,65.28970009727743L126.419921875,73.745995489618L126.66927083333333,82.14188027850436L126.91861979166667,80.4921167163351L127.16796875,72.09557415654056L127.41731770833334,75.31131546264764L127.916015625,73.78758772948905L128.41471354166666,72.71235212528424L128.6640625,75.52762859370537L128.91341145833334,75.67453774992364L129.16276041666666,70.35573840846858L129.412109375,76.20582147067928L129.66145833333334,79.18093180433598L130.16015625,84.3394858585339L130.40950520833334,76.93852725902445L130.65885416666666,73.44429155158548L130.65885416666666,69.63748147468297L130.908203125,72.13108542192298L131.15755208333334,71.17924404518793L131.90559895833334,66.17305317149751L132.15494791666666,69.44776777402278L132.404296875,71.3420754073603L132.404296875,73.15185990324873L132.65364583333334,77.30053993696725L132.65364583333334,78.95907359501572L133.15234375,79.81487029302627L133.40169270833334,80.55468347971743L133.65104166666666,74.26317290845577L133.900390625,74.20599861373344L134.14973958333331,83.91918465751314L134.14973958333331,88.99882583175841L134.39908854166666,82.11684758874621L134.39908854166666,79.48928780205755L134.6484375,70.5431757381422L134.89778645833331,59.99819736545459L134.89778645833331,55.38330915489897L135.14713541666666,57.03903619598808L135.396484375,68.39792924017586L135.64583333333331,64.34099486405181L135.89518229166666,76.37754396757202L136.14453125,78.83237820959519L136.39388020833331,82.42176879701871L136.39388020833331,84.38965829168474L136.892578125,80.85017964812943L137.14192708333331,85.40052168114678L137.39127604166666,85.92190127696811L138.13932291666666,74.51315184310803L138.388671875,77.68549692556698L138.388671875,80.35738258317376L138.63802083333334,85.04525553438225L138.63802083333334,87.13932668717598L138.88736979166666,86.19032292098936L138.88736979166666,86.61977140027962L139.13671875,68.78685660313775L139.38606770833334,60.20023982018953L139.38606770833334,55.66770644361212L139.884765625,55.55805062874815L139.884765625,57.13751530423558L140.13411458333334,66.63240492209671L140.13411458333334,72.47937260785626L140.38346354166666,67.96030642222719L141.13151041666666,69.38077206391905L141.380859375,56.49697455751189L141.63020833333334,67.19641771904998L142.62760416666669,78.1823492109321L142.876953125,76.25908742305889L143.37565104166669,74.10932351325306L143.87434895833334,76.17773775562259L143.87434895833334,76.77740359487898L144.12369791666669,72.81493557800512L144.373046875,81.30868628805673L144.373046875,86.55739492884753L144.62239583333334,84.87630318827318L144.87174479166669,83.84504963890842L145.12109375,75.89220839700778L145.37044270833334,62.129498517284865L145.61979166666669,70.96615310655241L145.61979166666669,75.52241110888842L145.869140625,65.90811572127177L146.11848958333334,65.72565551789185L146.36783854166669,65.89980442638148L146.6171875,59.39178235122531L146.86653645833334,71.53686077468973L146.86653645833334,78.06339439793457L147.11588541666666,76.916795355344L147.11588541666666,77.21761707202445L147.61458333333334,70.80318944296748L147.61458333333334,71.01653563166566L147.86393229166666,59.880821413903874L148.11328125,59.12600466436711L148.36263020833334,58.284420328298616L149.36002604166666,57.2176475506779L149.609375,62.68968164812067L149.85872395833334,72.17132191592775L150.10807291666669,66.89490669211341L150.35742187499997,61.701422078851415L150.35742187499997,58.031869520809394L150.85611979166666,52.26396233443386L150.85611979166666,50.65774258735161L151.10546875,49.62415059067237L151.35481770833334,50.194412491663876L151.35481770833334,50.54869643565689L151.60416666666669,57.891307328442785L151.85351562499997,54.4818524922729L152.85091145833334,69.71552807127239L153.10026041666669,61.93044728061438L153.10026041666669,57.82466911089945L153.349609375,60.68514475114661L153.59895833333331,55.80413079790782L153.84830729166666,62.85844596941776L153.84830729166666,67.51809376907055L154.09765625,65.48054496307196L154.34700520833334,79.19129081284417L154.59635416666669,78.81471185514577L154.59635416666669,78.21802804845123L155.09505208333331,75.65003144727676L155.09505208333331,75.79538751832563L155.34440104166666,64.52680888886401L155.84309895833334,70.04176271626443L156.09244791666666,69.24194379251654L156.341796875,69.38766923905285L156.59114583333331,66.72233392811341L156.84049479166666,72.1830160499604L157.58854166666666,60.16384681945987L157.837890625,60.79914460710255L158.08723958333334,68.49799929935674L158.33658854166666,75.66721389817559L158.83528645833334,50.3528087504349L159.08463541666666,54.63883371160281L159.333984375,71.77648750547083L159.58333333333334,75.73728433611102L159.83268229166666,74.62796531535452L160.08203125,79.02495783816138L160.08203125,81.14923576265787L160.33138020833334,86.5085268601788L160.33138020833334,89.45900301843959L160.58072916666666,82.35864767259406L161.32877604166669,83.6438211371067L161.32877604166669,83.83997787055746L162.07682291666666,51.5756947816454L162.326171875,64.18813392049329L162.57552083333334,72.35310612038528L162.82486979166669,78.90040742108675L162.82486979166669,82.46812879293832L164.07161458333334,81.91258703022999L164.32096354166669,63.58091181725147L164.5703125,64.35836748009851L165.06901041666666,67.46290123299318L165.06901041666666,70.81531069180701L165.318359375,78.86198208034834L165.56770833333334,67.39963613331796L165.56770833333334,59.01653579700278L165.81705729166669,54.47636291878395L166.06640625000003,47.658462557178574L166.06640625000003,41.356881948102625L166.31575520833331,56.666148013942895L166.56510416666666,44.393343893929405L166.56510416666666,35.34826262488608L167.06380208333334,43.70091435727265L167.06380208333334,50.77056291947834L167.31315104166669,55.966575522721236L168.310546875,51.61532624930169L168.55989583333334,63.98826399070041L168.55989583333334,71.40021493805655L168.80924479166669,64.26065136655099L169.05859374999997,55.23148604431108L169.30794270833331,62.65333808778737L169.30794270833331,67.54891318869002L169.806640625,66.72179822201376L169.806640625,67.23533866450097L170.05598958333334,68.51030442503038L170.30533854166669,63.437095912617096L171.80143229166669,74.48995590944389L172.30013020833331,75.62411661588729L172.54947916666666,67.03436889435994L172.54947916666666,61.08369060865729L172.798828125,61.027100780675944L173.04817708333334,66.37012482826121L173.29752604166669,70.97743912425166L173.79622395833331,64.1531037800701L173.79622395833331,59.99443952519843L174.04557291666666,50.130362893814734L174.04557291666666,47.02647265534096L174.294921875,57.573704378250206L174.294921875,62.58301217343983L174.54427083333334,68.28067612043964L174.54427083333334,70.97067534561126L174.79361979166666,71.31549721738796L175.04296875,59.03385065663517L175.29231770833331,57.5194521109382L175.54166666666666,72.56158898831127L175.791015625,73.84740407801101L176.04036458333334,64.96225805006284L176.04036458333334,60.11261832071459L176.28971354166666,50.80053371997545L176.28971354166666,46.109043138097945L176.5390625,57.706063149494675L176.5390625,64.22366690523788L177.78580729166666,50.786980127616914L177.78580729166666,45.542844614579785L178.03515625,49.680786634203486L178.28450520833334,21.895349755714353L178.783203125,43.233001264828445L178.783203125,57.18989622169613L179.03255208333334,50.02960440858531L179.28190104166666,50.71298125591473L179.53125,36.04869262699244L180.02994791666669,53.34013911678764L180.279296875,55.977532461848114L180.52864583333334,59.67883188460245L180.52864583333334,61.79810711702092L180.77799479166666,65.54783068275682L181.02734375,64.36743244037766L181.27669270833334,68.17512383762443L181.52604166666669,66.67684017839099L181.52604166666669,67.18919648660462L181.775390625,72.68768209179186L182.02473958333331,71.0881888864037L182.02473958333331,70.65960557446459L182.27408854166666,70.53798083773601L182.5234375,64.91908672041504L182.5234375,58.79975294224505L182.77278645833334,64.27829584569982L182.77278645833334,67.435358173199L183.02213541666669,72.23038529547901L183.52083333333331,55.81313218589336L183.77018229166666,63.985003196690734L184.01953125,60.74058599680319L184.51822916666669,60.09548012858424L184.51822916666669,60.32733979490873L184.76757812500003,45.0565371433942L185.26627604166666,57.12876519680314L185.515625,65.72567396831687L185.76497395833334,59.33962438984022L186.01432291666669,65.04685862352433L186.26367187500003,68.01569075280418L186.26367187500003,66.29244570072883L186.51302083333331,57.626503969051804L186.76236979166666,47.38597847510479L187.01171875,56.966072186762695L187.26106770833334,61.22671072777189L187.51041666666669,52.419149143076396L187.51041666666669,50.003869046316424L187.75976562499997,62.37430641028038L188.00911458333331,67.51736212356538L188.5078125,62.83977091660292L188.75716145833334,61.40053184241171L188.75716145833334,60.79759478217432L189.00651041666669,67.11298523930353L189.25585937499997,63.05604297272944L189.50520833333331,50.81997446031917L189.75455729166666,46.25696277506082L190.25325520833334,58.236023687642394L190.50260416666669,41.42828060586546L190.50260416666669,33.12805515169677L190.751953125,53.473496840236045L191.00130208333331,62.394702628754054L191.25065104166666,70.36516477793604L191.25065104166666,72.9239136226782L191.5,70.73758489178472L191.5,68.981125463765L191.74934895833334,60.50307435376711L191.74934895833334,54.60687557806531L192.248046875,52.91390304535603L192.49739583333331,56.94431264859423L192.74674479166666,63.369732747447415L193.24544270833334,67.0429172456097L193.24544270833334,66.57476904033611L193.49479166666666,56.748575031989745L193.49479166666666,50.20269857658978L193.99348958333331,48.03584026583455L194.4921875,46.090887017777085L194.74153645833334,40.78554739220771L194.99088541666666,44.75065392055413L195.48958333333334,41.285578929175735L195.48958333333334,41.149220253699895L195.98828125,49.979516998335065L196.23763020833334,42.52490244829912L196.48697916666666,60.094875720287924L196.736328125,52.027083103147476L196.98567708333334,53.27925306814153L196.98567708333334,53.92857531462455L197.484375,54.36271424147097L197.73372395833334,58.81418902309302L197.73372395833334,59.52170092243888L197.98307291666666,54.121353211277366L198.232421875,60.81710567609884L198.232421875,66.32637359223615L198.48177083333334,66.57064430428655L198.73111979166669,78.72732863732047L198.98046875,60.15636354629913L199.728515625,61.44588202205132L201.224609375,66.07923740128776L201.224609375,68.33601566541255L201.47395833333334,53.542421653199554L201.47395833333334,45.61631488461993L201.97265625,34.10107087886156L202.47135416666666,28.77609453079593L202.47135416666666,28.349682339891746L202.720703125,37.67842331461009L202.97005208333334,45.663546889614445L202.97005208333334,48.1542841968485L203.21940104166669,59.76381212339093L203.71809895833331,65.80032821813397L203.71809895833331,67.43504735421642L203.96744791666666,44.86131594533626L204.216796875,45.18608518812002L204.216796875,45.02353599293793L204.46614583333334,47.09566878452162L204.71549479166669,45.57052974208749L204.96484375000003,44.7998603123698L205.712890625,39.910912295477L205.96223958333334,53.426473295865286L206.46093749999997,37.312818238841196L206.71028645833331,39.89616386276884L207.70768229166669,28.35746512521746L207.95703124999997,38.52525969570543L208.45572916666666,51.811142779741694L208.95442708333334,50.778038369032146L209.20377604166669,67.52683391953254L209.70247395833331,50.85087413063492L209.70247395833331,42.31067444366721L209.95182291666666,48.595234832063355L210.201171875,57.94784742647114L210.45052083333334,70.80928965242923L210.69986979166669,65.9427307595743L210.94921875,63.781967267390094L211.19856770833331,71.08675905763866L211.19856770833331,73.37217033326483L212.19596354166666,58.801230647682296L212.19596354166666,51.32128881127783L212.4453125,66.82060012049168L212.4453125,75.45946603314096L212.69466145833331,72.98594525632866L212.94401041666666,58.795134777889295L212.94401041666666,50.876143500247984L213.193359375,53.832243660115836L213.193359375,56.4265838498018L213.44270833333334,43.104404403814186L213.44270833333334,33.96951787117035L213.69205729166666,52.469133844631386L213.69205729166666,63.90628213325587L214.19075520833334,66.55478595876366L214.44010416666666,61.331359906099244L214.93880208333334,72.04696570819738L215.18815104166666,69.31007954469992L215.18815104166666,68.83120748395724L215.4375,65.95299323198202L216.43489583333334,58.935306929332036L216.68424479166666,50.87074822353245L217.18294270833334,63.1036600003655L217.43229166666669,59.55036958038898L217.93098958333334,57.08647527682836L218.18033854166666,48.20654052727256L218.18033854166666,43.570874799685676L218.4296875,42.7395587142688L218.67903645833334,38.05727864363086L218.92838541666669,42.983841449369734L218.92838541666669,46.11189062020168L219.67643229166666,44.542997685795925L219.92578125,34.073024563625985L219.92578125,23.168829472443782L220.673828125,29.88281614278633L220.673828125,34.38720056232737L221.92057291666669,48.881704609494946L221.92057291666669,57.54159057194088L222.41927083333331,59.331382108057106L222.41927083333331,61.399101085856294L222.66861979166666,49.693553964730945L222.91796875,53.17422301795295L223.16731770833334,56.25100879207975L223.41666666666669,61.972638990495966L223.66601562500003,63.46828440786264L223.91536458333331,56.527427935367L224.16471354166666,61.308737029889336L224.16471354166666,61.0339516104812L224.4140625,66.9834390343162L224.66341145833334,59.06142777567701L224.91276041666669,52.46012588957308L225.16210937499997,57.70450096499537L225.16210937499997,62.17400748235949L225.66080729166666,55.13437880696635L225.91015625,58.181624970565935L226.15950520833334,63.641986359197304L226.15950520833334,65.84100248160269L226.40885416666669,67.31647446001949L226.40885416666669,67.67259402421345L226.90755208333331,57.66537677852648L226.90755208333331,50.505267641594045L227.15690104166666,64.84114331105353L227.65559895833334,68.20858546554449L227.90494791666669,77.49562285816313L227.90494791666669,83.12064144894863L228.154296875,78.59740189245574L228.40364583333331,66.08885867316266L228.65299479166666,47.15191082309925L228.90234375,52.510412050195L229.15169270833334,51.40194558674541L229.15169270833334,50.166723463383L229.40104166666669,63.808234711555656L229.650390625,63.4278550267625L229.650390625,62.33921194794226L229.89973958333331,59.30717802478342L229.89973958333331,58.52061810751835L230.14908854166666,42.68007334864188L230.14908854166666,31.96326561448604L230.3984375,28.198588703141375L230.64778645833334,33.08983071688757L230.89713541666666,39.10111942317454L231.146484375,49.37726954475861L231.39583333333331,44.65465614709748L231.39583333333331,40.50967670389112L231.89453125,37.43144636695442L231.89453125,35.76311910954031L232.14388020833334,47.73388956074067L232.14388020833334,55.145727718378L232.642578125,64.25295214921528L233.14127604166666,63.070860654534656L233.390625,59.20554098512039L233.390625,56.26256890908065L233.63997395833334,54.78329226860513L233.88932291666666,64.05844586783117L234.138671875,73.7355004649965L234.38802083333334,69.74028204093028L234.88671875,61.62050928002386L234.88671875,56.873809512411285L235.13606770833334,54.90105415341541L235.13606770833334,52.65783873174956L235.38541666666666,52.2333852706812L235.88411458333334,65.9185978328265L236.13346354166669,68.6914874407695L236.3828125,67.4319889362482L236.3828125,66.16737362240718L236.63216145833334,63.46681356725075L236.63216145833334,57.52789049325573L236.88151041666666,56.264211445916814L237.38020833333334,62.925075179260446L237.38020833333334,65.97953919525234L237.62955729166669,56.299129128189605L237.62955729166669,50.311860489685365L237.87890625,46.89954679479542L238.12825520833331,47.93142238420452L238.37760416666666,57.81002417303446L238.87630208333334,42.60716185031726L239.12565104166669,59.78044953977104L239.375,64.15366625210666L239.375,67.41303016794339L239.87369791666666,59.28001171381839L240.37239583333334,61.89390310067873L240.62174479166669,59.25933614026868L240.87109375000003,55.44530984551527L241.12044270833331,48.40524752611409L241.12044270833331,42.20533690258557L241.36979166666666,48.227890380648944L241.36979166666666,52.60423765684853L241.619140625,54.810868156586245L241.86848958333334,30.524300225159013L241.86848958333334,14.361331348169124L242.36718750000003,34.81972930702463L242.36718750000003,46.008248936372375L242.61653645833331,45.6708223648294L242.86588541666666,42.714616574491515L242.86588541666666,40.92180001595346L243.36458333333334,40.13587596332268L243.61393229166669,46.718823637457106L243.61393229166669,50.33116367214405L243.86328124999997,47.74313775750091L243.86328124999997,49.108574319196286L244.86067708333334,51.49571204680952L244.86067708333334,48.36653631030769L245.35937499999997,60.581795985098196L245.85807291666666,74.81083025610178L246.35677083333334,70.00052233979542L246.60611979166669,68.84303304222486L247.10481770833331,49.20174596707382L247.35416666666666,47.09280055761551L247.603515625,47.61632460355888L248.10221354166669,60.94808928966599L248.10221354166669,69.5049184608464L248.3515625,64.84572570610074L248.60091145833331,56.24136725120561L248.60091145833331,50.53154582412729L248.85026041666666,53.83653175015264L249.34895833333334,45.29211477743991L249.59830729166666,52.04992501918918L249.84765625,47.86223402610091L250.09700520833331,63.85737277859848L250.09700520833331,72.07376164075374L250.34635416666666,64.04492679760838L250.84505208333334,73.71521341518155L251.09440104166666,57.990743373129305L251.34375,45.935646923955396L251.59309895833334,50.19904057537085L252.091796875,44.59473653050999L252.59049479166666,48.95770237095797L252.83984375,54.64782608299043L252.83984375,57.16746209113948L253.33854166666666,52.110934102828224L253.83723958333334,54.99597530620988L253.83723958333334,58.01044021283206L254.08658854166666,60.32822421929012L254.08658854166666,61.731498859767726L254.58528645833334,48.08796197321689L254.58528645833334,40.14753757802651L254.83463541666669,55.56990044646267L255.083984375,62.81712580521585L255.083984375,66.14440539359856L255.33333333333334,71.67707208919411L255.58268229166666,66.66349566059044L255.58268229166666,67.27609182641943L256.0813802083333,44.58667388705039L256.0813802083333,29.02811727015748L256.3307291666667,45.31008628063544L256.580078125,59.41257876785483L256.8294270833333,67.98950063366824L256.8294270833333,68.03143021571118L257.8268229166667,57.46818681423353L257.8268229166667,51.15123085894876L258.076171875,50.98518059682066L258.076171875,50.67221206445226L258.82421875,62.21747183810908L259.0735677083333,50.366820097036594L259.0735677083333,45.678538942377216L259.3229166666667,55.13538929464843L259.3229166666667,60.65992286588207L259.572265625,62.788151471528145L260.0709635416667,43.66342142147585L260.3203125,47.021316927211075L260.8190104166667,38.57630965801274L261.068359375,38.99859038407919L261.068359375,39.008491226526L261.3177083333333,52.838126104171224L261.5670572916667,62.31314697330901L261.81640625,58.35131603756969L262.3151041666667,60.917915238615414L262.564453125,48.23282032828125L262.8138020833333,58.905664215210635L263.0631510416667,55.16062384231302L263.3125,65.8245435558761L263.3125,72.44269714373378L263.5618489583333,74.65263527404088L263.5618489583333,75.89359594446907L264.060546875,59.096720463409966L264.060546875,48.9281884231418L264.3098958333333,35.389589273825266L264.3098958333333,25.940812089380614L264.80859375,42.29127443929732L265.0579427083333,47.362681419254656L265.0579427083333,46.20380360519964L265.556640625,32.917790929294085L265.8059895833333,45.10342595566299L265.8059895833333,57.528761658602875L266.0553385416667,67.38856602521773L266.3046875,54.50440750606081L266.3046875,44.659021223111274L266.55403645833337,50.33970232279498L266.8033854166667,52.08089725656153L266.8033854166667,53.273813727395776L267.5514322916667,58.703347577391284L267.80078125,44.87993269785536L267.80078125,34.7380835868376L268.05013020833337,35.70829528912649L268.548828125,45.23810409512964L268.7981770833333,46.01648241881637L268.7981770833333,42.72533134582107L269.0475260416667,59.63793222881833L269.296875,44.84486594663547L269.54622395833337,46.11664189616733L269.54622395833337,47.48164676260884L269.79557291666663,39.66095475335082L270.2942708333333,38.40065195548033L270.2942708333333,29.536253991052497L270.5436197916667,32.84090978045761L270.79296875,30.49194754445254L271.541015625,37.33340745737373L272.0397135416667,35.665880427183026L272.0397135416667,33.197117057693795L272.2890625,50.540891150982866L272.2890625,60.55717437288266L273.78515625,51.53424370778262L274.03450520833337,56.437678936080104L274.28385416666663,42.61396224674939L274.533203125,49.65019731150483L274.7825520833333,47.73969502703199L274.7825520833333,49.516791435813005L275.0319010416667,44.368494351348346L275.0319010416667,40.40479481198851L275.28125,55.851354932656676L275.28125,63.83731707088398L275.5305989583333,32.31311163993028L275.5305989583333,13.211243591853057L275.77994791666663,17.100313259451433L275.77994791666663,20.495031781964798L276.029296875,30.25285538910228L276.2786458333333,46.05776361750603L276.2786458333333,56.36588925198936L276.5279947916667,61.59933892533913L276.77734375,63.593539331231916L277.2760416666667,48.09712744586133L277.525390625,53.895714001849065L277.7747395833333,57.08814713775801L278.0240885416667,50.26488183390907L278.2734375,50.3563567546118L278.5227864583333,53.459860667414L278.7721354166667,51.98817426253946L279.021484375,57.71745740347856L279.2708333333333,54.99101449831578L279.5201822916667,42.57996936907919L279.5201822916667,34.57099812192053L279.76953125,34.88615227319199L280.0188802083333,31.94109735833048L280.0188802083333,28.01750498978161L280.2682291666667,32.032157861994875L280.517578125,39.01517133939692L280.7669270833333,42.51900764124651L280.7669270833333,44.39639170060788L281.7643229166667,50.33011617118261L282.013671875,56.62596884878957L282.013671875,59.74962825484565" style="fill: none;" fill="none"></path></g></g></g></g><g opacity="0.2"><g><g><g><path stroke="rgb(255, 112, 67)" stroke-width="2px" d="M25.682942708333332,111.4709452081006L25.932291666666668,111.49197131255642L26.430989583333332,111.83854393009096L26.430989583333332,111.85546354949474L26.680338541666668,111.93929634429514L26.9296875,111.96077984385192L26.9296875,111.88529280526564L27.428385416666664,112.25022040866315L27.428385416666664,112.28417486138642L27.677734375,112.54535187780857L28.176432291666664,112.66534327529371L29.173828125,116.11505065485835L29.423177083333332,122.79974845051765L29.672526041666668,124.75844204425812L30.171223958333332,127.44523984193802L30.420572916666668,134.25486433506012L30.669921874999996,133.4836359769106L30.669921874999996,133.14932928979397L30.919270833333332,136.21732434630394L31.168619791666668,139.3673357963562L31.41796875,130.36251586675644L31.667317708333332,143.14182722568512L31.916666666666668,139.9468893110752L31.916666666666668,138.58426576852798L32.166015625,137.9105703830719L32.166015625,140.32803219556808L32.664713541666664,134.14260122179985L32.664713541666664,138.4806123673916L32.9140625,147.6509610414505L33.163411458333336,143.0841135084629L33.412760416666664,140.6083703637123L33.412760416666664,142.1263957619667L33.662109375,141.70125210285187L33.91145833333333,142.3495586514473L34.160807291666664,140.4969003200531L34.160807291666664,140.0321801006794L34.41015625,139.09411934018135L34.659505208333336,158.50890612602234L34.908854166666664,141.85891115665436L35.65690104166667,140.13920736312866L35.65690104166667,146.836279630661L35.90625,148.3114182651043L35.90625,149.7769923210144L36.155598958333336,140.39817243814468L36.155598958333336,139.9582548737526L36.903645833333336,157.4078125357628L37.90104166666667,146.74616146087646L38.150390625,155.6471953690052L38.39973958333333,135.09544119238853L39.14778645833333,141.06352335214615L39.646484375,143.64701256155968L39.895833333333336,132.45241871476173L39.895833333333336,138.1400274336338L40.145182291666664,152.50849378108978L40.643880208333336,154.37430274486542L40.643880208333336,150.44305142760277L40.893229166666664,154.02338933944702L41.142578125,156.78313893079758L41.391927083333336,162.823024392128L42.139973958333336,149.44608336687088L42.389322916666664,129.47867560386658L42.63867187499999,167.92609572410583L42.888020833333336,145.08556389808655L42.888020833333336,147.88390335440636L43.137369791666664,142.7080048918724L43.636067708333336,137.92903113365173L43.885416666666664,140.36498287320137L44.134765625,160.3759776353836L44.384114583333336,157.13512390851974L44.384114583333336,165.2048749923706L44.633463541666664,155.4112929701805L44.8828125,140.929202824831L44.8828125,142.85250535607338L45.38151041666667,155.86270606517792L45.630859375,149.17424350976944L45.630859375,151.5278751552105L45.88020833333333,161.91884547472L46.12955729166667,151.26687568426132L46.37890625,153.78667265176773L47.126953125,166.1361243724823L47.126953125,163.22530961036682L47.37630208333333,168.36132913827896L47.62565104166667,141.28336808085442L47.875,161.00197744369507L48.12434895833333,159.69278663396835L48.373697916666664,170.0656595826149L48.623046875,158.9900951385498L48.872395833333336,155.28958198428154L48.872395833333336,157.46470665931702L49.869791666666664,165.0978662967682L50.86718750000001,140.75938248634338L50.86718750000001,141.84402054548264L51.116536458333336,165.32606875896454L51.61523437499999,138.90571889281273L51.864583333333336,137.17910557985306L52.36328125,127.99076828360558L52.36328125,128.7963930517435L52.861979166666664,162.60158026218414L52.861979166666664,159.09052056074142L53.111328125,154.7995021045208L53.360677083333336,141.59282967448235L53.360677083333336,138.98951372504234L53.610026041666664,158.48332631587982L54.108723958333336,191.12149834632874L54.108723958333336,192.79302382469177L54.35807291666667,162.86438071727753L54.607421875,164.99080455303192L55.10611979166667,149.52591815590858L55.60481770833333,158.42959386110306L55.85416666666667,152.68874603509903L56.103515625,152.5831218957901L56.35286458333333,148.70328748226166L56.8515625,148.96706667542458L57.35026041666667,130.11311802268028L57.35026041666667,133.75973427295685L57.599609375,153.53527224063873L57.599609375,155.78490036725998L57.84895833333333,146.49157285690308L58.34765625,138.07036727666855L58.597005208333336,139.6882717013359L58.846354166666664,128.0507935732603L59.095703125,142.99710130691528L59.84375,142.2418338060379L60.093098958333336,151.5905064344406L60.59179687500001,145.1108519434929L61.090494791666664,149.63948360085487L61.33984374999999,141.16148734092712L61.589192708333336,152.75002193450928L62.087890625,151.98673355579376L62.337239583333336,142.08445590734482L62.337239583333336,144.85582834482193L62.586588541666664,150.56453961133957L62.8359375,135.0433930158615L62.8359375,130.90937581658363L63.334635416666664,132.0744428038597L63.583984375,140.38278847932816L63.833333333333336,139.60338938236237L64.08268229166667,143.44987243413925L64.58138020833333,148.836329549551L64.83072916666667,136.02080488204956L64.83072916666667,137.7227295935154L65.080078125,152.10925087332726L65.32942708333333,127.76657626032829L65.57877604166667,127.42395427823067L65.828125,154.4138740003109L65.828125,150.60852181911469L66.32682291666667,131.5505871772766L66.32682291666667,130.6936900615692L66.576171875,139.58725744485855L67.32421875,134.09670662879944L67.57356770833333,128.4292707890272L68.072265625,137.53483840823174L68.072265625,136.87151658535004L68.32161458333333,131.64654064178467L68.57096354166666,132.53017136454582L69.06966145833333,126.72703044116497L69.31901041666667,127.43363423645496L69.568359375,126.19967098534107L69.81770833333333,128.7596452832222L69.81770833333333,126.6509872674942L70.06705729166667,119.50839223712683L70.31640625,125.04694034159184L70.56575520833333,131.98050516843796L70.81510416666667,118.47647076100111L71.064453125,126.12110537290573L71.31380208333334,131.17015513777733L71.31380208333334,133.06708213686943L71.56315104166667,140.1733809709549L72.06184895833334,136.95407009124756L72.31119791666667,132.4583216458559L72.31119791666667,133.5626737177372L72.560546875,134.21934860944748L72.80989583333334,141.53678166866302L73.30859375,141.52234461903572L73.30859375,139.1779062151909L73.55794270833333,116.0743534527719L73.80729166666667,129.579732298851L73.80729166666667,128.39230287075043L74.056640625,130.36508737504482L74.056640625,127.32939465343952L75.30338541666666,110.57921364158392L75.30338541666666,120.21088214963675L76.05143229166666,120.17042697966099L76.79947916666666,139.53535515069962L77.048828125,119.24771437048912L77.54752604166666,124.96896886825562L77.54752604166666,124.72428700327873L77.796875,115.78639956191182L78.04622395833333,125.72940325737L78.29557291666666,118.65624889731407L78.79427083333333,125.68220368027687L79.79166666666667,109.98734367638826L80.041015625,116.57558769732714L80.041015625,115.35732072591782L80.29036458333333,127.48447158932686L80.53971354166667,115.91887865588069L80.53971354166667,113.92523794621229L81.03841145833333,117.69748477637768L81.28776041666667,111.21555899642408L82.28515625,110.6127075701952L82.28515625,112.5954976156354L82.53450520833333,114.74539491906762L82.53450520833333,109.62115240842104L82.78385416666667,122.50015778839588L83.03320312500001,124.46546913683414L83.28255208333333,113.01655026897788L83.53190104166667,116.97143220901489L83.53190104166667,113.07499704509974L83.78125000000001,105.80391479283571L84.03059895833333,123.45806783437729L84.27994791666667,128.92504140734673L84.77864583333333,112.7589412368834L85.52669270833333,118.6958387196064L86.025390625,119.42659798264503L86.025390625,119.20087154209614L86.27473958333333,120.67874414473772L86.52408854166667,111.83743000216782L87.02278645833333,123.95748949050903L88.26953125,115.22932486236095L88.76822916666667,113.78465276584029L88.76822916666667,113.897739617154L89.017578125,116.18222285434604L89.26692708333333,108.75262498669326L89.51627604166667,111.86447825096548L89.51627604166667,113.15888321958482L89.765625,108.49989339895546L90.513671875,95.00458325445652L90.513671875,94.84157827496529L91.26171875,105.25326654314995L91.51106770833334,99.55376443266869L91.76041666666666,101.66456691920757L91.76041666666666,96.22163873910904L92.009765625,109.19139124080539L92.009765625,108.94394059479237L92.25911458333334,104.2171608954668L92.25911458333334,106.31152708083391L92.50846354166666,104.53965111076832L92.50846354166666,104.16950974613428L92.7578125,97.34681087732315L93.00716145833334,101.39864524453878L93.25651041666666,95.6214309334755L93.505859375,98.33610552549362L93.505859375,97.38728925585747L93.75520833333334,96.05845472216606L94.25390625,99.18845111131668L94.50325520833334,94.87382093071938L94.75260416666666,95.91848456859589L95.25130208333334,103.76509331911802L95.50065104166666,91.85741651058197L95.50065104166666,95.68577301502228L95.75,90.83613914251328L95.99934895833334,99.6773374080658L96.24869791666666,96.15597443282604L96.498046875,104.0679139494896L96.74739583333333,90.56825137138367L96.99674479166666,102.02680411189795L97.24609375,101.72604174911976L97.49544270833333,95.38284960389137L97.49544270833333,95.23806665837765L97.74479166666667,98.06822836399078L97.74479166666667,98.81352016329765L97.994140625,90.86343505978584L98.24348958333333,78.9481213092804L98.24348958333333,82.49803346395493L98.99153645833333,99.75143504142761L98.99153645833333,96.91567941009998L99.24088541666667,89.31809252500534L99.490234375,101.06535243988037L99.490234375,99.16838300228119L99.98893229166667,96.40165758132935L100.23828125,99.6721678674221L100.48763020833333,86.53168094158173L100.73697916666667,82.51439881324768L100.986328125,71.96210646629333L101.23567708333333,108.92749749682844L101.23567708333333,107.27201659232378L101.48502604166667,86.72886615991592L101.73437500000001,100.29542906582355L102.23307291666667,95.02073243260384L102.48242187500001,78.69187760353088L102.73177083333333,92.81221395730972L102.98111979166667,88.03609949350357L103.47981770833333,97.16842591762543L104.22786458333333,70.99749511480331L104.97591145833333,79.80470013618469L105.22526041666667,84.20471394062042L105.474609375,92.75919897854328L105.474609375,91.41611041128635L105.72395833333333,71.53050684928894L105.72395833333333,67.40526646375656L105.97330729166667,97.25911965966225L105.97330729166667,96.36481963098049L106.22265625,89.04334695637226L106.47200520833333,82.65255206823349L106.970703125,102.01528139412403L106.970703125,102.01969367265701L107.22005208333333,76.6428775191307L107.46940104166667,86.56408274173737L107.96809895833333,92.64453808963299L108.21744791666667,95.90102112293243L108.21744791666667,92.29083037376404L108.466796875,92.47332125902176L108.71614583333334,93.17719042301178L108.96549479166667,65.86031913757324L108.96549479166667,63.81166386604309L109.21484375,88.00609546899796L109.21484375,84.01705351471901L109.46419270833334,86.7679785490036L109.71354166666666,81.96931332349777L109.71354166666666,81.83349949121475L109.962890625,82.24359339475632L110.21223958333334,65.33117461204529L110.21223958333334,71.64259225130081L110.46158854166666,91.5670416355133L110.46158854166666,85.89298671483994L110.7109375,84.49099880456924L110.96028645833334,91.94480402767658L110.96028645833334,90.77993862330914L111.458984375,67.52970677614212L111.95768229166666,56.0392210483551L112.20703125,97.1441391557455L112.45638020833334,80.9772256910801L112.45638020833334,84.6767680644989L112.70572916666666,90.53393188118935L112.955078125,84.9530453979969L113.20442708333334,71.99932503700256L113.45377604166666,71.33088672161102L113.703125,90.33766970038414L114.20182291666666,77.82602596282959L114.70052083333334,93.33511206507683L114.70052083333334,95.27248030900955L114.94986979166666,72.0067093372345L115.19921875,95.4473190009594L115.19921875,95.34131556749344L115.44856770833333,79.38618218898773L115.44856770833333,75.01905292272568L115.69791666666666,76.31113040447235L115.947265625,99.177808329463L116.19661458333333,78.02060121297836L116.94466145833333,72.66978979110718L117.19401041666667,55.239844024181366L117.19401041666667,50.793153166770935L117.443359375,73.11597234010696L117.443359375,81.81118214130402L117.69270833333333,62.733439326286316L118.19140625,81.02216011285782L118.19140625,78.55465003848076L118.69010416666667,86.95908975601196L118.69010416666667,84.67555856704712L118.939453125,84.19522362947464L119.18880208333333,69.63836479187012L119.43815104166667,86.17465904355049L119.6875,85.04754269123077L119.93684895833333,83.79753768444061L120.18619791666667,78.9500681757927L120.43554687500001,55.48156315088272L120.68489583333333,92.15916092693806L120.68489583333333,89.61417272686958L120.93424479166667,72.3342656493187L121.18359375000001,81.38763523101807L121.18359375000001,78.99099746346474L121.43294270833333,83.14704024791718L121.68229166666667,88.26563876867294L121.68229166666667,84.39568191766739L122.43033854166667,81.57322943210602L122.92903645833333,91.98368433117867L122.92903645833333,91.88113963603973L123.17838541666667,91.04249107837677L123.427734375,58.539931297302246L123.67708333333333,84.91077664494514L123.92643229166667,74.36250534653664L123.92643229166667,75.50878268480301L124.17578125,88.7131050825119L124.17578125,87.95821952819824L124.42513020833333,88.23751530051231L124.67447916666667,98.22684228420258L124.923828125,77.16469874978065L125.17317708333333,74.80494004487991L125.42252604166667,94.68567644059658L125.671875,48.76900613307953L125.92122395833333,61.12869614362717L125.92122395833333,62.255390763282776L126.419921875,86.43043857812881L126.66927083333333,94.73570746183395L126.91861979166667,78.01747137308121L127.16796875,59.500760316848755L127.41731770833334,80.13492742180824L127.916015625,71.5019961297512L128.41471354166666,71.09949871897697L128.6640625,79.75054329633713L128.91341145833334,75.89490148425102L129.16276041666666,62.37753939628601L129.412109375,84.98094606399536L129.66145833333334,83.64359730482101L130.16015625,92.07731693983078L130.40950520833334,65.83708935976028L130.65885416666666,68.20293799042702L130.65885416666666,63.927266359329224L130.908203125,75.87149134278297L131.15755208333334,69.75148198008537L131.90559895833334,58.663766860961914L132.15494791666666,74.35983967781067L132.404296875,74.18353685736656L132.404296875,75.86653664708138L132.65364583333334,83.52355998754501L132.65364583333334,81.44687408208847L133.15234375,81.09856534004211L133.40169270833334,81.66440325975418L133.65104166666666,64.82590705156326L133.900390625,74.12023717164993L134.14973958333331,98.48896372318268L134.14973958333331,96.6182875931263L134.39908854166666,71.7938802242279L134.39908854166666,75.54794812202454L134.6484375,57.124007642269135L134.89778645833331,44.18072980642319L134.89778645833331,48.46097683906555L135.14713541666666,59.522626757621765L135.396484375,85.43626880645752L135.64583333333331,58.25559329986572L135.89518229166666,94.43236762285233L136.14453125,82.51462957262993L136.39388020833331,87.80585467815399L136.39388020833331,87.34149253368378L136.892578125,75.54096168279648L137.14192708333331,92.22603473067284L137.39127604166666,86.70397067070007L138.13932291666666,57.40002769231796L138.388671875,82.44401454925537L138.388671875,84.36521106958389L138.63802083333334,92.07706496119499L138.63802083333334,90.28043341636658L138.88736979166666,84.76681727170944L138.88736979166666,87.26394411921501L139.13671875,42.03748440742493L139.38606770833334,47.32031464576721L139.38606770833334,48.86890637874603L139.884765625,55.39356690645218L139.884765625,59.506712317466736L140.13411458333334,80.8747393488884L140.13411458333334,81.24982413649559L140.38346354166666,61.18170714378357L141.13151041666666,71.51147052645683L141.380859375,37.171278297901154L141.63020833333334,83.24558246135712L142.62760416666669,94.66124644875526L142.876953125,73.37419474124908L143.37565104166669,70.88467764854431L143.87434895833334,79.28035911917686L143.87434895833334,77.67690235376358L144.12369791666669,66.87123355269432L144.373046875,94.04931235313416L144.373046875,94.43045789003372L144.62239583333334,82.35466557741165L144.87174479166669,82.2981693148613L145.12109375,63.9629465341568L145.37044270833334,41.4854336977005L145.61979166666669,84.22113499045372L145.61979166666669,82.35679811239243L145.869140625,51.4866726398468L146.11848958333334,65.45196521282196L146.36783854166669,66.1610277891159L146.6171875,49.62974923849106L146.86653645833334,89.75447840988636L146.86653645833334,87.85319483280182L147.11588541666666,75.19689679145813L147.11588541666666,77.66884964704514L147.61458333333334,61.18154799938202L147.61458333333334,71.3365549147129L147.86393229166666,43.1772500872612L148.11328125,57.99377954006195L148.36263020833334,57.02204382419586L149.36002604166666,55.617488384246826L149.609375,70.89773279428482L149.85872395833334,86.3937823176384L150.10807291666669,58.98028385639191L150.35742187499997,53.911195158958435L150.35742187499997,52.52754068374634L150.85611979166666,43.612101554870605L150.85611979166666,48.24841296672821L151.10546875,48.073762595653534L151.35481770833334,51.04980534315109L151.35481770833334,51.08012235164642L151.60416666666669,68.90522366762161L151.85351562499997,49.367670238018036L152.85091145833334,92.56604143977165L153.10026041666669,50.25282609462738L153.10026041666669,51.66600185632706L153.349609375,64.97585821151733L153.59895833333331,48.48260986804962L153.84830729166666,73.43991872668266L153.84830729166666,74.50756546854973L154.09765625,62.4242217540741L154.34700520833334,99.75740958750248L154.59635416666669,78.24984341859818L154.59635416666669,77.32300233840942L155.09505208333331,71.79803654551506L155.09505208333331,76.01342162489891L155.34440104166666,47.62394094467163L155.84309895833334,78.31419345736504L156.09244791666666,68.04221540689468L156.341796875,69.60625740885735L156.59114583333331,62.724330961704254L156.84049479166666,80.37403923273087L157.58854166666666,42.135092973709106L157.837890625,61.75209128856659L158.08723958333334,80.04628133773804L158.33658854166666,86.42103579640388L158.83528645833334,12.381201028823853L159.08463541666666,61.067871153354645L159.333984375,97.48296819627285L159.58333333333334,81.6784795820713L159.83268229166666,72.96398678421974L160.08203125,85.62044662237167L160.08203125,84.33565264940262L160.33138020833334,94.54746350646019L160.33138020833334,93.88471725583076L160.58072916666666,71.70811465382576L161.32877604166669,85.57158133387566L161.32877604166669,84.13421297073364L162.07682291666666,3.1792701482772827L162.326171875,83.1067926287651L162.57552083333334,84.60056442022324L162.82486979166669,88.72135937213898L162.82486979166669,87.81971085071564L164.07161458333334,81.07927438616753L164.32096354166669,36.08339899778366L164.5703125,65.52455097436905L165.06901041666666,72.1197018623352L165.06901041666666,75.84392488002777L165.318359375,90.93198916316032L165.56770833333334,50.20611721277237L165.56770833333334,46.44188529253006L165.81705729166669,47.66610360145569L166.06640625000003,37.43161201477051L166.06640625000003,31.904511034488678L166.31575520833331,79.63004711270332L166.56510416666666,25.98413771390915L166.56510416666666,21.780640721321106L167.06380208333334,56.22989195585251L167.06380208333334,61.375035762786865L167.31315104166669,63.7605944275856L168.310546875,45.08845233917236L168.55989583333334,82.54767060279846L168.55989583333334,82.5181413590908L168.80924479166669,53.5513060092926L169.05859374999997,41.68773806095123L169.30794270833331,73.78611615300179L169.30794270833331,74.89227584004402L169.806640625,65.48112577199936L169.806640625,68.00564932823181L170.05598958333334,70.42275306582451L170.30533854166669,55.82728314399719L171.80143229166669,91.06924590468407L172.30013020833331,77.32535767555237L172.54947916666666,54.14974731206894L172.54947916666666,52.1576731801033L172.798828125,60.94221603870392L173.04817708333334,74.38466089963913L173.29752604166669,77.8884105682373L173.79622395833331,53.91660076379776L173.79622395833331,53.75644314289093L174.04557291666666,35.3342479467392L174.04557291666666,42.37063729763031L174.294921875,73.39455196261406L174.294921875,70.09697386622429L174.54427083333334,76.82717204093933L174.54427083333334,75.00567418336868L174.79361979166666,71.83273002505302L175.04296875,40.61138081550598L175.29231770833331,55.24785429239273L175.54166666666666,95.12479430437088L175.791015625,75.77612671256065L176.04036458333334,51.634539008140564L176.04036458333334,52.8381587266922L176.28971354166666,36.83240681886673L176.28971354166666,39.07180726528168L176.5390625,75.10159316658974L176.5390625,74.00007253885269L177.78580729166666,30.631949961185455L177.78580729166666,37.67664134502411L178.03515625,55.88769966363907L178.28450520833334,-19.782805562019348L178.783203125,75.2394785284996L178.783203125,78.12523865699768L179.03255208333334,39.28916668891907L179.28190104166666,51.738046526908875L179.53125,14.052259683609009L180.02994791666669,79.27730885148048L180.279296875,59.93362247943878L180.52864583333334,65.23078101873398L180.52864583333334,64.97701996564865L180.77799479166666,71.17241603136063L181.02734375,62.59683507680893L181.27669270833334,73.88666093349457L181.52604166666669,64.42941468954086L181.52604166666669,67.95773094892502L181.775390625,80.93541049957275L182.02473958333331,68.68894907832146L182.02473958333331,70.01673060655594L182.27408854166666,70.35554373264313L182.5234375,56.490745544433594L182.5234375,49.62075227499008L182.77278645833334,72.49611020088196L182.77278645833334,72.17095166444778L183.02213541666669,79.422925978899L183.52083333333331,31.187252521514893L183.77018229166666,76.24280971288681L184.01953125,55.87396019697189L184.51822916666669,59.1278213262558L184.51822916666669,60.67512929439545L184.76757812500003,22.150333166122437L185.26627604166666,75.2371072769165L185.515625,78.62103712558746L185.76497395833334,49.760550022125244L186.01432291666669,73.60770997405052L186.26367187500003,72.46893894672394L186.26367187500003,63.707578122615814L186.51302083333331,44.627591371536255L186.76236979166666,32.025190234184265L187.01171875,71.33621275424957L187.26106770833334,67.61766853928566L187.51041666666669,39.20780676603317L187.51041666666669,46.38094890117645L187.75976562499997,80.92996245622635L188.00911458333331,75.23194569349289L188.5078125,55.82338410615921L188.75716145833334,59.24167323112488L188.75716145833334,59.89318919181824L189.00651041666669,76.58607092499733L189.25585937499997,56.97062957286835L189.50520833333331,32.465871691703796L189.75455729166666,39.41244524717331L190.25325520833334,76.20461505651474L190.50260416666669,16.216665983200073L190.50260416666669,20.677716970443726L190.751953125,83.99165937304497L191.00130208333331,75.77651131153107L191.25065104166666,82.32085800170898L191.25065104166666,76.76203688979149L191.5,67.45809179544449L191.5,66.34643632173538L191.74934895833334,47.785997688770294L191.74934895833334,45.762577414512634L192.248046875,50.374444246292114L192.49739583333331,62.98992705345154L192.74674479166666,73.00786289572716L193.24544270833334,72.55269399285316L193.24544270833334,65.87254673242569L193.49479166666666,42.009284019470215L193.49479166666666,40.38388389348984L193.99348958333331,44.78555279970169L194.4921875,43.17345714569092L194.74153645833334,32.82753795385361L194.99088541666666,50.69831371307373L195.48958333333334,36.087966442108154L195.48958333333334,40.944682240486145L195.98828125,63.22496211528778L196.23763020833334,31.34298062324524L196.48697916666666,86.4498356282711L196.736328125,39.92539417743683L196.98567708333334,55.15750801563263L196.98567708333334,54.90255868434906L197.484375,55.01392263174057L197.73372395833334,65.49140119552612L197.73372395833334,60.58296877145767L197.98307291666666,46.020831644535065L198.232421875,70.86073437333107L198.232421875,74.59027546644211L198.48177083333334,66.93705037236214L198.73111979166669,96.96235513687134L198.98046875,32.29991590976715L199.728515625,63.38015973567963L201.224609375,73.02927047014236L201.224609375,71.72118306159973L201.47395833333334,31.352030634880066L201.47395833333334,33.72715473175049L201.97265625,16.828204870224L202.47135416666666,20.78863000869751L202.47135416666666,27.71006405353546L202.720703125,51.67153477668762L202.97005208333334,57.64123225212097L202.97005208333334,51.890390157699585L203.21940104166669,77.17810401320457L203.71809895833331,74.85510236024857L203.71809895833331,69.88712605834007L203.96744791666666,11.000718832015991L204.216796875,45.673239052295685L204.216796875,44.779712200164795L204.46614583333334,50.203867971897125L204.71549479166669,43.28282117843628L204.96484375000003,43.643856167793274L205.712890625,32.57749027013779L205.96223958333334,73.69981479644775L206.46093749999997,13.142335653305054L206.71028645833331,43.77118229866028L207.70768229166669,11.04941701889038L207.95703124999997,53.77695155143738L208.45572916666666,71.73996740579605L208.95442708333334,49.228381752967834L209.20377604166669,92.65002724528313L209.70247395833331,25.836934447288513L209.70247395833331,29.500374913215637L209.95182291666666,58.02207541465759L210.201171875,71.97676631808281L210.45052083333334,90.10145299136639L210.69986979166669,58.6428924202919L210.94921875,60.54082202911377L211.19856770833331,82.04394674301147L211.19856770833331,76.8002872467041L212.19596354166666,36.94482111930847L212.19596354166666,40.10137605667114L212.4453125,90.06956708431244L212.4453125,88.41776490211487L212.69466145833331,69.27566409111023L212.94401041666666,37.508919060230255L212.94401041666666,38.99765658378601L213.193359375,58.2663938999176L213.193359375,60.31809413433075L213.44270833333334,23.121135234832764L213.44270833333334,20.26718807220459L213.69205729166666,80.21855780482292L213.69205729166666,81.06200456619263L214.19075520833334,70.5275416970253L214.44010416666666,53.49622082710266L214.93880208333334,88.12037441134453L215.18815104166666,65.20475029945374L215.18815104166666,68.11289939284325L215.4375,61.635671854019165L216.43489583333334,48.408777475357056L216.68424479166666,38.77391016483307L217.18294270833334,81.45302766561508L217.43229166666669,54.220433950424194L217.93098958333334,53.39063382148743L218.18033854166666,34.88663840293884L218.18033854166666,36.61737620830536L218.4296875,41.492584586143494L218.67903645833334,31.03385853767395L218.92838541666669,50.37368565797806L218.92838541666669,50.803964376449585L219.67643229166666,42.18965828418732L219.92578125,18.368064880371094L219.92578125,6.812536835670471L220.673828125,39.95379614830017L220.673828125,41.14377719163895L221.92057291666669,70.62346068024635L221.92057291666669,70.53141951560974L222.41927083333331,62.016069412231445L222.41927083333331,64.50067955255508L222.66861979166666,32.13523328304291L222.91796875,58.39522659778595L223.16731770833334,60.86618745326996L223.41666666666669,70.55508428812027L223.66601562500003,65.71175253391266L223.91536458333331,46.116143226623535L224.16471354166666,68.48070067167282L224.16471354166666,60.62177348136902L224.4140625,75.90767017006874L224.66341145833334,47.1784108877182L224.91276041666669,42.558173060417175L225.16210937499997,65.57106357812881L225.16210937499997,68.87826725840569L225.66080729166666,44.57493579387665L225.91015625,62.75249421596527L226.15950520833334,71.8325284421444L226.15950520833334,69.13952666521072L226.40885416666669,69.52968242764473L226.40885416666669,68.20677337050438L226.90755208333331,42.65455090999603L226.90755208333331,39.76510393619537L227.15690104166666,86.34495681524277L227.65559895833334,73.25974869728088L227.90494791666669,91.4261789470911L227.90494791666669,91.55816933512688L228.154296875,71.81254255771637L228.40364583333331,47.32604384422302L228.65299479166666,18.74648904800415L228.90234375,60.54816389083862L229.15169270833334,49.739245891571045L229.15169270833334,48.313890278339386L229.40104166666669,84.27050158381462L229.650390625,62.857285499572754L229.650390625,60.706247329711914L229.89973958333331,54.759127140045166L229.89973958333331,57.34077823162079L230.14908854166666,18.91925621032715L230.14908854166666,15.888054013252258L230.3984375,22.55157333612442L230.64778645833334,40.42669373750687L230.89713541666666,48.11805248260498L231.146484375,64.7914947271347L231.39583333333331,37.570736050605774L231.39583333333331,34.29220753908157L231.89453125,32.81410086154938L231.89453125,33.26062822341919L232.14388020833334,65.6900452375412L232.14388020833334,66.26348495483398L232.642578125,77.91378879547119L233.14127604166666,61.29772341251373L233.390625,53.40756148099899L233.390625,51.84811079502106L233.63997395833334,52.564377307891846L233.88932291666666,77.97117626667023L234.138671875,88.25108236074448L234.38802083333334,63.74745440483093L234.88671875,49.440850138664246L234.88671875,49.75375986099243L235.13606770833334,51.94192111492157L235.13606770833334,49.29301559925079L235.38541666666666,51.596705079078674L235.88411458333334,86.44641667604446L236.13346354166669,72.85082185268402L236.3828125,65.54274117946625L236.3828125,64.27045065164566L236.63216145833334,59.415973484516144L236.63216145833334,48.619505882263184L236.88151041666666,54.36869287490845L237.38020833333334,72.9163707792759L237.38020833333334,70.56123521924019L237.62955729166669,41.77851402759552L237.62955729166669,41.330957531929016L237.87890625,41.78107625246048L238.12825520833331,49.479235768318176L238.37760416666666,72.62792685627937L238.87630208333334,19.802868366241455L239.12565104166669,85.54038107395172L239.375,70.71349132061005L239.375,72.30207604169846L239.87369791666666,47.08048403263092L240.37239583333334,65.81474018096924L240.62174479166669,55.307485699653625L240.87109375000003,49.72427040338516L241.12044270833331,37.84515404701233L241.12044270833331,32.905470967292786L241.36979166666666,57.26172059774399L241.36979166666666,59.16875857114792L241.619140625,58.12081390619278L241.86848958333334,-5.9055516719818115L241.86848958333334,-9.883121967315674L242.36718750000003,65.50732624530792L242.36718750000003,62.79102838039398L242.61653645833331,45.164682507514954L242.86588541666666,38.28030788898468L242.86588541666666,38.23257517814636L243.36458333333334,38.956989884376526L243.61393229166669,56.59324514865875L243.61393229166669,55.7496737241745L243.86328124999997,43.861098885536194L243.86328124999997,51.15672916173935L244.86067708333334,55.07641863822937L244.86067708333334,43.67277270555496L245.35937499999997,78.90468549728394L245.85807291666666,96.1543816626072L246.35677083333334,62.785060465335846L246.60611979166669,67.10679909586906L247.10481770833331,19.73981535434723L247.35416666666666,43.92938244342804L247.603515625,48.40161067247391L248.10221354166669,80.94573631882668L248.10221354166669,82.34016221761703L248.3515625,57.85693657398224L248.60091145833331,43.334829568862915L248.60091145833331,41.96681368350983L248.85026041666666,58.794010639190674L249.34895833333334,32.47548931837082L249.59830729166666,62.18664038181305L249.84765625,41.580697536468506L250.09700520833331,87.85008090734482L250.09700520833331,84.39834493398666L250.34635416666666,52.00167453289032L250.84505208333334,88.22064334154129L251.09440104166666,34.404038310050964L251.34375,27.85300225019455L251.59309895833334,56.59413105249405L252.091796875,36.18828046321869L252.59049479166666,55.502151131629944L252.83984375,63.18301165103912L252.83984375,60.94691610336304L253.33854166666666,44.52614212036133L253.83723958333334,59.32353711128235L253.83723958333334,62.53213757276535L254.08658854166666,63.8049002289772L254.08658854166666,63.83641082048416L254.58528645833334,27.622656643390656L254.58528645833334,28.236900985240936L254.83463541666669,78.7034447491169L255.083984375,73.68796384334564L255.083984375,71.13532477617264L255.33333333333334,79.97607213258743L255.58268229166666,59.14313101768494L255.58268229166666,68.19498607516289L256.0813802083333,10.552546977996826L256.0813802083333,5.690282344818115L256.3307291666667,69.73303979635239L256.580078125,80.56631749868393L256.8294270833333,80.8548834323883L256.8294270833333,68.09432458877563L257.8268229166667,41.62332171201706L257.8268229166667,41.675796926021576L258.076171875,50.73610520362854L258.076171875,50.20275926589966L258.82421875,79.53536149859428L259.0735677083333,32.590842485427856L259.0735677083333,38.646117210388184L259.3229166666667,69.32066482305527L259.3229166666667,68.94672322273254L259.572265625,65.98049437999725L260.0709635416667,14.9763263463974L260.3203125,52.058160185813904L260.8190104166667,25.90879875421524L261.068359375,39.63201147317886L261.068359375,39.02334249019623L261.3177083333333,73.58257842063904L261.5670572916667,76.52567827701569L261.81640625,52.408569633960724L262.3151041666667,64.76781404018402L262.564453125,29.20517796278L262.8138020833333,74.9149300456047L263.0631510416667,49.543063282966614L263.3125,81.8204231262207L263.3125,82.36992752552032L263.5618489583333,77.9675424695015L263.5618489583333,77.75503695011139L264.060546875,33.90140724182129L264.060546875,33.67539036273956L264.3098958333333,15.081690549850464L264.3098958333333,11.767646312713623L264.80859375,66.81696796417236L265.0579427083333,54.969791889190674L265.0579427083333,44.46548688411713L265.556640625,12.988771915435791L265.8059895833333,63.38187849521637L265.8059895833333,76.1667652130127L266.0553385416667,82.17827257514L266.3046875,35.17816972732544L266.3046875,29.89094179868698L266.55403645833337,58.86072397232056L266.8033854166667,54.692689657211304L266.8033854166667,55.063188433647156L267.5514322916667,66.84764835238457L267.80078125,24.144810378551483L267.80078125,19.525309920310974L268.05013020833337,37.163612842559814L268.548828125,59.53281730413437L268.7981770833333,47.184049904346466L268.7981770833333,37.788604736328125L269.0475260416667,85.00683355331421L269.296875,22.655266523361206L269.54622395833337,48.02430582046509L269.54622395833337,49.52915406227112L269.79557291666663,27.929916739463806L270.2942708333333,36.51019775867462L270.2942708333333,16.239657044410706L270.5436197916667,37.79789346456528L270.79296875,26.968504190444946L271.541015625,47.595597326755524L272.0397135416667,33.16458988189697L272.0397135416667,29.49397200345993L272.2890625,76.55655229091644L272.2890625,75.58159920573235L273.78515625,37.9998477101326L274.03450520833337,63.792831778526306L274.28385416666663,21.878387212753296L274.533203125,60.204549908638L274.7825520833333,44.87394160032272L274.7825520833333,52.18243604898453L275.0319010416667,36.64604872465134L275.0319010416667,34.45924550294876L275.28125,79.0211951136589L275.28125,75.81626027822495L275.5305989583333,-14.973196506500244L275.5305989583333,-15.441558480262756L275.77994791666663,22.933917760849L275.77994791666663,25.587109565734863L276.029296875,44.8895907998085L276.2786458333333,69.76512596011162L276.2786458333333,71.82807770371437L276.5279947916667,69.44951343536377L276.77734375,66.5848399400711L277.2760416666667,24.85250961780548L277.525390625,62.59359383583069L277.7747395833333,61.8767968416214L278.0240885416667,40.02998387813568L278.2734375,50.493569135665894L278.5227864583333,58.11511653661728L278.7721354166667,49.78064465522766L279.021484375,66.31138211488724L279.2708333333333,50.901350140571594L279.5201822916667,23.963401675224304L279.5201822916667,22.557541251182556L279.76953125,35.35888350009918L280.0188802083333,27.523514986038208L280.0188802083333,22.132116436958313L280.2682291666667,38.05413717031479L280.517578125,49.48969155550003L280.7669270833333,47.77476209402084L280.7669270833333,47.21246778964996L281.7643229166667,59.23070287704468L282.013671875,66.06974786520004L282.013671875,64.43511736392975" style="fill: none;" fill="none"></path></g></g></g></g></g></g><g transform="translate(30, 178)" clip-path="url(#clip_1)"><clipPath id="clip_1"><rect width="299" height="22"></rect></clipPath><g><g><line x1="0" y1="0" x2="0" y2="5" style="visibility: inherit;" fill="rgb(0, 0, 0)" stroke="rgb(204, 204, 204)" stroke-width="1px"></line><line x1="24.934895833333332" y1="0" x2="24.934895833333332" y2="5" style="visibility: inherit;" fill="rgb(0, 0, 0)" stroke="rgb(204, 204, 204)" stroke-width="1px"></line><line x1="49.869791666666664" y1="0" x2="49.869791666666664" y2="5" style="visibility: inherit;" fill="rgb(0, 0, 0)" stroke="rgb(204, 204, 204)" stroke-width="1px"></line><line x1="74.8046875" y1="0" x2="74.8046875" y2="5" style="visibility: inherit;" fill="rgb(0, 0, 0)" stroke="rgb(204, 204, 204)" stroke-width="1px"></line><line x1="99.73958333333333" y1="0" x2="99.73958333333333" y2="5" style="visibility: inherit;" fill="rgb(0, 0, 0)" stroke="rgb(204, 204, 204)" stroke-width="1px"></line><line x1="124.67447916666667" y1="0" x2="124.67447916666667" y2="5" style="visibility: inherit;" fill="rgb(0, 0, 0)" stroke="rgb(204, 204, 204)" stroke-width="1px"></line><line x1="149.609375" y1="0" x2="149.609375" y2="5" style="visibility: inherit;" fill="rgb(0, 0, 0)" stroke="rgb(204, 204, 204)" stroke-width="1px"></line><line x1="174.54427083333334" y1="0" x2="174.54427083333334" y2="5" style="visibility: inherit;" fill="rgb(0, 0, 0)" stroke="rgb(204, 204, 204)" stroke-width="1px"></line><line x1="199.47916666666666" y1="0" x2="199.47916666666666" y2="5" style="visibility: inherit;" fill="rgb(0, 0, 0)" stroke="rgb(204, 204, 204)" stroke-width="1px"></line><line x1="224.4140625" y1="0" x2="224.4140625" y2="5" style="visibility: inherit;" fill="rgb(0, 0, 0)" stroke="rgb(204, 204, 204)" stroke-width="1px"></line><line x1="249.34895833333334" y1="0" x2="249.34895833333334" y2="5" style="visibility: inherit;" fill="rgb(0, 0, 0)" stroke="rgb(204, 204, 204)" stroke-width="1px"></line><line x1="274.28385416666663" y1="0" x2="274.28385416666663" y2="5" style="visibility: inherit;" fill="rgb(0, 0, 0)" stroke="rgb(204, 204, 204)" stroke-width="1px"></line><line x1="299.21875" y1="0" x2="299.21875" y2="5" style="visibility: inherit;" fill="rgb(0, 0, 0)" stroke="rgb(204, 204, 204)" stroke-width="1px"></line></g><g transform="translate(0, 8)"><text x="0" y="0" dx="0em" dy="0.95em" style="text-anchor: middle; visibility: hidden; font-family: Roboto, sans-serif; font-size: 12px; font-weight: 200;" fill="rgb(50, 49, 63)" stroke="none" stroke-width="1px">-2k</text><text x="24.934895833333332" y="0" dx="0em" dy="0.95em" style="text-anchor: middle; visibility: inherit; font-family: Roboto, sans-serif; font-size: 12px; font-weight: 200;" fill="rgb(50, 49, 63)" stroke="none" stroke-width="1px">0</text><text x="49.869791666666664" y="0" dx="0em" dy="0.95em" style="text-anchor: middle; visibility: hidden; font-family: Roboto, sans-serif; font-size: 12px; font-weight: 200;" fill="rgb(50, 49, 63)" stroke="none" stroke-width="1px">2k</text><text x="74.8046875" y="0" dx="0em" dy="0.95em" style="text-anchor: middle; visibility: inherit; font-family: Roboto, sans-serif; font-size: 12px; font-weight: 200;" fill="rgb(50, 49, 63)" stroke="none" stroke-width="1px">4k</text><text x="99.73958333333333" y="0" dx="0em" dy="0.95em" style="text-anchor: middle; visibility: hidden; font-family: Roboto, sans-serif; font-size: 12px; font-weight: 200;" fill="rgb(50, 49, 63)" stroke="none" stroke-width="1px">6k</text><text x="124.67447916666667" y="0" dx="0em" dy="0.95em" style="text-anchor: middle; visibility: inherit; font-family: Roboto, sans-serif; font-size: 12px; font-weight: 200;" fill="rgb(50, 49, 63)" stroke="none" stroke-width="1px">8k</text><text x="149.609375" y="0" dx="0em" dy="0.95em" style="text-anchor: middle; visibility: hidden; font-family: Roboto, sans-serif; font-size: 12px; font-weight: 200;" fill="rgb(50, 49, 63)" stroke="none" stroke-width="1px">10k</text><text x="174.54427083333334" y="0" dx="0em" dy="0.95em" style="text-anchor: middle; visibility: inherit; font-family: Roboto, sans-serif; font-size: 12px; font-weight: 200;" fill="rgb(50, 49, 63)" stroke="none" stroke-width="1px">12k</text><text x="199.47916666666666" y="0" dx="0em" dy="0.95em" style="text-anchor: middle; visibility: hidden; font-family: Roboto, sans-serif; font-size: 12px; font-weight: 200;" fill="rgb(50, 49, 63)" stroke="none" stroke-width="1px">14k</text><text x="224.4140625" y="0" dx="0em" dy="0.95em" style="text-anchor: middle; visibility: inherit; font-family: Roboto, sans-serif; font-size: 12px; font-weight: 200;" fill="rgb(50, 49, 63)" stroke="none" stroke-width="1px">16k</text><text x="249.34895833333334" y="0" dx="0em" dy="0.95em" style="text-anchor: middle; visibility: hidden; font-family: Roboto, sans-serif; font-size: 12px; font-weight: 200;" fill="rgb(50, 49, 63)" stroke="none" stroke-width="1px">18k</text><text x="274.28385416666663" y="0" dx="0em" dy="0.95em" style="text-anchor: middle; visibility: inherit; font-family: Roboto, sans-serif; font-size: 12px; font-weight: 200;" fill="rgb(50, 49, 63)" stroke="none" stroke-width="1px">20k</text><text x="299.21875" y="0" dx="0em" dy="0.95em" style="text-anchor: middle; visibility: hidden; font-family: Roboto, sans-serif; font-size: 12px; font-weight: 200;" fill="rgb(50, 49, 63)" stroke="none" stroke-width="1px">22k</text></g><line x1="0" y1="0" x2="299.21875" y2="0" fill="rgb(0, 0, 0)" stroke="rgb(204, 204, 204)" stroke-width="1px"></line></g></g></g></g></svg>