<svg viewBox="0 0 330 200" xmlns="http://www.w3.org/2000/svg"><g><g><g><g><g><line x1="30.78125" y1="178" x2="25.78125" y2="178" style="visibility: inherit;" fill="rgb(0, 0, 0)" stroke="rgb(204, 204, 204)" stroke-width="1px"></line><line x1="30.78125" y1="158.2222222222222" x2="25.78125" y2="158.2222222222222" style="visibility: inherit;" fill="rgb(0, 0, 0)" stroke="rgb(204, 204, 204)" stroke-width="1px"></line><line x1="30.78125" y1="138.44444444444446" x2="25.78125" y2="138.44444444444446" style="visibility: inherit;" fill="rgb(0, 0, 0)" stroke="rgb(204, 204, 204)" stroke-width="1px"></line><line x1="30.78125" y1="118.66666666666669" x2="25.78125" y2="118.66666666666669" style="visibility: inherit;" fill="rgb(0, 0, 0)" stroke="rgb(204, 204, 204)" stroke-width="1px"></line><line x1="30.78125" y1="98.8888888888889" x2="25.78125" y2="98.8888888888889" style="visibility: inherit;" fill="rgb(0, 0, 0)" stroke="rgb(204, 204, 204)" stroke-width="1px"></line><line x1="30.78125" y1="79.1111111111111" x2="25.78125" y2="79.1111111111111" style="visibility: inherit;" fill="rgb(0, 0, 0)" stroke="rgb(204, 204, 204)" stroke-width="1px"></line><line x1="30.78125" y1="59.33333333333334" x2="25.78125" y2="59.33333333333334" style="visibility: inherit;" fill="rgb(0, 0, 0)" stroke="rgb(204, 204, 204)" stroke-width="1px"></line><line x1="30.78125" y1="39.55555555555555" x2="25.78125" y2="39.55555555555555" style="visibility: inherit;" fill="rgb(0, 0, 0)" stroke="rgb(204, 204, 204)" stroke-width="1px"></line><line x1="30.78125" y1="19.777777777777786" x2="25.78125" y2="19.777777777777786" style="visibility: inherit;" fill="rgb(0, 0, 0)" stroke="rgb(204, 204, 204)" stroke-width="1px"></line><line x1="30.78125" y1="0" x2="25.78125" y2="0" style="visibility: inherit;" fill="rgb(0, 0, 0)" stroke="rgb(204, 204, 204)" stroke-width="1px"></line></g><g transform="translate(20.78125, 0)"><text x="0" y="178" dx="0em" dy="0.3em" style="text-anchor: end; visibility: hidden; font-family: Roboto, sans-serif; font-size: 12px; font-weight: 200;" fill="rgb(50, 49, 63)" stroke="none" stroke-width="1px">-5</text><text x="0" y="158.2222222222222" dx="0em" dy="0.3em" style="text-anchor: end; visibility: inherit; font-family: Roboto, sans-serif; font-size: 12px; font-weight: 200;" fill="rgb(50, 49, 63)" stroke="none" stroke-width="1px">0</text><text x="0" y="138.44444444444446" dx="0em" dy="0.3em" style="text-anchor: end; visibility: hidden; font-family: Roboto, sans-serif; font-size: 12px; font-weight: 200;" fill="rgb(50, 49, 63)" stroke="none" stroke-width="1px">5</text><text x="0" y="118.66666666666669" dx="0em" dy="0.3em" style="text-anchor: end; visibility: inherit; font-family: Roboto, sans-serif; font-size: 12px; font-weight: 200;" fill="rgb(50, 49, 63)" stroke="none" stroke-width="1px">10</text><text x="0" y="98.8888888888889" dx="0em" dy="0.3em" style="text-anchor: end; visibility: hidden; font-family: Roboto, sans-serif; font-size: 12px; font-weight: 200;" fill="rgb(50, 49, 63)" stroke="none" stroke-width="1px">15</text><text x="0" y="79.1111111111111" dx="0em" dy="0.3em" style="text-anchor: end; visibility: inherit; font-family: Roboto, sans-serif; font-size: 12px; font-weight: 200;" fill="rgb(50, 49, 63)" stroke="none" stroke-width="1px">20</text><text x="0" y="59.33333333333334" dx="0em" dy="0.3em" style="text-anchor: end; visibility: hidden; font-family: Roboto, sans-serif; font-size: 12px; font-weight: 200;" fill="rgb(50, 49, 63)" stroke="none" stroke-width="1px">25</text><text x="0" y="39.55555555555555" dx="0em" dy="0.3em" style="text-anchor: end; visibility: inherit; font-family: Roboto, sans-serif; font-size: 12px; font-weight: 200;" fill="rgb(50, 49, 63)" stroke="none" stroke-width="1px">30</text><text x="0" y="19.777777777777786" dx="0em" dy="0.3em" style="text-anchor: end; visibility: hidden; font-family: Roboto, sans-serif; font-size: 12px; font-weight: 200;" fill="rgb(50, 49, 63)" stroke="none" stroke-width="1px">35</text><text x="0" y="0" dx="0em" dy="0.3em" style="text-anchor: end; visibility: hidden; font-family: Roboto, sans-serif; font-size: 12px; font-weight: 200;" fill="rgb(50, 49, 63)" stroke="none" stroke-width="1px">40</text></g><line x1="30.78125" y1="0" x2="30.78125" y2="178" fill="rgb(0, 0, 0)" stroke="rgb(204, 204, 204)" stroke-width="1px"></line></g></g><g transform="translate(30, 0)" clip-path="url(#clip_0)"><clipPath id="clip_0"><rect width="299" height="178"></rect></clipPath><g><g><g><line x1="0" y1="0" x2="0" y2="178" fill="rgb(0, 0, 0)" stroke="rgb(60, 60, 60)" stroke-width="1px" opacity="0.25"></line><line x1="24.934895833333332" y1="0" x2="24.934895833333332" y2="178" fill="rgb(0, 0, 0)" stroke="rgb(60, 60, 60)" stroke-width="1px" opacity="0.25"></line><line x1="49.869791666666664" y1="0" x2="49.869791666666664" y2="178" fill="rgb(0, 0, 0)" stroke="rgb(60, 60, 60)" stroke-width="1px" opacity="0.25"></line><line x1="74.8046875" y1="0" x2="74.8046875" y2="178" fill="rgb(0, 0, 0)" stroke="rgb(60, 60, 60)" stroke-width="1px" opacity="0.25"></line><line x1="99.73958333333333" y1="0" x2="99.73958333333333" y2="178" fill="rgb(0, 0, 0)" stroke="rgb(60, 60, 60)" stroke-width="1px" opacity="0.25"></line><line x1="124.67447916666667" y1="0" x2="124.67447916666667" y2="178" fill="rgb(0, 0, 0)" stroke="rgb(60, 60, 60)" stroke-width="1px" opacity="0.25"></line><line x1="149.609375" y1="0" x2="149.609375" y2="178" fill="rgb(0, 0, 0)" stroke="rgb(60, 60, 60)" stroke-width="1px" opacity="0.25"></line><line x1="174.54427083333334" y1="0" x2="174.54427083333334" y2="178" fill="rgb(0, 0, 0)" stroke="rgb(60, 60, 60)" stroke-width="1px" opacity="0.25"></line><line x1="199.47916666666666" y1="0" x2="199.47916666666666" y2="178" fill="rgb(0, 0, 0)" stroke="rgb(60, 60, 60)" stroke-width="1px" opacity="0.25"></line><line x1="224.4140625" y1="0" x2="224.4140625" y2="178" fill="rgb(0, 0, 0)" stroke="rgb(60, 60, 60)" stroke-width="1px" opacity="0.25"></line><line x1="249.34895833333334" y1="0" x2="249.34895833333334" y2="178" fill="rgb(0, 0, 0)" stroke="rgb(60, 60, 60)" stroke-width="1px" opacity="0.25"></line><line x1="274.28385416666663" y1="0" x2="274.28385416666663" y2="178" fill="rgb(0, 0, 0)" stroke="rgb(60, 60, 60)" stroke-width="1px" opacity="0.25"></line><line x1="299.21875" y1="0" x2="299.21875" y2="178" fill="rgb(0, 0, 0)" stroke="rgb(60, 60, 60)" stroke-width="1px" opacity="0.25"></line></g><g><line x1="0" y1="178" x2="299.21875" y2="178" fill="rgb(0, 0, 0)" stroke="rgb(60, 60, 60)" stroke-width="1px" opacity="0.25"></line><line x1="0" y1="158.2222222222222" x2="299.21875" y2="158.2222222222222" fill="rgb(0, 0, 0)" stroke="rgb(60, 60, 60)" stroke-width="1px" opacity="0.25"></line><line x1="0" y1="138.44444444444446" x2="299.21875" y2="138.44444444444446" fill="rgb(0, 0, 0)" stroke="rgb(60, 60, 60)" stroke-width="1px" opacity="0.25"></line><line x1="0" y1="118.66666666666669" x2="299.21875" y2="118.66666666666669" fill="rgb(0, 0, 0)" stroke="rgb(60, 60, 60)" stroke-width="1px" opacity="0.25"></line><line x1="0" y1="98.8888888888889" x2="299.21875" y2="98.8888888888889" fill="rgb(0, 0, 0)" stroke="rgb(60, 60, 60)" stroke-width="1px" opacity="0.25"></line><line x1="0" y1="79.1111111111111" x2="299.21875" y2="79.1111111111111" fill="rgb(0, 0, 0)" stroke="rgb(60, 60, 60)" stroke-width="1px" opacity="0.25"></line><line x1="0" y1="59.33333333333334" x2="299.21875" y2="59.33333333333334" fill="rgb(0, 0, 0)" stroke="rgb(60, 60, 60)" stroke-width="1px" opacity="0.25"></line><line x1="0" y1="39.55555555555555" x2="299.21875" y2="39.55555555555555" fill="rgb(0, 0, 0)" stroke="rgb(60, 60, 60)" stroke-width="1px" opacity="0.25"></line><line x1="0" y1="19.777777777777786" x2="299.21875" y2="19.777777777777786" fill="rgb(0, 0, 0)" stroke="rgb(60, 60, 60)" stroke-width="1px" opacity="0.25"></line><line x1="0" y1="0" x2="299.21875" y2="0" fill="rgb(0, 0, 0)" stroke="rgb(60, 60, 60)" stroke-width="1px" opacity="0.25"></line></g></g></g><g><g><line x1="0" y1="158.2222222222222" x2="299.21875" y2="158.2222222222222" fill="rgb(0, 0, 0)" stroke="rgb(153, 153, 153)" stroke-width="1.5px"></line></g></g><g><g><line x1="24.934895833333332" y1="0" x2="24.934895833333332" y2="178" fill="rgb(0, 0, 0)" stroke="rgb(153, 153, 153)" stroke-width="1.5px"></line></g></g><g><g><g><g><g><path stroke="rgb(255, 112, 67)" stroke-width="2px" d="M25.184244791666668,73.04349856906468L25.433593750000004,9.051822344462071L25.682942708333332,-162.0872573852539L31.41796875,-14.93329225210595L31.667317708333332,0.898244248428903L31.916666666666668,10.478746404827614L32.166015625,14.336668413136177L32.415364583333336,24.233965143196695L32.664713541666664,28.491740463404863L32.9140625,28.65949144851168L33.163411458333336,23.682459293444815L33.412760416666664,21.832194910532923L33.662109375,22.854750516958102L33.91145833333333,21.13917407720192L34.160807291666664,24.83704789911051L34.41015625,29.44199173670858L34.659505208333336,23.621759767013895L34.908854166666664,32.620834226458726L35.158203125,29.80579846656017L35.65690104166667,29.511325216947142L35.90625,30.322117802928414L36.155598958333336,32.21792600299479L36.40494791666667,37.38838336926141L36.654296875,37.57197492716727L36.903645833333336,43.23198507315713L37.152994791666664,45.39323808170321L37.40234375,36.81023904573792L37.65169270833333,40.062904902078394L37.90104166666667,35.47009279474041L38.150390625,28.73110990317014L38.39973958333333,29.586124302363626L38.64908854166667,34.14653976154451L38.8984375,34.93283583066851L39.14778645833333,37.600660225073106L39.397135416666664,34.86166932840264L39.646484375,35.06983403519264L39.895833333333336,37.07419815738958L40.145182291666664,42.12677461817533L40.39453125,32.892935566260846L40.643880208333336,38.86818711422493L40.893229166666664,37.369689259637376L41.142578125,40.655363835187835L41.391927083333336,43.56368708502111L41.641276041666664,42.1659047491138L41.89062500000001,42.897316761686156L42.139973958333336,38.902988479591976L42.389322916666664,38.67798462963889L42.63867187499999,35.74830288987101L42.888020833333336,41.83893629663961L43.137369791666664,39.39292693640393L43.38671875,41.95544189860449L43.636067708333336,51.623009978301155L43.885416666666664,47.761649479276706L44.134765625,47.576626901378944L44.384114583333336,45.664648354911556L44.633463541666664,43.87437562861535L44.8828125,43.12845743554594L45.132161458333336,40.383257831282016L45.38151041666667,32.13763149727181L45.630859375,42.732216281718124L45.88020833333333,50.61895945517454L46.12955729166667,54.258806432110795L46.37890625,47.389157387641035L46.62825520833333,58.59744232212456L46.87760416666667,66.06422480625216L47.126953125,63.78564252942187L47.37630208333333,64.82553285652033L47.62565104166667,64.0986112720719L47.875,62.989366246478816L48.12434895833333,61.403861040205L48.373697916666664,55.45556667837648L48.623046875,54.40362432912876L48.872395833333336,58.434707285194264L49.121744791666664,60.377912994163445L49.37109375,60.80767431016995L49.620442708333336,62.165190150609334L49.869791666666664,65.33395112649842L50.119140625,62.252110652570046L50.368489583333336,54.53685639805245L50.617838541666664,65.10449488809361L50.86718750000001,63.73241461135011L51.116536458333336,74.31415345837908L51.365885416666664,71.90624584564377L51.61523437499999,67.82965896571959L51.864583333333336,68.53507192294305L52.113932291666664,69.28593742731184L52.36328125,68.24056310742877L52.612630208333336,66.60721770657966L52.861979166666664,69.63430485354849L53.111328125,70.84576805210304L53.360677083333336,79.03893815331045L53.610026041666664,68.0062153700136L53.859375,78.05979218316268L54.108723958333336,76.72199394867798L54.35807291666667,74.6953658299273L54.607421875,73.77317659702321L54.85677083333333,78.06666196678599L55.10611979166667,79.08839778771048L55.35546875,81.51333794834242L55.60481770833333,82.33824148428324L55.85416666666667,81.58892430137722L56.103515625,79.49661294264273L56.35286458333333,82.76123117975663L56.60221354166667,84.09581731435354L56.8515625,84.18953215022238L57.10091145833333,77.67155722144854L57.35026041666667,73.75339362241992L57.599609375,73.04429606792895L57.84895833333333,74.65951031219835L58.098307291666664,74.47495426810242L58.34765625,75.42331074309887L58.597005208333336,83.30132649984154L58.846354166666664,82.52891723779555L59.095703125,74.9172849672433L59.345052083333336,73.93356115232949L59.594401041666664,81.64015835887817L59.84375,85.09628743204782L60.093098958333336,77.89768297490794L60.342447916666664,77.12636742112099L60.59179687500001,76.45862386521598L60.841145833333336,70.03650508898636L61.090494791666664,75.45422710259973L61.33984374999999,84.64926160674756L61.589192708333336,83.1570781229027L61.838541666666664,82.20999380842045L62.087890625,77.01493345953143L62.337239583333336,79.59260319637859L62.586588541666664,78.8930137000537L62.8359375,79.68996332392761L63.085286458333336,84.0293144676096L63.334635416666664,84.89912541016645L63.583984375,88.10950837462636L63.833333333333336,91.69387437698937L64.08268229166667,88.43713859781903L64.33203125,88.20201887646486L64.58138020833333,88.3085102828559L64.83072916666667,86.81851749241319L65.080078125,89.7809681818086L65.32942708333333,95.47874868794801L65.57877604166667,94.71286098848496L65.828125,94.56017725932362L66.07747395833333,92.54997530633202L66.32682291666667,92.65509762412039L66.576171875,92.054229059227L66.82552083333333,91.40410603905183L67.07486979166666,89.08346870291243L67.32421875,91.4531252823486L67.57356770833333,96.03519753336857L67.82291666666666,97.04698954256347L68.072265625,97.91753205358168L68.32161458333333,92.36356417436906L68.57096354166666,96.61402346352445L68.8203125,93.22159679024573L69.06966145833333,93.15818766806021L69.31901041666667,95.57057101758417L69.568359375,96.19617424507199L69.81770833333333,95.37960789448243L70.06705729166667,90.46684080005751L70.31640625,91.05243334423805L70.56575520833333,87.28614462432714L70.81510416666667,87.78455295162536L71.064453125,91.17771141235977L71.31380208333334,96.4153651320567L71.56315104166667,91.50319511276268L71.8125,95.14416614534856L72.06184895833334,93.41225926972866L72.31119791666667,98.93604730717139L72.560546875,98.48167205834798L72.80989583333334,94.4213381010027L73.05924479166667,99.2984641765196L73.30859375,96.26321977517175L73.55794270833333,99.38869646606875L74.056640625,99.47382289062757L74.30598958333333,91.21321188623202L74.55533854166667,94.92405290824203L74.8046875,92.83487747112795L75.05403645833334,89.28430898321929L75.30338541666666,91.71522845294697L75.552734375,98.31935518768073L75.80208333333334,98.17215712234693L76.30078125,97.18427019164818L76.55013020833334,98.17192389409588L76.79947916666666,100.15178677596492L77.048828125,100.1343739488526L77.29817708333334,93.2333476901666L77.54752604166666,91.54420946045413L77.796875,88.40659813856631L78.04622395833333,93.83676026117799L78.29557291666666,91.50823888240123L78.544921875,93.81404385773394L78.79427083333333,97.955009770044L79.04361979166667,92.69519024245173L79.29296875,91.45608556745454L79.54231770833333,99.10407892565068L79.79166666666667,105.92751696937697L80.041015625,108.7677297657733L80.29036458333333,109.72070567630425L80.53971354166667,105.61365675674826L80.7890625,104.63835583112143L81.28776041666667,107.90978762112296L81.537109375,107.4280981518296L81.78645833333333,105.73982992991611L82.03580729166667,110.6071228860638L82.28515625,107.67672915902001L82.53450520833333,105.30578650528614L82.78385416666667,109.50219543764975L83.03320312500001,102.89492884841886L83.28255208333333,104.20052762833299L83.53190104166667,108.16728041706057L83.78125000000001,105.04878031892123L84.03059895833333,103.11221556209385L84.27994791666667,105.16922803924199L84.52929687499999,109.27146378480822L84.77864583333333,105.40024060269917L85.02799479166667,99.8599299925874L85.27734374999999,96.18973512228855L85.52669270833333,98.19571644636575L85.77604166666667,100.15525237080338L86.025390625,102.65707730545729L86.27473958333333,98.97529659486293L86.52408854166667,103.61491143673545L86.7734375,102.44300859910183L87.02278645833333,105.1074050604485L87.27213541666667,103.50250074500934L87.521484375,104.97084475988538L87.77083333333333,109.08737652891843L88.02018229166667,106.1086424497404L88.26953125,104.6397624792572L88.51888020833333,100.9918859502822L88.76822916666667,97.94094537225264L89.017578125,97.72396322961787L89.26692708333333,99.25493254389052L89.51627604166667,101.39226657386034L89.765625,105.07836743468621L90.01497395833334,107.21661876471255L90.26432291666667,111.24840333348031L90.513671875,106.36756498321537L90.76302083333334,111.0098230475464L91.01236979166666,111.37388036349421L91.26171875,111.19188989751277L91.76041666666666,108.48019585528283L92.009765625,109.74217118002625L92.25911458333334,107.72462040278572L92.50846354166666,106.92955122658896L92.7578125,103.82257167155451L93.00716145833334,103.62861117581141L93.25651041666666,106.46748803863028L93.505859375,107.40064993784289L93.75520833333334,108.0596079836747L94.00455729166666,105.42478588802383L94.25390625,106.53951417197446L94.50325520833334,114.07290829837781L94.75260416666666,113.08259321171982L95.001953125,112.02826210039888L95.25130208333334,113.9319304556332L95.50065104166666,113.09200798787103L95.75,111.5085833598884L95.99934895833334,108.7252937198176L96.24869791666666,105.99898965759043L96.498046875,108.32548352640647L96.74739583333333,112.84967347426945L97.24609375,109.13767112625548L97.74479166666667,111.56779597070226L97.994140625,110.59571898460236L98.24348958333333,108.51898741425317L98.49283854166667,111.1783352993006L98.7421875,113.13950970754803L98.99153645833333,110.81106527412734L99.24088541666667,109.12222991697206L99.490234375,109.31120670425226L99.73958333333333,110.24793904601597L99.98893229166667,111.17721903470593L100.23828125,109.04687609177626L100.48763020833333,108.82497495248327L100.73697916666667,104.5788601444229L100.986328125,98.57394148677311L101.23567708333333,106.71608591392801L101.73437500000001,113.3696225736118L101.98372395833333,113.51393378179729L102.23307291666667,110.0125812570341L102.48242187500001,110.93528061999739L102.73177083333333,114.74875399075928L103.23046874999999,114.93095252873292L103.47981770833333,113.74966723392811L103.72916666666667,116.63912617314766L103.97851562499999,115.46304245600449L104.22786458333333,115.66342002384143L104.47721354166667,108.66744000122976L104.7265625,105.51896055225151L104.97591145833333,106.5858955947244L105.22526041666667,107.2461298454414L105.474609375,112.11348285925051L105.72395833333333,110.89531559988191L105.97330729166667,107.37457946273949L106.22265625,108.12016790469447L106.47200520833333,113.91626820633122L106.72135416666667,116.32517664102963L106.970703125,115.22999045863038L107.22005208333333,115.98419412462484L107.46940104166667,117.97788523223475L107.71875,116.50814230606179L107.96809895833333,119.74254655035799L108.21744791666667,116.50164429713102L108.466796875,115.14366422449173L108.71614583333334,115.37160953865553L108.96549479166667,115.32900179497067L109.21484375,119.13750465025171L109.46419270833334,121.42758128814366L109.71354166666666,119.63413781639747L109.962890625,119.07786309484065L110.21223958333334,119.06462253694453L110.46158854166666,119.53906482940414L110.7109375,118.84429322028788L110.96028645833334,116.81765355871894L111.20963541666666,115.24057351950873L111.458984375,119.22242526811799L111.70833333333334,118.68634244589141L111.95768229166666,114.83468564874144L112.20703125,115.39370708355368L112.45638020833334,117.94637010720143L112.70572916666666,121.40661209321084L112.955078125,122.03887176981539L113.20442708333334,120.60842933087797L113.45377604166666,121.06912399799508L113.703125,116.94138947515881L113.95247395833334,118.16319109340691L114.20182291666666,114.63483483901398L114.451171875,116.50633910192184L114.70052083333334,113.55996448545865L114.94986979166666,116.63057163764566L115.19921875,117.96180881307241L115.44856770833333,116.62217094051272L115.69791666666666,108.18136573230352L115.947265625,107.38441287064296L116.19661458333333,114.25766040752576L116.44596354166667,116.34395852885791L116.6953125,117.35202192042891L116.94466145833333,119.15797004922999L117.443359375,119.47322314078474L117.69270833333333,121.03759387456958L117.94205729166667,124.40833131863826L118.19140625,121.64230688647916L118.44075520833333,118.52719402772082L118.69010416666667,114.08359899584258L118.939453125,113.5484254056707L119.18880208333333,115.8018998716305L119.43815104166667,117.55176275283941L119.6875,118.71659264180236L119.93684895833333,116.11658585105907L120.18619791666667,113.96810567187677L120.43554687500001,110.87289204217771L120.68489583333333,115.71044627809526L120.93424479166667,118.81587034321892L121.18359375000001,121.17764483234194L121.43294270833333,118.31845616888218L121.68229166666667,120.73883766142586L121.93164062499999,119.77294230293732L122.18098958333333,115.62026688051456L122.43033854166667,117.22427557291594L122.67968749999999,116.29589855501258L122.92903645833333,111.70180316770265L123.17838541666667,116.81252923067258L123.67708333333333,119.23120462133L123.92643229166667,121.35436721927694L124.17578125,119.77633372742663L124.42513020833333,121.6099488129805L124.67447916666667,118.70839373982822L124.923828125,115.63903508083811L125.17317708333333,116.7626032791344L125.42252604166667,119.70543209484066L125.671875,121.34154142243173L125.92122395833333,119.10605885275375L126.17057291666667,118.78070869286428L126.419921875,119.02324368699136L126.66927083333333,120.23178855160454L126.91861979166667,122.82725931870687L127.16796875,118.35009992851793L127.41731770833334,119.86710416012725L127.66666666666667,122.81057216472327L127.916015625,122.54564183534654L128.16536458333334,123.51382473404756L128.41471354166666,126.64182199429139L128.6640625,127.31130631269082L128.91341145833334,125.92805140303875L129.412109375,123.69419190207174L129.66145833333334,123.49096111156639L129.91080729166666,121.4473044297979L130.16015625,121.04595505235574L130.40950520833334,118.1630907112637L130.65885416666666,117.43997275358115L130.908203125,120.41195928555797L131.15755208333334,118.61643148496327L131.40690104166666,120.95090520309817L131.65625,119.41192799260001L131.90559895833334,115.52638819340072L132.15494791666666,115.3136987031227L132.404296875,112.21604891344262L132.90299479166666,111.78358903773571L133.15234375,115.59599016377099L133.40169270833334,119.45578167625195L133.65104166666666,117.13783032370365L133.900390625,121.0953329462838L134.14973958333331,116.7561653066429L134.39908854166666,115.98004646724311L134.6484375,117.77373337893526L134.89778645833331,116.72673456810551L135.14713541666666,118.9975070596296L135.396484375,122.38681403666752L135.64583333333331,121.34683933074616L135.89518229166666,117.33600663392946L136.14453125,116.25099006841107L136.39388020833331,121.11544845524479L136.64322916666666,119.70324856533438L136.892578125,123.9371314478215L137.14192708333331,121.62067167739515L137.39127604166666,123.43969469005799L137.640625,117.83973213792802L137.88997395833331,120.25921685301506L138.13932291666666,122.49073203645096L138.388671875,124.09369995049471L138.63802083333334,126.8137499199089L138.88736979166666,124.41524059661222L139.13671875,122.6452776112768L139.38606770833334,117.07915054842842L139.63541666666666,115.13686532905704L139.884765625,115.31486571164864L140.13411458333334,115.02745031077824L140.38346354166666,118.86572743947802L140.6328125,125.83175162041152L140.88216145833334,124.14666548098172L141.13151041666666,125.0547819220526L141.380859375,128.08289293151117L141.63020833333334,124.70375848432987L141.87955729166666,122.51635895887048L142.12890625,121.51591054947595L142.37825520833334,122.23440547410831L142.62760416666669,124.61996279333543L142.876953125,119.59011634109459L143.12630208333334,121.0694393216652L143.37565104166669,123.74639372436035L143.625,124.3286259108586L143.87434895833334,123.38227723786716L144.12369791666669,125.3559091588824L144.373046875,125.2356063134718L144.62239583333334,125.0388749439533L144.87174479166669,121.16865645508726L145.12109375,119.6110733625272L145.37044270833334,116.91964626903543L145.61979166666669,119.06239124652868L145.869140625,117.17235984421713L146.11848958333334,115.3401796530038L146.36783854166669,116.9061712378472L146.6171875,120.66574123215602L146.86653645833334,121.8836206799132L147.11588541666666,120.15631756311285L147.365234375,120.21860790711683L147.61458333333334,123.13342908075013L147.86393229166666,120.84413147731293L148.11328125,121.84273493904074L148.61197916666666,121.36569872641815L148.861328125,121.29283895088454L149.11067708333334,124.95139506839313L149.36002604166666,123.96842852595341L149.609375,126.67393492318924L149.85872395833334,128.06977364481796L150.35742187499997,130.027180416817L150.60677083333331,124.93233509877726L150.85611979166666,122.98849526363918L151.10546875,122.98766518186515L151.35481770833334,121.17381838809044L151.60416666666669,115.66017519490939L151.85351562499997,116.79280445437512L152.10286458333331,122.67339495628934L152.35221354166666,124.30032457821154L152.6015625,124.17454482423813L152.85091145833334,124.70105191692244L153.10026041666669,119.38697253334574L153.349609375,115.22863790300983L153.59895833333331,117.01968792979417L153.84830729166666,120.41260721520615L154.09765625,123.02430478051258L154.34700520833334,123.3209369841116L154.59635416666669,114.20755707029552L154.845703125,117.67863894120617L155.09505208333331,119.5730632882263L155.34440104166666,123.55913507851304L155.59375,122.96015881539125L155.84309895833334,121.99304307365857L156.09244791666666,116.09197469537786L157.08984375,121.34542073505983L157.33919270833334,123.34219525448533L157.58854166666666,122.46937549890974L157.837890625,122.73623796346261L158.08723958333334,124.13481745798207L158.33658854166666,124.98170593838515L158.5859375,122.78484857184729L158.83528645833334,123.773490709813L159.08463541666666,122.40569556453255L159.333984375,124.81831892800717L159.58333333333334,126.82810697095363L159.83268229166666,126.94057674767635L160.08203125,125.55987266332478L160.33138020833334,127.59388036136833L160.58072916666666,129.9635997249319L160.830078125,122.67506545426251L161.07942708333334,127.01935896792428L161.32877604166669,129.34249262549199L161.578125,131.14412501390737L161.82747395833334,124.72580302822833L162.07682291666666,126.29471041733305L162.326171875,124.21030774657497L162.57552083333334,120.15682192279307L162.82486979166669,124.50921649555411L163.07421875,126.73871723796287L163.32356770833331,123.18087296159284L163.57291666666666,123.8245811262667L163.822265625,124.27185259150437L164.07161458333334,127.83793116210747L164.32096354166669,127.79612511673876L164.5703125,124.30014122943996L164.81966145833331,122.83501970131415L165.06901041666666,126.87766078725984L165.318359375,122.01544848583788L165.56770833333334,122.16958862749992L165.81705729166669,122.62579901051146L166.06640625000003,120.55512252018491L166.31575520833331,124.63606865981602L166.56510416666666,122.77048634291653L166.814453125,123.48292023050033L167.06380208333334,116.29101098839786L167.31315104166669,118.73877237808647L167.56250000000003,119.94662968526117L167.81184895833331,122.0106082907574L168.06119791666666,121.55678167502953L168.310546875,122.7859698940965L168.55989583333334,122.89525409967946L168.80924479166669,124.32447759408504L169.05859374999997,122.56325024663657L169.30794270833331,123.93339740004356L169.55729166666666,128.01882958789398L169.806640625,127.67819796364675L170.05598958333334,130.052213679718L170.30533854166669,126.9027509542772L170.55468749999997,126.44762462584323L170.80403645833331,126.16226919960532L171.05338541666666,126.97267332464058L171.302734375,125.65914435936767L171.55208333333334,125.32349464852533L171.80143229166669,123.49857880408915L172.05078125,126.64389480035715L172.54947916666666,122.71889961079152L172.798828125,126.86452436900042L173.04817708333334,124.35276154048121L173.29752604166669,124.85503323654459L173.546875,122.85996979476423L173.79622395833331,122.02777010521139L174.04557291666666,125.20102512736294L174.294921875,127.059295445477L174.54427083333334,126.93232283036944L174.79361979166666,127.31522431888139L175.04296875,129.15824714015696L175.29231770833331,127.45368405951193L175.54166666666666,128.7473266907256L175.791015625,129.25181076188545L176.04036458333334,127.17681009672545L176.28971354166666,124.10755444521517L176.78841145833334,125.91792776464973L177.03776041666666,123.0672781974183L177.287109375,127.24587449359205L177.53645833333334,124.98687633325375L177.78580729166666,125.98888256129125L178.03515625,125.57170698496267L178.28450520833334,125.63693590023325L178.53385416666666,127.06187119929251L178.783203125,126.8071646303828L179.03255208333334,128.57452884686032L179.28190104166666,123.70844343658841L179.53125,125.43506104350688L179.78059895833334,124.40446719183223L180.02994791666669,124.97057300851294L180.279296875,125.63970718808304L180.52864583333334,128.58893310801582L180.77799479166666,126.96187464209899L181.02734375,124.14577146630323L181.27669270833334,124.97671394450634L181.52604166666669,128.39190261054603L181.775390625,122.52796573082415L182.02473958333331,122.78609204700145L182.27408854166666,122.52402930928267L182.5234375,122.67461984929575L182.77278645833334,124.95975267502612L183.02213541666669,127.46447617776957L183.271484375,128.17343481826114L183.52083333333331,127.89410293739765L183.77018229166666,123.31405189101932L184.01953125,122.6969654601053L184.26888020833334,122.5459286724933L184.51822916666669,122.02637966578982L184.76757812500003,125.7367848561552L185.01692708333331,127.10028744947329L185.26627604166666,123.2843092460783L185.515625,124.49208535097813L185.76497395833334,119.3921025086012L186.01432291666669,121.88227130808498L186.26367187500003,121.48126426732713L186.51302083333331,125.09519007216927L186.76236979166666,126.46402822448104L187.01171875,126.49845253852978L187.26106770833334,124.55886607200023L187.51041666666669,123.95773336322509L187.75976562499997,128.39657954565857L188.00911458333331,129.1210306809542L188.5078125,126.74572294484095L188.75716145833334,127.00371664111789L189.00651041666669,128.68615425699605L189.25585937499997,131.6442685853527L189.50520833333331,134.2770310371437L189.75455729166666,129.20355735384004L190.00390625,126.29033312920942L190.25325520833334,126.47720747809802L190.50260416666669,126.84036887128535L190.751953125,125.0209193547265L191.00130208333331,128.1762660768116L191.25065104166666,121.80007939231635L191.5,125.37592216745361L191.74934895833334,127.32217885317941L191.99869791666669,131.19935503122733L192.248046875,128.5215609557481L192.49739583333331,130.63859303198566L192.74674479166666,125.6451232704989L192.99609375,124.11686752783753L193.24544270833334,123.81094408441085L193.49479166666666,126.39647431299188L193.744140625,126.13050465751085L193.99348958333331,125.64491213898893L194.24283854166666,128.6268548999027L194.4921875,128.35297797086608L194.74153645833334,125.52277268678941L194.99088541666666,126.16659118029739L195.240234375,126.92507967766086L195.48958333333334,128.96088003790618L195.73893229166666,127.70227200738998L195.98828125,129.4410986678943L196.23763020833334,127.4227864556465L196.48697916666666,126.9216636980678L196.736328125,124.34163404919008L196.98567708333334,121.16148182654096L197.23502604166666,115.04690679611988L197.484375,117.18905794350309L197.73372395833334,122.2089199023459L197.98307291666666,125.67228697626538L198.232421875,127.26112364212588L198.48177083333334,126.59132438601337L198.73111979166669,125.88729926010735L198.98046875,126.14203677584521L199.22981770833334,126.44583362081855L199.47916666666666,127.35238200164696L199.728515625,130.1009933591099L199.97786458333334,124.0567235212982L200.22721354166669,123.98057542001632L200.4765625,126.1496605765812L200.72591145833331,129.96360558395872L200.97526041666666,129.8174387782995L201.224609375,128.7589689737668L201.47395833333334,130.57025539752505L201.72330729166669,129.78867669296923L201.97265625,129.7300430637823L202.22200520833331,128.61996000846253L202.47135416666666,125.70463006798443L202.720703125,127.31469230674118L202.97005208333334,129.23195276061804L203.21940104166669,128.71286040080986L203.46875000000003,128.24725550135017L203.71809895833331,129.47828317819724L203.96744791666666,127.5665791801931L204.216796875,122.7529693587018L204.46614583333334,125.26482698129638L204.71549479166669,125.6547533258221L204.96484375000003,123.35829522940709L205.21419270833331,125.02475365572423L205.46354166666666,125.14438466413766L205.712890625,129.09872308363884L205.96223958333334,126.90468172955072L206.21158854166669,127.68827117558851L206.46093749999997,128.10851187764854L206.71028645833331,126.29162252779355L206.95963541666666,128.89577868906656L207.208984375,131.05354921417234L207.45833333333334,127.80998319332546L207.70768229166669,126.5278775807902L207.95703124999997,128.8013948139228L208.20638020833331,128.41273747225668L208.45572916666666,131.3674942950809L208.705078125,129.8915173306971L208.95442708333334,130.49451856119222L209.20377604166669,130.7791370468173L209.453125,130.65595300920478L209.70247395833331,130.0313740990884L209.95182291666666,128.4794482048415L210.201171875,128.98152140262766L210.45052083333334,131.11001277138615L210.69986979166669,130.8591214052362L210.94921875,134.44075942015454L211.19856770833331,131.21480911346427L211.44791666666666,133.23621890991885L211.697265625,128.5329377227688L211.94661458333334,127.80052038512612L212.19596354166666,125.72427598975621L212.4453125,129.49379215974457L212.69466145833331,130.17648610449476L212.94401041666666,131.5633153009347L213.193359375,130.75976334539644L213.44270833333334,130.52286789493317L213.69205729166666,128.24659203416041L213.94140625,128.3911786566399L214.19075520833334,128.69360274587737L214.44010416666666,131.03515608485012L214.689453125,133.38079399372418L214.93880208333334,135.54660303231577L215.18815104166666,135.15445938476492L215.4375,130.1172859213863L215.68684895833334,131.29923685841447L215.93619791666666,131.62348676633448L216.185546875,129.5408792200383L216.43489583333334,130.43104083090537L216.68424479166666,125.90369736773812L216.93359375,126.05222625348792L217.18294270833334,126.74346715908874L217.43229166666669,126.61105372820606L217.681640625,126.52714528827455L217.93098958333334,120.64929683347364L218.18033854166666,123.35100867089854L218.4296875,126.03991158885098L218.67903645833334,126.84983166637753L219.177734375,128.37173068181977L219.42708333333331,130.80280533108893L219.67643229166666,126.8966003942914L219.92578125,125.63423624433308L220.17513020833334,124.94297655766213L220.42447916666669,127.12244330187973L220.673828125,129.26969206721452L220.92317708333331,126.47945182344505L221.17252604166666,129.02077400273132L221.421875,124.41347087136535L221.67122395833334,124.9688380024199L221.92057291666669,129.84551428657292L222.16992187500003,129.36074742828058L222.41927083333331,128.3949347342307L222.66861979166666,126.55347454632184L222.91796875,128.27561411961167L223.16731770833334,130.85914295364634L223.41666666666669,133.2317849139657L223.66601562500003,129.7931009302045L223.91536458333331,129.2426297977603L224.16471354166666,128.3795299643631L224.4140625,128.81980631344317L224.66341145833334,129.98287100628693L224.91276041666669,126.76186112305928L225.16210937499997,126.05687860281776L225.41145833333331,128.97212167361286L225.66080729166666,131.6807203020057L225.91015625,130.5554741632184L226.15950520833334,128.69163936311116L226.40885416666669,128.28843298581376L226.65820312499997,128.39438118566684L226.90755208333331,126.99585488734412L227.40625,125.30859517049784L227.65559895833334,129.66090271454914L227.90494791666669,131.58281427955416L228.154296875,131.89863249846437L228.40364583333331,132.72966917057383L228.65299479166666,130.37982461432347L228.90234375,129.58408569164908L229.15169270833334,128.51756266342966L229.40104166666669,127.40124133340936L229.650390625,129.55605522315489L229.89973958333331,131.14653594896998L230.14908854166666,130.39491711381558L230.3984375,128.87316682610998L230.64778645833334,130.54812923011966L230.89713541666666,128.52457786562715L231.146484375,129.53599478659632L231.39583333333331,131.61358176914746L231.64518229166666,128.86019489210915L231.89453125,129.60698259180032L232.14388020833334,129.07743120004548L232.39322916666666,129.88851938558173L232.642578125,128.82891378589008L232.89192708333334,129.70902598386857L233.14127604166666,132.44808821808806L233.390625,131.33591369813257L233.63997395833334,132.5037118982144L233.88932291666666,132.3394299146719L234.138671875,131.0654762878331L234.38802083333334,131.30245370075974L234.63736979166666,133.70890991373386L234.88671875,133.43027367244278L235.13606770833334,132.75935099817053L235.38541666666666,132.04144571242773L235.634765625,132.743838595127L235.88411458333334,132.49839600172137L236.13346354166669,133.33493199495373L236.3828125,131.41919936692122L236.63216145833334,132.99540591504748L236.88151041666666,132.02430734263473L237.130859375,129.9324443519377L237.38020833333334,131.41332918711748L237.62955729166669,128.71443990864637L237.87890625,129.08674661052527L238.12825520833331,124.08618052111117L238.37760416666666,125.6699631480074L238.626953125,128.27882615201517L238.87630208333334,130.02861377083966L239.375,129.59073714067762L239.62434895833331,131.18611084146764L239.87369791666666,131.17807970610673L240.123046875,131.49926269657527L240.37239583333334,129.60661592686444L240.87109375000003,129.07477353323725L241.12044270833331,127.27595241068671L241.36979166666666,131.04833247343026L241.619140625,129.06468975776693L241.86848958333334,126.76757356942252L242.11783854166669,130.00072484810153L242.36718750000003,130.8814462953084L242.61653645833331,130.19068083497856L242.86588541666666,122.36459847291096L243.115234375,125.51003851625526L243.36458333333334,125.47705553637535L243.61393229166669,129.58333432144542L243.86328124999997,130.50414309978459L244.11263020833331,127.88131513775703L244.36197916666666,130.27752529888144L244.611328125,130.5956609584087L244.86067708333334,129.7470501666251L245.11002604166669,129.28760728706817L245.35937499999997,133.0320292973711L245.60872395833331,133.59576219173104L245.85807291666666,133.06929301517968L246.107421875,128.61430280902644L246.35677083333334,128.7045579681714L246.60611979166669,130.2240889475695L246.85546875,125.62099860915585L247.10481770833331,126.47040559588632L247.35416666666666,129.26655808531498L247.603515625,130.33702810273522L247.85286458333334,130.71770632968583L248.10221354166669,129.46103108879998L248.3515625,130.30017579914045L248.60091145833331,131.92012732498395L248.85026041666666,130.79926420016616L249.099609375,129.8891736764853L249.34895833333334,129.26802697030908L249.59830729166666,131.01478136501964L249.84765625,131.16614946544192L250.09700520833331,131.67533101464653L250.34635416666666,131.0920931061295L250.595703125,133.37595653879436L250.84505208333334,134.4456515311732L251.09440104166666,132.91967714306918L251.34375,131.23613207624678L251.59309895833334,129.22424728299308L251.84244791666666,130.3582756935399L252.091796875,130.0760116095647L252.34114583333334,133.07470846042196L252.59049479166666,133.60143679432502L252.83984375,132.61009239784337L253.33854166666666,131.1690347681331L253.587890625,133.85451673354697L253.83723958333334,132.30485991025895L254.08658854166666,130.99167068485707L254.3359375,133.05565726727818L254.58528645833334,128.88395513781916L254.83463541666669,132.0602804618419L255.083984375,134.27269594468055L255.33333333333334,132.96130302043517L255.58268229166666,133.31521131835106L255.83203125,129.0667561685877L256.0813802083333,125.62118414006319L256.3307291666667,128.30846565846284L256.580078125,130.11645005819076L257.07877604166663,129.79875253206615L257.328125,131.75023293912085L257.5774739583333,133.54407093616132L257.8268229166667,133.22167146048696L258.076171875,133.41508837976437L258.3255208333333,135.48520657535752L258.5748697916667,133.87345274160126L258.82421875,131.67521219705765L259.0735677083333,130.43300649914278L259.3229166666667,132.5277117330089L259.572265625,136.14800738377235L259.8216145833333,135.66873021320882L260.0709635416667,132.91904318502708L260.3203125,131.36420117957093L260.5696614583333,130.2110759615132L260.8190104166667,130.3885104552445L261.3177083333333,133.9517033631261L261.5670572916667,132.83429363788434L261.81640625,131.95406577454102L262.3151041666667,133.0733541782663L262.564453125,135.5127667963749L262.8138020833333,128.87761414886987L263.0631510416667,129.91438373590398L263.3125,133.26540822955238L263.5618489583333,131.15240182860055L263.8111979166667,134.85115421497173L264.060546875,136.68566153668704L264.3098958333333,133.9068564065364L264.5592447916667,135.01779717996786L264.80859375,133.03846520712352L265.0579427083333,134.4989617180648L265.3072916666667,135.79479878376856L265.556640625,134.76235565813278L265.8059895833333,134.10918568627505L266.0553385416667,128.56951920052913L266.3046875,130.15467686252126L266.55403645833337,130.19390563194418L266.8033854166667,132.18591513277437L267.052734375,131.23672004591896L267.3020833333333,129.64669685129542L267.5514322916667,127.68780321616461L267.80078125,128.18982922278957L268.05013020833337,130.5795542889092L268.29947916666663,131.60132161007513L268.548828125,130.66903790012708L268.7981770833333,125.59142504584882L269.0475260416667,130.2216520550972L269.296875,128.4397982127675L269.54622395833337,132.1426398885573L269.79557291666663,128.28663387345557L270.044921875,128.4707661398421L270.2942708333333,130.61724815470336L270.5436197916667,124.31526651231528L270.79296875,124.88675641075288L271.04231770833337,127.75630476706533L271.29166666666663,127.03490589015999L271.541015625,129.60585428713418L271.7903645833333,135.39990127043453L272.0397135416667,136.39147791571668L272.2890625,135.238345959296L272.53841145833337,132.79164243953701L272.78776041666663,131.30421781947578L273.037109375,130.39974748008336L273.5358072916667,131.37608241545888L273.78515625,128.37661643264664L274.03450520833337,130.8412606412449L274.28385416666663,124.83740578524606L274.533203125,129.98870076993506L274.7825520833333,126.2031260948278L275.0319010416667,127.5696312416135L275.28125,129.26886245977116L275.5305989583333,125.22875562690434L275.77994791666663,125.98972449464574L276.2786458333333,130.08163510843568L276.5279947916667,132.1371865297424L276.77734375,132.81409234726166L277.0266927083333,133.44071236975566L277.2760416666667,135.0870299778701L277.525390625,136.2222734185119L277.7747395833333,135.70594816094328L278.0240885416667,131.78109687101258L278.2734375,135.71680639226088L278.5227864583333,126.23598210331441L278.7721354166667,125.8860872478285L279.021484375,128.60219297607068L279.2708333333333,132.95254496587245L279.5201822916667,126.44530200393753L279.76953125,124.93208430905197L280.0188802083333,126.87759215851061L280.2682291666667,130.49815869713817L280.517578125,130.40363350461914L280.7669270833333,129.07786971526608L281.0162760416667,130.2859118587278L281.265625,131.1963544984561L281.5149739583333,131.35031625945777L281.7643229166667,135.094545334627L282.013671875,138.49300947311508" style="fill: none;" fill="none"></path></g></g></g></g><g opacity="0.2"><g><g><g><path stroke="rgb(255, 112, 67)" stroke-width="2px" d="M25.184244791666668,73.04349856906468L25.433593750000004,-29.343183390299476L30.420572916666668,-11.488922458224806L30.669921874999996,7.816094122992622L30.919270833333332,16.626448906792533L31.168619791666668,-15.008851453993056L31.41796875,-2.498024834526901L31.667317708333332,24.645508490668405L31.916666666666668,24.849484931098086L32.166015625,20.123547871907558L32.415364583333336,39.079904768202034L32.664713541666664,34.87840203179253L32.9140625,28.91111789279514L33.163411458333336,16.21691165500217L33.412760416666664,19.056798468695742L33.662109375,24.388583882649733L33.91145833333333,18.565809461805554L34.160807291666664,30.383858574761277L34.41015625,36.34940745035808L34.659505208333336,14.891411844889324L34.908854166666664,46.119445885552295L35.158203125,25.583244832356762L35.65690104166667,29.06961534288195L35.90625,31.538306681315113L36.155598958333336,35.06163830227322L36.40494791666667,45.1440694173177L36.654296875,37.84736226399739L36.903645833333336,51.7220002916124L37.152994791666664,48.635117594401045L37.40234375,23.93574049207899L37.65169270833333,44.94190368652343L37.90104166666667,28.580874633789065L38.150390625,18.622635565863717L38.39973958333333,30.868645901150167L38.64908854166667,40.98716295030381L38.8984375,36.1122799343533L39.14778645833333,41.60239681667752L39.397135416666664,30.75318298339843L39.646484375,35.38208109537761L39.895833333333336,40.080744340684674L40.145182291666664,49.705639309353295L40.39453125,19.04217698838976L40.643880208333336,47.831064436170784L40.893229166666664,35.12194247775607L41.142578125,45.58387569851346L41.391927083333336,47.926171959771054L41.641276041666664,40.069231245252816L41.89062500000001,43.9944347805447L42.139973958333336,32.91149605645073L42.389322916666664,38.3404788547092L42.63867187499999,31.35378028021918L42.888020833333336,50.974886406792535L43.137369791666664,35.72391289605035L43.38671875,45.79921434190539L43.636067708333336,66.12436209784615L43.885416666666664,41.96960873074001L44.134765625,47.29909303453234L44.384114583333336,42.7966805352105L44.633463541666664,41.18896653917101L44.8828125,42.00958014594184L45.132161458333336,36.26545842488608L45.38151041666667,19.769191996256517L45.630859375,58.62409345838759L45.88020833333333,62.449074215359154L46.12955729166667,59.71857689751519L46.37890625,37.08468382093642L46.62825520833333,75.40986972384984L46.87760416666667,77.26439853244356L47.126953125,60.36776911417643L47.37630208333333,66.38536834716797L47.62565104166667,63.00822889539931L47.875,61.32549870808919L48.12434895833333,59.02560323079427L48.373697916666664,46.533125135633675L48.623046875,52.82571080525715L48.872395833333336,64.48133171929253L49.121744791666664,63.292721557617185L49.37109375,61.45231628417969L49.620442708333336,64.20146391126845L49.869791666666664,70.08709259033203L50.119140625,57.62934994167751L50.368489583333336,42.963975016276045L50.617838541666664,80.95595262315538L50.86718750000001,61.67429419623481L51.116536458333336,90.18676172892252L51.365885416666664,68.29438442654079L51.61523437499999,61.71477864583333L51.864583333333336,69.59319135877821L52.113932291666664,70.412235683865L52.36328125,66.67250162760416L52.612630208333336,64.15719960530599L52.861979166666664,74.17493557400172L53.111328125,72.6629628499349L53.360677083333336,91.32869330512153L53.610026041666664,51.45713119506836L53.859375,93.14015740288629L54.108723958333336,74.71529659695096L54.35807291666667,71.65542365180121L54.607421875,72.38989274766709L54.85677083333333,84.50689002143012L55.10611979166667,80.62100151909722L55.35546875,85.15074818929037L55.60481770833333,83.57559678819445L55.85416666666667,80.46494852701822L56.103515625,76.35814590454102L56.35286458333333,87.6581585354275L56.60221354166667,86.09769651624892L56.8515625,84.33010440402562L57.10091145833333,67.89459482828775L57.35026041666667,67.87614822387695L57.599609375,71.98064973619249L57.84895833333333,77.08233167860243L58.098307291666664,74.19812020195855L58.34765625,76.84584545559352L58.597005208333336,95.11835013495552L58.846354166666664,81.37030334472657L59.095703125,63.49983656141494L59.345052083333336,72.45797542995878L59.594401041666664,93.20005416870117L59.84375,90.2804810418023L60.093098958333336,67.09977628919813L60.342447916666664,75.96939409044053L60.59179687500001,75.4570085313585L60.841145833333336,60.403326924641924L61.090494791666664,83.58081012301976L61.33984374999999,98.44181336296928L61.589192708333336,80.91880289713541L61.838541666666664,80.78936733669705L62.087890625,69.22234293619793L62.337239583333336,83.45910780164931L62.586588541666664,77.8436294555664L62.8359375,80.88538775973849L63.085286458333336,90.5383411831326L63.334635416666664,86.20384182400174L63.583984375,92.9250828213162L63.833333333333336,97.07042338053385L64.08268229166667,83.55203492906358L64.33203125,87.84933929443359L64.58138020833333,88.46824739244249L64.83072916666667,84.58352830674913L65.080078125,94.2246442159017L65.32942708333333,104.02541944715712L65.57877604166667,93.56402943929037L65.828125,94.3311516655816L66.07747395833333,89.53467237684461L66.32682291666667,92.81278110080294L66.576171875,91.15292621188692L66.82552083333333,90.42892150878906L67.07486979166666,85.60251269870334L67.32421875,95.00761015150283L67.57356770833333,102.90830590989854L67.82291666666666,98.56467755635578L68.072265625,99.22334582010905L68.32161458333333,84.03261235555011L68.57096354166666,102.9897123972575L68.8203125,88.13295678032769L69.06966145833333,93.0630739847819L69.31901041666667,99.18914604187012L69.568359375,97.13457908630372L69.81770833333333,94.1547583685981L70.06705729166667,83.09769015842015L70.31640625,91.9308221605089L70.56575520833333,81.63671154446071L70.81510416666667,88.5321654425727L71.064453125,96.26744910346137L71.31380208333334,104.2718457116021L71.56315104166667,84.13494008382162L71.8125,100.60562269422743L72.06184895833334,90.81439895629883L72.31119791666667,107.2217293633355L72.560546875,97.80010918511285L72.80989583333334,88.33083716498481L73.05924479166667,106.61415328979493L73.30859375,91.71035317314995L73.55794270833333,104.07691150241429L74.056640625,99.60151252746581L74.30598958333333,78.82229537963867L74.55533854166667,100.49031444125707L74.8046875,89.70111431545682L75.05403645833334,83.95845625135634L75.30338541666666,95.36160765753853L75.552734375,108.22554528978137L75.80208333333334,97.95136002434624L76.30078125,95.70243979560004L76.55013020833334,99.65340444776747L76.79947916666666,103.12158109876844L77.048828125,100.10825470818413L77.29817708333334,82.88180830213759L77.54752604166666,89.01050211588542L77.796875,83.70018115573458L78.04622395833333,101.9820034450955L78.29557291666666,88.01545681423612L78.544921875,97.27275132073297L78.79427083333333,104.16645863850913L79.04361979166667,84.80546095106337L79.29296875,89.59742855495878L79.54231770833333,110.57606896294487L79.79166666666667,116.16267403496636L80.041015625,113.02804896036783L80.29036458333333,111.15016954210068L80.53971354166667,99.45308337741427L80.7890625,103.1754044426812L81.28776041666667,112.8169353061252L81.537109375,106.70556394788954L81.78645833333333,103.20742759704589L82.03580729166667,117.90806232028537L82.28515625,103.28113856845431L82.53450520833333,101.74937252468531L82.78385416666667,115.7968088361952L83.03320312500001,92.98402896457247L83.28255208333333,106.15892579820421L83.53190104166667,114.1174096001519L83.78125000000001,100.37103017171222L84.03059895833333,100.20736842685277L84.27994791666667,108.25474675496417L84.52929687499999,115.42481740315753L84.77864583333333,99.5934058295356L85.02799479166667,91.54946407741971L85.27734374999999,90.68444281684027L85.52669270833333,101.20468843248156L85.77604166666667,103.09455625745986L86.025390625,106.40981470743814L86.27473958333333,93.45262552897135L86.52408854166667,110.57433369954428L86.7734375,100.68515434265137L87.02278645833333,109.10399975246854L87.27213541666667,101.09514427185059L87.521484375,107.17336078219945L87.77083333333333,115.262174182468L88.02018229166667,101.6405413309733L88.26953125,102.43644252353243L88.51888020833333,95.52007115681967L88.76822916666667,93.36453450520834L89.017578125,97.39849001566569L89.26692708333333,101.5513865152995L89.51627604166667,104.5982676188151L89.765625,110.60751872592503L90.01497395833334,110.42399575975206L90.26432291666667,117.29608018663194L90.513671875,99.04630745781792L90.76302083333334,117.97321014404297L91.01236979166666,111.9199663374159L91.26171875,110.91890419854057L91.76041666666666,104.41265479193794L92.009765625,111.63513416714137L92.25911458333334,104.69829423692491L92.50846354166666,105.73694746229384L92.7578125,99.16210233900281L93.00716145833334,103.33767043219673L93.25651041666666,110.72580333285863L93.505859375,108.8003927866618L93.75520833333334,109.04804505242241L94.00455729166666,101.47255274454751L94.25390625,108.21160659790038L94.50325520833334,125.37299948798285L94.75260416666666,111.59712058173285L95.001953125,110.44676543341743L95.25130208333334,116.78743298848468L95.50065104166666,111.83212428622777L95.75,109.1334464179145L95.99934895833334,104.55035925971137L96.24869791666666,101.90953356424967L96.498046875,111.81522432963055L96.74739583333333,119.63595839606391L97.24609375,103.56966760423448L97.74479166666667,115.21298323737251L97.994140625,109.13760350545247L98.24348958333333,105.40389005872939L98.49283854166667,115.16735712687176L98.7421875,116.08127131991915L98.99153645833333,107.3183986239963L99.24088541666667,106.58897688123915L99.490234375,109.59467188517254L99.73958333333333,111.65303755866157L99.98893229166667,112.5711390177409L100.23828125,105.85136167738173L100.48763020833333,108.49212324354383L100.73697916666667,98.20968793233236L100.986328125,89.56656350029839L101.23567708333333,118.92930255466037L101.73437500000001,123.34992756313748L101.98372395833333,113.73040059407553L102.23307291666667,104.76055246988932L102.48242187500001,112.31932966444228L102.73177083333333,120.46896404690212L103.23046874999999,115.20425033569336L103.47981770833333,111.97773929172094L103.72916666666667,120.973314581977L103.97851562499999,113.6989168802897L104.22786458333333,115.96398637559679L104.47721354166667,98.17346996731227L104.7265625,100.79624137878417L104.97591145833333,108.1862981584337L105.22526041666667,108.23648122151694L105.474609375,119.4145123799642L105.72395833333333,109.06806471082899L105.97330729166667,102.09347525702583L106.22265625,109.23855056762696L106.47200520833333,122.61041865878634L106.72135416666667,119.93853929307726L106.970703125,113.58721118503148L107.22005208333333,117.11549962361654L107.46940104166667,120.96842189364965L107.71875,114.3035279168023L107.96809895833333,124.5941529168023L108.21744791666667,111.64029091729059L108.466796875,113.10669411553276L108.71614583333334,115.71352750990127L108.96549479166667,115.26509017944336L109.21484375,124.8502589331733L109.46419270833334,124.86269624498155L109.71354166666666,116.94397260877821L109.962890625,118.24345101250542L110.21223958333334,119.04476170010035L110.46158854166666,120.25072826809354L110.7109375,117.80213580661349L110.96028645833334,113.77769406636554L111.20963541666666,112.87495346069336L111.458984375,125.1952028910319L111.70833333333334,117.88221821255155L111.95768229166666,109.05720045301649L112.20703125,116.23223923577203L112.45638020833334,121.77536464267305L112.70572916666666,126.59697507222494L112.955078125,122.98726128472222L113.20442708333334,118.46276567247179L113.45377604166666,121.7601659986708L113.703125,110.74978769090441L113.95247395833334,119.99589352077906L114.20182291666666,109.34230045742457L114.451171875,119.31359549628364L114.70052083333334,109.14040256076387L114.94986979166666,121.23648236592611L115.19921875,119.95866457621258L115.44856770833333,114.61271413167316L115.69791666666666,95.5201579199897L115.947265625,106.18898357815213L116.19661458333333,124.56753171284994L116.44596354166667,119.47340571085611L116.6953125,118.86411700778537L116.94466145833333,121.86689224243165L117.443359375,119.94610277811688L117.69270833333333,123.38414997524684L117.94205729166667,129.4644374847412L118.19140625,117.49327023824054L118.44075520833333,113.85452473958334L118.69010416666667,107.41820644802519L118.939453125,112.74566502041286L119.18880208333333,119.18211157057021L119.43815104166667,120.17655707465278L119.6875,120.46383747524686L119.93684895833333,112.2165756649441L120.18619791666667,110.74538540310331L120.43554687500001,106.23007159762913L120.68489583333333,122.96677763197158L120.93424479166667,123.4740064409044L121.18359375000001,124.72030656602647L121.43294270833333,114.02967317369249L121.68229166666667,124.36940990024142L121.93164062499999,118.32409926520454L122.18098958333333,109.39125374688042L122.43033854166667,119.63028861151801L122.67968749999999,114.90333302815753L122.92903645833333,104.81066008673774L123.17838541666667,124.4786183251275L123.67708333333333,122.85921770731608L123.92643229166667,124.53911111619738L124.17578125,117.40928348965116L124.42513020833333,124.36037144131132L124.67447916666667,114.35606113009982L124.923828125,111.03499709235298L125.17317708333333,118.44795557657876L125.42252604166667,124.11967531840008L125.671875,123.79570541381835L125.92122395833333,115.75283499823676L126.17057291666667,118.29268345303007L126.419921875,119.38704617818195L126.66927083333333,122.0446058485243L126.91861979166667,126.72046546936035L127.16796875,111.6343608432346L127.41731770833334,122.14261050754125L127.66666666666667,127.2257741716173L127.916015625,122.14824634128148L128.16536458333334,124.96609908209906L128.41471354166666,131.33381788465712L128.6640625,128.31553279029L128.91341145833334,123.85316903856065L129.412109375,120.3434026506212L129.66145833333334,123.18611492580838L129.91080729166666,118.3818194071452L130.16015625,120.4439309861925L130.40950520833334,113.83879419962564L130.65885416666666,116.35529581705731L130.908203125,124.86993908352324L131.15755208333334,115.92313978407118L131.40690104166666,124.45261578030055L131.65625,117.10346217685277L131.90559895833334,109.69807849460177L132.15494791666666,114.99466446770562L132.404296875,107.56957422892252L132.90299479166666,111.13489922417534L133.15234375,121.31459185282388L133.40169270833334,125.24546894497342L133.65104166666666,113.66090329488117L133.900390625,127.0315868801541L134.14973958333331,110.24741384718153L134.39908854166666,114.81586820814346L134.6484375,120.46426374647353L134.89778645833331,115.1562363518609L135.14713541666666,122.40366579691569L135.396484375,127.4707745022244L135.64583333333331,119.78687727186414L135.89518229166666,111.31975758870443L136.14453125,114.62346522013348L136.39388020833331,128.41213603549534L136.64322916666666,117.58494873046875L136.892578125,130.2879557715522L137.14192708333331,118.14598202175566L137.39127604166666,126.1682292090522L137.640625,109.43978830973306L137.88997395833331,123.88844392564562L138.13932291666666,125.83800481160482L138.388671875,126.49815182156031L138.63802083333334,130.8938248740302L138.88736979166666,120.8174766116672L139.13671875,119.99033313327367L139.38606770833334,108.72995995415582L139.63541666666666,112.2234375L139.884765625,115.58186628553602L140.13411458333334,114.59632720947266L140.38346354166666,124.62314313252767L140.6328125,136.2807878918118L140.88216145833334,121.61903627183702L141.13151041666666,126.41695658365887L141.380859375,132.62505944569904L141.63020833333334,119.63505681355792L141.87955729166666,119.23525967068143L142.12890625,120.01523793538412L142.37825520833334,123.31214786105684L142.62760416666669,128.1982987721761L142.876953125,112.0453466627333L143.12630208333334,123.28842379252116L143.37565104166669,127.76182532840303L143.625,125.20197419060601L143.87434895833334,121.96275422837999L144.12369791666669,128.31635704040528L144.373046875,125.05515204535591L144.62239583333334,124.74377788967557L144.87174479166669,115.36332872178819L145.12109375,117.27469872368707L145.37044270833334,112.88250562879774L145.61979166666669,122.27650871276856L145.869140625,114.33731274074977L146.11848958333334,112.59190936618383L146.36783854166669,119.25515861511231L146.6171875,126.30509622361924L146.86653645833334,123.71043985154893L147.11588541666666,117.56536288791234L147.365234375,120.31204342312284L147.61458333333334,127.5056608412001L147.86393229166666,117.41018507215712L148.11328125,123.34064013163248L148.61197916666666,120.65014440748428L148.861328125,121.1835492875841L149.11067708333334,130.43922924465605L149.36002604166666,122.49397871229384L149.609375,130.73219451904296L149.85872395833334,130.16353172726102L150.35742187499997,132.96329057481555L150.60677083333331,117.29006712171767L150.85611979166666,120.07273551093208L151.10546875,122.98642005920411L151.35481770833334,118.45304819742837L151.60416666666669,107.3897104051378L151.85351562499997,118.49174834357368L152.10286458333331,131.49428070916068L152.35221354166666,126.74071901109482L152.6015625,123.98587519327799L152.85091145833334,125.49081255594889L153.10026041666669,111.4158534579807L153.349609375,108.99113595750597L153.59895833333331,119.70626296997071L153.84830729166666,125.5019861433241L154.09765625,126.94185112847222L154.34700520833334,123.7658852895101L154.59635416666669,100.53748719957139L154.845703125,122.88526174757216L155.09505208333331,122.41469980875651L155.34440104166666,129.53824276394315L155.59375,122.06169442070855L155.84309895833334,120.54236946105956L156.09244791666666,107.2403721279568L157.08984375,129.2255897945828L157.33919270833334,126.33735703362359L157.58854166666666,121.16014586554634L157.837890625,123.1365316602919L158.08723958333334,126.23268669976129L158.33658854166666,126.2520386589898L158.5859375,119.48956252204047L158.83528645833334,125.25645391676161L159.08463541666666,120.35400284661186L159.333984375,128.43725397321913L159.58333333333334,129.84278903537327L159.83268229166666,127.10928141276041L160.08203125,123.48881653679742L160.33138020833334,130.6448919084337L160.58072916666666,133.51817877027725L160.830078125,111.74226404825846L161.07942708333334,133.53579923841687L161.32877604166669,132.82719311184354L161.578125,133.84657359653048L161.82747395833334,115.09832004970973L162.07682291666666,128.6480715009901L162.326171875,121.08370374043783L162.57552083333334,114.07659318712022L162.82486979166669,131.03780835469564L163.07421875,130.08296835157606L163.32356770833331,117.84410654703775L163.57291666666666,124.79014337327746L163.822265625,124.94275978936089L164.07161458333334,133.18704901801217L164.32096354166669,127.7334160486857L164.5703125,119.05616539849176L164.81966145833331,120.63733740912544L165.06901041666666,132.9416224161784L165.318359375,114.72213003370497L165.56770833333334,122.40079883999293L165.81705729166669,123.31011458502876L166.06640625000003,117.4491077846951L166.31575520833331,130.7574878692627L166.56510416666666,119.97211286756728L166.814453125,124.55157106187607L167.06380208333334,105.50314712524414L167.31315104166669,122.41041446261934L167.56250000000003,121.75841564602321L167.81184895833331,125.10657619900175L168.06119791666666,120.87604175143771L168.310546875,124.62975222269694L168.55989583333334,123.05918040805392L168.80924479166669,126.46831283569335L169.05859374999997,119.92140922546386L169.30794270833331,125.9886181301541L169.55729166666666,134.1469778696696L169.806640625,127.16725052727593L170.05598958333334,133.61323725382488L170.30533854166669,122.17855686611598L170.55468749999997,125.76493513319227L170.80403645833331,125.73423606024848L171.05338541666666,128.18827951219347L171.302734375,123.68885091145835L171.55208333333334,124.82002008226183L171.80143229166669,120.76120503743488L172.05078125,131.36186879475912L172.54947916666666,116.83140682644316L172.798828125,133.08296150631375L173.04817708333334,120.58511729770238L173.29752604166669,125.60844078063965L173.546875,119.86737463209364L173.79622395833331,120.77947057088217L174.04557291666666,129.96090766059027L174.294921875,129.84670092264813L174.54427083333334,126.74186390770807L174.79361979166666,127.8895765516493L175.04296875,131.92278137207032L175.29231770833331,124.89683943854438L175.54166666666666,130.6877906375461L175.791015625,130.0085368686252L176.04036458333334,124.06430909898546L176.28971354166666,119.50367096794976L176.78841145833334,128.63348774380154L177.03776041666666,118.79130384657118L177.287109375,133.51376893785266L177.53645833333334,121.59837909274633L177.78580729166666,127.49189190334742L178.03515625,124.94594362046983L178.28450520833334,125.73477927313911L178.53385416666666,129.1992741478814L178.783203125,126.42510477701825L179.03255208333334,131.2255751715766L179.28190104166666,116.40931532118056L179.53125,128.02498745388456L179.78059895833334,122.8585764143202L180.02994791666669,125.81973173353407L180.279296875,126.64340845743817L180.52864583333334,133.01277198791504L180.77799479166666,124.52128694322374L181.02734375,119.92161670260958L181.27669270833334,126.22312766181098L181.52604166666669,133.51468560960558L181.775390625,113.73206041124132L182.02473958333331,123.17328152126737L182.27408854166666,122.13093520270453L182.5234375,122.90050565931531L182.77278645833334,128.3874519136217L183.02213541666669,131.22156143188477L183.271484375,129.2368727789985L183.52083333333331,127.47510511610244L183.77018229166666,116.44397532145182L184.01953125,121.77133581373427L184.26888020833334,122.31937349107531L184.51822916666669,121.24705615573458L184.76757812500003,131.3023926417033L185.01692708333331,129.1455413394504L185.26627604166666,117.5603419409858L185.515625,126.3037495083279L185.76497395833334,111.7421282450358L186.01432291666669,125.61752450731066L186.26367187500003,120.87975370619031L186.51302083333331,130.51607877943252L186.76236979166666,128.5172854529487L187.01171875,126.55008900960287L187.26106770833334,121.64948637220596L187.51041666666669,123.0560343000624L187.75976562499997,135.0548488193088L188.00911458333331,130.20770738389757L188.5078125,123.1827613406711L188.75716145833334,127.3907071855333L189.00651041666669,131.20981068081326L189.25585937499997,136.08144007788766L189.50520833333331,138.2261747148302L189.75455729166666,121.59334682888456L190.00390625,121.92049679226346L190.25325520833334,126.75751900143095L190.50260416666669,127.38511096106636L190.751953125,122.29174507988823L191.00130208333331,132.90928615993923L191.25065104166666,112.23579936557347L191.5,130.7396863301595L191.74934895833334,130.24156388176812L191.99869791666669,137.01511929829914L192.248046875,124.5048698425293L192.49739583333331,133.81414114634197L192.74674479166666,118.15491862826879L192.99609375,121.82448391384547L193.24544270833334,123.35205891927085L193.49479166666666,130.27476965586345L193.744140625,125.7315501742893L193.99348958333331,124.91652336120606L194.24283854166666,133.09976904127333L194.4921875,127.9421625773112L194.74153645833334,121.27746476067436L194.99088541666666,127.13231892055934L195.240234375,128.06281242370605L195.48958333333334,132.0145805782742L195.73893229166666,125.81435996161566L195.98828125,132.0493386586507L196.23763020833334,124.39531813727486L196.48697916666666,126.16997956169976L196.736328125,120.47158957587348L196.98567708333334,116.39125349256727L197.23502604166666,105.87504425048829L197.484375,120.40228466457789L197.73372395833334,129.73871284061008L197.98307291666666,130.86733758714465L198.232421875,129.6443786409166L198.48177083333334,125.58662550184462L198.73111979166669,124.83126157124838L198.98046875,126.52414304945205L199.22981770833334,126.90152888827855L199.47916666666666,128.71220457288953L199.728515625,134.22391039530436L199.97786458333334,114.99031876458062L200.22721354166669,123.86635326809355L200.4765625,129.4032883114285L200.72591145833331,135.68452309502496L200.97526041666666,129.59818856981065L201.224609375,127.17126426696777L201.47395833333334,133.28718503316242L201.72330729166669,128.61630863613553L201.97265625,129.6420926200019L202.22200520833331,126.95483542548286L202.47135416666666,121.33163515726727L202.720703125,129.7297856648763L202.97005208333334,132.10784344143337L203.21940104166669,127.93422186109754L203.46875000000003,127.54884815216064L203.71809895833331,131.3248246934679L203.96744791666666,124.69902318318685L204.216796875,115.53255462646484L204.46614583333334,129.03261341518825L204.71549479166669,126.23964284261068L204.96484375000003,119.91360808478461L205.21419270833331,127.52444129519994L205.46354166666666,125.3238311767578L205.712890625,135.03023071289064L205.96223958333334,123.6136196984185L206.21158854166669,128.8636553446452L206.46093749999997,128.73887293073867L206.71028645833331,123.56628850301108L206.95963541666666,132.80201293097602L207.208984375,134.29020500183105L207.45833333333334,122.94463416205512L207.70768229166669,124.6047191619873L207.95703124999997,132.2116706636217L208.20638020833331,127.82975145975747L208.45572916666666,135.79962952931723L208.705078125,127.67755188412137L208.95442708333334,131.39902040693494L209.20377604166669,131.206064775255L209.453125,130.47117695278592L209.70247395833331,129.09450573391385L209.95182291666666,126.15155936347114L210.201171875,129.7346311993069L210.45052083333334,134.30274982452394L210.69986979166669,130.48278435601128L210.94921875,139.81321644253202L211.19856770833331,126.37588365342882L211.44791666666666,136.26833360460068L211.697265625,121.47801594204371L211.94661458333334,126.7018943786621L212.19596354166666,122.60990939670138L212.4453125,135.14806641472708L212.69466145833331,131.20052702162002L212.94401041666666,133.6435590955946L213.193359375,129.55443541208905L213.44270833333334,130.1675247192383L213.69205729166666,124.83217824300131L213.94140625,128.60805859035915L214.19075520833334,129.1472388797336L214.44010416666666,134.5474860933092L214.689453125,136.89925085703533L214.93880208333334,138.79531659020316L215.18815104166666,134.5662439134386L215.4375,122.56152572631837L215.68684895833334,133.07216326395672L215.93619791666666,132.10986162821453L216.185546875,126.41696790059409L216.43489583333334,131.76628324720593L216.68424479166666,119.1126821729872L216.93359375,126.27501958211263L217.18294270833334,127.78032851748995L217.43229166666669,126.41243358188207L217.681640625,126.40128262837726L217.93098958333334,111.83252415127225L218.18033854166666,127.40357642703587L218.4296875,130.07326596577963L218.67903645833334,128.06471178266736L219.177734375,130.65457920498318L219.42708333333331,134.4494173049927L219.67643229166666,121.03729298909506L219.92578125,123.74069001939561L220.17513020833334,123.90608702765572L220.42447916666669,130.3916434182061L220.673828125,132.49056521521675L220.92317708333331,122.29409145779081L221.17252604166666,132.8327572716607L221.421875,117.50251617431641L221.67122395833334,125.80188869900175L221.92057291666669,137.16052871280246L222.16992187500003,128.633597140842L222.41927083333331,126.94621569315592L222.66861979166666,123.79128426445855L222.91796875,130.85882347954646L223.16731770833334,134.73443620469834L223.41666666666669,136.7907478544447L223.66601562500003,124.63507495456271L223.91536458333331,128.41692309909396L224.16471354166666,127.0848802142673L224.4140625,129.48022083706326L224.66341145833334,131.72746804555257L224.91276041666669,121.93034629821777L225.16210937499997,124.99940482245552L225.41145833333331,133.34498627980548L225.66080729166666,135.743618244595L225.91015625,128.86760495503742L226.15950520833334,125.8958871629503L226.40885416666669,127.68362341986763L226.65820312499997,128.5533034854465L226.90755208333331,124.89806543986002L227.40625,122.77770559522841L227.65559895833334,136.18936403062608L227.90494791666669,134.46568162706163L228.154296875,132.3723598268297L228.40364583333331,133.97622417873808L228.65299479166666,126.85505777994791L228.90234375,128.39047730763752L229.15169270833334,126.91777812110054L229.40104166666669,125.72675933837891L229.650390625,132.78827605777317L229.89973958333331,133.5322570376926L230.14908854166666,129.267488861084L230.3984375,126.59054139455161L230.64778645833334,133.06057283613416L230.89713541666666,125.48925081888837L231.146484375,131.05312016805013L231.39583333333331,134.72996224297415L231.64518229166666,124.73011457655164L231.89453125,130.72716414133708L232.14388020833334,128.28310411241318L232.39322916666666,131.10515166388618L232.642578125,127.23950538635253L232.89192708333334,131.02919428083632L233.14127604166666,136.55668156941732L233.390625,129.66765191819934L233.63997395833334,134.25540919833713L233.88932291666666,132.0930069393582L234.138671875,129.15454584757487L234.38802083333334,131.65791982014974L234.63736979166666,137.318594233195L234.88671875,133.01231931050617L235.13606770833334,131.75296698676217L235.38541666666666,130.96458778381347L235.634765625,133.7974279191759L235.88411458333334,132.13023211161297L236.13346354166669,134.58973598480225L236.3828125,128.5456004248725L236.63216145833334,135.35971573723688L236.88151041666666,130.5676594840156L237.130859375,126.7946498658922L237.38020833333334,133.63465643988715L237.62955729166669,124.66610599093966L237.87890625,129.64520666334363L238.12825520833331,116.58533138699L238.37760416666666,128.04563708835178L238.626953125,132.19212065802682L238.87630208333334,132.65329519907635L239.375,128.93392219543458L239.62434895833331,133.5791713926527L239.87369791666666,131.1660330030653L240.123046875,131.9810371822781L240.37239583333334,126.76764577229818L240.87109375000003,128.2770099427965L241.12044270833331,124.57772072686089L241.36979166666666,136.70690256754557L241.619140625,126.08922568427192L241.86848958333334,123.32189928690592L242.11783854166669,134.85045176612005L242.36718750000003,132.2025284661187L242.61653645833331,129.15453264448377L242.86588541666666,110.62547492980957L243.115234375,130.2281985812717L243.36458333333334,125.42758106655546L243.61393229166669,135.74275249905057L243.86328124999997,131.88535626729328L244.11263020833331,123.94707319471571L244.36197916666666,133.87184054056803L244.611328125,131.07286444769966L244.86067708333334,128.47413397894965L245.11002604166669,128.59844296773275L245.35937499999997,138.6486623128255L245.60872395833331,134.44136153327096L245.85807291666666,132.27958925035264L246.107421875,121.93181749979654L246.35677083333334,128.83994070688885L246.60611979166669,132.50338541666667L246.85546875,118.71636310153536L247.10481770833331,127.74451607598199L247.35416666666666,133.460786819458L247.603515625,131.94273312886554L247.85286458333334,131.28872367011175L248.10221354166669,127.57601822747124L248.3515625,131.55889286465114L248.60091145833331,134.3500546137492L248.85026041666666,129.11796951293945L249.099609375,128.52403789096408L249.34895833333334,128.33630691104466L249.59830729166666,133.6349129570855L249.84765625,131.39320161607532L250.09700520833331,132.4391033384535L250.34635416666666,130.21723624335394L250.595703125,136.8017516877916L250.84505208333334,136.0501940197415L251.09440104166666,130.6307155609131L251.34375,128.71081447601318L251.59309895833334,126.20642009311251L251.84244791666666,132.05931830936007L252.091796875,129.6526154836019L252.34114583333334,137.5727537367079L252.59049479166666,134.39152929517957L252.83984375,131.1230758031209L253.33854166666666,129.0074483235677L253.587890625,137.88273968166774L253.83723958333334,129.98037467532689L254.08658854166666,129.02188684675428L254.3359375,136.15163714090983L254.58528645833334,122.62640194363063L254.83463541666669,136.82476844787598L255.083984375,137.59131916893853L255.33333333333334,130.9942136340671L255.58268229166666,133.84607376522487L255.83203125,122.69407344394259L256.0813802083333,120.45282609727647L256.3307291666667,132.33938793606228L256.580078125,132.82842665778264L257.07877604166663,129.32220624287922L257.328125,134.67745354970296L257.5774739583333,136.234827931722L257.8268229166667,132.73807224697538L258.076171875,133.70521375868054L258.3255208333333,138.5903838687473L258.5748697916667,131.4558219909668L258.82421875,128.37785138024222L259.0735677083333,128.5696979522705L259.3229166666667,135.66976958380803L259.572265625,141.57845085991755L259.8216145833333,134.94981445736354L260.0709635416667,128.79451264275443L260.3203125,129.0319381713867L260.5696614583333,128.48138813442654L260.8190104166667,130.65466219584147L261.3177083333333,139.29649272494845L261.5670572916667,131.1581790500217L261.81640625,130.63372397952608L262.3151041666667,134.75228678385417L262.564453125,139.17188572353788L262.8138020833333,118.92488517761231L263.0631510416667,131.46953811645508L263.3125,138.29194497002496L263.5618489583333,127.98289222717285L263.8111979166667,140.39928279452855L264.060546875,139.43742251925997L264.3098958333333,129.73864871131047L264.5592447916667,136.68420834011502L264.80859375,130.069467247857L265.0579427083333,136.68970648447672L265.3072916666667,137.73855438232422L265.556640625,133.21369096967908L265.8059895833333,133.1294307284885L266.0553385416667,120.26001947191025L266.3046875,132.53241335550945L266.55403645833337,130.25274878607854L266.8033854166667,135.17392938401963L267.052734375,129.81292741563584L267.3020833333333,127.26166205936009L267.5514322916667,124.74946276346844L267.80078125,128.94286823272705L268.05013020833337,134.16414188808866L268.29947916666663,133.133972591824L268.548828125,129.27061233520507L268.7981770833333,117.97500576443143L269.0475260416667,137.16699256896973L269.296875,125.767017449273L269.54622395833337,137.69690240224202L269.79557291666663,122.50262485080295L270.044921875,128.74696453942192L270.2942708333333,133.83697117699515L270.5436197916667,114.86229404873319L270.79296875,125.7439912584093L271.04231770833337,132.060627301534L271.29166666666663,125.95280757480197L271.541015625,133.4622768825955L271.7903645833333,144.09097174538508L272.0397135416667,137.87884288363986L272.2890625,133.508648024665L272.53841145833337,129.12158715989855L272.78776041666663,129.07308088938396L273.037109375,129.04304197099475L273.5358072916667,132.84058481852213L273.78515625,123.87741745842827L274.03450520833337,134.53822695414226L274.28385416666663,115.83162350124782L274.533203125,137.7156432469686L274.7825520833333,120.52476408216688L275.0319010416667,129.619388961792L275.28125,131.81770928700763L275.5305989583333,119.16859537760416L275.77994791666663,127.13117779625786L276.2786458333333,136.21950102912055L276.5279947916667,135.22051366170248L276.77734375,133.82945107354058L277.0266927083333,134.38064240349664L277.2760416666667,137.5565063900418L277.525390625,137.92513857947458L277.7747395833333,134.93146027459036L278.0240885416667,125.89381993611654L278.2734375,141.62037067413328L278.5227864583333,112.01474566989477L278.7721354166667,125.3612449645996L279.021484375,132.67635156843397L279.2708333333333,139.4780729505751L279.5201822916667,116.68443756103515L279.76953125,122.66225776672363L280.0188802083333,129.79585393269855L280.2682291666667,135.92900850507948L280.517578125,130.26184571584065L280.7669270833333,127.08922403123643L281.0162760416667,132.09797507392034L281.265625,132.5620184580485L281.5149739583333,131.58125890096028L281.7643229166667,140.7108889473809L282.013671875,143.59070568084715" style="fill: none;" fill="none"></path></g></g></g></g></g></g><g transform="translate(30, 178)" clip-path="url(#clip_1)"><clipPath id="clip_1"><rect width="299" height="22"></rect></clipPath><g><g><line x1="0" y1="0" x2="0" y2="5" style="visibility: inherit;" fill="rgb(0, 0, 0)" stroke="rgb(204, 204, 204)" stroke-width="1px"></line><line x1="24.934895833333332" y1="0" x2="24.934895833333332" y2="5" style="visibility: inherit;" fill="rgb(0, 0, 0)" stroke="rgb(204, 204, 204)" stroke-width="1px"></line><line x1="49.869791666666664" y1="0" x2="49.869791666666664" y2="5" style="visibility: inherit;" fill="rgb(0, 0, 0)" stroke="rgb(204, 204, 204)" stroke-width="1px"></line><line x1="74.8046875" y1="0" x2="74.8046875" y2="5" style="visibility: inherit;" fill="rgb(0, 0, 0)" stroke="rgb(204, 204, 204)" stroke-width="1px"></line><line x1="99.73958333333333" y1="0" x2="99.73958333333333" y2="5" style="visibility: inherit;" fill="rgb(0, 0, 0)" stroke="rgb(204, 204, 204)" stroke-width="1px"></line><line x1="124.67447916666667" y1="0" x2="124.67447916666667" y2="5" style="visibility: inherit;" fill="rgb(0, 0, 0)" stroke="rgb(204, 204, 204)" stroke-width="1px"></line><line x1="149.609375" y1="0" x2="149.609375" y2="5" style="visibility: inherit;" fill="rgb(0, 0, 0)" stroke="rgb(204, 204, 204)" stroke-width="1px"></line><line x1="174.54427083333334" y1="0" x2="174.54427083333334" y2="5" style="visibility: inherit;" fill="rgb(0, 0, 0)" stroke="rgb(204, 204, 204)" stroke-width="1px"></line><line x1="199.47916666666666" y1="0" x2="199.47916666666666" y2="5" style="visibility: inherit;" fill="rgb(0, 0, 0)" stroke="rgb(204, 204, 204)" stroke-width="1px"></line><line x1="224.4140625" y1="0" x2="224.4140625" y2="5" style="visibility: inherit;" fill="rgb(0, 0, 0)" stroke="rgb(204, 204, 204)" stroke-width="1px"></line><line x1="249.34895833333334" y1="0" x2="249.34895833333334" y2="5" style="visibility: inherit;" fill="rgb(0, 0, 0)" stroke="rgb(204, 204, 204)" stroke-width="1px"></line><line x1="274.28385416666663" y1="0" x2="274.28385416666663" y2="5" style="visibility: inherit;" fill="rgb(0, 0, 0)" stroke="rgb(204, 204, 204)" stroke-width="1px"></line><line x1="299.21875" y1="0" x2="299.21875" y2="5" style="visibility: inherit;" fill="rgb(0, 0, 0)" stroke="rgb(204, 204, 204)" stroke-width="1px"></line></g><g transform="translate(0, 8)"><text x="0" y="0" dx="0em" dy="0.95em" style="text-anchor: middle; visibility: hidden; font-family: Roboto, sans-serif; font-size: 12px; font-weight: 200;" fill="rgb(50, 49, 63)" stroke="none" stroke-width="1px">-2k</text><text x="24.934895833333332" y="0" dx="0em" dy="0.95em" style="text-anchor: middle; visibility: inherit; font-family: Roboto, sans-serif; font-size: 12px; font-weight: 200;" fill="rgb(50, 49, 63)" stroke="none" stroke-width="1px">0</text><text x="49.869791666666664" y="0" dx="0em" dy="0.95em" style="text-anchor: middle; visibility: hidden; font-family: Roboto, sans-serif; font-size: 12px; font-weight: 200;" fill="rgb(50, 49, 63)" stroke="none" stroke-width="1px">2k</text><text x="74.8046875" y="0" dx="0em" dy="0.95em" style="text-anchor: middle; visibility: inherit; font-family: Roboto, sans-serif; font-size: 12px; font-weight: 200;" fill="rgb(50, 49, 63)" stroke="none" stroke-width="1px">4k</text><text x="99.73958333333333" y="0" dx="0em" dy="0.95em" style="text-anchor: middle; visibility: hidden; font-family: Roboto, sans-serif; font-size: 12px; font-weight: 200;" fill="rgb(50, 49, 63)" stroke="none" stroke-width="1px">6k</text><text x="124.67447916666667" y="0" dx="0em" dy="0.95em" style="text-anchor: middle; visibility: inherit; font-family: Roboto, sans-serif; font-size: 12px; font-weight: 200;" fill="rgb(50, 49, 63)" stroke="none" stroke-width="1px">8k</text><text x="149.609375" y="0" dx="0em" dy="0.95em" style="text-anchor: middle; visibility: hidden; font-family: Roboto, sans-serif; font-size: 12px; font-weight: 200;" fill="rgb(50, 49, 63)" stroke="none" stroke-width="1px">10k</text><text x="174.54427083333334" y="0" dx="0em" dy="0.95em" style="text-anchor: middle; visibility: inherit; font-family: Roboto, sans-serif; font-size: 12px; font-weight: 200;" fill="rgb(50, 49, 63)" stroke="none" stroke-width="1px">12k</text><text x="199.47916666666666" y="0" dx="0em" dy="0.95em" style="text-anchor: middle; visibility: hidden; font-family: Roboto, sans-serif; font-size: 12px; font-weight: 200;" fill="rgb(50, 49, 63)" stroke="none" stroke-width="1px">14k</text><text x="224.4140625" y="0" dx="0em" dy="0.95em" style="text-anchor: middle; visibility: inherit; font-family: Roboto, sans-serif; font-size: 12px; font-weight: 200;" fill="rgb(50, 49, 63)" stroke="none" stroke-width="1px">16k</text><text x="249.34895833333334" y="0" dx="0em" dy="0.95em" style="text-anchor: middle; visibility: hidden; font-family: Roboto, sans-serif; font-size: 12px; font-weight: 200;" fill="rgb(50, 49, 63)" stroke="none" stroke-width="1px">18k</text><text x="274.28385416666663" y="0" dx="0em" dy="0.95em" style="text-anchor: middle; visibility: inherit; font-family: Roboto, sans-serif; font-size: 12px; font-weight: 200;" fill="rgb(50, 49, 63)" stroke="none" stroke-width="1px">20k</text><text x="299.21875" y="0" dx="0em" dy="0.95em" style="text-anchor: middle; visibility: hidden; font-family: Roboto, sans-serif; font-size: 12px; font-weight: 200;" fill="rgb(50, 49, 63)" stroke="none" stroke-width="1px">22k</text></g><line x1="0" y1="0" x2="299.21875" y2="0" fill="rgb(0, 0, 0)" stroke="rgb(204, 204, 204)" stroke-width="1px"></line></g></g></g></g></svg>