<svg viewBox="0 0 330 200" xmlns="http://www.w3.org/2000/svg"><g><g><g><g><g><line x1="41.171875" y1="178" x2="36.171875" y2="178" style="visibility: inherit;" fill="rgb(0, 0, 0)" stroke="rgb(204, 204, 204)" stroke-width="1px"></line><line x1="41.171875" y1="160.20000000000002" x2="36.171875" y2="160.20000000000002" style="visibility: inherit;" fill="rgb(0, 0, 0)" stroke="rgb(204, 204, 204)" stroke-width="1px"></line><line x1="41.171875" y1="142.4" x2="36.171875" y2="142.4" style="visibility: inherit;" fill="rgb(0, 0, 0)" stroke="rgb(204, 204, 204)" stroke-width="1px"></line><line x1="41.171875" y1="124.6" x2="36.171875" y2="124.6" style="visibility: inherit;" fill="rgb(0, 0, 0)" stroke="rgb(204, 204, 204)" stroke-width="1px"></line><line x1="41.171875" y1="106.8" x2="36.171875" y2="106.8" style="visibility: inherit;" fill="rgb(0, 0, 0)" stroke="rgb(204, 204, 204)" stroke-width="1px"></line><line x1="41.171875" y1="89" x2="36.171875" y2="89" style="visibility: inherit;" fill="rgb(0, 0, 0)" stroke="rgb(204, 204, 204)" stroke-width="1px"></line><line x1="41.171875" y1="71.2" x2="36.171875" y2="71.2" style="visibility: inherit;" fill="rgb(0, 0, 0)" stroke="rgb(204, 204, 204)" stroke-width="1px"></line><line x1="41.171875" y1="53.400000000000006" x2="36.171875" y2="53.400000000000006" style="visibility: inherit;" fill="rgb(0, 0, 0)" stroke="rgb(204, 204, 204)" stroke-width="1px"></line><line x1="41.171875" y1="35.599999999999994" x2="36.171875" y2="35.599999999999994" style="visibility: inherit;" fill="rgb(0, 0, 0)" stroke="rgb(204, 204, 204)" stroke-width="1px"></line><line x1="41.171875" y1="17.799999999999997" x2="36.171875" y2="17.799999999999997" style="visibility: inherit;" fill="rgb(0, 0, 0)" stroke="rgb(204, 204, 204)" stroke-width="1px"></line><line x1="41.171875" y1="0" x2="36.171875" y2="0" style="visibility: inherit;" fill="rgb(0, 0, 0)" stroke="rgb(204, 204, 204)" stroke-width="1px"></line></g><g transform="translate(31.171875, 0)"><text x="0" y="178" dx="0em" dy="0.3em" style="text-anchor: end; visibility: hidden; font-family: Roboto, sans-serif; font-size: 12px; font-weight: 200;" fill="rgb(50, 49, 63)" stroke="none" stroke-width="1px">-10</text><text x="0" y="160.20000000000002" dx="0em" dy="0.3em" style="text-anchor: end; visibility: inherit; font-family: Roboto, sans-serif; font-size: 12px; font-weight: 200;" fill="rgb(50, 49, 63)" stroke="none" stroke-width="1px">0</text><text x="0" y="142.4" dx="0em" dy="0.3em" style="text-anchor: end; visibility: hidden; font-family: Roboto, sans-serif; font-size: 12px; font-weight: 200;" fill="rgb(50, 49, 63)" stroke="none" stroke-width="1px">10</text><text x="0" y="124.6" dx="0em" dy="0.3em" style="text-anchor: end; visibility: inherit; font-family: Roboto, sans-serif; font-size: 12px; font-weight: 200;" fill="rgb(50, 49, 63)" stroke="none" stroke-width="1px">20</text><text x="0" y="106.8" dx="0em" dy="0.3em" style="text-anchor: end; visibility: hidden; font-family: Roboto, sans-serif; font-size: 12px; font-weight: 200;" fill="rgb(50, 49, 63)" stroke="none" stroke-width="1px">30</text><text x="0" y="89" dx="0em" dy="0.3em" style="text-anchor: end; visibility: inherit; font-family: Roboto, sans-serif; font-size: 12px; font-weight: 200;" fill="rgb(50, 49, 63)" stroke="none" stroke-width="1px">40</text><text x="0" y="71.2" dx="0em" dy="0.3em" style="text-anchor: end; visibility: hidden; font-family: Roboto, sans-serif; font-size: 12px; font-weight: 200;" fill="rgb(50, 49, 63)" stroke="none" stroke-width="1px">50</text><text x="0" y="53.400000000000006" dx="0em" dy="0.3em" style="text-anchor: end; visibility: inherit; font-family: Roboto, sans-serif; font-size: 12px; font-weight: 200;" fill="rgb(50, 49, 63)" stroke="none" stroke-width="1px">60</text><text x="0" y="35.599999999999994" dx="0em" dy="0.3em" style="text-anchor: end; visibility: hidden; font-family: Roboto, sans-serif; font-size: 12px; font-weight: 200;" fill="rgb(50, 49, 63)" stroke="none" stroke-width="1px">70</text><text x="0" y="17.799999999999997" dx="0em" dy="0.3em" style="text-anchor: end; visibility: inherit; font-family: Roboto, sans-serif; font-size: 12px; font-weight: 200;" fill="rgb(50, 49, 63)" stroke="none" stroke-width="1px">80</text><text x="0" y="0" dx="0em" dy="0.3em" style="text-anchor: end; visibility: hidden; font-family: Roboto, sans-serif; font-size: 12px; font-weight: 200;" fill="rgb(50, 49, 63)" stroke="none" stroke-width="1px">90</text></g><line x1="41.171875" y1="0" x2="41.171875" y2="178" fill="rgb(0, 0, 0)" stroke="rgb(204, 204, 204)" stroke-width="1px"></line></g></g><g transform="translate(41, 0)" clip-path="url(#clip_0)"><clipPath id="clip_0"><rect width="288" height="178"></rect></clipPath><g><g><g><line x1="0" y1="0" x2="0" y2="178" fill="rgb(0, 0, 0)" stroke="rgb(60, 60, 60)" stroke-width="1px" opacity="0.25"></line><line x1="24.069010416666664" y1="0" x2="24.069010416666664" y2="178" fill="rgb(0, 0, 0)" stroke="rgb(60, 60, 60)" stroke-width="1px" opacity="0.25"></line><line x1="48.13802083333333" y1="0" x2="48.13802083333333" y2="178" fill="rgb(0, 0, 0)" stroke="rgb(60, 60, 60)" stroke-width="1px" opacity="0.25"></line><line x1="72.20703125" y1="0" x2="72.20703125" y2="178" fill="rgb(0, 0, 0)" stroke="rgb(60, 60, 60)" stroke-width="1px" opacity="0.25"></line><line x1="96.27604166666666" y1="0" x2="96.27604166666666" y2="178" fill="rgb(0, 0, 0)" stroke="rgb(60, 60, 60)" stroke-width="1px" opacity="0.25"></line><line x1="120.34505208333334" y1="0" x2="120.34505208333334" y2="178" fill="rgb(0, 0, 0)" stroke="rgb(60, 60, 60)" stroke-width="1px" opacity="0.25"></line><line x1="144.4140625" y1="0" x2="144.4140625" y2="178" fill="rgb(0, 0, 0)" stroke="rgb(60, 60, 60)" stroke-width="1px" opacity="0.25"></line><line x1="168.48307291666669" y1="0" x2="168.48307291666669" y2="178" fill="rgb(0, 0, 0)" stroke="rgb(60, 60, 60)" stroke-width="1px" opacity="0.25"></line><line x1="192.55208333333331" y1="0" x2="192.55208333333331" y2="178" fill="rgb(0, 0, 0)" stroke="rgb(60, 60, 60)" stroke-width="1px" opacity="0.25"></line><line x1="216.62109375" y1="0" x2="216.62109375" y2="178" fill="rgb(0, 0, 0)" stroke="rgb(60, 60, 60)" stroke-width="1px" opacity="0.25"></line><line x1="240.69010416666669" y1="0" x2="240.69010416666669" y2="178" fill="rgb(0, 0, 0)" stroke="rgb(60, 60, 60)" stroke-width="1px" opacity="0.25"></line><line x1="264.7591145833333" y1="0" x2="264.7591145833333" y2="178" fill="rgb(0, 0, 0)" stroke="rgb(60, 60, 60)" stroke-width="1px" opacity="0.25"></line><line x1="288.828125" y1="0" x2="288.828125" y2="178" fill="rgb(0, 0, 0)" stroke="rgb(60, 60, 60)" stroke-width="1px" opacity="0.25"></line></g><g><line x1="0" y1="178" x2="288.828125" y2="178" fill="rgb(0, 0, 0)" stroke="rgb(60, 60, 60)" stroke-width="1px" opacity="0.25"></line><line x1="0" y1="160.20000000000002" x2="288.828125" y2="160.20000000000002" fill="rgb(0, 0, 0)" stroke="rgb(60, 60, 60)" stroke-width="1px" opacity="0.25"></line><line x1="0" y1="142.4" x2="288.828125" y2="142.4" fill="rgb(0, 0, 0)" stroke="rgb(60, 60, 60)" stroke-width="1px" opacity="0.25"></line><line x1="0" y1="124.6" x2="288.828125" y2="124.6" fill="rgb(0, 0, 0)" stroke="rgb(60, 60, 60)" stroke-width="1px" opacity="0.25"></line><line x1="0" y1="106.8" x2="288.828125" y2="106.8" fill="rgb(0, 0, 0)" stroke="rgb(60, 60, 60)" stroke-width="1px" opacity="0.25"></line><line x1="0" y1="89" x2="288.828125" y2="89" fill="rgb(0, 0, 0)" stroke="rgb(60, 60, 60)" stroke-width="1px" opacity="0.25"></line><line x1="0" y1="71.2" x2="288.828125" y2="71.2" fill="rgb(0, 0, 0)" stroke="rgb(60, 60, 60)" stroke-width="1px" opacity="0.25"></line><line x1="0" y1="53.400000000000006" x2="288.828125" y2="53.400000000000006" fill="rgb(0, 0, 0)" stroke="rgb(60, 60, 60)" stroke-width="1px" opacity="0.25"></line><line x1="0" y1="35.599999999999994" x2="288.828125" y2="35.599999999999994" fill="rgb(0, 0, 0)" stroke="rgb(60, 60, 60)" stroke-width="1px" opacity="0.25"></line><line x1="0" y1="17.799999999999997" x2="288.828125" y2="17.799999999999997" fill="rgb(0, 0, 0)" stroke="rgb(60, 60, 60)" stroke-width="1px" opacity="0.25"></line><line x1="0" y1="0" x2="288.828125" y2="0" fill="rgb(0, 0, 0)" stroke="rgb(60, 60, 60)" stroke-width="1px" opacity="0.25"></line></g></g></g><g><g><line x1="0" y1="160.20000000000002" x2="288.828125" y2="160.20000000000002" fill="rgb(0, 0, 0)" stroke="rgb(153, 153, 153)" stroke-width="1.5px"></line></g></g><g><g><line x1="24.069010416666664" y1="0" x2="24.069010416666664" y2="178" fill="rgb(0, 0, 0)" stroke="rgb(153, 153, 153)" stroke-width="1.5px"></line></g></g><g><g><g><g><g><path stroke="rgb(255, 112, 67)" stroke-width="2px" d="M24.309700520833335,12.069131164550782L24.550390625000002,28.289510517120362L24.791080729166666,68.37992184930918L25.031770833333333,130.77800240642884L25.2724609375,204.30732432906117L26.475911458333332,189.67737988277074L26.7166015625,169.31566500745092L26.957291666666666,140.6413105524173L27.197981770833334,129.97972203054232L27.438671875,128.2006992032761L27.679361979166668,126.58419219474531L27.92005208333333,159.4791154198469L28.160742187500002,178.2090220304447L28.642122395833333,185.12422093124627L28.8828125,170.84785845837465L29.123502604166667,157.71131313737664L29.364192708333334,137.02879315191186L29.604882812499998,110.91766029032878L29.845572916666665,88.80248497537185L30.086263020833336,63.02752610471013L30.326953125,41.2765599805506L30.567643229166666,29.954552696263363L30.808333333333334,20.096937844527126L31.0490234375,26.613663154721294L31.289713541666668,9.414819456827937L31.53040364583333,-6.34961847360753L38.02903645833333,-9.208283728945554L38.269726562500004,2.322457008727971L38.510416666666664,2.211824424963345L38.75110677083333,21.307635395945766L38.991796875000006,-0.6108639528628612L39.95455729166667,-1.2848837348926052L40.195247395833334,8.222828303986335L40.4359375,19.073202597626228L40.67662760416667,31.2295330698062L40.917317708333336,34.3063425225478L41.158007812499996,33.82549972739585L41.39869791666667,40.08851632813673L41.63938802083333,22.375744440436712L41.880078125,20.085823373246402L42.12076822916667,4.454373845725199L42.36145833333333,20.58869260577498L42.6021484375,16.751403917957195L42.84283854166667,6.373519230657124L43.08352864583333,15.51333047149975L43.32421875,18.441367972841242L43.56490885416667,32.06701731690785L43.805598958333334,34.324575075203306L44.0462890625,35.785063404496995L44.28697916666666,46.44138572946577L44.527669270833336,41.0415573898279L44.768359375,42.57664292999049L45.00904947916666,42.087654825377115L45.24973958333334,41.30479455538252L45.4904296875,58.67352428571975L45.731119791666664,51.2482223595178L45.97180989583334,42.75946820574973L46.2125,43.20913832091077L46.453190104166666,49.40197621764412L46.69388020833333,47.30048272765679L46.9345703125,46.63104226110579L47.17526041666667,35.164055349339264L47.41595052083333,44.733384350960975L47.656640625,46.84920681907268L47.89733072916667,56.592829541883056L48.13802083333333,55.26704214651655L48.3787109375,52.81595459699195L48.61940104166667,52.13701855897643L48.86009114583333,55.366966994760865L49.100781250000004,68.15076537141707L49.341471354166664,67.53237890058463L49.58216145833333,70.65054736598555L49.8228515625,61.78661925211086L50.063541666666666,64.35691948827824L50.30423177083333,66.7714533592267L50.544921875,70.24979086929581L50.78561197916667,59.98805152353061L51.026302083333334,44.35004172954806L51.266992187499994,42.94296455188899L51.50768229166667,47.26082688787167L51.748372395833336,62.4975512474691L51.989062499999996,74.38791172992676L52.22975260416667,67.10179492003614L52.47044270833334,61.587348863642774L52.7111328125,42.57107209894737L52.951822916666664,53.260127176604755L53.19251302083334,52.18802412090426L53.433203125,54.89412605701523L53.673893229166666,54.66330186711928L53.91458333333333,61.30660572354305L54.1552734375,55.87204613676256L54.39596354166667,58.084842977467716L54.636653645833334,58.15667806431264L54.87734375,58.286133669642254L55.11803385416666,55.82453936316231L55.358723958333336,63.49582563816104L55.5994140625,72.25396416341421L55.84010416666666,69.13852330395672L56.08079427083333,71.14200002973733L56.321484375000004,63.6018676814166L56.562174479166664,68.3764685092406L56.80286458333333,65.22004547322013L57.043554687500006,54.05743158080709L57.284244791666666,63.68750643383582L57.52493489583333,70.50003782636594L57.765625,77.84227916554613L58.00631510416667,61.36627057549953L58.247005208333334,56.82741755770205L58.4876953125,56.63553485468961L58.72838541666667,54.70421910617314L58.969075520833336,59.07356329353786L59.209765624999996,66.72871082158171L59.45045572916667,64.5161050329881L59.69114583333333,59.08467138160925L59.9318359375,56.37774536436595L60.17252604166667,62.849944307242616L60.41321614583333,65.40719137682605L60.65390625,77.53725199040227L60.89459635416667,73.982145780423L61.13528645833333,67.38286171752138L61.3759765625,62.88493742846205L61.61666666666667,56.66054650248739L61.857356770833334,52.52346724475416L62.098046875,53.68825597551459L62.33873697916666,52.619375948590005L62.579427083333336,55.4956610305798L62.8201171875,57.15584998748852L63.06080729166666,56.753048932922795L63.30149739583334,71.52400715516382L63.5421875,77.68789229969009L63.782877604166664,71.3826782509078L64.02356770833333,80.07905116441188L64.2642578125,84.66545782877408L64.50494791666667,81.93654721923708L64.74563802083333,70.92187425439383L64.986328125,66.45969843569293L65.22701822916666,76.4506091615134L65.46770833333333,76.91187773445688L65.70839843750001,80.79206874882841L65.94908854166667,85.18187998220722L66.18977864583333,93.77227804425597L66.43046875,84.58642990638756L66.67115885416666,84.32506274729934L66.91184895833334,83.86143309515695L67.1525390625,85.41266051627386L67.39322916666667,83.2389081383776L67.63391927083333,75.13927530294843L67.87460937499999,66.37749963001126L68.11529947916667,59.919784354422774L68.35598958333333,59.62779901841539L68.5966796875,59.53227270328556L68.83736979166667,62.95555820204946L69.07805989583333,62.955709463466L69.31875,72.23090773374365L69.55944010416667,75.5061344839962L69.80013020833333,82.25892623483132L70.0408203125,84.06352511345737L70.28151041666668,83.26017323457835L70.52220052083334,76.67985049226067L70.762890625,74.76101872431147L71.00358072916666,77.89833382980171L71.4849609375,71.7499775928029L71.72565104166667,78.15308256398254L71.96634114583334,79.01368999249108L72.20703125,78.2045987000845L72.44772135416667,67.70391427986515L72.68841145833333,69.56562768168864L72.9291015625,73.99904103772413L73.16979166666667,80.13279968366963L73.651171875,84.35672406069007L73.89186197916668,83.8657577030156L74.13255208333332,74.93669491721951L74.3732421875,70.78735456629852L74.61393229166667,64.88017805960332L74.85462239583333,67.06073305646514L75.0953125,63.00756025624234L75.33600260416667,75.93113338274934L75.57669270833333,77.35985105015742L75.8173828125,81.9180019386882L76.05807291666666,91.64887696887699L76.29876302083333,92.31378266325979L76.53945312500001,93.78595722002619L76.78014322916665,89.80538533665437L77.02083333333333,90.89160839925826L77.2615234375,83.17102467090263L77.50221354166666,77.58304073637946L77.74290364583334,70.91313443938625L77.98359375000001,79.49930742144427L78.46497395833333,78.9514151413431L78.7056640625,76.30237850375119L78.94635416666667,70.86687616841282L79.18704427083334,76.82933236608673L79.427734375,73.8404079218493L79.66842447916666,77.6530944845549L79.90911458333333,79.59072522100638L80.14980468750001,76.59757294998664L80.39049479166667,74.94759128586114L80.63118489583333,77.58141622171198L80.871875,82.03311279455063L81.11256510416666,89.48306243991397L81.35325520833334,91.0038153692218L81.5939453125,90.06278400302723L81.83463541666667,91.90685533833978L82.07532552083333,79.78886994738863L82.31601562499999,71.69038251530819L82.55670572916667,61.764645646880226L82.79739583333334,65.22218661908516L83.0380859375,79.85988362672454L83.27877604166666,86.8765384524019L83.51946614583333,90.44098258071847L83.76015625,89.7411715796811L84.00084635416667,92.4944685117735L84.24153645833334,95.78875849964223L84.48222656249999,94.03687674285173L84.72291666666666,95.99778711748839L84.96360677083334,100.20251705809069L85.204296875,97.95191520311612L85.44498697916667,96.51215754472125L85.68567708333335,86.16895553757493L85.92636718749999,80.41876822000589L86.16705729166667,82.48375507262854L86.40774739583334,84.802458854124L86.6484375,85.81486618161502L86.88912760416667,87.5022558295745L87.12981770833333,91.33781590008844L87.3705078125,92.9340887710101L87.61119791666667,98.397309097567L87.85188802083333,101.22295273454118L88.092578125,103.67450348276573L88.57395833333332,107.23480589520142L88.8146484375,102.48208776075366L89.05533854166667,107.98078383015827L89.29602864583333,112.56175438622972L89.53671875,114.7979633830806L89.77740885416667,118.48967527716283L90.01809895833333,118.95136601834848L90.2587890625,116.75339796489092L90.49947916666667,117.06887311426169L90.74016927083333,117.87708818130116L90.980859375,114.50151456649553L91.22154947916667,115.8500439327684L91.46223958333333,113.16466080485147L91.7029296875,111.39957945715405L91.94361979166668,119.75422670871625L92.18430989583332,123.1325771018899L92.425,120.63040591079215L92.66569010416667,120.20969215487372L92.90638020833333,116.71783148249942L93.1470703125,115.53593607211684L93.38776041666667,122.84110514607772L93.869140625,125.71680304125992L94.35052083333333,119.37369873759773L94.59121093750001,118.33944141052739L94.83190104166665,112.32888698376762L95.07259114583333,115.55130530427424L95.31328125,117.20439869159776L95.55397135416666,117.30802423998306L95.79466145833334,114.89832968070858L96.03535156250001,114.34509592243883L96.27604166666666,113.28086530797988L96.51673177083333,110.92896558066195L96.757421875,117.4268058010339L96.99811197916667,119.67767362954612L97.23880208333334,109.9922269194269L97.4794921875,113.44722018485926L97.72018229166666,116.96253599885502L98.20156250000001,115.3436160359585L98.44225260416667,110.82881711303017L98.68294270833333,110.70498062121165L98.9236328125,111.28281259147701L99.16432291666666,110.47420116572604L99.645703125,111.27566391842977L99.88639322916667,114.3853185018147L100.12708333333333,111.81684269715815L100.36777343749999,104.18915047913474L100.60846354166667,101.07574425476598L100.84915364583334,106.60456662427072L101.08984375,104.41918815571478L101.33053385416666,99.37883717321401L101.57122395833333,99.57171258224872L101.8119140625,94.92041878470079L102.05260416666667,92.1019549451369L102.29329427083334,86.38641603959191L102.53398437499999,88.56454627902858L102.77467447916666,95.33506375069354L103.01536458333334,101.52955680510362L103.2560546875,102.09981147564031L103.49674479166667,109.98053968689784L103.73743489583335,114.13211304248541L103.97812499999999,115.043577304251L104.21881510416667,120.2458460132879L104.45950520833334,115.47240775445711L104.7001953125,113.4892256127573L104.94088541666667,113.46038635032039L105.18157552083333,110.55314675770201L105.422265625,115.21455817486047L105.66295572916667,118.68795766797781L105.90364583333333,111.15765204219292L106.1443359375,102.17994614474935L106.38502604166668,97.84863315315819L106.62571614583332,98.55537727959023L106.86640625,102.50460245112816L107.10709635416667,99.97059960544253L107.34778645833333,96.08648577034559L107.5884765625,97.1527656992679L107.82916666666667,102.24507317688496L108.06985677083333,104.9571023015167L108.310546875,105.83537994170105L108.55123697916667,107.0353710009093L108.79192708333333,110.49096130904167L109.0326171875,112.2024420045412L109.27330729166667,107.559243034756L109.51399739583333,111.44944810356844L109.7546875,108.48695484236566L109.99537760416668,107.40508101699167L110.23606770833332,105.9218085131491L110.4767578125,104.59147454270392L110.71744791666667,104.85100879483623L110.95813802083333,105.88713756449938L111.198828125,108.67326288537932L111.43951822916667,109.48764628408404L111.68020833333333,111.23715899847778L111.9208984375,109.5189660839011L112.16158854166666,114.15319855903206L112.40227864583333,115.10538938078058L112.64296875000001,114.6915900127457L112.88365885416665,121.17095858528414L113.3650390625,126.16272239848493L113.60572916666666,125.03910659888099L113.84641927083334,127.64841867124264L114.08710937500001,124.40869307896631L114.32779947916666,122.20658172262394L114.56848958333333,122.98432482703139L114.8091796875,121.33467845334775L115.04986979166667,121.82864947923521L115.29055989583334,120.23748409061729L115.53125,119.60028056972682L115.77194010416666,119.87657285233412L116.01263020833333,120.55222685349032L116.25332031250001,118.80406804568796L116.49401041666667,118.01567321877019L116.73470052083333,118.5369875189086L116.975390625,115.73751389196039L117.21608072916666,114.03138882834031L117.45677083333334,108.87456715320536L117.6974609375,107.56024056658141L117.93815104166667,108.68251818028088L118.17884114583333,107.61114469723103L118.41953124999999,111.73720287058472L118.66022135416667,111.62269414361546L118.90091145833334,110.71273411617415L119.38229166666666,110.89849981418692L119.62298177083333,110.5644133040395L119.863671875,111.89368692285339L120.10436197916667,111.655638804713L120.34505208333334,113.7528827335114L120.58574218749999,109.91868700705021L120.82643229166666,108.8171748659733L121.06712239583334,105.35491463027734L121.3078125,107.53576902963124L121.54850260416667,108.54956151543499L121.78919270833335,108.44990023933913L122.02988281249999,107.184595920581L122.27057291666667,110.87533048936032L122.51126302083334,110.40362965958298L122.751953125,109.10092251620878L122.99264322916667,110.3586267061364L123.23333333333333,109.79041583081074L123.4740234375,105.79436729633801L123.71471354166667,106.13104914977546L123.95540364583333,108.87054555126664L124.19609375,111.68227876203439L124.43678385416668,112.08122104750383L124.9181640625,116.83787963167613L125.15885416666667,118.02949123725764L125.39954427083333,119.64994791618271L125.640234375,122.79161050386001L125.88092447916667,117.79159108869297L126.12161458333333,115.42336455006637L126.3623046875,115.64212624346754L126.60299479166667,116.44122140953269L126.84368489583333,119.58930146449403L127.084375,121.21803879495619L127.32506510416667,119.66087527892684L127.56575520833333,123.67079225719986L127.8064453125,122.45421864045272L128.28782552083334,123.50778090961344L128.528515625,125.67436295799949L128.76920572916669,124.73883089430652L129.00989583333333,123.84142448262884L129.2505859375,124.43091059778043L129.49127604166665,124.58623585756962L129.73196614583333,127.84083090052812L129.97265625,130.9902574056733L130.21334635416665,128.76387516178778L130.45403645833332,127.65536275576407L130.6947265625,127.87124884242328L130.93541666666667,128.75844840213364L131.17610677083334,128.54627993300383L131.41679687500002,125.74905761739507L131.65748697916666,125.6860315858179L131.89817708333334,129.79975986640773L132.1388671875,130.70825743962004L132.37955729166666,130.92922085171148L132.62024739583333,130.24449164798975L132.8609375,125.13962931496573L133.10162760416665,121.59298898424312L133.34231770833333,118.68754220036034L133.5830078125,117.30409970681286L133.82369791666667,120.17241090440999L134.06438802083335,123.1951991671577L134.305078125,121.61814133562176L134.54576822916667,120.83337531040625L134.78645833333334,113.71895414132187L135.02714843750002,113.02995759831852L135.26783854166666,114.64547883145205L135.50852864583334,114.28228491850014L135.74921874999998,113.191649530812L135.98990885416666,112.6826388578915L136.23059895833333,114.47952337821145L136.4712890625,114.38836797284972L136.71197916666665,118.90520367555554L136.95266927083333,117.45262261732063L137.193359375,116.22693041243339L137.43404947916667,116.29079310463777L137.67473958333335,113.22735968236275L137.9154296875,114.13347806527699L138.15611979166667,113.83954469439082L138.39680989583334,117.4941976570886L138.6375,120.48253014515647L138.87819010416666,117.42645285577065L139.11888020833334,120.22652379781299L139.35957031249998,118.2926158167737L139.60026041666666,115.74644803010328L139.84095052083333,114.54261088349165L140.081640625,113.03897290216531L140.32233072916668,110.85246101180698L140.56302083333335,109.45358277773849L140.8037109375,110.40581540760991L141.04440104166667,111.82168399249073L141.28509114583335,117.88089516111944L141.52578125,120.02371357982598L141.76647135416667,115.83071830597663L142.00716145833331,116.20240592865434L142.2478515625,109.40738499396018L142.48854166666666,104.86998321195229L142.72923177083334,98.22374160563817L142.969921875,100.61050756714269L143.45130208333333,106.1359709678979L143.6919921875,109.59197781389304L143.93268229166668,114.07276058665126L144.17337239583333,116.25426731390483L144.4140625,116.80190737320616L144.65475260416667,113.17054141183874L145.1361328125,111.66735509002315L145.37682291666667,109.03400109722679L145.61751302083334,112.299735588756L145.858203125,111.52323295481611L146.09889322916666,111.27449294976952L146.33958333333334,112.91328713949063L146.58027343749998,107.89165206274711L146.82096354166666,109.09501206589533L147.06165364583333,105.54296521683214L147.30234375,103.19894160568522L147.54303385416668,105.08874325930957L147.78372395833335,105.478447035908L148.0244140625,107.2533235316034L148.26510416666665,100.6762055447433L148.50579427083332,99.56568801800809L148.746484375,99.92009896803141L148.98717447916667,99.15938137178563L149.22786458333334,99.29685904768074L149.4685546875,100.60768308607913L149.70924479166666,103.38088359432328L149.94993489583334,99.25770438144747L150.190625,100.21191562813605L150.43131510416669,96.78817723943045L150.67200520833333,89.94398614712506L151.634765625,88.53142989628284L151.87545572916667,94.26478994460564L152.11614583333332,93.17700702340403L152.3568359375,88.47233305925727L152.59752604166667,89.08078722569108L152.83821614583334,86.79197141988729L153.07890625000002,84.08878542151245L153.3195963541667,84.94281373337621L153.5602864583333,86.11441413113901L153.80097656249998,87.66717118376152L154.04166666666666,92.06115845366513L154.28235677083333,94.30365085222837L154.523046875,100.06125990830967L154.76373697916668,99.52488369156782L155.00442708333333,100.8208545923821L155.2451171875,98.42374618438434L155.48580729166667,98.8730454401228L155.72649739583335,103.42969643521626L155.96718750000002,108.2605947165985L156.20787760416667,109.9871057008087L156.44856770833331,106.89791063728211L156.6892578125,106.68909013236929L156.92994791666666,106.77124811628678L157.17063802083334,112.95528509413734L157.411328125,114.03092105648238L157.65201822916666,111.4459866854031L157.89270833333333,114.92208111646647L158.1333984375,116.20999976851269L158.37408854166668,114.42278416286543L158.61477864583335,115.32615810758253L158.85546875,111.75698163823117L159.09615885416665,106.43952455422776L159.33684895833332,107.49375928820074L159.5775390625,109.47868565714894L159.81822916666667,105.24441952417217L160.05891927083334,104.09609547060683L160.29960937500002,102.9609711556551L160.54029947916666,106.44258040457468L160.78098958333334,106.77544460504953L161.0216796875,108.89670946627679L161.26236979166666,107.26998130720747L161.50305989583333,107.82594056655105L161.74375,107.88785535555563L161.98444010416665,106.7186438316195L162.22513020833333,107.81852901137404L162.4658203125,111.4005271968635L162.70651041666667,112.4542571903105L162.94720052083335,112.2157452931902L163.187890625,111.64658542054302L163.42858072916667,113.14756848560218L163.66927083333334,114.0257358545449L163.9099609375,113.95333937039298L164.15065104166666,115.89068654459905L164.39134114583334,109.30047454882975L164.63203124999998,107.1477662356455L164.87272135416666,112.59883100603574L165.11341145833333,116.2679667707357L165.3541015625,119.54686346698243L165.59479166666668,121.46639060216214L165.83548177083335,122.46977445529141L166.076171875,117.84681651643656L166.55755208333332,112.18786697895374L166.7982421875,111.840980838007L167.03893229166667,112.69770530883449L167.27962239583334,115.65630528368936L167.5203125,111.34269790410033L167.76100260416666,109.59272726296801L168.00169270833334,110.29267397069584L168.2423828125,111.25019324960499L168.48307291666669,109.69647955144757L168.72376302083333,110.89272104385684L168.96445312499998,113.26403585507386L169.20514322916665,112.37307326170153L169.44583333333333,110.62817121226995L169.6865234375,107.23579017853383L169.92721354166667,106.15886885199336L170.16790364583332,101.6980442726218L170.64928385416667,107.46214080307504L170.88997395833334,112.8177955444671L171.13066406250002,117.92139406252011L171.3713541666667,120.57485201673569L171.6120442708333,119.69898840425527L171.85273437499998,119.63175314997505L172.09342447916666,113.43936576327603L172.33411458333333,114.01331071162775L172.5748046875,111.69756415524812L172.81549479166668,111.3572735242768L173.05618489583333,108.12302233294989L173.296875,103.05722254893985L173.53756510416667,102.78867163361195L173.77825520833335,103.87818691266229L174.01894531250002,102.07219416053684L174.25963541666667,102.11298672337288L174.50032552083331,96.17586375033233L174.741015625,96.1940310675822L174.98170572916666,95.87821334880127L175.22239583333334,96.85175238061866L175.4630859375,99.16263007217L175.70377604166666,105.65197771676392L175.94446614583333,106.23892857341771L176.18515625,103.07069930713656L176.42584635416668,101.3522921428757L176.66653645833335,105.14169323311313L176.9072265625,103.9738561498288L177.14791666666665,105.01019798249982L177.38860677083332,111.69124954206336L177.629296875,110.4136857146179L177.86998697916667,109.18815697015258L178.11067708333334,104.70814055049976L178.35136718750002,103.81321398117875L178.59205729166666,104.78941285525998L178.83274739583334,103.0634218220427L179.0734375,105.03992095211234L179.31412760416666,104.84598499619416L179.55481770833333,109.44705663492354L179.7955078125,114.21920880395218L180.03619791666665,116.97353159950995L180.27688802083333,119.17656697301165L180.517578125,119.62654372994955L180.75826822916667,117.5655245045713L180.99895833333335,117.01092082762071L181.2396484375,115.69568884911148L181.48033854166667,114.38418528212314L181.96171875,109.69523828109027L182.20240885416666,106.28532726430849L182.44309895833334,107.34390207757922L182.68378906249998,105.95383251852019L182.92447916666666,103.6611093560828L183.16516927083333,99.22418020105204L183.405859375,97.94777780446911L183.64654947916668,103.04189159723225L183.88723958333335,102.39132843978467L184.1279296875,106.1530138302282L184.36861979166665,107.58027552225803L184.60930989583332,105.81308810388215L184.85,110.02701430031757L185.09069010416667,107.86729203050793L185.33138020833334,107.74117935648835L185.5720703125,107.35169766516255L185.81276041666666,105.48609391648036L186.05345052083334,105.3603115012554L186.294140625,102.74907538952276L186.53483072916669,100.33769743097926L186.77552083333333,102.63375142367546L187.01621093749998,105.03058428926387L187.25690104166665,103.62062425519895L187.49759114583333,102.9985904649846L187.73828125,101.46388596844389L187.97897135416667,105.75977838892764L188.21966145833332,108.22542420803921L188.4603515625,110.09453299772392L188.70104166666667,114.80913425786288L188.94173177083334,113.65354661001558L189.18242187500002,116.22928586395855L189.4231119791667,112.83480027814076L189.6638020833333,112.79486309229951L189.90449218749998,108.8512028590418L190.14518229166666,109.84437103793485L190.38587239583333,109.71658607796111L190.6265625,108.96395048710869L190.86725260416668,112.26066844900349L191.10794270833333,115.18326767706812L191.3486328125,117.89160263504948L191.58932291666667,118.67643388632752L191.83001302083335,115.64871705176722L192.07070312500002,114.33594135166581L192.31139322916667,111.72020838094578L192.55208333333331,113.65142123218074L192.7927734375,116.11897694585141L193.03346354166666,118.11705917166125L193.27415364583334,118.55267809943231L193.51484375,111.99657286307736L193.75553385416666,114.05079973591282L193.99622395833333,111.720008680659L194.2369140625,110.53721944179387L194.47760416666668,114.17090370181947L194.71829427083335,114.98447074892371L194.958984375,115.8337606353894L195.19967447916665,111.43180052491039L195.44036458333332,108.83332506592279L195.6810546875,111.7079379716826L195.92174479166667,112.83224633403495L196.16243489583334,114.10446059338973L196.40312500000002,111.34065896101428L196.64381510416666,112.62394096987029L196.88450520833334,110.70176881776202L197.1251953125,112.39763886634081L197.36588541666666,109.98775916208965L197.60657552083333,108.74143491619908L197.847265625,110.18174263306908L198.08795572916665,110.47196716492446L198.32864583333333,113.96716561999959L198.5693359375,111.904993219656L198.81002604166667,108.99468778054847L199.05071614583335,112.5146343541201L199.29140625,113.8527113375697L199.53209635416667,112.55628143511018L199.77278645833334,115.37719938779952L200.0134765625,116.92699788585355L200.25416666666666,112.41679272565275L200.49485677083334,110.29155161805765L200.73554687499998,110.2768441941012L200.97623697916666,107.30062018833574L201.21692708333333,105.58072318722019L201.4576171875,108.46574647336726L201.69830729166668,111.70949834483581L201.93899739583335,112.75206729303429L202.1796875,110.10147270614283L202.42037760416665,107.07206895693767L202.66106770833332,108.7523673507251L202.9017578125,106.83166877774464L203.14244791666667,105.33492735307254L203.38313802083334,104.21899980783965L203.623828125,105.68632056951823L203.86451822916666,102.12051823282424L204.10520833333334,105.13209109106171L204.3458984375,101.23496266244953L204.58658854166669,101.1526867649502L204.82727864583333,99.72724618372598L205.06796874999998,103.72977175198363L205.30865885416665,107.0302894885681L205.54934895833333,109.67025477834594L205.7900390625,109.32234076373608L206.03072916666667,106.89911438866157L206.27141927083332,102.88461694862664L206.512109375,104.55911941234002L206.75279947916667,106.19105116095383L206.99348958333334,110.88761021927736L207.23417968750002,106.90516397092188L207.4748697916667,110.34779821165469L207.7155598958333,109.1243414941315L207.95624999999998,109.26215131371522L208.19694010416666,107.13990756374183L208.43763020833333,104.41662154019822L208.6783203125,107.9398316277322L208.91901041666668,108.52500043232781L209.15970052083333,107.61098469543184L209.400390625,109.9990809295638L209.64108072916667,108.51222370422266L209.88177083333335,108.72654303906191L210.12246093750002,112.49333013557091L210.36315104166667,112.69854074491678L210.60384114583331,116.03434493645203L210.84453125,116.07030123677355L211.08522135416666,117.53886107043328L211.5666015625,115.47671063945234L211.80729166666666,118.03464921692336L212.04798177083333,118.33676182019309L212.288671875,117.51018206159829L212.52936197916668,117.82762489247654L212.77005208333335,118.43926798968516L213.0107421875,119.94533053868413L213.25143229166665,118.72103342147709L213.49212239583332,117.22134930093313L213.7328125,116.68537739061846L213.97350260416667,116.52790157475195L214.21419270833334,117.3208942193873L214.45488281250002,117.51614207667635L214.69557291666666,115.65446265079095L214.93626302083334,117.19756308852145L215.176953125,116.72590226351326L215.41764322916666,115.96435965644781L215.65833333333333,117.37921126811183L215.8990234375,114.10232119446084L216.13971354166665,109.88818344238454L216.38040364583333,113.61336178662212L216.62109375,113.57837397504943L216.86178385416667,114.31336523585973L217.10247395833335,112.58800797208227L217.3431640625,112.2214207805638L217.58385416666667,110.3569552668002L217.82454427083334,109.4250474886934L218.065234375,109.18069333391428L218.30592447916666,106.46439189146184L218.54661458333334,104.05169186705486L218.78730468749998,107.14237518187844L219.02799479166666,107.9412111656456L219.509375,108.2752426905983L219.75006510416668,108.5450543362828L219.99075520833335,108.75815000289275L220.2314453125,109.07658142324442L220.47213541666665,106.50363864276501L220.71282552083332,103.19558269127425L220.953515625,99.76978458180557L221.19420572916667,99.25142436846811L221.43489583333334,99.21488556590509L221.6755859375,102.92855313519733L221.91627604166666,105.81713894593774L222.15696614583334,106.90172954981362L222.39765625,107.73083292642139L222.63834635416669,106.2397921905452L222.87903645833333,108.81653305968844L223.11972656249998,114.01965244079355L223.36041666666665,113.51434221520856L223.60110677083333,111.76914585646887L223.841796875,111.67535580001415L224.08248697916667,109.72814682961786L224.32317708333332,109.08024384117891L224.5638671875,113.50842198524936L224.80455729166667,115.41661447044648L225.04524739583334,116.72814150331283L225.28593750000002,116.20646194361366L225.5266276041667,116.09349371279907L225.7673177083333,113.82846008876342L226.00800781249998,116.08667961465942L226.24869791666666,116.13424592797534L226.48938802083333,118.19015264406548L226.730078125,120.70368686231821L226.97076822916668,119.40126871223956L227.21145833333333,118.26872710869138L227.4521484375,115.44163578608884L227.69283854166667,115.40282809030565L227.93352864583335,118.1174410100672L228.17421875000002,116.78674826692898L228.41490885416667,118.35670279926872L228.65559895833331,118.02094509569893L228.8962890625,115.85573920707756L229.13697916666666,114.55322059333834L229.37766927083334,113.47238282597371L229.618359375,114.6792387318391L229.85904947916666,113.02134066341988L230.09973958333333,110.20210725449724L230.3404296875,109.93917908658506L230.58111979166668,108.71558417314245L231.0625,108.07604947849484L231.30319010416665,109.88140056112033L231.54388020833332,109.15539722143782L231.7845703125,109.29922546970353L232.02526041666667,111.36017596785726L232.50664062500002,113.29771089687648L232.74733072916666,113.09651490482509L232.98802083333334,109.18148514528762L233.2287109375,111.25637949049289L233.46940104166666,112.18824078023324L233.71009114583333,111.23517644751007L233.95078125,113.60840184323749L234.19147135416665,111.79676554747081L234.43216145833333,113.9486458152989L234.6728515625,116.06895586076138L234.91354166666667,115.81225426902029L235.15423177083335,117.3331202616075L235.394921875,118.98628890501136L235.63561197916667,122.10616683665918L235.87630208333334,121.08352395453456L236.1169921875,120.09065068863872L236.35768229166666,117.9320584277096L236.59837239583334,116.94445391343729L236.83906249999998,119.43797190860924L237.07975260416666,120.98141148684034L237.32044270833333,124.7170279834128L237.5611328125,121.82346753772833L237.80182291666668,120.14756950579128L238.04251302083335,121.77147169615056L238.283203125,117.63586095348136L238.52389322916665,119.13323152265035L238.76458333333332,119.65049767518688L239.0052734375,119.92494827857404L239.24596354166667,119.14260165757412L239.48665364583334,117.60667258206888L239.72734375,118.69099799504212L239.96803385416666,121.73187255495984L240.20872395833334,121.66781854030012L240.4494140625,120.53989934561564L240.69010416666669,119.75591353009887L240.93079427083333,119.84547946876731L241.17148437499998,116.78921523252993L241.41217447916665,117.07422054576796L241.65286458333333,119.68880037860825L241.8935546875,119.73248216197939L242.13424479166667,119.73291306427748L242.37493489583332,118.5917224326827L242.615625,117.82508475965844L242.85631510416667,113.7423502027189L243.09700520833334,114.25182638139697L243.33769531250002,115.3613286474417L243.5783854166667,115.08697022313298L243.8190755208333,114.60213931771766L244.05976562499998,116.94669243462475L244.54114583333333,120.66441218929049L244.7818359375,118.51741357944344L245.02252604166668,118.96919591988284L245.26321614583333,118.04039224675394L245.50390625,118.39267521316468L245.74459635416667,120.38713994845543L245.98528645833335,123.3760981170225L246.22597656250002,123.84410282468127L246.46666666666667,122.69143337449626L246.70735677083331,124.51729752469775L246.948046875,122.97244827800225L247.18873697916666,122.13489317639606L247.42942708333334,124.16562528266871L247.6701171875,125.23312062248209L248.15149739583333,123.80547869673143L248.3921875,120.54339476198419L248.63287760416668,119.76279784351863L248.87356770833335,117.67490206426547L249.1142578125,121.71742829910616L249.35494791666665,121.96222403878987L249.59563802083332,121.80091643926512L249.836328125,124.26801659939892L250.07701822916667,122.13562306999091L250.31770833333334,119.4191335465844L250.55839843750002,118.30983605446433L250.79908854166666,120.65536673582798L251.03977864583334,116.7719287512136L251.28046875,117.5426351407428L251.52115885416666,117.31503057785388L251.76184895833333,113.78952829544279L252.24322916666665,115.93152758517584L252.48391927083333,118.64068370198443L252.724609375,118.43970415124437L253.20598958333335,118.38747297292436L253.4466796875,120.79021419146945L253.68736979166667,121.41924910509162L253.92805989583334,119.91298157670244L254.16875,121.92307611643162L254.40944010416666,120.23707420074275L254.65013020833334,120.34957200457652L254.89082031249998,120.09109813743828L255.13151041666666,119.2456567767501L255.37220052083333,118.29624654407739L255.612890625,114.90098620769643L255.85358072916668,115.85573524878778L256.0942708333333,115.15201265195822L256.3349609375,115.47270827782044L256.5756510416667,117.61196941859656L256.81634114583335,117.98411944107492L257.05703125,119.16901034567523L257.2977213541667,116.19968706067662L257.53841145833337,114.78882094917454L257.7791015625,117.74792992912386L258.01979166666666,116.80153070832881L258.26048177083334,117.11901275483129L258.501171875,118.72949714569663L258.7418619791667,117.4512714990879L258.9825520833333,115.44939592557577L259.2232421875,113.6019463779773L259.46393229166665,114.76844951929125L259.7046223958333,113.31986701382085L259.9453125,114.15007348282865L260.1860026041667,115.82507623996574L260.4266927083333,114.18215270809078L260.66738281249997,115.65193270761814L260.90807291666664,112.74953526544003L261.1487630208333,113.21036062459605L261.389453125,112.35587845361503L261.63014322916666,112.71627757570904L261.87083333333334,114.33388544190983L262.1115234375,113.91697443836364L262.3522135416667,117.39070837517639L262.59290364583336,117.30242717659509L262.83359375000003,114.11472624919436L263.0742838541667,112.98727782715335L263.3149739583333,115.53188738720998L263.5556640625,116.15377723823417L264.03704427083335,116.35318080216902L264.277734375,116.92213333481705L264.5184244791667,116.9378351461539L264.7591145833333,118.77314142582712L264.9998046875,118.81245263503727L265.24049479166666,115.26168088583194L265.48118489583334,116.54298997681165L265.721875,117.9743267619659L265.96256510416663,118.22448323369322L266.2032552083333,117.98243716311632L266.68463541666665,117.4546708549987L266.9253255208333,117.12715224444452L267.166015625,116.03137115013352L267.4067057291667,114.0993430758223L267.64739583333335,115.17822037796408L267.8880859375,115.53635651266713L268.1287760416667,115.18568295667254L268.3694661458333,116.44482450789023L268.61015625,117.91712502089624L268.85084635416666,119.0724105411022L269.09153645833334,116.75249538166815L269.3322265625,116.36686310424503L269.5729166666667,111.91606946166812L269.81360677083336,109.15438375768936L270.05429687500003,107.94006368051693L270.29498697916665,109.43466816741659L270.5356770833333,107.74754639910718L270.7763671875,105.0955512769643L271.0170572916667,101.05976582477233L271.25774739583335,101.36433239525401L271.49843749999997,100.70818867055085L271.73912760416664,100.88106804852193L271.9798177083333,100.42382243922057L272.2205078125,100.83880408364955" style="fill: none;" fill="none"></path></g></g></g></g><g opacity="0.2"><g><g><g><path stroke="rgb(255, 112, 67)" stroke-width="2px" d="M24.309700520833335,12.069131164550782L24.550390625000002,38.02173812866211L24.791080729166666,106.86671672821045L25.031770833333333,204.15814514160155L25.753841145833334,228.3829209136963L25.994531249999998,163.10796586513518L26.23522135416667,145.55246131896973L26.475911458333332,199.33933753967284L26.7166015625,138.95777194976807L26.957291666666666,97.78582344055175L27.197981770833334,114.02215118408203L27.438671875,125.5356502532959L27.679361979166668,124.16133182525635L27.92005208333333,208.7983002090454L28.642122395833333,194.28141780853272L28.8828125,149.43461966514587L29.123502604166667,138.00721559524536L29.364192708333334,106.00569374084472L29.604882812499998,71.75147651672363L29.845572916666665,55.62998397827148L30.086263020833336,24.36527099609376L30.326953125,8.650203552246099L30.567643229166666,12.9715707397461L30.808333333333334,5.310530700683603L31.0490234375,36.3887451171875L31.289713541666668,-16.383436584472665L33.937304687499996,-40.36340667724611L34.41868489583334,8.2680532836914L34.659375,-5.900269775390626L34.900065104166664,-9.909262390136718L35.14075520833334,12.236155548095711L35.3814453125,-45.21007431030273L35.622135416666666,7.696172332763664L35.86282552083333,-39.51216491699219L36.103515625,-43.72380310058594L36.34420572916667,1.9005661010742188L36.584895833333334,-7.733300933837878L37.54765625,-27.662627563476583L37.78834635416666,24.131146240234372L38.02903645833333,-16.059138488769516L38.269726562500004,19.618568115234385L38.510416666666664,2.0458755493164062L38.75110677083333,49.95135185241699L38.991796875000006,-33.48861297607422L39.7138671875,-1.3851385498046764L39.95455729166667,8.204483795166011L40.195247395833334,22.484396362304697L40.4359375,35.34876403808593L40.67662760416667,49.46402877807617L40.917317708333336,38.92155670166015L41.158007812499996,33.104235534667964L41.39869791666667,49.483041229248045L41.63938802083333,-4.193413391113262L41.880078125,16.65094177246094L42.12076822916667,-18.99280044555664L42.36145833333333,44.79017074584961L42.6021484375,10.995470886230462L42.84283854166667,-9.193307800292951L43.08352864583333,29.22304733276367L43.32421875,22.833424224853516L43.56490885416667,52.50549133300781L43.805598958333334,37.71091171264648L44.0462890625,37.9757958984375L44.28697916666666,62.42586921691894L44.527669270833336,32.9418148803711L44.768359375,44.879271240234374L45.00904947916666,41.354172668457025L45.24973958333334,40.13050415039062L45.4904296875,84.72661888122559L45.731119791666664,40.110269470214845L45.97180989583334,30.026336975097646L46.2125,43.88364349365234L46.453190104166666,58.691233062744146L46.69388020833333,44.14824249267578L46.9345703125,45.62688156127929L47.17526041666667,17.963574981689444L47.41595052083333,59.08737785339355L47.656640625,50.02294052124023L47.89733072916667,71.20826362609863L48.13802083333333,53.278361053466796L48.3787109375,49.139323272705084L48.61940104166667,51.11861450195312L48.86009114583333,60.211889648437506L49.100781250000004,87.32646293640137L49.341471354166664,66.60479919433594L49.58216145833333,75.32780006408692L49.8228515625,48.49072708129883L50.063541666666666,68.2123698425293L50.30423177083333,70.39325416564941L50.544921875,75.46729713439942L50.78561197916667,44.59544250488281L51.026302083333334,20.893027038574218L51.266992187499994,40.832348785400384L51.50768229166667,53.73762039184571L51.748372395833336,85.35263778686523L51.989062499999996,92.22345245361328L52.22975260416667,56.17261970520019L52.47044270833334,53.31567977905273L52.7111328125,14.046656951904296L52.951822916666664,69.29370979309083L53.19251302083334,50.57986953735352L53.433203125,58.95327896118164L53.673893229166666,54.31706558227539L53.91458333333333,71.2715615081787L54.1552734375,47.72020675659179L54.39596354166667,61.40403823852539L54.636653645833334,58.264430694580085L54.87734375,58.48031707763671L55.11803385416666,52.13214790344239L55.358723958333336,75.00275505065918L55.5994140625,85.39117195129394L55.84010416666666,64.4653620147705L56.08079427083333,74.1472151184082L56.321484375000004,52.29166915893555L56.562174479166664,75.53836975097656L56.80286458333333,60.48541091918945L57.043554687500006,37.3135107421875L57.284244791666666,78.1326187133789L57.52493489583333,80.71883491516114L57.765625,88.8556411743164L58.00631510416667,36.65225769042969L58.247005208333334,50.019138031005866L58.4876953125,56.3477108001709L58.72838541666667,51.80724548339843L58.969075520833336,65.62757957458496L59.209765624999996,78.21143211364746L59.45045572916667,61.197196350097656L59.69114583333333,50.93752090454102L59.9318359375,52.31735633850097L60.17252604166667,72.55824272155762L60.41321614583333,69.24306198120117L60.65390625,95.7323429107666L60.89459635416667,68.6494864654541L61.13528645833333,57.48393562316895L61.3759765625,56.13805099487304L61.61666666666667,47.32396011352539L61.857356770833334,46.31784835815429L62.098046875,55.43543907165527L62.33873697916666,51.01605590820313L62.579427083333336,59.81008865356445L62.8201171875,59.64613342285156L63.06080729166666,56.148847351074224L63.30149739583334,93.68044448852538L63.5421875,86.9337200164795L63.782877604166664,61.92485717773438L64.02356770833333,93.12361053466796L64.2642578125,91.54506782531737L64.50494791666667,77.84318130493165L64.74563802083333,54.39986480712891L64.986328125,59.76643470764161L65.22701822916666,91.43697525024413L65.46770833333333,77.60378059387207L65.70839843750001,86.61235527038575L65.94908854166667,91.76659683227538L66.18977864583333,106.6578751373291L66.43046875,70.80765769958496L66.67115885416666,83.93301200866699L66.91184895833334,83.16598861694337L67.1525390625,87.73950164794923L67.39322916666667,79.9782795715332L67.63391927083333,62.98982604980469L67.87460937499999,53.234836120605465L68.11529947916667,50.23321144104004L68.35598958333333,59.1898210144043L68.5966796875,59.388983230590824L68.83736979166667,68.09048645019531L69.07805989583333,62.95593635559082L69.31875,86.14370513916016L69.55944010416667,80.418974609375L69.80013020833333,92.38811386108398L70.0408203125,86.77042343139648L70.28151041666668,82.05514541625976L70.52220052083334,66.80936637878418L70.762890625,71.8827710723877L71.00358072916666,82.60430648803711L71.4849609375,62.52744323730468L71.72565104166667,87.75774002075195L71.96634114583334,80.3046011352539L72.20703125,76.99096176147461L72.44772135416667,51.95288764953614L72.68841145833333,72.35819778442382L72.9291015625,80.64916107177734L73.16979166666667,89.33343765258789L73.651171875,90.6926106262207L73.89186197916668,83.1293081665039L74.13255208333332,61.543100738525396L74.3732421875,64.563344039917L74.61393229166667,56.01941329956054L74.85462239583333,70.33156555175782L75.0953125,56.927801055908205L75.33600260416667,95.31649307250976L75.57669270833333,79.50292755126954L75.8173828125,88.75522827148437L76.05807291666666,106.24518951416016L76.29876302083333,93.31114120483399L76.53945312500001,95.99421905517579L76.78014322916665,83.83452751159668L77.02083333333333,92.52094299316406L77.2615234375,71.59014907836914L77.50221354166666,69.20106483459473L77.74290364583334,60.908274993896484L77.98359375000001,92.37856689453125L78.46497395833333,78.12957672119141L78.7056640625,72.32882354736329L78.94635416666667,62.71362266540527L79.18704427083334,85.77301666259766L79.427734375,69.35702125549317L79.66842447916666,83.37212432861328L79.90911458333333,82.4971713256836L80.14980468750001,72.10784454345703L80.39049479166667,72.47261878967285L80.63118489583333,81.53215362548828L80.871875,88.7106576538086L81.11256510416666,100.65798690795899L81.35325520833334,93.2849447631836L81.5939453125,88.65123695373535L81.83463541666667,94.67296234130859L82.07532552083333,61.61189186096192L82.31601562499999,59.5426513671875L82.55670572916667,46.87604034423828L82.79739583333334,70.40849807739258L83.0380859375,101.8164291381836L83.27877604166666,97.40152069091798L83.51946614583333,95.78764877319335L83.76015625,88.691455078125L84.00084635416667,96.6244139099121L84.24153645833334,100.73019348144531L84.48222656249999,91.40905410766601L84.72291666666666,98.93915267944337L84.96360677083334,106.50961196899414L85.204296875,94.5760124206543L85.44498697916667,94.35252105712891L85.68567708333335,70.65415252685547L85.92636718749999,71.79348724365235L86.16705729166667,85.5812353515625L86.40774739583334,88.28051452636718L86.6484375,87.33347717285156L86.88912760416667,90.03334030151368L87.12981770833333,97.09115600585938L87.3705078125,95.32849807739258L87.61119791666667,106.59213958740234L87.85188802083333,105.46141819000243L88.092578125,107.35182960510254L88.57395833333332,112.57525951385497L88.8146484375,95.35301055908204L89.05533854166667,116.22882793426513L89.29602864583333,119.43321022033692L89.53671875,118.15227687835693L89.77740885416667,124.02724311828612L90.01809895833333,119.64390213012695L90.2587890625,113.45644588470459L90.49947916666667,117.54208583831787L90.74016927083333,119.08941078186035L90.980859375,109.43815414428711L91.22154947916667,117.87283798217774L91.46223958333333,109.13658611297608L91.7029296875,108.75195743560792L91.94361979166668,132.2861975860596L92.18430989583332,128.2001026916504L92.425,116.87714912414552L92.66569010416667,119.5786215209961L92.90638020833333,111.48004047393799L93.1470703125,113.76309295654298L93.38776041666667,133.79885875701905L93.869140625,130.0303498840332L94.35052083333333,109.8590422821045L94.59121093750001,116.78805541992188L94.83190104166665,103.31305534362792L95.07259114583333,120.38493278503418L95.31328125,119.68403877258301L95.55397135416666,117.46346256256103L95.79466145833334,111.28378784179688L96.03535156250001,113.51524528503418L96.27604166666666,111.6845193862915L96.51673177083333,107.40111598968505L96.757421875,127.1735661315918L96.99811197916667,123.05397537231445L97.23880208333334,95.46405685424804L97.4794921875,118.62971008300781L97.72018229166666,122.23550971984864L98.20156250000001,112.91523609161376L98.44225260416667,104.05661872863769L98.68294270833333,110.51922588348388L98.9236328125,112.149560546875L99.16432291666666,109.2612840270996L99.645703125,112.47785804748534L99.88639322916667,119.04980037689208L100.12708333333333,107.96412899017335L100.36777343749999,92.7476121520996L100.60846354166667,96.40563491821288L100.84915364583334,114.89780017852783L101.08984375,101.14112045288087L101.33053385416666,91.8183106994629L101.57122395833333,99.86102569580078L101.8119140625,87.94347808837891L102.05260416666667,87.87425918579102L102.29329427083334,77.81310768127442L102.53398437499999,91.83174163818359L102.77467447916666,105.49083995819092L103.01536458333334,110.82129638671876L103.2560546875,102.95519348144532L103.49674479166667,121.80163200378418L103.73743489583335,120.3594730758667L103.97812499999999,116.41077369689941L104.21881510416667,128.04924907684327L104.45950520833334,108.31225036621095L104.7001953125,110.51445240020752L104.94088541666667,113.41712745666504L105.18157552083333,106.19228736877442L105.422265625,122.20667530059814L105.66295572916667,123.89805690765381L105.90364583333333,99.86219360351564L106.1443359375,88.71338729858398L106.38502604166668,91.35166366577148L106.62571614583332,99.61549346923829L106.86640625,108.42844020843506L107.10709635416667,96.16959533691406L107.34778645833333,90.2603150177002L107.5884765625,98.75218559265136L107.82916666666667,109.88353439331055L108.06985677083333,109.02514598846435L108.310546875,107.15279640197754L108.55123697916667,108.83535758972168L108.79192708333333,115.67434677124024L109.0326171875,114.76966304779053L109.27330729166667,100.59444458007812L109.51399739583333,117.28475570678711L109.7546875,104.04321495056152L109.99537760416668,105.78227027893067L110.23606770833332,103.69689975738525L110.4767578125,102.59597358703613L110.71744791666667,105.24031017303466L110.95813802083333,107.44133071899414L111.198828125,112.85245086669923L111.43951822916667,110.70922138214112L111.68020833333333,113.86142807006836L111.9208984375,106.94167671203613L112.16158854166666,121.1045472717285L112.40227864583333,116.53367561340332L112.64296875000001,114.07089096069336L112.88365885416665,130.8900114440918L113.3650390625,133.65036811828614L113.60572916666666,123.3536828994751L113.84641927083334,131.56238677978516L114.08710937500001,119.54910469055176L114.32779947916666,118.90341468811036L114.56848958333333,124.15093948364259L114.8091796875,118.86020889282227L115.04986979166667,122.56960601806641L115.29055989583334,117.85073600769043L115.53125,118.6444752883911L115.77194010416666,120.29101127624511L116.01263020833333,121.56570785522462L116.25332031250001,116.18182983398438L116.49401041666667,116.83308097839355L116.73470052083333,119.31895896911621L116.975390625,111.53830345153808L117.21608072916666,111.47220123291015L117.45677083333334,101.13933464050294L117.6974609375,105.58875068664551L117.93815104166667,110.36593460083009L118.17884114583333,106.00408447265625L118.41953124999999,117.92629013061523L118.66022135416667,111.45093105316161L118.90091145833334,109.34779407501222L119.38229166666666,111.17714836120606L119.62298177083333,110.06328353881835L119.863671875,113.88759735107422L120.10436197916667,111.29856662750244L120.34505208333334,116.898748626709L120.58574218749999,104.1673934173584L120.82643229166666,107.1649066543579L121.06712239583334,100.16152427673339L121.3078125,110.80705062866211L121.54850260416667,110.07025024414062L121.78919270833335,108.30040832519532L122.02988281249999,105.28663944244386L122.27057291666667,116.4114323425293L122.51126302083334,109.696078414917L122.751953125,107.14686180114745L122.99264322916667,112.24518299102783L123.23333333333333,108.93809951782227L123.4740234375,99.8002944946289L123.71471354166667,106.63607192993163L123.95540364583333,112.97979015350342L124.19609375,115.89987857818603L124.43678385416668,112.67963447570801L124.9181640625,123.97286750793458L125.15885416666667,119.81690864562988L125.39954427083333,122.0806329345703L125.640234375,127.50410438537597L125.88092447916667,110.29156196594238L126.12161458333333,111.87102474212647L126.3623046875,115.97026878356934L126.60299479166667,117.63986415863037L126.84368489583333,124.31142154693603L127.084375,123.66114479064942L127.32506510416667,117.32513000488282L127.56575520833333,129.68566772460937L127.8064453125,120.62935821533203L128.28782552083334,125.08812431335448L128.528515625,128.9242360305786L128.76920572916669,123.33553279876709L129.00989583333333,122.4953148651123L129.2505859375,125.31513977050781L129.49127604166665,124.81922374725342L129.73196614583333,132.7227234649658L129.97265625,135.7143971633911L130.21334635416665,125.42430179595948L130.45403645833332,125.99259414672852L130.6947265625,128.1950779724121L130.93541666666667,130.0892477416992L131.17610677083334,128.22802722930908L131.41679687500002,121.55322414398194L131.65748697916666,125.59149253845214L131.89817708333334,135.97035228729249L132.1388671875,132.07100379943847L132.37955729166666,131.26066596984862L132.62024739583333,129.21739784240722L132.8609375,117.48233581542968L133.10162760416665,116.27302848815918L133.34231770833333,114.32937202453613L133.5830078125,115.22893596649169L133.82369791666667,124.47487770080566L134.06438802083335,127.7293815612793L134.305078125,119.25255458831788L134.54576822916667,119.65622627258301L134.78645833333334,103.04732238769532L135.02714843750002,111.99646278381348L135.26783854166666,117.06876068115234L135.50852864583334,113.73749404907227L135.74921874999998,111.5556964492798L135.98990885416666,111.91912284851074L136.23059895833333,117.17485015869141L136.4712890625,114.25163486480713L136.71197916666665,125.68045722961426L136.95266927083333,115.27375102996825L137.193359375,114.38839210510254L137.43404947916667,116.38658714294434L137.67473958333335,108.63220954895019L137.9154296875,115.49265563964843L138.15611979166667,113.39864463806153L138.39680989583334,122.97617710113525L138.6375,124.9650288772583L138.87819010416666,112.8423369216919L139.11888020833334,124.42663021087647L139.35957031249998,115.39175384521485L139.60026041666666,111.92719635009766L139.84095052083333,112.73685516357422L140.081640625,110.78351593017578L140.32233072916668,107.57269317626952L140.56302083333335,107.35526542663574L140.8037109375,111.83416435241699L141.04440104166667,113.94548686981202L141.28509114583335,126.9697119140625L141.52578125,123.23794120788574L141.76647135416667,109.54122539520264L142.00716145833331,116.7599373626709L142.2478515625,99.21485359191894L142.48854166666666,98.06388053894042L142.72923177083334,88.254379196167L142.969921875,104.19065650939942L143.45130208333333,114.42416606903076L143.6919921875,114.77598808288573L143.93268229166668,120.79393474578858L144.17337239583333,119.52652740478516L144.4140625,117.6233674621582L144.65475260416667,107.7234924697876L145.1361328125,109.4125756072998L145.37682291666667,105.08397010803222L145.61751302083334,117.1983373260498L145.858203125,110.35847900390624L146.09889322916666,110.90138294219972L146.33958333333334,115.37147842407227L146.58027343749998,100.35919944763184L146.82096354166666,110.90005207061768L147.06165364583333,100.21489494323731L147.30234375,99.68290618896484L147.54303385416668,107.92344573974609L147.78372395833335,106.06300270080567L148.0244140625,109.91563827514648L148.26510416666665,90.81052856445312L148.50579427083332,97.89991172790528L148.746484375,100.45171539306641L148.98717447916667,98.01830497741699L149.22786458333334,99.50307556152345L149.4685546875,102.57391914367676L149.70924479166666,107.54068435668945L149.94993489583334,93.07293556213378L150.190625,101.64323249816894L150.43131510416669,91.65256965637207L150.67200520833333,79.67769950866699L151.634765625,86.41259552001954L151.87545572916667,102.86483001708984L152.11614583333332,91.54533264160156L152.3568359375,81.4153221130371L152.59752604166667,89.9934684753418L152.83821614583334,83.35874771118164L153.07890625000002,80.03400642395019L153.3195963541667,86.22385620117187L153.5602864583333,87.8718147277832L153.80097656249998,89.99630676269531L154.04166666666666,98.65213935852051L154.28235677083333,97.66738945007324L154.523046875,108.69767349243165L154.76373697916668,98.72031936645507L155.00442708333333,102.76481094360352L155.2451171875,94.8280835723877L155.48580729166667,99.54699432373047L155.72649739583335,110.26467292785645L155.96718750000002,115.50694213867187L156.20787760416667,112.57687217712402L156.44856770833331,102.26411804199219L156.6892578125,106.375859375L156.92994791666666,106.89448509216308L157.17063802083334,122.23134056091308L157.411328125,115.644375L157.65201822916666,107.56858512878418L157.89270833333333,120.13622276306153L158.1333984375,118.14187774658203L158.37408854166668,111.74196075439454L158.61477864583335,116.6812190246582L158.85546875,106.4032169342041L159.09615885416665,98.46333892822265L159.33684895833332,109.07511138916016L159.5775390625,112.4560752105713L159.81822916666667,98.89302032470704L160.05891927083334,102.37360939025879L160.29960937500002,101.25828468322754L160.54029947916666,111.6649942779541L160.78098958333334,107.27474090576172L161.0216796875,112.07860675811767L161.26236979166666,104.8298890686035L161.50305989583333,108.6598794555664L161.74375,107.9807275390625L161.98444010416665,104.96482654571534L162.22513020833333,109.46835678100587L162.4658203125,116.77352447509766L162.70651041666667,114.03485218048095L162.94720052083335,111.85797744750977L163.187890625,110.79284561157226L163.42858072916667,115.39904308319092L163.66927083333334,115.34298690795899L163.9099609375,113.84474464416505L164.15065104166666,118.7967073059082L164.39134114583334,99.41515655517578L164.63203124999998,103.91870376586914L164.87272135416666,120.7754281616211L165.11341145833333,121.77167041778564L165.3541015625,124.46520851135253L165.59479166666668,124.34568130493165L165.83548177083335,123.97485023498535L166.076171875,110.9123796081543L166.55755208333332,103.69944267272949L166.7982421875,111.32065162658691L167.03893229166667,113.98279201507569L167.27962239583334,120.09420524597168L167.5203125,104.87228683471679L167.76100260416666,106.96777130126952L168.00169270833334,111.3425940322876L168.2423828125,112.68647216796876L168.48307291666669,107.36590900421143L168.72376302083333,112.6870832824707L168.96445312499998,116.82100807189941L169.20514322916665,111.03662937164307L169.44583333333333,108.01081813812256L169.6865234375,102.14721862792969L169.92721354166667,104.54348686218262L170.16790364583332,95.00680740356445L170.64928385416667,116.10828559875489L170.88997395833334,120.85127765655517L171.13066406250002,125.57679183959961L171.3713541666667,124.55503894805909L171.6120442708333,118.38519298553467L171.85273437499998,119.53090026855469L172.09342447916666,104.15078468322754L172.33411458333333,114.87422813415527L172.5748046875,108.22394432067871L172.81549479166668,110.84683757781983L173.05618489583333,103.27164554595947L173.296875,95.4585228729248L173.53756510416667,102.38584526062012L173.77825520833335,105.51245983123779L174.01894531250002,99.36320503234863L174.25963541666667,102.17417556762695L174.50032552083331,87.27017929077148L174.741015625,96.22128204345702L174.98170572916666,95.40448677062989L175.22239583333334,98.31206092834472L175.4630859375,102.62894660949706L175.70377604166666,115.38599918365477L175.94446614583333,107.11935485839844L176.18515625,98.31835540771485L176.42584635416668,98.77468139648437L176.66653645833335,110.82579486846925L176.9072265625,102.22210052490234L177.14791666666665,106.56471073150635L177.38860677083332,121.71282688140869L177.629296875,108.4973399734497L177.86998697916667,107.3498638534546L178.11067708333334,97.98811592102051L178.35136718750002,102.47082412719726L178.59205729166666,106.25371116638183L178.83274739583334,100.4744352722168L179.0734375,108.00466964721679L179.31412760416666,104.5550810623169L179.55481770833333,116.34866409301758L179.7955078125,121.37743705749511L180.03619791666665,121.10501579284667L180.27688802083333,122.48112003326416L180.517578125,120.30150886535645L180.75826822916667,114.4739956665039L180.99895833333335,116.17901531219482L181.2396484375,113.72284088134765L181.48033854166667,112.41692993164062L181.96171875,102.66181777954102L182.20240885416666,101.17046073913573L182.44309895833334,108.93176429748536L182.68378906249998,103.86872817993165L182.92447916666666,100.22202461242676L183.16516927083333,92.56878646850586L183.405859375,96.03317420959473L183.64654947916668,110.68306228637695L183.88723958333335,101.41548370361329L184.1279296875,111.79554191589355L184.36861979166665,109.72116806030274L184.60930989583332,103.16230697631836L184.85,116.3479035949707L185.09069010416667,104.62770862579346L185.33138020833334,107.55201034545898L185.5720703125,106.76747512817383L185.81276041666666,102.68768829345703L186.05345052083334,105.17163787841797L186.294140625,98.83222122192383L186.53483072916669,96.72063049316407L186.77552083333333,106.07783241271973L187.01621093749998,108.62583358764648L187.25690104166665,101.50568420410156L187.49759114583333,102.06553977966308L187.73828125,99.16182922363282L187.97897135416667,112.20361701965332L188.21966145833332,111.92389293670655L188.4603515625,112.89819618225098L188.70104166666667,121.88103614807129L188.94173177083334,111.92016513824463L189.18242187500002,120.09289474487305L189.4231119791667,107.74307189941406L189.6638020833333,112.73495731353759L189.90449218749998,102.93571250915528L190.14518229166666,111.33412330627442L190.38587239583333,109.52490863800048L190.6265625,107.83499710083008L190.86725260416668,117.20574539184571L191.10794270833333,119.56716651916504L191.3486328125,121.95410507202149L191.58932291666667,119.85368076324463L191.83001302083335,111.10714179992675L192.07070312500002,112.36677780151368L192.31139322916667,107.79660892486572L192.55208333333331,116.5482405090332L192.7927734375,119.82031051635742L193.03346354166666,121.11418251037597L193.27415364583334,119.20610649108886L193.51484375,102.16241500854491L193.75553385416666,117.13214004516601L193.99622395833333,108.22382209777831L194.2369140625,108.76303558349609L194.47760416666668,119.62143009185792L194.71829427083335,116.20482131958008L194.958984375,117.10769546508789L195.19967447916665,104.82886035919189L195.44036458333332,104.9356118774414L195.6810546875,116.01985733032227L195.92174479166667,114.51870887756348L196.16243489583334,116.01278198242187L196.40312500000002,107.19495651245117L196.64381510416666,114.54886398315429L196.88450520833334,107.81851058959961L197.1251953125,114.941443939209L197.36588541666666,106.3729396057129L197.60657552083333,106.87194854736327L197.847265625,112.34220420837403L198.08795572916665,110.90730396270752L198.32864583333333,119.2099633026123L198.5693359375,108.81173461914062L198.81002604166667,104.6292296218872L199.05071614583335,117.79455421447753L199.29140625,115.85982681274413L199.53209635416667,110.6116365814209L199.77278645833334,119.6085763168335L200.0134765625,119.25169563293457L200.25416666666666,105.65148498535157L200.49485677083334,107.10368995666504L200.73554687499998,110.25478305816651L200.97623697916666,102.83628417968751L201.21692708333333,103.00087768554687L201.4576171875,112.7932814025879L201.69830729166668,116.57512615203856L201.93899739583335,114.31592071533203L202.1796875,106.12558082580566L202.42037760416665,102.52796333312989L202.66106770833332,111.27281494140625L202.9017578125,103.95062091827393L203.14244791666667,103.08981521606445L203.38313802083334,102.54510848999024L203.623828125,107.88730171203613L203.86451822916666,96.77181472778321L204.10520833333334,109.64945037841797L204.3458984375,95.38927001953125L204.58658854166669,101.02927291870117L204.82727864583333,97.58908531188965L205.06796874999998,109.73356010437013L205.30865885416665,111.98106609344482L205.54934895833333,113.6302027130127L205.7900390625,108.80046974182129L206.03072916666667,103.26427482604981L206.27141927083332,96.86287078857421L206.512109375,107.07087310791016L206.75279947916667,108.63894878387451L206.99348958333334,117.9324488067627L207.23417968750002,100.93149459838867L207.4748697916667,115.5117495727539L207.7155598958333,107.28915641784667L207.95624999999998,109.46886604309083L208.19694010416666,103.95654193878174L208.43763020833333,100.33169250488281L208.6783203125,113.2246467590332L208.91901041666668,109.40275363922119L209.15970052083333,106.23996109008789L209.400390625,113.58122528076171L209.64108072916667,106.28193786621094L209.88177083333335,109.04802204132079L210.12246093750002,118.14351078033448L210.36315104166667,113.00635665893554L210.60384114583331,121.03805122375488L210.84453125,116.12423568725586L211.08522135416666,119.74170082092286L211.5666015625,112.38348499298095L211.80729166666666,121.87155708312989L212.04798177083333,118.78993072509766L212.288671875,116.27031242370606L212.52936197916668,118.30378913879395L212.77005208333335,119.35673263549805L213.0107421875,122.2044243621826L213.25143229166665,116.8845877456665L213.49212239583332,114.9718231201172L213.7328125,115.88141952514648L213.97350260416667,116.29168785095214L214.21419270833334,118.51038318634033L214.45488281250002,117.80901386260987L214.69557291666666,112.86194351196289L214.93626302083334,119.51221374511718L215.176953125,116.01841102600098L215.41764322916666,114.8220457458496L215.65833333333333,119.50148868560791L215.8990234375,109.18698608398438L216.13971354166665,103.56697681427002L216.38040364583333,119.20112930297852L216.62109375,113.52589225769043L216.86178385416667,115.4158521270752L217.10247395833335,109.99997207641601L217.3431640625,111.67153999328613L217.58385416666667,107.56025699615478L217.82454427083334,108.02718582153321L218.065234375,108.81416210174561L218.30592447916666,102.3899397277832L218.54661458333334,100.43264183044434L218.78730468749998,111.77840015411377L219.02799479166666,109.13946514129638L219.509375,108.77628997802734L219.75006510416668,108.94977180480957L219.99075520833335,109.07779350280762L220.2314453125,109.55422855377196L220.47213541666665,102.64422447204589L220.71282552083332,98.23349876403809L220.953515625,94.63108741760254L221.19420572916667,98.47388404846191L221.43489583333334,99.16007736206055L221.6755859375,108.49905448913574L221.91627604166666,110.15001766204834L222.15696614583334,108.52861545562743L222.39765625,108.974487991333L222.63834635416669,104.00323108673095L222.87903645833333,112.68164436340332L223.11972656249998,121.82433151245118L223.36041666666665,112.75637687683106L223.60110677083333,109.15135131835937L223.841796875,111.53467071533203L224.08248697916667,106.80733337402344L224.32317708333332,108.1083893585205L224.5638671875,120.15068920135498L224.80455729166667,118.27890319824219L225.04524739583334,118.6954320526123L225.28593750000002,115.42394260406493L225.5266276041667,115.92404136657714L225.7673177083333,110.43090965270997L226.00800781249998,119.47400890350342L226.24869791666666,116.20559539794922L226.48938802083333,121.27401271820068L226.730078125,124.47398818969727L226.97076822916668,117.44764148712159L227.21145833333333,116.56991470336914L227.4521484375,111.20099880218507L227.69283854166667,115.34461654663086L227.93352864583335,122.18936038970946L228.17421875000002,114.79070915222168L228.41490885416667,120.71163459777833L228.65559895833331,117.51730854034423L228.8962890625,112.60793037414551L229.13697916666666,112.5994426727295L229.37766927083334,111.85112617492675L229.618359375,116.48952259063721L229.85904947916666,110.53449356079102L230.09973958333333,105.97325714111328L230.3404296875,109.5447868347168L230.58111979166668,106.88019180297852L231.0625,107.11674743652344L231.30319010416665,112.5894271850586L231.54388020833332,108.06639221191406L231.7845703125,109.51496784210205L232.02526041666667,114.45160171508789L232.50664062500002,116.20401329040527L232.74733072916666,112.79472091674805L232.98802083333334,103.30894050598144L233.2287109375,114.36872100830078L233.46940104166666,113.58603271484375L233.71009114583333,109.80557994842529L233.95078125,117.16823993682861L234.19147135416665,109.0793111038208L234.43216145833333,117.17646621704102L234.6728515625,119.24942092895508L234.91354166666667,115.42720188140869L235.15423177083335,119.61441925048828L235.394921875,121.46604187011718L235.63561197916667,126.78598373413087L235.87630208333334,119.54955963134765L236.1169921875,118.60134078979493L236.35768229166666,114.69417003631591L236.59837239583334,115.46304714202881L236.83906249999998,123.1782489013672L237.07975260416666,123.29657085418701L237.32044270833333,130.32045272827148L237.5611328125,117.48312686920167L237.80182291666668,117.63372245788574L238.04251302083335,124.20732498168945L238.283203125,111.43244483947754L238.52389322916665,121.37928737640381L238.76458333333332,120.4263969039917L239.0052734375,120.33662418365478L239.24596354166667,117.96908172607422L239.48665364583334,115.30277896881103L239.72734375,120.31748611450195L239.96803385416666,126.29318439483643L240.20872395833334,121.57173751831056L240.4494140625,118.84802055358887L240.69010416666669,118.57993480682373L240.93079427083333,119.97982837677003L241.17148437499998,112.20481887817382L241.41217447916665,117.50172851562499L241.65286458333333,123.61067012786864L241.8935546875,119.79800483703613L242.13424479166667,119.7335594177246L242.37493489583332,116.87993648529053L242.615625,116.67512825012207L242.85631510416667,107.61824836730958L243.09700520833334,115.01604064941407L243.33769531250002,117.02558204650879L243.5783854166667,114.67543258666993L243.8190755208333,113.87489295959472L244.05976562499998,120.46352210998535L244.54114583333333,126.24099182128907L244.7818359375,115.29691566467285L245.02252604166668,119.64686943054198L245.26321614583333,116.64718673706054L245.50390625,118.92109966278076L245.74459635416667,123.3788370513916L245.98528645833335,127.85953536987304L246.22597656250002,124.54610988616943L246.46666666666667,120.96242919921875L246.70735677083331,127.25609374999999L246.948046875,120.65517440795898L247.18873697916666,120.8785605239868L247.42942708333334,127.21172344207764L247.6701171875,126.83436363220216L248.15149739583333,121.66401580810546L248.3921875,115.65026885986327L248.63287760416668,118.59190246582031L248.87356770833335,114.54305839538574L249.1142578125,127.78121765136719L249.35494791666665,122.32941764831543L249.59563802083332,121.55895503997803L249.836328125,127.9686668395996L250.07701822916667,118.9370327758789L250.31770833333334,115.3443992614746L250.55839843750002,116.64588981628418L250.79908854166666,124.17366275787353L251.03977864583334,110.94677177429199L251.28046875,118.69869472503663L251.52115885416666,116.9736237335205L251.76184895833333,108.50127487182617L252.24322916666665,119.14452651977538L252.48391927083333,122.70441787719727L252.724609375,118.13823482513428L253.20598958333335,118.30912620544433L253.4466796875,124.3943260192871L253.68736979166667,122.3628014755249L253.92805989583334,117.65358028411865L254.16875,124.93821792602539L254.40944010416666,117.70807132720947L254.65013020833334,120.51831871032715L254.89082031249998,119.70338733673096L255.13151041666666,117.97749473571778L255.37220052083333,116.87213119506836L255.612890625,109.80809570312499L255.85358072916668,117.28785881042481L256.0942708333333,114.09642875671386L256.3349609375,115.95375171661377L256.5756510416667,120.82086112976074L256.81634114583335,118.54234447479249L257.05703125,120.94634670257568L257.2977213541667,111.74570213317871L257.53841145833337,112.67252178192139L257.7791015625,122.18659339904785L258.01979166666666,115.38193187713622L258.26048177083334,117.59523582458496L258.501171875,121.14522373199463L258.7418619791667,115.5339330291748L258.9825520833333,112.44658256530761L259.2232421875,110.83077205657959L259.46393229166665,116.51820423126222L259.7046223958333,111.14699325561523L259.9453125,115.39538318634033L260.1860026041667,118.3375803756714L260.4266927083333,111.71776741027833L260.66738281249997,117.85660270690917L260.90807291666664,108.39593910217286L261.1487630208333,113.90159866333008L261.389453125,111.07415519714355L261.63014322916666,113.2568762588501L261.87083333333334,116.76029724121094L262.1115234375,113.29160793304443L262.3522135416667,122.6013092803955L262.59290364583336,117.17000537872315L262.83359375000003,109.33317485809326L263.0742838541667,111.2961051940918L263.3149739583333,119.34880172729493L263.5556640625,117.08661201477051L264.03704427083335,116.65228614807128L264.277734375,117.77556213378907L264.5184244791667,116.96138786315919L264.7591145833333,121.52610084533691L264.9998046875,118.87141944885255L265.24049479166666,109.93552326202393L265.48118489583334,118.46495361328125L265.721875,120.12133193969726L265.96256510416663,118.59971794128418L266.2032552083333,117.61936805725097L266.68463541666665,116.66302139282226L266.9253255208333,116.63587432861328L267.166015625,114.387699508667L267.4067057291667,111.20130096435547L267.64739583333335,116.79653633117675L267.8880859375,116.07356071472168L268.1287760416667,114.65967262268066L268.3694661458333,118.3335368347168L268.61015625,120.12557579040526L268.85084635416666,120.80533882141114L269.09153645833334,113.27262264251709L269.3322265625,115.78841468811035L269.5729166666667,105.23987899780273L269.81360677083336,105.01185520172119L270.05429687500003,106.1185835647583L270.29498697916665,111.67657489776612L270.5356770833333,105.21686374664307L270.7763671875,101.11755859375L271.0170572916667,95.00608764648437L271.25774739583335,101.82118225097656L271.49843749999997,99.72397308349609L271.73912760416664,101.14038711547852L271.9798177083333,99.73795402526855L272.2205078125,101.46127655029298" style="fill: none;" fill="none"></path></g></g></g></g></g></g><g transform="translate(41, 178)" clip-path="url(#clip_1)"><clipPath id="clip_1"><rect width="288" height="22"></rect></clipPath><g><g><line x1="0" y1="0" x2="0" y2="5" style="visibility: inherit;" fill="rgb(0, 0, 0)" stroke="rgb(204, 204, 204)" stroke-width="1px"></line><line x1="24.069010416666664" y1="0" x2="24.069010416666664" y2="5" style="visibility: inherit;" fill="rgb(0, 0, 0)" stroke="rgb(204, 204, 204)" stroke-width="1px"></line><line x1="48.13802083333333" y1="0" x2="48.13802083333333" y2="5" style="visibility: inherit;" fill="rgb(0, 0, 0)" stroke="rgb(204, 204, 204)" stroke-width="1px"></line><line x1="72.20703125" y1="0" x2="72.20703125" y2="5" style="visibility: inherit;" fill="rgb(0, 0, 0)" stroke="rgb(204, 204, 204)" stroke-width="1px"></line><line x1="96.27604166666666" y1="0" x2="96.27604166666666" y2="5" style="visibility: inherit;" fill="rgb(0, 0, 0)" stroke="rgb(204, 204, 204)" stroke-width="1px"></line><line x1="120.34505208333334" y1="0" x2="120.34505208333334" y2="5" style="visibility: inherit;" fill="rgb(0, 0, 0)" stroke="rgb(204, 204, 204)" stroke-width="1px"></line><line x1="144.4140625" y1="0" x2="144.4140625" y2="5" style="visibility: inherit;" fill="rgb(0, 0, 0)" stroke="rgb(204, 204, 204)" stroke-width="1px"></line><line x1="168.48307291666669" y1="0" x2="168.48307291666669" y2="5" style="visibility: inherit;" fill="rgb(0, 0, 0)" stroke="rgb(204, 204, 204)" stroke-width="1px"></line><line x1="192.55208333333331" y1="0" x2="192.55208333333331" y2="5" style="visibility: inherit;" fill="rgb(0, 0, 0)" stroke="rgb(204, 204, 204)" stroke-width="1px"></line><line x1="216.62109375" y1="0" x2="216.62109375" y2="5" style="visibility: inherit;" fill="rgb(0, 0, 0)" stroke="rgb(204, 204, 204)" stroke-width="1px"></line><line x1="240.69010416666669" y1="0" x2="240.69010416666669" y2="5" style="visibility: inherit;" fill="rgb(0, 0, 0)" stroke="rgb(204, 204, 204)" stroke-width="1px"></line><line x1="264.7591145833333" y1="0" x2="264.7591145833333" y2="5" style="visibility: inherit;" fill="rgb(0, 0, 0)" stroke="rgb(204, 204, 204)" stroke-width="1px"></line><line x1="288.828125" y1="0" x2="288.828125" y2="5" style="visibility: inherit;" fill="rgb(0, 0, 0)" stroke="rgb(204, 204, 204)" stroke-width="1px"></line></g><g transform="translate(0, 8)"><text x="0" y="0" dx="0em" dy="0.95em" style="text-anchor: middle; visibility: hidden; font-family: Roboto, sans-serif; font-size: 12px; font-weight: 200;" fill="rgb(50, 49, 63)" stroke="none" stroke-width="1px">-2k</text><text x="24.069010416666664" y="0" dx="0em" dy="0.95em" style="text-anchor: middle; visibility: inherit; font-family: Roboto, sans-serif; font-size: 12px; font-weight: 200;" fill="rgb(50, 49, 63)" stroke="none" stroke-width="1px">0</text><text x="48.13802083333333" y="0" dx="0em" dy="0.95em" style="text-anchor: middle; visibility: hidden; font-family: Roboto, sans-serif; font-size: 12px; font-weight: 200;" fill="rgb(50, 49, 63)" stroke="none" stroke-width="1px">2k</text><text x="72.20703125" y="0" dx="0em" dy="0.95em" style="text-anchor: middle; visibility: inherit; font-family: Roboto, sans-serif; font-size: 12px; font-weight: 200;" fill="rgb(50, 49, 63)" stroke="none" stroke-width="1px">4k</text><text x="96.27604166666666" y="0" dx="0em" dy="0.95em" style="text-anchor: middle; visibility: hidden; font-family: Roboto, sans-serif; font-size: 12px; font-weight: 200;" fill="rgb(50, 49, 63)" stroke="none" stroke-width="1px">6k</text><text x="120.34505208333334" y="0" dx="0em" dy="0.95em" style="text-anchor: middle; visibility: inherit; font-family: Roboto, sans-serif; font-size: 12px; font-weight: 200;" fill="rgb(50, 49, 63)" stroke="none" stroke-width="1px">8k</text><text x="144.4140625" y="0" dx="0em" dy="0.95em" style="text-anchor: middle; visibility: hidden; font-family: Roboto, sans-serif; font-size: 12px; font-weight: 200;" fill="rgb(50, 49, 63)" stroke="none" stroke-width="1px">10k</text><text x="168.48307291666669" y="0" dx="0em" dy="0.95em" style="text-anchor: middle; visibility: inherit; font-family: Roboto, sans-serif; font-size: 12px; font-weight: 200;" fill="rgb(50, 49, 63)" stroke="none" stroke-width="1px">12k</text><text x="192.55208333333331" y="0" dx="0em" dy="0.95em" style="text-anchor: middle; visibility: hidden; font-family: Roboto, sans-serif; font-size: 12px; font-weight: 200;" fill="rgb(50, 49, 63)" stroke="none" stroke-width="1px">14k</text><text x="216.62109375" y="0" dx="0em" dy="0.95em" style="text-anchor: middle; visibility: inherit; font-family: Roboto, sans-serif; font-size: 12px; font-weight: 200;" fill="rgb(50, 49, 63)" stroke="none" stroke-width="1px">16k</text><text x="240.69010416666669" y="0" dx="0em" dy="0.95em" style="text-anchor: middle; visibility: hidden; font-family: Roboto, sans-serif; font-size: 12px; font-weight: 200;" fill="rgb(50, 49, 63)" stroke="none" stroke-width="1px">18k</text><text x="264.7591145833333" y="0" dx="0em" dy="0.95em" style="text-anchor: middle; visibility: inherit; font-family: Roboto, sans-serif; font-size: 12px; font-weight: 200;" fill="rgb(50, 49, 63)" stroke="none" stroke-width="1px">20k</text><text x="288.828125" y="0" dx="0em" dy="0.95em" style="text-anchor: middle; visibility: hidden; font-family: Roboto, sans-serif; font-size: 12px; font-weight: 200;" fill="rgb(50, 49, 63)" stroke="none" stroke-width="1px">22k</text></g><line x1="0" y1="0" x2="288.828125" y2="0" fill="rgb(0, 0, 0)" stroke="rgb(204, 204, 204)" stroke-width="1px"></line></g></g></g></g></svg>