<svg viewBox="0 0 330 200" xmlns="http://www.w3.org/2000/svg"><g><g><g><g><g><line x1="61.953125" y1="178" x2="56.953125" y2="178" style="visibility: inherit;" fill="rgb(0, 0, 0)" stroke="rgb(204, 204, 204)" stroke-width="1px"></line><line x1="61.953125" y1="160.20000000000002" x2="56.953125" y2="160.20000000000002" style="visibility: inherit;" fill="rgb(0, 0, 0)" stroke="rgb(204, 204, 204)" stroke-width="1px"></line><line x1="61.953125" y1="142.4" x2="56.953125" y2="142.4" style="visibility: inherit;" fill="rgb(0, 0, 0)" stroke="rgb(204, 204, 204)" stroke-width="1px"></line><line x1="61.953125" y1="124.6" x2="56.953125" y2="124.6" style="visibility: inherit;" fill="rgb(0, 0, 0)" stroke="rgb(204, 204, 204)" stroke-width="1px"></line><line x1="61.953125" y1="106.8" x2="56.953125" y2="106.8" style="visibility: inherit;" fill="rgb(0, 0, 0)" stroke="rgb(204, 204, 204)" stroke-width="1px"></line><line x1="61.953125" y1="88.99999999999999" x2="56.953125" y2="88.99999999999999" style="visibility: inherit;" fill="rgb(0, 0, 0)" stroke="rgb(204, 204, 204)" stroke-width="1px"></line><line x1="61.953125" y1="71.19999999999999" x2="56.953125" y2="71.19999999999999" style="visibility: inherit;" fill="rgb(0, 0, 0)" stroke="rgb(204, 204, 204)" stroke-width="1px"></line><line x1="61.953125" y1="53.400000000000006" x2="56.953125" y2="53.400000000000006" style="visibility: inherit;" fill="rgb(0, 0, 0)" stroke="rgb(204, 204, 204)" stroke-width="1px"></line><line x1="61.953125" y1="35.599999999999994" x2="56.953125" y2="35.599999999999994" style="visibility: inherit;" fill="rgb(0, 0, 0)" stroke="rgb(204, 204, 204)" stroke-width="1px"></line><line x1="61.953125" y1="17.799999999999997" x2="56.953125" y2="17.799999999999997" style="visibility: inherit;" fill="rgb(0, 0, 0)" stroke="rgb(204, 204, 204)" stroke-width="1px"></line><line x1="61.953125" y1="0" x2="56.953125" y2="0" style="visibility: inherit;" fill="rgb(0, 0, 0)" stroke="rgb(204, 204, 204)" stroke-width="1px"></line></g><g transform="translate(51.953125, 0)"><text x="0" y="178" dx="0em" dy="0.3em" style="text-anchor: end; visibility: hidden; font-family: Roboto, sans-serif; font-size: 12px; font-weight: 200;" fill="rgb(50, 49, 63)" stroke="none" stroke-width="1px">-0.01</text><text x="0" y="160.20000000000002" dx="0em" dy="0.3em" style="text-anchor: end; visibility: inherit; font-family: Roboto, sans-serif; font-size: 12px; font-weight: 200;" fill="rgb(50, 49, 63)" stroke="none" stroke-width="1px">0</text><text x="0" y="142.4" dx="0em" dy="0.3em" style="text-anchor: end; visibility: hidden; font-family: Roboto, sans-serif; font-size: 12px; font-weight: 200;" fill="rgb(50, 49, 63)" stroke="none" stroke-width="1px">0.01</text><text x="0" y="124.6" dx="0em" dy="0.3em" style="text-anchor: end; visibility: inherit; font-family: Roboto, sans-serif; font-size: 12px; font-weight: 200;" fill="rgb(50, 49, 63)" stroke="none" stroke-width="1px">0.02</text><text x="0" y="106.8" dx="0em" dy="0.3em" style="text-anchor: end; visibility: hidden; font-family: Roboto, sans-serif; font-size: 12px; font-weight: 200;" fill="rgb(50, 49, 63)" stroke="none" stroke-width="1px">0.03</text><text x="0" y="88.99999999999999" dx="0em" dy="0.3em" style="text-anchor: end; visibility: inherit; font-family: Roboto, sans-serif; font-size: 12px; font-weight: 200;" fill="rgb(50, 49, 63)" stroke="none" stroke-width="1px">0.04</text><text x="0" y="71.19999999999999" dx="0em" dy="0.3em" style="text-anchor: end; visibility: hidden; font-family: Roboto, sans-serif; font-size: 12px; font-weight: 200;" fill="rgb(50, 49, 63)" stroke="none" stroke-width="1px">0.05</text><text x="0" y="53.400000000000006" dx="0em" dy="0.3em" style="text-anchor: end; visibility: inherit; font-family: Roboto, sans-serif; font-size: 12px; font-weight: 200;" fill="rgb(50, 49, 63)" stroke="none" stroke-width="1px">0.06</text><text x="0" y="35.599999999999994" dx="0em" dy="0.3em" style="text-anchor: end; visibility: hidden; font-family: Roboto, sans-serif; font-size: 12px; font-weight: 200;" fill="rgb(50, 49, 63)" stroke="none" stroke-width="1px">0.07</text><text x="0" y="17.799999999999997" dx="0em" dy="0.3em" style="text-anchor: end; visibility: inherit; font-family: Roboto, sans-serif; font-size: 12px; font-weight: 200;" fill="rgb(50, 49, 63)" stroke="none" stroke-width="1px">0.08</text><text x="0" y="0" dx="0em" dy="0.3em" style="text-anchor: end; visibility: hidden; font-family: Roboto, sans-serif; font-size: 12px; font-weight: 200;" fill="rgb(50, 49, 63)" stroke="none" stroke-width="1px">0.09</text></g><line x1="61.953125" y1="0" x2="61.953125" y2="178" fill="rgb(0, 0, 0)" stroke="rgb(204, 204, 204)" stroke-width="1px"></line></g></g><g transform="translate(61, 0)" clip-path="url(#clip_0)"><clipPath id="clip_0"><rect width="268" height="178"></rect></clipPath><g><g><g><line x1="0" y1="0" x2="0" y2="178" fill="rgb(0, 0, 0)" stroke="rgb(60, 60, 60)" stroke-width="1px" opacity="0.25"></line><line x1="22.337239583333332" y1="0" x2="22.337239583333332" y2="178" fill="rgb(0, 0, 0)" stroke="rgb(60, 60, 60)" stroke-width="1px" opacity="0.25"></line><line x1="44.674479166666664" y1="0" x2="44.674479166666664" y2="178" fill="rgb(0, 0, 0)" stroke="rgb(60, 60, 60)" stroke-width="1px" opacity="0.25"></line><line x1="67.01171875" y1="0" x2="67.01171875" y2="178" fill="rgb(0, 0, 0)" stroke="rgb(60, 60, 60)" stroke-width="1px" opacity="0.25"></line><line x1="89.34895833333333" y1="0" x2="89.34895833333333" y2="178" fill="rgb(0, 0, 0)" stroke="rgb(60, 60, 60)" stroke-width="1px" opacity="0.25"></line><line x1="111.68619791666667" y1="0" x2="111.68619791666667" y2="178" fill="rgb(0, 0, 0)" stroke="rgb(60, 60, 60)" stroke-width="1px" opacity="0.25"></line><line x1="134.0234375" y1="0" x2="134.0234375" y2="178" fill="rgb(0, 0, 0)" stroke="rgb(60, 60, 60)" stroke-width="1px" opacity="0.25"></line><line x1="156.36067708333334" y1="0" x2="156.36067708333334" y2="178" fill="rgb(0, 0, 0)" stroke="rgb(60, 60, 60)" stroke-width="1px" opacity="0.25"></line><line x1="178.69791666666666" y1="0" x2="178.69791666666666" y2="178" fill="rgb(0, 0, 0)" stroke="rgb(60, 60, 60)" stroke-width="1px" opacity="0.25"></line><line x1="201.03515625" y1="0" x2="201.03515625" y2="178" fill="rgb(0, 0, 0)" stroke="rgb(60, 60, 60)" stroke-width="1px" opacity="0.25"></line><line x1="223.37239583333334" y1="0" x2="223.37239583333334" y2="178" fill="rgb(0, 0, 0)" stroke="rgb(60, 60, 60)" stroke-width="1px" opacity="0.25"></line><line x1="245.70963541666666" y1="0" x2="245.70963541666666" y2="178" fill="rgb(0, 0, 0)" stroke="rgb(60, 60, 60)" stroke-width="1px" opacity="0.25"></line><line x1="268.046875" y1="0" x2="268.046875" y2="178" fill="rgb(0, 0, 0)" stroke="rgb(60, 60, 60)" stroke-width="1px" opacity="0.25"></line></g><g><line x1="0" y1="178" x2="268.046875" y2="178" fill="rgb(0, 0, 0)" stroke="rgb(60, 60, 60)" stroke-width="1px" opacity="0.25"></line><line x1="0" y1="160.20000000000002" x2="268.046875" y2="160.20000000000002" fill="rgb(0, 0, 0)" stroke="rgb(60, 60, 60)" stroke-width="1px" opacity="0.25"></line><line x1="0" y1="142.4" x2="268.046875" y2="142.4" fill="rgb(0, 0, 0)" stroke="rgb(60, 60, 60)" stroke-width="1px" opacity="0.25"></line><line x1="0" y1="124.6" x2="268.046875" y2="124.6" fill="rgb(0, 0, 0)" stroke="rgb(60, 60, 60)" stroke-width="1px" opacity="0.25"></line><line x1="0" y1="106.8" x2="268.046875" y2="106.8" fill="rgb(0, 0, 0)" stroke="rgb(60, 60, 60)" stroke-width="1px" opacity="0.25"></line><line x1="0" y1="88.99999999999999" x2="268.046875" y2="88.99999999999999" fill="rgb(0, 0, 0)" stroke="rgb(60, 60, 60)" stroke-width="1px" opacity="0.25"></line><line x1="0" y1="71.19999999999999" x2="268.046875" y2="71.19999999999999" fill="rgb(0, 0, 0)" stroke="rgb(60, 60, 60)" stroke-width="1px" opacity="0.25"></line><line x1="0" y1="53.400000000000006" x2="268.046875" y2="53.400000000000006" fill="rgb(0, 0, 0)" stroke="rgb(60, 60, 60)" stroke-width="1px" opacity="0.25"></line><line x1="0" y1="35.599999999999994" x2="268.046875" y2="35.599999999999994" fill="rgb(0, 0, 0)" stroke="rgb(60, 60, 60)" stroke-width="1px" opacity="0.25"></line><line x1="0" y1="17.799999999999997" x2="268.046875" y2="17.799999999999997" fill="rgb(0, 0, 0)" stroke="rgb(60, 60, 60)" stroke-width="1px" opacity="0.25"></line><line x1="0" y1="0" x2="268.046875" y2="0" fill="rgb(0, 0, 0)" stroke="rgb(60, 60, 60)" stroke-width="1px" opacity="0.25"></line></g></g></g><g><g><line x1="0" y1="160.20000000000002" x2="268.046875" y2="160.20000000000002" fill="rgb(0, 0, 0)" stroke="rgb(153, 153, 153)" stroke-width="1.5px"></line></g></g><g><g><line x1="22.337239583333332" y1="0" x2="22.337239583333332" y2="178" fill="rgb(0, 0, 0)" stroke="rgb(153, 153, 153)" stroke-width="1.5px"></line></g></g><g><g><g><g><g><path stroke="rgb(255, 112, 67)" stroke-width="2px" d="M22.523755533854168,-7.656188230216519L22.5930009765625,30.071575208951028L22.866632161458334,50.89766052779467L22.935877604166667,16.061159304233122L22.983902669270833,46.156528113092534L22.991720703125,-39.23693150061221L23.469737630208336,-10.75731005081851L23.826016601562497,13.368966980672866L23.884093424479165,31.626448684579376L23.941053385416666,29.46533901279124L24.273878255208334,-264.486047439338L28.729040690104167,-9.440082538639999L28.934543294270835,44.77274588528199L29.027242838541664,-1.1432238511648367L29.261783854166666,20.476937260173568L29.819097981770835,24.401595007414972L29.832500325520833,38.169279241857836L29.992211588541668,37.68889145327838L30.117300130208335,35.84103833928455L30.328387044270833,8.103558432193429L30.669029947916666,-2.8109087146254867L31.046529296875,-14.143001564140397L31.085619466145832,4.12212526924366L31.345848307291668,0.9550138050739252L31.47317057291667,32.170455606352256L31.518961914062498,37.31028740387389L31.828332682291666,61.33177565106034L31.839501302083335,82.72768622270637L32.252740234375,64.63182066930877L32.3164013671875,51.31293158441571L32.67938151041667,45.902729353361345L32.91168880208333,9.29096040070917L33.007738932291666,-4.336440981984137L33.16856705729167,25.51713702467162L33.951487304687504,47.689608634636315L34.040836263020836,57.634256171659736L34.088861328125006,64.67362756459518L34.51661946614583,51.79007069902742L34.584748046875,61.465708312017625L34.64505859375,48.14277197398105L35.21689192708333,85.6894226642096L35.254865234375,22.125235262610914L35.70496061197917,53.05811446374564L35.710544921875005,63.759500976001696L35.92274869791667,54.87723798966137L36.063473307291666,62.40435802469093L36.719071289062505,51.68856129842659L36.894418619791665,62.365846536145575L36.92457389322917,76.65798987721558L37.548899739583334,57.26435815438722L38.30166471354167,61.16670163241085L38.71937109375,47.42433526853953L38.8433427734375,32.39516253197331L38.948327799479166,25.785174177432896L39.61844498697916,34.14277722498469L39.943451822916664,53.48490263736659L40.33658723958333,70.67162137339362L41.16418196614583,94.4108620519033L41.39760611979167,90.84767040697281L41.43222884114583,95.37263816528049L41.6779384765625,64.87249528606253L41.702509440104166,71.37879382395454L41.93034928385417,62.7227800704462L41.9459853515625,54.21898418053522L42.9444599609375,53.74605018606507L43.74636686197917,64.62878934449388L44.150670898437504,72.33900314394492L44.27240885416666,68.71660017146979L44.374043294270834,62.681885516490446L44.668894856770834,89.4322777592217L44.733672851562496,75.27570415038319L44.743724609375,78.46532500564128L44.94699348958333,87.73396134125632L45.0352255859375,72.18461175291205L45.165898437500005,56.91442264514246L45.276467773437496,77.19499690054104L45.320025390625,69.11504647444633L45.5445146484375,66.26829054421752L45.547865234374996,59.93693297664265L45.62939615885416,71.08034809446299L45.88069010416667,100.30187171885946L45.95216927083333,73.37918850773322L46.050453125000004,84.662452702485L46.1476201171875,102.82080581352858L46.73844010416667,92.52593423942177L47.18183430989583,84.76203393232494L47.276767578125,91.46342643554013L47.30803971354167,88.82993850860001L48.179192057291665,62.757387081104525L48.19036067708333,93.17497925300478L48.344487630208334,83.9870862313454L48.428252278645836,55.68642112185626L48.50196516927083,66.28300425630849L48.628170572916666,80.09226477159285L48.77336263020833,91.01311046667828L48.8079853515625,97.60296774857005L49.306105794270835,86.67986718268847L49.45688216145833,88.33172559888158L49.459115885416665,87.1179692325055L49.501556640625004,85.58718202454206L49.83549837239583,89.36262608016942L49.953885742187495,68.17001302984602L50.185076171875004,78.02231757490186L50.54135514322917,92.34445539980142L50.69548209635416,113.16217658322458L51.16568098958333,126.31320285917167L51.204771158854165,77.34523201537634L51.287418945312496,105.83062839420143L51.71406022135417,108.55178853697483L52.2657900390625,95.52076031939329L52.26690690104167,74.91057260618294L52.664509765625006,87.62847828320078L53.056528320312495,111.09722777233368L53.16598079427083,126.48145567596463L53.20507096354167,125.94643738282029L53.41392415364584,116.91570263631525L53.51555859375,101.77954125003447L54.098560546875,105.00704056260841L54.215831054687506,89.86248665474567L54.69273111979167,93.22219923867414L54.72176953125,83.84386586268917L54.795482421875,92.99639952135192L54.950726236979165,90.54562207908693L55.019971679687494,77.31008213550604L55.252278971354166,56.54125788563941L55.4086396484375,70.24433208438427L55.65211555989583,87.90731743414803L55.848683268229166,84.16998039626837L55.8777216796875,75.09988018121577L56.037432942708335,75.74444622424993L56.208312825520835,92.10136367933602L56.36802408854167,95.14550865803152L56.526618489583335,77.21122893043751L56.631603515624995,96.42844534008738L56.64723958333334,114.91442129843853L57.41340690104167,91.11582618137251L57.45473079427084,85.89723201978238L57.942799479166666,85.05195939652938L58.00534375,86.99082140274535L58.308013346354166,105.07243379621323L58.56265787760417,96.30594794433482L58.682162109375,110.50172078479034L58.81060123697917,125.41775225501478L58.927871744791666,113.83621157229675L59.07529752604167,115.87115705800494L59.084232421875,107.94143398757244L59.231658203125,105.90135683390773L59.3958369140625,121.49958463056849L59.61250813802083,113.5443000456331L59.6437802734375,116.41132046226488L60.01681217447916,113.40711498107805L60.03021451822917,107.10482750324186L60.070421549479164,109.14306208066806L60.130732096354166,103.94118021352689L60.172055989583335,100.62197201385258L60.2133798828125,110.75046033104753L60.35075390625,107.96381225133237L60.714850911458335,122.08184048679053L60.896899414062496,113.6524569567834L60.979547200520834,112.13311084251372L61.799323893229165,101.10868013465861L61.822777994791664,107.72850727656163L61.96685319010417,107.65350598644422L62.288509440104164,112.6287856480551L62.4917783203125,107.93738451964094L62.5855947265625,117.930757151046L63.24677701822917,115.76214908003723L63.280282877604165,98.63229108595799L63.40090397135417,60.87240329709022L63.493603515625,84.29946805016021L63.88673893229167,89.25281821355712L64.2072783203125,103.26161456981595L64.51441536458333,105.8170439045387L64.63950390625,122.98314525683271L65.2861669921875,132.4470237675282L65.58213541666667,116.50385123866633L65.71615885416666,106.69658666955134L65.87363639322916,101.13733076397597L66.22544791666667,93.43243584718718L66.67889388020834,115.58746413729436L66.91008430989584,112.14549308503776L67.03405598958334,113.01733099392119L67.34230989583332,110.75966117245592L67.57014973958333,107.64228835858486L67.75666569010417,94.48946820472229L67.815859375,103.92249427482216L67.89739029947917,100.35684821036297L68.17325520833334,95.92790311471722L68.43125032552084,97.81061284956992L68.7305693359375,101.21813616763149L69.39510221354168,92.7049150729811L69.74803059895832,115.32874050406431L69.76813411458333,116.43978120665439L70.00267513020833,116.63224681961944L70.94083919270834,118.1830442401672L71.0759794921875,122.56081323223738L71.1563935546875,118.92988625584502L71.186548828125,99.72055957447562L71.19101627604167,107.242832324094L71.26137858072917,113.56720886778022L71.47134863281251,96.30236753792278L71.56069759114582,107.52454036039538L71.70253906250001,103.1071064255382L71.71035709635416,121.69584570299062L71.7594990234375,133.11673766088768L71.81869270833334,113.33547650880982L72.39052604166667,104.26732442919833L72.55582161458334,109.72511658039345L73.01150130208333,124.7885470309356L73.16227766927084,106.82674866905803L73.33092382812501,101.41060265774126L74.068052734375,109.59582887992022L74.08592252604166,112.29320630851244L74.17415462239585,111.29540622665199L75.16592805989583,127.85779416253396L75.542310546875,121.11741550260919L75.61714029947916,132.77942580905042L75.66069791666666,122.15244451598215L75.81482486979166,124.79031665465764L75.8874208984375,112.60028026188333L75.91310872395833,115.97340178182672L76.03149609375001,98.34823795849651L76.1487666015625,112.99545843299968L76.20014225260418,105.10089529571975L76.52961653645832,98.13267174850729L77.36726302083333,113.88615673804776L77.4554951171875,118.44448112740811L77.59621972656251,107.72432056721863L78.18703971354167,107.32433681462298L78.2428828125,116.54347734197432L78.36462076822917,118.21580673363479L78.39812662760417,106.79389249030751L79.09504850260417,108.66522305336001L79.27374641927084,115.23566952899934L79.44686002604166,119.26093121979142L79.55072819010417,118.03985350378456L80.18845638020834,113.33505279331267L80.41517936197917,119.11330395525015L80.74018619791667,111.74543590179275L80.80831477864584,106.13616897840015L80.98366210937499,106.14245961295791L81.17576236979167,118.0574338614179L81.42593945312501,132.23754903356635L81.46279589843749,122.0390176384473L81.63367578124999,111.96755289368771L81.6504287109375,118.59364661355582L82.05361588541666,123.41927850591996L82.31942903645833,125.08079518167888L82.33171451822916,114.0532395964188L82.49365950520834,119.28866991432447L82.54280143229167,118.031786899757L82.78516048177083,125.43782341420152L83.4195380859375,122.51630607688126L83.54909407552084,111.94426808502493L83.6942861328125,111.92027957168945L83.744544921875,124.14417714612323L84.09859016927084,116.87365094445133L84.3711044921875,110.67719997419107L84.38003938802083,111.07125469597094L84.56097102864582,116.76955521912522L84.62016471354166,106.4668055093953L85.25789290364584,110.63527628759556L85.44775944010416,116.49034823644168L85.46339550781249,116.72232188861373L85.56056249999999,108.9603870563555L85.76048079427083,115.86222885446837L85.79733723958333,108.95247931001833L86.33901529947917,99.12225414823445L86.53893359375,118.87529352194639L87.60665364583333,119.5176393192206L87.73620963541666,120.99084917790854L87.91825813802083,127.39423183731535L87.94841341145833,128.045856481387L87.96740006510417,124.07525348877535L88.52694791666666,124.10960552701727L88.5794404296875,119.24886539822445L88.71458072916667,128.0541398855783L88.94688802083333,131.9667622752629L88.98039388020834,118.67113596723333L89.54887662760416,131.35105295822535L89.55557779947917,126.55606233564323L89.58014876302084,127.9684512095887L89.68066634114582,129.57610938294164L89.8794677734375,125.4584543475117L90.69477701822917,111.95827900460992L90.77407421875,101.96907405192634L90.95500585937499,112.14814202150691L91.22528645833333,118.7672426638662L91.73792610677084,131.16453011662716L91.82727506510416,132.86854288060042L92.15898307291667,118.69206207322225L92.19360579427084,130.16462000535216L92.55881966145833,124.57545697764328L92.72634895833333,122.97029966339926L92.94525390625,123.16763055041707L93.27249446614583,120.62507500955627L93.44895865885417,117.04306977098683L93.66562988281251,130.34116723704634L94.39829134114584,129.89330346207797L94.58369042968751,131.55217600685944L94.80929654947916,133.67551372571342L95.25939192708333,115.52509536697598L95.60450227864582,123.96138556691486L95.65141048177082,125.47393715794372L96.1048564453125,132.30822444984608L96.382955078125,129.268516682561L96.9291005859375,127.89070481716142L97.1401875,130.5793875602397L97.1904462890625,136.01121274694876L97.65841145833333,129.40778713443922L98.5775888671875,128.18467853259472L98.5976923828125,134.60368846709386L98.70602799479167,132.23471666964804L98.76298795572917,121.93458520408221L98.942802734375,124.80568236610739L99.59169954427084,135.86372009248404L99.60733561197917,127.95432194549365L99.90888834635416,131.76157930361344L100.20373990885416,132.60434670249887L100.29197200520832,124.61669323325316L100.42264485677083,121.39819047021962L101.033568359375,126.29084267597256L101.16535807291667,119.04599183011565L101.25023958333333,115.91593124573538L101.5395068359375,119.45986906233495L101.62997265624999,106.97428508009352L102.11245703125,114.03621410552168L102.253181640625,108.09491335167588L102.28222005208333,114.45436319180786L102.41177604166667,110.55474168520247L102.64631705729167,122.60431354797528L102.70327701822917,112.44587304208663L102.72784798177084,119.66766744741193L102.76470442708334,117.50595496707196L102.79262597656249,123.18430219240805L103.08301009114582,124.61306073932539L103.08524381510418,115.55495257060939L103.19916373697916,114.11654044795759L103.20251432291667,118.70718084221319L103.37451106770833,120.19912824180865L103.55879329427083,130.89715184910384L103.72632259114583,119.26094049181512L103.87821582031249,129.39471530476789L104.06808235677083,130.25608091270675L104.75495247395833,139.0433947832331L104.80744498697916,134.62140905087858L104.87445670572917,132.5717197062115L104.90014453124999,136.61337077507616L105.19387923177084,127.02184774094366L105.99131868489583,123.32064865776027L106.29287141927082,122.96099964706973L106.6256962890625,121.62987587886379L106.6457998046875,131.19114474706248L106.73514876302085,134.6978931519532L107.1383359375,138.38428978163859L107.46222591145833,131.99276284479416L107.70011751302084,130.53856205286573L107.75707747395833,130.78234672034972L107.91790559895834,126.10667079559084L107.97039811197916,130.5835234085984L108.10107096354166,128.79944910051032L108.230626953125,134.411488546381L108.23844498697918,127.2582301804123L108.55675065104167,132.4813233145295L108.927548828125,126.78905919839255L109.34190462239583,129.2846553531248L109.60325032552083,136.51354296725742L109.68478125,143.56762828839868L110.3180419921875,137.37808130808503L110.39398860677083,127.68729786829847L110.47998697916667,121.24041580293596L110.495623046875,116.78769082387696L110.5391806640625,118.19323991751915L110.57492024739584,129.65653323570638L111.03618424479167,128.72337774181216L111.2361025390625,127.31677522387413L111.6582763671875,117.48544396714155L111.72082063802083,124.71347887549271L111.72528808593749,128.71039257665558L111.79788411458333,131.50524402570773L111.87048014322917,140.86232396527856L112.12177408854167,137.5379287175222L112.13964388020834,137.72823611658117L112.30047200520833,143.79302468187393L112.32951041666666,142.3643097227024L112.37083430989583,146.41665503234904L112.79859244791666,129.99040682703995L112.81981282552084,121.90110506052221L112.93373274739582,128.55307009359865L113.22858430989584,127.26416676843564L113.35478971354166,112.45826186182737L113.3938798828125,116.78591900612498L114.74193229166666,119.6468760153388L114.77990559895834,121.09205596809001L114.8681376953125,118.43755429067856L115.33498600260417,118.58976555096295L115.88783268229167,132.38238620029205L116.37366764322917,124.75379717389531L116.61044238281251,133.22430971169345L116.8248798828125,120.07714060368461L116.91981315104167,117.82459595931961L117.06723893229166,122.84252942760821L117.36990852864582,112.2192347881796L117.45925748697917,117.86603807613862L117.83787369791666,131.09189580831298L117.87249641927083,130.71285482498033L117.90935286458334,135.65197763772025L118.03667513020834,135.2323490275813L118.10703743489584,130.3499724074526L118.403005859375,126.83273332621596L119.25852213541667,132.2964154339191L119.35345540364584,130.46940093853215L119.51316666666668,132.12366371404016L119.94315852864582,133.39422542959977L120.00681966145832,135.66211756712514L120.24806184895833,130.0901964720864L120.4301103515625,130.12765152435176L120.77410384114583,139.1216474978964L121.37385872395832,132.7272949808145L121.53133626302083,131.09163728197242L122.03057356770833,131.1042930760373L122.1255068359375,128.7142965709203L122.14337662760417,122.97686296969853L122.57001790364583,124.117842472018L122.82466243489584,111.23998512889217L122.89390787760416,115.05800082007212L123.11951399739584,130.35784686889747L123.35740559895834,131.45769450418052L124.07666471354166,118.68612990469872L124.30673828125,118.84145428831066L124.6686015625,129.04334216055085L124.69093880208334,124.83106974683291L124.69428938802082,128.43608383370687L124.78922265625,121.93479363222869L124.7925732421875,118.57783184587926L125.22256510416666,113.49336140716058L125.90273404947916,111.17419434287537L125.96862890624999,117.59416973887913L126.34612825520833,123.51263707339187L126.4544638671875,128.15413711672676L126.73144563802084,138.92612729820996L127.2116962890625,143.28356645049686L127.92090364583333,145.57155846412203L128.19788541666668,147.79795318338407L128.31738964843748,141.57144300516327L128.50278873697917,131.0346985022776L128.64463020833333,127.11604790035204L128.79764029947916,127.15585894252845L128.8601845703125,130.04342043200725L128.89592415364584,133.142268376646L128.97522135416668,122.97816124266241L129.39962890625,124.80925376418742L129.49902962239582,125.0165322005958L129.52471744791666,120.65950166345898L129.8921650390625,124.86098317182815L130.1535107421875,115.85236812041256L130.22610677083333,120.06537480477125L130.84708203124998,125.12604220136184L130.92526236979165,124.04504740967857L131.13746614583334,128.95788294097488L131.33850130208333,136.70175390211168L131.56187369791667,139.16934552530898L131.65122265624998,139.9500762554434L131.77407747395833,134.6151416845576L132.02648828125,143.17760213665406L132.24092578125,137.8045162096753L132.31910611979166,138.022456754156L132.37383235677083,126.47283762211089L132.96800292968751,128.6059127736955L133.47170768229168,127.87333579473906L133.59009505208334,127.03895765193232L133.59232877604168,125.83735537795977L133.89388151041666,136.10778930451724L134.65558138020833,123.97433480898292L134.68126920572917,131.33781552511306L134.86220084635414,129.44299234746606L134.981705078125,132.1215436926407L135.04759993489586,126.02990426724688L135.13694889322917,121.55747937205753L135.22071354166664,127.28747570421291L135.3134130859375,126.5866289240479L135.40164518229167,132.0130676020598L135.5144482421875,133.48111719008776L135.6216669921875,129.21529656896885L135.69761360677083,132.07937245994742L136.1711630859375,132.6719621984955L136.19350032552083,130.40813645415284L136.6000380859375,134.82706924374568L136.82564420572916,142.03467875954905L136.8613837890625,132.18201266549468L136.9216943359375,140.59942348076368L137.0222119140625,133.59049738093296L137.24,129.58407222297237L137.27462272135415,131.06293470779923L137.33605013020835,127.11269738626399L137.37514029947917,112.75676679701759L137.38630891927085,128.25690741772146L137.60409700520833,127.54523472925837L137.95144108072915,128.8886184229899L138.43169173177085,138.12416818824107L138.7991393229167,135.63583941690143L138.8639173177083,131.8056686921836L139.27715625,126.29143163465984L139.40894596354164,137.90831771986797L139.47595768229166,134.07116094408698L139.49159375,138.9222492470042L139.50834667968752,141.9051975517688L139.52286588541665,140.03493308509692L139.71161555989585,126.69863985350909L140.09246549479167,125.44504142803659L140.289033203125,127.17993803204719L140.47219856770832,129.84976536143793L140.48783463541668,131.15911323671924L140.95915039062498,128.54652481761804L141.0228115234375,132.39509870283143L141.160185546875,137.2459979502698L141.35675325520833,135.91979524066093L141.468439453125,134.4762869380119L141.95650813802084,129.30420127404943L142.69475390624999,130.80357837494142L142.77628483072917,130.50186200807053L143.45980436197917,123.83843378227684L143.612814453125,136.2596416103943L144.34547591145835,139.8190192078414L144.3465927734375,134.64338618367088L144.41137076822915,131.79684810727343L144.6347431640625,115.10108879619541L144.99325585937498,122.42498196192801L145.26241959635416,120.65040077166688L145.4053779296875,123.34067084310611L145.442234375,121.88344672750328L145.65890559895834,115.74707423586186L145.8465384114583,122.22895755015931L145.9079658203125,123.38317508365586L146.0151845703125,117.55067639151737L146.5255904947917,127.7001390853496L146.5713818359375,135.54365166449375L146.66966569010415,132.4265698863496L146.91760904947915,125.08655426224647L147.08848893229168,127.40570622754441L147.33084798177083,138.79162994174567L147.95070638020835,135.72495840459112L148.16737760416666,133.6179430053773L148.21093522135416,141.8706013047631L148.43319075520833,133.08815992259596L148.90227278645835,135.9928250115133L149.20047493489582,138.17817414289811L149.37023795572918,134.820625318802L149.63716796875002,133.29013106925282L149.98562890624999,138.16858513208027L150.17214485677084,126.43670428306935L150.57533203124999,128.76225302404808L150.8835859375,131.1716749300757L150.94277962239582,131.40406751991503L151.34149934895834,139.57936369425772L151.35490169270835,137.7416348805828L151.6307666015625,126.17169100825805L151.75697200520833,134.40706499865541L151.9367867838542,136.87500370294387L152.03730436197915,138.73599605590425L152.39916764322916,139.51341827738474L152.64487727864585,146.1463206355464L152.68731803385415,136.60140252856561L152.76773209635417,131.32475340097037L152.81128971354167,139.7616467119985L153.02796093749998,137.68934315572582L153.04359700520834,133.80390402037142L153.06258365885418,132.14678152893924L153.18320475260415,131.22579535719717L153.71929850260418,138.59005377025585L153.9315022786458,140.31490315873134L154.06105826822917,139.51339249419397L154.30676790364583,142.95341424588693L154.3391569010417,138.9812777503987L154.8540302734375,145.02164728386165L155.14106380208332,140.81143911029673L155.17345279947918,140.5813508295761L155.24158138020834,146.7457284834234L155.581107421875,134.16540925718832L155.768740234375,128.11266450773172L156.33722298177085,122.91982434088283L157.6919765625,125.11938012954172L157.69309342447914,137.5454340286051L157.84833723958332,136.51079410684076L157.88184309895834,130.51841778857687L157.92763444010419,126.38417944969642L158.41011881510417,138.07638866655176L158.45702701822916,134.43036914320078L158.82335774739585,138.01662904471925L159.28908919270833,134.85466216654046L159.30249153645832,140.17185848921812L159.41976204427084,133.76573040944504L159.78720963541664,127.07819748021464L160.39143196614583,125.42541388212024L160.41823665364583,137.69943054445613L160.45509309895832,126.3101744128944L160.94316178385418,133.47987057290564L161.04814680989585,137.0857186351543L161.42229557291665,133.94090429033787L161.67694010416665,132.85673474005432L161.74171809895833,123.78039765376789L161.99301204427084,120.18088663112486L162.268876953125,130.55051862324098L163.55773567708331,130.2937248463918L163.82913313802084,132.48852843913372L164.10611490885418,139.46021965249142L164.16530859375,137.77178337516642L164.2870465494792,135.71894503022585L164.43558919270833,140.16171569264145L164.641091796875,137.61946275792246L164.78405013020833,141.22661807544068L164.89015201822917,136.1470194977941L165.05544759114585,133.21580047025813L165.0911871744792,124.75709903189261L165.15931575520835,126.57708389013243L165.17941927083334,123.06758418827792L165.4206614583333,129.96601798653327L165.63509895833334,135.9098825384362L165.75125260416667,137.3260145222654L166.24713932291667,132.08217260930002L166.57549674479168,141.48986482914125L166.76759700520833,140.84699253497024L166.865880859375,139.45820520405474L166.879283203125,142.39643928265272L166.88821809895833,138.37692923638642L166.973099609375,145.28146204221798L167.02112467447918,139.63074442546696L167.44553222656248,140.65442785382945L167.60859407552084,139.38397829270767L168.31445084635416,143.18416668749694L168.56351106770833,139.38540090070273L169.1945380859375,131.02911431638063L169.20682356770834,132.30033739267387L169.40562500000001,135.5974040577328L169.46593554687502,140.0781695465455L169.62452994791667,146.3236552465832L170.51801953125,143.56874257438633L170.78606640625,137.5396064097479L171.10995638020833,134.01672810046642L171.235044921875,134.00065429525836L171.4695859375,141.726583713694L171.55,140.83013011658403L171.84038411458334,137.17598910000453L172.00456282552085,139.2761468822749L172.41668489583333,133.77336241096208L172.4312041015625,133.1464953427908L172.52613736979166,135.75384989293795L172.97623274739584,141.1190214989327L173.0946201171875,134.56589365111248L173.80047688802082,143.7153573540983L174.08751041666665,135.77235206890924L174.4638929036458,133.2659153355886L174.54319010416665,139.21462249718485L174.63030533854166,142.73638761274444L174.98211686197916,143.96376863290325L174.987701171875,147.9318587249187L175.0044541015625,145.98566237364216L175.3730185546875,146.58863059698942L175.40875813802083,139.54658394944312L175.62877994791666,134.91759202594542L175.885658203125,129.76022284933916L175.97835774739582,125.78001819258327L175.999578125,132.78653887662526L176.11461490885418,138.1349402401044L176.42621940104166,136.54624682743517L176.96007942708334,130.59773999380567L176.9913515625,132.16077495054898L177.08740169270834,140.8615567199081L177.51292610677083,142.96298615286887L177.86920507812502,141.6235489544281L178.03115006510416,140.69095579844762L178.08252571614585,137.9606225243929L178.66999511718748,137.76320987532873L178.71466959635418,136.4417241075059L178.74817545572915,139.9552025698674L178.75934407552083,138.3942101647289L178.8442255859375,135.93709606110045L178.88219889322917,133.05229098188275L178.97936588541666,139.6506545745575L179.01398860677085,130.3419153739955L179.53556315104166,131.64788238733686L179.8024931640625,129.666704597054L180.06272200520834,135.61788550912024L180.7674619140625,143.70081825747303L180.8076689453125,141.07339271303542L180.91600455729167,138.4507273953946L181.15054557291666,144.93893632526942L181.15166243489583,138.15913979432432L181.4856041666667,137.0166085110393L181.77040397135417,136.4241010234527L181.92788151041665,142.94659310598803L182.25623893229167,141.4244360585191L182.43046940104168,135.70979634756912L182.59018066406247,136.13477576604527L182.6862307942708,138.39061568904543L182.9051357421875,140.17588105665817L182.93305729166667,131.43037104408248L183.07378190104166,140.68878497578385L183.15196223958333,142.3016884174805L183.417775390625,147.66528067152865L183.48367024739585,137.92998090363244L183.61657682291667,142.7088464664024L183.75506770833334,147.44820195565234L184.97803157552084,141.58809586423402L185.0763154296875,147.121378919007L185.119873046875,151.00727138282156L185.16566438802084,148.71392002797901L185.74754947916665,142.41114468214974L185.84471647135416,138.60235596381463L186.17642447916666,136.15834945430063L186.92472200520834,136.45167681151452L187.06432975260418,134.76062956675185L187.8438994140625,131.18451637640175L187.95446875000002,136.61514315256224L188.10636197916665,143.0072130623385L188.24261914062498,133.5964221890524L188.30739713541666,140.4728760669085L188.38446061197916,143.95319438007195L188.38892805989585,142.40603654132318L188.50173111979166,138.87459696886557L188.59778125,145.04318920885098L189.24332747395835,144.0425312946115L189.36953287760417,141.49285634367908L189.51249121093753,140.3279117960289L189.73921419270835,129.21227425328223L189.79617415364584,122.29083484584883L189.87323763020834,128.4000637321162L189.877705078125,126.90367813220547L190.46629134114585,124.54080452389077L190.48751171875,130.10997182230088L190.57686067708332,130.101761051416L190.71311783854165,119.56023520612692L190.83038834635414,130.60465167348966L191.03030664062499,136.57703073731295L191.04594270833334,140.449643446274L191.08614973958333,142.8077341340586L191.13194108072918,141.7201363296869L191.23692610677082,134.25965732524173L191.29165234375,129.56958063834534L191.39998795572916,133.21241820570006L191.49268750000002,136.3062822521697L191.5898544921875,143.8457412540746L191.6099580078125,147.94237718841924L191.760734375,136.7028871396869L192.68437923177083,138.24050810931263L192.95577669270835,142.19960461064062L193.83809765625,143.6245543378823L193.91292740885416,138.06738536943394L193.98105598958333,144.97881183290121L194.38312630208333,139.22376206257127L194.91586946614584,145.32607107483258L195.07558072916666,136.8080346400911L195.66193326822918,138.2247551468238L195.74904850260418,136.4642417038813L196.10309375,140.41730870368093L196.25498697916666,139.45047110236888L196.2717399088542,139.20918564627888L196.91281868489583,127.40478467005683L197.00551822916665,135.3689190155756L197.29590234375,139.56052082398483L197.49023632812498,141.9092257420358L197.57176725260416,140.9180915880285L197.73482910156253,141.92724052417768L197.75604947916668,144.020463141939L197.82976236979167,139.99254562922772L198.0095771484375,138.54941404621874L198.11121158854166,142.40787789709017L198.16482096354167,142.1423806669512L198.38037532552082,141.8687503383874L198.58811165364585,147.07524727106508L198.7199013671875,142.91703927886735L198.76904329427083,144.85749813122897L198.79584798177083,143.0050494075021L198.8472236328125,137.58612873138193L199.581001953125,140.6457317830992L199.755232421875,143.51861181806757L199.90042447916667,135.6855355098917L200.07800553385417,138.64325084090675L200.37397395833335,139.76863321274783L200.50129622395835,139.25801072663228L200.78832975260417,140.90279534129L201.26076236979165,143.53945909421262L201.31660546875,144.76957581210502L201.50870572916668,139.59901605289204L201.55002962239584,142.63093629950893L201.82589453125001,140.89427667721876L202.100642578125,138.91438923427324L202.32959928385418,140.02819407700812L202.36087141927084,134.11132500481196L202.55855598958334,137.65587291843647L203.21303710937502,135.55297581569525L203.23872493489583,133.7964072139035L203.427474609375,139.06602640992224L203.42859147135417,139.42193226722372L203.49895377604167,143.45830732290443L203.59053645833333,144.83039731684028L203.73461165364583,144.5587789428395L203.79827278645834,132.81729013873112L203.92001074218751,129.58159237475974L203.99930794270833,138.28670474691262L204.15008430989582,145.49504718916455L204.52870052083333,143.05407848678135L204.71633333333335,136.90116685344043L205.45346223958333,144.45026671968856L205.58413509114584,138.75180208017204L206.19729231770833,145.68161285224423L206.41731412760416,144.99517058791437L206.46198860677083,144.1138438329799L206.59936263020833,148.32812336873727L207.1365732421875,145.01084028537107L207.28623274739584,144.40958886834997L207.51295572916666,149.11520020726633L207.73297753906252,137.7134312502343L208.0691529947917,137.2010487149238L208.0948408203125,138.1264213538217L208.3092783203125,143.26316061070844L208.707998046875,137.9070003047662L208.79399641927083,141.5688916479097L209.0196025390625,143.03724024978555L209.11453580729165,140.68841908626126L209.23850748697916,141.173886370971L209.29546744791668,140.6653878780092L209.57244921875002,141.07406203281195L210.0113759765625,140.36288426596707L210.17108723958333,140.55605035471194L210.40451139322914,135.19201014487308L210.58320930989584,136.89552516101816L210.77419270833335,139.11815189962994L210.93725455729165,138.89592100051289L210.9495400390625,141.17412808041124L211.09361523437502,126.90684557140081L211.11595247395834,129.2002111180437L211.44766048177084,132.2834181954749L211.70565559895834,136.7920525789432L211.99715657552085,136.23085603566005L212.0619345703125,139.85417400748153L212.1624521484375,132.98931978792322L212.41374609375,135.85242094367965L212.75662272135418,138.77527596545352L213.55741276041667,132.73576521749575L214.01309244791668,141.34228331662882L214.05665006510415,138.06231068442864L214.06781868489583,134.57336284023881L214.6954951171875,136.45399893136238L214.90211458333332,138.73434269494663L215.52308984375,143.98706353823454L215.65823014322916,144.33236223411626L215.74869596354168,140.4163712695364L215.76544889322915,143.01981795371316L215.88383626302084,140.47128752673115L216.079287109375,145.13495404186514L216.17533723958334,142.89462230481308L216.38642415364583,134.89757457183362L217.13360481770832,138.89904729489422L217.39383365885416,138.2164471433397L217.700970703125,146.07597627994932L217.91094075520834,140.97992766831825L217.97795247395834,142.8122754796416L218.0929892578125,138.34879028404177L218.210259765625,131.6611806327368L218.40347688802083,128.43609714831504L218.99541373697917,135.18323022649045L219.2053837890625,133.75410259559962L219.22101985677085,143.06796106510737L219.23777278645835,142.36322451748475L219.31595312500002,137.69525408397928L219.55607845052083,141.89300138473996L220.11674316406248,135.44670280230338L220.7868603515625,140.73699367321905L220.88961165364583,141.04656565235481L221.0303362630208,139.43469789383664L221.353109375,138.95166533176814L221.87691764322918,145.24869299179144L221.88361881510414,143.27439084080353L221.92159212239582,140.78375255899127L222.0667841796875,136.8209112801343L222.44204980468749,138.64097231764734L222.4744388020833,141.8819643076607L222.76705664062501,142.80336444356132L222.82178287760416,134.70061637507732L223.015,141.78988056091578L223.17694498697918,141.07328116600578L223.33442252604166,141.4047850519709L223.72420735677082,140.04096362771344L223.75771321614585,142.49442437488884L224.04698046875,139.9670839801374L224.54398404947918,136.87468798607247L224.54845149739583,141.15003979623114L224.60987890625,142.69624397438642L224.7874599609375,142.5403887217157L224.8209658203125,132.27005526214316L224.93711946614582,138.0655096364884L225.00636490885418,140.04766006308012L225.19958203124997,139.44886814407832L225.70328678385417,140.9933658534427L226.16678450520834,141.62952979648946L226.53869954427086,139.083679366379L226.59901009114583,133.95245288388074L226.6604375,135.07198940888728L226.66602180989585,140.25349100068618L226.97315885416666,139.98107008597498L227.0256513671875,135.64207425869253L227.02788509114583,139.12731080625502L227.26577669270836,139.93616793855458L227.39086523437498,145.40711990135568L227.62763997395834,140.51255565248525L227.75161165364585,139.03903980054017L227.7627802734375,131.58503296552632L228.00625618489585,141.91527595224102L228.67190592447918,134.74003726483653L228.68307454427085,137.21759064967196L228.7612548828125,141.41560510113695L229.02148372395834,136.8345437086514L229.64357584635417,137.8562486122186L230.07915201822917,140.54796068996993L230.3326796875,140.35794030535703L230.34719889322915,140.10607454155974L230.5817399088542,141.5357410655921L230.67332259114582,138.76145395049485L230.84196874999998,138.24453893428466L230.87324088541666,140.68446287319313L231.1066650390625,137.923307771118L231.22840299479165,145.84700813506186L231.290947265625,141.03394710072362L231.34679036458334,145.36072365700295L231.35907584635416,143.4887329343503L231.860546875,145.51195892370018L231.94319466145834,138.35480848238632L232.24363053385417,139.07327908030607L232.2950061848958,138.47332918227588L232.38547200520836,140.47114124227093L232.72723177083333,142.9968355037482L233.68214876302082,141.47053704963395L233.70560286458334,132.05433031383913L233.7134208984375,136.9267553434596L233.73910872395834,141.10926206414854L233.783783203125,142.77350641521784L234.06969986979166,148.28571632337852L234.23276171875,141.7120118894117L234.46283528645833,138.1015840016566L234.4661858723958,139.88268996761812L234.788958984375,144.50616337082727L234.91851497395834,143.0200658367392L235.03466861979166,146.83099905588128L236.31124186197917,130.9696133597964L237.01486490885415,133.85812318737948L238.22554329427084,134.63835794756199L238.26351660156251,140.6247626279556L238.45673372395834,141.5757035577156L238.70914453125,138.44847367816317L238.7493515625,136.4062356690356L239.42616992187502,139.0810467016571L239.52892122395832,136.47263435970982L239.70203483072916,141.45289679989958L240.07730045572916,142.42510946646775L240.4402805989583,140.7351342207518L240.45703352864584,143.1880203423695L240.5720703125,144.84263114662744L240.69827571614584,147.99843462381824L240.81666308593748,146.08792753442566L241.14055305989584,146.41543770119213L241.79615104166666,144.52085532745517L242.053029296875,147.2716037827778L242.10887239583334,143.02601536679552L242.3646337890625,143.49155959259443L242.50200781249998,143.812829298204L242.6092265625,141.53757112200609L243.16989127604165,139.93540577456685L243.38097819010417,139.80729912319975L243.70040071614585,142.71574174180148L243.93382486979166,147.54529934444736L244.08460123697915,141.88771203380054L244.42636100260418,140.1704587520434L244.43082845052083,143.0304337858423L244.8820406901042,145.0409271254697L244.91331282552085,143.1264166661834L245.24390397135417,142.8580919151744" style="fill: none;" fill="none"></path></g></g></g></g><g opacity="0.2"><g><g><g><path stroke="rgb(255, 112, 67)" stroke-width="2px" d="M22.384147786458335,-149.284510421753L22.523755533854168,77.32080508470534L22.5930009765625,66.29022811055184L22.866632161458334,75.38913686275481L22.935877604166667,-29.421376693248764L22.983902669270833,87.7892575085163L22.991720703125,-161.3509450435639L23.059849283854167,23.507730406522754L23.2396640625,-45.1257727622986L23.469737630208336,12.476835143566136L23.826016601562497,49.339558970928195L23.884093424479165,58.91331483125687L23.941053385416666,26.230730903148654L24.273878255208334,-704.8372457504273L28.071208984374998,-15.45059363842012L28.306866861979167,39.707662355899814L28.729040690104167,62.35934813022614L28.934543294270835,126.09198619127272L29.027242838541664,-70.01717727184301L29.261783854166666,52.90717859268189L29.819097981770835,30.28858159184456L29.832500325520833,58.82080551683903L29.992211588541668,36.96830977201462L30.117300130208335,33.06925867199898L30.328387044270833,-33.502661395072955L31.046529296875,-19.59176968336107L31.085619466145832,31.519815516471866L31.345848307291668,-3.7956533908844152L31.47317057291667,78.99361830651759L31.518961914062498,45.02003509998322L31.828332682291666,97.36400802135466L31.839501302083335,114.82155207991599L32.252740234375,37.48802233934403L32.3164013671875,31.33459795713425L32.67938151041667,37.78742600679398L32.91168880208333,-45.62669302821161L33.007738932291666,-24.777543056011215L33.16856705729167,70.2975040346384L33.951487304687504,80.9483160495758L34.040836263020836,72.55122747719287L34.088861328125006,75.23268465399741L34.51661946614583,32.46473540067673L34.584748046875,75.97916473150252L34.64505859375,28.158367466926578L35.21689192708333,142.0093986995518L35.254865234375,-73.22104583978658L35.70496061197917,99.4574332654476L35.710544921875005,79.81158074438571L35.92274869791667,41.55384351015091L36.063473307291666,73.69503807723521L36.719071289062505,35.614866209030154L36.894418619791665,78.38177439272403L36.92457389322917,98.09620488882064L37.548899739583334,28.173910570144656L38.30166471354167,67.02021684944629L38.71937109375,26.810785722732547L38.8433427734375,9.851403427124028L38.948327799479166,15.870191645622258L39.61844498697916,46.679181796312335L39.943451822916664,82.49809075593947L40.33658723958333,96.45169947743415L41.16418196614583,130.0197230696678L41.39760611979167,85.50288293957709L41.43222884114583,102.160089802742L41.6779384765625,19.122280967235568L41.702509440104166,81.1382416307926L41.93034928385417,49.73875944018364L41.9459853515625,41.463290345668796L42.9444599609375,53.03664919435978L43.74636686197917,80.9528980821371L44.150670898437504,83.90432384312152L44.27240885416666,63.28299571275711L44.374043294270834,53.62981353402138L44.668894856770834,129.55786612331866L44.733672851562496,54.0408437371254L44.743724609375,83.24975628852843L44.94699348958333,101.63691584467887L45.0352255859375,48.86058737039566L45.165898437500005,34.009138983488086L45.276467773437496,107.61585828363894L45.320025390625,56.99512083530426L45.5445146484375,61.998156648874286L45.547865234374996,50.43989662528038L45.62939615885416,87.7954707711935L45.88069010416667,144.13415715545415L45.95216927083333,32.99516369104386L46.050453125000004,101.58734899461268L46.1476201171875,130.05833548009394L46.73844010416667,77.08362687826155L47.18183430989583,73.11618347167968L47.276767578125,101.51551519036292L47.30803971354167,84.8797066181898L48.179192057291665,23.6485599398613L48.19036067708333,138.8013675108552L48.344487630208334,70.20524669885634L48.428252278645836,13.235423457622533L48.50196516927083,82.17787895798682L48.628170572916666,100.80615554451941L48.77336263020833,107.39437900930642L48.8079853515625,107.48775367140769L49.306105794270835,70.29521633386611L49.45688216145833,90.80951322317122L49.459115885416665,85.29733468294143L49.501556640625004,83.29100121259688L49.83549837239583,95.02579216361045L49.953885742187495,36.381093454360965L50.185076171875004,92.80077439248561L50.54135514322917,113.82766213715075L50.69548209635416,144.38875835835933L51.16568098958333,146.03974227309226L51.204771158854165,3.893275749683384L51.287418945312496,148.55872296243905L51.71406022135417,112.63352875113486L52.2657900390625,75.974217993021L52.26690690104167,43.99529103636742L52.664509765625006,106.7053367987275L53.056528320312495,146.30035200603305L53.16598079427083,149.55779753141104L53.20507096354167,125.14390994310378L53.41392415364584,103.36960051655768L53.51555859375,79.07529917061328L54.098560546875,109.84828953146933L54.215831054687506,67.14565579295157L54.69273111979167,98.26176811456679L54.72176953125,69.77636579871177L54.795482421875,106.725200009346L54.950726236979165,86.86945591568946L55.019971679687494,57.45677222013474L55.252278971354166,25.388021510839465L55.4086396484375,90.79894338250159L55.65211555989583,114.40179545879363L55.848683268229166,78.56397483944892L55.8777216796875,61.49472985863686L56.037432942708335,76.71129528880118L56.208312825520835,116.63673986196517L56.36802408854167,99.71172612607478L56.526618489583335,50.30980933904648L56.631603515624995,125.25426995456218L56.64723958333334,142.64338523596524L57.41340690104167,55.41793350577355L57.45473079427084,78.06934077739714L57.942799479166666,83.78405046164988L58.00534375,89.89911441206931L58.308013346354166,132.194852386415L58.56265787760417,83.15621916651725L58.682162109375,131.79538004547356L58.81060123697917,147.79179946035146L58.927871744791666,96.46390054821967L59.07529752604167,118.9235752865672L59.084232421875,96.04684938192366L59.231658203125,102.84124110341071L59.3958369140625,144.8969263255596L59.61250813802083,101.61137316823005L59.6437802734375,120.71185108721255L60.01681217447916,108.90080675929784L60.03021451822917,97.65139628648757L60.070421549479164,112.20041394680737L60.130732096354166,96.13835741281508L60.172055989583335,95.64315971434115L60.2133798828125,125.94319280683993L60.35075390625,103.78384013175963L60.714850911458335,143.25888283997773L60.896899414062496,101.00838166177272L60.979547200520834,109.85409167110919L61.799323893229165,84.57203407287597L61.822777994791664,117.65824798941611L61.96685319010417,107.54100405126809L62.288509440104164,120.09170514047145L62.4917783203125,100.90028282701968L62.5855947265625,132.92081609815358L63.24677701822917,112.50923697352408L63.280282877604165,72.93750409483908L63.40090397135417,4.2325716137886085L63.493603515625,119.44006517976521L63.88673893229167,96.68284345865248L64.2072783203125,124.27480910420417L64.51441536458333,109.65018790662288L64.63950390625,148.73229728527366L65.2861669921875,146.64284153357147L65.58213541666667,92.58909244537352L65.71615885416666,91.98568981587886L65.87363639322916,92.79844690561293L66.22544791666667,81.87509347200393L66.67889388020834,148.82000657245516L66.91008430989584,106.98253650665282L67.03405598958334,114.32508785724639L67.34230989583332,107.37315644025801L67.57014973958333,102.96622913777827L67.75666569010417,74.76023797392844L67.815859375,118.07203337997197L67.89739029947917,95.00837911367415L68.17325520833334,89.28448547124862L68.43125032552084,100.63467745184897L68.7305693359375,106.32942114472388L69.39510221354168,79.93508343100547L69.74803059895832,149.2644786506891L69.76813411458333,118.10634226053952L70.00267513020833,116.92094523906707L70.94083919270834,120.50924037098883L71.0759794921875,129.12746672034262L71.1563935546875,113.48349579125642L71.186548828125,70.90656955242156L71.19101627604167,118.5262414485216L71.26137858072917,123.05377368330954L71.47134863281251,70.40510554313659L71.56069759114582,124.35779959410428L71.70253906250001,96.48095552325248L71.71035709635416,149.57895461916922L71.7594990234375,150.24807559773328L71.81869270833334,83.66358478069304L72.39052604166667,90.66509630978106L72.55582161458334,117.91180480718612L73.01150130208333,147.38369270674883L73.16227766927084,79.88405112624167L73.33092382812501,93.28638364076613L74.068052734375,121.87366821318864L74.08592252604166,116.33927245140075L74.17415462239585,109.79870610386132L75.16592805989583,152.70137606635691L75.542310546875,111.006847512722L75.61714029947916,150.2724412687123L75.66069791666666,106.21197257637976L75.81482486979166,128.7471248626709L75.8874208984375,94.31522567272185L75.91310872395833,121.03308406174182L76.03149609375001,71.9104922235012L76.1487666015625,134.9662891447544L76.20014225260418,93.25905058979987L76.52961653645832,87.68033642768859L77.36726302083333,137.51638422235845L77.4554951171875,125.28196771144866L77.59621972656251,91.64407972693442L78.18703971354167,106.72436118572949L78.2428828125,130.37218813300132L78.36462076822917,120.7243008211255L78.39812662760417,89.66102112531661L79.09504850260417,111.47221889793872L79.27374641927084,125.09133924245833L79.44686002604166,125.29882375597953L79.55072819010417,116.20823692977427L80.18845638020834,106.27785172760485L80.41517936197917,127.78068069815635L80.74018619791667,100.69363382160662L80.80831477864584,97.7222685933113L80.98366210937499,106.15189556479453L81.17576236979167,135.92989523410796L81.42593945312501,153.50772179178895L81.46279589843749,106.74122054576873L81.63367578124999,96.86035577654837L81.6504287109375,128.53278719335793L82.05361588541666,130.6577263444662L82.31942903645833,127.57307019531726L82.33171451822916,97.51190621852874L82.49365950520834,127.14181539118289L82.54280143229167,116.14646237790583L82.78516048177083,136.54687818586825L83.4195380859375,118.1340300709009L83.54909407552084,96.08621109724044L83.6942861328125,111.88429680168628L83.744544921875,142.48002350777386L84.09859016927084,105.96786164194344L84.3711044921875,101.38252351880072L84.38003938802083,111.66233677864074L84.56097102864582,125.31700600385665L84.62016471354166,91.01268094480037L85.25789290364584,116.88798245489596L85.44775944010416,125.27295615971087L85.46339550781249,117.07028236687182L85.56056249999999,97.31748480796813L85.76048079427083,126.21499155163764L85.79733723958333,98.58785499334334L86.33901529947917,84.37691640555857L86.53893359375,148.50485258251427L87.60665364583333,120.48115801513194L87.73620963541666,123.20066396594046L87.91825813802083,136.99930582642554L87.94841341145833,129.0232934474945L87.96740006510417,118.11934899985789L88.52694791666666,124.16113358438014L88.5794404296875,111.9577552050352L88.71458072916667,141.26205161660909L88.94688802083333,137.83569585978984L88.98039388020834,98.72769650518893L89.54887662760416,150.37092844471337L89.55557779947917,119.3635764017701L89.58014876302084,130.08703452050685L89.68066634114582,131.98759664297103L89.8794677734375,119.28197179436683L90.69477701822917,91.70801599025725L90.77407421875,86.98526662290095L90.95500585937499,127.41674397587775L91.22528645833333,128.69589362740516L91.73792610677084,149.7604612957686L91.82727506510416,135.4245620265603L92.15898307291667,97.42734086215495L92.19360579427084,147.37345690354704L92.55881966145833,116.19171243607997L92.72634895833333,120.56256369203328L92.94525390625,123.46362688094376L93.27249446614583,116.81124169826506L93.44895865885417,111.67006191313266L93.66562988281251,150.28831343613567L94.39829134114584,129.22150779962539L94.58369042968751,134.04048482403158L94.80929654947916,136.8605203039944L95.25939192708333,88.29946782886981L95.60450227864582,136.61582086682319L95.65141048177082,127.74276454448699L96.1048564453125,142.5596553876996L96.382955078125,124.70895503163337L96.9291005859375,125.82398701906203L97.1401875,134.61241167485713L97.1904462890625,144.15895052701234L97.65841145833333,119.50264871567487L98.5775888671875,126.35001562982796L98.5976923828125,144.2322033688426L98.70602799479167,128.68125897347926L98.76298795572917,106.48438800573348L98.942802734375,129.11232810914515L99.59169954427084,152.45077668204905L99.60733561197917,116.090224725008L99.90888834635416,137.47246534079312L100.20373990885416,133.86849780082701L100.29197200520832,112.6352130293846L100.42264485677083,116.57043632566928L101.033568359375,133.62982098460196L101.16535807291667,108.1787155613303L101.25023958333333,111.22084036916493L101.5395068359375,124.7757757872343L101.62997265624999,88.2459091067314L102.11245703125,124.62910764366387L102.253181640625,99.1829622209072L102.28222005208333,123.99353795200585L102.41177604166667,104.70530942529439L102.64631705729167,140.67867134213446L102.70327701822917,97.20821228325366L102.72784798177084,130.50035905539988L102.76470442708334,114.26338624656199L102.79262597656249,131.70182303041219L103.08301009114582,126.75619855970143L103.08524381510418,101.96779031753539L103.19916373697916,111.9589222639799L103.20251432291667,125.5931414335966L103.37451106770833,122.43704934120177L103.55879329427083,146.9441872600466L103.72632259114583,101.80662345588206L103.87821582031249,144.5953775241971L104.06808235677083,131.548129324615L104.75495247395833,152.22436558902265L104.80744498697916,127.98843045234679L104.87445670572917,129.49718568921088L104.90014453124999,142.67584737837313L105.19387923177084,112.63456318974494L105.99131868489583,117.7688500329852L106.29287141927082,122.42152613103389L106.6256962890625,119.63319022655486L106.6457998046875,145.5330480493605L106.73514876302085,139.95801575928925L107.1383359375,143.9138847261667L107.46222591145833,122.4054724395275L107.70011751302084,128.35726086497306L107.75707747395833,131.14802372157573L107.91790559895834,119.0931569084525L107.97039811197916,137.29880232810973L108.10107096354166,126.12333763837813L108.230626953125,142.82954771518706L108.23844498697918,116.52834263145922L108.55675065104167,140.31596301570534L108.927548828125,118.25066302418708L109.34190462239583,133.0280495852232L109.60325032552083,147.35687438845633L109.68478125,154.14875627011062L110.3180419921875,128.09376083761452L110.39398860677083,113.15112270861863L110.47998697916667,111.57009270489215L110.495623046875,110.1086033552885L110.5391806640625,120.30156355798243L110.57492024739584,146.85147321298717L111.03618424479167,127.32364450097083L111.2361025390625,125.20687144696711L111.6582763671875,102.73844708204268L111.72082063802083,135.55553123801946L111.72528808593749,134.70576312839984L111.79788411458333,135.69752119928597L111.87048014322917,154.89794387463482L112.12177408854167,132.55133584588765L112.13964388020834,138.01369721516966L112.30047200520833,152.89020752981307L112.32951041666666,140.22123728394507L112.37083430989583,152.49517299681904L112.79859244791666,105.35103451907634L112.81981282552084,109.76715241074561L112.93373274739582,138.53101764321326L113.22858430989584,125.33081178069114L113.35478971354166,90.24940450191497L113.3938798828125,123.27740472257136L114.74193229166666,123.93831152915953L114.77990559895834,123.25982589721679L114.8681376953125,114.4558017745614L115.33498600260417,118.81808244138955L115.88783268229167,153.07131717428567L116.37366764322917,113.31091363430022L116.61044238281251,145.93007851839064L116.8248798828125,100.35638694167136L116.91981315104167,114.44577899277209L117.06723893229166,130.3694296300411L117.36990852864582,96.2842928290367L117.45925748697917,126.33624300807713L117.83787369791666,150.9306824065745L117.87249641927083,130.1442933499813L117.90935286458334,143.0606618568301L118.03667513020834,134.60290611237286L118.10703743489584,123.02640747725962L118.403005859375,121.55687470436095L119.25852213541667,140.49193859547375L119.35345540364584,127.72887919545173L119.51316666666668,134.60505787730216L119.94315852864582,135.3000680029392L120.00681966145832,139.06395577341317L120.24806184895833,121.73231482952832L120.4301103515625,130.1838341027498L120.77410384114583,152.61264145821335L121.37385872395832,123.1357662051916L121.53133626302083,128.63815073370932L122.03057356770833,131.12327676713466L122.1255068359375,125.12930181324481L122.14337662760417,114.37071256786584L122.57001790364583,125.82931172549723L122.82466243489584,91.92319911420344L122.89390787760416,120.78502435684203L123.11951399739584,153.30761594213547L123.35740559895834,133.10746595710515L124.07666471354166,99.52878300547599L124.30673828125,119.07444086372851L124.6686015625,144.34617396891116L124.69093880208334,118.51266112625598L124.69428938802082,133.84360496401786L124.78922265625,112.18285833001136L124.7925732421875,113.54238916635512L125.22256510416666,105.86665574908255L125.90273404947916,107.69544374644755L125.96862890624999,127.22413283288478L126.34612825520833,132.39033807516097L126.4544638671875,135.11638718172907L126.73144563802084,155.08411257043483L127.2116962890625,149.81972517892717L127.92090364583333,149.00354648455976L128.19788541666668,151.13754526227714L128.31738964843748,132.23167773783206L128.50278873697917,115.22958174794911L128.64463020833333,121.23807199746369L128.79764029947916,127.21557550579308L128.8601845703125,134.37476266622542L128.89592415364584,137.79054029360412L128.97522135416668,107.732000541687L129.39962890625,127.55589254647492L129.49902962239582,125.32744985520839L129.52471744791666,114.12395585775374L129.8921650390625,131.16320543438195L130.1535107421875,102.33944554328917L130.22610677083333,126.38488483130931L130.84708203124998,132.7170432962477L130.92526236979165,122.42355522215365L131.13746614583334,136.32713623791932L131.33850130208333,148.31756034381687L131.56187369791667,142.87073296010493L131.65122265624998,141.12117235064505L131.77407747395833,126.61273982822894L132.02648828125,156.02129281479867L132.24092578125,129.74488731920718L132.31910611979166,138.34936757087706L132.37383235677083,109.14840892404317L132.96800292968751,131.8055255010724L133.47170768229168,126.77447032630442L133.59009505208334,125.7873904377222L133.59232877604168,124.03495196700095L133.89388151041666,151.51344019435348L134.65558138020833,105.77415306568145L134.68126920572917,142.38303659930824L134.86220084635414,126.60075758099555L134.981705078125,136.13937071040272L135.04759993489586,116.8924451291561L135.13694889322917,114.8488420292735L135.22071354166664,135.88247020244597L135.3134130859375,125.53535875380038L135.40164518229167,140.15272561907767L135.5144482421875,135.68319157212972L135.6216669921875,122.81656563729047L135.69761360677083,136.37548629641532L136.1711630859375,133.56084680631756L136.19350032552083,127.01239783763884L136.6000380859375,141.4554684281349L136.82564420572916,152.84609303325416L136.8613837890625,117.4030135244131L136.9216943359375,153.22553970366718L137.0222119140625,123.07710823118686L137.24,123.57443448603152L137.27462272135415,133.2812284350395L137.33605013020835,121.18734140396117L137.37514029947917,91.22287091314791L137.38630891927085,151.5071183487773L137.60409700520833,126.47772569656371L137.95144108072915,130.90369396358727L138.43169173177085,151.97749283611776L138.7991393229167,131.90334625989198L138.8639173177083,126.06041260510682L139.27715625,118.02007604837416L139.40894596354164,155.33364684768023L139.47595768229166,128.31542578041552L139.49159375,146.19888170138L139.50834667968752,146.37962000891565L139.52286588541665,137.22953638508915L139.71161555989585,106.69420000612735L140.09246549479167,123.56464378982781L140.289033203125,129.78228293806313L140.47219856770832,133.85450635552405L140.48783463541668,133.12313504964112L140.95915039062498,124.62764218896626L141.0228115234375,138.16795953065156L141.160185546875,144.52234682142733L141.35675325520833,133.93049117624759L141.468439453125,132.31102448403834L141.95650813802084,121.54607277810572L142.69475390624999,133.05264402627944L142.77628483072917,130.04928745776414L143.45980436197917,113.84329144358634L143.612814453125,154.89145335257055L144.34547591145835,145.158085604012L144.3465927734375,126.87993664741515L144.41137076822915,127.5270409926772L144.6347431640625,90.05744982957839L144.99325585937498,133.41082171052693L145.26241959635416,117.98852898627518L145.4053779296875,127.37607595026492L145.442234375,119.69761055409907L145.65890559895834,106.54251549839972L145.8465384114583,131.95178252160548L145.9079658203125,125.11450138390063L146.0151845703125,108.80192835330962L146.5255904947917,142.9243331260979L146.5713818359375,147.30892053321003L146.66966569010415,127.75094721913337L146.91760904947915,114.07653082609175L147.08848893229168,130.88443417549132L147.33084798177083,155.8705155130476L147.95070638020835,131.1249510988593L148.16737760416666,130.4574199065566L148.21093522135416,154.24958875384183L148.43319075520833,119.9144978493452L148.90227278645835,140.34982264488934L149.20047493489582,141.45619783997535L149.37023795572918,129.7843020826578L149.63716796875002,130.9943896949291L149.98562890624999,145.48626622632145L150.17214485677084,108.83888300955294L150.57533203124999,132.25057613551616L150.8835859375,134.7858077891171L150.94277962239582,131.75265640467404L151.34149934895834,151.8423079557717L151.35490169270835,134.9850416600704L151.6307666015625,108.81677519977092L151.75697200520833,146.7601259842515L151.9367867838542,140.57691175937651L152.03730436197915,141.52748458534478L152.39916764322916,140.67955160960554L152.64487727864585,156.09567417278888L152.68731803385415,122.28402536809443L152.76773209635417,123.40977970957755L152.81128971354167,152.41698667854072L153.02796093749998,134.5808878213167L153.04359700520834,127.97574531733989L153.06258365885418,129.66109779179095L153.18320475260415,129.8443160995841L153.71929850260418,149.6364413898438L153.9315022786458,142.90217724144458L154.06105826822917,138.31112649738787L154.30676790364583,148.11344687342643L154.3391569010417,133.02307300716637L154.8540302734375,154.08220158405604L155.14106380208332,134.49612684994935L155.17345279947918,140.23621840849518L155.24158138020834,155.99229496419431L155.581107421875,115.2949304178357L155.768740234375,119.03354738354682L156.33722298177085,115.13056409060954L157.6919765625,128.41871381253003L157.69309342447914,156.18451487720014L157.84833723958332,134.95883422419428L157.88184309895834,121.52985331118106L157.92763444010419,120.18282194137572L158.41011881510417,155.61470249183478L158.45702701822916,128.9613398581743L158.82335774739585,143.39601889699696L159.28908919270833,130.11171184927224L159.30249153645832,148.14765297323464L159.41976204427084,124.15653828978537L159.78720963541664,117.04689808636903L160.39143196614583,122.94623848497866L160.41823665364583,156.11045553795995L160.45509309895832,109.22629021555184L160.94316178385418,144.23441481292247L161.04814680989585,142.4944907285273L161.42229557291665,129.22368277311324L161.67694010416665,131.23048041462897L161.74171809895833,110.16589202433823L161.99301204427084,114.78162009716033L162.268876953125,146.10496661141514L163.55773567708331,129.908534181118L163.82913313802084,135.78073382824658L164.10611490885418,149.91775647252797L164.16530859375,135.2391289591789L164.2870465494792,132.639687512815L164.43558919270833,146.82587168626486L164.641091796875,133.806083355844L164.78405013020833,146.63735105171799L164.89015201822917,128.52762163132428L165.05544759114585,128.8189719289541L165.0911871744792,112.06904687434434L165.15931575520835,129.30706117749213L165.17941927083334,117.80333463549613L165.4206614583333,140.31366868391632L165.63509895833334,144.82567936629056L165.75125260416667,139.4502124980092L166.24713932291667,124.21640973985194L166.57549674479168,155.60140315890314L166.76759700520833,139.88268409371375L166.865880859375,137.3750242076814L166.879283203125,146.80379040054976L166.88821809895833,132.34766416698693L166.973099609375,155.63826125096531L167.02112467447918,131.15466800034045L167.44553222656248,142.18995299637317L167.60859407552084,137.478303951025L168.31445084635416,148.88444927968084L168.56351106770833,133.68725222051143L169.1945380859375,118.49468443989753L169.20682356770834,134.20717200711368L169.40562500000001,140.5430040553212L169.46593554687502,146.79931777976452L169.62452994791667,155.69188379663976L170.51801953125,139.43637356609105L170.78606640625,128.4959021627903L171.10995638020833,128.73241063654422L171.235044921875,133.9765435874462L171.4695859375,153.31547784134747L171.55,139.48544972091912L171.84038411458334,131.69477757513522L172.00456282552085,142.4263835556805L172.41668489583333,125.51918570399283L172.4312041015625,132.20619474053382L172.52613736979166,139.6648817181587L172.97623274739584,149.16677890792488L173.0946201171875,124.73620187938212L173.80047688802082,157.43955290857704L174.08751041666665,123.85784414112567L174.4638929036458,129.5062602356076L174.54319010416665,148.1376832395792L174.63030533854166,148.0190352860838L174.98211686197916,145.80484016314148L174.987701171875,153.88399386294188L175.0044541015625,143.06636784672736L175.3730185546875,147.49308293201028L175.40875813802083,128.98351397812365L175.62877994791666,127.9741041406989L175.885658203125,122.02416908442973L175.97835774739582,119.80971120744942L175.999578125,143.29631990268825L176.11461490885418,146.15754228532313L176.42621940104166,134.16320670843123L176.96007942708334,121.67497974336146L176.9913515625,134.50532738566397L177.08740169270834,153.9127293739468L177.51292610677083,146.11513030230998L177.86920507812502,139.61439315676688L178.03115006510416,139.29206606447696L178.08252571614585,133.8651226133108L178.66999511718748,137.46709090173243L178.71466959635418,134.45949545577167L178.74817545572915,145.2254202634096L178.75934407552083,136.05272155702113L178.8442255859375,132.25142490565776L178.88219889322917,128.72508336305617L178.97936588541666,149.54819996356963L179.01398860677085,116.37880657315253L179.53556315104166,133.60683290734886L179.8024931640625,126.69493791162967L180.06272200520834,144.54465687721967L180.7674619140625,155.82521738000216L180.8076689453125,137.13225439637898L180.91600455729167,134.51672941893338L181.15054557291666,154.6712497200817L181.15166243489583,127.98944499790667L181.4856041666667,135.30281158611177L181.77040397135417,135.53533979207276L181.92788151041665,152.73033122979106L182.25623893229167,139.14120048731564L182.43046940104168,127.13783678114413L182.59018066406247,136.77224489375948L182.6862307942708,141.77437557354568L182.9051357421875,142.85377910807728L182.93305729166667,118.31210602521895L183.07378190104166,154.57640587333591L183.15196223958333,144.72104358002542L183.417775390625,155.71066905260088L183.48367024739585,123.32703125178813L183.61657682291667,149.87714481055735L183.75506770833334,154.5572351895273L184.97803157552084,132.79793672710656L185.0763154296875,155.42130350116642L185.119873046875,156.83611007854344L185.16566438802084,145.27389299571513L185.74754947916665,132.95698166340588L185.84471647135416,132.889172886312L186.17642447916666,132.4923396900296L186.92472200520834,136.89166784733533L187.06432975260418,132.22405869960784L187.8438994140625,125.82034659087657L187.95446875000002,144.76108331680297L188.10636197916665,152.59531792700292L188.24261914062498,119.4802358791232L188.30739713541666,150.78755688369276L188.38446061197916,149.17367184981703L188.38892805989585,140.0852997832L188.50173111979166,133.57743761017917L188.59778125,154.29607756882908L189.24332747395835,142.54154442325233L189.36953287760417,137.66834391728042L189.51249121093753,138.58049497455357L189.73921419270835,112.53881793916224L189.79617415364584,111.90867573469876L189.87323763020834,137.56390706151723L189.877705078125,124.65909973233937L190.46629134114585,120.99649411141871L190.48751171875,138.46372276991605L190.57686067708332,130.08944489508866L190.71311783854165,103.74794643819331L190.83038834635414,147.17127637453376L191.03030664062499,145.53559933304786L191.04594270833334,146.25856250971555L191.08614973958333,146.34487016573547L191.13194108072918,140.08873962312936L191.23692610677082,123.06893881857394L191.29165234375,122.53446560800074L191.39998795572916,138.67667455673217L191.49268750000002,140.94707832187413L191.5898544921875,155.15492975693198L191.6099580078125,154.0873310899362L191.760734375,119.84365206658839L192.68437923177083,140.5469395637512L192.95577669270835,148.13824936263262L193.83809765625,145.76197892874478L193.91292740885416,129.7316319167614L193.98105598958333,155.34595152810218L194.38312630208333,130.59118740707635L194.91586946614584,154.47953459322454L195.07558072916666,124.03097998797892L195.66193326822918,140.3498359069228L195.74904850260418,133.82347153946756L196.10309375,146.34690920338033L196.25498697916666,138.00021470040082L196.2717399088542,138.8472574621439L196.91281868489583,109.69818320572375L197.00551822916665,147.31512053385376L197.29590234375,145.84792353659867L197.49023632812498,145.43228311911224L197.57176725260416,139.4313903570175L197.73482910156253,143.44096392840146L197.75604947916668,147.16029706858097L197.82976236979167,133.95066936016082L198.0095771484375,136.38471667170523L198.11121158854166,148.1955736733973L198.16482096354167,141.74413482174276L198.38037532552082,141.4583048455417L198.58811165364585,154.88499267008157L198.7199013671875,136.67972729057072L198.76904329427083,147.76818640977143L198.79584798177083,140.2263763219118L198.8472236328125,129.4577477172017L199.581001953125,145.23513636067509L199.755232421875,147.8279318705201L199.90042447916667,123.93592104762791L200.07800553385417,143.07982383742927L200.37397395833335,141.45670677050947L200.50129622395835,138.49207699745892L200.78832975260417,143.36997226327657L201.26076236979165,147.49445472359656L201.31660546875,146.61475088894366L201.50870572916668,131.8431764140725L201.55002962239584,147.1788166694343L201.82589453125001,138.28928724378346L202.100642578125,135.94455806985496L202.32959928385418,141.69890134111046L202.36087141927084,125.23602139651774L202.55855598958334,142.97269478887318L203.21303710937502,132.3986301615834L203.23872493489583,131.16155431121587L203.427474609375,146.9704552039504L203.42859147135417,139.95579105317591L203.49895377604167,149.51286990642546L203.59053645833333,146.88853230774401L203.73461165364583,144.1513513818383L203.79827278645834,115.20505693256854L203.92001074218751,124.72804572880267L203.99930794270833,151.34437330514194L204.15008430989582,156.30756085254254L204.52870052083333,139.39262543320655L204.71633333333335,127.67179940342902L205.45346223958333,155.77391651906075L205.58413509114584,130.20410512089728L206.19729231770833,156.0763290103525L206.41731412760416,143.9655071914196L206.46198860677083,142.7918537005782L206.59936263020833,154.64954267237337L207.1365732421875,140.0349156603217L207.28623274739584,143.50771174281834L207.51295572916666,156.17361721564086L207.73297753906252,120.61077781468629L208.0691529947917,136.43247491195797L208.0948408203125,139.5144803121686L208.3092783203125,150.96826949603857L208.707998046875,129.87275984585284L208.79399641927083,147.06172866262494L209.0196025390625,145.23976315259932L209.11453580729165,137.1651873409748L209.23850748697916,141.9020872980356L209.29546744791668,139.90264013856648L209.57244921875002,141.68707326501607L210.0113759765625,139.29611761569976L210.17108723958333,140.8457994878292L210.40451139322914,127.14594983011483L210.58320930989584,139.45079768523573L210.77419270833335,142.4520920075476L210.93725455729165,138.56257465183734L210.9495400390625,144.59143870025872L211.09361523437502,105.50592180788516L211.11595247395834,132.64025943800806L211.44766048177084,136.90822881162165L211.70565559895834,143.5550041541457L211.99715657552085,135.3890612207353L212.0619345703125,145.28915096521376L212.1624521484375,122.69203845858573L212.41374609375,140.14707267731427L212.75662272135418,143.15955849811434L213.55741276041667,123.67649909555911L214.01309244791668,154.2520604653284L214.05665006510415,133.14235173612832L214.06781868489583,129.3399410739541L214.6954951171875,139.27495306804775L214.90211458333332,142.15485834032296L215.52308984375,151.8661448031664L215.65823014322916,144.85031027793883L215.74869596354168,134.54238482266663L215.76544889322915,146.9249879799783L215.88383626302084,136.6484918862581L216.079287109375,152.13045381456615L216.17533723958334,139.53412469923495L216.38642415364583,122.90200297236441L217.13360481770832,144.90125637948512L217.39383365885416,137.19254691600798L217.700970703125,157.86526998486372L217.91094075520834,133.33585475087165L217.97795247395834,145.56079719662665L218.0929892578125,131.65356249064206L218.210259765625,121.62976615577935L218.40347688802083,123.59847192168235L218.99541373697917,145.30392984375356L219.2053837890625,131.61041114926337L219.22101985677085,157.038748769369L219.23777278645835,141.30611969605087L219.31595312500002,130.69329843372105L219.55607845052083,148.18962233588098L220.11674316406248,125.77725492864846L220.7868603515625,148.67242997959255L220.88961165364583,141.51092362105845L221.0303362630208,137.0168962560594L221.353109375,138.22711648866533L221.87691764322918,154.69423448182644L221.88361881510414,140.3129376143217L221.92159212239582,137.0477951362729L222.0667841796875,130.87664936184882L222.44204980468749,141.37106387391685L222.4744388020833,146.74345229268073L222.76705664062501,144.1854646474123L222.82178287760416,122.54649427235125L223.015,152.42377683967354L223.17694498697918,139.9983820736408L223.33442252604166,141.9020408809185L223.72420735677082,137.99523149132727L223.75771321614585,146.17461549565195L224.04698046875,136.17607338801025L224.54398404947918,132.23609399497508L224.54845149739583,147.56306751146911L224.60987890625,145.01555024161934L224.7874599609375,142.30660584270953L224.8209658203125,116.86455507278441L224.93711946614582,146.75869119800626L225.00636490885418,143.02088570296763L225.19958203124997,138.55068026557564L225.70328678385417,143.31011241748928L226.16678450520834,142.58377571105956L226.53869954427086,135.26490372121333L226.59901009114583,126.25561316013335L226.6604375,136.75129419639705L226.66602180989585,148.02574338838457L226.97315885416666,139.57243871390818L227.0256513671875,129.13358051776885L227.02788509114583,144.35516562759875L227.26577669270836,141.1494536370039L227.39086523437498,153.61354784555735L227.62763997395834,133.17070927917956L227.75161165364585,136.82876602262257L227.7627802734375,120.40402271300553L228.00625618489585,157.4106404323131L228.67190592447918,123.97717923372983L228.68307454427085,140.93392072692512L228.7612548828125,147.71262677833437L229.02148372395834,129.9629516199231L229.64357584635417,139.38880596756934L230.07915201822917,144.58552880659698L230.3326796875,140.07290972843765L230.34719889322915,139.72827589586376L230.5817399088542,143.6802408516407L230.67332259114582,134.60002327784895L230.84196874999998,137.46916640996932L230.87324088541666,144.34434878155588L231.1066650390625,133.78157511800526L231.22840299479165,157.7325586809777L231.290947265625,133.81435554921626L231.34679036458334,151.85088849142195L231.35907584635416,140.68074685037135L231.860546875,148.54679790772497L231.94319466145834,127.61908282041549L232.24363053385417,140.15098497718571L232.2950061848958,137.57340433523058L232.38547200520836,143.46785933226346L232.72723177083333,146.78537689596413L233.68214876302082,139.18108936846255L233.70560286458334,117.93002021014689L233.7134208984375,144.23539288789033L233.73910872395834,147.38302214518188L233.783783203125,145.2698729418218L234.06969986979166,156.55403118561955L234.23276171875,131.85145523846148L234.46283528645833,132.6859421700239L234.4661858723958,142.5543489165604L234.788958984375,151.44137347564103L234.91851497395834,140.7909195356071L235.03466861979166,152.54739888459446L236.31124186197917,107.17753481566905L237.01486490885415,138.19088792875408L238.22554329427084,135.80871008783578L238.26351660156251,149.60436964854597L238.45673372395834,143.0021149523556L238.70914453125,133.7576288588345L238.7493515625,133.34287865534424L239.42616992187502,143.09326325058936L239.52892122395832,132.56001584678887L239.70203483072916,148.9232904601842L240.07730045572916,143.88342846632003L240.4402805989583,138.20017135217785L240.45703352864584,146.867349524796L240.5720703125,147.32454735301434L240.69827571614584,152.7321398396045L240.81666308593748,143.22216690033673L241.14055305989584,146.90670295134186L241.79615104166666,141.67898176684974L242.053029296875,151.39772646576168L242.10887239583334,136.65763274282216L242.3646337890625,144.18987593129276L242.50200781249998,144.2947338566184L242.6092265625,138.12468385770916L243.16989127604165,137.53215775340794L243.38097819010417,139.61513914614915L243.70040071614585,147.07840566970407L243.93382486979166,154.7896357484162L244.08460123697915,133.4013310678303L244.42636100260418,137.59457882940768L244.43082845052083,147.32039633654057L244.8820406901042,148.0566671349108L244.91331282552085,140.2546509772539L245.24390397135417,142.455604788661" style="fill: none;" fill="none"></path></g></g></g></g></g></g><g transform="translate(61, 178)" clip-path="url(#clip_1)"><clipPath id="clip_1"><rect width="268" height="22"></rect></clipPath><g><g><line x1="0" y1="0" x2="0" y2="5" style="visibility: inherit;" fill="rgb(0, 0, 0)" stroke="rgb(204, 204, 204)" stroke-width="1px"></line><line x1="22.337239583333332" y1="0" x2="22.337239583333332" y2="5" style="visibility: inherit;" fill="rgb(0, 0, 0)" stroke="rgb(204, 204, 204)" stroke-width="1px"></line><line x1="44.674479166666664" y1="0" x2="44.674479166666664" y2="5" style="visibility: inherit;" fill="rgb(0, 0, 0)" stroke="rgb(204, 204, 204)" stroke-width="1px"></line><line x1="67.01171875" y1="0" x2="67.01171875" y2="5" style="visibility: inherit;" fill="rgb(0, 0, 0)" stroke="rgb(204, 204, 204)" stroke-width="1px"></line><line x1="89.34895833333333" y1="0" x2="89.34895833333333" y2="5" style="visibility: inherit;" fill="rgb(0, 0, 0)" stroke="rgb(204, 204, 204)" stroke-width="1px"></line><line x1="111.68619791666667" y1="0" x2="111.68619791666667" y2="5" style="visibility: inherit;" fill="rgb(0, 0, 0)" stroke="rgb(204, 204, 204)" stroke-width="1px"></line><line x1="134.0234375" y1="0" x2="134.0234375" y2="5" style="visibility: inherit;" fill="rgb(0, 0, 0)" stroke="rgb(204, 204, 204)" stroke-width="1px"></line><line x1="156.36067708333334" y1="0" x2="156.36067708333334" y2="5" style="visibility: inherit;" fill="rgb(0, 0, 0)" stroke="rgb(204, 204, 204)" stroke-width="1px"></line><line x1="178.69791666666666" y1="0" x2="178.69791666666666" y2="5" style="visibility: inherit;" fill="rgb(0, 0, 0)" stroke="rgb(204, 204, 204)" stroke-width="1px"></line><line x1="201.03515625" y1="0" x2="201.03515625" y2="5" style="visibility: inherit;" fill="rgb(0, 0, 0)" stroke="rgb(204, 204, 204)" stroke-width="1px"></line><line x1="223.37239583333334" y1="0" x2="223.37239583333334" y2="5" style="visibility: inherit;" fill="rgb(0, 0, 0)" stroke="rgb(204, 204, 204)" stroke-width="1px"></line><line x1="245.70963541666666" y1="0" x2="245.70963541666666" y2="5" style="visibility: inherit;" fill="rgb(0, 0, 0)" stroke="rgb(204, 204, 204)" stroke-width="1px"></line><line x1="268.046875" y1="0" x2="268.046875" y2="5" style="visibility: inherit;" fill="rgb(0, 0, 0)" stroke="rgb(204, 204, 204)" stroke-width="1px"></line></g><g transform="translate(0, 8)"><text x="0" y="0" dx="0em" dy="0.95em" style="text-anchor: middle; visibility: hidden; font-family: Roboto, sans-serif; font-size: 12px; font-weight: 200;" fill="rgb(50, 49, 63)" stroke="none" stroke-width="1px">-20k</text><text x="22.337239583333332" y="0" dx="0em" dy="0.95em" style="text-anchor: middle; visibility: inherit; font-family: Roboto, sans-serif; font-size: 12px; font-weight: 200;" fill="rgb(50, 49, 63)" stroke="none" stroke-width="1px">0</text><text x="44.674479166666664" y="0" dx="0em" dy="0.95em" style="text-anchor: middle; visibility: hidden; font-family: Roboto, sans-serif; font-size: 12px; font-weight: 200;" fill="rgb(50, 49, 63)" stroke="none" stroke-width="1px">20k</text><text x="67.01171875" y="0" dx="0em" dy="0.95em" style="text-anchor: middle; visibility: inherit; font-family: Roboto, sans-serif; font-size: 12px; font-weight: 200;" fill="rgb(50, 49, 63)" stroke="none" stroke-width="1px">40k</text><text x="89.34895833333333" y="0" dx="0em" dy="0.95em" style="text-anchor: middle; visibility: hidden; font-family: Roboto, sans-serif; font-size: 12px; font-weight: 200;" fill="rgb(50, 49, 63)" stroke="none" stroke-width="1px">60k</text><text x="111.68619791666667" y="0" dx="0em" dy="0.95em" style="text-anchor: middle; visibility: inherit; font-family: Roboto, sans-serif; font-size: 12px; font-weight: 200;" fill="rgb(50, 49, 63)" stroke="none" stroke-width="1px">80k</text><text x="134.0234375" y="0" dx="0em" dy="0.95em" style="text-anchor: middle; visibility: hidden; font-family: Roboto, sans-serif; font-size: 12px; font-weight: 200;" fill="rgb(50, 49, 63)" stroke="none" stroke-width="1px">100k</text><text x="156.36067708333334" y="0" dx="0em" dy="0.95em" style="text-anchor: middle; visibility: inherit; font-family: Roboto, sans-serif; font-size: 12px; font-weight: 200;" fill="rgb(50, 49, 63)" stroke="none" stroke-width="1px">120k</text><text x="178.69791666666666" y="0" dx="0em" dy="0.95em" style="text-anchor: middle; visibility: hidden; font-family: Roboto, sans-serif; font-size: 12px; font-weight: 200;" fill="rgb(50, 49, 63)" stroke="none" stroke-width="1px">140k</text><text x="201.03515625" y="0" dx="0em" dy="0.95em" style="text-anchor: middle; visibility: inherit; font-family: Roboto, sans-serif; font-size: 12px; font-weight: 200;" fill="rgb(50, 49, 63)" stroke="none" stroke-width="1px">160k</text><text x="223.37239583333334" y="0" dx="0em" dy="0.95em" style="text-anchor: middle; visibility: hidden; font-family: Roboto, sans-serif; font-size: 12px; font-weight: 200;" fill="rgb(50, 49, 63)" stroke="none" stroke-width="1px">180k</text><text x="245.70963541666666" y="0" dx="0em" dy="0.95em" style="text-anchor: middle; visibility: inherit; font-family: Roboto, sans-serif; font-size: 12px; font-weight: 200;" fill="rgb(50, 49, 63)" stroke="none" stroke-width="1px">200k</text><text x="268.046875" y="0" dx="0em" dy="0.95em" style="text-anchor: middle; visibility: hidden; font-family: Roboto, sans-serif; font-size: 12px; font-weight: 200;" fill="rgb(50, 49, 63)" stroke="none" stroke-width="1px">220k</text></g><line x1="0" y1="0" x2="268.046875" y2="0" fill="rgb(0, 0, 0)" stroke="rgb(204, 204, 204)" stroke-width="1px"></line></g></g></g></g></svg>