<svg viewBox="0 0 330 200" xmlns="http://www.w3.org/2000/svg"><g><g><g><g><g><line x1="30.78125" y1="178" x2="25.78125" y2="178" style="visibility: inherit;" fill="rgb(0, 0, 0)" stroke="rgb(204, 204, 204)" stroke-width="1px"></line><line x1="30.78125" y1="161.8181818181818" x2="25.78125" y2="161.8181818181818" style="visibility: inherit;" fill="rgb(0, 0, 0)" stroke="rgb(204, 204, 204)" stroke-width="1px"></line><line x1="30.78125" y1="145.63636363636363" x2="25.78125" y2="145.63636363636363" style="visibility: inherit;" fill="rgb(0, 0, 0)" stroke="rgb(204, 204, 204)" stroke-width="1px"></line><line x1="30.78125" y1="129.45454545454547" x2="25.78125" y2="129.45454545454547" style="visibility: inherit;" fill="rgb(0, 0, 0)" stroke="rgb(204, 204, 204)" stroke-width="1px"></line><line x1="30.78125" y1="113.27272727272727" x2="25.78125" y2="113.27272727272727" style="visibility: inherit;" fill="rgb(0, 0, 0)" stroke="rgb(204, 204, 204)" stroke-width="1px"></line><line x1="30.78125" y1="97.09090909090908" x2="25.78125" y2="97.09090909090908" style="visibility: inherit;" fill="rgb(0, 0, 0)" stroke="rgb(204, 204, 204)" stroke-width="1px"></line><line x1="30.78125" y1="80.90909090909092" x2="25.78125" y2="80.90909090909092" style="visibility: inherit;" fill="rgb(0, 0, 0)" stroke="rgb(204, 204, 204)" stroke-width="1px"></line><line x1="30.78125" y1="64.72727272727273" x2="25.78125" y2="64.72727272727273" style="visibility: inherit;" fill="rgb(0, 0, 0)" stroke="rgb(204, 204, 204)" stroke-width="1px"></line><line x1="30.78125" y1="48.54545454545454" x2="25.78125" y2="48.54545454545454" style="visibility: inherit;" fill="rgb(0, 0, 0)" stroke="rgb(204, 204, 204)" stroke-width="1px"></line><line x1="30.78125" y1="32.36363636363635" x2="25.78125" y2="32.36363636363635" style="visibility: inherit;" fill="rgb(0, 0, 0)" stroke="rgb(204, 204, 204)" stroke-width="1px"></line><line x1="30.78125" y1="16.181818181818187" x2="25.78125" y2="16.181818181818187" style="visibility: inherit;" fill="rgb(0, 0, 0)" stroke="rgb(204, 204, 204)" stroke-width="1px"></line><line x1="30.78125" y1="0" x2="25.78125" y2="0" style="visibility: inherit;" fill="rgb(0, 0, 0)" stroke="rgb(204, 204, 204)" stroke-width="1px"></line></g><g transform="translate(20.78125, 0)"><text x="0" y="178" dx="0em" dy="0.3em" style="text-anchor: end; visibility: hidden; font-family: Roboto, sans-serif; font-size: 12px; font-weight: 200;" fill="rgb(50, 49, 63)" stroke="none" stroke-width="1px">-2</text><text x="0" y="161.8181818181818" dx="0em" dy="0.3em" style="text-anchor: end; visibility: inherit; font-family: Roboto, sans-serif; font-size: 12px; font-weight: 200;" fill="rgb(50, 49, 63)" stroke="none" stroke-width="1px">0</text><text x="0" y="145.63636363636363" dx="0em" dy="0.3em" style="text-anchor: end; visibility: hidden; font-family: Roboto, sans-serif; font-size: 12px; font-weight: 200;" fill="rgb(50, 49, 63)" stroke="none" stroke-width="1px">2</text><text x="0" y="129.45454545454547" dx="0em" dy="0.3em" style="text-anchor: end; visibility: inherit; font-family: Roboto, sans-serif; font-size: 12px; font-weight: 200;" fill="rgb(50, 49, 63)" stroke="none" stroke-width="1px">4</text><text x="0" y="113.27272727272727" dx="0em" dy="0.3em" style="text-anchor: end; visibility: hidden; font-family: Roboto, sans-serif; font-size: 12px; font-weight: 200;" fill="rgb(50, 49, 63)" stroke="none" stroke-width="1px">6</text><text x="0" y="97.09090909090908" dx="0em" dy="0.3em" style="text-anchor: end; visibility: inherit; font-family: Roboto, sans-serif; font-size: 12px; font-weight: 200;" fill="rgb(50, 49, 63)" stroke="none" stroke-width="1px">8</text><text x="0" y="80.90909090909092" dx="0em" dy="0.3em" style="text-anchor: end; visibility: hidden; font-family: Roboto, sans-serif; font-size: 12px; font-weight: 200;" fill="rgb(50, 49, 63)" stroke="none" stroke-width="1px">10</text><text x="0" y="64.72727272727273" dx="0em" dy="0.3em" style="text-anchor: end; visibility: inherit; font-family: Roboto, sans-serif; font-size: 12px; font-weight: 200;" fill="rgb(50, 49, 63)" stroke="none" stroke-width="1px">12</text><text x="0" y="48.54545454545454" dx="0em" dy="0.3em" style="text-anchor: end; visibility: hidden; font-family: Roboto, sans-serif; font-size: 12px; font-weight: 200;" fill="rgb(50, 49, 63)" stroke="none" stroke-width="1px">14</text><text x="0" y="32.36363636363635" dx="0em" dy="0.3em" style="text-anchor: end; visibility: inherit; font-family: Roboto, sans-serif; font-size: 12px; font-weight: 200;" fill="rgb(50, 49, 63)" stroke="none" stroke-width="1px">16</text><text x="0" y="16.181818181818187" dx="0em" dy="0.3em" style="text-anchor: end; visibility: hidden; font-family: Roboto, sans-serif; font-size: 12px; font-weight: 200;" fill="rgb(50, 49, 63)" stroke="none" stroke-width="1px">18</text><text x="0" y="0" dx="0em" dy="0.3em" style="text-anchor: end; visibility: hidden; font-family: Roboto, sans-serif; font-size: 12px; font-weight: 200;" fill="rgb(50, 49, 63)" stroke="none" stroke-width="1px">20</text></g><line x1="30.78125" y1="0" x2="30.78125" y2="178" fill="rgb(0, 0, 0)" stroke="rgb(204, 204, 204)" stroke-width="1px"></line></g></g><g transform="translate(30, 0)" clip-path="url(#clip_0)"><clipPath id="clip_0"><rect width="299" height="178"></rect></clipPath><g><g><g><line x1="0" y1="0" x2="0" y2="178" fill="rgb(0, 0, 0)" stroke="rgb(60, 60, 60)" stroke-width="1px" opacity="0.25"></line><line x1="24.934895833333332" y1="0" x2="24.934895833333332" y2="178" fill="rgb(0, 0, 0)" stroke="rgb(60, 60, 60)" stroke-width="1px" opacity="0.25"></line><line x1="49.869791666666664" y1="0" x2="49.869791666666664" y2="178" fill="rgb(0, 0, 0)" stroke="rgb(60, 60, 60)" stroke-width="1px" opacity="0.25"></line><line x1="74.8046875" y1="0" x2="74.8046875" y2="178" fill="rgb(0, 0, 0)" stroke="rgb(60, 60, 60)" stroke-width="1px" opacity="0.25"></line><line x1="99.73958333333333" y1="0" x2="99.73958333333333" y2="178" fill="rgb(0, 0, 0)" stroke="rgb(60, 60, 60)" stroke-width="1px" opacity="0.25"></line><line x1="124.67447916666667" y1="0" x2="124.67447916666667" y2="178" fill="rgb(0, 0, 0)" stroke="rgb(60, 60, 60)" stroke-width="1px" opacity="0.25"></line><line x1="149.609375" y1="0" x2="149.609375" y2="178" fill="rgb(0, 0, 0)" stroke="rgb(60, 60, 60)" stroke-width="1px" opacity="0.25"></line><line x1="174.54427083333334" y1="0" x2="174.54427083333334" y2="178" fill="rgb(0, 0, 0)" stroke="rgb(60, 60, 60)" stroke-width="1px" opacity="0.25"></line><line x1="199.47916666666666" y1="0" x2="199.47916666666666" y2="178" fill="rgb(0, 0, 0)" stroke="rgb(60, 60, 60)" stroke-width="1px" opacity="0.25"></line><line x1="224.4140625" y1="0" x2="224.4140625" y2="178" fill="rgb(0, 0, 0)" stroke="rgb(60, 60, 60)" stroke-width="1px" opacity="0.25"></line><line x1="249.34895833333334" y1="0" x2="249.34895833333334" y2="178" fill="rgb(0, 0, 0)" stroke="rgb(60, 60, 60)" stroke-width="1px" opacity="0.25"></line><line x1="274.28385416666663" y1="0" x2="274.28385416666663" y2="178" fill="rgb(0, 0, 0)" stroke="rgb(60, 60, 60)" stroke-width="1px" opacity="0.25"></line><line x1="299.21875" y1="0" x2="299.21875" y2="178" fill="rgb(0, 0, 0)" stroke="rgb(60, 60, 60)" stroke-width="1px" opacity="0.25"></line></g><g><line x1="0" y1="178" x2="299.21875" y2="178" fill="rgb(0, 0, 0)" stroke="rgb(60, 60, 60)" stroke-width="1px" opacity="0.25"></line><line x1="0" y1="161.8181818181818" x2="299.21875" y2="161.8181818181818" fill="rgb(0, 0, 0)" stroke="rgb(60, 60, 60)" stroke-width="1px" opacity="0.25"></line><line x1="0" y1="145.63636363636363" x2="299.21875" y2="145.63636363636363" fill="rgb(0, 0, 0)" stroke="rgb(60, 60, 60)" stroke-width="1px" opacity="0.25"></line><line x1="0" y1="129.45454545454547" x2="299.21875" y2="129.45454545454547" fill="rgb(0, 0, 0)" stroke="rgb(60, 60, 60)" stroke-width="1px" opacity="0.25"></line><line x1="0" y1="113.27272727272727" x2="299.21875" y2="113.27272727272727" fill="rgb(0, 0, 0)" stroke="rgb(60, 60, 60)" stroke-width="1px" opacity="0.25"></line><line x1="0" y1="97.09090909090908" x2="299.21875" y2="97.09090909090908" fill="rgb(0, 0, 0)" stroke="rgb(60, 60, 60)" stroke-width="1px" opacity="0.25"></line><line x1="0" y1="80.90909090909092" x2="299.21875" y2="80.90909090909092" fill="rgb(0, 0, 0)" stroke="rgb(60, 60, 60)" stroke-width="1px" opacity="0.25"></line><line x1="0" y1="64.72727272727273" x2="299.21875" y2="64.72727272727273" fill="rgb(0, 0, 0)" stroke="rgb(60, 60, 60)" stroke-width="1px" opacity="0.25"></line><line x1="0" y1="48.54545454545454" x2="299.21875" y2="48.54545454545454" fill="rgb(0, 0, 0)" stroke="rgb(60, 60, 60)" stroke-width="1px" opacity="0.25"></line><line x1="0" y1="32.36363636363635" x2="299.21875" y2="32.36363636363635" fill="rgb(0, 0, 0)" stroke="rgb(60, 60, 60)" stroke-width="1px" opacity="0.25"></line><line x1="0" y1="16.181818181818187" x2="299.21875" y2="16.181818181818187" fill="rgb(0, 0, 0)" stroke="rgb(60, 60, 60)" stroke-width="1px" opacity="0.25"></line><line x1="0" y1="0" x2="299.21875" y2="0" fill="rgb(0, 0, 0)" stroke="rgb(60, 60, 60)" stroke-width="1px" opacity="0.25"></line></g></g></g><g><g><line x1="0" y1="161.8181818181818" x2="299.21875" y2="161.8181818181818" fill="rgb(0, 0, 0)" stroke="rgb(153, 153, 153)" stroke-width="1.5px"></line></g></g><g><g><line x1="24.934895833333332" y1="0" x2="24.934895833333332" y2="178" fill="rgb(0, 0, 0)" stroke="rgb(153, 153, 153)" stroke-width="1.5px"></line></g></g><g><g><g><g><g><path stroke="rgb(255, 112, 67)" stroke-width="2px" d="M25.682942708333332,161.69913223605943L25.932291666666668,161.73286670480263L26.430989583333332,161.64912531376993L26.430989583333332,161.55512490264329L26.680338541666668,161.50469114491014L26.9296875,161.50569676909296L26.9296875,161.39828612443924L27.428385416666664,161.50128657408393L27.428385416666664,161.48107977868014L27.677734375,161.58191195909788L28.176432291666664,161.8057837058789L29.173828125,159.1177879318934L29.423177083333332,160.1019370193011L29.672526041666668,160.70055161169472L30.171223958333332,161.12661173797693L30.420572916666668,161.2822570143297L30.669921874999996,161.24193609260948L30.669921874999996,160.97436538242397L30.919270833333332,160.07903349054484L31.168619791666668,159.22648157149052L31.41796875,159.97095152961265L31.667317708333332,159.4988372702545L31.916666666666668,159.48347617811888L31.916666666666668,158.39959962572385L32.166015625,159.3068276673554L32.166015625,159.27136822270853L32.664713541666664,159.11787519404996L32.664713541666664,158.046746051923L32.9140625,156.83547823896956L33.163411458333336,156.9111373970989L33.412760416666664,157.79709234421142L33.412760416666664,156.90613012832407L33.662109375,156.59343641616303L33.91145833333333,155.19040774844203L34.160807291666664,155.56439807351515L34.160807291666664,155.6927078182802L34.41015625,156.07194032778244L34.659505208333336,155.67234556288645L34.908854166666664,152.9543681585502L35.65690104166667,151.81670791344303L35.65690104166667,150.7788725274611L35.90625,151.7579637497276L35.90625,151.13325512079987L36.155598958333336,154.2636838649378L36.155598958333336,155.0276892686756L36.903645833333336,153.63824931024203L37.90104166666667,151.14802753245482L38.150390625,145.99335717952175L38.39973958333333,145.36117664561456L39.14778645833333,148.83961311009557L39.646484375,141.74643385043677L39.895833333333336,133.06249400913373L39.895833333333336,127.60929233720012L40.145182291666664,135.87029798020404L40.643880208333336,136.18984785897334L40.643880208333336,136.6999136574979L40.893229166666664,143.6733531716052L41.142578125,134.6348531581499L41.391927083333336,128.77379084344793L42.139973958333336,124.4591829776095L42.389322916666664,124.2038494153055L42.63867187499999,130.23629548243812L42.888020833333336,132.7596112072541L42.888020833333336,134.4201878752536L43.137369791666664,133.38825718981832L43.636067708333336,134.133107890135L43.885416666666664,144.58968761367723L44.134765625,127.8063335629129L44.384114583333336,117.56502388569474L44.384114583333336,104.58113531696813L44.633463541666664,118.55588899130615L44.8828125,125.32443901778619L44.8828125,125.89336755801057L45.38151041666667,103.38364110004737L45.630859375,114.50646271365892L45.630859375,120.23836573396927L45.88020833333333,102.98029856940987L46.12955729166667,126.5522046770127L46.37890625,119.93584783478317L47.126953125,124.70264624879637L47.126953125,129.4853216131084L47.37630208333333,114.02059824962551L47.62565104166667,103.53146739260201L47.875,111.81462685737519L48.12434895833333,90.49888748971361L48.373697916666664,116.54791978571909L48.623046875,94.8888101183908L48.872395833333336,93.40368287584404L48.872395833333336,85.87715613247777L49.869791666666664,79.21609855425362L50.86718750000001,89.47153382737636L50.86718750000001,96.57815367613664L51.116536458333336,82.77027376834845L51.61523437499999,81.3833155782587L51.864583333333336,47.82107634147316L52.36328125,68.09596320434234L52.36328125,77.63822644888381L52.861979166666664,77.17617352080843L52.861979166666664,72.02734065922688L53.111328125,51.36377058982769L53.360677083333336,43.852421095240715L53.360677083333336,40.52811795976786L53.610026041666664,61.497857943219095L54.108723958333336,51.740679834401824L54.108723958333336,46.29251102508624L54.35807291666667,68.63170707600587L54.607421875,79.25729725585742L55.10611979166667,73.18160388257829L55.60481770833333,83.66063197052155L55.85416666666667,89.11955811519645L56.103515625,80.53195909008734L56.35286458333333,53.64858774098422L56.8515625,44.430325504476016L57.35026041666667,81.34936141749273L57.35026041666667,104.55647786616227L57.599609375,98.82835242626253L57.599609375,91.24283068627064L57.84895833333333,91.95626907660169L58.34765625,87.30363108041591L58.597005208333336,92.8612304116107L58.846354166666664,75.95278880072176L59.095703125,100.35432755719418L59.84375,112.46836641998657L60.093098958333336,39.44862357014269L60.59179687500001,51.15076181215176L61.090494791666664,78.96491321549817L61.33984374999999,74.1050807903496L61.589192708333336,54.96471785509134L62.087890625,33.29442505676042L62.337239583333336,72.60210289685476L62.337239583333336,90.6848225915508L62.586588541666664,97.02456055752171L62.8359375,95.21104037836956L62.8359375,96.91605025033162L63.334635416666664,73.88829155212102L63.583984375,52.435593963698906L63.833333333333336,65.12145672556488L64.08268229166667,81.59997728601587L64.58138020833333,87.67347278296428L64.83072916666667,64.47672979349127L64.83072916666667,48.96389737316508L65.080078125,51.990155246297846L65.32942708333333,78.10816827095877L65.57877604166667,65.78517569707233L65.828125,42.308645854034424L65.828125,30.564154520144378L66.32682291666667,50.73803668236805L66.32682291666667,58.873701983786056L66.576171875,62.34928472232064L67.32421875,56.387191565092934L67.57356770833333,81.72624272128789L68.072265625,112.34966233114184L68.072265625,127.8225986557319L68.32161458333333,125.6744297350984L68.57096354166666,92.69398216800774L69.06966145833333,80.34306045031857L69.31901041666667,86.53871871786737L69.568359375,41.88895950497913L69.81770833333333,35.97473215384863L69.81770833333333,33.023297821694825L70.06705729166667,77.8546711091213L70.31640625,50.68381235341668L70.56575520833333,80.9395183968245L70.81510416666667,71.19094769913873L71.064453125,78.9682574317391L71.31380208333334,74.73810625347706L71.31380208333334,72.06095921939358L71.56315104166667,88.39492177714173L72.06184895833334,83.64401178210535L72.31119791666667,65.74147177346465L72.31119791666667,55.092383466355955L72.560546875,71.48967111458141L72.80989583333334,64.22157532943778L73.30859375,28.781384917122896L73.30859375,13.786428911699524L73.55794270833333,39.1517231320983L73.80729166666667,84.6015774337384L73.80729166666667,113.96311253855046L74.056640625,95.63191689363589L74.056640625,88.35766770320922L75.30338541666666,38.13276496185806L75.30338541666666,-2.693742179223958L76.05143229166666,18.70366373621118L76.79947916666666,33.00968641616517L77.048828125,30.27799958551676L77.54752604166666,62.20677559387264L77.54752604166666,76.19224861368666L77.796875,102.50710872853692L78.04622395833333,68.03682000230326L78.29557291666666,51.59276904772428L78.79427083333333,29.321886931342323L79.79166666666667,35.00083985866778L80.041015625,73.52906080828929L80.041015625,95.77942221176357L80.29036458333333,33.47166215773551L80.53971354166667,1.3570230209596614L80.53971354166667,-12.420834932319455L81.03841145833333,5.539679153967266L81.28776041666667,39.756559026582245L82.28515625,31.10859295323628L82.28515625,21.7165677647951L82.53450520833333,48.56966254663896L82.53450520833333,65.48240348917612L82.78385416666667,60.90607438165819L83.03320312500001,20.802921487237988L83.28255208333333,20.435352579398906L83.53190104166667,71.69269293070293L83.53190104166667,104.1131110151925L83.78125000000001,93.1797839314477L84.03059895833333,106.71033897084594L84.27994791666667,83.47103658313566L84.77864583333333,46.205106607862575L85.52669270833333,0.1203120421101127L86.025390625,23.321572400104028L86.025390625,35.150934294499116L86.27473958333333,61.01823891032873L86.52408854166667,39.81399198289381L87.02278645833333,74.25060364282801L88.26953125,60.538494107638385L88.76822916666667,-15.705414444063997L89.017578125,-35.86578473508586L89.26692708333333,12.23057444980875L89.51627604166667,42.83263420679491L89.51627604166667,57.78892832875333L89.765625,58.72789170128698L90.513671875,77.58496690858958L90.513671875,88.11307495494599L91.26171875,59.48070882572862L91.51106770833334,24.96659419913477L91.76041666666666,53.249628739884365L91.76041666666666,70.96457396911707L92.009765625,43.96129526259592L92.009765625,25.430395363234933L92.25911458333334,25.39518235288412L92.25911458333334,24.04534347045739L92.50846354166666,44.52472802025164L92.50846354166666,59.31511955057649L92.7578125,75.42617240090031L93.00716145833334,55.25789474136582L93.25651041666666,36.92785654585821L93.505859375,27.505262123093754L93.505859375,22.725994271148483L93.75520833333334,13.291545270963224L94.25390625,37.17762623428871L94.50325520833334,60.41709892977112L94.75260416666666,82.3675491957866L95.25130208333334,82.59017343975755L95.50065104166666,52.36786041705944L95.50065104166666,30.3570066444118L95.75,58.543850600028186L95.99934895833334,60.84252095072626L96.24869791666666,88.47910650770272L96.498046875,95.78878417134527L96.74739583333333,67.23757776765534L96.99674479166666,33.49829880792098L97.24609375,71.15882586803228L97.49544270833333,64.8852458049103L97.49544270833333,59.685565110454164L97.74479166666667,77.51345471471555L97.74479166666667,87.49044219972332L97.994140625,85.6727580566504L98.24348958333333,35.370214018671525L98.24348958333333,5.798777400793625L98.99153645833333,43.3768890517821L98.99153645833333,64.59780424072835L99.24088541666667,83.02349296785454L99.490234375,82.22300400048368L99.490234375,80.18791804249103L99.98893229166667,107.74662183462769L100.23828125,127.18259998133566L100.48763020833333,86.36413429632982L100.73697916666667,51.541454349326656L100.986328125,24.529065516755995L101.23567708333333,36.0276748363986L101.23567708333333,42.129317484514054L101.48502604166667,53.03544203933679L101.73437500000001,93.6398015181924L102.23307291666667,68.59999918595096L102.48242187500001,63.851384676698416L102.73177083333333,87.67792879934956L102.98111979166667,96.81907204137845L103.47981770833333,95.81968034224761L104.22786458333333,28.907390342022925L104.97591145833333,40.2985183588226L105.22526041666667,42.565188341287865L105.474609375,52.57007163125975L105.474609375,55.18717109016167L105.72395833333333,23.76563350903308L105.72395833333333,8.369125200412745L105.97330729166667,64.26178144563993L105.97330729166667,95.46405128925896L106.22265625,105.81683281074243L106.47200520833333,103.92989351592989L106.970703125,119.88603386048179L106.970703125,127.23536699056662L107.22005208333333,99.65984958054824L107.46940104166667,83.78728978095502L107.96809895833333,102.26484213896155L108.21744791666667,85.14457121161067L108.21744791666667,76.69932928591527L108.466796875,75.09521260478559L108.71614583333334,97.0743467421982L108.96549479166667,14.293302447840203L108.96549479166667,-27.220562831722027L109.21484375,14.254739424435382L109.21484375,42.990593378615856L109.46419270833334,56.13831143127772L109.71354166666666,76.61009078568536L109.71354166666666,87.98148821636195L109.962890625,82.26371079536226L110.21223958333334,63.681929410788904L110.21223958333334,48.457702166071165L110.46158854166666,65.85872046235133L110.46158854166666,78.28799988189189L110.7109375,56.6328411833521L110.96028645833334,73.68076450226977L110.96028645833334,84.45194588605982L111.458984375,63.72915356568238L111.95768229166666,48.468147670859175L112.20703125,87.8548242846389L112.45638020833334,94.27481499689193L112.45638020833334,97.68581160694418L112.70572916666666,95.34277101900939L112.955078125,100.6936076131812L113.20442708333334,34.89101059285544L113.45377604166666,30.31519544207245L113.703125,60.374612138983935L114.20182291666666,45.02968033603595L114.70052083333334,85.76532205504151L114.70052083333334,107.17051006998888L114.94986979166666,66.0338279952293L115.19921875,100.20390301426183L115.19921875,119.10238087192407L115.44856770833333,75.43930861959L115.44856770833333,51.74683102136337L115.69791666666666,73.54671405110594L115.947265625,103.77585707897067L116.19661458333333,87.85178584550474L116.94466145833333,75.59427872443264L117.19401041666667,58.34501893226923L117.19401041666667,51.04829789722553L117.443359375,69.68814762330624L117.443359375,75.43134362852697L117.69270833333333,49.81683146786546L118.19140625,73.07369188511936L118.19140625,87.80079853561263L118.69010416666667,102.96744332979709L118.69010416666667,112.00135576561173L118.939453125,91.34578693681732L119.18880208333333,83.75290128778951L119.43815104166667,100.13261476490005L119.6875,69.50510881199845L119.93684895833333,71.28806586287156L120.18619791666667,82.10576455129225L120.43554687500001,43.138184003214086L120.68489583333333,76.24605713183124L120.68489583333333,100.418930684891L120.93424479166667,60.3394082822059L121.18359375000001,76.84021921165531L121.18359375000001,87.06250693759331L121.43294270833333,77.95057893339674L121.68229166666667,69.83152470045886L121.68229166666667,69.18607857205089L122.43033854166667,60.18355012923683L122.92903645833333,79.67541192818352L122.92903645833333,88.89172513015453L123.17838541666667,99.74537901119818L123.427734375,54.70350133527449L123.67708333333333,85.27179228752333L123.92643229166667,84.84199063907116L123.92643229166667,84.65644955755937L124.17578125,82.5985894167089L124.17578125,82.28689079935063L124.42513020833333,89.84733591296553L124.67447916666667,97.3091577941727L124.923828125,95.1242293899713L125.17317708333333,80.41782765085068L125.42252604166667,85.92301364456536L125.671875,51.43133837139829L125.92122395833333,53.0383180638435L125.92122395833333,53.4235551360689L126.419921875,87.85773515288322L126.66927083333333,110.24812390339765L126.91861979166667,110.00371026844127L127.16796875,79.58252682163162L127.41731770833334,85.9037339690665L127.916015625,83.83488252399584L128.41471354166666,92.10944390135484L128.6640625,79.85622253754586L128.91341145833334,76.83380448283246L129.16276041666666,79.50657298677422L129.412109375,94.41434340241055L129.66145833333334,92.83366484327074L130.16015625,116.58788397079843L130.40950520833334,116.32658028593254L130.65885416666666,103.65731506775538L130.65885416666666,93.83050284902504L130.908203125,102.670143885679L131.15755208333334,54.43712064981118L131.90559895833334,67.43502705907616L132.15494791666666,78.30344843093577L132.404296875,86.29998783602728L132.404296875,86.55091402729997L132.65364583333334,92.88895777778579L132.65364583333334,97.18604448659002L133.15234375,82.60738495666902L133.40169270833334,106.27253883560697L133.65104166666666,80.15849698688886L133.900390625,71.6729296338392L134.14973958333331,92.48189959965057L134.14973958333331,106.16556600573982L134.39908854166666,85.11312508706428L134.39908854166666,69.30623550922543L134.6484375,66.96998710243244L134.89778645833331,47.43735350635469L134.89778645833331,35.50066720579703L135.14713541666666,39.31706819235248L135.396484375,56.27960130858887L135.64583333333331,46.14681712615118L135.89518229166666,78.21345086861952L136.14453125,91.17017094203686L136.39388020833331,86.65271503220765L136.39388020833331,85.91430798411285L136.892578125,93.22901359018363L137.14192708333331,106.61027882477556L137.39127604166666,107.13769696072562L138.13932291666666,87.67510599714737L138.388671875,84.35903608530457L138.388671875,79.7843921406847L138.63802083333334,101.00634600932814L138.63802083333334,112.72476655806713L138.88736979166666,113.89477247770361L138.88736979166666,112.80242039427597L139.13671875,91.96084312651362L139.38606770833334,84.6233482775861L139.38606770833334,81.19272404473215L139.884765625,64.76735312135277L139.884765625,53.55082054479762L140.13411458333334,67.37836074340468L140.13411458333334,74.0089003100121L140.38346354166666,53.53587850221374L141.13151041666666,55.37629193564555L141.380859375,43.56762884069752L141.63020833333334,66.81773047561103L142.62760416666669,97.98657141060245L142.876953125,106.50755019471683L143.37565104166669,72.82783888813691L143.87434895833334,74.88177451513312L143.87434895833334,76.96005725169353L144.12369791666669,68.62191198107648L144.373046875,96.25885098641977L144.373046875,113.65740935158973L144.62239583333334,107.60115346132339L144.87174479166669,116.32926944440324L145.12109375,101.72334066250265L145.37044270833334,77.93093765833255L145.61979166666669,95.58219615309945L145.61979166666669,106.55570646014249L145.869140625,87.88276663842566L146.11848958333334,91.16792264507602L146.36783854166669,99.72193240479463L146.6171875,85.9178226952738L146.86653645833334,95.2679608790162L146.86653645833334,105.34852075473238L147.11588541666666,86.27916021284919L147.11588541666666,71.97594776289684L147.61458333333334,81.24152364292321L147.61458333333334,83.54072453842616L147.86393229166666,71.14099578040653L148.11328125,76.48214302266508L148.36263020833334,91.26455147258454L149.36002604166666,74.99063943901503L149.609375,79.12653601270767L149.85872395833334,99.07620791799391L150.10807291666669,90.13605553359997L150.35742187499997,72.9415342628757L150.35742187499997,64.6518420068665L150.85611979166666,49.30850306733456L150.85611979166666,39.89329483911346L151.10546875,49.41450407659705L151.35481770833334,52.04577733609494L151.35481770833334,54.314964875778045L151.60416666666669,47.13752569920397L151.85351562499997,50.59083673077947L152.85091145833334,89.0701611626687L153.10026041666669,76.33318050164506L153.10026041666669,66.7723765210909L153.349609375,79.7954056295624L153.59895833333331,79.8046427529594L153.84830729166666,81.37987274894361L153.84830729166666,81.36697765299499L154.09765625,83.06882106889216L154.34700520833334,110.74386127640885L154.59635416666669,119.30471268044326L154.59635416666669,122.9951298508918L155.09505208333331,90.44041099880302L155.09505208333331,68.22368825244676L155.34440104166666,60.66011869931518L155.84309895833334,70.11535399408085L156.09244791666666,78.58115264164338L156.341796875,38.05022752082143L156.59114583333331,42.248287466305904L156.84049479166666,76.59299909735388L157.58854166666666,57.31568347774384L157.837890625,79.24502317091921L158.08723958333334,82.3888337697723L158.33658854166666,92.82460120887932L158.83528645833334,41.62858391202857L159.08463541666666,60.62151479090945L159.333984375,92.91578510946721L159.58333333333334,94.16875214089785L159.83268229166666,63.30812855948542L160.08203125,68.32321213824363L160.08203125,70.72162926769848L160.33138020833334,69.40912106814305L160.33138020833334,69.97441995090004L160.58072916666666,84.78644038731582L161.32877604166669,89.00275481854894L161.32877604166669,90.77405778725861L162.07682291666666,50.36926380166093L162.326171875,65.72568120580124L162.57552083333334,78.35702437608528L162.82486979166669,96.72834849516912L162.82486979166669,107.96738799364132L164.07161458333334,105.22204608020913L164.32096354166669,63.97646072196691L164.5703125,61.930229294064375L165.06901041666666,85.07568740332073L165.06901041666666,98.46618482108735L165.318359375,115.08124770413424L165.56770833333334,90.46675635175077L165.56770833333334,75.60951166627508L165.81705729166669,55.810382237247296L166.06640625000003,46.28235589874487L166.06640625000003,41.851664515809425L166.31575520833331,74.36938159342452L166.56510416666666,70.36794465207744L166.56510416666666,70.79480805378641L167.06380208333334,87.86665520136809L167.06380208333334,95.22252679072608L167.31315104166669,90.76329835232315L168.310546875,96.36502480926212L168.55989583333334,112.63453508541966L168.55989583333334,122.21201183383346L168.80924479166669,82.42051064200373L169.05859374999997,78.98095788278302L169.30794270833331,63.41316055758398L169.30794270833331,53.52217663989264L169.806640625,62.44954529584742L169.806640625,64.5320254840603L170.05598958333334,89.78206806323558L170.30533854166669,93.87378379559406L171.80143229166669,102.50380583102854L172.30013020833331,88.89846637381686L172.54947916666666,99.95886936397407L172.54947916666666,106.93497106851316L172.798828125,78.870422282887L173.04817708333334,100.08646357654432L173.29752604166669,99.78932857220165L173.79622395833331,61.0726902163856L173.79622395833331,36.86964007532143L174.04557291666666,14.679606948912673L174.04557291666666,-0.9236972342390191L174.294921875,22.52760417615803L174.294921875,38.77814403063045L174.54427083333334,46.79844908483778L174.54427083333334,50.45443434403565L174.79361979166666,71.31115683195185L175.04296875,54.001608178317056L175.29231770833331,41.414008744104045L175.54166666666666,78.75560404837005L175.791015625,92.82642085215102L176.04036458333334,74.6016919805067L176.04036458333334,62.22791457462326L176.28971354166666,63.064033471003555L176.28971354166666,61.73336439495786L176.5390625,89.44101309387281L176.5390625,106.48718258450917L177.78580729166666,90.25687559074454L177.78580729166666,82.24200959849858L178.03515625,67.17624296834985L178.28450520833334,28.991843498295058L178.783203125,53.16976756193426L178.783203125,67.21566759116003L179.03255208333334,69.89545658080797L179.28190104166666,93.86114770246593L179.53125,52.349808586079185L180.02994791666669,65.89628638011872L180.279296875,73.28508870873085L180.52864583333334,63.4533897203779L180.52864583333334,55.82636999860858L180.77799479166666,62.0137703578743L181.02734375,57.54678247284781L181.27669270833334,75.3121476309033L181.52604166666669,65.7198129995403L181.52604166666669,57.52229064562705L181.775390625,82.95012153953132L182.02473958333331,89.48074542363557L182.02473958333331,91.52721276265966L182.27408854166666,99.094156116902L182.5234375,86.14419113274329L182.5234375,81.2633516297747L182.77278645833334,96.20282824346208L182.77278645833334,106.88771974964392L183.02213541666669,92.60737935150644L183.52083333333331,50.07724901648802L183.77018229166666,64.37147505214911L184.01953125,47.944615766374696L184.51822916666669,66.21692170092476L184.51822916666669,79.09606434826371L184.76757812500003,55.09900199563258L185.26627604166666,62.244535356814495L185.515625,61.18353248783691L185.76497395833334,69.15648162399432L186.01432291666669,94.33139511259128L186.26367187500003,104.66330128985592L186.26367187500003,111.13709158185257L186.51302083333331,101.43828113041924L186.76236979166666,72.59108313581547L187.01171875,87.1137310804417L187.26106770833334,82.54653010778206L187.51041666666669,78.39289304025517L187.51041666666669,73.09548535806645L187.75976562499997,87.35354490469251L188.00911458333331,95.93763696783991L188.5078125,95.16333402285593L188.75716145833334,102.98810380588108L188.75716145833334,107.26646027824634L189.00651041666669,100.49656433001157L189.25585937499997,107.22294896704769L189.50520833333331,83.96436595726608L189.75455729166666,78.03846749278337L190.25325520833334,80.76263609731022L190.50260416666669,71.20904123091809L190.50260416666669,63.823831929047124L190.751953125,81.66491326126574L191.00130208333331,83.91229599864064L191.25065104166666,103.52586479601999L191.25065104166666,117.72313375028433L191.5,94.34839146260622L191.5,79.30507438950443L191.74934895833334,72.89407396386954L191.74934895833334,67.1512533105394L192.248046875,48.45790841388044L192.49739583333331,38.50424181346498L192.74674479166666,70.51412451493114L193.24544270833334,74.26276003582969L193.24544270833334,77.61069744494863L193.49479166666666,65.84438037132155L193.49479166666666,58.58084825591836L193.99348958333331,65.85642625368864L194.4921875,58.95842043283284L194.74153645833334,50.195032638284125L194.99088541666666,60.22157242415701L195.48958333333334,32.95244432563234L195.48958333333334,14.552752453533703L195.98828125,38.03985730208738L196.23763020833334,50.43733611614899L196.48697916666666,69.47513159189731L196.736328125,61.12181643183407L196.98567708333334,78.89052472487857L196.98567708333334,88.83256052501281L197.484375,75.33705982741446L197.73372395833334,66.90401371876979L197.73372395833334,67.59317165622191L197.98307291666666,53.85350146840911L198.232421875,60.231539746013524L198.232421875,63.26020396290907L198.48177083333334,47.9054985707053L198.73111979166669,75.44675735622934L198.98046875,62.09734841037512L199.728515625,76.98346279877744L201.224609375,79.94276496009478L201.224609375,82.87337118419785L201.47395833333334,65.29636528836627L201.47395833333334,53.952499917537715L201.97265625,34.173867975868845L202.47135416666666,36.19939243940758L202.47135416666666,35.68155552562299L202.720703125,58.46807721407764L202.97005208333334,63.12573959321709L202.97005208333334,67.13271103165378L203.21940104166669,81.09940866799796L203.71809895833331,91.06920304617454L203.71809895833331,97.50224267023958L203.96744791666666,66.04771463457006L204.216796875,81.42320944841116L204.216796875,91.22183667840171L204.46614583333334,83.26563069356449L204.71549479166669,67.16944304404619L204.96484375000003,68.78186706211218L205.712890625,46.28988883634403L205.96223958333334,57.92929815332454L206.46093749999997,31.624981263487985L206.71028645833331,50.68039307438808L207.70768229166669,39.71317636309877L207.95703124999997,63.079361263582356L208.45572916666666,86.4674328273189L208.95442708333334,65.67527389289125L209.20377604166669,73.71167567717652L209.70247395833331,74.70751403723186L209.70247395833331,72.09430788023595L209.95182291666666,74.47840920074233L210.201171875,93.47122669914523L210.45052083333334,104.28491242565391L210.69986979166669,98.7328888449964L210.94921875,83.72467780662053L211.19856770833331,93.63975122520988L211.19856770833331,102.28894606094269L212.19596354166666,86.51326638756436L212.19596354166666,76.65743666414816L212.4453125,96.88859932897762L212.4453125,107.83465913754216L212.69466145833331,84.91436134362036L212.94401041666666,45.63754412717273L212.94401041666666,21.79681647097696L213.193359375,38.555950385349405L213.193359375,47.71259241332748L213.44270833333334,36.60276019320245L213.44270833333334,31.16644175767841L213.69205729166666,64.02787119210817L213.69205729166666,83.1298905647189L214.19075520833334,95.18256226019587L214.44010416666666,95.17522387678069L214.93880208333334,90.5542118975905L215.18815104166666,98.04788235275997L215.18815104166666,101.1518593083401L215.4375,74.67845245467736L216.43489583333334,69.99983780109785L216.68424479166666,65.96825789417079L217.18294270833334,64.81841575723224L217.43229166666669,72.68189435429717L217.93098958333334,73.99086383120624L218.18033854166666,63.65274861211153L218.18033854166666,56.05907855375263L218.4296875,56.92797143534106L218.67903645833334,56.69884621014817L218.92838541666669,68.09837336107648L218.92838541666669,74.64774853446816L219.67643229166666,52.8442864109419L219.92578125,32.509378770171324L219.92578125,24.346178811840907L220.673828125,21.16085475913935L220.673828125,19.09626441465444L221.92057291666669,50.481504497708464L221.92057291666669,69.32258841750824L222.41927083333331,60.68268366019066L222.41927083333331,54.13223013713225L222.66861979166666,37.80417009688339L222.91796875,50.88421718069972L223.16731770833334,57.39982137120836L223.41666666666669,67.71131817395461L223.66601562500003,65.99583290210892L223.91536458333331,65.62963183798944L224.16471354166666,63.081774824784056L224.16471354166666,63.3181136203454L224.4140625,74.76422036170476L224.66341145833334,61.70084789085099L224.91276041666669,66.00596894652453L225.16210937499997,84.89487279552701L225.16210937499997,94.90320003687432L225.66080729166666,90.63186004121194L225.91015625,67.27151472023944L226.15950520833334,85.25714558751474L226.15950520833334,95.55390253625241L226.40885416666669,97.73998856792733L226.40885416666669,98.04129507473854L226.90755208333331,85.43670248207678L226.90755208333331,77.60243924714736L227.15690104166666,99.18081415503336L227.65559895833334,105.89744033212024L227.90494791666669,113.89998129050304L227.90494791666669,118.38135902743127L228.154296875,113.00137083707422L228.40364583333331,108.94511715431639L228.65299479166666,87.20222231174377L228.90234375,96.4794302553879L229.15169270833334,79.96758313547706L229.15169270833334,71.01860980948669L229.40104166666669,83.38900480073661L229.650390625,71.57374462183047L229.650390625,63.99513518141236L229.89973958333331,60.586599291775315L229.89973958333331,57.426949968963896L230.14908854166666,43.45057791261948L230.14908854166666,35.22402716749358L230.3984375,24.20329752608209L230.64778645833334,51.19015419563636L230.89713541666666,62.30432952799084L231.146484375,71.24155101935133L231.39583333333331,62.68488075698545L231.39583333333331,58.09743718776726L231.89453125,51.76592958255783L231.89453125,46.31521029858478L232.14388020833334,69.97692507802115L232.14388020833334,86.08960963665645L232.642578125,89.83132638019389L233.14127604166666,83.01052525926868L233.390625,74.36159029233546L233.390625,69.9417644462309L233.63997395833334,65.6839279290467L233.88932291666666,81.80666144284727L234.138671875,99.11230377474932L234.38802083333334,104.95029203962989L234.88671875,90.93285506941447L234.88671875,81.77976530993705L235.13606770833334,84.4382591465668L235.13606770833334,85.27296234052352L235.38541666666666,71.80940430472694L235.88411458333334,87.0929531206946L236.13346354166669,101.77769479888605L236.3828125,72.86816384311004L236.3828125,57.02745670680042L236.63216145833334,55.65483989100141L236.63216145833334,59.412622382199395L236.88151041666666,75.03338764523983L237.38020833333334,87.30706197487804L237.38020833333334,96.3244069181477L237.62955729166669,84.58640391928795L237.62955729166669,79.53854837435554L237.87890625,68.6287974913547L238.12825520833331,70.73036839959798L238.37760416666666,85.11239609413556L238.87630208333334,52.88449712136947L239.12565104166669,83.04189810261683L239.375,83.14566016422678L239.375,81.96828397972837L239.87369791666666,68.65048582418291L240.37239583333334,69.99230007133636L240.62174479166669,78.30061852380322L240.87109375000003,83.5899754816248L241.12044270833331,44.7674121910523L241.12044270833331,22.302730667569964L241.36979166666666,50.33419837451879L241.36979166666666,66.44929422945648L241.619140625,65.23768643147272L241.86848958333334,39.26388413671567L241.86848958333334,25.64525564183054L242.36718750000003,54.79341833177578L242.36718750000003,70.96673148557115L242.61653645833331,79.37379242860744L242.86588541666666,68.82519556214493L242.86588541666666,62.123529202521325L243.36458333333334,50.2069176757653L243.61393229166669,49.73809585553687L243.61393229166669,49.99946935469729L243.86328124999997,55.07412938337058L243.86328124999997,57.291445500561224L244.86067708333334,62.32107791878935L244.86067708333334,70.3400857369248L245.35937499999997,94.71758819017401L245.85807291666666,109.71790886593381L246.35677083333334,111.03961962320463L246.60611979166669,104.20249880250942L247.10481770833331,67.52319987354667L247.35416666666666,60.096954508866986L247.603515625,51.043397827945384L248.10221354166669,58.40035947257955L248.10221354166669,62.059229799314785L248.3515625,58.12645317805078L248.60091145833331,68.1071118499013L248.60091145833331,73.15960679832858L248.85026041666666,75.42505939343917L249.34895833333334,42.9649365094211L249.59830729166666,66.47289140449854L249.84765625,51.89681384438591L250.09700520833331,66.64870200819182L250.09700520833331,74.47070882587569L250.34635416666666,70.5771060123001L250.84505208333334,90.16556288910726L251.09440104166666,60.65676917988658L251.34375,56.553599291467975L251.59309895833334,65.37322291827566L252.091796875,75.74403144883028L252.59049479166666,81.07556100630543L252.83984375,75.58955709467239L252.83984375,70.83746824894654L253.33854166666666,86.23910017044835L253.83723958333334,81.33994530956662L253.83723958333334,77.46203360586158L254.08658854166666,86.1933726321116L254.08658854166666,90.10253595414488L254.58528645833334,47.869919316405586L254.58528645833334,24.048493559836253L254.83463541666669,68.74038437130604L255.083984375,87.91046332139756L255.083984375,101.06308157823784L255.33333333333334,99.23395507736926L255.58268229166666,68.93839432827082L255.58268229166666,45.45726919084563L256.0813802083333,28.738468403711913L256.0813802083333,21.62278435588126L256.3307291666667,45.14322873980494L256.580078125,78.70135018139408L256.8294270833333,96.90178175731279L256.8294270833333,109.20777370041151L257.8268229166667,90.47391993813133L257.8268229166667,78.43975759697855L258.076171875,75.03092331706499L258.076171875,72.09378446731196L258.82421875,95.67448051058462L259.0735677083333,72.53605621517534L259.0735677083333,55.441687523272456L259.3229166666667,70.44916327912239L259.3229166666667,78.02248647066943L259.572265625,91.86772952555684L260.0709635416667,64.54849249605144L260.3203125,77.20719171400604L260.8190104166667,64.95399247147446L261.068359375,59.99882079249938L261.068359375,58.199002073000514L261.3177083333333,67.044091837173L261.5670572916667,81.69815897845237L261.81640625,65.93690901178289L262.3151041666667,66.08616912200225L262.564453125,51.75708962905185L262.8138020833333,75.32920931886844L263.0631510416667,83.33764771018426L263.3125,99.66443516846894L263.3125,108.54292847806781L263.5618489583333,94.20794314419153L263.5618489583333,82.47468765054191L264.060546875,50.87741908280116L264.060546875,33.447362718435144L264.3098958333333,39.037220412599616L264.3098958333333,42.194806779253646L264.80859375,78.13680368841288L265.0579427083333,73.7104440363898L265.0579427083333,72.8098386014548L265.556640625,27.6178942525144L265.8059895833333,72.22931081187352L265.8059895833333,95.43234004727701L266.0553385416667,102.14853890357706L266.3046875,60.882948248928905L266.3046875,37.07969792663007L266.55403645833337,44.37153410465524L266.8033854166667,71.32867314764646L266.8033854166667,86.22602201908103L267.5514322916667,80.9419913159186L267.80078125,69.09733957881342L267.80078125,60.83184149004151L268.05013020833337,57.58438238203983L268.548828125,82.01875855256486L268.7981770833333,70.01739218182078L268.7981770833333,66.1827422715392L269.0475260416667,94.03499386152804L269.296875,84.60013724015678L269.54622395833337,86.19186536133928L269.54622395833337,85.51553824395866L269.79557291666663,72.27109048982113L270.2942708333333,51.32630959229912L270.2942708333333,43.56273313752611L270.5436197916667,33.206382807986216L270.79296875,11.709660650700803L271.541015625,54.63847724174993L272.0397135416667,47.282194572866466L272.0397135416667,46.72104820012969L272.2890625,68.78890907352574L272.2890625,82.01079061651203L273.78515625,60.14503506382145L274.03450520833337,62.360210028105556L274.28385416666663,50.171721484170675L274.533203125,74.05734776393768L274.7825520833333,81.7733257143596L274.7825520833333,81.92859136200975L275.0319010416667,62.19278270250414L275.0319010416667,51.243092578489346L275.28125,53.51663312804843L275.28125,55.7793457770421L275.5305989583333,36.672168456992296L275.5305989583333,25.27412786474491L275.77994791666663,53.49783447780248L275.77994791666663,71.10115783722746L276.029296875,68.27458682408498L276.2786458333333,88.15439973433247L276.2786458333333,97.79366984354027L276.5279947916667,103.74414950189387L276.77734375,99.61569704865941L277.2760416666667,59.231131291828824L277.525390625,73.16181345749253L277.7747395833333,82.00705570505528L278.0240885416667,86.00011042887036L278.2734375,83.23537759210558L278.5227864583333,52.77364350583597L278.7721354166667,62.8996032441155L279.021484375,66.5809837038379L279.2708333333333,70.16223934783541L279.5201822916667,54.337652266260726L279.5201822916667,43.61205985451851L279.76953125,58.394809792993435L280.0188802083333,44.04161485195904L280.0188802083333,36.69109994810725L280.2682291666667,44.004760378632184L280.517578125,50.40246470052359L280.7669270833333,40.102996501089194L280.7669270833333,34.73643120420908L281.7643229166667,77.32579713042341L282.013671875,61.45616060968605L282.013671875,52.92254467402807" style="fill: none;" fill="none"></path></g></g></g></g><g opacity="0.2"><g><g><g><path stroke="rgb(255, 112, 67)" stroke-width="2px" d="M25.682942708333332,161.69913223605943L25.932291666666668,161.75310738604855L26.430989583333332,161.5687335783785L26.430989583333332,161.4445804191584L26.680338541666668,161.43884483081374L26.9296875,161.50708790936253L26.9296875,161.2446871840141L27.428385416666664,161.6514622184702L27.428385416666664,161.45127868042752L27.677734375,161.73163599563256L28.176432291666664,162.1395608257841L29.173828125,155.10042222521523L29.423177083333332,161.5749472328885L29.672526041666668,161.5973007519814L30.171223958333332,161.7652011097155L30.420572916666668,161.51561515575105L30.669921874999996,161.18147177249193L30.669921874999996,160.57307725332L30.919270833333332,158.73617204752836L31.168619791666668,157.94773161953145L31.41796875,161.087615638294L31.667317708333332,158.79068141633815L31.916666666666668,159.4604348431934L31.916666666666668,156.77379763668233L32.166015625,160.66766328161413L32.166015625,159.2181792069565L32.664713541666664,158.88763604380867L32.664713541666664,156.44005398316816L32.9140625,155.01857763528824L33.163411458333336,157.0246260924773L33.412760416666664,159.1260244710879L33.412760416666664,155.5696869817647L33.662109375,156.12439588525078L33.91145833333333,153.08586484735662L34.160807291666664,156.12538354505193L34.160807291666664,155.8851724321192L34.41015625,156.64078908616847L34.659505208333336,155.0729534192519L34.908854166666664,148.87740206718445L35.65690104166667,150.11021754958412L35.65690104166667,149.22211945056915L35.90625,153.2266005819494L35.90625,150.19619217785922L36.155598958333336,158.95932697978887L36.155598958333336,156.1736973740838L36.903645833333336,151.55408937280828L37.90104166666667,147.41269486600703L38.150390625,138.26135165041143L38.39973958333333,144.4129058447751L39.14778645833333,154.05726780674675L39.646484375,131.10666496103462L39.895833333333336,120.03658424724233L39.895833333333336,119.42948982932351L40.145182291666664,148.2618064446883L40.643880208333336,136.6691726771268L40.643880208333336,137.46501235528424L40.893229166666664,154.1335124427622L41.142578125,121.07710313796997L41.391927083333336,119.98219737139614L42.139973958333336,117.98727117885244L42.389322916666664,123.82084907184947L42.63867187499999,139.28496458313683L42.888020833333336,136.54458479447797L42.888020833333336,136.91105287725276L43.137369791666664,131.84036116166547L43.636067708333336,135.25038394061002L43.885416666666664,160.27455719899046L44.134765625,102.63130248676646L44.384114583333336,102.20305936986749L44.384114583333336,85.10530246387829L44.633463541666664,139.51801950281316L44.8828125,135.4772640575062L44.8828125,126.74676036834717L45.38151041666667,69.61905141310258L45.630859375,131.1906951340762L45.630859375,128.83622026443481L45.88020833333333,77.0931978225708L46.12955729166667,161.91006383841687L46.37890625,110.01131257143886L47.126953125,131.85284386981618L47.126953125,136.65933465957642L47.37630208333333,90.82351320440118L47.62565104166667,87.79777110706677L47.875,124.23936605453491L48.12434895833333,58.525278438221314L48.373697916666664,155.6214682297273L48.623046875,62.400145617398344L48.872395833333336,91.17599201202393L48.872395833333336,74.58736601742832L49.869791666666664,69.22451218691738L50.86718750000001,104.85468673706055L50.86718750000001,107.238083449277L51.116536458333336,62.05845390666614L51.61523437499999,79.30287829312412L51.864583333333336,-2.522282513705174L52.36328125,98.50829349864614L52.36328125,91.95162131569602L52.861979166666664,76.48309412869541L52.861979166666664,64.30409136685459L53.111328125,20.368415485728878L53.360677083333336,32.58539685336026L53.360677083333336,35.5416632565585L53.610026041666664,92.952467918396L54.108723958333336,37.104912671175875L54.108723958333336,38.12025781111284L54.35807291666667,102.14050115238535L54.607421875,95.19568252563477L55.10611979166667,64.06806382265957L55.60481770833333,99.37917410243642L55.85416666666667,97.3079473322088L56.103515625,67.65056055242366L56.35286458333333,13.323530717329541L56.8515625,30.602932149713695L57.35026041666667,136.72791528701782L57.35026041666667,139.36715253916654L57.599609375,90.2361642664129L57.599609375,79.86454807628284L57.84895833333333,93.02642666209829L58.34765625,80.32467408613725L58.597005208333336,101.19762940840288L58.846354166666664,50.590126384388306L59.095703125,136.95663569190285L59.84375,130.63942471417514L60.093098958333336,-70.08099070462315L60.59179687500001,68.70396917516535L61.090494791666664,120.6861403205178L61.33984374999999,66.81533215262674L61.589192708333336,26.25417345220393L62.087890625,0.788985859264036L62.337239583333336,131.56361965699628L62.337239583333336,117.80890213359487L62.586588541666664,106.53416750647806L62.8359375,92.49076010964133L62.8359375,99.4735650582747L63.334635416666664,39.346653504805126L63.583984375,20.256547581065792L63.833333333333336,84.15025086836381L64.08268229166667,106.31775812669234L64.58138020833333,96.7837160283869L64.83072916666667,29.681615309281785L64.83072916666667,25.69464874267578L65.080078125,56.52954205599698L65.32942708333333,117.2851878079501L65.57877604166667,47.300686836242676L65.828125,7.093851089477539L65.828125,12.947417519309303L66.32682291666667,80.99885992570357L66.32682291666667,71.07719993591309L66.576171875,67.56265883012252L67.32421875,47.44405182925137L67.57356770833333,119.73481945558028L68.072265625,158.28479174592277L68.072265625,151.03200314261696L68.32161458333333,122.45217635414816L68.57096354166666,43.223310817371704L69.06966145833333,61.81667787378484L69.31901041666667,95.83220611919057L69.568359375,-25.085679314353268L69.81770833333333,27.10339112715288L69.81770833333333,28.596146323464136L70.06705729166667,145.101731040261L70.31640625,9.92752421985974L70.56575520833333,126.32307746193625L70.81510416666667,56.568091652610086L71.064453125,90.63422203063965L71.31380208333334,68.39287948608398L71.31380208333334,68.04523866826838L71.56315104166667,112.89586561376397L72.06184895833334,76.51764678955078L72.31119791666667,38.88766176050359L72.31119791666667,39.11875100569292L72.560546875,96.08560258691962L72.80989583333334,53.31943165172229L73.30859375,-24.378900701349416L73.30859375,-8.706005096435547L73.55794270833333,77.19966446269642L73.80729166666667,152.77635888619855L73.80729166666667,158.00541519576853L74.056640625,68.13512342626399L74.056640625,77.44629391756924L75.30338541666666,-37.204589150168694L75.30338541666666,-63.93350289084693L76.05143229166666,50.79977260936389L76.79947916666666,54.46872043609619L77.048828125,26.180469339544118L77.54752604166666,110.09993960640647L77.54752604166666,97.17045814340766L77.796875,141.97939890081233L78.04622395833333,16.331386912952762L78.29557291666666,26.92669261585583L78.79427083333333,-4.084436243230661L79.79166666666667,43.519269249655984L80.041015625,131.32139223272148L80.041015625,129.154964316975L80.29036458333333,-59.98997792330655L80.53971354166667,-33.08762186223809L81.03841145833333,32.48045028339734L81.28776041666667,91.0818788355047L82.28515625,18.136643843217332L82.28515625,7.628529982133349L82.53450520833333,88.84930471940474L82.53450520833333,90.85151490298183L82.78385416666667,54.0415807203813L83.03320312500001,-39.35180785439233L83.28255208333333,19.883999217640262L83.53190104166667,148.57870345765895L83.53190104166667,152.74373814192685L83.78125000000001,76.77979330583052L84.03059895833333,127.0061715299433L84.27994791666667,48.61208300157026L84.77864583333333,-9.693788355047067L85.52669270833333,-69.00687980651855L86.025390625,58.12346293709495L86.025390625,52.89497713609175L86.27473958333333,99.81919583407314L86.52408854166667,8.007621591741383L87.02278645833333,125.90552113272928L88.26953125,39.970329804853954L88.76822916666667,-130.07127727161753L88.76822916666667,-133.27391849864614L89.017578125,4.434762261130591L89.26692708333333,84.37511322715066L89.51627604166667,88.73572384227406L89.51627604166667,80.22336951169102L89.765625,60.13633676008745L90.513671875,105.87057971954346L90.513671875,103.90523702448066L91.26171875,16.532159631902516L91.51106770833334,-26.804577740755956L91.76041666666666,95.67418055100875L91.76041666666666,97.5369918129661L92.009765625,3.4563772028142807L92.009765625,-2.3659544858065447L92.25911458333334,25.342362837357957L92.25911458333334,22.020585146817286L92.50846354166666,75.24380484494297L92.50846354166666,81.50070684606379L92.7578125,99.59275167638604L93.00716145833334,25.00547825206409L93.25651041666666,9.432799252596777L93.505859375,13.371370488947093L93.505859375,15.557092493230641L93.75520833333334,-0.860128229314645L94.25390625,73.0067476792769L94.50325520833334,95.27630797299473L94.75260416666666,115.29322459480979L95.25130208333334,82.924109805714L95.50065104166666,7.0343908830122555L95.50065104166666,-2.6592740145596663L95.75,100.82411653345282L95.99934895833334,64.29052647677334L96.24869791666666,129.9339848431674L96.498046875,106.75330066680908L96.74739583333333,24.41076816212048L96.99674479166666,-17.110619631680567L97.24609375,127.64961645819925L97.49544270833333,55.47487571022727L97.49544270833333,51.88604406876997L97.74479166666667,104.25528912110762L97.74479166666667,102.455923427235L97.994140625,82.94623184204102L98.24348958333333,-40.08360203829678L98.24348958333333,-38.558377526023186L98.99153645833333,99.74405652826484L98.99153645833333,96.42917702414773L99.24088541666667,110.6620260585438L99.490234375,81.02227054942738L99.490234375,77.13528910550205L99.98893229166667,149.0846775228327L100.23828125,156.33656720139763L100.48763020833333,25.13643576882102L100.73697916666667,-0.6925655711780787L100.986328125,-15.98951773210005L101.23567708333333,53.27558881586248L101.23567708333333,51.281781456687234L101.48502604166667,69.39462887157093L101.73437500000001,154.54634073647586L102.23307291666667,31.04029568758877L102.48242187500001,56.7284629128196L102.73177083333333,123.41774498332632L102.98111979166667,110.53078690442173L103.47981770833333,94.32059279355137L104.22786458333333,-71.46104465831411L104.97591145833333,57.385210384022095L105.22526041666667,45.96519331498579L105.474609375,67.5773965662176L105.474609375,59.112820278514526L105.72395833333333,-23.36667286265981L105.72395833333333,-14.72563726251777L105.97330729166667,148.10076581348073L105.97330729166667,142.2674560546875L106.22265625,121.34600509296763L106.47200520833333,101.09948457371104L106.970703125,143.82024437730962L106.970703125,138.25936668569392L107.22005208333333,58.29657346552068L107.46940104166667,59.978450081565164L107.96809895833333,129.9811706759713L108.21744791666667,59.46416482058438L108.21744791666667,64.03146639737217L108.466796875,72.68903758309104L108.71614583333334,130.04304794831708L108.96549479166667,-109.87826399369673L108.96549479166667,-89.49136075106533L109.21484375,76.46769280867143L109.21484375,86.09437430988659L109.46419270833334,75.85988851027055L109.71354166666666,107.31775981729682L109.71354166666666,105.03858436237681L109.962890625,73.68704466386275L110.21223958333334,35.80925733392888L110.21223958333334,25.621361298994582L110.46158854166666,91.96024790677158L110.46158854166666,96.93191901120274L110.7109375,24.150103135542434L110.96028645833334,99.2526494806463L110.96028645833334,100.60871796174483L111.458984375,32.644965085116304L111.95768229166666,25.576638828624386L112.20703125,146.9348392053084L112.45638020833334,103.90480106527154L112.45638020833334,102.8023065220226L112.70572916666666,91.82821013710715L112.955078125,108.71986250443892L113.20442708333334,-63.81288493763316L113.45377604166666,23.451472715897996L113.703125,105.46373718435113L114.20182291666666,22.01228263161399L114.70052083333334,146.86878463354978L114.70052083333334,139.27829209241L114.94986979166666,4.32880488308994L115.19921875,151.45901554281062L115.19921875,147.45009765841743L115.44856770833333,9.944700241088867L115.44856770833333,16.208114624023438L115.69791666666666,106.24653859571977L115.947265625,149.11957162076777L116.19661458333333,63.96567899530584L116.94466145833333,57.208018042824484L117.19401041666667,32.4711292440241L117.19401041666667,40.103216344659984L117.443359375,97.6479222124273L117.443359375,84.04613763635808L117.69270833333333,11.39506322687322L118.19140625,107.9589825110002L118.19140625,109.89145851135254L118.69010416666667,125.71741052107377L118.69010416666667,125.55222441933371L118.939453125,60.36243369362571L119.18880208333333,72.36357281424783L119.43815104166667,124.70218498056586L119.6875,23.563849882646043L119.93684895833333,73.96250143918125L120.18619791666667,98.33231258392334L120.43554687500001,-15.313186818903128L120.68489583333333,125.90786682475698L120.68489583333333,136.6782410144806L120.93424479166667,0.22012467817827064L121.18359375000001,101.5914356058294L121.18359375000001,102.39593852650034L121.43294270833333,64.28268692710184L121.68229166666667,57.65294335105202L121.68229166666667,68.21790937943892L122.43033854166667,46.67975746501575L122.92903645833333,108.91320462660356L122.92903645833333,102.71619493311103L123.17838541666667,116.02585983276367L123.427734375,-12.85931517861108L123.67708333333333,131.1242287158966L123.92643229166667,84.19728816639294L123.92643229166667,84.37813793529163L124.17578125,79.51179920543323L124.17578125,81.8193428733132L124.42513020833333,101.1880035833879L124.67447916666667,108.50189061598344L124.923828125,91.84683678366922L125.17317708333333,58.35822504216975L125.42252604166667,94.1807926351374L125.671875,-0.3061745383522907L125.92122395833333,55.448787602511324L125.92122395833333,54.00141074440696L126.419921875,139.50900517810476L126.66927083333333,143.83370702916926L126.91861979166667,109.63708981600674L127.16796875,33.950751651417114L127.41731770833334,95.38554469021885L127.916015625,80.73160535638982L128.41471354166666,104.52128596739335L128.6640625,61.4763904918324L128.91341145833334,72.30017740076238L129.16276041666666,83.51572574268688L129.412109375,116.77599902586503L129.66145833333334,90.46264700456099L130.16015625,152.21921266208994L130.40950520833334,115.93462475863369L130.65885416666666,84.65341724048962L130.65885416666666,79.09028452092952L130.908203125,115.92960544065996L131.15755208333334,-17.91241420399058L131.90559895833334,86.93188667297363L132.15494791666666,94.60608048872514L132.404296875,98.29479694366455L132.404296875,86.92730331420898L132.65364583333334,102.3960234035145L132.65364583333334,103.63167454979636L133.15234375,60.73939566178755L133.40169270833334,141.7702696540139L133.65104166666666,40.987434213811696L133.900390625,58.9445786042647L134.14973958333331,123.69535454836758L134.14973958333331,126.69106561487372L134.39908854166666,53.534463709050954L134.39908854166666,45.59590114246716L134.6484375,63.46561449224299L134.89778645833331,18.13840311223811L134.89778645833331,17.595637754960496L135.14713541666666,45.04166967218572L135.396484375,81.72340098294346L135.64583333333331,30.947640852494676L135.89518229166666,126.31340148232199L136.14453125,110.60525105216287L136.39388020833331,79.87653116746382L136.39388020833331,84.80669741197066L136.892578125,104.20107199928977L137.14192708333331,126.68217667666347L137.39127604166666,107.92882416465066L138.13932291666666,58.48121955178001L138.388671875,79.3849312175404L138.388671875,72.92242622375488L138.63802083333334,132.83927681229332L138.63802083333334,130.30239738117564L138.88736979166666,115.6497813571583L138.88736979166666,111.16389226913452L139.13671875,60.69847722487017L139.38606770833334,73.61710600419478L139.38606770833334,76.04678769545121L139.884765625,40.12929673628374L139.884765625,36.72602167996494L140.13411458333334,88.11967104131526L140.13411458333334,83.95470965992321L140.38346354166666,22.82634579051624L141.13151041666666,58.136912085793234L141.380859375,25.854634198275487L141.63020833333334,101.6928829279813L142.62760416666669,144.73983281308955L142.876953125,119.28901837088846L143.37565104166669,22.308271928267043L143.87434895833334,77.96267795562744L143.87434895833334,80.07748135653408L144.12369791666669,56.11469407515093L144.373046875,137.7142594944347L144.373046875,139.7552468993447L144.62239583333334,98.51676962592386L144.87174479166669,129.421443419023L145.12109375,79.81444748965176L145.37044270833334,42.242333152077414L145.61979166666669,122.0590838952498L145.61979166666669,123.015971920707L145.869140625,59.87335690585049L146.11848958333334,96.09565665505149L146.36783854166669,112.55294704437256L146.6171875,65.21165813099255L146.86653645833334,109.29316815462978L146.86653645833334,120.46936056830667L147.11588541666666,57.675119400024414L147.11588541666666,50.52112908796831L147.61458333333334,95.13988746296275L147.61458333333334,86.98952588168056L147.86393229166666,52.541402643377126L148.11328125,84.4938638860529L148.36263020833334,113.43816414746372L149.36002604166666,50.57977138866077L149.609375,85.33038087324663L149.85872395833334,129.00071577592328L150.10807291666669,76.72582695700906L150.35742187499997,47.14975235678933L150.35742187499997,52.21730362285266L150.85611979166666,26.293494658036668L150.85611979166666,25.770482496781785L151.10546875,63.69631793282249L151.35481770833334,55.9926872253418L151.35481770833334,57.718746185302734L151.60416666666669,36.371366934342824L151.85351562499997,55.77080327814275L152.85091145833334,146.7891478105025L153.10026041666669,57.22770951010964L153.10026041666669,52.43117055025967L153.349609375,99.32994929226963L153.59895833333331,79.81849843805486L153.84830729166666,83.74271774291992L153.84830729166666,81.34763500907205L154.09765625,85.62158619273792L154.34700520833334,152.25642158768395L154.59635416666669,132.14598978649485L154.59635416666669,128.5307556065646L155.09505208333331,41.60833272066983L155.09505208333331,34.898604132912375L155.34440104166666,49.3147643696178L155.84309895833334,84.29820693622936L156.09244791666666,91.27985061298716L156.341796875,-22.746160160411478L156.59114583333331,48.54537738453259L156.84049479166666,128.11006654392588L157.58854166666666,28.39971004832874L157.837890625,112.13903271068227L158.08723958333334,87.10454966805197L158.33658854166666,108.47825236753984L158.83528645833334,-35.16544203324751L159.08463541666666,89.11091110923074L159.333984375,141.35719058730385L159.58333333333334,96.04820268804376L159.83268229166666,17.017193187366825L160.08203125,75.84583750638096L160.08203125,74.31925496188076L160.33138020833334,67.44035876880993L160.33138020833334,70.82236827503552L160.58072916666666,107.00447104193948L161.32877604166669,95.32722646539862L161.32877604166669,93.43101224032314L162.07682291666666,-10.2379271767356L162.326171875,88.76030731201172L162.57552083333334,97.30403913151133L162.82486979166669,124.28533467379482L162.82486979166669,124.82594724134965L164.07161458333334,101.10403321006082L164.32096354166669,2.1080826846036116L164.5703125,58.86088215221057L165.06901041666666,119.79387456720526L165.06901041666666,118.55193094773726L165.318359375,140.00384202870455L165.56770833333334,53.54501932317561L165.56770833333334,53.32364463806152L165.81705729166669,26.111688093705613L166.06640625000003,31.99031639099121L166.06640625000003,35.20562744140625L166.31575520833331,123.1459572098472L166.56510416666666,64.36578924005681L166.56510416666666,71.43510315634988L167.06380208333334,113.47442592274058L167.06380208333334,106.25633417476308L167.31315104166669,84.0744556947188L168.310546875,104.76761449467051L168.55989583333334,137.038800499656L168.55989583333334,136.5782269564542L168.80924479166669,22.73325885425915L169.05859374999997,73.82162874395198L169.30794270833331,40.06146456978538L169.30794270833331,38.68570076335559L169.806640625,75.84059827977961L169.806640625,67.65574576637961L170.05598958333334,127.6571319319985L170.30533854166669,100.01135739413174L171.80143229166669,115.44883888418023L172.30013020833331,68.49045718799938L172.54947916666666,116.54947384920986L172.54947916666666,117.39912362532182L172.798828125,36.773599104447804L173.04817708333334,131.9105255170302L173.29752604166669,99.3436260656877L173.79622395833331,2.997732682661573L173.79622395833331,0.5650648637251456L174.04557291666666,-18.605442740700443L174.04557291666666,-24.328653508966603L174.294921875,57.70455629175359L174.294921875,63.15395381233909L174.54427083333334,58.828906666148804L174.54427083333334,55.93841223283247L174.79361979166666,102.59624056382613L175.04296875,28.037285197864872L175.29231770833331,22.532609592784542L175.54166666666666,134.76799700476906L175.791015625,113.93264605782248L176.04036458333334,47.26459867304021L176.04036458333334,43.66724846579812L176.28971354166666,64.31821181557395L176.28971354166666,59.73736078088933L176.5390625,131.0024861422452L176.5390625,132.0564368204637L177.78580729166666,65.91141510009766L177.78580729166666,70.21971061012961L178.03515625,44.57759302312678L178.28450520833334,-28.28475570678711L178.783203125,89.43665365739302L178.783203125,88.28451763499866L179.03255208333334,73.91514006527989L179.28190104166666,129.8096843849529L179.53125,-9.917200088500977L180.02994791666669,86.2160030711781L180.279296875,84.36829220164906L180.52864583333334,48.70584123784846L180.52864583333334,44.38584041595459L180.77799479166666,71.2948708967729L181.02734375,50.846300645308055L181.27669270833334,101.96019536798651L181.52604166666669,51.33131105249578L181.52604166666669,45.2260071147572L181.775390625,121.09186788038774L182.02473958333331,99.27668124979193L182.02473958333331,94.59691377119584L182.27408854166666,110.44457114826548L182.5234375,66.71924365650524L182.5234375,73.94209237532182L182.77278645833334,118.61204316399314L182.77278645833334,122.91505700891669L183.02213541666669,71.18686875430019L183.52083333333331,-13.7179464860396L183.77018229166666,85.81281410564075L184.01953125,23.304326837713063L184.51822916666669,93.6253806027499L184.51822916666669,98.41477831927212L184.76757812500003,19.10340846668591L185.26627604166666,72.9628353985873L185.515625,59.592028184370555L185.76497395833334,81.11590532823043L186.01432291666669,132.09376534548673L186.26367187500003,120.16116055575283L186.26367187500003,120.84777701984751L186.51302083333331,86.89006545326926L186.76236979166666,29.320286143909794L187.01171875,108.89770299738105L187.26106770833334,75.69572864879261L187.51041666666669,72.16243743896484L187.51041666666669,65.14937383478338L187.75976562499997,108.74063422463156L188.00911458333331,108.81377506256104L188.5078125,94.00187960537998L188.75716145833334,114.7252584804188L188.75716145833334,113.68399498679422L189.00651041666669,90.34172040765937L189.25585937499997,117.31252592260186L189.50520833333331,49.07649144259366L189.75455729166666,69.14961979605935L190.25325520833334,84.84888900410046L190.50260416666669,56.878648931329906L190.50260416666669,52.74601797624067L190.751953125,108.4265352595936L191.00130208333331,87.28337010470302L191.25065104166666,132.946217992089L191.25065104166666,139.01903718168086L191.5,59.28627803108909L191.5,56.740098779851735L191.74934895833334,63.27757332541726L191.74934895833334,58.53702233054421L192.248046875,20.417891068892043L192.49739583333331,23.573741912841797L192.74674479166666,118.52894856713034L193.24544270833334,79.88571331717752L193.24544270833334,82.63260355862705L193.49479166666666,48.19490476088091L193.49479166666666,47.6855500828136L193.99348958333331,76.76979325034402L194.4921875,48.611411701549194L194.74153645833334,37.04995094646106L194.99088541666666,75.26138210296631L195.48958333333334,-7.951247822154642L195.48958333333334,-13.046785354614258L195.98828125,73.27051457491787L196.23763020833334,69.03355433724143L196.48697916666666,98.0318248055198L196.736328125,48.591843691739165L196.98567708333334,105.54358716444536L196.98567708333334,103.74561422521417L197.484375,55.09380878101697L197.73372395833334,54.254444555802785L197.73372395833334,68.62690856240012L197.98307291666666,33.24399618668989L198.232421875,69.7985971624201L198.232421875,67.8032002882524L198.48177083333334,24.873440482399683L198.73111979166669,116.75864553451538L198.98046875,42.0732349915938L199.728515625,99.31263438138096L201.224609375,84.38171820207076L201.224609375,87.26928052035244L201.47395833333334,38.93085644461892L201.47395833333334,36.93670186129483L201.97265625,4.505920063365599L202.47135416666666,39.2376791347157L202.47135416666666,34.90480015494607L202.720703125,92.64785974675958L202.97005208333334,70.11223316192627L202.97005208333334,73.14316818930887L203.21940104166669,102.0494551225142L203.71809895833331,106.0238946134394L203.71809895833331,107.15180210633712L203.96744791666666,18.865922581065792L204.216796875,104.48645166917281L204.216796875,105.91977752338755L204.46614583333334,71.3313217163086L204.71549479166669,43.02516156976873L204.96484375000003,71.20050308921121L205.712890625,12.55192149769177L205.96223958333334,75.38841212879528L206.46093749999997,-7.8314940712668495L206.71028645833331,79.26351079073818L207.70768229166669,23.26235129616477L207.95703124999997,98.12863861430776L208.45572916666666,121.54954017292368L208.95442708333334,34.48703549124978L209.20377604166669,85.76627835360439L209.70247395833331,76.2012715773149L209.70247395833331,68.17449864474209L209.95182291666666,78.05456118150191L210.201171875,121.96045294674961L210.45052083333334,120.50544101541693L210.69986979166669,90.40485347401011L210.94921875,61.212361249056734L211.19856770833331,108.51236135309394L211.19856770833331,115.26273831454189L212.19596354166666,62.8497468774969L212.19596354166666,61.873692079023876L212.4453125,127.23534332622182L212.4453125,124.25374885038896L212.69466145833331,50.5339146527377L212.94401041666666,-13.277681697498679L212.94401041666666,-13.964275013316751L213.193359375,63.69465125690808L213.193359375,61.44755545529453L213.44270833333334,19.938011863014918L213.44270833333334,23.01196410439231L213.69205729166666,113.32001534375279L213.69205729166666,111.78291962363504L214.19075520833334,113.26156980341132L214.44010416666666,95.16421630165793L214.93880208333334,83.62269392880528L215.18815104166666,109.28838803551413L215.18815104166666,105.8078247417103L215.4375,34.96834217418323L216.43489583333334,62.98191582072864L216.68424479166666,59.92088803378018L217.18294270833334,63.09365255182439L217.43229166666669,84.47711224989457L217.93098958333334,75.95431804656982L218.18033854166666,48.14557578346946L218.18033854166666,44.66857346621426L218.4296875,58.231310757723726L218.67903645833334,56.35515837235884L218.92838541666669,85.19766408746892L218.92838541666669,84.47181129455566L219.67643229166666,20.139093225652516L219.92578125,2.0070173090154526L219.92578125,12.101378874345263L220.673828125,16.38286868008701L220.673828125,15.999378897927025L221.92057291666669,97.5593646222895L221.92057291666669,97.58421429720791L222.41927083333331,47.722826524214305L222.41927083333331,44.306549852544606L222.66861979166666,13.31208003651013L222.91796875,70.50428780642422L223.16731770833334,67.17322765697132L223.41666666666669,83.17856337807395L223.66601562500003,63.42260499434038L223.91536458333331,65.08033024181019L224.16471354166666,59.259989304976024L224.16471354166666,63.67262181368741L224.4140625,91.9333804737438L224.66341145833334,42.10578918457031L224.91276041666669,72.46365053003484L225.16210937499997,113.22822856903076L225.16210937499997,109.91569089889526L225.66080729166666,84.22485004771839L225.91015625,32.23099673878064L226.15950520833334,112.23559188842773L226.15950520833334,110.99903795935892L226.40885416666669,101.01911761543967L226.40885416666669,98.49325483495538L226.90755208333331,66.52981359308416L226.90755208333331,65.8510443947532L227.15690104166666,131.54837651686236L227.65559895833334,115.97237959775059L227.90494791666669,125.90379272807729L227.90494791666669,125.10342563282359L228.154296875,104.93138855153863L228.40364583333331,102.86073663017966L228.65299479166666,54.58788004788486L228.90234375,110.39524217085405L229.15169270833334,55.19981245561079L229.15169270833334,57.59514982050115L229.40104166666669,101.94459728761153L229.650390625,53.85085435347124L229.650390625,52.62722102078525L229.89973958333331,55.473795457319774L229.89973958333331,52.687475984746754L230.14908854166666,22.48601982810281L230.14908854166666,22.884201049804688L230.3984375,7.672203063964844L230.64778645833334,91.67043919996782L230.89713541666666,78.97559252652256L231.146484375,84.64738325639205L231.39583333333331,49.84987536343662L231.39583333333331,51.21627183393999L231.89453125,42.26866817474365L231.89453125,38.13913137262517L232.14388020833334,105.46949724717574L232.14388020833334,110.25863647460938L232.642578125,95.44390149550004L233.14127604166666,72.77932357788086L233.390625,61.3881878419356L233.390625,63.3120256770741L233.63997395833334,59.297173153270386L233.88932291666666,105.99076171354814L234.138671875,125.07076727260244L234.38802083333334,113.70727443695068L234.88671875,69.90669961409135L234.88671875,68.05013067072088L235.13606770833334,88.42599990151145L235.13606770833334,86.52501713145863L235.38541666666666,51.614067251032054L235.88411458333334,110.0182763446461L236.13346354166669,123.8048073161732L236.3828125,29.50386740944602L236.3828125,33.26639600233599L236.63216145833334,53.59591466730291L236.63216145833334,65.04929611899637L236.88151041666666,98.46453553980048L237.38020833333334,105.71757346933539L237.38020833333334,109.8504243330522L237.62955729166669,66.97939942099832L237.62955729166669,71.9667650569569L237.87890625,52.264171166853465L238.12825520833331,73.88272476196289L238.37760416666666,106.68543763594194L238.87630208333334,4.542648662220339L239.12565104166669,128.27799957448784L239.375,83.30130325664173L239.375,80.20221970298074L239.87369791666666,48.673788590864696L240.37239583333334,72.00502144206654L240.62174479166669,90.76309620250356L240.87109375000003,91.52401091835715L241.12044270833331,-13.466432744806449L241.12044270833331,-11.394291617653568L241.36979166666666,92.38139993494208L241.36979166666666,90.62193801186301L241.619140625,63.42027473449707L241.86848958333334,0.3031806945800781L241.86848958333334,5.217312899502834L242.36718750000003,98.51566236669366L242.36718750000003,95.2267012162642L242.61653645833331,91.98438384316184L242.86588541666666,53.00230026245117L242.86588541666666,52.07102966308594L243.36458333333334,32.332000385631225L243.61393229166669,49.034863125194214L243.61393229166669,50.39152960343794L243.86328124999997,62.68611942638049L243.86328124999997,60.61741967634722L244.86067708333334,69.86552654613148L244.86067708333334,82.36859746412797L245.35937499999997,131.28384187004784L245.85807291666666,132.21838987957346L246.35677083333334,113.02218575911088L246.60611979166669,93.94681757146661L247.10481770833331,12.504251480102539L247.35416666666666,48.957586461847484L247.603515625,37.46306280656294L248.10221354166669,69.4358019395308L248.10221354166669,67.54753528941761L248.3515625,52.227288246154785L248.60091145833331,83.07809985767712L248.60091145833331,80.73834922096945L248.85026041666666,78.82323828610508L249.34895833333334,-5.7252478166060055L249.59830729166666,101.7348237471147L249.84765625,30.03269750421697L250.09700520833331,88.7765342539007L250.09700520833331,86.20371905240147L250.34635416666666,64.7367017919367L250.84505208333334,119.54824820431797L251.09440104166666,16.393578616055567L251.34375,50.39884445884011L251.59309895833334,78.6026583584872L252.091796875,91.30024424466221L252.59049479166666,89.07285534251821L252.83984375,67.36055122722279L252.83984375,63.70933498035779L253.33854166666666,109.34154805270107L253.83723958333334,73.99121301824397L253.83723958333334,71.64516605030407L254.08658854166666,99.2903811714866L254.08658854166666,95.96628093719482L254.58528645833334,-15.479005640203317L254.58528645833334,-11.68364507501777L254.83463541666669,135.7782205885107L255.083984375,116.66558174653487L255.083984375,120.79200896349819L255.33333333333334,96.49026532606645L255.58268229166666,23.495053204623144L255.58268229166666,10.235581484707911L256.0813802083333,3.6602672230113544L256.0813802083333,10.949258284135302L256.3307291666667,80.42389531569047L256.580078125,129.03853234377775L256.8294270833333,124.20242912119086L256.8294270833333,127.6667616150596L257.8268229166667,62.37313929471103L257.8268229166667,60.38851408524946L258.076171875,69.91767189719461L258.076171875,67.68807619268244L258.82421875,131.04552457549354L259.0735677083333,37.82841977206143L259.0735677083333,29.80013448541814L259.3229166666667,92.96037691289727L259.3229166666667,89.38247125799005L259.572265625,112.63559410788797L260.0709635416667,23.56963695179333L260.3203125,96.19524054093795L260.8190104166667,46.574193607677124L261.068359375,52.56606327403674L261.068359375,55.49927399375222L261.3177083333333,80.31172648343174L261.5670572916667,103.67925969037144L261.81640625,42.295034061778686L262.3151041666667,66.31005928733133L262.564453125,30.263470389626246L262.8138020833333,110.6873888535933L263.0631510416667,95.35030529715799L263.3125,124.154616355896L263.3125,121.86066844246604L263.5618489583333,72.70546514337713L263.5618489583333,64.87480441006748L264.060546875,3.4815162311900654L264.060546875,7.3022781718861065L264.3098958333333,47.422006953846314L264.3098958333333,46.93118632923474L264.80859375,132.04979905215177L265.0579427083333,67.07090455835515L265.0579427083333,71.45893044905229L265.556640625,-40.17002227089623L265.8059895833333,139.1464356509122L265.8059895833333,130.2368839003823L266.0553385416667,112.22283718802713L266.3046875,-1.015437733043313L266.3046875,1.3748224431818128L266.55403645833337,55.30928837169299L266.8033854166667,111.76438171213324L266.8033854166667,108.57204532623291L267.5514322916667,73.01594526117498L267.80078125,51.33036197315564L267.80078125,48.43359435688367L268.05013020833337,52.71319372003728L268.548828125,118.6703228083524L268.7981770833333,52.01534262570468L268.7981770833333,60.43076740611682L269.0475260416667,135.81337124651128L269.296875,70.44785230809993L269.54622395833337,88.57945754311301L269.54622395833337,84.50104756788774L269.79557291666663,52.40441885861484L270.2942708333333,19.909138246016067L270.2942708333333,31.917368455366653L270.5436197916667,17.671857313676316L270.79296875,-20.53542258522729L271.541015625,119.03170212832363L272.0397135416667,36.24777056954124L272.0397135416667,45.87932864102451L272.2890625,101.89070038361983L272.2890625,101.84361293099143L273.78515625,27.346401734785598L274.03450520833337,65.6829724745317L274.28385416666663,31.888988668268382L274.533203125,109.88578718358819L274.7825520833333,93.34729263999246L274.7825520833333,82.16148983348499L275.0319010416667,32.58906971324573L275.0319010416667,34.81855739246716L275.28125,56.926943952387035L275.28125,59.173414750532665L275.5305989583333,8.011402476917604L275.5305989583333,8.177066976373851L275.77994791666663,95.83339439738882L275.77994791666663,97.50614287636496L276.029296875,64.03473030437122L276.2786458333333,117.97411909970371L276.2786458333333,112.25257500735195L276.5279947916667,112.66986898942427L276.77734375,93.42301836880772L277.2760416666667,-1.3457173434170882L277.525390625,94.0578367059881L277.7747395833333,95.27491907639937L278.0240885416667,91.98969251459296L278.2734375,79.08827833695845L278.5227864583333,7.081042376431545L278.7721354166667,78.08854285153477L279.021484375,72.10305439342152L279.2708333333333,75.53412281383167L279.5201822916667,30.600771643898707L279.5201822916667,27.523671236905177L279.76953125,80.56893470070578L280.0188802083333,22.511822440407496L280.0188802083333,25.665327592329543L280.2682291666667,54.975251024419606L280.517578125,59.99902118336072L280.7669270833333,24.653794201937597L280.7669270833333,26.68658325888894L281.7643229166667,141.20984601974487L282.013671875,37.651705828579985L282.013671875,40.12212077054111" style="fill: none;" fill="none"></path></g></g></g></g></g></g><g transform="translate(30, 178)" clip-path="url(#clip_1)"><clipPath id="clip_1"><rect width="299" height="22"></rect></clipPath><g><g><line x1="0" y1="0" x2="0" y2="5" style="visibility: inherit;" fill="rgb(0, 0, 0)" stroke="rgb(204, 204, 204)" stroke-width="1px"></line><line x1="24.934895833333332" y1="0" x2="24.934895833333332" y2="5" style="visibility: inherit;" fill="rgb(0, 0, 0)" stroke="rgb(204, 204, 204)" stroke-width="1px"></line><line x1="49.869791666666664" y1="0" x2="49.869791666666664" y2="5" style="visibility: inherit;" fill="rgb(0, 0, 0)" stroke="rgb(204, 204, 204)" stroke-width="1px"></line><line x1="74.8046875" y1="0" x2="74.8046875" y2="5" style="visibility: inherit;" fill="rgb(0, 0, 0)" stroke="rgb(204, 204, 204)" stroke-width="1px"></line><line x1="99.73958333333333" y1="0" x2="99.73958333333333" y2="5" style="visibility: inherit;" fill="rgb(0, 0, 0)" stroke="rgb(204, 204, 204)" stroke-width="1px"></line><line x1="124.67447916666667" y1="0" x2="124.67447916666667" y2="5" style="visibility: inherit;" fill="rgb(0, 0, 0)" stroke="rgb(204, 204, 204)" stroke-width="1px"></line><line x1="149.609375" y1="0" x2="149.609375" y2="5" style="visibility: inherit;" fill="rgb(0, 0, 0)" stroke="rgb(204, 204, 204)" stroke-width="1px"></line><line x1="174.54427083333334" y1="0" x2="174.54427083333334" y2="5" style="visibility: inherit;" fill="rgb(0, 0, 0)" stroke="rgb(204, 204, 204)" stroke-width="1px"></line><line x1="199.47916666666666" y1="0" x2="199.47916666666666" y2="5" style="visibility: inherit;" fill="rgb(0, 0, 0)" stroke="rgb(204, 204, 204)" stroke-width="1px"></line><line x1="224.4140625" y1="0" x2="224.4140625" y2="5" style="visibility: inherit;" fill="rgb(0, 0, 0)" stroke="rgb(204, 204, 204)" stroke-width="1px"></line><line x1="249.34895833333334" y1="0" x2="249.34895833333334" y2="5" style="visibility: inherit;" fill="rgb(0, 0, 0)" stroke="rgb(204, 204, 204)" stroke-width="1px"></line><line x1="274.28385416666663" y1="0" x2="274.28385416666663" y2="5" style="visibility: inherit;" fill="rgb(0, 0, 0)" stroke="rgb(204, 204, 204)" stroke-width="1px"></line><line x1="299.21875" y1="0" x2="299.21875" y2="5" style="visibility: inherit;" fill="rgb(0, 0, 0)" stroke="rgb(204, 204, 204)" stroke-width="1px"></line></g><g transform="translate(0, 8)"><text x="0" y="0" dx="0em" dy="0.95em" style="text-anchor: middle; visibility: hidden; font-family: Roboto, sans-serif; font-size: 12px; font-weight: 200;" fill="rgb(50, 49, 63)" stroke="none" stroke-width="1px">-2k</text><text x="24.934895833333332" y="0" dx="0em" dy="0.95em" style="text-anchor: middle; visibility: inherit; font-family: Roboto, sans-serif; font-size: 12px; font-weight: 200;" fill="rgb(50, 49, 63)" stroke="none" stroke-width="1px">0</text><text x="49.869791666666664" y="0" dx="0em" dy="0.95em" style="text-anchor: middle; visibility: hidden; font-family: Roboto, sans-serif; font-size: 12px; font-weight: 200;" fill="rgb(50, 49, 63)" stroke="none" stroke-width="1px">2k</text><text x="74.8046875" y="0" dx="0em" dy="0.95em" style="text-anchor: middle; visibility: inherit; font-family: Roboto, sans-serif; font-size: 12px; font-weight: 200;" fill="rgb(50, 49, 63)" stroke="none" stroke-width="1px">4k</text><text x="99.73958333333333" y="0" dx="0em" dy="0.95em" style="text-anchor: middle; visibility: hidden; font-family: Roboto, sans-serif; font-size: 12px; font-weight: 200;" fill="rgb(50, 49, 63)" stroke="none" stroke-width="1px">6k</text><text x="124.67447916666667" y="0" dx="0em" dy="0.95em" style="text-anchor: middle; visibility: inherit; font-family: Roboto, sans-serif; font-size: 12px; font-weight: 200;" fill="rgb(50, 49, 63)" stroke="none" stroke-width="1px">8k</text><text x="149.609375" y="0" dx="0em" dy="0.95em" style="text-anchor: middle; visibility: hidden; font-family: Roboto, sans-serif; font-size: 12px; font-weight: 200;" fill="rgb(50, 49, 63)" stroke="none" stroke-width="1px">10k</text><text x="174.54427083333334" y="0" dx="0em" dy="0.95em" style="text-anchor: middle; visibility: inherit; font-family: Roboto, sans-serif; font-size: 12px; font-weight: 200;" fill="rgb(50, 49, 63)" stroke="none" stroke-width="1px">12k</text><text x="199.47916666666666" y="0" dx="0em" dy="0.95em" style="text-anchor: middle; visibility: hidden; font-family: Roboto, sans-serif; font-size: 12px; font-weight: 200;" fill="rgb(50, 49, 63)" stroke="none" stroke-width="1px">14k</text><text x="224.4140625" y="0" dx="0em" dy="0.95em" style="text-anchor: middle; visibility: inherit; font-family: Roboto, sans-serif; font-size: 12px; font-weight: 200;" fill="rgb(50, 49, 63)" stroke="none" stroke-width="1px">16k</text><text x="249.34895833333334" y="0" dx="0em" dy="0.95em" style="text-anchor: middle; visibility: hidden; font-family: Roboto, sans-serif; font-size: 12px; font-weight: 200;" fill="rgb(50, 49, 63)" stroke="none" stroke-width="1px">18k</text><text x="274.28385416666663" y="0" dx="0em" dy="0.95em" style="text-anchor: middle; visibility: inherit; font-family: Roboto, sans-serif; font-size: 12px; font-weight: 200;" fill="rgb(50, 49, 63)" stroke="none" stroke-width="1px">20k</text><text x="299.21875" y="0" dx="0em" dy="0.95em" style="text-anchor: middle; visibility: hidden; font-family: Roboto, sans-serif; font-size: 12px; font-weight: 200;" fill="rgb(50, 49, 63)" stroke="none" stroke-width="1px">22k</text></g><line x1="0" y1="0" x2="299.21875" y2="0" fill="rgb(0, 0, 0)" stroke="rgb(204, 204, 204)" stroke-width="1px"></line></g></g></g></g></svg>